<?xml version="1.0" standalone="no"?>
<!DOCTYPE svg PUBLIC "-//W3C//DTD SVG 20010904//EN"
 "http://www.w3.org/TR/2001/REC-SVG-20010904/DTD/svg10.dtd">
<svg version="1.0" xmlns="http://www.w3.org/2000/svg"
 width="300.000000pt" height="300.000000pt" viewBox="0 0 300.000000 300.000000"
 preserveAspectRatio="xMidYMid meet">
<metadata>
Created by potrace 1.10, written by Peter Selinger 2001-2011
</metadata>
<g transform="translate(0.000000,300.000000) scale(0.100000,-0.100000)"
fill="#000000" stroke="none">
<path d="M2454 2978 l-19 -23 23 19 c21 18 27 26 19 26 -2 0 -12 -10 -23 -22z"/>
<path d="M830 2855 c-24 -25 -42 -45 -39 -45 3 0 25 20 49 45 24 25 42 45 39
45 -3 0 -25 -20 -49 -45z"/>
<path d="M2334 2878 l-19 -23 23 19 c21 18 27 26 19 26 -2 0 -12 -10 -23 -22z"/>
<path d="M220 2876 c0 -2 8 -10 18 -17 15 -13 16 -12 3 4 -13 16 -21 21 -21
13z"/>
<path d="M2500 2826 c0 -2 8 -10 18 -17 15 -13 16 -12 3 4 -13 16 -21 21 -21
13z"/>
<path d="M1770 2816 c0 -2 14 -14 30 -26 17 -12 30 -19 30 -16 0 2 -13 14 -30
26 -16 12 -30 19 -30 16z"/>
<path d="M310 2806 c0 -2 8 -10 18 -17 15 -13 16 -12 3 4 -13 16 -21 21 -21
13z"/>
<path d="M1050 2806 c0 -2 8 -10 18 -17 15 -13 16 -12 3 4 -13 16 -21 21 -21
13z"/>
<path d="M2195 2748 l-60 -63 63 60 c34 33 62 61 62 62 0 8 -10 -1 -65 -59z"/>
<path d="M2540 2796 c0 -2 8 -10 18 -17 15 -13 16 -12 3 4 -13 16 -21 21 -21
13z"/>
<path d="M350 2776 c0 -2 8 -10 18 -17 15 -13 16 -12 3 4 -13 16 -21 21 -21
13z"/>
<path d="M655 2688 l-60 -63 63 60 c34 33 62 61 62 62 0 8 -10 -1 -65 -59z"/>
<path d="M1130 2746 c0 -2 8 -10 18 -17 15 -13 16 -12 3 4 -13 16 -21 21 -21
13z"/>
<path d="M1415 2708 l-40 -43 43 40 c39 36 47 45 39 45 -2 0 -21 -19 -42 -42z"/>
<path d="M2899 2713 l-24 -28 28 24 c25 23 32 31 24 31 -2 0 -14 -12 -28 -27z"/>
<path d="M898 2635 c-5 -55 -8 -122 -8 -148 0 -46 -1 -48 -26 -45 l-27 3 2
-107 2 -108 -25 0 c-23 0 -26 -4 -26 -36 l0 -37 -40 6 -40 5 0 -255 c0 -167 3
-252 10 -248 6 4 10 -5 10 -19 0 -16 -6 -26 -15 -26 -13 0 -15 -37 -15 -273
l0 -273 35 4 c31 4 35 8 35 33 0 19 -10 38 -30 56 -17 15 -30 36 -30 50 0 26
14 29 50 8 36 -21 40 -19 40 18 0 22 -8 41 -23 55 -27 26 -37 20 -37 -20 0
-19 -4 -27 -11 -22 -6 3 -9 19 -5 35 3 17 1 30 -7 33 -7 3 -3 4 8 1 19 -4 20
0 17 54 -3 71 11 86 45 47 30 -36 29 -48 -4 -41 l-28 6 25 -15 c57 -35 65 -11
20 55 -29 44 -40 89 -20 89 6 0 22 -7 35 -16 l25 -16 0 66 c0 59 -2 66 -20 66
-14 0 -20 7 -20 23 0 18 6 22 35 23 l35 1 1 -91 c0 -73 2 -86 11 -66 10 24 10
24 18 5 5 -11 9 -22 9 -25 2 -13 -71 -9 -99 5 -27 14 -30 14 -30 0 0 -8 14
-34 30 -57 32 -44 40 -88 16 -88 -8 0 -26 4 -40 10 -35 13 -35 -11 -1 -52 16
-19 25 -24 25 -14 0 8 -9 21 -20 29 -31 22 -13 27 36 10 38 -13 47 -13 61 -2
13 11 17 11 20 2 4 -10 10 -10 26 -1 27 14 23 15 58 -18 36 -34 38 -50 4 -28
-22 14 -32 15 -65 5 -29 -9 -45 -9 -64 0 -20 9 -29 9 -41 -1 -16 -13 -21 -90
-6 -90 5 0 11 -7 14 -14 4 -10 1 -13 -7 -10 -7 3 -16 -2 -20 -11 -5 -14 -8
-14 -33 2 -28 17 -28 17 -10 -3 9 -11 18 -36 18 -55 2 -32 2 -33 6 -5 5 31 24
56 44 56 17 0 38 -31 40 -60 1 -20 2 -21 6 -6 3 11 16 28 29 39 18 14 22 22
14 31 -13 16 -1 29 15 16 9 -7 16 -5 26 6 12 15 10 16 -26 13 -39 -4 -40 -3
-40 29 0 18 7 37 15 42 21 14 62 12 83 -4 21 -16 23 -66 2 -66 -8 0 -15 -4
-15 -10 0 -5 4 -10 9 -10 6 0 13 5 16 10 10 17 21 11 33 -15 14 -31 15 -38 3
-31 -5 4 -12 0 -15 -6 -5 -10 -7 -10 -12 0 -3 6 -15 12 -27 12 l-20 0 20 -23
c12 -12 23 -31 26 -42 4 -18 5 -18 6 2 0 12 13 34 28 48 15 14 22 25 15 25
-11 0 -10 3 1 14 14 15 40 16 53 3 11 -11 26 -8 19 3 -6 9 1 12 23 9 4 -1 6
-5 4 -11 -1 -5 2 -7 8 -3 22 14 49 13 62 -3 11 -14 10 -15 -6 -9 -11 5 -25 2
-35 -6 -21 -18 -51 -29 -51 -18 0 9 -30 24 -37 18 -2 -2 7 -15 21 -28 13 -13
26 -33 29 -44 4 -18 5 -17 6 3 1 27 37 61 65 62 22 0 66 -39 66 -60 -1 -12 -3
-11 -11 3 -13 23 -109 25 -109 2 0 -11 12 -15 49 -15 27 0 56 -2 64 -6 11 -4
16 9 21 57 5 39 3 66 -3 72 -19 19 -13 68 8 74 20 5 36 65 20 71 -14 6 -11 26
11 73 11 24 20 49 20 55 0 6 -22 10 -55 10 -30 -1 -55 -3 -55 -6 0 -3 13 -21
30 -40 32 -38 41 -90 15 -90 -10 0 -15 10 -15 34 0 26 -5 35 -21 39 -20 5 -21
11 -16 51 4 25 2 48 -2 51 -5 3 -11 1 -13 -5 -2 -6 -61 -11 -140 -12 -115 -3
-139 -1 -144 12 -4 13 -8 12 -20 -4 -12 -18 -14 -18 -14 -3 0 10 7 20 15 23
11 4 15 21 15 55 0 44 -2 49 -22 48 -17 -1 -19 -2 -5 -6 23 -6 22 -23 -2 -23
-27 0 -33 13 -21 44 7 21 6 26 -5 26 -8 0 -15 5 -15 10 0 7 -7 7 -20 0 -11 -6
-26 -8 -33 -3 -8 5 -4 9 13 14 18 5 10 7 -29 8 -46 1 -52 -1 -41 -14 10 -12
10 -15 -4 -15 -9 0 -16 7 -16 15 0 8 -3 15 -7 15 -5 0 -8 61 -8 135 l0 135 58
0 c73 0 74 -13 8 -83 l-50 -53 61 -62 c33 -34 64 -62 68 -62 4 0 15 10 26 23
19 22 19 22 -1 5 -23 -19 -27 -17 -70 31 -24 27 -26 33 -10 27 11 -4 31 -10
44 -12 13 -3 31 -9 40 -13 9 -5 21 -6 28 -4 19 7 22 -10 24 -136 1 -97 4 -121
15 -121 9 0 14 11 14 30 0 17 -4 30 -10 30 -6 0 -10 123 -10 350 l0 350 -27 0
-26 0 5 153 c3 83 2 186 -1 227 l-6 75 -7 -100z m-18 -253 c-27 -4 -32 0 -24
22 6 16 8 16 26 -1 20 -18 20 -18 -2 -21z m8 -44 c-5 -32 -28 -35 -28 -4 0 17
5 26 16 26 10 0 14 -7 12 -22z m9 -41 c-3 -8 -1 -20 3 -28 5 -8 5 -19 -1 -26
-8 -9 -3 -22 15 -46 14 -19 26 -39 26 -45 0 -20 -30 -13 -54 13 -17 18 -25 22
-34 13 -7 -7 -12 -8 -12 -2 0 5 -4 3 -9 -5 -7 -11 -11 -9 -21 9 -8 15 -8 20
-1 16 6 -4 14 0 17 8 3 9 13 16 21 16 9 0 13 6 10 14 -3 7 1 23 9 34 8 11 11
22 6 25 -4 2 -1 2 6 1 6 -2 12 1 12 6 0 6 3 10 6 10 3 0 4 -6 1 -13z m-27
-247 c0 -73 -4 -120 -10 -120 -6 0 -10 47 -10 120 0 73 4 120 10 120 6 0 10
-47 10 -120z m-100 88 c0 -4 -6 -8 -14 -8 -8 0 -17 4 -20 8 -2 4 4 8 15 8 10
0 19 -4 19 -8z m60 8 c0 -3 -4 -8 -10 -11 -5 -3 -10 -1 -10 4 0 6 5 11 10 11
6 0 10 -2 10 -4z m-2 -41 c13 -5 17 -47 5 -58 -4 -4 -20 5 -37 20 -23 22 -22
18 7 -15 21 -24 35 -46 33 -51 -3 -4 -26 -8 -51 -9 l-45 -2 0 46 c0 25 -4 53
-10 63 -9 17 -5 18 38 14 26 -3 53 -6 60 -8z m108 -47 c1 -55 0 -57 -22 -56
-22 2 -24 7 -24 61 0 55 1 58 23 55 20 -3 22 -9 23 -60z m-49 -120 c-3 -7 -5
-2 -5 12 0 14 2 19 5 13 2 -7 2 -19 0 -25z m53 12 c0 -13 -7 -20 -20 -20 -13
0 -20 7 -20 20 0 13 7 20 20 20 13 0 20 -7 20 -20z m-29 -44 c9 5 17 -17 11
-33 -4 -13 -113 -19 -125 -7 -3 3 4 16 15 29 17 19 25 21 56 14 20 -4 39 -6
43 -3z m36 -93 c-2 -21 -4 -4 -4 37 0 41 2 58 4 38 2 -21 2 -55 0 -75z m-26
11 c5 -15 8 -29 5 -31 -7 -7 -166 39 -166 49 0 4 34 8 75 8 72 0 76 -1 86 -26z
m-174 -191 c-3 -10 -5 -4 -5 12 0 17 2 24 5 18 2 -7 2 -21 0 -30z m35 17 c5
25 5 25 7 -2 1 -19 -4 -28 -14 -28 -10 0 -15 9 -14 28 l1 27 7 -25 8 -25 5 25z
m-12 -44 c0 -2 -7 -9 -15 -16 -12 -10 -15 -10 -15 4 0 9 7 16 15 16 8 0 15 -2
15 -4z m40 -16 c-13 -8 -13 -10 1 -10 12 0 15 -7 11 -25 -2 -14 -7 -24 -9 -21
-2 2 -18 0 -34 -4 -28 -8 -29 -7 -27 21 2 21 7 29 21 29 10 0 15 5 12 10 -3 6
4 10 17 10 18 0 20 -2 8 -10z m114 -6 c7 -19 -12 -47 -25 -38 -5 3 -9 16 -9
30 0 27 24 33 34 8z m-184 -75 c0 -55 -3 -69 -15 -69 -8 0 -15 7 -15 16 0 8 4
13 8 10 4 -2 5 19 2 48 -6 59 -3 79 11 70 5 -3 9 -36 9 -75z m381 -51 c8 -32
3 -34 -28 -13 -16 11 -22 12 -26 2 -5 -15 -119 -13 -160 4 l-28 12 23 13 c15
8 57 12 117 11 94 -2 95 -2 102 -29z m89 18 c0 -18 -48 -49 -66 -42 -8 3 -14
17 -14 31 0 23 4 25 40 25 27 0 40 -4 40 -14z m-307 -33 c4 -2 5 -9 1 -14 -4
-6 -13 -4 -24 6 -14 13 -19 13 -22 3 -4 -11 -8 -10 -21 1 -28 22 -19 30 21 19
20 -6 40 -12 45 -15z m318 -3 c-8 -4 -1 -12 18 -20 26 -10 31 -17 28 -39 -3
-24 -8 -26 -54 -29 -48 -3 -51 -2 -58 25 -4 19 -2 29 7 32 7 2 24 17 38 33 14
16 27 23 29 17 2 -6 -2 -15 -8 -19z m90 3 c-8 -15 -10 -15 -11 -2 0 17 10 32
18 25 2 -3 -1 -13 -7 -23z m-318 -27 c9 -7 17 -25 17 -40 0 -25 -3 -26 -50
-26 -45 0 -50 2 -56 26 -11 43 48 71 89 40z m130 0 c9 -7 17 -24 17 -37 1 -32
20 -55 45 -52 114 12 123 12 128 -7 3 -12 -3 -22 -19 -31 -29 -15 -42 -5 -26
21 7 11 9 20 4 20 -4 0 -12 -8 -19 -18 -6 -11 -21 -18 -35 -17 -12 2 -34 -4
-47 -12 -14 -9 -26 -11 -30 -5 -10 15 -45 22 -61 12 -12 -8 -11 -10 5 -10 36
0 63 -26 58 -55 -5 -23 -10 -25 -58 -25 -48 0 -53 2 -57 25 -4 20 4 36 37 72
23 25 47 43 53 39 6 -3 13 -2 17 4 4 6 -14 10 -49 10 -54 0 -56 1 -56 26 0 46
54 69 93 40z m-241 -41 c-6 -35 -32 -32 -32 3 0 16 3 32 7 35 12 13 30 -13 25
-38z m185 -48 c5 -6 -20 -37 -31 -37 -11 0 -36 32 -31 40 5 9 52 7 62 -3z
m-187 -69 c0 -5 -4 -6 -10 -3 -7 4 -7 -2 -1 -18 11 -28 6 -37 -19 -37 -26 0
-36 61 -14 77 18 13 44 2 44 -19z m-102 4 c2 -7 -3 -12 -12 -12 -9 0 -16 7
-16 16 0 17 22 14 28 -4z m485 4 c13 -10 16 -21 11 -40 -6 -25 -9 -27 -58 -24
-45 3 -51 6 -54 26 -6 44 61 68 101 38z m25 -91 c2 -33 -13 -40 -33 -13 -15
22 -14 23 7 30 13 3 23 6 23 7 0 1 2 -10 3 -24z m-381 -7 c2 -26 -16 -32 -38
-12 -14 13 -16 20 -7 25 20 13 44 6 45 -13z m-160 -65 c-3 -10 -5 -4 -5 12 0
17 2 24 5 18 2 -7 2 -21 0 -30z"/>
<path d="M858 2213 c-10 -2 -18 -9 -18 -14 0 -14 16 -11 30 6 7 8 11 14 9 14
-2 -1 -12 -3 -21 -6z"/>
<path d="M1190 1410 c-12 -8 -9 -10 12 -10 14 0 35 -3 45 -6 16 -6 16 -5 -2 9
-23 19 -34 20 -55 7z"/>
<path d="M1170 1370 c0 -5 18 -10 40 -10 22 0 40 5 40 10 0 6 -18 10 -40 10
-22 0 -40 -4 -40 -10z"/>
<path d="M940 1408 c-31 -12 -32 -12 -24 -32 9 -24 74 -22 74 3 0 28 -21 40
-50 29z m30 -22 c0 -9 -30 -14 -35 -6 -4 6 3 10 14 10 12 0 21 -2 21 -4z"/>
<path d="M1067 1404 c-26 -14 -37 -34 -17 -34 16 0 60 23 60 31 0 16 -16 17
-43 3z"/>
<path d="M1090 1370 c-13 -8 -12 -10 3 -10 9 0 17 5 17 10 0 12 -1 12 -20 0z"/>
<path d="M1058 1263 c-16 -4 -27 -33 -13 -33 10 0 65 30 65 35 0 6 -27 5 -52
-2z"/>
<path d="M1121 1234 c0 -11 3 -14 6 -6 3 7 2 16 -1 19 -3 4 -6 -2 -5 -13z"/>
<path d="M1070 1225 l-25 -14 33 -1 c22 0 32 5 32 15 0 18 -8 18 -40 0z"/>
<path d="M830 1253 c0 -5 5 -15 10 -23 8 -12 10 -11 10 8 0 12 -4 22 -10 22
-5 0 -10 -3 -10 -7z"/>
<path d="M1208 1263 c6 -2 18 -2 25 0 6 3 1 5 -13 5 -14 0 -19 -2 -12 -5z"/>
<path d="M1172 1238 c7 -20 84 -22 91 -4 5 13 -3 16 -44 16 -36 0 -49 -4 -47
-12z"/>
<path d="M2630 2726 c0 -2 8 -10 18 -17 15 -13 16 -12 3 4 -13 16 -21 21 -21
13z"/>
<path d="M440 2706 c0 -2 8 -10 18 -17 15 -13 16 -12 3 4 -13 16 -21 21 -21
13z"/>
<path d="M1180 2706 c0 -2 8 -10 18 -17 15 -13 16 -12 3 4 -13 16 -21 21 -21
13z"/>
<path d="M480 2676 c0 -2 8 -10 18 -17 15 -13 16 -12 3 4 -13 16 -21 21 -21
13z"/>
<path d="M1220 2676 c0 -2 8 -10 18 -17 15 -13 16 -12 3 4 -13 16 -21 21 -21
13z"/>
<path d="M2104 2658 l-19 -23 23 19 c21 18 27 26 19 26 -2 0 -12 -10 -23 -22z"/>
<path d="M2844 2658 l-19 -23 23 19 c21 18 27 26 19 26 -2 0 -12 -10 -23 -22z"/>
<path d="M1470 2650 c0 -6 37 -10 90 -10 53 0 90 4 90 10 0 6 -37 10 -90 10
-53 0 -90 -4 -90 -10z"/>
<path d="M1680 2650 c0 -5 14 -10 30 -10 17 0 30 5 30 10 0 6 -13 10 -30 10
-16 0 -30 -4 -30 -10z"/>
<path d="M1558 2623 c-116 -5 -114 -23 2 -23 73 0 90 3 90 15 0 8 -1 14 -2 13
-2 -1 -42 -4 -90 -5z"/>
<path d="M531 2604 c0 -11 3 -14 6 -6 3 7 2 16 -1 19 -3 4 -6 -2 -5 -13z"/>
<path d="M563 2605 c0 -8 4 -15 9 -15 4 0 8 7 8 15 0 8 -4 15 -8 15 -5 0 -9
-7 -9 -15z"/>
<path d="M1680 2610 c0 -5 14 -10 30 -10 17 0 30 5 30 10 0 6 -13 10 -30 10
-16 0 -30 -4 -30 -10z"/>
<path d="M2006 2605 c-3 -8 -1 -15 4 -15 6 0 10 7 10 15 0 8 -2 15 -4 15 -2 0
-6 -7 -10 -15z"/>
<path d="M1477 2584 c-16 -17 11 -24 89 -24 68 0 84 3 84 15 0 12 -16 15 -83
15 -46 0 -87 -3 -90 -6z"/>
<path d="M1680 2576 c0 -9 5 -16 10 -16 6 0 10 4 10 9 0 6 -4 13 -10 16 -5 3
-10 -1 -10 -9z"/>
<path d="M1712 2578 c6 -18 28 -21 28 -4 0 9 -7 16 -16 16 -9 0 -14 -5 -12
-12z"/>
<path d="M484 2558 l-19 -23 23 19 c21 18 27 26 19 26 -2 0 -12 -10 -23 -22z"/>
<path d="M1219 2563 c-13 -16 -12 -17 4 -4 9 7 17 15 17 17 0 8 -8 3 -21 -13z"/>
<path d="M580 2566 c0 -2 8 -10 18 -17 15 -13 16 -12 3 4 -13 16 -21 21 -21
13z"/>
<path d="M1320 2566 c0 -2 8 -10 18 -17 15 -13 16 -12 3 4 -13 16 -21 21 -21
13z"/>
<path d="M2070 2556 c0 -2 8 -10 18 -17 15 -13 16 -12 3 4 -13 16 -21 21 -21
13z"/>
<path d="M1470 2540 c0 -6 37 -10 90 -10 53 0 90 4 90 10 0 6 -37 10 -90 10
-53 0 -90 -4 -90 -10z"/>
<path d="M1680 2540 c0 -5 9 -10 20 -10 11 0 23 0 27 -1 4 0 9 4 11 10 2 6
-10 11 -27 11 -17 0 -31 -4 -31 -10z"/>
<path d="M1155 2498 l-40 -43 43 40 c39 36 47 45 39 45 -2 0 -21 -19 -42 -42z"/>
<path d="M1360 2536 c0 -2 8 -10 18 -17 15 -13 16 -12 3 4 -13 16 -21 21 -21
13z"/>
<path d="M1928 2395 c-3 -82 -9 -168 -13 -190 -6 -38 -5 -40 20 -40 32 0 44
34 24 73 -9 17 -16 78 -19 167 l-6 140 -6 -150z m16 -180 c3 -8 1 -15 -4 -15
-6 0 -10 7 -10 15 0 8 2 15 4 15 2 0 6 -7 10 -15z"/>
<path d="M1400 2506 c0 -2 8 -10 18 -17 15 -13 16 -12 3 4 -13 16 -21 21 -21
13z"/>
<path d="M1470 2500 c0 -6 37 -10 90 -10 53 0 90 4 90 10 0 6 -37 10 -90 10
-53 0 -90 -4 -90 -10z"/>
<path d="M1680 2500 c0 -5 14 -10 30 -10 17 0 30 5 30 10 0 6 -13 10 -30 10
-16 0 -30 -4 -30 -10z"/>
<path d="M2619 2483 l-24 -28 28 24 c25 23 32 31 24 31 -2 0 -14 -12 -28 -27z"/>
<path d="M1830 2433 l-65 -68 68 65 c62 60 72 70 64 70 -1 0 -32 -30 -67 -67z"/>
<path d="M2900 2486 c0 -2 8 -10 18 -17 15 -13 16 -12 3 4 -13 16 -21 21 -21
13z"/>
<path d="M310 2393 l-85 -88 88 85 c81 79 92 90 84 90 -1 0 -41 -39 -87 -87z"/>
<path d="M1477 2473 c-18 -18 0 -23 83 -23 73 0 90 3 90 15 0 12 -16 15 -83
15 -46 0 -87 -3 -90 -7z"/>
<path d="M1680 2465 c0 -10 10 -15 30 -15 20 0 30 5 30 15 0 10 -10 15 -30 15
-20 0 -30 -5 -30 -15z"/>
<path d="M710 2466 c0 -2 8 -10 18 -17 15 -13 16 -12 3 4 -13 16 -21 21 -21
13z"/>
<path d="M2949 2446 c13 -16 51 -41 51 -33 0 2 -15 14 -32 27 -21 15 -28 17
-19 6z"/>
<path d="M1472 2429 c5 -16 178 -18 178 -1 0 9 -25 12 -91 12 -61 0 -89 -4
-87 -11z"/>
<path d="M1680 2427 c0 -16 52 -15 58 1 2 8 -8 12 -27 12 -19 0 -31 -5 -31
-13z"/>
<path d="M2240 2426 c0 -2 8 -10 18 -17 15 -13 16 -12 3 4 -13 16 -21 21 -21
13z"/>
<path d="M1050 2409 c0 -6 7 -8 16 -5 14 5 15 4 5 -8 -9 -11 -8 -29 5 -80 l16
-66 113 0 112 0 15 68 c8 37 18 75 23 85 7 16 -4 17 -149 17 -107 0 -156 -3
-156 -11z m142 -21 c-19 -19 -14 -33 6 -15 22 20 78 23 85 5 3 -8 6 -5 6 5 1
10 7 17 14 15 6 -3 12 -10 11 -16 -1 -7 -2 -30 -2 -53 -1 -24 -6 -38 -12 -34
-5 3 -10 0 -10 -7 0 -10 -23 -14 -87 -16 -94 -2 -103 2 -103 51 0 20 5 27 19
27 11 0 23 5 27 11 6 10 -10 8 -53 -8 -16 -6 -17 19 -1 35 7 7 35 12 62 12 39
0 47 -3 38 -12z"/>
<path d="M1125 2310 c-10 -11 -14 -20 -9 -20 5 0 15 9 22 20 7 11 11 20 9 20
-2 0 -12 -9 -22 -20z"/>
<path d="M60 2396 c0 -2 8 -10 18 -17 15 -13 16 -12 3 4 -13 16 -21 21 -21 13z"/>
<path d="M1470 2390 c0 -6 37 -10 90 -10 53 0 90 4 90 10 0 6 -37 10 -90 10
-53 0 -90 -4 -90 -10z"/>
<path d="M1680 2390 c0 -5 14 -10 30 -10 17 0 30 5 30 10 0 6 -13 10 -30 10
-16 0 -30 -4 -30 -10z"/>
<path d="M1041 2313 c-1 -69 1 -81 14 -77 18 7 18 21 1 99 l-14 60 -1 -82z"/>
<path d="M1352 2335 c-7 -33 -15 -67 -18 -76 -4 -15 23 -36 33 -25 2 2 3 39 1
82 l-3 79 -13 -60z"/>
<path d="M1474 2361 c-15 -16 7 -21 86 -21 65 0 90 3 90 13 0 9 -24 12 -86 12
-47 0 -88 -2 -90 -4z"/>
<path d="M1680 2353 c0 -8 12 -13 30 -13 18 0 30 5 30 13 0 8 -12 14 -30 14
-18 0 -30 -6 -30 -14z"/>
<path d="M1472 2319 c5 -16 178 -18 178 -1 0 9 -25 12 -91 12 -61 0 -89 -4
-87 -11z"/>
<path d="M1680 2318 c0 -8 13 -13 30 -13 17 0 30 5 30 13 0 7 -13 12 -30 12
-17 0 -30 -5 -30 -12z"/>
<path d="M1470 2280 c0 -6 37 -10 90 -10 53 0 90 4 90 10 0 6 -37 10 -90 10
-53 0 -90 -4 -90 -10z"/>
<path d="M1680 2280 c0 -5 14 -10 30 -10 17 0 30 5 30 10 0 6 -13 10 -30 10
-16 0 -30 -4 -30 -10z"/>
<path d="M90 2225 c-24 -25 -42 -45 -39 -45 3 0 25 20 49 45 24 25 42 45 39
45 -3 0 -25 -20 -49 -45z"/>
<path d="M1474 2251 c-15 -16 7 -21 86 -21 65 0 90 3 90 13 0 9 -24 12 -86 12
-47 0 -88 -2 -90 -4z"/>
<path d="M1680 2243 c0 -8 13 -13 30 -13 17 0 30 5 30 13 0 7 -13 12 -30 12
-17 0 -30 -5 -30 -12z"/>
<path d="M2330 2256 c0 -2 7 -9 15 -16 9 -7 15 -8 15 -2 0 5 -7 12 -15 16 -8
3 -15 4 -15 2z"/>
<path d="M1092 2220 c3 -12 24 -15 111 -15 78 0 107 3 107 12 0 8 -32 13 -110
15 -94 3 -110 1 -108 -12z"/>
<path d="M1053 2223 c-7 -2 -13 -13 -13 -24 0 -17 3 -18 20 -7 32 20 26 45 -7
31z"/>
<path d="M1330 2216 c0 -9 9 -20 20 -26 16 -8 20 -8 20 4 0 9 -9 20 -20 26
-16 8 -20 8 -20 -4z"/>
<path d="M2460 2226 c0 -2 8 -10 18 -17 15 -13 16 -12 3 4 -13 16 -21 21 -21
13z"/>
<path d="M1473 2208 c6 -19 177 -19 177 -1 0 10 -23 13 -91 13 -68 0 -90 -3
-86 -12z"/>
<path d="M1680 2207 c0 -9 12 -14 30 -15 20 0 30 4 30 14 0 9 -11 14 -30 14
-18 0 -30 -5 -30 -13z"/>
<path d="M270 2206 c0 -2 8 -10 18 -17 15 -13 16 -12 3 4 -13 16 -21 21 -21
13z"/>
<path d="M1057 2176 c-17 -14 -23 -36 -9 -36 17 0 41 26 34 37 -5 8 -11 8 -25
-1z"/>
<path d="M1100 2175 c0 -12 18 -15 105 -15 87 0 105 3 105 15 0 12 -18 15
-105 15 -87 0 -105 -3 -105 -15z"/>
<path d="M1320 2175 c0 -12 28 -35 44 -35 17 0 2 28 -19 38 -20 9 -25 9 -25
-3z"/>
<path d="M1795 2170 c10 -11 20 -20 23 -20 3 0 -3 9 -13 20 -10 11 -20 20 -23
20 -3 0 3 -9 13 -20z"/>
<path d="M1470 2170 c0 -6 37 -10 90 -10 53 0 90 4 90 10 0 6 -37 10 -90 10
-53 0 -90 -4 -90 -10z"/>
<path d="M1680 2170 c0 -5 14 -10 30 -10 17 0 30 5 30 10 0 6 -13 10 -30 10
-16 0 -30 -4 -30 -10z"/>
<path d="M2540 2166 c0 -2 8 -10 18 -17 15 -13 16 -12 3 4 -13 16 -21 21 -21
13z"/>
<path d="M1877 2152 c-9 -2 -17 -10 -17 -18 0 -8 -7 -14 -15 -14 -17 0 -20
-16 -5 -25 6 -4 8 -11 5 -16 -4 -5 -1 -9 4 -9 6 0 11 -7 11 -15 0 -9 12 -33
26 -55 21 -31 33 -40 55 -40 16 0 29 4 29 9 0 5 6 16 13 23 12 12 57 109 57
122 0 3 -7 6 -15 6 -8 0 -15 7 -15 15 0 8 -6 15 -12 16 -40 3 -106 4 -121 1z
m63 -44 c0 -4 -16 -8 -35 -8 -19 0 -35 4 -35 8 0 5 16 9 35 9 19 0 35 -4 35
-9z m30 2 c0 -5 -4 -10 -10 -10 -5 0 -10 5 -10 10 0 6 5 10 10 10 6 0 10 -4
10 -10z m30 0 c0 -5 -4 -10 -10 -10 -5 0 -10 5 -10 10 0 6 5 10 10 10 6 0 10
-4 10 -10z m-70 -50 c16 0 31 -6 34 -12 5 -10 7 -10 12 0 3 6 10 12 15 12 5 0
4 -9 -3 -20 -10 -15 -24 -20 -59 -20 -53 0 -67 17 -47 53 11 19 13 20 16 5 2
-12 13 -18 32 -18z m-5 20 c3 -5 1 -10 -4 -10 -6 0 -11 5 -11 10 0 6 2 10 4
10 3 0 8 -4 11 -10z m55 -2 c0 -4 -9 -8 -20 -8 -11 0 -20 4 -20 8 0 4 9 8 20
8 11 0 20 -4 20 -8z m30 2 c0 -5 -5 -10 -11 -10 -5 0 -7 5 -4 10 3 6 8 10 11
10 2 0 4 -4 4 -10z m-60 -89 c0 -6 -4 -13 -10 -16 -5 -3 -10 1 -10 9 0 9 5 16
10 16 6 0 10 -4 10 -9z"/>
<path d="M1915 2040 c-3 -6 1 -7 9 -4 18 7 21 14 7 14 -6 0 -13 -4 -16 -10z"/>
<path d="M1197 2143 c-131 -5 -127 -25 6 -27 86 -1 97 1 97 17 0 9 -1 16 -2
15 -2 -1 -47 -4 -101 -5z"/>
<path d="M1474 2141 c-15 -16 7 -21 86 -21 65 0 90 3 90 13 0 9 -24 12 -86 12
-47 0 -88 -2 -90 -4z"/>
<path d="M1680 2133 c0 -8 12 -13 30 -13 17 0 30 4 30 9 0 5 -13 11 -30 13
-20 3 -30 0 -30 -9z"/>
<path d="M2949 2133 c-13 -16 -12 -17 4 -4 16 13 21 21 13 21 -2 0 -10 -8 -17
-17z"/>
<path d="M360 2136 c0 -2 8 -10 18 -17 15 -13 16 -12 3 4 -13 16 -21 21 -21
13z"/>
<path d="M1058 2133 c-10 -2 -18 -13 -18 -24 0 -16 3 -17 25 -7 14 6 25 17 25
25 0 13 -3 14 -32 6z"/>
<path d="M1317 2126 c-4 -11 29 -36 48 -36 14 0 2 31 -14 40 -25 13 -28 13
-34 -4z"/>
<path d="M2159 2083 l-34 -38 38 34 c20 19 37 36 37 38 0 8 -8 0 -41 -34z"/>
<path d="M415 2090 c10 -11 20 -20 23 -20 3 0 -3 9 -13 20 -10 11 -20 20 -23
20 -3 0 3 -9 13 -20z"/>
<path d="M1470 2095 c0 -12 17 -15 90 -15 73 0 90 3 90 15 0 12 -17 15 -90 15
-73 0 -90 -3 -90 -15z"/>
<path d="M1680 2095 c0 -10 10 -15 30 -15 20 0 30 5 30 15 0 10 -10 15 -30 15
-20 0 -30 -5 -30 -15z"/>
<path d="M2899 2093 c-13 -16 -12 -17 4 -4 16 13 21 21 13 21 -2 0 -10 -8 -17
-17z"/>
<path d="M1063 2088 c-13 -6 -23 -19 -23 -30 0 -17 2 -18 30 -3 19 10 27 20
24 30 -4 8 -7 15 -8 14 0 0 -11 -5 -23 -11z"/>
<path d="M1110 2085 c0 -12 17 -15 95 -15 78 0 95 3 95 15 0 12 -17 15 -95 15
-78 0 -95 -3 -95 -15z"/>
<path d="M1310 2086 c0 -9 14 -22 30 -31 26 -14 30 -14 30 -1 0 9 -13 22 -30
31 -26 14 -30 14 -30 1z"/>
<path d="M1419 2083 c-13 -16 -12 -17 4 -4 16 13 21 21 13 21 -2 0 -10 -8 -17
-17z"/>
<path d="M635 2038 l-40 -43 43 40 c39 36 47 45 39 45 -2 0 -21 -19 -42 -42z"/>
<path d="M2854 2058 l-19 -23 23 19 c12 11 22 21 22 23 0 8 -8 2 -26 -19z"/>
<path d="M450 2066 c0 -2 8 -10 18 -17 15 -13 16 -12 3 4 -13 16 -21 21 -21
13z"/>
<path d="M1470 2060 c0 -6 37 -10 90 -10 53 0 90 4 90 10 0 6 -37 10 -90 10
-53 0 -90 -4 -90 -10z"/>
<path d="M1680 2060 c0 -5 14 -10 30 -10 17 0 30 5 30 10 0 6 -13 10 -30 10
-16 0 -30 -4 -30 -10z"/>
<path d="M1112 2042 c5 -21 178 -23 178 -2 0 12 -17 15 -90 15 -70 0 -90 -3
-88 -13z"/>
<path d="M1063 2038 c-19 -9 -33 -38 -18 -38 16 0 55 26 55 37 0 15 -7 16 -37
1z"/>
<path d="M1310 2037 c0 -11 39 -37 55 -37 16 0 1 29 -20 38 -33 15 -35 15 -35
-1z"/>
<path d="M1470 2020 c0 -6 37 -10 90 -10 53 0 90 4 90 10 0 6 -37 10 -90 10
-53 0 -90 -4 -90 -10z"/>
<path d="M1680 2020 c0 -5 14 -10 30 -10 17 0 30 5 30 10 0 6 -13 10 -30 10
-16 0 -30 -4 -30 -10z"/>
<path d="M1068 1997 c-16 -6 -28 -19 -28 -28 0 -15 4 -16 30 -6 18 7 30 19 30
29 0 10 -1 18 -2 17 -2 -1 -15 -6 -30 -12z"/>
<path d="M1116 1995 c5 -12 25 -15 90 -15 68 0 84 3 84 15 0 12 -17 15 -90 15
-75 0 -88 -2 -84 -15z"/>
<path d="M1305 1990 c-4 -6 8 -17 27 -24 21 -9 34 -11 37 -4 7 21 -52 47 -64
28z"/>
<path d="M1477 1993 c-18 -18 0 -23 83 -23 73 0 90 3 90 15 0 12 -16 15 -83
15 -46 0 -87 -3 -90 -7z"/>
<path d="M1680 1985 c0 -10 10 -15 30 -15 20 0 30 5 30 15 0 10 -10 15 -30 15
-20 0 -30 -5 -30 -15z"/>
<path d="M2102 1552 l3 -447 5 420 5 420 3 -414 c1 -228 5 -412 8 -409 3 3 6
189 6 412 1 223 5 406 10 406 4 0 9 -183 10 -407 l3 -408 5 410 5 410 5 -405
5 -405 3 403 c1 233 6 402 11 402 5 0 9 -161 10 -386 0 -213 3 -389 6 -392 3
-3 6 172 7 389 l3 394 5 -390 5 -390 5 390 5 390 5 -345 c3 -190 7 -300 8
-245 2 55 3 209 2 343 0 157 3 242 10 242 6 0 11 -111 12 -317 l2 -318 6 327
c3 179 9 330 13 334 5 5 26 9 47 9 45 0 38 -14 -12 -24 l-33 -7 0 -319 0 -320
2 318 c2 181 7 317 12 317 6 0 8 -62 6 -145 -1 -80 1 -148 6 -151 5 -3 10 63
11 148 2 84 5 -25 8 -242 l5 -395 5 395 5 395 5 -400 5 -400 3 398 c1 253 6
397 12 397 6 0 11 -147 13 -407 l2 -408 3 435 2 435 -150 2 -150 2 2 -447z
m92 413 c4 -12 0 -15 -22 -11 -15 2 -34 5 -42 6 -8 2 1 6 20 10 19 4 36 8 36
9 1 0 5 -6 8 -14z m78 -7 c-9 -9 -15 -9 -24 0 -9 9 -7 12 12 12 19 0 21 -3 12
-12z"/>
<path d="M2740 1975 c0 -8 2 -15 4 -15 2 0 6 7 10 15 3 8 1 15 -4 15 -6 0 -10
-7 -10 -15z"/>
<path d="M2776 1977 c3 -10 9 -15 12 -12 3 3 0 11 -7 18 -10 9 -11 8 -5 -6z"/>
<path d="M1120 1950 c0 -12 16 -15 85 -15 69 0 85 3 85 15 0 12 -16 15 -85 15
-69 0 -85 -3 -85 -15z"/>
<path d="M1068 1948 c-16 -5 -28 -16 -28 -24 0 -17 2 -17 35 -2 14 6 25 17 25
25 0 7 -1 13 -2 12 -2 0 -15 -5 -30 -11z"/>
<path d="M1300 1947 c0 -12 46 -37 66 -37 13 0 1 29 -13 33 -10 2 -26 8 -35
12 -13 5 -18 2 -18 -8z"/>
<path d="M1472 1949 c2 -6 7 -10 11 -10 4 1 43 1 87 1 47 0 80 4 80 10 0 6
-37 10 -91 10 -60 0 -89 -4 -87 -11z"/>
<path d="M1680 1947 c0 -9 10 -12 30 -9 17 2 30 8 30 13 0 5 -13 9 -30 9 -18
0 -30 -5 -30 -13z"/>
<path d="M479 1923 l-24 -28 28 24 c25 23 32 31 24 31 -2 0 -14 -12 -28 -27z"/>
<path d="M1908 1908 c-3 -24 -6 -108 -7 -187 l-2 -143 37 -54 c21 -30 38 -53
38 -52 1 2 0 110 -2 241 l-4 237 -28 0 c-25 0 -28 -4 -32 -42z m42 -117 c0
-17 -18 -21 -24 -6 -3 9 0 15 9 15 8 0 15 -4 15 -9z m0 -51 c0 -11 -5 -20 -10
-20 -7 0 -7 -6 -1 -19 6 -10 10 -44 10 -75 -1 -42 -5 -56 -16 -56 -12 0 -14
16 -11 95 2 68 6 95 15 95 7 0 13 -9 13 -20z m0 -190 c0 -5 -2 -10 -4 -10 -3
0 -8 5 -11 10 -3 6 -1 10 4 10 6 0 11 -4 11 -10z"/>
<path d="M580 1936 c0 -2 8 -10 18 -17 15 -13 16 -12 3 4 -13 16 -21 21 -21
13z"/>
<path d="M2810 1926 c0 -2 8 -10 18 -17 15 -13 16 -12 3 4 -13 16 -21 21 -21
13z"/>
<path d="M1120 1905 c0 -12 16 -15 85 -15 69 0 85 3 85 15 0 12 -16 15 -85 15
-69 0 -85 -3 -85 -15z"/>
<path d="M1302 1904 c2 -9 18 -22 36 -30 30 -12 33 -12 30 2 -2 9 -18 22 -36
30 -30 12 -33 12 -30 -2z"/>
<path d="M1470 1910 c0 -6 37 -10 90 -10 53 0 90 4 90 10 0 6 -37 10 -90 10
-53 0 -90 -4 -90 -10z"/>
<path d="M1680 1910 c0 -5 14 -10 30 -10 17 0 30 5 30 10 0 6 -13 10 -30 10
-16 0 -30 -4 -30 -10z"/>
<path d="M2630 1863 l-55 -58 58 55 c53 50 62 60 54 60 -1 0 -27 -26 -57 -57z"/>
<path d="M1063 1900 c-13 -5 -23 -16 -23 -24 0 -13 4 -13 32 -2 33 14 50 36
26 35 -7 0 -23 -4 -35 -9z"/>
<path d="M1474 1881 c-15 -16 7 -21 86 -21 65 0 90 3 90 13 0 9 -24 12 -86 12
-47 0 -88 -2 -90 -4z"/>
<path d="M1680 1873 c0 -7 13 -11 30 -11 18 1 30 6 30 14 0 8 -11 12 -30 11
-16 -1 -30 -7 -30 -14z"/>
<path d="M1120 1860 c0 -21 164 -19 168 2 2 10 -17 13 -83 13 -69 0 -85 -3
-85 -15z"/>
<path d="M1068 1857 c-16 -6 -28 -17 -28 -24 0 -16 -1 -16 39 -2 17 6 31 17
31 25 0 16 -4 16 -42 1z"/>
<path d="M1300 1857 c0 -12 46 -37 66 -37 13 0 1 29 -13 33 -10 2 -26 8 -35
12 -13 5 -18 2 -18 -8z"/>
<path d="M2900 1856 c0 -2 8 -10 18 -17 15 -13 16 -12 3 4 -13 16 -21 21 -21
13z"/>
<path d="M1472 1839 c5 -16 178 -17 178 -1 0 9 -25 12 -91 12 -59 0 -89 -4
-87 -11z"/>
<path d="M1680 1838 c0 -7 14 -14 30 -15 21 -2 30 2 30 12 0 10 -10 15 -30 15
-17 0 -30 -5 -30 -12z"/>
<path d="M1073 1814 c-44 -19 -46 -48 -2 -32 27 9 48 33 38 42 -2 2 -19 -3
-36 -10z"/>
<path d="M1120 1815 c0 -12 15 -15 79 -15 61 0 80 3 85 15 4 13 -8 15 -79 15
-69 0 -85 -3 -85 -15z"/>
<path d="M1302 1813 c2 -9 18 -23 36 -30 30 -12 33 -12 30 3 -2 8 -18 22 -36
30 -30 12 -33 12 -30 -3z"/>
<path d="M743 1770 c0 -30 2 -43 4 -27 2 15 2 39 0 55 -2 15 -4 2 -4 -28z"/>
<path d="M1475 1800 c3 -5 44 -10 91 -10 49 0 84 4 84 10 0 6 -37 10 -91 10
-57 0 -88 -4 -84 -10z"/>
<path d="M1680 1800 c0 -5 14 -10 30 -10 17 0 30 5 30 10 0 6 -13 10 -30 10
-16 0 -30 -4 -30 -10z"/>
<path d="M2549 1783 c-13 -16 -12 -17 4 -4 9 7 17 15 17 17 0 8 -8 3 -21 -13z"/>
<path d="M1120 1773 c0 -9 23 -13 80 -13 57 0 80 4 80 13 0 8 -23 12 -80 12
-57 0 -80 -4 -80 -12z"/>
<path d="M1068 1767 c-16 -6 -28 -17 -28 -24 0 -16 -1 -16 39 -2 17 6 31 17
31 25 0 16 -4 16 -42 1z"/>
<path d="M1300 1768 c0 -14 39 -38 60 -38 17 0 11 27 -7 33 -10 2 -26 8 -35
12 -12 5 -18 3 -18 -7z"/>
<path d="M1474 1771 c-15 -16 7 -21 86 -21 65 0 90 3 90 13 0 9 -24 12 -86 12
-47 0 -88 -2 -90 -4z"/>
<path d="M1680 1763 c0 -8 13 -13 30 -13 19 0 30 5 30 14 0 8 -11 13 -30 12
-17 -1 -30 -7 -30 -13z"/>
<path d="M60 1766 c0 -2 8 -10 18 -17 15 -13 16 -12 3 4 -13 16 -21 21 -21 13z"/>
<path d="M1073 1724 c-44 -19 -46 -48 -2 -32 27 9 48 33 38 42 -2 2 -19 -3
-36 -10z"/>
<path d="M1120 1725 c0 -12 16 -15 80 -15 64 0 80 3 80 15 0 12 -16 15 -80 15
-64 0 -80 -3 -80 -15z"/>
<path d="M1300 1725 c0 -13 47 -45 65 -45 19 0 -5 34 -32 45 -28 12 -33 12
-33 0z"/>
<path d="M1472 1729 c5 -16 178 -17 178 -1 0 9 -25 12 -91 12 -59 0 -89 -4
-87 -11z"/>
<path d="M1680 1727 c0 -8 12 -14 30 -14 18 0 30 6 30 14 0 8 -12 13 -30 13
-18 0 -30 -5 -30 -13z"/>
<path d="M931 1693 c0 -17 -7 -34 -13 -36 -10 -4 -10 -6 0 -6 16 -1 25 21 19
51 -3 18 -5 16 -6 -9z"/>
<path d="M1120 1683 c0 -9 23 -13 80 -13 60 0 80 3 80 13 0 11 -19 14 -80 13
-57 -1 -80 -5 -80 -13z"/>
<path d="M1470 1690 c0 -6 37 -10 90 -10 53 0 90 4 90 10 0 6 -37 10 -90 10
-53 0 -90 -4 -90 -10z"/>
<path d="M1680 1690 c0 -5 14 -10 30 -10 17 0 30 5 30 10 0 6 -13 10 -30 10
-16 0 -30 -4 -30 -10z"/>
<path d="M1068 1677 c-16 -6 -28 -17 -28 -24 0 -16 -1 -16 39 -2 17 6 31 17
31 25 0 16 -4 16 -42 1z"/>
<path d="M1300 1678 c0 -14 39 -38 60 -38 17 0 11 27 -7 33 -10 2 -26 8 -35
12 -12 5 -18 3 -18 -7z"/>
<path d="M1474 1661 c-15 -16 7 -21 86 -21 50 0 90 4 90 9 0 9 -168 20 -176
12z"/>
<path d="M1703 1662 c-34 -5 -28 -22 7 -22 17 0 30 4 30 9 0 14 -11 18 -37 13z"/>
<path d="M830 1640 c0 -5 5 -10 11 -10 5 0 7 5 4 10 -3 6 -8 10 -11 10 -2 0
-4 -4 -4 -10z"/>
<path d="M1073 1634 c-44 -19 -46 -48 -2 -32 27 9 48 33 38 42 -2 2 -19 -3
-36 -10z"/>
<path d="M1120 1635 c0 -12 16 -15 80 -15 64 0 80 3 80 15 0 12 -16 15 -80 15
-64 0 -80 -3 -80 -15z"/>
<path d="M1302 1633 c2 -9 18 -23 36 -30 30 -12 33 -12 30 3 -2 8 -18 22 -36
30 -30 12 -33 12 -30 -3z"/>
<path d="M127 1619 c7 -7 15 -10 18 -7 3 3 -2 9 -12 12 -14 6 -15 5 -6 -5z"/>
<path d="M1488 1623 c12 -2 30 -2 40 0 9 3 -1 5 -23 4 -22 0 -30 -2 -17 -4z"/>
<path d="M1573 1623 c15 -2 39 -2 55 0 15 2 2 4 -28 4 -30 0 -43 -2 -27 -4z"/>
<path d="M1693 1623 c9 -2 25 -2 35 0 9 3 1 5 -18 5 -19 0 -27 -2 -17 -5z"/>
<path d="M1394 1606 c-8 -20 36 -78 50 -67 6 5 19 22 28 38 l17 29 -36 2 c-20
2 -40 5 -45 8 -4 3 -11 -1 -14 -10z m52 -43 c-7 -7 -26 7 -26 19 0 6 6 6 15
-2 9 -7 13 -15 11 -17z"/>
<path d="M2319 1618 c-5 -20 -5 -323 1 -361 5 -35 8 18 9 156 0 114 -1 207 -4
207 -3 0 -5 -1 -6 -2z"/>
<path d="M230 1606 c0 -2 8 -10 18 -17 15 -13 16 -12 3 4 -13 16 -21 21 -21
13z"/>
<path d="M1125 1601 c-15 -14 4 -20 75 -23 66 -2 80 0 80 12 0 12 -15 15 -75
15 -42 1 -78 -1 -80 -4z"/>
<path d="M1505 1600 c-5 -9 34 -80 45 -80 3 0 14 14 24 30 14 25 15 34 6 45
-14 17 -66 20 -75 5z m57 -18 c-8 -5 -10 -16 -5 -28 6 -17 5 -17 -10 -6 -19
16 -12 42 12 42 12 0 13 -2 3 -8z"/>
<path d="M1595 1600 c3 -5 8 -10 11 -10 2 0 4 5 4 10 0 6 -5 10 -11 10 -5 0
-7 -4 -4 -10z"/>
<path d="M1622 1593 c-7 -12 -4 -26 12 -50 11 -18 23 -33 26 -33 3 0 14 13 23
30 14 23 15 34 7 50 -13 24 -55 27 -68 3z m53 -22 c10 -17 -12 -21 -25 -6 -10
12 -10 15 3 15 9 0 18 -4 22 -9z"/>
<path d="M1705 1600 c4 -6 11 -8 16 -5 14 9 11 15 -7 15 -8 0 -12 -5 -9 -10z"/>
<path d="M1742 1598 c-17 -17 -15 -36 10 -70 l21 -30 18 23 c22 28 23 48 5 72
-15 20 -37 22 -54 5z m48 -27 c0 -5 -6 -14 -14 -20 -10 -9 -15 -8 -19 3 -3 8
-3 17 0 20 9 9 33 7 33 -3z"/>
<path d="M1800 1606 c0 -2 6 -9 14 -15 10 -9 16 -8 26 4 11 13 8 15 -14 15
-14 0 -26 -2 -26 -4z"/>
<path d="M2465 1590 c10 -11 20 -20 23 -20 3 0 -3 9 -13 20 -10 11 -20 20 -23
20 -3 0 3 -9 13 -20z"/>
<path d="M1068 1587 c-26 -10 -39 -37 -18 -37 20 0 60 24 60 37 0 15 -5 15
-42 0z"/>
<path d="M1300 1588 c0 -14 39 -38 60 -38 17 0 11 27 -7 33 -10 2 -26 8 -35
12 -12 5 -18 3 -18 -7z"/>
<path d="M1852 1583 c-10 -19 -10 -28 3 -54 9 -17 18 -29 19 -27 2 1 0 26 -3
53 -6 47 -7 48 -19 28z"/>
<path d="M1884 1560 c3 -14 8 -63 11 -110 6 -85 6 -85 49 -125 l44 -40 41
-310 c23 -171 44 -318 47 -327 3 -10 14 -18 25 -18 17 0 19 5 14 33 -5 30 -39
284 -66 485 -9 73 -15 92 -28 92 -13 0 -13 2 -2 9 10 7 12 23 6 72 -7 56 -15
75 -72 159 -78 113 -76 111 -69 80z m86 -140 c6 -11 8 -25 5 -30 -3 -6 1 -10
9 -10 9 0 16 -4 16 -9 0 -5 3 -18 6 -28 5 -15 3 -15 -13 3 -14 16 -27 20 -46
17 -21 -4 -27 -1 -27 13 0 11 -3 29 -6 42 -5 19 -2 22 19 22 16 0 31 -8 37
-20z m4 -81 c-3 -5 -10 -7 -15 -3 -5 3 -7 10 -3 15 3 5 10 7 15 3 5 -3 7 -10
3 -15z m31 -40 c11 -17 -1 -21 -15 -4 -8 9 -8 15 -2 15 6 0 14 -5 17 -11z m51
-327 c2 -28 0 -32 -6 -17 -11 25 -13 71 -3 61 4 -4 8 -24 9 -44z m14 -66 c0
-3 -4 -8 -10 -11 -5 -3 -10 -1 -10 4 0 6 5 11 10 11 6 0 10 -2 10 -4z m19
-144 c1 -7 -3 -10 -9 -7 -5 3 -10 18 -9 33 0 24 1 25 9 7 5 -11 9 -26 9 -33z
m11 -57 c0 -14 -4 -25 -10 -25 -11 0 -14 33 -3 43 11 11 13 8 13 -18z"/>
<path d="M1380 1540 c0 -21 5 -30 16 -30 8 0 12 -5 9 -11 -4 -6 -13 -8 -21 -5
-9 3 -14 -1 -14 -14 0 -31 15 -31 37 -1 l21 28 -20 31 c-25 40 -28 40 -28 2z"/>
<path d="M1467 1539 c-17 -30 -17 -32 4 -65 11 -19 22 -34 24 -34 2 0 13 13
24 29 l21 29 -22 36 c-13 19 -25 35 -28 36 -3 0 -13 -14 -23 -31z m23 -14
c-10 -12 -10 -15 3 -15 16 0 17 -24 2 -37 -4 -4 -5 -3 -2 3 4 7 0 14 -8 18
-18 7 -20 32 -2 39 20 8 20 8 7 -8z"/>
<path d="M2500 1566 c0 -2 8 -10 18 -17 15 -13 16 -12 3 4 -13 16 -21 21 -21
13z"/>
<path d="M1070 1541 l-35 -15 29 -4 c29 -4 51 9 45 26 -2 5 -20 2 -39 -7z"/>
<path d="M1120 1545 c0 -13 14 -15 80 -13 57 2 80 6 80 15 0 10 -22 13 -80 13
-65 0 -80 -3 -80 -15z"/>
<path d="M1300 1541 c0 -17 18 -27 55 -31 24 -3 12 18 -20 33 -34 16 -35 16
-35 -2z"/>
<path d="M1581 1531 l-22 -31 24 -35 25 -36 21 30 22 31 -24 35 -25 36 -21
-30z m39 -38 c0 -13 -3 -13 -15 -3 -8 7 -15 16 -15 21 0 5 7 6 15 3 8 -4 15
-13 15 -21z"/>
<path d="M1692 1520 l-22 -30 22 -35 c13 -19 25 -35 28 -35 3 0 14 14 24 30
17 30 17 31 -4 65 -12 19 -23 35 -24 35 -1 0 -12 -13 -24 -30z m34 -35 c1 -15
-2 -25 -8 -23 -5 2 -9 7 -9 11 1 4 1 14 1 22 0 26 15 16 16 -10z"/>
<path d="M320 1536 c0 -2 8 -10 18 -17 15 -13 16 -12 3 4 -13 16 -21 21 -21
13z"/>
<path d="M1803 1512 l-22 -29 26 -38 25 -37 19 28 c24 37 24 43 -4 77 l-22 28
-22 -29z m40 -28 c3 -3 3 -12 0 -20 -4 -11 -9 -12 -19 -3 -8 6 -14 15 -14 20
0 10 24 12 33 3z"/>
<path d="M2540 1536 c0 -2 8 -10 18 -17 15 -13 16 -12 3 4 -13 16 -21 21 -21
13z"/>
<path d="M1260 1510 c0 -5 5 -10 10 -10 6 0 10 5 10 10 0 6 -4 10 -10 10 -5 0
-10 -4 -10 -10z"/>
<path d="M360 1506 c0 -2 8 -10 18 -17 15 -13 16 -12 3 4 -13 16 -21 21 -21
13z"/>
<path d="M1295 1500 c3 -5 13 -10 21 -10 8 0 12 5 9 10 -3 6 -13 10 -21 10 -8
0 -12 -4 -9 -10z"/>
<path d="M1415 1458 c-17 -35 -17 -37 5 -68 22 -31 24 -32 37 -14 32 42 32 49
3 84 l-28 35 -17 -37z m39 -15 c4 -9 0 -23 -8 -31 -12 -12 -15 -11 -21 7 -11
35 16 58 29 24z"/>
<path d="M400 1476 c0 -2 8 -10 18 -17 15 -13 16 -12 3 4 -13 16 -21 21 -21
13z"/>
<path d="M1526 1450 c-17 -30 -17 -31 4 -65 12 -19 23 -35 25 -35 2 0 12 14
23 32 l20 31 -21 33 c-12 19 -24 34 -27 34 -3 0 -14 -14 -24 -30z m38 -16 c10
-27 7 -44 -9 -44 -11 0 -15 9 -13 30 2 33 12 39 22 14z"/>
<path d="M1637 1440 c-18 -29 -18 -31 3 -60 22 -31 38 -31 58 1 11 17 10 25
-8 55 -12 19 -25 34 -29 34 -4 0 -15 -14 -24 -30z m53 -44 c0 -5 -7 -1 -15 10
-13 18 -14 18 -15 1 0 -10 -4 -15 -10 -12 -6 4 -5 13 3 26 11 18 13 18 25 2 6
-9 12 -21 12 -27z"/>
<path d="M2630 1466 c0 -2 8 -10 18 -17 15 -13 16 -12 3 4 -13 16 -21 21 -21
13z"/>
<path d="M2894 1448 l-19 -23 23 19 c12 11 22 21 22 23 0 8 -8 2 -26 -19z"/>
<path d="M1750 1430 c-21 -30 -21 -32 -5 -51 21 -22 45 -25 63 -7 17 17 15 29
-12 61 l-23 29 -23 -32z m50 -41 c0 -4 -4 -11 -10 -14 -5 -3 -10 -1 -10 4 0 6
-7 11 -15 11 -18 0 -19 6 -2 25 10 12 14 11 25 -3 6 -8 12 -19 12 -23z"/>
<path d="M1361 1424 c0 -11 3 -14 6 -6 3 7 2 16 -1 19 -3 4 -6 -2 -5 -13z"/>
<path d="M1858 1418 c-18 -28 -13 -48 13 -48 16 0 18 5 12 33 -8 42 -8 42 -25
15z"/>
<path d="M2685 1420 c10 -11 20 -20 23 -20 3 0 -3 9 -13 20 -10 11 -20 20 -23
20 -3 0 3 -9 13 -20z"/>
<path d="M495 1400 c10 -11 20 -20 23 -20 3 0 -3 9 -13 20 -10 11 -20 20 -23
20 -3 0 3 -9 13 -20z"/>
<path d="M629 1403 c-13 -16 -12 -17 4 -4 9 7 17 15 17 17 0 8 -8 3 -21 -13z"/>
<path d="M1366 1388 c-9 -12 -16 -28 -16 -34 0 -14 33 -74 40 -74 3 0 13 14
23 31 17 30 17 32 -4 65 -11 19 -22 34 -24 34 -2 0 -11 -10 -19 -22z m27 -42
c23 -18 22 -26 -4 -26 -14 0 -19 5 -16 14 3 8 1 17 -6 20 -7 2 -7 5 -2 5 6 0
18 -6 28 -13z"/>
<path d="M2824 1388 l-19 -23 23 19 c21 18 27 26 19 26 -2 0 -12 -10 -23 -22z"/>
<path d="M1335 1390 c-3 -5 -1 -10 4 -10 6 0 11 5 11 10 0 6 -2 10 -4 10 -3 0
-8 -4 -11 -10z"/>
<path d="M1473 1371 l-22 -28 26 -38 25 -37 23 34 22 33 -24 32 c-14 18 -26
33 -27 33 -1 0 -12 -13 -23 -29z m43 -47 c-6 -16 -8 -16 -22 -3 -9 9 -12 23
-8 33 6 16 8 16 22 3 9 -9 12 -23 8 -33z"/>
<path d="M1590 1370 c-10 -18 -8 -20 20 -20 28 0 29 2 18 20 -7 11 -16 20 -20
20 -4 0 -12 -9 -18 -20z"/>
<path d="M1710 1370 c0 -5 7 -10 16 -10 8 0 12 5 9 10 -3 6 -10 10 -16 10 -5
0 -9 -4 -9 -10z"/>
<path d="M1825 1370 c-3 -5 -1 -10 4 -10 6 0 11 5 11 10 0 6 -2 10 -4 10 -3 0
-8 -4 -11 -10z"/>
<path d="M531 1344 c0 -11 3 -14 6 -6 3 7 2 16 -1 19 -3 4 -6 -2 -5 -13z"/>
<path d="M1770 1349 c-63 -4 -126 -7 -140 -8 l-25 -1 30 -20 c20 -13 47 -20
80 -20 29 0 60 -7 72 -15 19 -13 33 -14 95 -4 40 6 74 12 76 14 2 1 -14 16
-35 31 l-38 29 -115 -6z m129 -33 c11 -9 6 -12 -25 -18 -28 -4 -42 -2 -50 8
-6 7 -14 11 -17 8 -3 -3 -16 -2 -29 2 -22 8 -22 8 7 14 40 7 96 0 114 -14z"/>
<path d="M1570 1330 c12 -8 12 -23 -3 -117 -33 -213 -33 -213 -6 -213 13 0 19
4 13 8 -6 4 -14 16 -18 27 -6 17 -4 17 18 -4 15 -14 26 -27 26 -31 0 -3 -15
-14 -34 -22 -26 -13 -35 -25 -40 -53 -8 -43 -10 -41 30 -49 38 -8 35 -16 60
171 10 73 20 129 23 124 3 -5 6 22 6 60 0 67 -1 70 -33 89 -32 20 -73 30 -42
10z m49 -72 c-1 -18 -3 -25 -6 -15 -2 9 -9 17 -15 17 -6 0 -6 6 2 15 18 21 20
19 19 -17z m1 -69 c0 -4 -9 -5 -20 -2 -12 3 -20 14 -20 26 0 19 1 20 20 2 11
-10 20 -21 20 -26z m-5 -19 c4 -6 -5 -10 -19 -10 -14 0 -26 5 -26 10 0 6 9 10
19 10 11 0 23 -4 26 -10z m-5 -34 c0 -7 -9 -25 -21 -40 -15 -19 -16 -24 -5
-20 9 3 16 1 16 -6 0 -6 -8 -10 -17 -8 -29 6 -12 88 18 88 5 0 9 -6 9 -14z
m-32 -211 c-2 -25 -21 -34 -33 -15 -3 6 -1 10 4 10 6 0 10 3 10 8 -3 14 1 22
11 22 5 0 9 -11 8 -25z"/>
<path d="M1422 1293 l-22 -33 24 -36 24 -35 21 29 c26 37 26 34 -2 75 l-23 34
-22 -34z m37 -16 c8 -10 7 -19 -4 -33 -16 -21 -17 -20 -19 19 -2 30 5 34 23
14z"/>
<path d="M479 1293 l-24 -28 28 24 c25 23 32 31 24 31 -2 0 -14 -12 -28 -27z"/>
<path d="M1336 1264 c-4 -31 -5 -58 -3 -60 2 -2 13 10 25 26 22 29 22 30 3 60
l-18 31 -7 -57z"/>
<path d="M1533 1286 c-20 -31 -20 -34 -5 -59 9 -15 20 -27 23 -27 8 0 16 99 9
110 -3 5 -15 -6 -27 -24z"/>
<path d="M2264 1283 c-3 -10 -10 -26 -15 -36 -6 -11 -8 -22 -5 -25 3 -3 6 0 6
6 0 7 4 12 10 12 14 0 -9 -50 -38 -82 -24 -27 -97 -58 -134 -58 -16 0 -19 -6
-16 -32 l3 -33 70 5 c39 3 112 4 163 4 73 -2 92 1 92 12 0 8 7 14 16 14 8 0
12 5 9 11 -5 7 -16 3 -31 -12 l-23 -22 -11 27 c-19 50 -11 58 30 29 14 -10 26
-17 28 -15 9 8 23 -1 19 -12 -4 -10 -1 -13 8 -9 8 3 12 9 9 14 -6 10 9 12 19
3 8 -8 -16 -33 -25 -27 -5 2 -8 -2 -8 -9 0 -7 16 -18 35 -24 42 -13 78 6 73
39 -2 17 -17 24 -84 39 -110 26 -154 62 -160 132 -3 27 -7 53 -10 58 -9 14
-24 9 -30 -9z m26 -94 c0 -6 11 -25 24 -42 13 -18 26 -42 29 -54 5 -22 2 -23
-51 -24 -32 -1 -66 -3 -77 -5 -77 -12 -115 -12 -115 1 0 16 54 30 72 19 7 -4
10 -4 6 1 -4 4 15 23 42 41 28 19 50 36 50 39 0 3 0 12 0 20 0 8 5 15 10 15 6
0 10 -5 10 -11z m225 -129 c3 -6 -4 -10 -17 -10 -18 0 -20 2 -8 10 19 12 18
12 25 0z"/>
<path d="M2810 1296 c0 -2 8 -10 18 -17 15 -13 16 -12 3 4 -13 16 -21 21 -21
13z"/>
<path d="M1680 1280 c0 -5 14 -10 30 -10 17 0 30 5 30 10 0 6 -13 10 -30 10
-16 0 -30 -4 -30 -10z"/>
<path d="M1928 1275 c-5 -5 -58 -12 -102 -14 -19 -1 -19 -1 0 -22 l19 -21 17
21 17 21 17 -29 c10 -17 22 -27 26 -24 5 3 1 15 -9 26 -18 22 -18 22 4 4 21
-18 22 -18 32 1 8 15 7 23 -3 31 -7 6 -15 9 -18 6z"/>
<path d="M1960 1265 c9 -11 8 -20 -9 -44 -25 -35 -25 -35 -4 -67 12 -19 18
-22 25 -12 6 9 7 6 3 -9 -3 -12 -1 -24 5 -28 5 -3 10 -11 10 -16 0 -6 -4 -8
-9 -5 -4 3 -6 -5 -4 -18 3 -13 -1 -27 -8 -31 -9 -6 -11 2 -6 33 4 30 2 40 -6
35 -7 -3 -9 -3 -5 2 8 9 -22 65 -34 65 -12 0 -10 -8 8 -36 16 -23 16 -26 -2
-39 -10 -7 -16 -17 -11 -21 4 -4 14 1 22 12 17 23 20 12 4 -14 -9 -15 -8 -24
6 -45 l17 -27 20 23 c17 19 17 17 -3 -18 -12 -22 -29 -48 -37 -57 -15 -18 -10
-49 12 -67 10 -9 17 -5 30 15 16 24 16 27 1 51 -9 13 -14 27 -12 30 3 3 13 -9
22 -26 8 -17 17 -31 19 -31 5 0 -1 70 -11 120 -8 44 -17 110 -28 205 -4 34 -5
35 -16 35 -8 0 -8 -4 1 -15z m8 -327 c-2 -6 -10 -14 -16 -16 -7 -2 -10 2 -6
12 7 18 28 22 22 4z"/>
<path d="M918 1260 c-10 -6 -14 -18 -11 -30 4 -16 14 -20 44 -20 34 0 39 3 39
24 0 33 -36 46 -72 26z"/>
<path d="M1300 1260 c0 -5 7 -10 16 -10 8 0 12 5 9 10 -3 6 -10 10 -16 10 -5
0 -9 -4 -9 -10z"/>
<path d="M2865 1250 c10 -11 20 -20 23 -20 3 0 -3 9 -13 20 -10 11 -20 20 -23
20 -3 0 3 -9 13 -20z"/>
<path d="M555 1250 c-3 -5 -15 -10 -26 -10 -18 0 -19 -8 -19 -115 0 -131 -6
-125 95 -101 l50 11 3 90 c4 128 1 135 -53 135 -24 0 -47 -4 -50 -10z m62 -40
c3 -11 9 -17 14 -14 5 3 9 1 9 -5 0 -17 -20 -23 -35 -11 -11 9 -12 7 -8 -8 2
-11 12 -19 21 -18 14 1 17 -8 15 -48 -1 -27 -4 -51 -7 -53 -2 -3 -23 -7 -45
-10 -38 -5 -41 -4 -41 19 0 13 6 30 13 37 10 10 9 11 -3 6 -12 -4 -15 3 -15
35 0 22 3 40 7 40 4 0 5 7 1 17 -5 13 -2 15 16 10 18 -4 20 -3 10 9 -9 11 -7
14 16 14 18 0 28 -6 32 -20z"/>
<path d="M1680 1248 c0 -7 13 -13 30 -14 19 -1 30 4 30 12 0 9 -11 14 -30 14
-17 0 -30 -5 -30 -12z"/>
<path d="M2624 1228 l-29 -33 33 29 c30 28 37 36 29 36 -2 0 -16 -15 -33 -32z"/>
<path d="M1300 1231 c0 -6 5 -13 10 -16 6 -3 10 1 10 9 0 9 -4 16 -10 16 -5 0
-10 -4 -10 -9z"/>
<path d="M1368 1215 c-23 -30 -23 -29 6 -71 l23 -35 21 33 c21 32 21 33 2 63
-24 38 -31 40 -52 10z m55 -31 c9 -9 -11 -44 -24 -44 -6 0 -9 7 -5 15 3 8 2
14 -2 14 -20 -3 -33 2 -27 11 7 11 48 14 58 4z"/>
<path d="M1480 1205 l-21 -34 24 -36 25 -36 21 35 22 34 -25 36 -24 36 -22
-35z m48 -28 c7 -8 7 -18 2 -27 -8 -13 -10 -12 -10 3 0 9 -4 17 -10 17 -5 0
-7 -8 -3 -17 5 -15 3 -14 -10 2 -8 11 -13 23 -11 27 8 12 30 9 42 -5z"/>
<path d="M1857 1216 c-21 -31 -21 -33 1 -60 l17 -23 18 23 c21 28 21 33 -1 62
l-18 24 -17 -26z m20 -13 c-4 -3 -2 -12 5 -20 8 -10 8 -17 0 -25 -8 -8 -13 -7
-18 5 -7 18 1 47 12 47 4 0 4 -3 1 -7z"/>
<path d="M720 1216 c0 -8 5 -18 12 -22 7 -4 8 -3 4 4 -10 17 6 15 33 -4 17
-12 26 -13 34 -5 8 8 6 11 -6 11 -10 0 -31 7 -47 15 -26 14 -30 14 -30 1z"/>
<path d="M2900 1226 c0 -2 8 -10 18 -17 15 -13 16 -12 3 4 -13 16 -21 21 -21
13z"/>
<path d="M1680 1210 c0 -5 14 -10 30 -10 17 0 30 5 30 10 0 6 -13 10 -30 10
-16 0 -30 -4 -30 -10z"/>
<path d="M1820 1210 c0 -5 5 -10 11 -10 5 0 7 5 4 10 -3 6 -8 10 -11 10 -2 0
-4 -4 -4 -10z"/>
<path d="M310 1135 c-41 -41 -72 -75 -69 -75 2 0 38 34 79 75 41 41 72 75 69
75 -2 0 -38 -34 -79 -75z"/>
<path d="M1680 1173 c0 -8 12 -13 30 -13 17 0 30 4 30 9 0 5 -13 11 -30 13
-20 3 -30 0 -30 -9z"/>
<path d="M1828 1123 c2 -27 9 -59 15 -73 11 -25 11 -25 14 -2 3 12 11 22 19
22 18 0 18 -9 -2 -31 -9 -10 -13 -23 -9 -29 4 -7 14 -2 26 14 23 30 23 32 2
60 l-17 23 -19 -21 c-19 -21 -19 -21 -3 7 16 26 16 29 -1 52 -26 35 -31 31
-25 -22z"/>
<path d="M1325 1150 c-7 -12 20 -42 29 -33 3 4 6 1 6 -5 0 -7 5 -12 11 -12 5
0 2 13 -8 30 -18 32 -28 37 -38 20z"/>
<path d="M817 1132 c-23 -25 -21 -49 3 -55 17 -4 20 0 20 34 0 45 -1 46 -23
21z"/>
<path d="M1426 1122 c-14 -26 -13 -32 7 -65 l23 -37 17 30 c19 32 21 40 10 40
-5 0 -8 -6 -8 -12 0 -7 -8 -14 -17 -16 -20 -4 -23 10 -7 39 5 11 15 17 20 13
6 -3 5 3 -3 15 -17 28 -25 27 -42 -7z"/>
<path d="M1641 1134 c0 -11 3 -14 6 -6 3 7 2 16 -1 19 -3 4 -6 -2 -5 -13z"/>
<path d="M1680 1135 c0 -10 10 -15 30 -15 20 0 30 5 30 15 0 10 -10 15 -30 15
-20 0 -30 -5 -30 -15z"/>
<path d="M1890 1134 c-11 -12 -11 -18 2 -30 13 -13 15 -12 15 16 0 35 0 35
-17 14z"/>
<path d="M60 1136 c0 -2 8 -10 18 -17 15 -13 16 -12 3 4 -13 16 -21 21 -21 13z"/>
<path d="M913 1121 c-32 -27 -29 -46 7 -47 24 -1 28 2 19 12 -8 10 -6 13 9 11
12 0 18 -6 15 -14 -3 -7 2 -13 11 -13 22 0 20 33 -2 53 -23 21 -32 21 -59 -2z"/>
<path d="M1057 1122 c-26 -29 -20 -33 18 -15 19 9 32 20 29 25 -9 14 -30 9
-47 -10z"/>
<path d="M1218 1133 c7 -3 16 -2 19 1 4 3 -2 6 -13 5 -11 0 -14 -3 -6 -6z"/>
<path d="M1310 1105 c0 -8 4 -15 10 -15 5 0 7 7 4 15 -4 8 -8 15 -10 15 -2 0
-4 -7 -4 -15z"/>
<path d="M1070 1090 l-35 -19 33 -1 c20 0 35 6 39 15 9 24 1 25 -37 5z"/>
<path d="M1120 1095 c0 -8 5 -15 10 -15 6 0 10 7 10 15 0 8 -4 15 -10 15 -5 0
-10 -7 -10 -15z"/>
<path d="M1527 1103 c-4 -3 -7 -11 -7 -17 0 -6 5 -5 12 2 6 6 9 14 7 17 -3 3
-9 2 -12 -2z"/>
<path d="M1630 1101 c0 -6 5 -13 10 -16 6 -3 10 1 10 9 0 9 -4 16 -10 16 -5 0
-10 -4 -10 -9z"/>
<path d="M1680 1096 c0 -8 11 -13 30 -12 40 1 40 26 0 26 -19 0 -30 -5 -30
-14z"/>
<path d="M110 1096 c0 -2 8 -10 18 -17 15 -13 16 -12 3 4 -13 16 -21 21 -21
13z"/>
<path d="M1360 1079 c0 -5 5 -7 10 -4 6 3 10 8 10 11 0 2 -4 4 -10 4 -5 0 -10
-5 -10 -11z"/>
<path d="M1320 1071 c0 -13 26 -32 33 -24 8 7 -11 33 -24 33 -5 0 -9 -4 -9 -9z"/>
<path d="M740 1061 c-19 -3 -54 -16 -77 -28 -23 -13 -53 -24 -65 -25 -13 -1
40 -4 117 -7 117 -5 142 -4 152 9 6 8 9 19 5 25 -3 5 2 4 11 -4 19 -15 23 -36
5 -25 -6 4 -8 3 -5 -4 5 -7 106 -10 310 -10 217 0 287 3 247 9 -30 5 -79 21
-109 35 -52 23 -64 25 -212 23 l-157 -1 -7 -25 c-5 -20 -8 -23 -20 -13 -8 7
-15 19 -15 26 0 8 -10 14 -22 15 -13 0 -45 2 -73 3 -27 1 -66 0 -85 -3z m52
-28 c18 -16 18 -16 12 0 -5 15 -1 17 25 15 22 -2 31 -7 29 -17 -2 -12 -19 -15
-71 -16 -68 0 -84 5 -72 25 10 16 57 12 77 -7z m126 -3 c7 -11 9 -20 4 -20
-10 0 -32 22 -32 32 0 15 15 8 28 -12z m360 -2 c18 -5 30 -13 28 -17 -4 -7
-63 -7 -91 -1 -5 1 -12 1 -15 0 -3 -1 -18 -4 -35 -6 l-30 -5 25 26 c25 27 40
27 118 3z m-270 0 c18 -18 15 -27 -8 -21 -11 3 -20 12 -20 19 0 17 12 18 28 2z
m122 2 c0 -5 -8 -11 -17 -11 -10 -1 -32 -3 -50 -5 -21 -2 -33 1 -37 11 -4 12
5 15 49 15 30 0 55 -4 55 -10z"/>
<path d="M1385 1061 c-3 -6 2 -14 12 -18 10 -4 21 -11 25 -17 6 -8 8 -8 8 0 0
18 -37 47 -45 35z"/>
<path d="M1488 1039 l-17 -29 24 17 c26 19 30 29 17 37 -4 2 -15 -9 -24 -25z"/>
<path d="M1630 1060 c0 -5 5 -10 10 -10 6 0 10 5 10 10 0 6 -4 10 -10 10 -5 0
-10 -4 -10 -10z"/>
<path d="M1680 1060 c0 -5 14 -10 30 -10 17 0 30 5 30 10 0 6 -13 10 -30 10
-16 0 -30 -4 -30 -10z"/>
<path d="M930 1050 c0 -5 5 -10 10 -10 6 0 10 5 10 10 0 6 -4 10 -10 10 -5 0
-10 -4 -10 -10z"/>
<path d="M2410 1050 c0 -5 5 -10 10 -10 6 0 10 5 10 10 0 6 -4 10 -10 10 -5 0
-10 -4 -10 -10z"/>
<path d="M1626 1025 c-3 -9 0 -15 9 -15 8 0 15 7 15 15 0 8 -4 15 -9 15 -5 0
-11 -7 -15 -15z"/>
<path d="M1680 1025 c0 -10 10 -15 30 -15 20 0 30 5 30 15 0 10 -10 15 -30 15
-20 0 -30 -5 -30 -15z"/>
<path d="M1910 1031 c0 -5 3 -11 8 -14 4 -2 1 -2 -5 -1 -7 2 -18 -6 -24 -18
l-11 -21 -19 24 c-18 24 -25 16 -13 -15 3 -9 10 -13 15 -10 5 3 9 1 9 -5 0 -5
-5 -13 -11 -16 -11 -7 -3 -63 11 -78 4 -4 15 4 24 18 16 25 16 28 1 52 -9 13
-14 27 -12 30 3 2 10 -5 17 -16 14 -26 22 -26 38 0 11 17 11 27 2 50 -12 27
-30 40 -30 20z"/>
<path d="M2108 1023 c-21 -3 -28 -10 -28 -27 0 -12 2 -25 5 -27 2 -3 59 1 126
7 94 9 124 15 131 28 5 9 14 16 21 16 8 0 6 -4 -3 -11 -13 -10 -13 -10 0 -6 9
3 29 -2 45 -9 l30 -14 -32 5 c-18 2 -33 0 -33 -5 0 -6 19 -10 43 -10 23 0 52
-3 65 -6 18 -5 22 -2 22 19 0 14 -7 28 -17 32 -21 9 -334 16 -375 8z m207 -19
c-11 -8 -27 -13 -36 -11 -9 2 -37 1 -62 -3 -26 -4 -47 -4 -47 0 0 4 -13 5 -30
2 -19 -3 -30 0 -30 8 0 7 13 10 34 9 19 -2 37 -1 40 2 3 2 38 5 78 6 67 2 71
1 53 -13z"/>
<path d="M75 948 l-60 -63 63 60 c34 33 62 61 62 62 0 8 -10 -1 -65 -59z"/>
<path d="M450 993 c0 -2 26 -16 58 -32 54 -27 60 -28 105 -17 26 7 44 15 41
19 -4 4 12 6 35 4 68 -5 51 -21 -34 -33 l-80 -11 81 -2 c77 -1 81 0 94 25 12
21 19 24 47 21 18 -3 33 -1 33 4 0 5 -72 9 -160 9 -96 0 -160 4 -160 10 0 5
-13 8 -30 7 -16 -1 -30 -3 -30 -4z"/>
<path d="M1622 989 c2 -6 8 -10 13 -10 5 0 11 4 13 10 2 6 -4 11 -13 11 -9 0
-15 -5 -13 -11z"/>
<path d="M1680 987 c0 -9 10 -12 30 -9 17 2 30 8 30 13 0 5 -13 9 -30 9 -18 0
-30 -5 -30 -13z"/>
<path d="M2336 982 c-3 -5 1 -9 9 -9 8 0 15 4 15 9 0 4 -4 8 -9 8 -6 0 -12 -4
-15 -8z"/>
<path d="M230 976 c0 -2 8 -10 18 -17 15 -13 16 -12 3 4 -13 16 -21 21 -21 13z"/>
<path d="M840 968 c0 -5 6 -8 13 -5 8 3 14 -1 14 -9 0 -8 -6 -13 -14 -10 -7 3
-13 0 -13 -7 0 -8 -4 -7 -10 3 -9 13 -11 13 -20 0 -7 -12 -13 -13 -29 -3 -18
11 -31 8 -31 -8 0 -5 150 -8 333 -9 l334 0 56 25 c32 13 57 27 57 30 0 3 -155
5 -345 5 -236 -1 -345 -4 -345 -12z m163 -12 c12 13 53 12 68 -2 13 -12 17
-12 22 -1 3 9 21 12 58 10 90 -5 113 -5 137 1 12 3 22 1 22 -4 0 -5 7 -7 15
-4 8 4 15 1 15 -6 0 -8 -8 -10 -24 -6 -12 3 -26 3 -29 0 -3 -3 -94 -6 -203 -7
-153 -2 -198 1 -202 11 -3 9 5 11 27 7 17 -3 31 -1 31 4 0 6 12 6 29 1 16 -4
31 -6 34 -4z m383 1 c4 -3 16 -2 26 4 14 8 23 8 29 0 5 -6 6 -9 3 -6 -4 3 -13
0 -20 -6 -7 -6 -27 -13 -43 -15 -26 -4 -31 -2 -31 15 0 18 21 23 36 8z"/>
<path d="M780 949 c0 -5 5 -7 10 -4 6 3 10 8 10 11 0 2 -4 4 -10 4 -5 0 -10
-5 -10 -11z"/>
<path d="M1615 950 c-3 -5 1 -10 9 -10 9 0 16 5 16 10 0 6 -4 10 -9 10 -6 0
-13 -4 -16 -10z"/>
<path d="M1680 950 c0 -5 14 -10 30 -10 17 0 30 5 30 10 0 6 -13 10 -30 10
-16 0 -30 -4 -30 -10z"/>
<path d="M2101 951 c-9 -6 -11 -18 -7 -37 6 -28 8 -29 59 -26 28 2 60 11 69
19 9 8 22 12 29 7 8 -5 10 -3 5 5 -5 7 0 18 10 26 17 13 9 14 -66 15 -47 0
-91 -4 -99 -9z m55 -41 c3 0 4 7 1 14 -4 9 2 17 13 21 24 8 71 -5 64 -17 -3
-5 -12 -7 -20 -4 -8 3 -14 2 -14 -3 0 -13 -68 -23 -86 -13 -14 8 -14 11 2 27
17 17 18 16 26 -4 4 -11 10 -21 14 -21z"/>
<path d="M2290 944 c0 -8 5 -12 10 -9 6 4 8 11 5 16 -9 14 -15 11 -15 -7z"/>
<path d="M2326 944 c-25 -24 -19 -41 15 -48 48 -9 109 -7 109 4 0 6 -11 8 -25
4 -18 -4 -27 -1 -31 11 -11 27 11 40 43 25 16 -7 33 -14 38 -15 6 -1 13 -3 18
-5 4 -1 10 -3 15 -4 20 -4 46 -25 39 -32 -4 -4 -20 0 -36 9 -25 15 -30 15 -41
2 -10 -13 -8 -15 13 -15 14 0 32 -6 40 -14 12 -12 18 -11 45 6 18 11 32 23 32
28 0 8 -67 34 -130 50 -56 15 -127 12 -144 -6z m54 -20 c0 -9 -11 -14 -30 -14
-22 0 -28 4 -24 15 4 8 10 13 14 10 5 -3 11 -1 15 5 8 13 25 3 25 -16z"/>
<path d="M270 946 c0 -2 8 -10 18 -17 15 -13 16 -12 3 4 -13 16 -21 21 -21 13z"/>
<path d="M500 919 c0 -19 4 -28 11 -24 6 4 23 10 37 14 l27 8 -32 16 c-42 22
-43 22 -43 -14z"/>
<path d="M1476 915 c4 -8 10 -12 15 -9 14 8 10 24 -6 24 -9 0 -12 -6 -9 -15z"/>
<path d="M1616 918 c-12 -37 -13 -58 -5 -58 9 0 29 42 29 61 0 14 -20 11 -24
-3z"/>
<path d="M1695 895 c3 -16 15 -39 27 -50 18 -17 20 -18 15 -2 -5 13 -1 17 21
17 l26 0 -22 16 c-12 8 -22 23 -22 34 0 13 -7 17 -26 16 -23 -1 -25 -4 -19
-31z"/>
<path d="M2270 921 c0 -10 19 -25 25 -20 1 2 -3 10 -11 17 -8 7 -14 8 -14 3z"/>
<path d="M2950 875 c-24 -25 -42 -45 -39 -45 3 0 25 20 49 45 24 25 42 45 39
45 -3 0 -25 -20 -49 -45z"/>
<path d="M560 901 c-13 -7 -145 -40 -229 -57 -34 -7 -15 -19 61 -38 58 -14
143 -16 631 -16 451 0 571 3 598 14 19 7 43 16 54 21 20 7 20 7 0 15 -11 4
-43 10 -72 14 -29 4 -82 18 -118 31 l-66 25 -422 0 c-232 -1 -429 -5 -437 -9z
m208 -12 c12 6 31 8 44 4 28 -10 66 -9 91 2 17 7 57 -18 57 -36 0 -10 -81 -6
-98 5 -7 4 -12 3 -12 -3 0 -6 -11 -7 -27 -2 -16 4 -35 6 -43 3 -13 -5 -13 -3
0 14 14 18 14 18 -2 5 -10 -7 -15 -17 -12 -22 3 -5 1 -9 -3 -9 -14 0 -33 23
-33 40 0 12 2 12 9 1 6 -10 13 -11 29 -2z m266 -1 c4 6 89 7 106 1 13 -4 36
-3 40 2 3 3 44 3 93 0 55 -4 87 -2 88 4 0 5 3 5 5 -2 4 -8 13 -9 30 -3 15 6
24 6 24 0 0 -6 6 -10 14 -10 8 0 18 -5 22 -11 4 -7 -3 -10 -17 -8 -13 1 -32
-1 -42 -6 -9 -4 -23 -2 -31 4 -7 6 -16 8 -19 5 -11 -11 -167 -10 -171 1 -3 6
-8 4 -14 -4 -7 -10 -14 -11 -31 -2 -11 7 -21 8 -21 2 0 -5 -24 -8 -54 -8 -33
1 -52 5 -49 11 4 5 -1 7 -10 3 -8 -3 -18 0 -20 8 -8 20 2 25 29 15 13 -5 25
-6 28 -2z m-314 -10 c0 -5 -10 -6 -22 -3 -23 7 -23 7 -3 -8 18 -15 13 -16 -67
-12 -150 6 -139 31 15 32 44 1 77 -3 77 -9z m613 -45 c-183 -2 -483 -2 -666 0
-182 1 -33 2 333 2 366 0 515 -1 333 -2z m67 -17 c0 -2 -7 -7 -16 -10 -8 -3
-12 -2 -9 4 6 10 25 14 25 6z m114 -4 c3 -5 -1 -9 -9 -9 -8 0 -15 4 -15 9 0 4
4 8 9 8 6 0 12 -4 15 -8z"/>
<path d="M1898 879 c-10 -17 -21 -28 -26 -25 -4 2 -6 -11 -4 -30 3 -25 0 -34
-11 -34 -23 0 -41 -26 -23 -33 11 -4 13 -1 9 11 -4 10 2 7 14 -7 l20 -25 19
28 c15 25 16 30 3 40 -7 6 -15 19 -17 29 -3 16 0 17 17 8 13 -7 18 -17 14 -29
-3 -9 6 -4 20 13 l25 30 -20 27 c-11 16 -20 28 -21 28 -1 0 -10 -14 -19 -31z
m37 -19 c3 -5 -1 -10 -10 -10 -9 0 -13 5 -10 10 3 6 8 10 10 10 2 0 7 -4 10
-10z"/>
<path d="M1987 882 c-15 -26 -15 -30 3 -56 18 -28 18 -28 29 -8 15 28 14 67
-2 80 -10 9 -17 5 -30 -16z"/>
<path d="M2113 873 c-7 -2 -13 -11 -13 -19 0 -12 30 -14 168 -14 145 1 165 2
149 15 -18 13 -17 14 5 18 13 2 -21 5 -74 6 -64 1 -99 -3 -104 -11 -5 -7 -3
-8 6 -3 9 6 11 4 6 -4 -6 -9 -12 -9 -25 3 -17 15 -90 21 -118 9z m37 -13 c0
-5 -4 -10 -10 -10 -5 0 -10 5 -10 10 0 6 5 10 10 10 6 0 10 -4 10 -10z m54 2
c2 -4 -4 -8 -14 -8 -10 0 -16 4 -14 8 3 4 9 8 14 8 5 0 11 -4 14 -8z m134 1
c-10 -2 -28 -2 -40 0 -13 2 -5 4 17 4 22 1 32 -1 23 -4z"/>
<path d="M2447 855 c-4 -10 5 -17 31 -25 48 -13 52 -13 52 5 0 30 -73 48 -83
20z"/>
<path d="M1946 821 c-19 -21 -15 -51 8 -70 10 -9 17 -6 30 14 15 23 15 27 0
50 -20 30 -17 30 -38 6z m29 -31 c0 -7 -6 -15 -12 -17 -8 -3 -13 4 -13 17 0
13 5 20 13 18 6 -3 12 -11 12 -18z"/>
<path d="M1674 813 c-26 -11 -21 -12 50 -10 54 1 81 6 84 15 5 16 -93 13 -134
-5z"/>
<path d="M2128 824 c-21 -6 -21 0 -7 -105 6 -46 17 -87 23 -91 6 -4 26 -8 44
-8 28 0 32 3 32 25 0 17 6 25 18 26 9 0 80 2 157 4 161 3 195 9 195 35 0 10 9
22 21 25 38 13 15 37 -61 62 -66 23 -94 26 -240 29 -91 1 -173 0 -182 -2z
m102 -15 c0 -4 7 -9 14 -12 9 -4 13 -1 10 6 -8 21 53 20 65 0 6 -10 11 -12 11
-5 0 14 60 17 60 3 0 -5 -13 -19 -30 -32 -16 -13 -30 -28 -30 -34 0 -5 22 12
49 39 30 29 51 44 55 37 4 -6 18 -11 31 -11 14 0 40 -9 58 -19 19 -10 42 -21
51 -22 16 -4 15 -7 -8 -31 -19 -21 -34 -28 -63 -28 -21 0 -65 -5 -98 -10 -41
-7 -61 -6 -66 1 -9 15 -89 8 -117 -9 -14 -9 -21 -21 -17 -30 5 -13 2 -12 -14
2 -11 10 -25 15 -30 11 -6 -3 -11 2 -11 12 0 11 -5 24 -12 31 -7 7 -8 12 -2
12 5 0 9 11 9 25 0 14 -3 25 -7 25 -5 0 -8 9 -8 21 0 11 4 18 8 15 4 -2 14 -1
22 4 16 10 70 9 70 -1z"/>
<path d="M2174 736 c-16 -12 -14 -13 14 -12 33 1 42 10 18 19 -8 3 -22 0 -32
-7z"/>
<path d="M2230 738 c0 -5 21 -8 47 -8 25 0 43 3 40 6 -9 10 -87 11 -87 2z"/>
<path d="M2355 700 c3 -5 8 -10 11 -10 2 0 4 5 4 10 0 6 -5 10 -11 10 -5 0 -7
-4 -4 -10z"/>
<path d="M2024 805 c-4 -10 -2 -26 5 -37 7 -11 10 -22 8 -25 -3 -3 -11 5 -17
17 l-12 22 -18 -28 c-18 -26 -18 -29 -2 -56 12 -20 19 -25 27 -17 7 8 6 13 -2
16 -15 6 -17 33 -3 33 6 0 10 -7 10 -16 0 -8 5 -12 10 -9 15 9 12 -7 -5 -31
-16 -24 -11 -34 18 -34 17 0 19 4 12 33 -3 17 -9 57 -11 87 -5 60 -10 71 -20
45z"/>
<path d="M2670 806 c0 -2 8 -10 18 -17 15 -13 16 -12 3 4 -13 16 -21 21 -21
13z"/>
<path d="M2829 763 l-34 -38 38 34 c20 19 37 36 37 38 0 8 -8 0 -41 -34z"/>
<path d="M1606 781 c-3 -4 7 -7 22 -5 26 3 27 2 25 -44 -2 -37 0 -42 6 -22 5
14 9 37 10 53 1 23 -3 27 -28 27 -17 0 -32 -4 -35 -9z"/>
<path d="M1682 758 c0 -18 -1 -39 -3 -47 -6 -24 28 -25 36 -2 7 23 13 25 35
11 12 -8 10 -10 -8 -10 -40 0 -19 -25 26 -31 43 -6 52 0 29 20 -10 8 -17 7
-26 -2 -11 -10 -11 -8 -3 9 9 16 8 26 -3 40 -19 25 -19 29 5 31 11 1 20 -3 20
-8 0 -6 -5 -7 -11 -3 -7 4 -10 2 -8 -5 7 -20 21 -18 37 7 14 21 14 22 -21 22
-28 0 -40 -6 -56 -29 -12 -16 -21 -34 -21 -40 0 -6 -4 -11 -10 -11 -17 0 -11
26 10 45 27 24 25 35 -5 35 -21 0 -24 -4 -23 -32z"/>
<path d="M460 730 c0 -27 5 -50 10 -50 6 0 10 13 10 30 0 32 24 45 71 38 20
-2 25 -10 27 -40 3 -36 5 -38 37 -38 32 0 34 2 37 38 2 30 7 38 27 40 12 2 34
1 47 -2 20 -5 24 -13 24 -41 0 -24 5 -35 15 -35 9 0 15 -9 15 -25 0 -16 6 -25
15 -25 12 0 15 13 15 59 0 64 6 71 60 71 37 0 44 -13 41 -72 -3 -48 2 -55 28
-39 10 6 12 21 8 50 -6 49 8 61 77 61 66 0 76 -6 76 -51 0 -28 4 -39 15 -39
11 0 15 11 15 40 0 33 4 41 24 46 48 12 71 2 74 -33 3 -26 8 -33 25 -33 31 0
44 11 48 40 4 27 32 37 75 26 17 -5 24 -13 24 -29 0 -20 4 -23 30 -19 21 3 30
10 30 23 0 38 93 40 98 2 6 -39 22 -25 22 17 l0 40 -560 0 -560 0 0 -50z m338
13 c-16 -38 -28 -51 -28 -31 0 9 -3 23 -6 31 -4 11 2 17 18 20 13 2 24 5 25 6
2 0 -3 -11 -9 -26z m482 14 c0 -8 -6 -14 -13 -14 -8 0 -14 6 -14 14 0 7 6 13
14 13 7 0 13 -6 13 -13z m-651 -9 c-2 -21 -17 -64 -18 -50 -2 23 -3 27 -12 45
-8 14 -6 17 11 17 11 0 20 -6 19 -12z m821 8 c0 -15 -14 -35 -21 -30 -15 9
-10 34 6 34 8 0 15 -2 15 -4z m-176 -47 c-3 -5 -10 -7 -15 -3 -5 3 -7 10 -3
15 3 5 10 7 15 3 5 -3 7 -10 3 -15z"/>
<path d="M1898 751 c-14 -25 -14 -32 -2 -48 7 -10 13 -22 13 -28 1 -5 -8 1
-18 14 -18 24 -19 24 -30 4 -9 -18 -7 -22 16 -28 19 -4 32 -1 46 13 20 21 16
42 -9 42 -8 0 -14 5 -14 10 0 14 11 12 31 -6 26 -23 31 -1 6 29 l-22 27 -17
-29z"/>
<path d="M1800 735 c-7 -9 -8 -15 -2 -15 5 0 13 -11 16 -25 8 -33 17 -31 38 5
17 30 17 31 -8 40 -32 12 -29 13 -44 -5z"/>
<path d="M1610 715 c-10 -12 -10 -15 4 -15 9 0 16 7 16 15 0 8 -2 15 -4 15 -2
0 -9 -7 -16 -15z"/>
<path d="M2740 716 c0 -9 5 -16 11 -16 5 0 7 5 4 10 -3 6 0 10 9 10 8 0 17 -5
19 -10 3 -6 4 -5 3 2 -4 20 -46 23 -46 4z"/>
<path d="M341 639 c23 -41 53 -89 67 -108 l26 -34 -45 -40 c-45 -41 -29 -44
21 -4 33 25 36 43 14 77 -9 14 3 5 25 -20 l40 -45 1 87 c0 48 3 89 8 91 4 2
26 0 50 -5 36 -8 42 -13 43 -36 0 -15 1 -42 2 -61 2 -29 -2 -36 -28 -46 -16
-7 -39 -16 -50 -20 -16 -6 -10 -10 28 -16 27 -4 50 -9 52 -11 1 -2 -1 -25 -4
-52 l-6 -49 -32 37 c-18 20 -33 32 -33 26 0 -5 9 -18 20 -27 30 -26 25 -33
-21 -33 l-42 0 6 55 c3 30 4 55 3 55 -1 0 -31 -11 -65 -25 -34 -14 -66 -23
-71 -20 -5 3 -25 -3 -45 -14 -20 -10 -32 -21 -28 -24 25 -16 151 -40 236 -46
l97 -6 0 150 0 151 61 13 c34 7 63 10 66 7 3 -2 -15 -9 -39 -14 l-43 -10 58
-1 c44 -1 57 2 57 14 0 18 -58 30 -108 21 -65 -10 -272 19 -345 49 -13 5 -6
-13 24 -66z m69 13 c0 -4 12 -9 27 -10 15 -1 30 -8 35 -15 8 -13 5 -94 -5
-103 -3 -3 -18 12 -33 33 -16 21 -39 48 -51 61 -30 30 -29 42 2 42 14 0 25 -4
25 -8z m55 -253 c0 -13 -7 -27 -15 -30 -22 -9 -51 1 -43 15 4 6 -1 5 -11 -3
-12 -10 -20 -11 -28 -3 -7 7 1 16 28 30 48 25 68 22 69 -9z"/>
<path d="M1947 689 c-19 -26 -9 -39 31 -39 27 0 27 7 3 39 l-18 24 -16 -24z"/>
<path d="M2631 689 c-65 -23 -246 -43 -315 -36 l-51 6 40 -15 40 -14 -35 5
c-19 2 -45 7 -57 11 -18 5 -23 2 -23 -11 0 -16 8 -17 80 -12 l80 6 0 -149 c0
-82 3 -151 8 -153 24 -13 314 33 326 52 2 3 -13 14 -33 24 -21 10 -57 35 -80
55 l-43 37 39 60 c57 86 95 155 86 154 -4 -1 -32 -10 -62 -20z m9 -39 c0 -5
-10 -18 -22 -30 -12 -11 -17 -20 -10 -20 6 0 -2 -14 -18 -32 -16 -17 -27 -35
-24 -40 3 -4 -2 -5 -11 -2 -26 10 14 -53 63 -99 43 -40 43 -41 20 -50 -13 -4
-54 -10 -93 -13 -77 -5 -110 -10 -125 -19 -6 -3 -10 2 -11 12 -9 220 -9 222
18 243 14 11 21 20 16 20 -5 0 -14 -5 -21 -12 -9 -9 -12 -8 -12 8 0 15 8 20
31 22 19 2 28 -2 24 -8 -4 -6 7 -10 27 -10 23 0 29 3 19 9 -10 6 2 12 40 19
74 13 89 14 89 2z"/>
<path d="M2543 613 c9 -2 25 -2 35 0 9 3 1 5 -18 5 -19 0 -27 -2 -17 -5z"/>
<path d="M2490 592 c0 -4 12 -19 27 -33 20 -18 23 -19 13 -4 -24 32 -40 47
-40 37z"/>
<path d="M1356 678 c-66 -4 -189 -19 -275 -32 -238 -37 -360 -49 -408 -38
l-42 10 -3 -162 c-2 -88 0 -165 5 -171 14 -18 221 -7 422 24 414 62 483 62
895 -1 197 -30 402 -41 417 -23 5 6 7 83 5 172 l-3 161 -37 -10 c-41 -12 -152
-5 -295 18 -340 53 -496 65 -681 52z m259 -24 c39 0 94 -2 123 -3 50 -4 52 -5
50 -32 -2 -25 -5 -27 -38 -24 -19 2 -61 6 -94 9 -32 4 -62 8 -66 11 -5 3 -19
1 -33 -4 -14 -5 -27 -7 -30 -4 -9 8 -177 12 -177 3 0 -12 -61 -4 -69 9 -6 9
-11 8 -21 -4 -7 -8 -24 -15 -38 -15 -14 0 -34 -7 -44 -16 -14 -14 -20 -14 -33
-4 -8 7 -15 9 -15 4 0 -15 -20 20 -20 36 0 9 10 16 28 16 68 4 160 13 187 19
24 5 27 4 15 -5 -12 -9 -8 -10 20 -4 49 10 174 20 180 14 3 -3 37 -5 75 -6z
m248 -17 c3 3 14 0 24 -6 10 -6 14 -11 8 -11 -31 -4 -49 -10 -64 -24 -26 -23
-31 -20 -31 18 0 33 1 34 29 26 16 -4 32 -6 34 -3z m101 -16 c4 -5 41 -12 84
-16 100 -10 111 -12 130 -27 9 -7 13 -8 9 -2 -5 8 6 11 33 11 36 -1 39 -3 34
-21 -6 -20 -5 -20 7 -3 8 9 30 20 50 23 35 6 37 5 41 -27 3 -19 1 -44 -5 -56
-7 -16 -6 -27 2 -37 8 -10 9 -16 1 -21 -5 -3 -10 -17 -10 -31 0 -16 4 -23 11
-18 8 4 8 1 1 -12 -15 -28 -15 -36 0 -45 24 -15 -15 -40 -66 -43 -32 -2 -56 3
-78 17 -25 15 -29 16 -19 3 12 -14 10 -16 -10 -15 -13 1 -35 4 -49 8 -24 7
-24 7 -4 21 11 8 24 22 29 30 5 8 -12 -3 -38 -24 -26 -21 -47 -34 -47 -29 0 4
-35 14 -77 21 -73 11 -122 32 -77 32 11 0 25 -5 32 -12 19 -19 48 28 51 81 1
25 7 51 13 58 8 10 7 12 -6 7 -12 -4 -15 -2 -11 9 4 8 -1 22 -10 31 -9 9 -13
16 -8 16 4 1 -3 7 -17 15 -45 26 -141 12 -124 -18 4 -7 3 -8 -2 -4 -19 18 -8
33 45 59 61 29 77 33 85 19z m-978 -50 c-14 -27 -14 -30 1 -33 9 -2 17 -14 18
-28 2 -14 6 -44 10 -67 11 -67 -10 -51 -25 17 -7 33 -16 62 -19 64 -4 3 -16
-20 -28 -50 -12 -30 -17 -54 -13 -54 5 0 14 17 21 38 l13 37 12 -40 c13 -46 9
-59 -17 -52 -12 3 -19 0 -19 -9 0 -10 6 -11 26 -3 31 11 31 11 34 -16 4 -40 0
-54 -17 -53 -10 1 -29 -2 -42 -6 -18 -6 -22 -5 -15 5 7 12 5 12 -9 0 -9 -7
-47 -15 -84 -18 -38 -2 -74 -6 -81 -8 -9 -3 -12 2 -10 12 2 13 29 25 93 44 61
18 91 32 93 43 2 9 -2 16 -8 16 -7 0 -9 -7 -6 -16 5 -13 2 -15 -14 -11 -11 3
-22 1 -25 -3 -4 -7 -101 -40 -117 -40 -2 0 -2 18 0 39 3 26 10 41 20 44 12 3
11 5 -4 6 -19 1 -22 -6 -26 -51 -3 -29 -11 -54 -17 -56 -6 -2 -9 -8 -5 -13 8
-13 -20 -11 -34 3 -9 9 -12 9 -12 0 0 -16 -27 -4 -35 16 -4 11 8 28 37 55 24
21 36 35 28 31 -8 -4 -25 -16 -37 -27 l-23 -20 0 31 c0 36 3 48 10 45 3 0 23
-3 45 -5 l40 -3 3 75 c4 82 7 89 24 72 15 -15 62 -16 53 -2 -4 6 9 10 32 11
21 0 61 6 88 13 28 6 51 8 53 4 2 -3 -4 -20 -12 -37z m114 34 c0 -8 -14 -17
-37 -21 -21 -4 -44 -11 -50 -17 -9 -6 -13 -5 -13 4 1 31 14 39 88 48 6 0 12
-6 12 -14z m312 -123 c3 -61 3 -62 -24 -62 -26 0 -27 0 -30 85 -3 83 -3 84 22
87 28 3 27 5 32 -110z m35 98 c1 -11 -2 -18 -8 -15 -11 7 -12 35 -1 35 4 0 8
-9 9 -20z m83 -42 c0 -85 -15 -112 -63 -116 -34 -3 -37 -1 -37 21 0 20 4 24
20 20 19 -5 20 0 20 66 l0 71 30 0 30 0 0 -62z m73 53 c17 -1 18 -8 12 -90 -5
-58 -4 -91 3 -95 16 -10 20 3 31 94 6 46 12 85 14 86 2 2 13 0 26 -3 16 -4 31
-23 47 -57 l23 -51 0 48 c1 44 3 47 27 47 24 0 26 -3 20 -32 -3 -18 -8 -57
-12 -85 -6 -46 -9 -53 -29 -53 -18 0 -28 12 -48 58 l-26 57 0 -37 c-1 -50 -10
-68 -33 -68 -10 0 -16 -4 -13 -10 9 -14 21 -12 41 7 16 16 16 16 10 -7 -7 -23
-6 -24 8 -7 12 15 16 16 23 4 4 -7 17 -19 28 -25 17 -10 13 -12 -24 -8 -24 3
-47 8 -50 13 -10 13 -43 12 -38 -2 4 -8 -2 -11 -16 -10 -32 4 -33 4 -17 15 13
9 12 12 -4 25 -11 8 -27 15 -35 15 -14 0 -15 13 -12 86 2 62 0 85 -8 80 -6 -4
-11 -2 -11 3 0 6 10 9 23 7 12 -3 30 -5 40 -5z m-863 -17 c0 -5 -87 -44 -97
-44 -7 0 9 44 18 51 10 6 79 -1 79 -7z m580 12 c0 -2 3 -11 6 -20 5 -12 0 -16
-19 -16 -14 0 -32 -3 -41 -6 -28 -11 -17 -24 19 -24 28 0 35 -4 35 -20 0 -16
-7 -20 -35 -20 -26 0 -35 -4 -35 -16 0 -14 7 -15 45 -10 43 7 45 6 45 -18 0
-24 -3 -26 -49 -26 -27 0 -56 -3 -64 -6 -16 -6 -18 4 -32 123 l-7 52 39 4 c63
6 93 7 93 3z m-160 -46 c7 -14 8 -26 1 -39 -8 -14 -7 -20 4 -25 21 -8 19 -63
-2 -74 -10 -6 -41 -13 -69 -17 l-51 -6 -6 43 c-3 24 -9 62 -13 85 -7 47 -3 50
78 52 38 1 49 -3 58 -19z m802 -7 c22 -20 24 -53 3 -53 -8 0 -24 9 -36 21 -15
15 -24 18 -34 9 -15 -12 -25 -57 -18 -77 6 -15 43 -18 43 -3 0 6 -4 10 -10 10
-5 0 -10 9 -10 19 0 17 5 19 38 14 20 -3 38 -7 40 -8 1 -1 -1 -23 -4 -48 -4
-30 -12 -47 -20 -47 -8 0 -14 4 -14 10 0 6 -9 6 -23 1 -28 -11 -81 9 -91 34
-26 69 25 153 86 141 18 -3 40 -14 50 -23z m-1241 -67 c-6 -7 -24 -11 -41 -8
-28 4 -31 8 -28 36 2 17 6 30 10 29 4 -1 20 4 35 12 28 15 28 15 31 -21 2 -19
-1 -41 -7 -48z m732 71 c3 -8 1 -20 -4 -28 -5 -8 -9 -9 -10 -4 0 6 -2 18 -4
28 -4 20 10 23 18 4z m117 -137 c11 0 20 -4 20 -10 0 -5 -6 -10 -14 -10 -8 0
-21 -3 -30 -6 -13 -5 -16 1 -16 27 1 28 2 31 11 17 5 -10 19 -18 29 -18z m-53
-5 c-3 -10 -77 -21 -197 -30 -52 -5 -90 -9 -152 -20 -23 -4 -28 -1 -28 17 0
20 4 20 61 15 33 -4 58 -3 55 1 -2 4 10 8 27 9 18 0 57 5 87 9 75 12 151 11
147 -1z m326 -25 c4 -4 1 -13 -8 -20 -12 -10 -15 -10 -15 0 0 7 -7 10 -15 6
-10 -4 -15 1 -15 15 0 16 4 19 23 14 12 -4 26 -11 30 -15z m-735 -14 c12 2 22
0 22 -5 0 -5 -15 -11 -32 -14 -24 -4 -39 0 -53 14 -19 19 -19 19 10 10 17 -4
40 -7 53 -5z"/>
<path d="M2240 531 c0 -9 30 -24 36 -18 2 1 -6 8 -16 15 -11 7 -20 8 -20 3z"/>
<path d="M2335 531 c-6 -5 -19 -11 -30 -14 -19 -4 -19 -5 1 -6 12 0 27 6 34
14 14 16 10 20 -5 6z"/>
<path d="M2060 481 c0 -11 4 -22 9 -25 4 -3 6 6 3 19 -5 30 -12 33 -12 6z"/>
<path d="M2300 488 c-5 -36 -3 -175 2 -170 9 10 15 172 6 172 -5 0 -8 -1 -8
-2z"/>
<path d="M2120 455 c-36 -13 -60 -24 -54 -24 5 -1 41 10 80 23 38 14 62 24 54
24 -8 0 -44 -10 -80 -23z"/>
<path d="M2220 419 c-40 -37 -44 -43 -15 -21 38 28 83 72 74 72 -2 0 -29 -23
-59 -51z"/>
<path d="M2043 380 c0 -25 2 -35 4 -22 2 12 2 32 0 45 -2 12 -4 2 -4 -23z"/>
<path d="M853 563 c9 -2 23 -2 30 0 6 3 -1 5 -18 5 -16 0 -22 -2 -12 -5z"/>
<path d="M908 553 c6 -2 18 -2 25 0 6 3 1 5 -13 5 -14 0 -19 -2 -12 -5z"/>
<path d="M782 533 c6 -10 37 -40 67 -68 56 -49 56 -49 -9 18 -67 69 -79 80
-58 50z"/>
<path d="M811 415 c3 -2 23 -7 45 -10 27 -3 34 -2 24 5 -15 10 -78 14 -69 5z"/>
<path d="M1088 523 c-10 -3 -18 -9 -18 -14 0 -15 30 -23 43 -10 14 14 -2 29
-25 24z"/>
<path d="M1082 443 c2 -12 11 -17 23 -15 25 5 29 8 20 21 -11 19 -47 13 -43
-6z"/>
<path d="M2810 666 c0 -2 8 -10 18 -17 15 -13 16 -12 3 4 -13 16 -21 21 -21
13z"/>
<path d="M60 506 c0 -2 8 -10 18 -17 15 -13 16 -12 3 4 -13 16 -21 21 -21 13z"/>
<path d="M100 476 c0 -2 8 -10 18 -17 15 -13 16 -12 3 4 -13 16 -21 21 -21 13z"/>
<path d="M230 346 c0 -2 8 -10 18 -17 15 -13 16 -12 3 4 -13 16 -21 21 -21 13z"/>
<path d="M270 316 c0 -2 8 -10 18 -17 15 -13 16 -12 3 4 -13 16 -21 21 -21 13z"/>
<path d="M325 270 c10 -11 20 -20 23 -20 3 0 -3 9 -13 20 -10 11 -20 20 -23
20 -3 0 3 -9 13 -20z"/>
<path d="M1790 286 c0 -2 8 -10 18 -17 15 -13 16 -12 3 4 -13 16 -21 21 -21
13z"/>
<path d="M2974 268 l-19 -23 23 19 c12 11 22 21 22 23 0 8 -8 2 -26 -19z"/>
<path d="M360 246 c0 -2 8 -10 18 -17 15 -13 16 -12 3 4 -13 16 -21 21 -21 13z"/>
<path d="M1100 246 c0 -2 8 -10 18 -17 15 -13 16 -12 3 4 -13 16 -21 21 -21
13z"/>
<path d="M1390 163 l-65 -68 68 65 c62 60 72 70 64 70 -1 0 -32 -30 -67 -67z"/>
<path d="M645 158 l-60 -63 63 60 c34 33 62 61 62 62 0 8 -10 -1 -65 -59z"/>
<path d="M1140 216 c0 -2 8 -10 18 -17 15 -13 16 -12 3 4 -13 16 -21 21 -21
13z"/>
<path d="M2120 153 l-55 -58 58 55 c53 50 62 60 54 60 -1 0 -27 -26 -57 -57z"/>
<path d="M1920 186 c0 -2 8 -10 18 -17 15 -13 16 -12 3 4 -13 16 -21 21 -21
13z"/>
<path d="M450 176 c0 -2 8 -10 18 -17 15 -13 16 -12 3 4 -13 16 -21 21 -21 13z"/>
<path d="M1190 176 c0 -2 8 -10 18 -17 15 -13 16 -12 3 4 -13 16 -21 21 -21
13z"/>
<path d="M2670 176 c0 -2 8 -10 18 -17 15 -13 16 -12 3 4 -13 16 -21 21 -21
13z"/>
<path d="M490 146 c0 -2 8 -10 18 -17 15 -13 16 -12 3 4 -13 16 -21 21 -21 13z"/>
<path d="M1970 146 c0 -2 8 -10 18 -17 15 -13 16 -12 3 4 -13 16 -21 21 -21
13z"/>
<path d="M531 84 c0 -11 3 -14 6 -6 3 7 2 16 -1 19 -3 4 -6 -2 -5 -13z"/>
<path d="M556 85 c4 -8 10 -15 15 -15 4 0 6 7 3 15 -4 8 -10 15 -15 15 -4 0
-6 -7 -3 -15z"/>
<path d="M2010 85 c0 -8 2 -15 4 -15 2 0 6 7 10 15 3 8 1 15 -4 15 -6 0 -10
-7 -10 -15z"/>
<path d="M484 38 l-19 -23 23 19 c21 18 27 26 19 26 -2 0 -12 -10 -23 -22z"/>
</g>
</svg>
