<svg id="svg" version="1.1" width="400" height="327.5" viewBox="0 0 400 327.5" xmlns="http://www.w3.org/2000/svg" xmlns:xlink="http://www.w3.org/1999/xlink" ><g id="svgg"><path id="path0" d="M0.000 163.750 L 0.000 327.500 200.000 327.500 L 400.000 327.500 400.000 163.750 L 400.000 0.000 200.000 0.000 L 0.000 0.000 0.000 163.750 M224.247 14.847 C 302.707 22.302,360.401 91.927,352.965 170.184 C 345.140 252.539,269.491 310.922,187.813 297.643 C 114.075 285.655,61.841 217.968,68.910 143.566 C 76.365 65.110,145.994 7.412,224.247 14.847 M143.792 81.589 C 143.459 81.947,143.111 82.756,143.020 83.386 C 142.929 84.016,142.622 85.445,142.338 86.563 C 142.054 87.680,141.713 89.227,141.581 90.000 C 141.449 90.773,141.180 91.802,140.983 92.286 C 140.786 92.770,140.625 93.533,140.625 93.983 C 140.625 94.432,140.497 95.231,140.340 95.759 C 139.785 97.624,139.322 99.550,139.056 101.094 C 138.908 101.953,138.556 103.641,138.274 104.844 C 137.992 106.047,137.664 107.805,137.545 108.750 C 137.426 109.695,137.210 110.659,137.064 110.891 C 136.919 111.123,136.676 112.142,136.525 113.156 C 136.374 114.170,136.126 115.830,135.975 116.844 C 135.824 117.858,135.593 118.861,135.462 119.074 C 135.330 119.286,135.109 120.320,134.970 121.371 C 134.830 122.422,134.491 124.477,134.215 125.938 C 133.939 127.398,133.591 129.438,133.442 130.469 C 133.188 132.217,132.987 133.397,132.188 137.831 C 132.016 138.787,131.873 140.123,131.872 140.800 C 131.870 141.477,131.659 142.722,131.403 143.565 C 131.147 144.409,130.938 145.805,130.938 146.668 C 130.938 147.531,130.806 148.669,130.646 149.197 C 130.315 150.289,129.729 155.162,129.349 160.000 C 129.207 161.805,128.956 164.547,128.791 166.094 C 128.403 169.739,128.404 180.243,128.792 182.656 C 128.958 183.688,129.216 185.516,129.365 186.719 C 129.514 187.922,129.867 189.891,130.150 191.094 C 130.432 192.297,130.770 193.844,130.899 194.531 C 131.029 195.219,131.301 196.088,131.505 196.464 C 131.708 196.839,131.875 197.499,131.875 197.930 C 131.875 198.361,131.999 198.790,132.151 198.884 C 132.304 198.978,132.498 199.443,132.584 199.918 C 132.745 200.805,133.338 202.590,133.759 203.459 C 133.890 203.729,134.460 205.065,135.025 206.428 C 141.804 222.786,154.990 237.343,171.094 246.250 C 172.125 246.820,173.180 247.404,173.438 247.547 C 174.669 248.231,179.457 250.313,179.800 250.313 C 180.013 250.313,180.321 250.436,180.484 250.587 C 180.648 250.737,182.188 251.319,183.906 251.880 C 185.625 252.441,187.275 253.020,187.574 253.168 C 187.872 253.316,188.479 253.438,188.923 253.438 C 189.366 253.437,190.036 253.605,190.411 253.810 C 191.079 254.175,192.218 254.409,196.185 254.999 C 197.266 255.160,198.321 255.401,198.528 255.535 C 198.884 255.764,202.420 256.056,209.494 256.439 C 211.488 256.547,212.700 256.487,212.916 256.272 C 213.107 256.080,214.549 255.938,216.292 255.938 C 217.965 255.938,219.729 255.787,220.212 255.604 C 220.695 255.420,221.935 255.143,222.967 254.988 C 226.478 254.462,227.967 254.178,229.063 253.829 C 229.664 253.637,230.789 253.316,231.563 253.116 C 232.336 252.916,233.431 252.555,233.995 252.314 C 234.559 252.072,235.216 251.875,235.454 251.875 C 235.692 251.875,236.285 251.677,236.772 251.435 C 237.258 251.193,238.008 250.856,238.438 250.686 C 238.867 250.516,239.992 250.068,240.938 249.690 C 258.815 242.548,276.841 224.524,284.070 206.563 C 284.451 205.617,284.966 204.352,285.215 203.750 C 285.464 203.148,285.783 202.375,285.925 202.031 C 286.067 201.688,286.560 200.141,287.021 198.594 C 287.483 197.047,288.016 195.289,288.207 194.688 C 288.552 193.598,288.845 192.059,289.348 188.703 C 289.493 187.732,289.726 186.754,289.864 186.529 C 290.868 184.906,290.829 161.899,289.820 160.277 C 289.672 160.039,289.448 158.438,289.322 156.719 C 288.948 151.619,288.484 147.515,288.236 147.114 C 288.108 146.908,287.902 145.679,287.778 144.385 C 287.365 140.089,286.834 136.444,286.540 135.895 C 286.380 135.597,286.250 134.632,286.250 133.750 C 286.250 132.868,286.086 131.839,285.885 131.464 C 285.683 131.088,285.407 129.867,285.269 128.750 C 284.712 124.221,284.454 122.569,284.253 122.243 C 284.137 122.055,283.911 121.016,283.751 119.935 C 283.053 115.219,282.752 113.596,282.479 113.086 C 282.319 112.786,282.187 111.927,282.187 111.177 C 282.188 110.426,282.049 109.674,281.880 109.505 C 281.711 109.336,281.424 108.288,281.244 107.177 C 280.500 102.600,280.360 101.892,280.120 101.503 C 279.981 101.280,279.763 100.463,279.634 99.689 C 279.505 98.915,279.268 97.491,279.107 96.524 C 278.946 95.558,278.660 94.477,278.470 94.123 C 278.280 93.769,278.125 93.054,278.125 92.535 C 278.125 92.016,278.001 91.269,277.849 90.874 C 277.698 90.479,277.332 89.031,277.037 87.656 C 276.137 83.456,275.499 81.531,274.902 81.204 C 273.640 80.514,272.972 82.556,273.793 84.589 C 273.988 85.073,274.255 86.031,274.385 86.719 C 275.133 90.664,275.392 91.749,275.650 92.016 C 275.808 92.179,275.938 92.856,275.938 93.521 C 275.937 94.185,276.093 95.019,276.282 95.373 C 276.472 95.727,276.753 96.773,276.907 97.696 C 277.061 98.620,277.315 100.140,277.471 101.076 C 277.626 102.012,277.868 102.961,278.008 103.185 C 278.148 103.410,278.362 104.297,278.483 105.156 C 278.605 106.016,278.932 107.773,279.211 109.063 C 279.489 110.352,279.819 112.180,279.944 113.125 C 280.069 114.070,280.293 115.039,280.443 115.277 C 280.592 115.515,280.835 116.605,280.982 117.699 C 281.130 118.793,281.370 120.582,281.518 121.676 C 281.665 122.770,281.899 123.848,282.037 124.072 C 282.176 124.296,282.401 125.405,282.538 126.537 C 283.075 130.986,283.454 133.312,283.751 133.999 C 283.922 134.394,284.062 135.392,284.063 136.218 C 284.063 137.044,284.204 138.127,284.377 138.625 C 284.702 139.562,285.131 142.729,285.610 147.723 C 285.762 149.306,286.003 150.783,286.146 151.004 C 286.410 151.412,286.537 152.826,287.162 162.344 C 287.355 165.266,287.650 168.064,287.818 168.562 C 288.218 169.743,288.217 180.381,287.817 181.313 C 287.648 181.708,287.372 183.508,287.203 185.313 C 286.770 189.954,286.381 192.659,286.079 193.149 C 285.935 193.381,285.714 194.139,285.586 194.832 C 285.137 197.272,284.619 199.222,284.342 199.516 C 284.188 199.679,284.063 200.052,284.063 200.344 C 284.063 201.141,281.499 207.364,279.675 210.992 C 271.653 226.955,256.831 240.905,241.094 247.306 C 239.891 247.796,238.484 248.375,237.969 248.593 C 237.453 248.812,236.469 249.165,235.781 249.379 C 235.094 249.593,234.180 249.910,233.750 250.084 C 232.932 250.415,231.335 250.810,229.207 251.207 C 228.514 251.337,227.756 251.560,227.524 251.704 C 226.405 252.395,215.204 253.536,209.531 253.536 C 203.545 253.536,194.977 252.625,190.938 251.558 C 190.164 251.354,188.969 251.044,188.281 250.869 C 186.356 250.380,184.010 249.637,182.922 249.171 C 182.380 248.940,181.720 248.750,181.456 248.750 C 181.191 248.750,180.887 248.609,180.781 248.438 C 180.675 248.266,180.394 248.125,180.156 248.125 C 179.919 248.125,178.513 247.562,177.031 246.875 C 175.550 246.188,174.293 245.625,174.238 245.625 C 173.607 245.625,166.677 241.400,163.281 238.945 C 152.696 231.292,143.139 219.720,138.345 208.750 C 138.082 208.148,137.503 206.857,137.058 205.879 C 136.614 204.902,136.250 203.911,136.250 203.676 C 136.250 203.442,136.134 203.116,135.993 202.953 C 135.851 202.790,135.480 201.813,135.168 200.781 C 134.855 199.750,134.498 198.625,134.373 198.281 C 134.023 197.319,133.421 194.996,133.118 193.438 C 132.048 187.939,131.806 186.225,131.550 182.344 C 131.221 177.369,131.471 162.198,131.904 160.781 C 132.168 159.916,132.549 156.349,133.087 149.688 C 133.206 148.227,133.407 146.862,133.535 146.656 C 133.747 146.315,133.966 144.666,134.652 138.264 C 134.782 137.051,134.995 135.885,135.127 135.673 C 135.258 135.460,135.490 134.273,135.642 133.034 C 135.794 131.795,136.142 129.586,136.416 128.125 C 136.690 126.664,137.023 124.543,137.156 123.412 C 137.290 122.280,137.509 121.176,137.643 120.959 C 137.877 120.580,138.154 118.995,138.716 114.808 C 138.857 113.757,139.080 112.724,139.212 112.511 C 139.343 112.299,139.567 111.330,139.709 110.359 C 139.851 109.388,140.188 107.609,140.459 106.406 C 140.730 105.203,141.081 103.516,141.238 102.656 C 141.618 100.575,142.160 98.189,142.520 97.009 C 142.681 96.481,142.813 95.682,142.813 95.233 C 142.813 94.783,142.974 94.020,143.170 93.536 C 143.367 93.052,143.636 92.023,143.768 91.250 C 143.901 90.477,144.238 88.930,144.517 87.813 C 144.797 86.695,145.141 85.219,145.283 84.531 C 145.425 83.844,145.647 83.030,145.777 82.723 C 146.304 81.476,144.734 80.578,143.792 81.589 M209.063 108.438 C 208.805 108.604,208.352 108.743,208.055 108.745 C 204.750 108.775,199.888 113.873,198.813 118.438 C 197.530 123.886,204.258 131.674,210.156 131.567 C 218.309 131.420,224.211 122.276,220.638 115.326 C 218.462 111.095,211.428 106.909,209.063 108.438 M167.031 148.179 C 162.195 149.382,159.396 150.904,156.666 153.813 C 154.887 155.708,152.813 158.769,152.813 159.498 C 152.813 159.754,152.691 160.038,152.543 160.130 C 151.815 160.579,151.464 163.123,152.042 163.761 C 152.807 164.608,153.923 163.627,154.224 161.843 C 154.337 161.175,154.558 160.549,154.715 160.452 C 154.872 160.355,155.000 160.057,155.000 159.789 C 155.000 157.653,161.232 151.563,163.417 151.563 C 163.730 151.563,164.491 151.352,165.108 151.094 C 166.649 150.450,170.874 150.472,172.411 151.133 C 180.504 154.611,182.409 157.180,180.061 161.451 C 179.407 162.641,178.621 164.243,178.314 165.010 C 178.008 165.778,177.653 166.547,177.526 166.719 C 177.252 167.090,175.873 171.541,175.179 174.292 C 173.133 182.404,179.544 190.874,185.540 187.981 C 188.146 186.723,189.353 185.216,191.086 181.053 C 191.706 179.565,191.618 174.652,190.928 172.188 C 189.884 168.459,188.162 164.332,186.341 161.197 C 184.619 158.232,184.812 156.800,187.266 154.312 C 193.741 147.747,200.658 149.687,206.849 159.802 C 208.669 162.774,208.616 163.827,206.429 168.272 C 203.326 174.578,202.386 177.183,201.536 181.837 C 201.367 182.762,201.093 183.772,200.927 184.082 C 200.322 185.212,200.563 192.648,201.273 194.775 C 204.903 205.650,216.118 205.005,220.141 193.691 C 221.005 191.260,220.507 183.247,219.362 181.176 C 219.197 180.878,219.063 180.288,219.063 179.866 C 219.063 179.445,218.933 179.019,218.774 178.921 C 218.615 178.823,218.387 178.292,218.266 177.741 C 218.145 177.190,217.934 176.524,217.797 176.260 C 212.440 165.940,211.600 163.322,212.854 160.847 C 218.123 150.441,226.413 147.589,233.203 153.845 C 235.169 155.656,235.179 156.553,233.282 160.418 C 231.160 164.740,229.773 168.727,229.076 172.500 C 228.934 173.273,228.635 174.703,228.412 175.676 C 228.085 177.106,228.083 177.736,228.399 178.957 C 228.615 179.789,228.873 180.887,228.973 181.399 C 229.489 184.047,231.563 186.544,234.352 187.876 L 236.359 188.834 237.945 188.270 C 241.735 186.922,244.229 184.312,245.102 180.781 C 245.710 178.318,245.314 172.319,244.438 170.724 C 244.231 170.348,244.063 169.618,244.063 169.101 C 244.063 168.585,243.922 168.075,243.750 167.969 C 243.578 167.863,243.437 167.538,243.436 167.247 C 243.435 166.957,243.224 166.316,242.967 165.824 C 242.710 165.331,242.500 164.758,242.500 164.551 C 242.500 164.141,240.252 159.684,239.514 158.631 C 237.822 156.215,240.112 153.289,245.313 151.226 C 249.516 149.558,256.761 151.030,260.297 154.270 C 262.049 155.877,264.705 160.336,264.693 161.652 C 264.686 162.382,265.591 163.750,266.081 163.750 C 266.787 163.750,267.655 162.530,267.243 162.118 C 267.040 161.915,266.875 161.525,266.875 161.251 C 266.875 159.902,263.651 154.647,261.669 152.767 C 260.400 151.562,257.124 149.375,256.588 149.375 C 256.414 149.375,255.809 149.176,255.245 148.934 C 250.638 146.952,244.574 148.192,239.782 152.095 C 237.426 154.014,236.158 153.984,233.922 151.953 C 230.926 149.232,226.145 147.418,223.842 148.127 C 219.653 149.419,215.481 152.812,212.969 156.971 C 211.051 160.145,209.610 160.078,207.195 156.700 C 204.032 152.278,200.512 149.526,196.288 148.174 C 193.958 147.429,189.939 149.178,186.530 152.422 C 183.438 155.364,182.425 155.487,179.867 153.231 C 177.758 151.373,176.589 150.671,172.656 148.908 C 170.747 148.052,168.638 147.779,167.031 148.179 M239.263 163.125 C 239.808 164.414,240.407 165.813,240.595 166.234 C 240.783 166.655,240.938 167.213,240.938 167.474 C 240.938 167.734,241.131 168.515,241.368 169.208 C 243.614 175.784,242.782 183.421,239.644 185.022 C 231.441 189.207,228.627 178.136,234.276 163.906 C 235.636 160.480,235.551 160.583,236.972 160.686 L 238.274 160.781 239.263 163.125 M185.548 164.662 C 186.093 165.851,186.629 167.188,186.741 167.634 C 186.853 168.079,187.069 168.521,187.222 168.615 C 187.375 168.710,187.502 169.095,187.505 169.472 C 187.507 169.848,187.738 170.789,188.018 171.563 C 188.795 173.710,188.786 181.015,188.005 182.500 C 185.713 186.858,180.346 186.953,178.400 182.669 C 177.662 181.044,177.591 174.596,178.290 172.656 C 178.538 171.969,178.743 171.198,178.745 170.944 C 178.751 170.363,180.124 166.661,181.208 164.304 C 182.520 161.452,184.140 161.586,185.548 164.662 M212.503 170.469 C 213.106 171.672,213.924 173.430,214.320 174.375 C 214.716 175.320,215.149 176.305,215.282 176.563 C 215.415 176.820,215.773 177.875,216.078 178.906 C 216.382 179.938,216.850 181.484,217.118 182.344 C 218.083 185.436,217.793 193.843,216.650 195.938 C 213.915 200.949,206.615 201.165,204.318 196.303 C 203.374 194.307,203.286 184.899,204.179 181.406 C 205.167 177.539,205.699 175.788,205.978 175.484 C 206.127 175.321,206.250 174.913,206.250 174.577 C 206.250 174.241,206.609 173.180,207.048 172.218 C 207.487 171.256,208.085 169.938,208.376 169.289 C 209.339 167.145,211.087 167.645,212.503 170.469 " stroke="none" fill="#ffffff" fill-rule="evenodd"></path><path id="path1" d="" stroke="none" fill="#25358f" fill-rule="evenodd"></path><path id="path2" d="M197.031 14.879 C 115.011 22.994,56.934 98.586,70.170 180.000 C 82.158 253.737,149.845 305.972,224.247 298.903 C 306.601 291.078,364.984 215.429,351.705 133.750 C 339.686 59.822,271.607 7.501,197.031 14.879 M145.771 81.239 C 146.167 81.677,146.266 82.103,146.115 82.723 C 145.999 83.202,145.777 84.156,145.621 84.844 C 145.465 85.531,145.109 87.008,144.830 88.125 C 144.550 89.242,144.213 90.789,144.081 91.563 C 143.949 92.336,143.680 93.365,143.483 93.848 C 143.286 94.332,143.125 95.096,143.125 95.545 C 143.125 95.994,142.993 96.794,142.832 97.322 C 142.473 98.501,141.931 100.888,141.550 102.969 C 141.393 103.828,141.043 105.516,140.772 106.719 C 140.501 107.922,140.163 109.701,140.021 110.672 C 139.879 111.643,139.656 112.611,139.524 112.824 C 139.393 113.036,139.170 114.070,139.029 115.121 C 138.466 119.308,138.190 120.893,137.956 121.271 C 137.821 121.489,137.602 122.593,137.469 123.724 C 137.336 124.856,137.003 126.977,136.729 128.438 C 136.455 129.898,136.106 132.107,135.954 133.346 C 135.802 134.585,135.571 135.773,135.439 135.985 C 135.308 136.198,135.094 137.364,134.964 138.576 C 134.279 144.979,134.059 146.627,133.847 146.969 C 133.719 147.175,133.518 148.539,133.400 150.000 C 132.882 156.408,132.473 160.234,132.197 161.250 C 131.758 162.866,131.532 176.982,131.863 182.031 C 132.118 185.913,132.360 187.625,133.431 193.125 C 133.734 194.683,134.336 197.006,134.685 197.969 C 134.810 198.313,135.168 199.438,135.480 200.469 C 135.792 201.500,136.164 202.477,136.305 202.641 C 136.447 202.804,136.563 203.129,136.563 203.364 C 136.563 203.598,136.926 204.590,137.371 205.567 C 137.815 206.544,138.394 207.836,138.657 208.438 C 143.452 219.408,153.008 230.980,163.594 238.633 C 166.990 241.088,173.920 245.313,174.551 245.313 C 174.606 245.312,175.862 245.875,177.344 246.562 C 178.825 247.250,180.231 247.812,180.469 247.813 C 180.706 247.813,180.988 247.953,181.094 248.125 C 181.200 248.297,181.503 248.438,181.768 248.438 C 182.033 248.438,182.692 248.627,183.234 248.859 C 184.322 249.324,186.668 250.068,188.594 250.557 C 189.281 250.732,190.477 251.041,191.250 251.246 C 195.188 252.285,203.855 253.223,209.531 253.223 C 214.917 253.223,226.127 252.061,227.212 251.391 C 227.444 251.248,228.201 251.025,228.895 250.895 C 231.022 250.497,232.619 250.102,233.438 249.771 C 233.867 249.597,234.781 249.280,235.469 249.066 C 236.156 248.853,237.141 248.499,237.656 248.281 C 238.172 248.062,239.578 247.483,240.781 246.994 C 256.519 240.593,271.340 226.642,279.363 210.679 C 281.186 207.051,283.750 200.829,283.750 200.032 C 283.750 199.739,283.876 199.366,284.030 199.203 C 284.306 198.909,284.824 196.960,285.273 194.520 C 285.401 193.826,285.623 193.069,285.766 192.837 C 286.069 192.347,286.457 189.641,286.891 185.000 C 287.059 183.195,287.336 181.396,287.505 181.001 C 287.905 180.068,287.905 170.055,287.506 168.875 C 287.337 168.376,287.042 165.578,286.850 162.656 C 286.224 153.138,286.097 151.724,285.834 151.316 C 285.691 151.095,285.449 149.619,285.298 148.035 C 284.819 143.041,284.390 139.874,284.065 138.938 C 283.892 138.439,283.750 137.356,283.750 136.531 C 283.750 135.705,283.610 134.706,283.439 134.312 C 283.141 133.625,282.763 131.299,282.225 126.849 C 282.088 125.718,281.863 124.609,281.725 124.385 C 281.586 124.161,281.352 123.082,281.205 121.989 C 281.058 120.895,280.817 119.105,280.670 118.011 C 280.523 116.918,280.280 115.828,280.130 115.589 C 279.980 115.351,279.756 114.383,279.631 113.438 C 279.507 112.492,279.177 110.664,278.898 109.375 C 278.620 108.086,278.292 106.328,278.171 105.469 C 278.049 104.609,277.836 103.723,277.696 103.498 C 277.556 103.273,277.314 102.324,277.158 101.389 C 277.002 100.453,276.749 98.932,276.595 98.009 C 276.441 97.085,276.160 96.040,275.970 95.685 C 275.780 95.331,275.625 94.497,275.625 93.833 C 275.625 93.169,275.496 92.491,275.338 92.328 C 275.079 92.061,274.820 90.976,274.073 87.031 C 273.942 86.344,273.676 85.385,273.480 84.902 C 272.519 82.520,273.309 80.230,274.894 80.806 C 275.769 81.123,276.362 82.698,277.353 87.344 C 277.646 88.719,278.010 90.167,278.162 90.562 C 278.313 90.956,278.437 91.704,278.438 92.223 C 278.438 92.742,278.593 93.456,278.782 93.810 C 278.972 94.165,279.259 95.246,279.420 96.212 C 279.580 97.178,279.817 98.602,279.946 99.376 C 280.075 100.151,280.294 100.967,280.432 101.191 C 280.672 101.580,280.813 102.288,281.556 106.864 C 281.737 107.975,282.023 109.023,282.192 109.192 C 282.362 109.362,282.500 110.114,282.500 110.864 C 282.500 111.615,282.631 112.474,282.791 112.773 C 283.065 113.283,283.366 114.907,284.063 119.622 C 284.223 120.703,284.449 121.742,284.565 121.930 C 284.767 122.256,285.025 123.909,285.582 128.438 C 285.719 129.555,285.996 130.776,286.197 131.151 C 286.398 131.527,286.562 132.556,286.562 133.437 C 286.562 134.319,286.693 135.285,286.852 135.583 C 287.146 136.131,287.677 139.776,288.090 144.072 C 288.215 145.367,288.421 146.595,288.548 146.801 C 288.796 147.203,289.260 151.306,289.634 156.406 C 289.760 158.125,289.984 159.726,290.133 159.964 C 291.150 161.601,291.189 185.204,290.177 186.842 C 290.038 187.066,289.806 188.045,289.660 189.016 C 289.158 192.371,288.864 193.910,288.519 195.000 C 288.329 195.602,287.795 197.359,287.334 198.906 C 286.873 200.453,286.379 202.000,286.238 202.344 C 286.096 202.688,285.776 203.461,285.527 204.063 C 285.278 204.664,284.763 205.930,284.383 206.875 C 277.153 224.837,259.128 242.860,241.250 250.003 C 240.305 250.380,239.180 250.829,238.750 250.999 C 238.320 251.169,237.571 251.506,237.084 251.748 C 236.597 251.990,236.005 252.188,235.767 252.188 C 235.528 252.188,234.872 252.385,234.307 252.626 C 233.743 252.868,232.648 253.229,231.875 253.429 C 231.102 253.629,229.977 253.949,229.375 254.141 C 228.280 254.491,226.791 254.774,223.279 255.301 C 222.247 255.456,221.008 255.733,220.525 255.916 C 220.042 256.100,218.278 256.250,216.605 256.250 C 214.870 256.250,213.420 256.393,213.230 256.583 C 213.014 256.798,211.700 256.858,209.495 256.751 C 202.879 256.432,198.589 256.088,198.216 255.847 C 198.008 255.713,196.953 255.472,195.872 255.312 C 191.905 254.722,190.767 254.487,190.099 254.123 C 189.723 253.918,189.053 253.750,188.610 253.750 C 188.167 253.750,187.560 253.629,187.261 253.481 C 186.963 253.333,185.313 252.753,183.594 252.193 C 181.875 251.632,180.335 251.050,180.172 250.899 C 180.009 250.748,179.701 250.625,179.487 250.625 C 179.145 250.625,174.357 248.544,173.125 247.860 C 172.867 247.716,171.813 247.133,170.781 246.562 C 154.677 237.655,141.492 223.098,134.712 206.741 C 134.147 205.378,133.578 204.042,133.447 203.772 C 133.025 202.903,132.433 201.118,132.272 200.231 C 132.186 199.756,131.991 199.290,131.839 199.196 C 131.687 199.103,131.563 198.673,131.563 198.242 C 131.563 197.811,131.396 197.152,131.192 196.776 C 130.989 196.401,130.716 195.531,130.587 194.844 C 130.457 194.156,130.120 192.609,129.837 191.406 C 129.555 190.203,129.202 188.234,129.052 187.031 C 128.903 185.828,128.645 184.000,128.479 182.969 C 128.091 180.554,128.091 169.428,128.479 165.781 C 128.644 164.234,128.894 161.492,129.036 159.688 C 129.417 154.850,130.002 149.976,130.334 148.884 C 130.494 148.356,130.625 147.218,130.625 146.356 C 130.625 145.493,130.834 144.097,131.090 143.253 C 131.346 142.409,131.557 141.165,131.559 140.488 C 131.561 139.810,131.703 138.474,131.876 137.519 C 132.675 133.084,132.876 131.904,133.129 130.156 C 133.279 129.125,133.627 127.086,133.902 125.625 C 134.178 124.164,134.518 122.109,134.657 121.058 C 134.796 120.007,135.018 118.974,135.149 118.761 C 135.281 118.549,135.512 117.545,135.663 116.531 C 135.814 115.517,136.061 113.858,136.212 112.844 C 136.363 111.830,136.606 110.810,136.752 110.578 C 136.898 110.346,137.114 109.383,137.233 108.438 C 137.351 107.492,137.679 105.734,137.961 104.531 C 138.244 103.328,138.596 101.641,138.743 100.781 C 139.009 99.237,139.472 97.312,140.027 95.447 C 140.184 94.919,140.313 94.119,140.313 93.670 C 140.313 93.221,140.474 92.457,140.670 91.973 C 140.867 91.490,141.136 90.461,141.268 89.688 C 141.401 88.914,141.741 87.367,142.026 86.250 C 142.310 85.133,142.617 83.703,142.708 83.073 C 143.014 80.955,144.635 79.984,145.771 81.239 M212.105 108.172 C 222.042 110.574,225.480 121.811,218.286 128.377 C 210.991 135.036,200.736 131.420,198.456 121.386 C 197.358 116.553,203.151 108.474,207.743 108.433 C 208.039 108.430,208.492 108.292,208.750 108.125 C 209.372 107.723,210.301 107.736,212.105 108.172 M171.094 147.969 C 173.641 148.530,177.727 150.757,180.179 152.919 C 182.591 155.045,183.221 154.961,186.218 152.109 C 189.737 148.761,193.906 147.017,196.470 147.821 C 200.771 149.170,204.310 151.916,207.507 156.388 C 209.854 159.668,210.808 159.719,212.656 156.658 C 215.207 152.436,219.483 148.990,223.672 147.783 C 226.250 147.040,231.132 148.823,234.234 151.641 C 236.374 153.584,237.230 153.607,239.469 151.783 C 241.667 149.992,245.273 148.321,248.019 147.819 C 253.680 146.785,260.635 149.862,264.135 154.950 C 265.412 156.805,267.188 160.314,267.188 160.982 C 267.188 161.281,267.328 161.613,267.500 161.719 C 268.378 162.261,267.287 164.062,266.081 164.063 C 265.329 164.063,264.372 162.882,264.380 161.964 C 264.383 161.657,263.791 160.234,263.065 158.802 C 261.204 155.131,258.956 153.106,255.000 151.539 C 253.516 150.951,247.109 150.951,245.625 151.539 C 240.608 153.526,238.333 156.186,239.827 158.319 C 240.564 159.372,242.812 163.829,242.813 164.238 C 242.813 164.446,243.023 165.019,243.279 165.511 C 243.536 166.003,243.747 166.644,243.748 166.935 C 243.749 167.225,243.891 167.550,244.063 167.656 C 244.234 167.762,244.375 168.272,244.375 168.789 C 244.375 169.306,244.544 170.036,244.750 170.411 C 245.637 172.026,246.045 178.562,245.416 181.094 C 244.015 186.733,238.324 190.234,233.951 188.146 C 231.367 186.913,228.762 183.807,228.745 181.942 C 228.743 181.647,228.538 180.844,228.290 180.156 C 227.750 178.658,227.689 176.494,228.145 174.998 C 228.327 174.398,228.600 173.203,228.752 172.344 C 229.428 168.502,230.794 164.538,232.970 160.106 C 234.781 156.416,234.774 155.893,232.891 154.158 C 226.253 148.042,218.396 150.831,213.166 161.159 C 212.051 163.361,212.911 165.932,218.109 175.948 C 218.246 176.211,218.457 176.878,218.578 177.429 C 218.699 177.980,218.928 178.511,219.087 178.609 C 219.245 178.707,219.375 179.132,219.375 179.554 C 219.375 179.976,219.510 180.565,219.675 180.864 C 220.826 182.947,221.334 191.527,220.453 194.006 C 216.395 205.419,204.627 206.073,200.961 195.088 C 200.250 192.957,200.004 184.911,200.614 183.770 C 200.780 183.460,201.054 182.450,201.223 181.525 C 202.073 176.871,203.013 174.265,206.116 167.959 C 208.227 163.669,208.267 162.940,206.537 160.114 C 200.388 150.069,193.920 148.196,187.578 154.624 C 185.172 157.063,185.023 158.076,186.654 160.885 C 190.903 168.201,193.039 177.425,191.397 181.370 C 190.250 184.125,189.543 185.366,188.515 186.424 C 181.809 193.329,172.197 184.565,174.866 173.980 C 175.560 171.229,176.940 166.777,177.214 166.406 C 177.341 166.234,177.695 165.466,178.002 164.698 C 178.309 163.930,179.095 162.329,179.749 161.139 C 181.507 157.939,181.403 157.482,178.365 155.071 C 176.510 153.599,174.776 152.596,172.099 151.446 C 170.591 150.798,166.929 150.776,165.421 151.406 C 164.804 151.664,164.043 151.875,163.730 151.875 C 161.544 151.875,155.313 157.965,155.313 160.102 C 155.313 160.369,155.188 160.665,155.035 160.759 C 154.883 160.854,154.661 161.459,154.541 162.106 C 154.320 163.306,153.308 164.688,152.650 164.688 C 151.255 164.688,150.930 162.426,152.013 160.255 C 152.281 159.718,152.500 159.153,152.500 158.999 C 152.500 156.503,159.726 149.879,163.750 148.687 C 167.750 147.502,168.599 147.419,171.094 147.969 M235.534 161.935 C 229.814 175.088,230.320 185.313,236.690 185.313 C 241.941 185.313,243.958 178.017,241.056 169.521 C 240.819 168.828,240.625 168.047,240.625 167.786 C 240.625 167.525,240.471 166.968,240.283 166.547 C 240.094 166.126,239.495 164.727,238.951 163.438 C 237.742 160.573,236.386 159.977,235.534 161.935 M181.521 164.617 C 180.437 166.973,179.064 170.675,179.058 171.257 C 179.055 171.511,178.850 172.281,178.603 172.969 C 177.911 174.888,177.980 180.743,178.712 182.357 C 180.627 186.572,185.444 186.481,187.689 182.188 C 188.460 180.713,188.469 174.006,187.702 171.875 C 187.424 171.102,187.195 170.161,187.192 169.784 C 187.190 169.407,187.062 169.022,186.910 168.928 C 186.757 168.833,186.540 168.392,186.429 167.946 C 185.157 162.879,182.995 161.413,181.521 164.617 M208.689 169.601 C 208.398 170.250,207.800 171.568,207.361 172.530 C 206.922 173.492,206.563 174.554,206.563 174.890 C 206.563 175.225,206.440 175.634,206.290 175.797 C 206.010 176.102,205.470 177.882,204.493 181.719 C 203.609 185.191,203.695 194.003,204.632 195.991 C 206.890 200.782,213.644 200.571,216.334 195.625 C 217.470 193.536,217.752 185.709,216.802 182.650 C 216.536 181.794,216.070 180.250,215.765 179.219 C 215.461 178.188,215.103 177.133,214.970 176.875 C 214.837 176.617,214.404 175.633,214.008 174.688 C 211.357 168.364,209.879 166.951,208.689 169.601 " stroke="none" fill="#0326b9" fill-rule="evenodd"></path><path id="path3" d="M143.480 81.276 C 143.146 81.635,142.799 82.443,142.708 83.073 C 142.617 83.703,142.310 85.133,142.026 86.250 C 141.741 87.367,141.401 88.914,141.268 89.688 C 141.136 90.461,140.867 91.490,140.670 91.973 C 140.474 92.457,140.313 93.221,140.313 93.670 C 140.313 94.119,140.184 94.919,140.027 95.447 C 139.472 97.312,139.009 99.237,138.743 100.781 C 138.596 101.641,138.244 103.328,137.961 104.531 C 137.679 105.734,137.351 107.492,137.233 108.438 C 137.114 109.383,136.898 110.346,136.752 110.578 C 136.606 110.810,136.363 111.830,136.212 112.844 C 136.061 113.858,135.814 115.517,135.663 116.531 C 135.512 117.545,135.281 118.549,135.149 118.761 C 135.018 118.974,134.796 120.007,134.657 121.058 C 134.518 122.109,134.178 124.164,133.902 125.625 C 133.627 127.086,133.279 129.125,133.129 130.156 C 132.876 131.904,132.675 133.084,131.876 137.519 C 131.703 138.474,131.561 139.810,131.559 140.488 C 131.557 141.165,131.346 142.409,131.090 143.253 C 130.834 144.097,130.625 145.493,130.625 146.356 C 130.625 147.218,130.494 148.356,130.334 148.884 C 130.002 149.976,129.417 154.850,129.036 159.688 C 128.894 161.492,128.644 164.234,128.479 165.781 C 128.091 169.428,128.091 180.554,128.479 182.969 C 128.645 184.000,128.903 185.828,129.052 187.031 C 129.202 188.234,129.555 190.203,129.837 191.406 C 130.120 192.609,130.457 194.156,130.587 194.844 C 130.716 195.531,130.989 196.401,131.192 196.776 C 131.396 197.152,131.563 197.811,131.563 198.242 C 131.563 198.673,131.687 199.103,131.839 199.196 C 131.991 199.290,132.186 199.756,132.272 200.231 C 132.433 201.118,133.025 202.903,133.447 203.772 C 133.578 204.042,134.147 205.378,134.712 206.741 C 141.492 223.098,154.677 237.655,170.781 246.562 C 171.813 247.133,172.867 247.716,173.125 247.860 C 174.357 248.544,179.145 250.625,179.487 250.625 C 179.701 250.625,180.009 250.748,180.172 250.899 C 180.335 251.050,181.875 251.632,183.594 252.193 C 185.313 252.753,186.963 253.333,187.261 253.481 C 187.560 253.629,188.167 253.750,188.610 253.750 C 189.053 253.750,189.723 253.918,190.099 254.123 C 190.767 254.487,191.905 254.722,195.872 255.312 C 196.953 255.472,198.008 255.713,198.216 255.847 C 198.589 256.088,202.879 256.432,209.495 256.751 C 211.700 256.858,213.014 256.798,213.230 256.583 C 213.420 256.393,214.870 256.250,216.605 256.250 C 218.278 256.250,220.042 256.100,220.525 255.916 C 221.008 255.733,222.247 255.456,223.279 255.301 C 226.791 254.774,228.280 254.491,229.375 254.141 C 229.977 253.949,231.102 253.629,231.875 253.429 C 232.648 253.229,233.743 252.868,234.307 252.626 C 234.872 252.385,235.528 252.188,235.767 252.188 C 236.005 252.188,236.597 251.990,237.084 251.748 C 237.571 251.506,238.320 251.169,238.750 250.999 C 239.180 250.829,240.305 250.380,241.250 250.003 C 259.128 242.860,277.153 224.837,284.383 206.875 C 284.763 205.930,285.278 204.664,285.527 204.063 C 285.776 203.461,286.096 202.688,286.238 202.344 C 286.379 202.000,286.873 200.453,287.334 198.906 C 287.795 197.359,288.329 195.602,288.519 195.000 C 288.864 193.910,289.158 192.371,289.660 189.016 C 289.806 188.045,290.038 187.066,290.177 186.842 C 291.189 185.204,291.150 161.601,290.133 159.964 C 289.984 159.726,289.760 158.125,289.634 156.406 C 289.260 151.306,288.796 147.203,288.548 146.801 C 288.421 146.595,288.215 145.367,288.090 144.072 C 287.677 139.776,287.146 136.131,286.852 135.583 C 286.693 135.285,286.562 134.319,286.562 133.437 C 286.562 132.556,286.398 131.527,286.197 131.151 C 285.996 130.776,285.719 129.555,285.582 128.438 C 285.025 123.909,284.767 122.256,284.565 121.930 C 284.449 121.742,284.223 120.703,284.063 119.622 C 283.366 114.907,283.065 113.283,282.791 112.773 C 282.631 112.474,282.500 111.615,282.500 110.864 C 282.500 110.114,282.362 109.362,282.192 109.192 C 282.023 109.023,281.737 107.975,281.556 106.864 C 280.813 102.288,280.672 101.580,280.432 101.191 C 280.294 100.967,280.075 100.151,279.946 99.376 C 279.817 98.602,279.580 97.178,279.420 96.212 C 279.259 95.246,278.972 94.165,278.782 93.810 C 278.593 93.456,278.438 92.742,278.438 92.223 C 278.437 91.704,278.313 90.956,278.162 90.562 C 278.010 90.167,277.646 88.719,277.353 87.344 C 276.362 82.698,275.769 81.123,274.894 80.806 C 273.309 80.230,272.519 82.520,273.480 84.902 C 273.676 85.385,273.942 86.344,274.073 87.031 C 274.820 90.976,275.079 92.061,275.338 92.328 C 275.496 92.491,275.625 93.169,275.625 93.833 C 275.625 94.497,275.780 95.331,275.970 95.685 C 276.160 96.040,276.441 97.085,276.595 98.009 C 276.749 98.932,277.002 100.453,277.158 101.389 C 277.314 102.324,277.556 103.273,277.696 103.498 C 277.836 103.723,278.049 104.609,278.171 105.469 C 278.292 106.328,278.620 108.086,278.898 109.375 C 279.177 110.664,279.507 112.492,279.631 113.438 C 279.756 114.383,279.980 115.351,280.130 115.589 C 280.280 115.828,280.523 116.918,280.670 118.011 C 280.817 119.105,281.058 120.895,281.205 121.989 C 281.352 123.082,281.586 124.161,281.725 124.385 C 281.863 124.609,282.088 125.718,282.225 126.849 C 282.763 131.299,283.141 133.625,283.439 134.312 C 283.610 134.706,283.750 135.705,283.750 136.531 C 283.750 137.356,283.892 138.439,284.065 138.938 C 284.390 139.874,284.819 143.041,285.298 148.035 C 285.449 149.619,285.691 151.095,285.834 151.316 C 286.097 151.724,286.224 153.138,286.850 162.656 C 287.042 165.578,287.337 168.376,287.506 168.875 C 287.905 170.055,287.905 180.068,287.505 181.001 C 287.336 181.396,287.059 183.195,286.891 185.000 C 286.457 189.641,286.069 192.347,285.766 192.837 C 285.623 193.069,285.401 193.826,285.273 194.520 C 284.824 196.960,284.306 198.909,284.030 199.203 C 283.876 199.366,283.750 199.739,283.750 200.032 C 283.750 200.829,281.186 207.051,279.363 210.679 C 271.340 226.642,256.519 240.593,240.781 246.994 C 239.578 247.483,238.172 248.062,237.656 248.281 C 237.141 248.499,236.156 248.853,235.469 249.066 C 234.781 249.280,233.867 249.597,233.438 249.771 C 232.619 250.102,231.022 250.497,228.895 250.895 C 228.201 251.025,227.444 251.248,227.212 251.391 C 226.127 252.061,214.917 253.223,209.531 253.223 C 203.855 253.223,195.188 252.285,191.250 251.246 C 190.477 251.041,189.281 250.732,188.594 250.557 C 186.668 250.068,184.322 249.324,183.234 248.859 C 182.692 248.627,182.033 248.438,181.768 248.438 C 181.503 248.438,181.200 248.297,181.094 248.125 C 180.988 247.953,180.706 247.813,180.469 247.813 C 180.231 247.812,178.825 247.250,177.344 246.562 C 175.862 245.875,174.606 245.312,174.551 245.313 C 173.920 245.313,166.990 241.088,163.594 238.633 C 153.008 230.980,143.452 219.408,138.657 208.438 C 138.394 207.836,137.815 206.544,137.371 205.567 C 136.926 204.590,136.563 203.598,136.563 203.364 C 136.563 203.129,136.447 202.804,136.305 202.641 C 136.164 202.477,135.792 201.500,135.480 200.469 C 135.168 199.438,134.810 198.313,134.685 197.969 C 134.336 197.006,133.734 194.683,133.431 193.125 C 132.360 187.625,132.118 185.913,131.863 182.031 C 131.532 176.982,131.758 162.866,132.197 161.250 C 132.473 160.234,132.882 156.408,133.400 150.000 C 133.518 148.539,133.719 147.175,133.847 146.969 C 134.059 146.627,134.279 144.979,134.964 138.576 C 135.094 137.364,135.308 136.198,135.439 135.985 C 135.571 135.773,135.802 134.585,135.954 133.346 C 136.106 132.107,136.455 129.898,136.729 128.438 C 137.003 126.977,137.336 124.856,137.469 123.724 C 137.602 122.593,137.821 121.489,137.956 121.271 C 138.190 120.893,138.466 119.308,139.029 115.121 C 139.170 114.070,139.393 113.036,139.524 112.824 C 139.656 112.611,139.879 111.643,140.021 110.672 C 140.163 109.701,140.501 107.922,140.772 106.719 C 141.043 105.516,141.393 103.828,141.550 102.969 C 141.931 100.888,142.473 98.501,142.832 97.322 C 142.993 96.794,143.125 95.994,143.125 95.545 C 143.125 95.096,143.286 94.332,143.483 93.848 C 143.680 93.365,143.949 92.336,144.081 91.563 C 144.213 90.789,144.550 89.242,144.830 88.125 C 145.109 87.008,145.465 85.531,145.621 84.844 C 145.777 84.156,145.999 83.202,146.115 82.723 C 146.533 81.006,144.680 79.988,143.480 81.276 M145.458 81.551 C 145.819 81.950,145.931 82.359,145.777 82.723 C 145.647 83.030,145.425 83.844,145.283 84.531 C 145.141 85.219,144.797 86.695,144.517 87.813 C 144.238 88.930,143.901 90.477,143.768 91.250 C 143.636 92.023,143.367 93.052,143.170 93.536 C 142.974 94.020,142.813 94.783,142.813 95.233 C 142.813 95.682,142.681 96.481,142.520 97.009 C 142.160 98.189,141.618 100.575,141.238 102.656 C 141.081 103.516,140.730 105.203,140.459 106.406 C 140.188 107.609,139.851 109.388,139.709 110.359 C 139.567 111.330,139.343 112.299,139.212 112.511 C 139.080 112.724,138.857 113.757,138.716 114.808 C 138.154 118.995,137.877 120.580,137.643 120.959 C 137.509 121.176,137.290 122.280,137.156 123.412 C 137.023 124.543,136.690 126.664,136.416 128.125 C 136.142 129.586,135.794 131.795,135.642 133.034 C 135.490 134.273,135.258 135.460,135.127 135.673 C 134.995 135.885,134.782 137.051,134.652 138.264 C 133.966 144.666,133.747 146.315,133.535 146.656 C 133.407 146.862,133.206 148.227,133.087 149.688 C 132.549 156.349,132.168 159.916,131.904 160.781 C 131.471 162.198,131.221 177.369,131.550 182.344 C 131.806 186.225,132.048 187.939,133.118 193.438 C 133.421 194.996,134.023 197.319,134.373 198.281 C 134.498 198.625,134.855 199.750,135.168 200.781 C 135.480 201.813,135.851 202.790,135.993 202.953 C 136.134 203.116,136.250 203.442,136.250 203.676 C 136.250 203.911,136.614 204.902,137.058 205.879 C 137.503 206.857,138.082 208.148,138.345 208.750 C 143.139 219.720,152.696 231.292,163.281 238.945 C 166.677 241.400,173.607 245.625,174.238 245.625 C 174.293 245.625,175.550 246.188,177.031 246.875 C 178.513 247.562,179.919 248.125,180.156 248.125 C 180.394 248.125,180.675 248.266,180.781 248.438 C 180.887 248.609,181.191 248.750,181.456 248.750 C 181.720 248.750,182.380 248.940,182.922 249.171 C 184.010 249.637,186.356 250.380,188.281 250.869 C 188.969 251.044,190.164 251.354,190.938 251.558 C 194.977 252.625,203.545 253.536,209.531 253.536 C 215.204 253.536,226.405 252.395,227.524 251.704 C 227.756 251.560,228.514 251.337,229.207 251.207 C 231.335 250.810,232.932 250.415,233.750 250.084 C 234.180 249.910,235.094 249.593,235.781 249.379 C 236.469 249.165,237.453 248.812,237.969 248.593 C 238.484 248.375,239.891 247.796,241.094 247.306 C 256.831 240.905,271.653 226.955,279.675 210.992 C 281.499 207.364,284.063 201.141,284.063 200.344 C 284.063 200.052,284.188 199.679,284.342 199.516 C 284.619 199.222,285.137 197.272,285.586 194.832 C 285.714 194.139,285.935 193.381,286.079 193.149 C 286.381 192.659,286.770 189.954,287.203 185.313 C 287.372 183.508,287.648 181.708,287.817 181.313 C 288.217 180.381,288.218 169.743,287.818 168.562 C 287.650 168.064,287.355 165.266,287.162 162.344 C 286.537 152.826,286.410 151.412,286.146 151.004 C 286.003 150.783,285.762 149.306,285.610 147.723 C 285.131 142.729,284.702 139.562,284.377 138.625 C 284.204 138.127,284.063 137.044,284.063 136.218 C 284.062 135.392,283.922 134.394,283.751 133.999 C 283.454 133.312,283.075 130.986,282.538 126.537 C 282.401 125.405,282.176 124.296,282.037 124.072 C 281.899 123.848,281.665 122.770,281.518 121.676 C 281.370 120.582,281.130 118.793,280.982 117.699 C 280.835 116.605,280.592 115.515,280.443 115.277 C 280.293 115.039,280.069 114.070,279.944 113.125 C 279.819 112.180,279.489 110.352,279.211 109.063 C 278.932 107.773,278.605 106.016,278.483 105.156 C 278.362 104.297,278.148 103.410,278.008 103.185 C 277.868 102.961,277.626 102.012,277.471 101.076 C 277.315 100.140,277.061 98.620,276.907 97.696 C 276.753 96.773,276.472 95.727,276.282 95.373 C 276.093 95.019,275.937 94.185,275.938 93.521 C 275.938 92.856,275.808 92.179,275.650 92.016 C 275.392 91.749,275.133 90.664,274.385 86.719 C 274.255 86.031,273.988 85.073,273.793 84.589 C 272.972 82.556,273.640 80.514,274.902 81.204 C 275.499 81.531,276.137 83.456,277.037 87.656 C 277.332 89.031,277.698 90.479,277.849 90.874 C 278.001 91.269,278.125 92.016,278.125 92.535 C 278.125 93.054,278.280 93.769,278.470 94.123 C 278.660 94.477,278.946 95.558,279.107 96.524 C 279.268 97.491,279.505 98.915,279.634 99.689 C 279.763 100.463,279.981 101.280,280.120 101.503 C 280.360 101.892,280.500 102.600,281.244 107.177 C 281.424 108.288,281.711 109.336,281.880 109.505 C 282.049 109.674,282.188 110.426,282.187 111.177 C 282.187 111.927,282.319 112.786,282.479 113.086 C 282.752 113.596,283.053 115.219,283.751 119.935 C 283.911 121.016,284.137 122.055,284.253 122.243 C 284.454 122.569,284.712 124.221,285.269 128.750 C 285.407 129.867,285.683 131.088,285.885 131.464 C 286.086 131.839,286.250 132.868,286.250 133.750 C 286.250 134.632,286.380 135.597,286.540 135.895 C 286.834 136.444,287.365 140.089,287.778 144.385 C 287.902 145.679,288.108 146.908,288.236 147.114 C 288.484 147.515,288.948 151.619,289.322 156.719 C 289.448 158.438,289.672 160.039,289.820 160.277 C 290.829 161.899,290.868 184.906,289.864 186.529 C 289.726 186.754,289.493 187.732,289.348 188.703 C 288.845 192.059,288.552 193.598,288.207 194.688 C 288.016 195.289,287.483 197.047,287.021 198.594 C 286.560 200.141,286.067 201.688,285.925 202.031 C 285.783 202.375,285.464 203.148,285.215 203.750 C 284.966 204.352,284.451 205.617,284.070 206.563 C 276.841 224.524,258.815 242.548,240.938 249.690 C 239.992 250.068,238.867 250.516,238.438 250.686 C 238.008 250.856,237.258 251.193,236.772 251.435 C 236.285 251.677,235.692 251.875,235.454 251.875 C 235.216 251.875,234.559 252.072,233.995 252.314 C 233.431 252.555,232.336 252.916,231.563 253.116 C 230.789 253.316,229.664 253.637,229.063 253.829 C 227.967 254.178,226.478 254.462,222.967 254.988 C 221.935 255.143,220.695 255.420,220.212 255.604 C 219.729 255.787,217.965 255.938,216.292 255.938 C 214.549 255.938,213.107 256.080,212.916 256.272 C 212.700 256.487,211.488 256.547,209.494 256.439 C 202.420 256.056,198.884 255.764,198.528 255.535 C 198.321 255.401,197.266 255.160,196.185 254.999 C 192.218 254.409,191.079 254.175,190.411 253.810 C 190.036 253.605,189.366 253.437,188.923 253.438 C 188.479 253.438,187.872 253.316,187.574 253.168 C 187.275 253.020,185.625 252.441,183.906 251.880 C 182.188 251.319,180.648 250.737,180.484 250.587 C 180.321 250.436,180.013 250.313,179.800 250.313 C 179.457 250.313,174.669 248.231,173.438 247.547 C 173.180 247.404,172.125 246.820,171.094 246.250 C 154.990 237.343,141.804 222.786,135.025 206.428 C 134.460 205.065,133.890 203.729,133.759 203.459 C 133.338 202.590,132.745 200.805,132.584 199.918 C 132.498 199.443,132.304 198.978,132.151 198.884 C 131.999 198.790,131.875 198.361,131.875 197.930 C 131.875 197.499,131.708 196.839,131.505 196.464 C 131.301 196.088,131.029 195.219,130.899 194.531 C 130.770 193.844,130.432 192.297,130.150 191.094 C 129.867 189.891,129.514 187.922,129.365 186.719 C 129.216 185.516,128.958 183.688,128.792 182.656 C 128.404 180.243,128.403 169.739,128.791 166.094 C 128.956 164.547,129.207 161.805,129.349 160.000 C 129.729 155.162,130.315 150.289,130.646 149.197 C 130.806 148.669,130.938 147.531,130.938 146.668 C 130.938 145.805,131.147 144.409,131.403 143.565 C 131.659 142.722,131.870 141.477,131.872 140.800 C 131.873 140.123,132.016 138.787,132.188 137.831 C 132.987 133.397,133.188 132.217,133.442 130.469 C 133.591 129.438,133.939 127.398,134.215 125.938 C 134.491 124.477,134.830 122.422,134.970 121.371 C 135.109 120.320,135.330 119.286,135.462 119.074 C 135.593 118.861,135.824 117.858,135.975 116.844 C 136.126 115.830,136.374 114.170,136.525 113.156 C 136.676 112.142,136.919 111.123,137.064 110.891 C 137.210 110.659,137.426 109.695,137.545 108.750 C 137.664 107.805,137.992 106.047,138.274 104.844 C 138.556 103.641,138.908 101.953,139.056 101.094 C 139.322 99.550,139.785 97.624,140.340 95.759 C 140.497 95.231,140.625 94.432,140.625 93.983 C 140.625 93.533,140.786 92.770,140.983 92.286 C 141.180 91.802,141.449 90.773,141.581 90.000 C 141.713 89.227,142.054 87.680,142.338 86.563 C 142.622 85.445,142.929 84.016,143.020 83.386 C 143.308 81.394,144.502 80.495,145.458 81.551 M208.750 108.125 C 208.492 108.292,208.039 108.430,207.743 108.433 C 203.151 108.474,197.358 116.553,198.456 121.386 C 200.328 129.623,208.160 134.028,214.980 130.678 C 221.318 127.565,223.909 120.769,220.950 115.014 C 218.675 110.588,211.344 106.449,208.750 108.125 M211.792 108.485 C 218.309 110.060,222.971 116.475,221.635 122.031 C 220.274 127.696,213.962 132.278,208.750 131.386 C 203.032 130.407,197.647 123.390,198.813 118.438 C 199.888 113.873,204.750 108.775,208.055 108.745 C 208.352 108.743,208.805 108.604,209.063 108.438 C 209.669 108.045,209.998 108.051,211.792 108.485 M166.719 147.865 C 161.872 149.075,159.083 150.592,156.353 153.501 C 154.786 155.171,152.500 158.433,152.500 158.999 C 152.500 159.153,152.281 159.718,152.013 160.255 C 150.930 162.426,151.255 164.688,152.650 164.688 C 153.308 164.688,154.320 163.306,154.541 162.106 C 154.661 161.459,154.883 160.854,155.035 160.759 C 155.188 160.665,155.313 160.369,155.313 160.102 C 155.313 157.965,161.544 151.875,163.730 151.875 C 164.043 151.875,164.804 151.664,165.421 151.406 C 166.929 150.776,170.591 150.798,172.099 151.446 C 174.776 152.596,176.510 153.599,178.365 155.071 C 181.403 157.482,181.507 157.939,179.749 161.139 C 179.095 162.329,178.309 163.930,178.002 164.698 C 177.695 165.466,177.341 166.234,177.214 166.406 C 176.940 166.777,175.560 171.229,174.866 173.980 C 172.197 184.565,181.809 193.329,188.515 186.424 C 189.543 185.366,190.250 184.125,191.397 181.370 C 192.021 179.871,191.930 174.317,191.243 171.875 C 190.185 168.118,188.472 164.015,186.654 160.885 C 185.023 158.076,185.172 157.063,187.578 154.624 C 193.920 148.196,200.388 150.069,206.537 160.114 C 208.267 162.940,208.227 163.669,206.116 167.959 C 203.013 174.265,202.073 176.871,201.223 181.525 C 201.054 182.450,200.780 183.460,200.614 183.770 C 200.004 184.911,200.250 192.957,200.961 195.088 C 204.627 206.073,216.395 205.419,220.453 194.006 C 221.334 191.527,220.826 182.947,219.675 180.864 C 219.510 180.565,219.375 179.976,219.375 179.554 C 219.375 179.132,219.245 178.707,219.087 178.609 C 218.928 178.511,218.699 177.980,218.578 177.429 C 218.457 176.878,218.246 176.211,218.109 175.948 C 212.911 165.932,212.051 163.361,213.166 161.159 C 218.396 150.831,226.253 148.042,232.891 154.158 C 234.774 155.893,234.781 156.416,232.970 160.106 C 230.794 164.538,229.428 168.502,228.752 172.344 C 228.600 173.203,228.327 174.398,228.145 174.998 C 227.689 176.494,227.750 178.658,228.290 180.156 C 228.538 180.844,228.743 181.647,228.745 181.942 C 228.779 185.724,234.929 189.891,238.438 188.508 C 242.307 186.983,244.543 184.607,245.416 181.094 C 246.045 178.562,245.637 172.026,244.750 170.411 C 244.544 170.036,244.375 169.306,244.375 168.789 C 244.375 168.272,244.234 167.762,244.063 167.656 C 243.891 167.550,243.749 167.225,243.748 166.935 C 243.747 166.644,243.536 166.003,243.279 165.511 C 243.023 165.019,242.813 164.446,242.813 164.238 C 242.812 163.829,240.564 159.372,239.827 158.319 C 238.333 156.186,240.608 153.526,245.625 151.539 C 249.704 149.924,256.464 151.357,259.984 154.583 C 261.737 156.189,264.392 160.648,264.380 161.964 C 264.372 162.882,265.329 164.063,266.081 164.063 C 267.287 164.062,268.378 162.261,267.500 161.719 C 267.328 161.613,267.188 161.281,267.188 160.982 C 267.188 160.683,266.713 159.512,266.133 158.379 C 262.763 151.800,258.636 148.769,251.457 147.605 C 248.468 147.120,242.745 149.115,239.469 151.783 C 237.230 153.607,236.374 153.584,234.234 151.641 C 231.132 148.823,226.250 147.040,223.672 147.783 C 219.483 148.990,215.207 152.436,212.656 156.658 C 210.808 159.719,209.854 159.668,207.507 156.388 C 204.310 151.916,200.771 149.170,196.470 147.821 C 193.906 147.017,189.737 148.761,186.218 152.109 C 183.221 154.961,182.591 155.045,180.179 152.919 C 178.071 151.060,176.901 150.359,172.969 148.596 C 171.002 147.714,168.497 147.422,166.719 147.865 M170.781 148.288 C 173.296 148.825,177.406 151.062,179.867 153.231 C 182.425 155.487,183.438 155.364,186.530 152.422 C 189.939 149.178,193.958 147.429,196.288 148.174 C 200.512 149.526,204.032 152.278,207.195 156.700 C 209.610 160.078,211.051 160.145,212.969 156.971 C 215.481 152.812,219.653 149.419,223.842 148.127 C 226.145 147.418,230.926 149.232,233.922 151.953 C 236.158 153.984,237.426 154.014,239.782 152.095 C 244.574 148.192,250.638 146.952,255.245 148.934 C 255.809 149.176,256.414 149.375,256.588 149.375 C 257.124 149.375,260.400 151.562,261.669 152.767 C 263.651 154.647,266.875 159.902,266.875 161.251 C 266.875 161.525,267.040 161.915,267.243 162.118 C 267.655 162.530,266.787 163.750,266.081 163.750 C 265.591 163.750,264.686 162.382,264.693 161.652 C 264.696 161.345,264.104 159.922,263.378 158.489 C 261.517 154.818,259.273 152.797,255.313 151.226 C 253.815 150.631,246.810 150.631,245.313 151.226 C 240.112 153.289,237.822 156.215,239.514 158.631 C 240.252 159.684,242.500 164.141,242.500 164.551 C 242.500 164.758,242.710 165.331,242.967 165.824 C 243.224 166.316,243.435 166.957,243.436 167.247 C 243.437 167.538,243.578 167.863,243.750 167.969 C 243.922 168.075,244.063 168.585,244.063 169.101 C 244.063 169.618,244.231 170.348,244.438 170.724 C 245.314 172.319,245.710 178.318,245.102 180.781 C 244.229 184.312,241.735 186.922,237.945 188.270 L 236.359 188.834 234.352 187.876 C 231.563 186.544,229.489 184.047,228.973 181.399 C 228.873 180.887,228.615 179.789,228.399 178.957 C 228.083 177.736,228.085 177.106,228.412 175.676 C 228.635 174.703,228.934 173.273,229.076 172.500 C 229.773 168.727,231.160 164.740,233.282 160.418 C 235.179 156.553,235.169 155.656,233.203 153.845 C 226.413 147.589,218.123 150.441,212.854 160.847 C 211.600 163.322,212.440 165.940,217.797 176.260 C 217.934 176.524,218.145 177.190,218.266 177.741 C 218.387 178.292,218.615 178.823,218.774 178.921 C 218.933 179.019,219.063 179.445,219.063 179.866 C 219.063 180.288,219.197 180.878,219.362 181.176 C 220.507 183.247,221.005 191.260,220.141 193.691 C 216.118 205.005,204.903 205.650,201.273 194.775 C 200.563 192.648,200.322 185.212,200.927 184.082 C 201.093 183.772,201.367 182.762,201.536 181.837 C 202.386 177.183,203.326 174.578,206.429 168.272 C 208.616 163.827,208.669 162.774,206.849 159.802 C 200.658 149.687,193.741 147.747,187.266 154.312 C 184.812 156.800,184.619 158.232,186.341 161.197 C 190.541 168.429,192.657 177.281,191.086 181.053 C 188.415 187.469,184.798 189.925,180.916 187.958 C 175.951 185.442,173.712 180.109,175.179 174.292 C 175.873 171.541,177.252 167.090,177.526 166.719 C 177.653 166.547,178.008 165.778,178.314 165.010 C 178.621 164.243,179.407 162.641,180.061 161.451 C 182.409 157.180,180.504 154.611,172.411 151.133 C 170.874 150.472,166.649 150.450,165.108 151.094 C 164.491 151.352,163.730 151.563,163.417 151.563 C 161.232 151.563,155.000 157.653,155.000 159.789 C 155.000 160.057,154.872 160.355,154.715 160.452 C 154.558 160.549,154.337 161.175,154.224 161.843 C 153.923 163.627,152.807 164.608,152.042 163.761 C 151.464 163.123,151.815 160.579,152.543 160.130 C 152.691 160.038,152.813 159.754,152.813 159.498 C 152.813 156.828,159.870 150.241,164.063 148.999 C 168.061 147.815,168.401 147.779,170.781 148.288 " stroke="none" fill="#556bce" fill-rule="evenodd"></path><path id="path4" d="M235.213 161.641 C 229.313 175.231,229.953 185.625,236.690 185.625 C 242.292 185.625,244.422 178.149,241.368 169.208 C 241.131 168.515,240.938 167.734,240.938 167.474 C 240.938 167.213,240.783 166.655,240.595 166.234 C 240.407 165.813,239.807 164.416,239.263 163.128 C 238.556 161.457,238.095 160.762,237.652 160.695 C 237.107 160.613,237.095 160.642,237.549 160.925 C 237.833 161.103,238.506 162.338,239.043 163.671 C 239.581 165.003,240.157 166.338,240.323 166.636 C 240.489 166.935,240.625 167.422,240.625 167.720 C 240.625 168.017,240.819 168.828,241.056 169.521 C 243.265 175.988,242.456 183.116,239.332 184.710 C 233.730 187.568,230.098 181.574,232.055 172.701 C 233.163 167.676,235.510 161.163,236.331 160.831 C 236.565 160.736,236.508 160.665,236.187 160.650 C 235.872 160.635,235.474 161.040,235.213 161.641 M181.208 164.304 C 180.124 166.661,178.751 170.363,178.745 170.944 C 178.743 171.198,178.538 171.969,178.290 172.656 C 177.591 174.596,177.662 181.044,178.400 182.669 C 180.346 186.953,185.713 186.858,188.005 182.500 C 188.786 181.015,188.795 173.710,188.018 171.563 C 187.738 170.789,187.507 169.848,187.505 169.472 C 187.502 169.095,187.375 168.710,187.222 168.615 C 187.069 168.521,186.853 168.079,186.741 167.634 C 186.199 165.475,184.553 162.500,183.920 162.536 C 183.485 162.561,183.437 162.615,183.769 162.704 C 184.246 162.833,186.025 166.340,186.429 167.946 C 186.540 168.392,186.757 168.833,186.910 168.928 C 187.062 169.022,187.190 169.407,187.192 169.784 C 187.195 170.161,187.424 171.102,187.702 171.875 C 188.469 174.006,188.460 180.713,187.689 182.188 C 185.444 186.481,180.627 186.572,178.712 182.357 C 177.980 180.743,177.911 174.888,178.603 172.969 C 178.850 172.281,179.055 171.511,179.058 171.257 C 179.069 170.132,181.985 163.225,182.653 162.739 C 182.840 162.603,182.777 162.511,182.500 162.512 C 182.235 162.514,181.673 163.293,181.208 164.304 M208.376 169.300 C 208.085 169.943,207.487 171.256,207.048 172.218 C 206.609 173.180,206.250 174.241,206.250 174.577 C 206.250 174.913,206.127 175.321,205.978 175.484 C 205.699 175.788,205.167 177.539,204.179 181.406 C 203.286 184.899,203.374 194.307,204.318 196.303 C 207.246 202.500,217.707 199.746,217.445 192.847 L 217.391 191.406 217.272 192.724 C 216.649 199.613,207.458 201.988,204.632 195.991 C 203.695 194.003,203.609 185.191,204.493 181.719 C 205.470 177.882,206.010 176.102,206.290 175.797 C 206.440 175.634,206.563 175.221,206.563 174.880 C 206.563 174.539,206.844 173.653,207.188 172.911 C 207.531 172.169,208.119 170.895,208.494 170.078 C 208.869 169.262,209.326 168.490,209.510 168.364 C 209.720 168.220,209.670 168.134,209.375 168.133 C 209.117 168.133,208.668 168.658,208.376 169.300 M210.540 168.428 C 211.150 168.688,212.728 171.608,214.430 175.625 C 214.612 176.055,214.862 176.617,214.986 176.875 C 215.110 177.133,215.460 178.188,215.763 179.219 C 216.067 180.250,216.459 181.516,216.636 182.031 C 216.812 182.547,217.141 184.867,217.366 187.188 L 217.775 191.406 217.620 187.500 C 217.535 185.352,217.278 182.961,217.048 182.188 C 216.819 181.414,216.382 179.938,216.078 178.906 C 215.773 177.875,215.415 176.820,215.282 176.563 C 215.149 176.305,214.716 175.320,214.320 174.375 C 212.545 170.139,211.433 168.284,210.625 168.206 C 209.861 168.133,209.859 168.138,210.540 168.428 " stroke="none" fill="#a5abcb" fill-rule="evenodd"></path></g></svg>