<?xml version="1.0" standalone="no"?>
<!DOCTYPE svg PUBLIC "-//W3C//DTD SVG 20010904//EN"
 "http://www.w3.org/TR/2001/REC-SVG-20010904/DTD/svg10.dtd">
<svg version="1.0" xmlns="http://www.w3.org/2000/svg"
 width="300.000000pt" height="233.000000pt" viewBox="0 0 300.000000 233.000000"
 preserveAspectRatio="xMidYMid meet">
<metadata>
Created by potrace 1.10, written by Peter Selinger 2001-2011
</metadata>
<g transform="translate(0.000000,233.000000) scale(0.100000,-0.100000)"
fill="#000000" stroke="none">
<path d="M2280 2274 c0 -3 7 -12 15 -20 12 -13 16 -12 26 8 11 21 11 22 -4 9
-11 -9 -17 -10 -17 -2 0 6 -4 11 -10 11 -5 0 -10 -3 -10 -6z"/>
<path d="M2558 2245 c3 -21 0 -35 -7 -35 -6 0 -11 14 -11 30 0 17 -4 30 -10
30 -5 0 -10 -16 -10 -35 0 -33 2 -35 33 -35 33 0 34 1 28 37 -8 48 -28 55 -23
8z"/>
<path d="M2638 2257 c-5 -10 -8 -31 -8 -45 0 -23 5 -27 28 -28 26 -1 29 2 30
33 1 20 -3 31 -8 28 -6 -3 -10 -16 -10 -28 0 -31 -18 -8 -22 28 -2 24 -4 26
-10 12z"/>
<path d="M247 2233 c-11 -10 -8 -121 3 -128 6 -4 10 20 10 64 0 71 -1 77 -13
64z"/>
<path d="M1266 2209 c-2 -8 -9 -61 -16 -119 -13 -115 -14 -120 -37 -120 -11 0
-14 8 -11 30 4 28 2 30 -28 30 -18 0 -39 3 -48 6 -9 3 -16 1 -16 -4 0 -6 17
-12 38 -14 29 -2 38 -7 40 -25 3 -18 -1 -22 -25 -20 -18 1 -27 -3 -26 -10 2
-8 -7 -13 -22 -13 -23 0 -25 4 -26 43 l-2 42 -6 -42 c-4 -24 -10 -46 -14 -49
-6 -7 -54 -10 -182 -15 l-40 -1 35 -7 c42 -8 32 -13 -80 -36 -89 -18 -159 -20
-143 -4 5 5 27 11 47 12 42 2 50 17 9 17 -47 0 -73 -11 -73 -31 0 -19 -6 -21
-80 -34 -64 -11 -255 -35 -277 -35 -21 0 -23 5 -23 47 0 25 -2 44 -5 41 -3 -3
-6 -44 -6 -92 0 -47 -5 -86 -10 -86 -5 0 -9 13 -9 29 0 27 -1 28 -25 18 -26
-13 -35 -33 -10 -23 9 3 15 0 15 -9 0 -8 -9 -15 -20 -15 -13 0 -20 7 -20 20 0
11 -7 20 -15 20 -22 0 -31 -31 -13 -44 8 -6 17 -18 21 -26 4 -12 6 -11 6 3 1
9 6 17 12 17 5 0 7 -5 3 -12 -5 -8 -2 -9 9 -5 14 5 17 0 17 -28 0 -18 -5 -37
-10 -40 -6 -4 -7 -11 -4 -17 4 -6 -6 -8 -26 -6 -18 1 -31 -1 -30 -7 1 -5 8 -9
16 -7 16 3 19 -14 4 -23 -5 -3 -10 -22 -10 -41 0 -28 -4 -34 -21 -34 -11 0
-17 5 -14 10 3 6 1 10 -4 10 -6 0 -11 -4 -11 -10 0 -5 -7 -10 -15 -10 -8 0
-15 -4 -15 -9 0 -4 32 -11 70 -15 39 -3 76 -7 83 -9 8 -1 13 20 15 73 2 41 0
71 -5 67 -4 -5 -7 -25 -6 -45 1 -25 0 -29 -4 -12 -3 14 -9 27 -14 30 -4 3 -3
17 4 30 7 14 11 44 9 68 -3 32 -1 42 11 42 18 0 26 -96 29 -337 1 -152 8 -193
21 -141 3 12 2 29 -3 39 -7 11 -5 20 4 28 11 9 14 3 13 -36 0 -74 5 -93 12
-43 8 60 2 162 -10 154 -5 -3 -9 -16 -9 -30 0 -13 -4 -24 -10 -24 -6 0 -10 54
-10 143 0 78 -3 165 -6 194 l-7 51 58 4 c46 2 68 -2 118 -26 79 -36 209 -129
196 -139 -2 -2 -62 -12 -134 -21 -72 -10 -135 -23 -141 -29 -8 -8 -9 -42 -3
-112 33 -414 28 -393 96 -400 l38 -5 -32 12 c-18 6 -33 15 -33 19 0 5 -6 9
-14 9 -11 0 -16 22 -20 93 -19 314 -19 287 4 287 24 0 36 22 24 48 -6 14 -8
11 -14 -13 l-6 -30 -7 28 c-5 17 -4 34 2 41 6 7 7 17 3 21 -4 5 -2 6 3 2 6 -3
38 0 73 7 34 8 59 10 57 6 -3 -5 -28 -11 -55 -15 -27 -4 -53 -12 -56 -17 -5
-7 2 -9 17 -5 19 5 27 1 36 -20 16 -34 7 -44 -13 -15 -20 29 -32 28 -27 -2 4
-17 13 -25 34 -28 16 -3 34 -1 40 3 16 9 4 39 -16 39 -8 0 -15 9 -15 20 0 13
7 20 20 20 12 0 17 -5 14 -14 -3 -8 -1 -17 5 -21 7 -3 11 2 11 14 0 16 7 21
28 22 23 0 24 2 8 8 -18 7 -18 8 -3 14 31 12 147 20 147 10 0 -5 -10 -9 -22
-9 -66 -1 -102 -5 -92 -12 7 -4 14 -16 17 -27 4 -17 5 -17 6 4 1 18 6 22 20
18 10 -2 25 0 34 5 21 11 38 -19 37 -64 0 -18 2 -74 6 -125 l7 -92 -37 9 c-49
11 -46 -4 4 -19 l40 -12 0 -70 c0 -87 -31 -149 -74 -149 -43 0 -141 31 -163
52 -13 12 -23 17 -23 10 0 -6 11 -19 25 -30 14 -11 25 -22 25 -25 0 -13 -133
-30 -242 -31 -21 -1 -38 -4 -38 -8 0 -5 4 -8 10 -8 9 0 52 -19 205 -90 56 -26
65 -27 135 -19 41 5 116 12 166 15 l91 6 119 -55 c65 -30 139 -66 164 -81 47
-27 60 -31 60 -18 0 6 -235 125 -295 149 -15 5 -7 8 30 11 41 2 69 -5 150 -39
55 -22 117 -50 137 -60 21 -11 38 -16 38 -11 0 10 -14 17 -145 74 -146 64
-170 70 -254 66 -71 -3 -77 -1 -73 15 4 16 12 18 56 14 28 -3 60 -7 71 -9 11
-3 32 1 47 8 34 17 35 17 42 -2 4 -11 2 -15 -7 -11 -8 3 -19 2 -26 -3 -9 -5
-2 -9 19 -12 38 -6 41 0 36 72 -3 30 -8 174 -12 318 -8 285 -11 299 -62 289
-19 -4 -26 1 -34 24 -9 28 -13 29 -70 29 -55 0 -60 2 -55 20 3 10 -1 27 -9 37
-12 16 -13 14 -10 -21 2 -31 -1 -40 -16 -44 -15 -3 -18 -11 -14 -28 5 -20 2
-24 -30 -30 -29 -5 -40 -2 -62 18 -45 41 -104 81 -166 114 l-58 31 48 7 c27 4
121 20 209 36 88 16 178 32 200 35 22 2 52 7 67 11 26 5 27 4 20 -17 -5 -13
-5 -40 1 -63 12 -50 16 -54 27 -36 15 24 12 78 -5 88 -22 12 -8 42 20 42 12 0
37 3 55 6 l32 7 -2 -139 c-3 -165 -2 -189 6 -181 3 3 5 75 5 160 -2 167 -2
167 55 167 20 0 24 -5 24 -30 0 -20 -5 -30 -15 -30 -8 0 -15 -4 -15 -10 0 -16
37 -11 44 6 3 9 6 28 6 43 0 25 5 28 63 41 34 7 64 14 67 15 3 1 24 5 48 10
23 4 42 12 42 17 0 5 -8 7 -17 4 -81 -23 -235 -54 -247 -50 -8 3 -24 1 -35 -6
-20 -10 -21 -8 -21 41 l0 52 31 -7 c17 -3 35 -6 40 -6 14 0 11 -38 -3 -43 -8
-4 -7 -6 3 -6 11 -1 18 9 21 29 4 25 1 30 -15 30 -35 0 -14 8 58 23 39 8 72
12 75 8 5 -6 89 -44 251 -114 63 -27 99 -48 106 -63 9 -20 7 -22 -41 -33 -28
-6 -98 -16 -156 -21 -201 -19 -219 -22 -236 -41 -15 -17 -16 -37 -10 -186 4
-93 8 -181 10 -198 2 -16 7 -91 10 -165 7 -143 15 -290 21 -380 1 -30 6 -63
10 -72 6 -15 2 -18 -27 -18 -19 0 -63 -3 -97 -6 l-61 -7 52 -22 c168 -72 247
-110 297 -144 31 -21 84 -53 119 -71 37 -20 61 -38 58 -46 -6 -17 36 -20 179
-13 109 5 125 3 170 -17 64 -28 212 -125 342 -225 56 -43 105 -75 108 -70 3 5
-21 30 -52 54 -88 67 -299 214 -333 232 -16 9 -30 17 -30 19 0 2 68 4 151 5
l151 2 117 -62 c73 -39 118 -68 117 -77 -1 -8 5 -17 12 -19 8 -3 10 1 5 13 -6
16 -3 16 23 -3 61 -43 134 -82 139 -73 3 4 -14 19 -37 33 -24 13 -103 58 -176
100 -74 43 -138 77 -144 77 -6 0 -8 6 -5 14 5 13 -10 25 -41 32 -35 7 -28 23
11 26 15 1 27 5 28 8 7 47 2 123 -10 129 -11 7 -11 88 0 527 8 285 14 543 14
572 0 35 4 52 13 52 18 0 15 37 -5 44 -9 4 -53 10 -96 13 l-80 6 -15 38 -14
38 -99 7 c-78 5 -99 10 -99 21 0 11 7 14 25 11 14 -3 25 -1 25 3 0 5 -9 9 -20
9 -15 0 -22 9 -26 30 -4 16 -11 27 -16 24 -6 -4 -7 -19 -4 -35 3 -15 1 -31 -4
-34 -6 -4 -8 -11 -5 -16 4 -5 -8 -9 -24 -9 -30 0 -31 -1 -31 -45 0 -38 -3 -45
-19 -45 -11 0 -21 5 -23 12 -4 10 -13 10 -43 1 -28 -9 -41 -9 -46 -1 -4 6 -12
7 -18 4 -6 -4 -11 0 -11 9 0 9 -4 14 -9 11 -5 -3 -12 1 -15 10 -3 8 -10 12
-16 9 -9 -6 -178 61 -190 74 -8 9 -117 61 -129 61 -5 0 -12 4 -15 9 -3 5 36
16 87 26 145 26 317 68 312 76 -3 4 -26 0 -52 -8 -27 -8 -70 -18 -98 -23 -27
-5 -95 -19 -149 -30 -55 -11 -101 -18 -104 -16 -2 3 -20 -2 -39 -10 -19 -9
-36 -14 -37 -12 -2 2 3 54 11 117 11 102 11 149 -1 110z m-301 -289 c-11 -5
-27 -9 -35 -9 -13 -1 -13 0 0 9 8 5 24 9 35 9 20 0 20 0 0 -9z m115 -35 c0
-36 -3 -45 -17 -45 -10 0 -34 -3 -55 -6 -30 -5 -37 -3 -41 12 -4 17 -6 17 -12
-3 -4 -13 -13 -23 -20 -23 -8 0 -21 -3 -30 -7 -14 -5 -16 -2 -11 15 4 12 3 29
-2 38 -7 13 -11 10 -16 -19 -7 -39 1 -36 -181 -68 -33 -6 -78 -14 -100 -19
-22 -4 -77 -14 -122 -21 -80 -12 -82 -12 -137 14 -31 15 -61 27 -66 27 -6 0
-10 4 -10 9 0 5 39 12 88 16 48 4 137 15 197 26 61 11 142 24 180 29 39 6 129
24 200 39 72 16 136 29 143 30 8 1 12 -14 12 -44z m904 -37 c-3 -4 2 -8 11 -8
9 0 13 -5 10 -10 -3 -6 1 -13 9 -16 9 -3 13 -10 10 -16 -3 -5 -11 -4 -20 3
-10 9 -14 9 -14 0 0 -16 29 -26 41 -14 6 6 6 19 0 35 -9 25 -9 25 49 26 57 1
59 0 69 -30 6 -17 11 -35 11 -39 0 -5 -51 -9 -113 -9 l-113 0 -22 45 -22 46
49 -2 c28 -2 48 -6 45 -11z m-74 -60 c0 -5 -4 -8 -10 -8 -5 0 -10 10 -10 23 0
18 2 19 10 7 5 -8 10 -18 10 -22z m-202 -11 c8 -10 6 -13 -7 -13 -10 0 -18 6
-18 13 0 7 4 13 7 13 4 0 12 -6 18 -13z m-1375 -49 c-2 -5 -20 -8 -39 -8 -29
0 -34 3 -34 24 l0 25 39 -17 c22 -9 37 -20 34 -24z m1532 37 c-24 -8 -125 -11
-125 -3 0 4 30 8 68 7 37 0 63 -2 57 -4z m388 -2 c-13 -2 -35 -2 -50 0 -16 2
-5 4 22 4 28 0 40 -2 28 -4z m-475 -41 c0 -9 3 -51 6 -92 3 -41 10 -221 16
-400 6 -179 12 -340 13 -357 2 -18 -1 -33 -5 -33 -9 0 -12 68 -9 165 1 37 -1
55 -7 47 -5 -7 -8 -55 -8 -107 1 -58 -3 -95 -9 -94 -17 1 -51 18 -37 18 9 1
12 29 12 107 0 93 2 105 16 100 30 -11 37 7 8 21 -22 10 -24 12 -6 9 12 -2 20
0 16 5 -3 5 -16 9 -29 9 -30 0 -33 -12 -38 -150 -4 -108 -1 -134 13 -125 5 3
21 0 37 -7 15 -6 34 -10 40 -9 9 1 11 -7 8 -26 -3 -15 -2 -77 3 -138 5 -60 5
-114 1 -119 -12 -14 -19 30 -22 149 l-3 110 -2 -122 c-1 -68 -6 -123 -10 -123
-5 0 -18 8 -28 17 -17 16 -20 31 -19 126 0 60 -4 111 -8 114 -4 2 -7 -54 -6
-126 0 -72 4 -129 8 -127 4 3 23 -5 42 -17 24 -15 35 -31 38 -51 2 -25 0 -28
-16 -22 -10 4 -42 17 -70 28 -59 22 -64 28 -72 76 -6 34 -8 35 -106 65 -55 16
-101 34 -103 39 -8 20 -24 6 -18 -17 4 -14 4 -25 1 -25 -17 0 -105 33 -100 38
3 3 -8 11 -25 18 -27 12 -30 17 -31 61 0 26 -4 87 -7 136 -4 48 -4 87 0 87 5
0 8 -24 8 -52 0 -29 3 -84 7 -122 5 -55 10 -70 25 -74 10 -2 18 -8 18 -13 0
-5 5 -9 11 -9 5 0 8 4 4 9 -3 5 -8 115 -11 243 -4 128 -7 234 -8 235 -1 2 -13
4 -27 5 -24 3 -24 2 -29 -97 -5 -92 -6 -84 -13 100 -5 110 -10 221 -12 248 -3
42 7 65 17 36 2 -7 13 -9 26 -5 19 6 22 14 22 62 0 43 3 54 16 54 11 0 14 5
10 16 -3 9 -6 24 -6 35 0 15 -7 18 -35 17 -27 -1 -32 -4 -24 -14 6 -7 8 -23 4
-35 -5 -14 -4 -19 4 -15 15 10 14 -7 -1 -22 -9 -9 -9 -12 1 -12 7 0 9 -4 6
-10 -3 -5 -1 -10 4 -10 6 0 11 -12 10 -27 l-1 -28 -8 25 c-7 22 -8 22 -10 5
-1 -11 -2 -24 -1 -28 1 -5 -3 -6 -9 -2 -5 3 -9 37 -8 75 1 45 -4 75 -12 85
-20 25 -2 31 104 40 50 4 127 13 171 21 44 8 116 17 160 20 44 4 82 8 84 10 8
7 20 -7 19 -24z m535 19 c18 -1 18 -18 12 -393 -3 -216 -10 -436 -15 -488 -4
-52 -6 -145 -4 -206 l4 -110 -87 -3 c-225 -8 -365 -3 -356 13 4 5 -1 7 -10 3
-13 -5 -17 0 -18 21 0 15 -2 35 -4 44 -2 9 -6 131 -10 270 -3 139 -11 348 -16
463 -6 116 -11 237 -13 270 -4 86 2 113 28 118 16 4 401 2 489 -2z m-848 -21
c-49 -9 -204 -21 -190 -15 13 7 151 22 195 23 l35 0 -40 -8z m-155 -85 c0 -14
-4 -25 -10 -25 -5 0 -10 11 -10 25 0 14 5 25 10 25 6 0 10 -11 10 -25z m-73
-92 c-2 -21 -4 -6 -4 32 0 39 2 55 4 38 2 -18 2 -50 0 -70z m-357 58 c0 -5 3
-16 6 -25 5 -14 -3 -16 -54 -16 -51 0 -60 3 -65 19 -4 17 1 21 32 24 70 7 81
7 81 -2z m-120 -43 c0 -5 -4 -8 -10 -8 -5 0 -10 10 -10 23 0 18 2 19 10 7 5
-8 10 -18 10 -22z m-554 -34 c3 -13 4 -29 1 -36 -3 -7 -6 -1 -6 15 -1 28 -16
37 -24 15 -2 -7 -4 -1 -4 14 -1 33 24 27 33 -8z m764 7 c11 -22 10 -161 -2
-161 -4 0 -8 8 -8 18 0 15 -10 17 -102 14 -57 -2 -107 -8 -112 -13 -5 -5 -10
-32 -10 -60 -1 -44 3 -54 27 -75 20 -17 35 -22 53 -18 13 3 38 0 56 -7 30 -12
32 -11 62 26 17 21 34 54 37 74 4 21 6 -2 6 -54 -1 -49 -2 -80 -5 -67 -3 18
-8 22 -20 17 -9 -4 -38 -10 -64 -12 -27 -3 -48 -9 -48 -14 0 -5 -5 -9 -11 -9
-5 0 -8 4 -4 9 6 11 -15 18 -57 20 -19 0 -28 -4 -28 -14 0 -11 11 -15 39 -15
l39 0 -1 -40 c-2 -39 -3 -40 -42 -41 -24 -1 -30 -3 -15 -6 14 -2 58 0 97 4
l73 8 -15 29 c-20 39 -19 41 15 44 27 2 30 -1 30 -27 0 -16 -6 -32 -12 -34 -8
-3 -7 -6 4 -6 10 -1 18 8 20 22 2 12 7 -24 11 -81 5 -56 5 -107 2 -112 -3 -6
-55 -10 -116 -10 -102 0 -109 -1 -109 -20 0 -31 -17 -24 -18 8 -2 77 -23 458
-28 529 l-7 82 39 4 c22 2 78 4 126 5 77 2 89 0 98 -17z m-590 -45 c0 -3 -4
-8 -10 -11 -5 -3 -10 -1 -10 4 0 6 5 11 10 11 6 0 10 -2 10 -4z m0 -56 c0 -5
-2 -10 -4 -10 -3 0 -8 5 -11 10 -3 6 -1 10 4 10 6 0 11 -4 11 -10z m523 -55
c41 0 49 -3 53 -21 8 -32 0 -60 -17 -56 -8 2 -11 0 -6 -4 10 -10 -22 -44 -42
-44 -14 0 -14 -2 -1 -11 12 -9 11 -9 -5 -3 -11 4 -38 9 -59 10 -49 3 -75 33
-76 87 0 44 23 59 75 47 16 -3 52 -6 78 -5z m399 -193 c-9 -6 -11 -24 -8 -58
2 -27 5 -91 5 -142 1 -51 4 -91 9 -89 4 3 8 -28 8 -67 1 -54 -2 -73 -11 -73
-10 0 -15 29 -20 106 -3 58 -11 114 -16 125 -6 10 -7 16 -2 13 5 -3 7 39 5 94
-4 99 -4 99 19 99 16 0 20 -3 11 -8z m-462 -34 c0 -23 -3 -29 -9 -19 -8 12 -4
51 5 51 2 0 4 -15 4 -32z m46 2 c-1 -21 -6 -30 -18 -30 -13 0 -18 8 -18 30 0
23 5 30 19 30 14 0 18 -7 17 -30z m-156 -186 c0 -30 -2 -54 -4 -54 -1 0 -17 5
-34 11 -41 14 -48 37 -17 51 14 6 28 22 31 35 10 39 24 15 24 -43z m-122 -14
c2 -6 8 -8 13 -4 5 3 9 0 9 -5 0 -6 -4 -11 -10 -11 -15 0 -80 33 -80 41 0 11
64 -9 68 -21z m10 -42 l127 -42 -65 -7 c-36 -4 -90 -12 -121 -16 -44 -7 -61
-6 -75 5 -11 7 -18 18 -16 23 1 6 -2 8 -8 4 -6 -4 -17 -1 -25 5 -8 7 -15 10
-15 7 0 -3 -17 1 -37 10 -21 8 -49 20 -63 25 -38 14 -11 23 85 25 78 2 99 -1
213 -39z m1109 10 c-3 -8 -6 -5 -6 6 -1 11 2 17 5 13 3 -3 4 -12 1 -19z m-421
-253 c12 -12 12 -15 2 -15 -20 -1 30 -27 87 -46 28 -9 55 -20 60 -24 6 -5 48
-24 95 -43 47 -20 141 -63 210 -96 l125 -60 -127 0 c-71 -1 -128 3 -128 7 0 4
-18 19 -39 32 -21 14 -36 29 -33 34 3 5 0 6 -7 2 -13 -9 -71 25 -108 63 -14
14 -22 20 -19 14 5 -9 2 -11 -9 -7 -8 4 -20 15 -26 25 -5 11 -14 17 -19 14
-13 -8 -62 14 -55 25 3 5 0 8 -7 5 -7 -3 -49 11 -93 30 -44 19 -78 35 -75 35
99 10 126 13 129 16 9 8 23 4 37 -11z m311 -74 c10 -6 15 -11 11 -11 -4 0 -3
-11 2 -25 11 -30 0 -33 -18 -5 -7 12 -18 20 -25 19 -7 -2 -28 5 -47 14 -19 9
-53 19 -74 22 -29 5 -36 9 -25 16 8 5 10 9 4 9 -5 0 -4 4 3 9 13 8 130 -25
169 -48z m-63 -32 c17 -11 27 -19 22 -19 -13 0 -96 40 -96 47 0 7 41 -8 74
-28z m350 -35 c28 -2 86 -9 129 -15 60 -9 87 -9 115 0 45 15 134 11 140 -6 2
-7 -4 -13 -15 -13 -15 0 -16 2 -3 11 13 8 12 10 -4 7 -27 -4 -30 -35 -2 -32
11 1 25 3 29 3 5 1 7 11 5 22 -2 15 3 23 15 25 13 2 17 -2 13 -13 -3 -8 -6
-25 -6 -37 0 -34 -73 -56 -212 -63 -65 -3 -115 -9 -113 -13 3 -4 -3 -14 -13
-21 -15 -13 -16 -12 -4 3 16 20 10 24 -48 32 -50 7 -116 28 -127 40 -5 5 1 6
12 3 77 -22 148 -37 153 -33 3 3 -3 6 -13 6 -18 0 -18 1 1 15 18 14 17 15 -8
5 -18 -6 -29 -6 -34 1 -3 6 -12 8 -20 5 -8 -3 -11 0 -7 10 3 7 10 14 17 14 18
1 -26 30 -45 30 -10 0 -21 -5 -25 -12 -4 -6 -3 -8 3 -5 6 4 13 -2 16 -14 4
-15 1 -19 -11 -17 -18 3 -28 39 -18 64 3 9 11 12 17 8 6 -3 34 -8 63 -10z
m-24 -34 c0 -5 -4 -10 -10 -10 -5 0 -10 5 -10 10 0 6 5 10 10 10 6 0 10 -4 10
-10z m-130 -20 c13 -8 13 -10 -2 -10 -9 0 -20 5 -23 10 -8 13 5 13 25 0z m520
-68 c0 -4 -11 -8 -26 -8 -23 -2 -24 -1 -7 11 17 13 33 11 33 -3z"/>
<path d="M675 1840 c-4 -6 5 -10 19 -10 14 0 26 5 26 10 0 6 -9 10 -19 10 -11
0 -23 -4 -26 -10z"/>
<path d="M660 1805 c0 -8 5 -15 10 -15 6 0 10 7 10 15 0 8 -4 15 -10 15 -5 0
-10 -7 -10 -15z"/>
<path d="M2050 1830 c0 -6 9 -14 20 -17 23 -6 26 -19 8 -26 -8 -3 -6 -6 5 -6
19 -1 25 43 7 54 -5 3 -10 1 -10 -6 0 -8 -4 -8 -15 1 -12 10 -15 10 -15 0z"/>
<path d="M1589 1660 l3 -51 42 3 41 3 0 45 0 45 -45 3 -45 3 4 -51z m69 5 c-1
-19 -7 -35 -14 -35 -7 0 -20 -3 -30 -7 -13 -5 -15 -3 -8 8 4 8 7 21 6 30 -2
12 22 33 46 38 1 1 2 -15 0 -34z"/>
<path d="M1690 1656 l0 -52 41 4 40 4 -3 46 c-3 46 -3 46 -40 48 l-38 1 0 -51z
m64 9 c8 -32 1 -45 -25 -45 -14 0 -19 7 -19 28 0 48 33 60 44 17z"/>
<path d="M1507 1693 c-4 -3 -8 -58 -8 -122 -1 -64 -3 -108 -6 -98 -4 16 -6 17
-16 3 -13 -17 -57 -12 -57 6 0 5 9 6 20 3 33 -10 46 9 43 62 -1 26 -2 69 -2
96 -1 26 -5 47 -10 47 -5 0 -7 -18 -4 -40 5 -38 4 -40 -21 -40 -22 0 -26 4
-26 30 0 20 5 30 15 30 8 0 15 4 15 9 0 5 -9 7 -21 4 -20 -6 -21 -10 -15 -92
6 -85 -5 -137 -20 -98 -3 10 -4 33 -1 52 3 19 1 37 -4 40 -5 4 -9 1 -9 -4 0
-6 -7 -11 -15 -11 -8 0 -15 5 -15 10 0 6 -3 10 -7 10 -5 0 -7 -26 -6 -57 2
-32 0 -52 -3 -45 -7 14 -24 16 -24 3 0 -11 28 -21 73 -27 18 -2 79 -10 137
-18 168 -25 158 -28 156 54 l-1 70 -37 0 c-26 0 -38 5 -41 18 -3 9 -5 -19 -6
-63 -2 -96 -21 -85 -21 13 0 58 -1 62 -22 61 -17 -1 -19 -2 -5 -6 26 -7 21
-20 -8 -20 -18 0 -25 5 -25 18 0 14 7 19 30 19 29 0 30 2 30 45 0 43 -1 45
-28 45 -16 0 -32 -3 -35 -7z m50 -29 c4 -12 -22 -44 -36 -44 -4 0 -7 14 -7 30
0 25 3 30 20 28 10 -2 21 -8 23 -14z m-87 -79 c0 -9 -9 -15 -25 -15 -18 0 -23
4 -19 15 4 8 15 15 25 15 10 0 19 -7 19 -15z m-6 -65 c-6 -6 -15 -6 -24 0 -13
8 -12 10 3 10 12 0 16 5 11 13 -6 10 -4 10 7 0 8 -8 10 -16 3 -23z m86 19 c0
-4 -7 -9 -15 -13 -9 -3 -15 0 -15 8 0 7 7 13 15 13 8 0 15 -4 15 -8z m100 -8
c0 -6 -9 -9 -19 -8 -11 0 -17 5 -15 9 7 11 34 10 34 -1z m-270 -47 c0 -8 -6
-11 -15 -8 -8 4 -15 12 -15 20 0 8 6 11 15 8 8 -4 15 -12 15 -20z m157 -1 c3
9 9 15 14 12 12 -8 12 -45 0 -45 -26 0 -41 14 -40 39 l0 26 11 -25 c9 -21 12
-22 15 -7z m120 11 c-3 -3 -12 -4 -19 -1 -8 3 -5 6 6 6 11 1 17 -2 13 -5z m10
-24 c2 0 3 -7 3 -15 0 -16 -12 -18 -47 -9 -13 4 -23 14 -23 24 0 16 4 17 32 9
18 -5 34 -9 35 -9z"/>
<path d="M1340 1637 c0 -36 2 -38 27 -35 22 3 26 8 27 39 1 34 -1 36 -26 35
-26 -1 -28 -4 -28 -39z m40 3 c0 -11 -7 -20 -15 -20 -8 0 -15 9 -15 20 0 11 7
20 15 20 8 0 15 -9 15 -20z"/>
<path d="M1635 1590 c-16 -6 -14 -8 13 -7 17 0 32 4 32 9 0 10 -18 9 -45 -2z"/>
<path d="M1733 1593 l-33 -4 0 -69 c0 -38 -3 -76 -7 -86 -5 -14 -2 -16 21 -12
14 3 29 1 32 -3 3 -5 14 -9 24 -9 16 0 17 4 10 31 -5 18 -10 60 -11 95 -1 35
-2 63 -3 62 -1 0 -16 -3 -33 -5z m2 -86 c-2 -15 0 -27 4 -27 4 0 7 -8 8 -18 1
-10 -5 -19 -13 -19 -11 0 -14 16 -13 66 0 45 3 59 8 46 5 -11 7 -33 6 -48z"/>
<path d="M1312 1570 c0 -14 2 -19 5 -12 2 6 2 18 0 25 -3 6 -5 1 -5 -13z"/>
<path d="M1260 1451 c0 -5 5 -11 11 -13 6 -2 11 -41 13 -96 1 -51 6 -96 12
-102 5 -5 72 -18 149 -30 77 -11 165 -25 195 -31 83 -15 116 -20 103 -13 -8 4
-13 30 -14 72 -1 37 -5 81 -9 97 -5 17 -6 -11 -3 -64 l6 -94 -34 7 c-44 9
-204 34 -297 46 -40 5 -78 12 -83 15 -5 4 -9 49 -9 100 l0 95 48 -6 c26 -3 90
-13 142 -21 52 -9 115 -16 140 -16 37 1 41 -1 20 -8 -18 -6 -10 -7 25 -3 36 3
44 2 30 -5 -22 -11 -6 -15 19 -5 42 16 4 28 -124 39 -30 3 -65 7 -76 10 -21 5
-241 35 -256 35 -5 0 -8 -4 -8 -9z"/>
<path d="M1556 1297 c-9 -35 2 -57 29 -57 12 0 43 -3 69 -6 39 -6 46 -4 46 11
0 14 -7 16 -42 11 -31 -4 -37 -3 -23 3 18 9 17 10 -7 10 -16 1 -28 -3 -28 -9
0 -5 -5 -10 -11 -10 -8 0 -7 6 2 17 12 15 12 16 -3 10 -10 -3 -20 -1 -24 5 -7
11 42 7 101 -8 15 -4 21 0 22 15 1 13 -4 19 -15 19 -9 -1 -38 2 -63 6 -44 7
-47 7 -53 -17z"/>
<path d="M1383 1081 c3 -86 2 -121 -6 -125 -7 -2 -5 -5 4 -5 20 -1 31 70 17
107 -9 26 -2 46 14 36 5 -4 8 -35 7 -73 -3 -65 4 -96 21 -86 5 3 21 0 37 -6
15 -7 37 -13 48 -15 11 -1 32 -6 48 -9 l27 -7 0 76 c0 47 4 76 11 76 6 0 10
-29 8 -80 -1 -44 1 -83 5 -87 3 -3 6 35 6 85 0 84 -2 92 -19 92 -11 0 -23 5
-26 10 -4 7 2 9 17 5 22 -6 24 -3 26 34 3 37 0 41 -25 46 -15 3 -65 15 -111
25 -125 30 -116 39 -109 -99z m39 86 c-2 -9 2 -17 8 -17 18 0 11 -20 -7 -21
-15 0 -15 -2 2 -9 31 -13 32 -12 27 21 -4 28 -2 30 19 27 14 -2 23 -9 21 -17
-1 -7 3 -20 9 -28 7 -8 8 -13 3 -12 -5 1 -16 1 -24 0 -13 -1 -13 -2 0 -12 12
-8 9 -9 -12 -5 -26 6 -27 5 -25 -34 1 -28 4 -35 10 -24 5 8 6 22 3 30 -3 8 -1
14 5 14 5 0 12 -7 15 -15 8 -19 24 -9 24 15 0 13 6 17 23 14 12 -2 16 -2 10 2
-7 3 -13 19 -13 36 0 46 24 29 28 -19 3 -37 1 -41 -17 -36 -20 5 -21 1 -22
-73 -1 -78 -2 -79 -9 -26 -10 65 -15 71 -39 46 -14 -15 -16 -24 -8 -42 6 -12
7 -25 4 -29 -13 -12 -18 6 -24 80 -5 62 -9 76 -24 80 -27 7 -28 80 -1 75 10
-2 16 -11 14 -21z m186 -54 c3 -27 0 -31 -16 -26 -13 3 -22 16 -24 34 -4 26
-2 30 16 27 15 -2 22 -11 24 -35z m-39 -115 c-1 -57 -4 -75 -9 -58 -4 14 -8
19 -9 11 -1 -8 -4 -11 -7 -8 -4 4 -2 13 4 20 7 8 11 29 11 48 -2 47 0 69 6 69
3 0 5 -37 4 -82z m-32 40 c-3 -8 -6 -5 -6 6 -1 11 2 17 5 13 3 -3 4 -12 1 -19z
m-53 -62 c2 -20 -1 -33 -6 -30 -5 4 -8 15 -5 25 3 10 0 20 -6 22 -6 2 -7 9 -3
16 11 18 17 8 20 -33z m47 17 c-12 -20 -14 -14 -5 12 4 9 9 14 11 11 3 -2 0
-13 -6 -23z"/>
<path d="M1650 980 c0 -53 4 -90 10 -90 6 0 10 23 10 50 0 38 4 50 15 50 8 0
15 5 15 11 0 6 -7 9 -15 5 -12 -4 -15 3 -15 29 0 19 -4 35 -10 35 -6 0 -10
-37 -10 -90z"/>
<path d="M1351 1001 c-9 -6 -11 -16 -5 -32 7 -24 7 -24 15 5 10 35 8 38 -10
27z"/>
<path d="M1353 914 c4 -11 9 -51 13 -91 5 -53 11 -74 23 -78 39 -16 132 -48
201 -70 41 -13 82 -26 90 -29 13 -5 15 9 15 96 0 99 -1 103 -22 104 -12 1 -75
14 -140 29 -102 24 -133 33 -177 53 -4 3 -6 -4 -3 -14z m195 -55 l132 -32 0
-83 0 -83 -52 18 c-29 11 -84 33 -122 50 -38 18 -76 29 -83 26 -9 -3 -11 0 -7
7 5 8 2 9 -9 5 -18 -7 -22 2 -31 87 -6 46 -5 48 17 42 12 -3 82 -20 155 -37z"/>
<path d="M1870 1700 l-45 -5 -3 -122 -3 -123 64 0 64 0 2 119 c2 137 0 141
-79 131z m45 -30 c-3 -6 1 -13 9 -16 9 -3 13 -11 10 -16 -4 -5 -6 -47 -5 -93
1 -81 1 -82 -22 -78 -22 4 -23 8 -22 109 0 94 2 104 18 104 10 0 15 -5 12 -10z
m-45 -113 c0 -88 -2 -98 -17 -95 -16 3 -18 16 -19 100 0 87 2 96 18 95 16 -1
18 -12 18 -100z"/>
<path d="M1987 1693 c-4 -3 -7 -62 -7 -131 l0 -124 53 6 c71 8 88 8 113 2 21
-6 22 -3 23 107 1 63 -1 121 -5 130 -5 14 -21 17 -88 17 -46 0 -86 -3 -89 -7z
m23 -13 c0 -5 -5 -10 -11 -10 -5 0 -7 5 -4 10 3 6 8 10 11 10 2 0 4 -4 4 -10z
m90 -10 c10 -1 9 -4 -5 -10 -19 -8 -19 -9 1 -9 21 -1 22 -5 19 -83 -2 -46 -4
-86 -4 -89 -2 -14 -54 -20 -63 -7 -12 19 -1 170 14 181 9 6 8 7 -4 3 -10 -3
-20 0 -24 6 -4 7 -3 8 4 4 7 -4 12 -3 12 3 0 5 8 8 18 6 9 -2 24 -4 32 -5z
m44 -16 c11 -28 7 -184 -5 -184 -6 0 -10 32 -8 89 1 49 -1 94 -5 100 -4 6 -3
11 2 11 6 0 13 -7 16 -16z m-113 -16 c-1 -5 -1 -46 -1 -93 0 -75 -2 -85 -18
-85 -16 0 -18 11 -19 87 -1 48 1 91 4 95 6 11 34 6 34 -4z"/>
<path d="M2201 1686 c-5 -6 -11 -65 -13 -131 l-3 -120 60 0 60 0 2 130 c2 88
0 125 -7 115 -8 -13 -10 -13 -10 2 0 13 -9 17 -40 16 -22 0 -44 -5 -49 -12z
m69 -36 c0 -28 -2 -30 -27 -24 -39 10 -42 12 -36 34 4 14 14 20 34 20 26 0 29
-4 29 -30z m11 -53 c-6 -6 -11 -31 -11 -56 0 -69 -8 -88 -35 -88 -28 0 -31 10
-27 88 4 57 5 59 32 59 17 0 31 7 35 18 5 12 9 14 12 4 3 -8 0 -19 -6 -25z m6
-49 c-3 -7 -5 -2 -5 12 0 14 2 19 5 13 2 -7 2 -19 0 -25z"/>
<path d="M1839 1352 c-1 -37 -2 -102 -3 -144 l-3 -78 32 0 c18 0 47 -3 64 -6
28 -6 31 -4 31 17 -1 19 -3 21 -9 9 -7 -11 -22 -14 -55 -12 l-46 4 0 129 0
129 45 0 45 0 2 -117 2 -118 6 120 c3 66 5 121 5 121 0 1 -26 4 -57 7 l-58 6
-1 -67z"/>
<path d="M2212 1350 l2 -65 3 58 c4 52 6 57 28 57 13 0 30 3 39 6 9 3 16 1 16
-5 0 -6 -9 -11 -20 -11 -27 0 -37 -28 -16 -48 14 -14 18 -14 30 -2 15 15 19
32 17 62 -1 13 -11 16 -51 15 l-50 -2 2 -65z m78 15 c0 -8 -7 -15 -15 -15 -16
0 -20 12 -8 23 11 12 23 8 23 -8z"/>
<path d="M1968 1398 c-2 -4 -2 -37 0 -72 3 -48 8 -66 20 -71 9 -3 58 -3 109 1
l93 7 2 53 c1 30 2 61 2 70 1 14 -14 17 -111 18 -62 0 -114 -2 -115 -6z m177
-18 c-3 -5 -13 -10 -21 -10 -8 0 -12 5 -9 10 3 6 13 10 21 10 8 0 12 -4 9 -10z
m28 -7 c-7 -2 -9 -11 -6 -19 3 -8 2 -21 -1 -30 -5 -14 -9 -14 -22 -3 -14 11
-18 11 -28 -4 -10 -12 -16 -13 -24 -5 -9 9 -17 7 -32 -7 -11 -10 -17 -22 -14
-26 3 -5 0 -9 -5 -9 -6 0 -11 7 -11 15 0 8 -3 14 -7 14 -24 -4 -33 4 -33 25 0
14 5 28 11 32 8 5 8 9 -1 14 -6 4 3 7 20 8 19 0 28 -3 24 -10 -5 -7 -1 -7 11
-1 12 7 29 7 52 0 28 -9 37 -8 50 6 9 9 19 14 22 10 3 -3 1 -8 -6 -10z m-27
-68 c4 -8 10 -12 15 -9 5 3 9 0 9 -5 0 -14 -17 -14 -26 0 -4 8 -9 7 -15 -2 -6
-10 -9 -8 -9 9 0 25 18 30 26 7z m-56 -9 c0 -11 -19 -15 -25 -6 -3 5 1 10 9
10 9 0 16 -2 16 -4z m-85 -26 c3 -5 1 -10 -4 -10 -6 0 -11 5 -11 10 0 6 2 10
4 10 3 0 8 -4 11 -10z"/>
<path d="M1882 1368 c4 -30 43 -33 43 -3 0 13 -8 21 -23 23 -20 3 -23 0 -20
-20z m38 -4 c0 -9 -5 -14 -12 -12 -18 6 -21 28 -4 28 9 0 16 -7 16 -16z"/>
<path d="M2296 1308 c-3 -13 -6 -55 -6 -95 l0 -72 -32 -4 c-30 -3 -30 -4 7 -5
l40 -2 2 100 c3 101 0 119 -11 78z"/>
<path d="M2207 1263 c-8 -29 -9 -148 -2 -141 7 7 16 158 10 158 -2 0 -6 -8 -8
-17z"/>
<path d="M2013 1223 c-8 -3 -13 -21 -13 -44 l0 -39 85 0 85 0 0 44 0 43 -72 0
c-40 0 -79 -2 -85 -4z m147 -43 l0 -30 -70 0 -70 0 0 30 0 30 70 0 70 0 0 -30z"/>
<path d="M2190 1095 c-5 -23 3 -60 16 -70 9 -7 14 -41 16 -113 3 -97 2 -102
-17 -101 -11 0 -15 2 -10 5 12 5 8 204 -5 204 -4 0 -8 -49 -8 -110 l0 -110 29
0 c19 0 29 5 29 15 0 10 9 15 28 14 26 0 26 -1 5 -9 -30 -12 -29 -18 2 -12
l25 4 0 138 0 138 -37 -9 c-54 -12 -61 -11 -66 9 -3 9 -6 13 -7 7z m80 -39 c0
-2 -9 -6 -20 -9 -11 -3 -18 -1 -14 4 5 9 34 13 34 5z m16 -57 c-3 -17 -6 -59
-6 -93 0 -54 -2 -62 -19 -63 -18 -2 -20 7 -23 93 l-3 94 29 0 c27 0 28 -2 22
-31z"/>
<path d="M1851 940 l-1 -140 50 0 c27 0 60 -4 73 -9 18 -7 26 -6 29 2 2 7 4
73 4 146 l-1 135 -77 3 -77 3 0 -140z m24 120 c3 -5 1 -10 -4 -10 -6 0 -11 5
-11 10 0 6 2 10 4 10 3 0 8 -4 11 -10z m125 0 c0 -5 -4 -10 -10 -10 -5 0 -10
5 -10 10 0 6 5 10 10 10 6 0 10 -4 10 -10z m-60 -26 c0 -8 5 -15 10 -15 6 -1
15 -2 20 -3 12 -1 11 -12 -1 -45 -7 -17 -5 -30 6 -48 24 -36 9 -51 -41 -41
-36 8 -41 12 -38 31 4 21 4 21 -5 2 -6 -15 -5 -23 7 -32 19 -15 8 -17 -18 -3
-16 8 -17 14 -7 45 7 24 7 42 0 57 -12 28 -6 49 11 42 8 -3 16 4 19 15 6 24
37 19 37 -5z m53 -84 c-3 -12 -8 -19 -11 -16 -5 6 5 36 12 36 2 0 2 -9 -1 -20z
m-3 -109 c0 -12 -37 -21 -87 -21 -32 0 -43 4 -43 15 0 12 14 15 65 15 36 0 65
-4 65 -9z"/>
<path d="M1907 1016 c-10 -14 -13 -26 -7 -26 5 0 10 -18 10 -40 0 -29 5 -42
20 -50 16 -9 20 -8 20 5 0 8 -4 15 -10 15 -15 0 -12 67 3 74 6 3 2 3 -10 0
-23 -5 -33 11 -11 18 6 2 9 10 7 17 -3 9 -11 5 -22 -13z"/>
<path d="M2020 1068 c0 -3 6 -9 13 -12 7 -4 8 -8 2 -11 -14 -7 -6 -145 8 -145
16 0 37 48 30 68 -3 9 -13 25 -21 35 -14 16 -14 17 1 12 12 -5 15 -2 12 14 -2
12 1 21 7 21 5 0 8 -7 4 -15 -4 -11 2 -15 26 -15 l32 0 -22 -20 c-26 -24 -27
-33 -7 -50 19 -16 20 -34 1 -27 -24 9 -28 -6 -6 -23 21 -16 20 -16 -27 -16
l-48 1 -2 -42 -1 -43 43 0 c23 0 55 3 71 6 l29 6 0 93 c0 51 -4 97 -8 102 -5
4 -8 -1 -7 -12 5 -44 0 -168 -7 -162 -4 4 -7 54 -7 111 -1 77 2 99 10 88 9
-13 12 -13 17 2 12 32 -5 41 -76 41 -37 0 -67 -3 -67 -7z m97 -100 c-3 -8 -6
-5 -6 6 -1 11 2 17 5 13 3 -3 4 -12 1 -19z m-57 -12 c8 -11 10 -17 3 -13 -6 4
-14 1 -16 -5 -3 -7 -6 0 -6 16 -1 16 0 27 2 25 1 -2 9 -13 17 -23z m60 -120
c0 -16 -57 -32 -68 -21 -4 4 -2 10 4 12 6 2 9 15 6 29 l-5 26 32 -16 c17 -9
31 -23 31 -30z"/>
<path d="M2117 768 c2 -5 -30 -8 -72 -8 -62 0 -80 -4 -97 -20 -22 -20 -38 -18
-38 5 0 7 10 16 23 18 19 4 18 4 -5 6 -24 1 -28 -3 -28 -27 0 -59 12 -64 165
-63 83 0 141 4 143 10 2 7 12 7 29 0 34 -13 43 -4 43 44 l0 42 -84 0 c-46 0
-82 -3 -79 -7z m93 -15 c0 -4 -12 -20 -27 -35 -23 -25 -34 -28 -86 -28 -58 0
-60 1 -43 19 27 30 -7 35 -35 5 -14 -15 -34 -24 -53 -24 l-31 0 26 25 c20 21
38 27 90 31 35 3 65 7 67 9 6 6 92 4 92 -2z m60 -7 c0 -8 -4 -18 -10 -21 -5
-3 -10 -12 -10 -18 0 -7 4 -6 11 3 9 13 10 13 6 0 -2 -8 -12 -13 -23 -12 -28
6 -29 10 -8 34 10 13 2 7 -19 -11 -43 -41 -49 -36 -10 8 29 32 63 41 63 17z
m-232 -36 c-7 -11 -17 -20 -22 -20 -5 0 -1 9 9 20 10 11 20 20 22 20 2 0 -2
-9 -9 -20z"/>
<path d="M2057 642 c-22 -24 -21 -45 1 -65 35 -32 72 -14 72 35 0 17 -7 31
-19 38 -27 14 -35 13 -54 -8z m56 -13 c15 -24 1 -49 -27 -49 -27 0 -43 28 -25
44 9 8 10 7 4 -3 -8 -14 10 -31 33 -31 21 0 13 40 -10 50 -18 8 -19 9 -4 7 10
-1 23 -9 29 -18z"/>
<path d="M2260 615 c0 -9 7 -18 16 -22 12 -4 13 -8 3 -14 -7 -4 -19 -3 -26 3
-9 7 -13 7 -13 0 0 -13 39 -36 48 -28 3 3 -1 6 -9 6 -11 1 -10 3 2 10 11 6 15
18 11 35 -5 27 -32 35 -32 10z"/>
<path d="M1859 593 c4 -15 13 -29 20 -31 8 -3 11 0 7 6 -3 6 0 13 6 15 10 4
10 6 1 6 -7 1 -13 8 -13 16 0 8 -6 15 -14 15 -11 0 -12 -7 -7 -27z"/>
<path d="M917 1524 c-4 -4 -7 -27 -7 -51 0 -40 2 -43 28 -43 26 0 27 2 26 47
0 40 -3 48 -20 51 -11 2 -23 0 -27 -4z m33 -54 c0 -22 -4 -28 -15 -24 -8 4
-15 17 -15 30 0 15 6 24 15 24 10 0 15 -10 15 -30z"/>
<path d="M730 1467 l0 -53 33 4 c32 4 32 4 29 53 -4 47 -5 49 -33 49 -28 0
-29 -1 -29 -53z m50 -2 c0 -27 -4 -35 -18 -35 -14 0 -18 8 -19 35 -1 28 3 35
18 35 15 0 19 -7 19 -35z"/>
<path d="M810 1505 c0 -11 11 -15 40 -15 36 0 40 -2 40 -25 0 -22 -4 -25 -34
-25 -28 0 -35 4 -39 23 -4 19 -4 18 -6 -5 -1 -25 3 -28 28 -28 16 0 36 -3 45
-6 13 -5 16 2 16 45 l0 51 -45 0 c-33 0 -45 -4 -45 -15z"/>
<path d="M828 1223 c7 -3 16 -2 19 1 4 3 -2 6 -13 5 -11 0 -14 -3 -6 -6z"/>
<path d="M752 1145 c0 -16 2 -22 5 -12 2 9 2 23 0 30 -3 6 -5 -1 -5 -18z"/>
<path d="M857 1097 l-97 -9 4 -35 c4 -44 35 -85 69 -94 33 -9 91 8 113 33 18
19 33 119 18 117 -5 -1 -53 -6 -107 -12z m103 -30 c0 -29 -36 -87 -55 -88 -8
-1 -25 -2 -37 -3 -30 -3 -74 19 -82 39 -3 9 -6 27 -6 40 0 22 5 24 58 27 31 2
72 4 90 5 27 3 32 0 32 -20z"/>
<path d="M941 1054 c0 -11 3 -14 6 -6 3 7 2 16 -1 19 -3 4 -6 -2 -5 -13z"/>
<path d="M850 1035 c-10 -12 -10 -18 0 -30 16 -19 39 -19 46 0 6 15 -11 45
-26 45 -4 0 -13 -7 -20 -15z m33 -9 c6 -15 -1 -26 -15 -26 -4 0 -8 9 -8 20 0
23 15 27 23 6z"/>
<path d="M766 972 c-3 -6 -1 -14 5 -17 15 -10 25 3 12 16 -7 7 -13 7 -17 1z"/>
<path d="M960 970 c0 -5 5 -10 10 -10 6 0 10 5 10 10 0 6 -4 10 -10 10 -5 0
-10 -4 -10 -10z"/>
<path d="M810 1298 c0 -27 2 -28 48 -28 43 0 47 2 47 24 0 22 -5 25 -48 28
-45 3 -47 2 -47 -24z m80 -2 c0 -11 -10 -14 -35 -13 -47 3 -47 27 0 27 24 0
35 -5 35 -14z"/>
<path d="M1277 609 c7 -7 15 -10 18 -7 3 3 -2 9 -12 12 -14 6 -15 5 -6 -5z"/>
<path d="M2155 491 c-3 -10 -4 -25 -3 -32 2 -10 -11 -15 -44 -17 -42 -3 -47
-1 -45 17 1 12 7 21 14 21 7 0 10 -7 6 -17 -5 -13 -2 -15 11 -10 10 4 24 7 32
7 8 0 14 6 14 14 0 9 -12 14 -34 14 -19 0 -43 3 -55 7 -12 4 -21 2 -21 -4 0
-6 5 -11 11 -11 6 0 9 -6 6 -14 -9 -22 22 -41 62 -37 50 4 71 17 66 41 -2 11
1 20 6 20 6 0 7 5 4 10 -10 16 -23 12 -30 -9z"/>
<path d="M779 2183 c-1 -10 -1 -35 0 -55 l3 -38 -45 0 c-25 0 -53 -3 -62 -6
-15 -6 -16 -1 -12 45 3 28 1 51 -4 51 -5 0 -9 -22 -9 -49 l0 -48 -66 -7 c-57
-6 -68 -4 -80 11 -12 16 -13 16 -14 2 0 -9 -11 -20 -25 -23 -14 -4 -25 -11
-25 -16 0 -6 9 -6 25 0 22 8 27 7 35 -13 8 -21 9 -21 9 -1 1 19 8 21 104 27
56 4 117 10 136 13 l33 7 -3 -81 c-2 -45 -1 -78 3 -74 9 10 15 272 6 272 -5 0
-9 -8 -9 -17z"/>
<path d="M2437 2173 c-9 -16 -6 -593 3 -593 6 0 10 15 11 33 2 68 -3 562 -6
565 -2 2 -5 0 -8 -5z"/>
<path d="M2491 2163 c10 -17 27 -21 120 -27 60 -3 130 -9 156 -12 45 -5 47 -4
29 10 -15 12 -16 16 -5 18 8 1 -47 4 -121 8 -74 4 -148 11 -163 15 -27 7 -28
6 -16 -12z"/>
<path d="M1060 2119 c0 -31 4 -48 10 -44 6 3 10 26 10 51 0 24 -4 44 -10 44
-5 0 -10 -23 -10 -51z"/>
<path d="M2330 2148 c0 -42 12 -88 22 -88 6 0 8 18 3 48 -8 53 -25 81 -25 40z"/>
<path d="M1158 2143 c41 -4 42 -5 42 -39 0 -32 -2 -34 -32 -35 l-33 -1 30 -7
c40 -10 55 4 55 50 l0 39 -52 -2 c-51 -1 -51 -2 -10 -5z"/>
<path d="M2232 2096 c4 -32 2 -46 -8 -50 -17 -7 -20 -111 -3 -121 16 -10 21
-1 26 50 3 25 9 45 14 45 4 0 3 15 -2 32 -5 18 -9 45 -9 60 0 16 -5 28 -11 28
-8 0 -10 -15 -7 -44z"/>
<path d="M900 2120 l-25 -8 25 0 c14 -1 43 3 65 7 l40 9 -40 0 c-22 0 -51 -4
-65 -8z"/>
<path d="M1120 2120 c0 -5 5 -10 10 -10 6 0 10 5 10 10 0 6 -4 10 -10 10 -5 0
-10 -4 -10 -10z"/>
<path d="M849 2087 c-5 -34 -3 -37 16 -30 46 14 92 23 131 23 29 0 44 5 48 16
4 11 1 14 -12 10 -9 -3 -44 -10 -77 -15 -33 -5 -68 -12 -77 -16 -13 -5 -17 0
-20 22 -3 25 -4 24 -9 -10z"/>
<path d="M130 2101 c0 -5 6 -11 13 -14 8 -3 11 -24 9 -70 -3 -51 -7 -67 -20
-70 -15 -3 -15 -5 2 -12 27 -12 37 11 34 77 -1 32 2 61 5 65 4 3 7 -29 8 -73
0 -43 3 -73 6 -67 3 9 10 10 23 3 11 -6 21 -6 24 -1 3 5 -5 12 -19 15 -23 6
-25 11 -25 61 0 62 17 75 23 18 l4 -38 1 36 c2 34 4 35 32 31 17 -2 30 0 30 6
0 13 -25 22 -61 22 -16 0 -29 5 -29 12 0 9 -3 9 -12 0 -7 -7 -17 -8 -30 -1
-10 6 -18 6 -18 0z"/>
<path d="M2292 2085 c0 -16 2 -22 5 -12 2 9 2 23 0 30 -3 6 -5 -1 -5 -18z"/>
<path d="M2535 2102 c-17 -2 -20 -9 -17 -37 3 -26 9 -35 23 -35 15 0 19 7 19
31 0 20 4 29 13 27 8 -3 12 -29 13 -79 l1 -74 -7 65 c-4 44 -7 53 -8 28 -2
-30 -6 -38 -21 -38 -11 0 -21 8 -23 18 -3 16 -4 16 -11 -1 -5 -14 -2 -20 13
-24 11 -3 20 -14 20 -24 0 -24 -17 -25 -23 -1 -3 11 -5 8 -6 -9 -1 -23 2 -26
23 -22 17 4 25 0 29 -14 4 -16 5 -16 6 0 1 18 12 21 49 11 18 -5 22 -13 22
-50 0 -24 -4 -44 -10 -44 -5 0 -10 16 -10 36 0 19 -4 33 -9 30 -5 -4 -12 0
-14 6 -4 10 -6 10 -6 1 -1 -7 -12 -13 -25 -13 -22 0 -43 -26 -31 -38 3 -3 5 0
5 7 0 8 7 11 15 7 8 -3 15 -1 15 4 0 6 5 10 11 10 7 0 9 -11 6 -30 -5 -22 -3
-30 7 -30 8 0 17 -6 19 -12 4 -10 6 -10 6 0 1 17 21 15 21 -3 0 -8 -9 -15 -20
-15 -11 0 -20 5 -20 10 0 6 -4 10 -10 10 -15 0 -12 -19 5 -36 8 -9 15 -11 15
-5 0 6 7 11 16 11 12 0 15 -7 12 -25 -4 -17 -1 -25 8 -25 8 0 14 -10 13 -22
-1 -17 -2 -19 -6 -5 -6 25 -21 21 -19 -5 1 -13 7 -22 14 -20 7 1 12 -4 12 -12
0 -9 -8 -12 -26 -8 -25 4 -26 8 -21 48 4 38 2 44 -14 44 -11 0 -19 -5 -19 -11
0 -5 4 -8 9 -4 6 3 9 -4 8 -15 -1 -15 -8 -20 -29 -20 -18 0 -28 5 -28 15 0 8
7 15 15 15 8 0 15 5 15 11 0 6 -7 9 -15 5 -11 -4 -15 1 -15 19 0 18 4 23 15
19 8 -4 15 -1 15 5 0 6 -11 11 -25 11 -16 0 -25 6 -25 16 0 12 6 15 25 10 14
-4 25 -2 25 3 0 5 -13 11 -30 13 l-30 5 -1 -111 c-1 -61 -2 -123 -3 -139 -1
-15 2 -33 6 -40 4 -7 8 12 10 43 1 46 2 48 5 16 5 -41 33 -82 41 -58 2 7 8 10
13 6 5 -3 10 7 10 23 2 26 2 25 9 -7 7 -33 7 -31 9 18 0 28 6 52 11 52 6 0 10
-4 10 -10 0 -5 7 -7 15 -4 10 4 15 0 15 -11 0 -11 -5 -15 -15 -11 -8 3 -15 1
-15 -4 0 -6 7 -10 15 -10 18 0 20 -26 3 -36 -7 -4 -8 -3 -4 4 4 7 2 12 -3 12
-6 0 -11 -8 -11 -17 0 -12 8 -18 23 -18 12 -1 32 -4 45 -9 16 -5 22 -4 22 7 0
9 6 18 13 20 10 4 10 6 0 6 -19 1 -16 21 3 21 13 0 15 -8 12 -40 -2 -22 0 -40
4 -40 5 0 8 6 8 14 0 8 6 17 13 19 9 4 9 7 -1 14 -8 6 -11 23 -8 46 5 34 3 37
-19 38 -14 1 -29 3 -35 4 -5 1 -17 3 -25 4 -8 0 -15 8 -15 17 0 11 5 14 18 9
9 -4 24 -8 32 -10 8 -2 23 -6 33 -10 9 -4 17 -3 17 3 0 5 -16 13 -35 16 -28 6
-35 11 -34 29 0 21 1 21 9 2 8 -18 9 -19 9 -1 1 12 6 16 17 12 9 -3 18 -6 20
-6 2 0 4 -8 4 -17 0 -9 2 -14 6 -11 7 8 7 298 0 306 -3 3 -6 0 -6 -6 0 -7 -4
-12 -10 -12 -5 0 -10 11 -10 25 0 23 2 24 20 15 14 -7 20 -7 20 0 0 5 -4 10
-10 10 -15 0 -12 48 3 53 21 7 0 19 -29 15 -26 -3 -27 -4 -11 -20 19 -18 22
-38 7 -38 -6 0 -10 -32 -9 -77 1 -43 3 -70 6 -60 7 25 23 21 23 -7 0 -19 -4
-23 -20 -19 -18 5 -20 14 -22 107 -1 84 -2 93 -8 51 l-7 -50 1 56 2 56 -51 2
c-28 1 -65 5 -81 9 -16 4 -38 6 -49 4z m15 -38 c0 -14 -4 -23 -9 -20 -5 3 -7
15 -4 26 7 28 13 25 13 -6z m67 -39 c-3 -30 -1 -58 4 -61 5 -3 9 9 9 25 0 17
5 31 10 31 6 0 10 -20 10 -45 0 -25 -4 -45 -10 -45 -5 0 -10 4 -10 10 0 5 -7
7 -15 4 -12 -5 -15 6 -15 65 0 44 4 71 11 71 6 0 9 -20 6 -55z m33 30 c0 -14
-4 -25 -10 -25 -5 0 -10 11 -10 25 0 14 5 25 10 25 6 0 10 -11 10 -25z m26
-29 c3 -29 1 -46 -5 -46 -7 0 -11 22 -11 52 0 62 9 58 16 -6z m24 -29 c0 -50
-3 -67 -10 -57 -6 10 -10 11 -10 3 0 -7 -4 -13 -10 -13 -5 0 -10 9 -10 20 0
12 7 20 16 20 14 0 16 9 12 55 -3 30 -1 52 4 49 4 -3 8 -38 8 -77z m-133 -49
c-3 -7 -5 -2 -5 12 0 14 2 19 5 13 2 -7 2 -19 0 -25z m150 -10 c-3 -8 -6 -5
-6 6 -1 11 2 17 5 13 3 -3 4 -12 1 -19z m53 1 c0 -11 -4 -17 -10 -14 -5 3 -10
13 -10 21 0 8 5 14 10 14 6 0 10 -9 10 -21z m-93 -69 c-3 -53 9 -69 16 -22 2
15 5 5 5 -23 1 -46 0 -48 -13 -31 -15 19 -15 19 -15 -2 0 -17 6 -22 25 -22 17
0 25 -6 25 -17 0 -15 2 -15 9 -4 5 8 16 11 25 8 27 -10 18 -27 -14 -27 -16 0
-30 4 -30 10 0 5 -7 7 -15 4 -9 -4 -15 0 -15 7 0 11 -3 11 -10 -1 -7 -10 -10
14 -10 78 0 55 4 92 10 92 6 0 9 -21 7 -50z m34 35 c5 14 8 2 8 -37 1 -55 2
-58 26 -58 18 0 25 -5 25 -20 0 -13 -7 -20 -20 -20 -12 0 -20 7 -20 18 0 14
-2 15 -10 2 -7 -11 -10 0 -10 38 0 28 -4 52 -10 52 -5 0 -9 10 -9 23 1 20 2
20 7 2 5 -20 5 -20 13 0z m-94 -57 c-3 -7 -5 -2 -5 12 0 14 2 19 5 13 2 -7 2
-19 0 -25z m139 -1 c9 3 14 -1 14 -12 0 -24 -34 -15 -37 10 -2 11 0 15 3 8 3
-7 12 -9 20 -6z m-219 -89 c-3 -7 -5 -2 -5 12 0 14 2 19 5 13 2 -7 2 -19 0
-25z m0 -80 c-2 -13 -4 -5 -4 17 -1 22 1 32 4 23 2 -10 2 -28 0 -40z m163 32
c0 -11 -4 -20 -10 -20 -5 0 -10 9 -10 20 0 11 5 20 10 20 6 0 10 -9 10 -20z
m-143 -42 c-3 -8 -6 -5 -6 6 -1 11 2 17 5 13 3 -3 4 -12 1 -19z m53 7 c0 -8
-9 -15 -20 -15 -11 0 -20 7 -20 15 0 8 9 15 20 15 11 0 20 -7 20 -15z m0 -42
c0 -15 -2 -16 -10 -3 -6 10 -10 11 -10 3 0 -7 -9 -13 -20 -13 -11 0 -20 7 -20
15 0 10 10 15 30 15 22 0 30 -5 30 -17z m88 -27 c0 -18 -4 -39 -9 -47 -6 -9
-9 2 -9 34 0 26 4 47 9 47 5 0 9 -15 9 -34z m52 9 c-3 -5 -11 -9 -17 -9 -8 1
-13 -10 -13 -27 0 -16 -3 -29 -8 -29 -4 0 -6 18 -4 41 4 34 7 40 26 37 11 -2
19 -7 16 -13z m-160 -20 c0 -8 -9 -15 -20 -15 -11 0 -20 7 -20 15 0 8 9 15 20
15 11 0 20 -7 20 -15z"/>
<path d="M340 2080 c0 -5 5 -10 10 -10 6 0 10 5 10 10 0 6 -4 10 -10 10 -5 0
-10 -4 -10 -10z"/>
<path d="M123 2020 c0 -36 2 -50 4 -32 2 17 2 47 0 65 -2 17 -4 3 -4 -33z"/>
<path d="M240 2015 c0 -19 5 -35 10 -35 6 0 10 16 10 35 0 19 -4 35 -10 35 -5
0 -10 -16 -10 -35z"/>
<path d="M640 2042 c-5 -2 -10 -12 -10 -23 0 -16 7 -19 45 -19 25 0 45 4 45 9
0 5 -19 7 -42 4 -29 -4 -39 -3 -34 5 4 7 25 12 47 12 21 0 39 5 39 10 0 9 -63
10 -90 2z"/>
<path d="M2280 2028 c0 -13 -3 -39 -6 -59 -5 -29 -3 -36 10 -36 9 0 16 6 16
14 0 7 -4 13 -9 13 -5 0 -6 20 -3 45 2 25 2 45 -2 45 -3 0 -6 -10 -6 -22z"/>
<path d="M2307 2020 c-7 -32 0 -60 14 -60 5 0 9 20 9 45 0 51 -14 60 -23 15z"/>
<path d="M945 2028 c-27 -5 -65 -11 -83 -14 -27 -4 -31 -8 -22 -19 7 -8 8 -19
4 -26 -5 -9 9 -10 57 -5 92 10 98 11 106 20 7 8 -33 4 -114 -10 -26 -5 -33 -3
-33 10 0 16 9 19 100 33 30 4 51 11 45 14 -5 3 -32 2 -60 -3z"/>
<path d="M326 2012 c-4 -13 -5 -26 -2 -29 10 -11 18 4 14 29 l-4 23 -8 -23z"/>
<path d="M379 2013 c-1 -5 -1 -12 0 -17 3 -13 -20 -36 -30 -30 -5 3 -9 -5 -9
-17 0 -18 3 -20 12 -11 19 19 28 14 28 -14 0 -14 4 -23 10 -19 12 8 13 65 1
65 -4 0 -6 11 -3 25 2 14 2 25 -2 25 -3 0 -7 -3 -7 -7z"/>
<path d="M1880 1999 c-14 -4 -81 -18 -150 -30 -69 -12 -119 -24 -113 -26 7 -3
60 5 119 16 58 12 116 21 128 21 22 0 54 16 46 23 -3 2 -16 0 -30 -4z"/>
<path d="M641 1976 c-8 -10 -9 -16 -1 -21 5 -3 10 -1 10 4 0 6 16 11 35 11 19
0 35 5 35 10 0 15 -66 12 -79 -4z"/>
<path d="M2350 1933 c0 -28 3 -34 10 -23 13 20 13 60 0 60 -5 0 -10 -17 -10
-37z"/>
<path d="M1256 1946 c3 -9 11 -16 16 -16 13 0 5 23 -10 28 -7 2 -10 -2 -6 -12z"/>
<path d="M560 1930 c-8 -5 -11 -12 -7 -16 4 -4 13 -2 19 4 15 15 7 24 -12 12z"/>
<path d="M1515 1930 c-27 -7 -27 -8 -5 -8 14 0 36 4 50 8 20 6 21 8 5 8 -11 0
-33 -4 -50 -8z"/>
<path d="M321 1914 c0 -11 3 -14 6 -6 3 7 2 16 -1 19 -3 4 -6 -2 -5 -13z"/>
<path d="M355 1920 c-3 -5 -1 -10 4 -10 6 0 11 5 11 10 0 6 -2 10 -4 10 -3 0
-8 -4 -11 -10z"/>
<path d="M140 1902 c-17 -8 -25 -82 -10 -82 6 0 10 16 10 35 0 19 4 35 9 35 5
0 8 -20 7 -45 -1 -40 -4 -45 -24 -45 -19 0 -21 -2 -10 -14 9 -10 18 -11 32 -4
10 5 27 7 38 5 26 -7 50 2 41 16 -4 6 -5 33 -4 60 2 43 0 49 -14 43 -9 -3 -21
-6 -26 -6 -5 0 -8 -21 -7 -47 l1 -48 4 43 c5 53 23 56 23 3 0 -34 -12 -51 -36
-51 -2 0 -4 25 -4 55 0 55 -3 59 -30 47z"/>
<path d="M2520 1894 c0 -8 5 -12 10 -9 6 3 10 10 10 16 0 5 -4 9 -10 9 -5 0
-10 -7 -10 -16z"/>
<path d="M898 1783 c-5 -28 -4 -63 3 -63 5 0 9 16 9 35 0 31 -7 48 -12 28z"/>
<path d="M922 1760 c0 -14 2 -19 5 -12 2 6 2 18 0 25 -3 6 -5 1 -5 -13z"/>
<path d="M1128 1733 c6 -2 18 -2 25 0 6 3 1 5 -13 5 -14 0 -19 -2 -12 -5z"/>
<path d="M860 1706 c0 -14 5 -28 10 -31 6 -4 10 7 10 24 0 17 -4 31 -10 31 -5
0 -10 -11 -10 -24z"/>
<path d="M923 1716 c-10 -11 -9 -15 2 -20 10 -4 15 1 15 14 0 23 -1 24 -17 6z"/>
<path d="M102 1568 c2 -24 7 -42 13 -40 5 2 12 -5 16 -15 5 -12 8 -6 8 20 1
25 -4 40 -15 44 -8 3 -13 12 -10 19 3 8 1 14 -5 14 -6 0 -9 -18 -7 -42z"/>
<path d="M2440 1520 c0 -16 16 -20 142 -35 67 -8 151 -21 186 -28 47 -10 62
-11 62 -2 0 7 -13 12 -29 13 -16 0 -46 5 -67 11 -22 5 -86 15 -142 21 -57 6
-115 15 -128 20 -15 6 -24 6 -24 0z"/>
<path d="M2420 1407 c0 -59 3 -107 8 -107 4 0 7 45 7 99 0 55 -3 103 -7 107
-5 4 -8 -41 -8 -99z"/>
<path d="M633 1473 c-7 -3 -13 -17 -13 -31 l0 -27 -13 24 c-18 36 -41 40 -35
7 3 -15 2 -29 -3 -31 -10 -7 -22 32 -14 45 3 6 -1 7 -9 4 -9 -3 -16 -12 -16
-19 0 -7 -2 -19 -5 -27 -4 -9 4 -13 25 -12 16 1 43 2 59 3 24 1 30 6 35 33 7
35 6 37 -11 31z"/>
<path d="M660 1445 c0 -19 4 -35 9 -35 12 0 19 29 13 53 -7 30 -22 18 -22 -18z"/>
<path d="M2493 1436 c3 -7 1 -18 -5 -24 -6 -6 -6 -12 1 -16 6 -4 11 -18 11
-32 0 -13 5 -24 10 -24 6 0 10 5 10 11 0 5 4 8 10 4 5 -3 7 -12 3 -20 -4 -11
-1 -13 11 -9 20 8 20 18 1 34 -16 13 -11 49 8 61 17 12 -3 29 -35 29 -21 0
-29 -4 -25 -14z"/>
<path d="M2611 1438 c0 -10 -8 -18 -16 -18 -8 0 -15 -7 -15 -16 0 -8 5 -12 10
-9 6 4 10 -7 10 -25 0 -28 24 -90 35 -90 2 0 2 13 0 30 -2 16 1 32 6 35 16 10
10 23 -13 28 -21 4 -21 4 -2 6 17 1 20 6 17 34 -3 24 -2 29 6 17 9 -13 11 -12
11 3 0 26 -23 15 -31 -14 -6 -23 -6 -23 -11 6 -3 17 -6 22 -7 13z"/>
<path d="M2724 1425 c3 -8 0 -15 -7 -15 -15 0 -19 -50 -6 -67 7 -7 6 -14 -1
-18 -12 -7 -4 -25 11 -25 6 0 7 5 4 10 -3 6 1 10 10 10 12 0 15 5 11 16 -3 9
-6 36 -6 60 0 25 -5 44 -11 44 -6 0 -9 -7 -5 -15z m2 -72 c-10 -10 -19 5 -10
18 6 11 8 11 12 0 2 -7 1 -15 -2 -18z"/>
<path d="M41 1400 c0 -33 1 -34 10 -11 6 16 6 28 -1 35 -7 7 -10 -1 -9 -24z"/>
<path d="M210 1356 c0 -37 -4 -66 -10 -66 -5 0 -10 10 -11 23 -1 21 -1 21 -9
-3 -4 -14 -8 -41 -8 -60 l0 -35 8 30 c4 17 8 26 9 20 1 -5 6 -3 12 5 9 12 10
11 6 -5 -3 -11 -8 -28 -12 -37 -5 -13 -2 -18 8 -18 9 0 18 8 20 18 3 10 5 6 6
-11 1 -17 5 -26 12 -22 6 4 7 19 3 38 -3 17 -6 51 -6 76 0 34 -2 41 -8 26 -6
-14 -8 -5 -6 28 2 26 -1 50 -5 53 -5 3 -9 -24 -9 -60z"/>
<path d="M2790 1413 c0 -12 38 -48 45 -41 3 2 -6 15 -20 28 -14 13 -25 19 -25
13z"/>
<path d="M91 1368 c1 -57 12 -97 22 -81 5 7 4 28 -2 48 -5 19 -7 44 -4 55 3
11 0 20 -6 20 -6 0 -11 -17 -10 -42z"/>
<path d="M536 1378 c3 -5 -13 -6 -35 -3 -37 4 -41 2 -47 -19 -10 -42 -1 -71
24 -74 12 -2 22 -8 22 -13 0 -9 -46 -5 -92 8 -10 2 -18 0 -18 -6 0 -6 3 -11 6
-11 4 0 54 -7 111 -16 118 -17 161 -14 64 5 -34 7 -61 14 -59 17 10 9 67 11
62 2 -4 -5 2 -8 12 -7 11 2 25 0 33 -5 10 -6 12 -5 7 3 -5 7 0 18 10 26 25 19
34 18 34 0 0 -8 4 -15 9 -15 5 0 9 20 8 44 0 32 -4 43 -14 39 -16 -6 -17 -15
-1 -31 9 -9 8 -12 -4 -12 -9 0 -18 10 -20 23 -6 30 1 49 14 41 7 -5 8 -2 3 6
-6 10 -10 10 -20 -3 -9 -13 -14 -14 -25 -4 -7 7 -10 7 -7 1 4 -7 -5 -9 -24 -6
-16 2 -29 8 -29 11 0 4 -7 8 -15 8 -8 0 -12 -4 -9 -9z m47 -31 c18 10 47 -9
47 -32 0 -24 -2 -24 -79 -22 -78 2 -80 2 -84 30 -2 15 -2 29 0 30 1 2 26 0 55
-4 29 -3 56 -5 61 -2z"/>
<path d="M511 1314 c0 -11 3 -14 6 -6 3 7 2 16 -1 19 -3 4 -6 -2 -5 -13z"/>
<path d="M530 1320 c0 -5 5 -10 11 -10 5 0 7 5 4 10 -3 6 -8 10 -11 10 -2 0
-4 -4 -4 -10z"/>
<path d="M141 1350 c0 -19 3 -30 7 -24 4 6 15 13 25 17 19 7 22 22 7 32 -5 3
-10 -1 -10 -9 0 -22 -17 -20 -23 2 -3 9 -5 1 -6 -18z"/>
<path d="M50 1339 c0 -11 -4 -18 -10 -14 -5 3 -8 -7 -7 -25 1 -16 6 -30 11
-30 4 0 6 9 3 19 -3 12 3 27 14 37 23 21 24 34 4 34 -8 0 -15 -9 -15 -21z"/>
<path d="M387 1354 c-8 -8 1 -24 14 -24 5 0 9 7 9 15 0 15 -12 20 -23 9z"/>
<path d="M2770 1330 c0 -5 5 -10 10 -10 6 0 10 5 10 10 0 6 -4 10 -10 10 -5 0
-10 -4 -10 -10z"/>
<path d="M331 1291 c-1 -24 2 -32 9 -25 7 7 7 19 1 35 -9 23 -10 22 -10 -10z"/>
<path d="M1 1301 c5 -13 19 -16 20 -4 0 4 -5 9 -12 12 -6 2 -10 -2 -8 -8z"/>
<path d="M140 1276 c0 -14 5 -26 10 -26 6 0 10 9 10 19 0 11 -4 23 -10 26 -6
4 -10 -5 -10 -19z"/>
<path d="M2741 1284 c0 -11 3 -14 6 -6 3 7 2 16 -1 19 -3 4 -6 -2 -5 -13z"/>
<path d="M110 1256 c0 -9 5 -16 10 -16 6 0 10 4 10 9 0 6 -4 13 -10 16 -5 3
-10 -1 -10 -9z"/>
<path d="M2455 1248 c11 -6 40 -13 65 -14 38 -2 239 -43 293 -60 9 -3 17 -1
17 4 0 16 -297 82 -364 82 -28 -1 -29 -2 -11 -12z"/>
<path d="M397 1162 c4 -48 7 -97 6 -109 -1 -17 5 -23 21 -23 25 0 26 4 11 137
-6 58 -11 72 -27 76 -18 5 -19 1 -11 -81z m36 -121 c-11 -16 -18 24 -20 102
l-1 92 12 -95 c6 -52 10 -97 9 -99z"/>
<path d="M333 1215 c0 -14 3 -25 8 -25 5 0 9 11 9 25 0 14 -4 25 -9 25 -5 0
-8 -11 -8 -25z"/>
<path d="M499 1216 c11 -13 8 -20 -18 -42 -17 -14 -31 -35 -31 -47 0 -18 3
-17 16 10 24 49 44 50 44 3 0 -37 2 -40 38 -49 37 -10 75 -14 100 -12 7 1 12
15 12 33 0 34 -14 29 -23 -7 -3 -12 -5 -5 -6 16 -1 31 2 35 20 34 27 -2 52
-34 45 -57 -2 -10 0 -18 5 -18 15 0 10 44 -7 68 -9 13 -26 22 -42 23 -15 0
-21 3 -14 6 6 2 12 11 12 18 0 14 -19 19 -114 30 -43 5 -48 4 -37 -9z m43 -63
c3 -30 0 -43 -9 -43 -14 0 -17 30 -6 81 8 36 10 30 15 -38z m35 35 c-3 -8 -6
-5 -6 6 -1 11 2 17 5 13 3 -3 4 -12 1 -19z m31 -19 c-10 -6 -10 -9 0 -9 7 0
12 -14 12 -36 0 -43 -22 -42 -31 2 l-7 29 -1 -27 c-1 -27 -21 -41 -21 -15 0 6
-3 23 -7 35 -5 21 -3 23 18 20 17 -2 27 3 34 20 8 19 11 20 13 6 2 -9 -2 -20
-10 -25z"/>
<path d="M2420 1148 c0 -40 -3 -84 -6 -98 -5 -17 -3 -22 4 -15 12 12 22 174
10 181 -4 3 -8 -28 -8 -68z"/>
<path d="M2555 1168 c-3 -24 -1 -65 3 -93 9 -49 9 -48 13 38 4 93 -6 128 -16
55z"/>
<path d="M2476 1191 c-4 -5 -1 -11 5 -13 8 -3 7 -12 -6 -31 -10 -15 -13 -27
-6 -27 5 0 8 -7 5 -15 -4 -10 0 -15 14 -15 23 0 40 19 25 29 -11 7 -11 61 0
61 5 0 5 5 2 10 -8 13 -32 13 -39 1z"/>
<path d="M1060 1138 c0 -18 5 -53 11 -77 5 -24 10 -82 11 -128 1 -56 5 -82 12
-80 6 3 10 10 8 16 -1 7 -5 60 -7 119 -6 128 -14 182 -26 182 -5 0 -9 -15 -9
-32z"/>
<path d="M125 1150 c3 -5 18 -10 33 -10 15 0 67 -13 115 -28 59 -19 87 -25 87
-16 0 6 -10 14 -22 17 -13 3 -59 15 -103 26 -89 23 -119 26 -110 11z"/>
<path d="M1115 1028 c3 -68 11 -127 16 -133 6 -5 7 17 4 58 -3 45 -1 67 6 67
6 0 9 -9 6 -20 -3 -11 -2 -20 2 -20 4 0 8 -15 9 -32 2 -18 7 -37 13 -43 7 -7
9 4 5 35 -2 25 -5 73 -5 108 -1 34 -5 62 -11 62 -5 0 -10 -12 -11 -27 0 -25
-1 -26 -9 -8 -5 11 -9 32 -9 48 -1 15 -6 27 -12 27 -8 0 -10 -34 -4 -122z"/>
<path d="M1035 1088 c3 -13 9 -45 11 -73 5 -52 10 -63 21 -52 10 10 -17 147
-29 147 -6 0 -7 -9 -3 -22z"/>
<path d="M2661 1084 c0 -11 3 -14 6 -6 3 7 2 16 -1 19 -3 4 -6 -2 -5 -13z"/>
<path d="M477 1083 c-4 -3 -7 -11 -7 -17 0 -6 5 -5 12 2 6 6 9 14 7 17 -3 3
-9 2 -12 -2z"/>
<path d="M1189 1065 c-1 -26 0 -55 5 -164 1 -13 7 -26 14 -29 10 -3 12 17 8
99 -3 56 -10 107 -16 113 -7 7 -10 1 -11 -19z"/>
<path d="M2477 1054 c-2 -14 2 -29 11 -36 13 -11 14 -10 10 2 -3 8 1 22 9 31
12 14 11 17 -6 22 -14 3 -20 -1 -24 -19z"/>
<path d="M2475 943 c-4 -21 -11 -50 -17 -65 -5 -15 -7 -46 -4 -70 l7 -43 -22
55 c-12 30 -22 68 -23 84 -2 51 -24 41 -34 -16 -27 -142 -29 -167 -15 -172 9
-4 13 -28 13 -86 0 -47 4 -80 10 -80 6 0 11 12 11 28 l1 27 8 -30 c5 -20 8 3
9 72 0 56 6 105 11 108 6 4 10 -6 10 -22 0 -20 3 -24 9 -14 6 9 9 -2 10 -35 0
-27 5 -63 10 -81 5 -17 7 -34 4 -37 -7 -7 7 -66 16 -66 5 0 12 51 16 113 10
139 10 143 19 192 4 26 2 52 -6 70 -6 17 -12 45 -13 64 0 48 -22 51 -30 4z
m-70 -63 c3 -5 1 -10 -4 -10 -6 0 -11 5 -11 10 0 6 2 10 4 10 3 0 8 -4 11 -10z
m107 -30 c4 -42 -12 -110 -28 -110 -11 0 -14 15 -14 63 0 82 33 119 42 47z
m-92 -48 c0 -52 -6 -65 -34 -75 -14 -6 -17 -4 -11 10 3 10 9 32 11 48 11 64
15 76 24 70 6 -3 10 -27 10 -53z m69 -140 c0 -41 -3 -51 -9 -37 -12 29 -12
108 0 100 6 -3 10 -32 9 -63z m-92 -19 c-2 -16 -4 -3 -4 27 0 30 2 43 4 28 2
-16 2 -40 0 -55z"/>
<path d="M2529 943 c-2 -27 2 -47 10 -53 15 -10 20 -40 11 -72 -6 -18 -12 -53
-14 -79 -3 -26 -8 -59 -12 -73 -5 -23 -3 -28 16 -33 20 -5 21 -10 15 -58 -7
-56 2 -108 16 -99 5 3 9 1 9 -5 0 -6 6 -8 14 -5 17 7 86 -22 86 -35 0 -17 -18
-13 -29 7 -7 11 -10 12 -11 3 0 -7 -6 -11 -15 -7 -10 3 -15 -1 -15 -13 0 -10
-3 -32 -6 -49 -5 -24 -2 -31 14 -36 18 -6 19 -10 9 -37 -10 -24 -9 -32 3 -39
22 -14 40 -12 34 3 -2 7 2 26 10 42 l15 29 10 -28 c6 -15 14 -38 17 -51 7 -29
26 -32 48 -9 20 19 20 28 1 20 -16 -6 -18 -2 -39 112 -8 41 -10 75 -5 78 5 3
6 16 3 30 -3 13 -2 24 2 24 22 -1 33 -19 37 -60 l4 -45 1 50 c1 73 1 79 8 72
4 -4 6 -43 5 -87 -1 -50 2 -80 8 -80 7 0 11 30 12 75 1 41 3 90 5 108 2 17 3
57 3 89 0 56 15 89 19 42 1 -14 6 -33 12 -43 6 -13 5 -46 -6 -105 -8 -50 -11
-93 -6 -101 5 -10 12 20 20 84 11 86 11 107 -4 162 -15 58 -44 129 -52 129 -2
0 -11 -8 -20 -17 -13 -12 -18 -41 -22 -112 -4 -53 -2 -100 2 -105 11 -14 10
-36 -2 -36 -5 0 -12 10 -15 22 -5 20 -15 227 -15 322 -1 29 -15 56 -30 56 -12
0 -19 -53 -9 -71 6 -11 4 -21 -5 -29 -15 -12 -26 -59 -28 -123 -1 -21 -5 -40
-10 -43 -4 -3 -8 -22 -8 -42 0 -20 -7 -50 -15 -66 -8 -15 -15 -37 -15 -47 0
-11 -4 -19 -8 -19 -12 0 -37 49 -29 57 4 3 7 -1 7 -11 0 -15 2 -16 15 -2 10
10 15 35 15 79 0 46 4 68 15 77 13 11 15 27 9 84 -4 39 -11 76 -16 83 -5 7 -7
21 -4 31 8 23 -2 52 -16 52 -6 0 -8 -15 -4 -37 4 -27 3 -32 -4 -18 -8 19 -9
18 -11 -5 -1 -14 -5 -3 -8 24 -6 48 -30 77 -32 39z m18 -25 c-3 -8 -6 -5 -6 6
-1 11 2 17 5 13 3 -3 4 -12 1 -19z m39 -147 c-8 -11 -8 -13 1 -8 7 5 9 0 6
-13 l-6 -21 -14 21 c-12 17 -12 26 -2 58 l13 37 6 -30 c4 -16 2 -36 -4 -44z
m124 14 c0 -42 -3 -55 -15 -55 -19 0 -21 80 -3 98 18 18 18 17 18 -43z m93
-46 c-9 -113 -17 -156 -29 -156 -18 0 -20 157 -2 175 18 18 33 8 31 -19z
m-246 -11 c-3 -8 -6 -5 -6 6 -1 11 2 17 5 13 3 -3 4 -12 1 -19z m50 -15 c-3
-10 -5 -4 -5 12 0 17 2 24 5 18 2 -7 2 -21 0 -30z m60 -5 c-3 -8 -6 -5 -6 6
-1 11 2 17 5 13 3 -3 4 -12 1 -19z m47 -10 c9 -34 6 -46 -5 -20 -5 13 -13 20
-19 17 -5 -3 -10 1 -10 9 0 24 27 19 34 -6z m-156 -18 c-1 -16 -5 -30 -10 -30
-4 0 -8 14 -8 30 0 17 4 30 9 30 5 0 9 -13 9 -30z m31 -22 c-1 -18 -5 -44 -9
-58 -6 -19 -8 -11 -9 33 -1 32 3 57 9 57 6 0 10 -15 9 -32z m78 10 c-3 -8 -6
-5 -6 6 -1 11 2 17 5 13 3 -3 4 -12 1 -19z m33 -29 c0 -11 -4 -17 -10 -14 -5
3 -10 13 -10 21 0 8 5 14 10 14 6 0 10 -9 10 -21z m-40 -8 c0 -6 -4 -13 -10
-16 -5 -3 -10 1 -10 9 0 9 5 16 10 16 6 0 10 -4 10 -9z m50 -51 c0 -16 4 -30
8 -30 5 0 4 -20 -2 -44 -14 -62 -36 -43 -37 33 -1 46 -3 51 -9 26 l-8 -30 -1
31 c-1 35 5 44 31 44 13 0 18 -8 18 -30z m-62 -44 c-1 -57 -3 -63 -19 -59 -20
6 -27 43 -8 43 5 0 8 4 5 9 -5 7 14 71 21 71 1 0 2 -29 1 -64z m26 -46 c4 -25
3 -31 -4 -20 -5 8 -10 26 -10 39 0 32 6 24 14 -19z m81 22 c-3 -3 -11 0 -18 7
-9 10 -8 11 6 5 10 -3 15 -9 12 -12z m-51 -77 c3 -8 1 -15 -4 -15 -6 0 -10 7
-10 15 0 8 2 15 4 15 2 0 6 -7 10 -15z m-28 -25 c21 0 24 -5 24 -35 0 -38 -1
-38 -49 -29 -28 6 -31 10 -31 41 0 28 3 34 16 29 9 -3 27 -6 40 -6z m63 -155
c-1 -21 -27 61 -28 85 0 14 6 4 14 -25 8 -27 14 -54 14 -60z m-69 68 c0 -5 -7
-17 -15 -27 -15 -20 -15 -20 -15 0 0 12 3 24 7 27 9 9 23 9 23 0z"/>
<path d="M100 934 c0 -5 63 -31 140 -59 77 -27 140 -52 140 -56 0 -4 -7 -12
-15 -19 -13 -10 -39 -3 -151 44 -75 31 -144 55 -153 53 -18 -4 -27 0 154 -76
112 -48 120 -53 118 -77 -1 -15 2 -35 7 -44 6 -12 5 -23 -5 -36 -8 -11 -15
-34 -15 -51 0 -18 -5 -33 -10 -33 -6 0 -8 10 -5 23 7 27 -14 50 -38 41 -9 -3
-17 -18 -19 -32 -2 -16 -12 -31 -26 -38 -34 -17 -34 -16 -39 -108 -4 -70 -2
-87 10 -92 11 -4 14 -15 10 -44 -3 -20 1 -55 8 -76 7 -22 13 -66 14 -98 1 -61
8 -73 35 -56 12 7 14 27 12 87 -3 92 12 153 50 209 28 42 33 78 22 146 -3 21
-3 50 1 65 13 52 28 -3 23 -83 -5 -72 -4 -74 18 -74 18 0 21 4 16 22 -5 19 -4
20 10 8 11 -10 14 -27 10 -57 -3 -32 1 -50 18 -78 21 -34 22 -42 12 -99 -6
-33 -12 -70 -14 -81 -2 -16 3 -21 29 -23 31 -3 32 -2 26 31 -3 21 1 45 10 64
14 26 14 36 2 76 -16 55 -6 67 22 29 17 -23 19 -39 16 -106 -4 -84 0 -111 17
-101 8 5 7 12 -2 23 -10 12 -10 14 0 8 7 -4 12 -2 12 8 0 8 -5 16 -11 18 -19
6 1 58 23 58 21 0 21 3 1 -94 -4 -20 -2 -27 6 -25 7 3 14 29 17 63 2 31 7 63
11 69 4 6 8 20 8 29 1 10 12 29 24 42 14 15 20 29 15 37 -5 9 -11 5 -20 -16
l-12 -30 -7 30 c-12 52 -14 57 -32 53 -11 -2 -19 -14 -21 -31 -3 -23 -6 -26
-18 -16 -8 6 -14 18 -14 25 0 8 -4 14 -10 14 -5 0 -10 -6 -10 -12 0 -9 -4 -8
-10 2 -5 8 -9 29 -9 45 2 30 2 30 9 -5 7 -35 7 -35 8 10 1 62 -20 176 -35 191
-10 10 -15 6 -23 -15 -5 -15 -10 -36 -10 -46 0 -10 -4 -22 -10 -25 -6 -3 -10
-15 -10 -26 0 -13 -4 -18 -11 -13 -13 7 -5 185 9 210 9 17 157 -57 329 -164
97 -60 123 -82 123 -99 0 -12 -4 -24 -9 -27 -14 -9 -20 -60 -9 -73 5 -6 16 -9
23 -7 9 4 17 -5 23 -28 7 -26 5 -40 -10 -69 -26 -46 -21 -85 9 -82 16 2 23 -4
25 -20 2 -18 11 -23 41 -25 21 -2 37 1 37 7 0 6 -6 11 -14 11 -10 0 -14 22
-15 92 -1 50 -4 94 -6 98 -2 3 1 12 7 20 8 12 9 12 4 -2 -3 -10 0 -20 6 -24 7
-4 8 7 3 36 l-7 43 53 -44 c30 -24 69 -59 89 -76 19 -18 38 -33 42 -33 4 0 56
-55 114 -122 59 -68 111 -124 116 -126 23 -10 -1 24 -80 114 -100 112 -164
172 -269 252 -66 49 -73 58 -73 89 0 41 -15 73 -35 73 -8 0 -15 9 -15 20 0 25
20 27 27 3 2 -10 34 -36 71 -58 83 -50 245 -155 252 -164 3 -4 41 -35 86 -69
44 -34 94 -79 111 -100 35 -44 171 -157 179 -149 3 3 -34 43 -83 90 -173 166
-287 252 -550 416 -29 18 -53 39 -53 47 0 8 -10 14 -22 14 -13 0 -48 15 -78
33 -84 50 -224 120 -334 167 -55 23 -106 48 -113 56 -8 8 -18 12 -23 9 -5 -3
-62 15 -127 39 -136 51 -173 62 -173 50z m320 -116 c0 -7 49 -33 108 -57 59
-24 171 -77 250 -119 115 -61 142 -80 142 -97 0 -12 -10 -27 -23 -34 -22 -12
-34 -6 -138 60 -63 40 -161 96 -218 126 -65 33 -106 60 -107 71 -2 9 -12 24
-23 33 -11 9 -17 19 -14 23 10 10 23 7 23 -6z m-12 -30 c30 -30 1 -105 -35
-91 -12 5 -14 3 -8 -8 4 -8 5 -11 0 -7 -14 13 -12 90 3 104 17 17 25 17 40 2z
m2 -123 c0 -23 -2 -25 -22 -14 -21 11 -21 12 -3 25 25 18 25 18 25 -11z m-50
-15 c0 -5 -4 -10 -10 -10 -5 0 -10 5 -10 10 0 6 5 10 10 10 6 0 10 -4 10 -10z
m-74 -62 c-3 -18 -5 -37 -5 -42 -1 -5 -8 -3 -17 5 -13 11 -14 9 -8 -17 10 -41
11 -41 29 2 13 32 17 36 29 23 22 -23 30 -75 12 -82 -10 -4 -13 -1 -9 9 3 7 0
14 -6 14 -7 0 -11 -20 -11 -50 0 -46 -2 -50 -27 -56 -16 -3 -34 -8 -42 -10
-11 -4 -13 7 -8 60 5 55 4 64 -8 59 -11 -4 -15 2 -15 20 0 20 7 28 34 37 28 9
32 14 28 35 -3 18 0 25 12 25 12 0 15 -8 12 -32z m218 -91 c5 -21 3 -28 -6
-25 -7 3 -16 18 -19 34 l-7 29 -1 -32 c0 -17 4 -35 9 -38 6 -3 10 -24 10 -46
0 -35 -3 -39 -25 -39 -23 0 -25 4 -25 44 0 24 -3 51 -6 60 -3 9 5 26 21 42 30
30 36 26 49 -29z m458 -11 c11 -16 10 -46 -2 -46 -5 0 -10 9 -10 19 0 11 -4
23 -10 26 -14 9 -13 -5 5 -55 21 -59 19 -70 -11 -70 l-26 0 5 70 c6 73 2 85
-13 48 -8 -22 -9 -22 -9 -2 -1 11 2 24 5 27 9 9 57 -4 66 -17z m-757 -63 c-10
-53 -19 -31 -10 24 5 26 10 40 13 30 2 -11 1 -35 -3 -54z m135 35 c0 -19 -18
-43 -25 -36 -4 3 -2 16 5 27 12 24 20 27 20 9z m639 -71 c0 -21 -1 -21 -9 -2
-12 28 -12 37 0 30 6 -3 10 -16 9 -28z m-82 -8 l1 -24 -5 25 -6 25 -8 -25 -7
-25 -1 28 c-1 36 23 32 26 -4z m-292 11 c3 -5 -1 -10 -10 -10 -9 0 -13 5 -10
10 3 6 8 10 10 10 2 0 7 -4 10 -10z m-330 -37 c-3 -16 -10 -68 -13 -118 -4
-50 -11 -89 -16 -87 -6 1 -10 50 -10 110 1 67 -2 94 -6 72 l-7 -35 -2 37 c-1
37 1 38 53 47 4 0 5 -11 1 -26z m330 7 c-3 -5 -10 -10 -16 -10 -5 0 -9 5 -9
10 0 6 7 10 16 10 8 0 12 -4 9 -10z m363 -122 c-1 -65 -5 -88 -15 -88 -9 0
-13 19 -13 69 0 38 -4 81 -10 95 -7 20 -6 25 8 28 27 6 32 -11 30 -104z m-354
75 c-14 -59 -54 -69 -54 -14 0 34 6 41 37 41 20 0 23 -3 17 -27z m312 -120
c-5 -12 -9 -13 -21 -3 -13 10 -12 16 3 44 l17 31 3 -28 c2 -16 1 -36 -2 -44z"/>
<path d="M387 735 c-6 -35 -4 -40 10 -23 6 7 7 22 3 33 -6 17 -8 15 -13 -10z"/>
<path d="M1035 910 c-3 -5 1 -10 9 -10 9 0 16 5 16 10 0 6 -4 10 -9 10 -6 0
-13 -4 -16 -10z"/>
<path d="M2772 845 c-6 -14 -16 -25 -22 -25 -5 0 -10 -3 -10 -8 0 -4 27 -7 60
-7 l60 0 -34 33 c-19 17 -36 32 -39 32 -2 0 -9 -11 -15 -25z m38 -15 c0 -5 -7
-10 -15 -10 -8 0 -15 5 -15 10 0 6 7 10 15 10 8 0 15 -4 15 -10z"/>
<path d="M107 815 c-10 -14 -16 -29 -13 -34 3 -4 -3 -16 -14 -26 -24 -21 -26
-53 -5 -61 8 -4 15 -13 15 -21 0 -26 -32 -83 -46 -83 -8 0 -14 -4 -14 -9 0
-18 12 -41 22 -41 6 0 8 6 5 14 -3 7 7 23 24 35 l29 22 2 -23 c0 -13 1 -31 0
-40 -1 -13 6 -18 26 -18 23 1 25 3 12 13 -12 9 -14 30 -12 94 3 69 1 82 -11
77 -18 -6 -29 40 -14 55 8 8 7 11 -2 11 -7 0 -9 5 -5 11 10 16 27 -18 19 -38
-6 -17 10 -33 33 -33 9 0 8 7 -4 25 -9 14 -14 32 -10 40 3 9 2 13 -4 10 -6 -3
-10 -2 -10 3 0 6 7 13 16 16 17 6 10 26 -9 26 -7 0 -20 -12 -30 -25z m-7 -90
c0 -25 -14 -34 -24 -16 -8 12 3 41 15 41 5 0 9 -11 9 -25z m30 -60 c0 -16 -6
-25 -15 -25 -9 0 -15 9 -15 25 0 16 6 25 15 25 9 0 15 -9 15 -25z m-30 -50
c-7 -8 -17 -15 -22 -15 -6 0 -5 7 2 15 7 8 17 15 22 15 6 0 5 -7 -2 -15z m27
-22 c-3 -10 -5 -4 -5 12 0 17 2 24 5 18 2 -7 2 -21 0 -30z"/>
<path d="M2934 820 c-14 -5 -20 -16 -19 -32 1 -12 -5 -31 -13 -41 -12 -14 -15
-51 -16 -198 -1 -145 -4 -182 -16 -189 -23 -14 -3 -23 28 -12 16 5 35 6 42 2
30 -18 36 1 39 117 1 65 4 120 6 123 2 3 6 40 9 82 6 69 5 78 -12 87 -14 7
-18 18 -14 40 4 32 0 35 -34 21z m16 -35 c0 -8 -4 -15 -10 -15 -5 0 -10 7 -10
15 0 8 5 15 10 15 6 0 10 -7 10 -15z m21 -35 c26 -14 24 -33 -7 -69 -14 -17
-22 -36 -18 -42 5 -9 2 -10 -10 -6 -10 4 -21 7 -26 7 -4 0 -11 8 -15 18 -5 14
-4 15 6 5 22 -22 33 -14 13 9 -10 12 -13 18 -6 14 8 -5 12 0 12 16 0 18 -2 20
-10 8 -8 -12 -10 -13 -10 -1 0 16 29 51 42 51 5 0 18 -5 29 -10z m14 -89 c-3
-6 -14 -11 -23 -11 -13 0 -13 2 4 14 21 15 30 14 19 -3z m-9 -41 c0 -11 -3
-21 -6 -21 -3 -1 -20 -3 -37 -5 -27 -3 -33 0 -33 16 0 16 5 19 30 14 19 -4 30
-2 30 5 0 6 4 11 8 11 4 0 8 -9 8 -20z m-13 -142 c-3 -57 -7 -105 -9 -107 -8
-9 -11 5 -17 64 -3 37 -2 52 3 40 6 -14 8 -6 7 27 -4 98 -27 26 -27 -85 0 -37
-4 -57 -11 -55 -6 2 -10 7 -10 11 1 4 1 52 1 107 l0 100 34 0 35 0 -6 -102z"/>
<path d="M744 492 c-22 -15 -50 -179 -35 -204 16 -26 14 -46 -10 -79 -21 -31
-19 -58 7 -80 8 -6 18 -9 21 -5 4 4 2 11 -5 15 -10 6 -9 15 5 39 21 37 33 41
33 10 0 -33 22 -71 43 -74 18 -2 23 11 7 21 -17 10 -11 35 8 35 34 0 42 19 24
59 -9 20 -23 40 -29 44 -7 4 -13 16 -13 27 0 10 -5 20 -11 22 -14 5 -28 115
-16 127 9 9 1 51 -11 51 -4 0 -12 -4 -18 -8z m12 -49 c-10 -10 -19 5 -10 18 6
11 8 11 12 0 2 -7 1 -15 -2 -18z m-9 -19 c-3 -3 1 -24 9 -47 8 -22 11 -37 7
-33 -5 4 -13 22 -20 39 -6 18 -12 24 -12 14 -1 -9 10 -39 23 -66 15 -31 20
-54 15 -63 -6 -9 -9 -7 -9 10 0 15 -6 22 -20 22 -17 0 -20 7 -20 49 0 56 7 81
23 81 6 0 8 -3 4 -6z m53 -154 c0 -5 -4 -10 -10 -10 -5 0 -10 5 -10 10 0 6 5
10 10 10 6 0 10 -4 10 -10z m29 -47 c10 -21 9 -28 -1 -34 -33 -21 -57 -1 -58
49 0 24 46 13 59 -15z"/>
<path d="M2561 384 c0 -11 3 -14 6 -6 3 7 2 16 -1 19 -3 4 -6 -2 -5 -13z"/>
<path d="M1685 350 c3 -5 8 -10 11 -10 2 0 4 5 4 10 0 6 -5 10 -11 10 -5 0 -7
-4 -4 -10z"/>
<path d="M578 234 c-5 -4 -8 -16 -8 -28 0 -14 3 -17 11 -9 6 6 9 19 7 28 -1 9
-6 13 -10 9z"/>
<path d="M2423 221 c3 -13 0 -18 -8 -15 -17 7 -26 -8 -15 -26 7 -12 13 -12 33
-1 21 11 23 16 13 37 -13 28 -30 32 -23 5z"/>
<path d="M2472 205 c-15 -32 -15 -35 1 -35 6 0 12 13 13 30 1 36 0 37 -14 5z"/>
<path d="M2497 204 c-8 -8 1 -24 14 -24 5 0 9 7 9 15 0 15 -12 20 -23 9z"/>
<path d="M2540 174 c0 -8 5 -12 10 -9 6 3 10 10 10 16 0 5 -4 9 -10 9 -5 0
-10 -7 -10 -16z"/>
</g>
</svg>
