<?xml version="1.0" standalone="no"?>
<!DOCTYPE svg PUBLIC "-//W3C//DTD SVG 20010904//EN"
 "http://www.w3.org/TR/2001/REC-SVG-20010904/DTD/svg10.dtd">
<svg version="1.0" xmlns="http://www.w3.org/2000/svg"
 width="300.000000pt" height="300.000000pt" viewBox="0 0 300.000000 300.000000"
 preserveAspectRatio="xMidYMid meet">
<metadata>
Created by potrace 1.10, written by Peter Selinger 2001-2011
</metadata>
<g transform="translate(0.000000,300.000000) scale(0.100000,-0.100000)"
fill="#000000" stroke="none">
<path d="M2454 2978 l-19 -23 23 19 c21 18 27 26 19 26 -2 0 -12 -10 -23 -22z"/>
<path d="M830 2855 c-24 -25 -42 -45 -39 -45 3 0 25 20 49 45 24 25 42 45 39
45 -3 0 -25 -20 -49 -45z"/>
<path d="M2334 2878 l-19 -23 23 19 c21 18 27 26 19 26 -2 0 -12 -10 -23 -22z"/>
<path d="M220 2876 c0 -2 8 -10 18 -17 15 -13 16 -12 3 4 -13 16 -21 21 -21
13z"/>
<path d="M2500 2826 c0 -2 8 -10 18 -17 15 -13 16 -12 3 4 -13 16 -21 21 -21
13z"/>
<path d="M1179 2759 c-3 -108 -6 -133 -23 -164 -9 -16 -16 -36 -16 -42 0 -7
-6 -14 -12 -14 -7 -1 3 -5 22 -9 l35 -7 -32 -2 c-30 -1 -33 -4 -33 -31 0 -29
1 -30 48 -29 26 1 54 0 62 -2 11 -3 15 6 16 39 1 23 -3 42 -7 42 -5 0 -9 6 -9
13 0 6 -7 26 -16 42 -10 19 -18 65 -21 125 -6 112 -12 130 -14 39z m25 -211
c-12 -19 -24 -5 -24 25 l1 32 13 -25 c8 -14 12 -28 10 -32z m19 -25 c-7 -2
-19 -2 -25 0 -7 3 -2 5 12 5 14 0 19 -2 13 -5z m3 -34 c3 -5 -4 -9 -15 -9 -12
0 -21 6 -21 13 0 9 -3 9 -9 -1 -5 -8 -17 -12 -27 -10 -17 4 -16 6 6 15 25 11
57 7 66 -8z"/>
<path d="M1770 2816 c0 -2 14 -14 30 -26 17 -12 30 -19 30 -16 0 2 -13 14 -30
26 -16 12 -30 19 -30 16z"/>
<path d="M310 2806 c0 -2 8 -10 18 -17 15 -13 16 -12 3 4 -13 16 -21 21 -21
13z"/>
<path d="M1050 2806 c0 -2 8 -10 18 -17 15 -13 16 -12 3 4 -13 16 -21 21 -21
13z"/>
<path d="M1719 2743 c-1 -38 0 -75 1 -83 3 -21 -22 -90 -33 -90 -5 0 -7 -7 -3
-15 3 -8 0 -16 -7 -17 -7 -1 15 -4 48 -8 l60 -7 -57 -1 -58 -2 0 -35 c0 -19
-4 -35 -10 -35 -5 0 -10 -7 -10 -16 0 -8 5 -12 10 -9 6 3 10 2 10 -4 0 -5 -6
-12 -12 -14 -10 -4 -9 -8 2 -16 10 -7 11 -11 3 -11 -7 0 -13 -7 -13 -16 0 -8
5 -12 10 -9 6 3 10 1 10 -5 0 -7 -8 -9 -20 -5 -19 6 -20 2 -20 -84 0 -74 -3
-91 -15 -91 -21 0 -19 -18 3 -23 16 -4 16 -5 0 -6 -10 0 -18 -8 -18 -16 0 -17
2 -17 130 -15 52 1 92 -1 89 -4 -3 -3 -53 -6 -112 -7 -98 -2 -133 -11 -89 -22
16 -4 16 -5 0 -6 -35 -2 -19 -30 20 -34 l37 -4 -37 -1 c-39 -2 -51 -17 -20
-25 16 -4 16 -5 0 -6 -35 -2 -19 -30 20 -34 l37 -4 -37 -1 c-48 -2 -50 -22 -3
-22 19 0 35 -4 35 -9 0 -5 -16 -7 -35 -4 -22 3 -35 0 -35 -7 0 -6 -4 -8 -10
-5 -5 3 -10 1 -10 -5 0 -6 16 -10 40 -8 22 1 43 -1 46 -5 7 -7 -23 -11 -63 -7
-13 1 -23 -3 -23 -9 0 -6 17 -10 40 -9 22 1 43 -2 47 -5 3 -4 -15 -7 -40 -7
-37 0 -47 -4 -47 -16 0 -14 7 -16 45 -11 27 4 45 3 45 -3 0 -6 -20 -10 -45
-10 -60 0 -58 -18 3 -23 l47 -3 -47 -2 c-35 -2 -48 -6 -48 -17 0 -18 5 -18 31
-4 21 11 59 4 59 -12 0 -5 -7 -9 -15 -9 -8 0 -15 5 -15 10 0 6 -5 10 -11 10
-5 0 -7 -4 -4 -10 4 -6 -5 -10 -19 -10 -14 0 -26 -5 -26 -10 0 -6 31 -10 75
-9 49 1 75 5 75 13 0 7 3 8 8 1 10 -15 49 -16 49 -2 0 7 4 20 8 30 4 10 4 17
-1 16 -20 -3 -117 1 -113 6 3 2 35 6 72 7 63 3 66 2 60 -17 -3 -11 -6 -39 -5
-62 0 -24 -4 -43 -9 -43 -14 0 -11 -38 4 -43 9 -3 9 -9 -1 -27 -9 -15 -10 -26
-4 -32 7 -7 -5 -19 -39 -35 -96 -48 -168 -164 -177 -285 l-5 -71 35 21 c45 28
139 52 203 52 63 0 158 -24 202 -51 l33 -21 0 50 c0 61 -21 133 -54 183 -14
21 -26 41 -26 44 0 3 16 5 35 5 30 0 35 -3 34 -22 0 -22 -1 -22 -9 -3 -7 17
-9 17 -9 3 -1 -24 2 -34 12 -31 6 3 11 -29 8 -49 0 -5 3 -8 8 -8 5 0 9 -18 9
-41 1 -23 3 -44 6 -47 3 -3 6 7 6 21 0 24 4 27 35 27 l35 0 -1 -90 c0 -49 -5
-90 -9 -90 -5 0 -11 39 -13 88 l-3 87 -2 -87 c-2 -73 -5 -87 -19 -91 -17 -4
-17 -5 0 -6 9 0 17 -5 17 -11 0 -5 -8 -10 -17 -11 -15 0 -15 -2 2 -8 11 -5 26
-6 33 -4 6 3 12 0 12 -6 0 -6 -15 -11 -32 -12 -27 0 -29 -2 -13 -8 11 -5 24
-6 28 -4 4 3 14 0 22 -7 7 -6 29 -10 47 -7 32 4 32 4 -7 7 l-40 3 40 7 40 7
-37 2 c-21 0 -38 6 -38 12 0 7 15 10 40 7 39 -3 40 -2 41 27 0 26 2 27 9 10 5
-13 9 27 9 108 1 108 -1 127 -14 127 -9 0 -20 10 -26 23 l-10 22 5 -22 c3 -18
0 -23 -18 -23 -16 0 -22 7 -24 25 -2 26 13 34 21 13 4 -10 6 -10 6 0 1 6 7 12
15 12 9 0 12 9 8 28 -2 15 -2 24 2 21 6 -6 13 -41 15 -76 1 -7 8 -13 16 -13
11 0 15 -12 17 -42 l1 -43 6 50 c4 28 5 53 3 57 -7 16 0 625 8 663 7 37 8 38
9 9 0 -17 4 -33 7 -37 3 -3 5 -136 5 -296 -1 -196 2 -291 9 -291 7 0 10 96 11
288 0 158 3 305 7 326 4 22 7 -104 6 -280 l0 -319 3 288 c2 179 7 287 13 287
6 0 11 -104 12 -277 l3 -278 2 270 c2 148 0 277 -3 285 -11 24 -13 60 -5 60
15 0 21 -93 21 -353 l1 -259 -40 -30 c-60 -44 -55 -58 24 -58 84 0 86 19 3 22
l-63 2 60 3 c33 2 63 10 67 16 6 9 8 9 8 0 0 -6 10 -14 23 -16 l22 -4 -22 -2
c-13 0 -23 -5 -23 -10 0 -5 10 -12 23 -14 12 -2 -24 -5 -80 -6 l-103 -1 1 -47
c0 -36 3 -43 9 -28 9 20 9 20 10 0 1 -20 1 -20 9 0 8 20 8 20 13 0 3 -11 7 -1
8 25 l3 45 7 -45 7 -45 2 45 1 45 15 -29 c8 -15 15 -36 16 -45 1 -9 4 -5 9 9
l8 25 2 -25 c2 -27 3 -25 25 38 10 29 35 29 34 0 0 -22 -1 -22 -9 -3 -7 17 -9
17 -9 3 -1 -10 -5 -18 -11 -18 -5 0 -10 -10 -9 -22 0 -22 1 -22 9 -3 9 20 9
20 10 0 1 -20 1 -20 10 0 9 20 9 20 10 0 1 -20 1 -20 10 0 9 20 9 20 10 0 1
-20 1 -20 9 0 8 20 8 20 13 0 3 -11 6 1 7 28 1 28 -3 47 -10 47 -6 0 -9 7 -5
15 3 10 -11 27 -45 53 l-51 37 5 230 c3 127 10 253 16 280 6 28 13 65 16 83
l6 32 -147 0 c-129 0 -145 -2 -140 -16 23 -60 59 -568 37 -517 -10 22 -77 73
-96 73 -6 0 -29 -18 -50 -40 l-39 -40 43 0 c26 0 40 -4 36 -10 -4 -6 -11 -8
-16 -4 -6 3 -13 -4 -16 -17 l-6 -23 -8 22 c-5 12 -16 21 -26 21 -17 -1 -17 -2
0 -6 9 -2 17 -11 17 -18 0 -7 -8 -16 -17 -18 -16 -4 -16 -5 -1 -6 9 0 19 -9
21 -18 4 -15 5 -15 7 2 1 20 1 20 10 0 9 -20 9 -20 10 0 1 20 1 20 10 0 7 -17
9 -17 9 -2 1 10 9 17 21 17 23 0 41 31 22 38 -25 8 -11 22 21 21 17 -1 25 -3
16 -6 -20 -5 -29 -41 -18 -69 7 -18 8 -18 9 1 1 20 1 20 10 0 7 -17 9 -17 9
-2 1 9 6 17 12 17 6 0 9 -7 5 -15 -3 -8 -2 -15 3 -15 14 0 21 113 21 336 0
136 4 214 10 214 6 0 10 -100 10 -280 l0 -280 -110 0 c-81 0 -110 3 -110 13 0
8 -3 9 -8 1 -15 -23 -38 -20 -71 9 -19 16 -52 37 -73 47 -28 12 -35 19 -26 28
8 8 8 15 -1 26 -10 11 -10 19 0 34 8 12 9 26 4 38 -11 23 -16 81 -10 110 4 17
10 20 30 16 15 -2 25 0 25 8 0 6 -12 11 -27 10 -52 -4 -176 0 -172 5 3 2 27 6
54 7 73 4 72 28 -1 28 -31 0 -55 2 -52 5 2 3 48 5 101 6 56 0 97 5 97 10 0 6
-12 9 -27 8 -57 -4 -173 1 -173 9 0 4 32 7 70 7 39 0 70 -4 70 -8 0 -5 6 -5
13 0 6 4 20 6 30 5 9 -2 17 2 17 8 0 6 -4 8 -10 5 -5 -3 -10 -2 -10 4 0 5 -8
12 -17 14 -17 4 -17 5 0 6 9 0 17 5 17 10 0 5 -8 12 -17 14 -17 4 -17 5 0 6 9
0 17 7 17 15 0 8 -8 17 -17 19 -17 4 -17 5 0 6 9 0 17 5 17 10 0 5 -8 12 -17
14 -17 4 -17 5 0 6 9 0 17 8 17 17 0 10 -6 14 -15 10 -8 -3 -15 -1 -15 4 0 6
7 10 15 10 21 0 19 18 -2 23 -17 4 -17 5 0 6 9 0 17 8 17 17 0 10 -6 14 -15
10 -8 -3 -15 -1 -15 4 0 6 7 10 15 10 8 0 15 5 15 10 0 6 -7 10 -15 10 -12 0
-15 17 -15 89 l0 90 -45 -5 c-29 -4 -45 -1 -45 6 0 6 14 9 35 7 24 -3 35 0 35
9 0 9 -20 14 -67 17 l-68 3 68 2 67 2 0 30 c0 17 -4 30 -10 30 -5 0 -10 20
-10 45 0 26 -5 45 -11 45 -6 0 -9 6 -6 14 3 8 3 16 -1 18 -13 6 -43 81 -35 89
11 11 4 149 -8 149 -5 0 -10 -30 -10 -67z m31 -159 c0 -2 -7 -4 -15 -4 -8 0
-15 4 -15 10 0 5 7 7 15 4 8 -4 15 -8 15 -10z m-20 -30 c0 -8 -4 -12 -10 -9
-5 3 -10 10 -10 16 0 5 5 9 10 9 6 0 10 -7 10 -16z m40 -66 c0 -4 -20 -8 -45
-8 -25 0 -45 4 -45 9 0 5 20 9 45 9 25 -1 45 -5 45 -10z m-12 -35 c-16 -2 -40
-2 -55 0 -16 2 -3 4 27 4 30 0 43 -2 28 -4z m42 -32 c0 -4 -27 -9 -60 -10 -33
-1 -60 2 -60 7 0 6 27 10 60 11 33 0 60 -3 60 -8z m-70 -71 c0 -5 -11 -10 -25
-10 -14 0 -25 5 -25 10 0 6 11 10 25 10 14 0 25 -4 25 -10z m-63 -36 c-3 -3
-12 -4 -19 -1 -8 3 -5 6 6 6 11 1 17 -2 13 -5z m121 -1 c-21 -2 -55 -2 -75 0
-21 2 -4 4 37 4 41 0 58 -2 38 -4z m-32 -25 c35 0 64 -5 64 -9 0 -15 -140 -11
-141 4 0 10 -2 10 -6 0 -5 -15 -33 -18 -33 -4 0 11 30 20 43 13 4 -2 37 -4 73
-4z m-89 -44 c-3 -3 -12 -4 -19 -1 -8 3 -5 6 6 6 11 1 17 -2 13 -5z m121 -1
c-21 -2 -55 -2 -75 0 -21 2 -4 4 37 4 41 0 58 -2 38 -4z m-118 -33 c0 -5 -7
-10 -15 -10 -8 0 -15 5 -15 10 0 6 7 10 15 10 8 0 15 -4 15 -10z m150 -1 c0
-5 -31 -9 -70 -9 -41 0 -70 4 -70 10 0 6 28 10 70 9 39 -1 70 -5 70 -10z
m-153 -35 c-3 -3 -12 -4 -19 -1 -8 3 -5 6 6 6 11 1 17 -2 13 -5z m121 -1 c-21
-2 -55 -2 -75 0 -21 2 -4 4 37 4 41 0 58 -2 38 -4z m-118 -33 c0 -5 -7 -10
-15 -10 -8 0 -15 5 -15 10 0 6 7 10 15 10 8 0 15 -4 15 -10z m150 2 c0 -5 -31
-9 -70 -9 -38 -1 -70 3 -70 8 0 5 32 9 70 9 39 0 70 -4 70 -8z m425 -104 c3
-35 5 -193 3 -353 l-3 -290 -3 321 c-1 176 -5 324 -9 327 -9 10 -10 57 -2 57
4 0 10 -28 14 -62z m25 37 c0 -14 -4 -25 -10 -25 -5 0 -10 11 -10 25 0 14 5
25 10 25 6 0 10 -11 10 -25z m50 0 c0 -14 -4 -25 -10 -25 -5 0 -10 11 -10 25
0 14 5 25 10 25 6 0 10 -11 10 -25z m-649 -7 c0 -10 2 -10 6 0 6 14 143 17
143 3 0 -6 -21 -9 -47 -7 -27 2 -59 0 -73 -4 -30 -7 -60 -2 -60 11 0 14 30 11
31 -3z m529 -16 c0 -15 -2 -15 -10 -2 -13 20 -13 33 0 25 6 -3 10 -14 10 -23z
m207 13 c0 -8 -4 -12 -9 -9 -4 3 -8 9 -8 15 0 5 4 9 8 9 5 0 9 -7 9 -15z
m-619 -32 c-21 -2 -55 -2 -75 0 -21 2 -4 4 37 4 41 0 58 -2 38 -4z m-117 -35
c0 -10 2 -10 6 0 6 14 143 17 143 3 0 -5 -19 -8 -42 -7 -24 1 -58 -1 -76 -5
-17 -4 -35 -3 -38 2 -3 5 -10 7 -15 4 -5 -4 -9 -1 -9 4 0 15 30 14 31 -1z
m117 -35 c-21 -2 -55 -2 -75 0 -21 2 -4 4 37 4 41 0 58 -2 38 -4z m31 -28 c-8
-8 -139 -10 -139 -2 0 4 32 7 72 7 39 0 69 -2 67 -5z m-115 -167 c-5 -10 -4
-10 6 -1 7 6 20 9 29 6 9 -3 23 -7 31 -9 12 -4 12 -6 0 -14 -8 -5 -19 -6 -25
-2 -5 3 -22 5 -36 4 -17 -2 -29 3 -32 12 -5 11 0 16 14 16 13 0 18 -4 13 -12z
m445 -161 c24 -12 23 -12 -15 -17 -83 -11 -128 8 -71 29 24 9 50 5 86 -12z
m-82 -69 c-3 -8 -6 -5 -6 6 -1 11 2 17 5 13 3 -3 4 -12 1 -19z m48 13 c7 -12
-12 -24 -25 -16 -11 7 -4 25 10 25 5 0 11 -4 15 -9z m42 -13 c-3 -8 -6 -5 -6
6 -1 11 2 17 5 13 3 -3 4 -12 1 -19z m33 7 c0 -8 -4 -15 -10 -15 -5 0 -10 7
-10 15 0 8 5 15 10 15 6 0 10 -7 10 -15z m-323 -31 c6 -8 14 -14 17 -12 3 2
24 -15 46 -36 42 -40 65 -79 61 -105 -1 -7 2 -10 8 -6 6 3 11 0 12 -7 0 -7 2
-21 4 -30 2 -10 -2 -18 -8 -18 -7 0 -4 -5 6 -11 9 -5 17 -21 17 -34 0 -30 2
-29 -46 -9 -22 9 -40 15 -41 13 -1 -2 -12 4 -23 14 -11 9 -22 17 -25 17 -3 0
-5 -8 -5 -17 -1 -17 -1 -17 -14 -1 -7 10 -15 16 -17 14 -2 -2 -33 -6 -69 -9
-36 -4 -90 -13 -120 -22 -30 -8 -56 -15 -56 -15 -1 0 -5 11 -8 24 -7 30 2 58
17 49 6 -4 8 2 4 17 -6 25 19 83 50 113 93 91 103 97 141 92 20 -3 42 -12 49
-21z m190 -76 c-3 -7 -5 -2 -5 12 0 14 2 19 5 13 2 -7 2 -19 0 -25z m53 22 c0
-5 -9 -10 -20 -10 -11 0 -20 5 -20 10 0 6 9 10 20 10 11 0 20 -4 20 -10z m37
-22 c-3 -7 -5 -2 -5 12 0 14 2 19 5 13 2 -7 2 -19 0 -25z m33 12 c0 -11 -4
-20 -10 -20 -5 0 -10 9 -10 20 0 11 5 20 10 20 6 0 10 -9 10 -20z m17 -12 c-3
-7 -5 -2 -5 12 0 14 2 19 5 13 2 -7 2 -19 0 -25z m206 11 c-6 -6 -17 -8 -24
-3 -9 5 -8 9 7 14 23 9 31 3 17 -11z m-313 -49 c5 0 7 6 4 14 -3 8 -1 17 5 21
7 4 11 -6 12 -27 l2 -33 7 35 7 35 3 -35 c2 -33 2 -34 11 -10 l8 25 -2 -24
c-2 -19 -9 -25 -30 -28 -18 -3 -26 0 -22 7 3 5 2 10 -4 10 -5 0 -13 -5 -16
-10 -10 -16 -25 -1 -24 23 1 20 2 20 9 -3 7 -23 8 -23 10 10 2 25 4 28 7 13 2
-13 8 -23 13 -23z m221 -29 c7 11 9 9 9 -7 0 -12 -6 -21 -15 -21 -9 0 -15 9
-14 21 0 13 3 16 6 7 5 -11 7 -11 14 0z m97 -9 c2 -7 -3 -12 -12 -12 -9 0 -16
7 -16 16 0 17 22 14 28 -4z m69 -14 c-3 -7 -5 -2 -5 12 0 14 2 19 5 13 2 -7 2
-19 0 -25z m20 0 c-3 -7 -5 -2 -5 12 0 14 2 19 5 13 2 -7 2 -19 0 -25z m-387
-3 c0 -8 -9 -15 -20 -15 -11 0 -20 7 -20 15 0 8 9 15 20 15 11 0 20 -7 20 -15z
m30 0 c0 -8 -4 -15 -10 -15 -5 0 -10 7 -10 15 0 8 5 15 10 15 6 0 10 -7 10
-15z m80 -10 c0 -31 -20 -33 -21 -2 -1 20 -1 21 -7 2 -11 -31 -42 -31 -42 0 0
22 4 25 35 25 31 0 35 -3 35 -25z m17 -12 c-3 -10 -5 -4 -5 12 0 17 2 24 5 18
2 -7 2 -21 0 -30z m-47 -43 c0 -13 -7 -20 -20 -20 -13 0 -20 7 -20 20 0 13 7
20 20 20 13 0 20 -7 20 -20z m30 0 c0 -11 -4 -20 -10 -20 -5 0 -10 9 -10 20 0
11 5 20 10 20 6 0 10 -9 10 -20z m17 -12 c-3 -7 -5 -2 -5 12 0 14 2 19 5 13 2
-7 2 -19 0 -25z m-47 -43 c0 -14 -7 -21 -20 -22 -14 -1 -20 4 -20 20 0 16 6
23 20 23 14 0 20 -7 20 -21z m30 0 c0 -14 -4 -25 -10 -25 -5 0 -10 11 -10 25
0 14 5 25 10 25 6 0 10 -11 10 -25z m17 -12 c-3 -10 -5 -4 -5 12 0 17 2 24 5
18 2 -7 2 -21 0 -30z m-47 -38 c0 -8 -9 -15 -20 -15 -11 0 -20 7 -20 15 0 8 9
15 20 15 11 0 20 -7 20 -15z m30 0 c0 -8 -4 -15 -10 -15 -5 0 -10 7 -10 15 0
8 5 15 10 15 6 0 10 -7 10 -15z m17 -7 c-3 -8 -6 -5 -6 6 -1 11 2 17 5 13 3
-3 4 -12 1 -19z m-47 -40 c0 -19 -2 -20 -10 -8 -6 10 -10 11 -10 3 0 -7 -4
-13 -10 -13 -5 0 -10 9 -10 20 0 13 7 20 20 20 14 0 20 -7 20 -22z m30 2 c0
-11 -4 -20 -10 -20 -5 0 -10 9 -10 20 0 11 5 20 10 20 6 0 10 -9 10 -20z m-80
-10 c0 -5 -4 -10 -10 -10 -5 0 -10 5 -10 10 0 6 5 10 10 10 6 0 10 -4 10 -10z"/>
<path d="M1738 1353 c7 -3 16 -2 19 1 4 3 -2 6 -13 5 -11 0 -14 -3 -6 -6z"/>
<path d="M1650 1320 c-9 -6 -10 -10 -3 -10 6 0 15 5 18 10 8 12 4 12 -15 0z"/>
<path d="M2195 2748 l-60 -63 63 60 c34 33 62 61 62 62 0 8 -10 -1 -65 -59z"/>
<path d="M2540 2796 c0 -2 8 -10 18 -17 15 -13 16 -12 3 4 -13 16 -21 21 -21
13z"/>
<path d="M350 2776 c0 -2 8 -10 18 -17 15 -13 16 -12 3 4 -13 16 -21 21 -21
13z"/>
<path d="M655 2688 l-60 -63 63 60 c34 33 62 61 62 62 0 8 -10 -1 -65 -59z"/>
<path d="M1415 2708 l-40 -43 43 40 c39 36 47 45 39 45 -2 0 -21 -19 -42 -42z"/>
<path d="M2899 2713 l-24 -28 28 24 c25 23 32 31 24 31 -2 0 -14 -12 -28 -27z"/>
<path d="M2630 2726 c0 -2 8 -10 18 -17 15 -13 16 -12 3 4 -13 16 -21 21 -21
13z"/>
<path d="M440 2706 c0 -2 8 -10 18 -17 15 -13 16 -12 3 4 -13 16 -21 21 -21
13z"/>
<path d="M480 2676 c0 -2 8 -10 18 -17 15 -13 16 -12 3 4 -13 16 -21 21 -21
13z"/>
<path d="M2104 2658 l-19 -23 23 19 c21 18 27 26 19 26 -2 0 -12 -10 -23 -22z"/>
<path d="M2844 2658 l-19 -23 23 19 c21 18 27 26 19 26 -2 0 -12 -10 -23 -22z"/>
<path d="M531 2604 c0 -11 3 -14 6 -6 3 7 2 16 -1 19 -3 4 -6 -2 -5 -13z"/>
<path d="M563 2605 c0 -8 4 -15 9 -15 4 0 8 7 8 15 0 8 -4 15 -8 15 -5 0 -9
-7 -9 -15z"/>
<path d="M2006 2605 c-3 -8 -1 -15 4 -15 6 0 10 7 10 15 0 8 -2 15 -4 15 -2 0
-6 -7 -10 -15z"/>
<path d="M484 2558 l-19 -23 23 19 c21 18 27 26 19 26 -2 0 -12 -10 -23 -22z"/>
<path d="M580 2566 c0 -2 8 -10 18 -17 15 -13 16 -12 3 4 -13 16 -21 21 -21
13z"/>
<path d="M1320 2566 c0 -2 8 -10 18 -17 15 -13 16 -12 3 4 -13 16 -21 21 -21
13z"/>
<path d="M2070 2556 c0 -2 8 -10 18 -17 15 -13 16 -12 3 4 -13 16 -21 21 -21
13z"/>
<path d="M1360 2536 c0 -2 8 -10 18 -17 15 -13 16 -12 3 4 -13 16 -21 21 -21
13z"/>
<path d="M1890 2495 c-24 -25 -42 -45 -39 -45 3 0 25 20 49 45 24 25 42 45 39
45 -3 0 -25 -20 -49 -45z"/>
<path d="M1400 2506 c0 -2 8 -10 18 -17 15 -13 16 -12 3 4 -13 16 -21 21 -21
13z"/>
<path d="M2619 2483 l-24 -28 28 24 c25 23 32 31 24 31 -2 0 -14 -12 -28 -27z"/>
<path d="M2900 2486 c0 -2 8 -10 18 -17 15 -13 16 -12 3 4 -13 16 -21 21 -21
13z"/>
<path d="M310 2393 l-85 -88 88 85 c81 79 92 90 84 90 -1 0 -41 -39 -87 -87z"/>
<path d="M710 2466 c0 -2 8 -10 18 -17 15 -13 16 -12 3 4 -13 16 -21 21 -21
13z"/>
<path d="M1142 2452 c-28 -2 -42 -7 -39 -15 2 -7 19 -11 41 -9 20 2 36 -2 36
-8 0 -5 -18 -10 -40 -10 -53 0 -51 -18 3 -23 l42 -4 -42 -1 c-24 -1 -43 -6
-43 -11 0 -13 23 -20 53 -14 18 4 27 1 27 -7 0 -9 -14 -11 -50 -8 l-50 5 0
-88 c0 -60 -4 -89 -12 -93 -10 -5 -10 -7 0 -12 6 -3 12 -10 12 -15 0 -6 -4 -7
-10 -4 -5 3 -10 -1 -10 -9 0 -9 6 -16 13 -16 8 0 7 -4 -3 -10 -13 -9 -13 -11
0 -20 10 -6 11 -10 3 -10 -7 0 -13 -7 -13 -15 0 -8 6 -15 13 -15 8 0 7 -4 -3
-10 -13 -9 -13 -11 0 -20 10 -6 11 -10 3 -10 -7 0 -13 -7 -13 -15 0 -8 6 -15
13 -15 8 0 7 -4 -3 -11 -11 -8 -12 -12 -3 -15 17 -7 -7 -33 -24 -27 -7 3 -13
0 -13 -7 0 -8 9 -11 25 -8 14 3 25 1 25 -3 0 -5 -11 -9 -25 -9 -34 0 -32 -18
3 -23 l27 -4 -27 -2 c-19 0 -28 -7 -28 -17 0 -12 7 -15 25 -12 14 3 25 1 25
-3 0 -5 -11 -9 -25 -9 -14 0 -25 -4 -25 -10 0 -10 10 -11 100 -12 42 -1 43 -1
8 -5 -39 -4 -49 -16 -23 -27 22 -8 18 -25 -4 -19 -11 3 -21 13 -24 24 -7 24
-57 27 -57 3 0 -12 6 -15 25 -10 14 4 25 2 25 -4 0 -5 -11 -10 -25 -10 -14 0
-25 -4 -25 -9 0 -12 48 -18 80 -10 14 3 36 2 50 -2 19 -5 15 -7 -22 -8 -27 -1
-48 -5 -48 -10 0 -12 46 -20 62 -10 7 4 18 3 25 -3 9 -7 13 -7 13 0 0 5 9 8
20 5 27 -7 25 -23 -2 -24 -61 -2 -114 4 -120 14 -6 9 -8 9 -8 0 0 -7 -11 -13
-25 -13 -34 0 -32 -18 3 -23 l27 -4 -28 -2 c-18 0 -27 -6 -24 -13 2 -7 14 -12
25 -10 12 2 22 -2 22 -7 0 -6 -11 -11 -25 -11 -34 0 -32 -18 3 -23 l27 -4 -28
-2 c-18 0 -27 -6 -24 -13 2 -7 14 -12 25 -10 12 2 22 -2 22 -7 0 -6 -11 -11
-25 -11 -34 0 -32 -18 3 -23 l27 -4 -27 -2 c-35 -1 -37 -21 -3 -21 14 0 25 -6
25 -12 0 -10 2 -10 8 -2 7 12 30 17 70 15 27 -1 30 -21 2 -21 -27 0 -25 -18 3
-23 12 -2 0 -4 -28 -4 -27 0 -40 2 -27 4 34 7 26 23 -10 21 -18 0 -39 1 -47 3
-7 2 -15 -1 -18 -8 -2 -7 8 -13 24 -16 l28 -4 -27 -2 c-16 0 -28 -5 -28 -10 0
-5 32 -9 71 -10 75 -1 93 -6 69 -21 -17 -11 -72 -1 -82 14 -5 7 -8 7 -8 -2 0
-8 -9 -12 -22 -10 -11 2 -23 -3 -25 -9 -5 -14 14 -16 101 -13 43 1 48 0 38
-13 -10 -12 -10 -16 0 -20 27 -9 -14 -21 -64 -18 -29 2 -20 21 10 22 24 0 24
1 7 8 -11 5 -25 4 -32 -1 -7 -5 -14 -5 -18 2 -8 13 -45 13 -45 0 0 -5 11 -10
25 -10 14 0 25 -5 25 -11 0 -5 -10 -9 -22 -7 -11 2 -23 -2 -25 -8 -4 -13 49
-24 69 -14 7 3 29 3 48 -1 l35 -6 -41 -2 c-22 0 -45 -6 -52 -13 -9 -9 -12 -9
-12 0 0 7 -11 12 -25 12 -14 0 -25 -4 -25 -10 0 -5 11 -10 25 -10 14 0 25 -5
25 -11 0 -5 -10 -9 -22 -7 -11 2 -23 -2 -25 -9 -6 -16 44 -20 89 -8 53 15 60
29 11 21 -27 -4 -43 -2 -43 4 0 5 20 10 45 10 l45 0 0 -57 c0 -32 4 -65 9 -73
7 -9 9 -2 7 23 -2 26 1 37 10 37 20 0 17 18 -3 23 -15 4 -14 5 3 6 12 0 26 12
32 26 13 29 27 32 40 9 7 -13 10 -9 14 20 4 34 2 36 -24 36 -32 0 -38 15 -8
23 11 3 20 1 20 -5 0 -5 4 -7 9 -3 6 3 9 18 8 33 -2 23 -6 27 -30 24 -15 -2
-27 1 -27 7 0 6 6 11 13 12 6 0 25 2 40 3 28 2 29 0 23 -34 -4 -19 -9 -74 -13
-123 l-6 -87 27 0 c24 0 26 3 26 42 0 30 14 68 51 141 28 54 48 101 45 104 -3
3 -24 -33 -48 -81 -23 -47 -46 -86 -50 -86 -8 0 -13 55 -11 112 1 22 -4 28
-26 31 l-26 4 28 2 c34 1 36 21 2 21 -14 0 -25 5 -25 10 0 9 123 5 157 -5 7
-2 27 -32 45 -67 31 -61 32 -67 29 -161 l-3 -99 28 2 c48 3 54 1 53 -22 -1
-17 -2 -19 -6 -6 -3 14 -15 18 -54 18 -35 0 -49 -4 -49 -14 0 -23 28 -39 60
-34 22 3 30 1 31 -11 0 -10 4 -7 10 7 11 29 33 24 37 -8 4 -22 24 -50 36 -50
3 0 6 15 6 34 0 19 5 38 12 42 14 9 38 -23 38 -53 0 -14 6 -23 15 -23 11 0 15
11 15 35 0 23 6 38 16 42 19 7 34 -13 34 -44 0 -14 6 -23 15 -23 9 0 15 9 15
23 0 31 15 51 34 44 10 -4 16 -19 16 -42 0 -27 4 -35 18 -35 14 0 19 8 19 30
0 34 15 56 32 46 6 -4 11 -23 11 -42 0 -22 5 -34 14 -34 15 0 26 21 26 51 0
24 29 37 41 18 5 -8 9 -26 9 -41 0 -16 5 -28 10 -28 7 0 10 25 8 67 -3 64 -5
68 -37 90 -109 74 -325 73 -433 -1 -35 -23 -37 -23 -52 -7 -20 22 -21 61 -2
61 9 0 12 -8 9 -24 -3 -13 0 -27 6 -30 7 -5 11 5 11 28 0 28 -4 35 -22 39 -23
4 -23 4 1 6 15 1 21 6 18 15 -3 8 -9 47 -13 87 -4 41 -8 70 -10 64 -1 -5 -5
-23 -8 -38 -6 -27 -8 -26 -37 29 -16 31 -28 58 -27 60 2 1 46 5 98 8 61 4 99
11 105 19 6 7 19 17 30 22 19 8 19 9 -2 12 -13 3 -23 9 -23 15 0 6 12 8 27 5
15 -3 38 0 52 6 24 10 22 12 -29 17 l-55 7 51 1 c54 2 70 15 57 48 -5 13 -17
15 -69 11 -37 -2 -67 0 -73 6 -8 8 -11 8 -11 0 0 -6 -11 -8 -25 -5 -19 3 -25
0 -25 -13 0 -13 3 -15 13 -7 7 6 22 9 32 7 11 -2 26 -4 33 -4 6 -1 12 -6 12
-11 0 -6 -10 -10 -22 -9 -39 3 -68 -1 -68 -9 0 -5 19 -9 42 -10 58 -3 62 -12
5 -12 -35 0 -47 -4 -47 -15 0 -11 6 -12 22 -6 23 8 68 3 68 -8 0 -4 -84 -7
-187 -7 -170 1 -189 3 -202 19 -7 10 -19 16 -27 13 -8 -3 -14 -1 -14 3 0 12
28 22 34 12 7 -10 66 -1 66 10 0 5 -11 9 -25 9 -14 0 -25 5 -25 11 0 5 10 9
22 7 11 -2 23 2 25 9 2 6 -8 13 -24 16 l-28 4 28 2 c34 1 36 21 2 21 -14 0
-25 5 -25 11 0 7 10 9 25 5 18 -5 25 -2 25 8 0 8 -12 16 -27 19 l-28 4 28 2
c34 1 36 21 2 21 -14 0 -25 5 -25 11 0 7 10 9 25 5 18 -5 25 -2 25 8 0 8 -12
16 -27 19 l-28 4 28 2 c15 0 27 5 27 10 0 5 -12 12 -27 14 l-28 4 28 2 c16 0
27 7 27 15 0 8 -12 17 -27 19 l-28 4 28 2 c15 0 27 5 27 10 0 5 -12 12 -27 14
l-28 4 28 2 c15 0 27 6 27 12 0 6 -6 9 -13 6 -17 -6 -41 20 -24 27 9 3 8 7 -3
15 -10 7 -11 11 -2 11 6 0 12 7 12 16 0 8 -4 12 -10 9 -5 -3 -10 -2 -10 4 0 5
6 12 13 14 18 8 -9 24 -36 22 -13 -1 -15 0 -4 2 23 6 22 23 -3 23 -21 0 -27
14 -11 25 6 3 21 -7 35 -22 21 -22 26 -24 26 -10 0 9 -6 17 -12 17 -9 0 -8 4
2 10 13 9 13 11 0 20 -10 6 -11 10 -2 10 6 0 12 7 12 16 0 8 -4 12 -10 9 -5
-3 -10 -2 -10 4 0 5 6 12 13 15 10 5 10 7 0 12 -9 4 -13 33 -13 95 l0 89 -25
-6 c-15 -4 -25 -2 -25 5 0 6 7 11 15 11 21 0 19 18 -2 23 -17 4 -17 5 0 6 21
1 23 21 2 21 -8 0 -15 4 -15 10 0 5 7 7 15 4 9 -4 15 0 15 9 0 10 -10 15 -34
15 -19 0 -38 2 -43 4 -4 2 -27 2 -51 0z m88 -32 c0 -5 -9 -10 -20 -10 -11 0
-20 5 -20 10 0 6 9 10 20 10 11 0 20 -4 20 -10z m-7 -37 c-7 -2 -19 -2 -25 0
-7 3 -2 5 12 5 14 0 19 -2 13 -5z m7 -33 c0 -5 -9 -10 -20 -10 -11 0 -20 5
-20 10 0 6 9 10 20 10 11 0 20 -4 20 -10z m-67 -37 c-13 -2 -35 -2 -50 0 -16
2 -5 4 22 4 28 0 40 -2 28 -4z m60 0 c-7 -2 -19 -2 -25 0 -7 3 -2 5 12 5 14 0
19 -2 13 -5z m50 0 c-7 -2 -19 -2 -25 0 -7 3 -2 5 12 5 14 0 19 -2 13 -5z
m-93 -32 c0 -10 -47 -18 -73 -13 -9 2 -15 7 -13 11 6 10 86 12 86 2z m50 -3
c0 -10 3 -10 9 0 5 8 17 12 27 10 17 -4 16 -6 -5 -15 -27 -11 -71 -6 -71 8 0
5 9 9 20 9 11 0 20 -6 20 -12z m-67 -35 c-13 -2 -35 -2 -50 0 -16 2 -5 4 22 4
28 0 40 -2 28 -4z m60 0 c-7 -2 -19 -2 -25 0 -7 3 -2 5 12 5 14 0 19 -2 13 -5z
m50 0 c-7 -2 -19 -2 -25 0 -7 3 -2 5 12 5 14 0 19 -2 13 -5z m-93 -33 c0 -13
-57 -17 -77 -6 -16 9 -16 11 7 16 29 7 70 1 70 -10z m50 0 c0 -5 -9 -10 -20
-10 -11 0 -20 5 -20 10 0 6 9 10 20 10 11 0 20 -4 20 -10z m45 0 c-3 -5 -13
-10 -21 -10 -8 0 -14 5 -14 10 0 6 9 10 21 10 11 0 17 -4 14 -10z m-112 -37
c-13 -2 -35 -2 -50 0 -16 2 -5 4 22 4 28 0 40 -2 28 -4z m60 0 c-7 -2 -19 -2
-25 0 -7 3 -2 5 12 5 14 0 19 -2 13 -5z m50 0 c-7 -2 -19 -2 -25 0 -7 3 -2 5
12 5 14 0 19 -2 13 -5z m-93 -32 c0 -5 -11 -11 -25 -13 -14 -3 -25 -2 -25 2 0
5 -9 6 -20 3 -11 -3 -20 0 -20 6 0 6 19 11 45 11 25 0 45 -4 45 -9z m50 -5 c0
-9 -7 -12 -20 -9 -11 3 -20 9 -20 14 0 5 9 9 20 9 11 0 20 -6 20 -14z m50 4
c0 -5 -9 -10 -20 -10 -11 0 -20 5 -20 10 0 6 9 10 20 10 11 0 20 -4 20 -10z
m-19 -38 c-13 -2 -26 -12 -28 -23 -5 -20 -28 -26 -37 -10 -3 5 4 12 17 16 22
8 22 8 -3 13 l-25 5 25 7 c14 3 36 4 50 1 l25 -5 -24 -4z m-98 1 c-13 -2 -35
-2 -50 0 -16 2 -5 4 22 4 28 0 40 -2 28 -4z m17 -33 c0 -5 -20 -8 -45 -8 -47
1 -62 14 -22 20 29 4 67 -2 67 -12z m-5 -35 c6 -2 -11 -4 -37 -4 -27 -1 -48 3
-48 7 0 7 62 5 85 -3z m43 -3 c-22 -4 -24 -22 -3 -22 8 0 15 -4 15 -10 0 -5
-9 -10 -20 -10 -11 0 -20 5 -20 11 0 8 -4 8 -12 2 -16 -12 -88 -14 -88 -2 0 5
20 9 45 9 34 0 47 5 55 20 7 13 16 17 28 12 16 -6 16 -7 0 -10z m62 -32 c0 -5
-9 -10 -20 -10 -11 0 -20 5 -20 10 0 6 9 10 20 10 11 0 20 -4 20 -10z m-50
-30 c0 -5 -10 -10 -22 -9 -22 0 -22 1 -3 9 11 5 21 9 23 9 1 1 2 -3 2 -9z
m-67 -7 c-13 -2 -35 -2 -50 0 -16 2 -5 4 22 4 28 0 40 -2 28 -4z m110 0 c-7
-2 -19 -2 -25 0 -7 3 -2 5 12 5 14 0 19 -2 13 -5z m-98 -28 c-23 -8 -85 -10
-85 -3 0 4 21 8 48 7 26 0 43 -2 37 -4z m54 1 c-2 -2 -14 -9 -26 -15 -19 -10
-22 -9 -17 4 4 8 15 15 27 15 11 0 18 -2 16 -4z m51 0 c0 -9 -30 -14 -35 -6
-4 6 3 10 14 10 12 0 21 -2 21 -4z m0 -36 c0 -5 -9 -10 -20 -10 -25 0 -26 -17
-2 -23 9 -2 7 -3 -5 -2 -12 1 -24 -1 -25 -5 -2 -4 -12 -4 -23 1 -19 7 -19 8 3
8 26 1 30 18 5 24 -10 2 -8 3 5 2 12 -1 22 2 22 6 0 5 9 9 20 9 11 0 20 -4 20
-10z m-117 -7 c-13 -2 -35 -2 -50 0 -16 2 -5 4 22 4 28 0 40 -2 28 -4z m0 -30
c-13 -2 -35 -2 -50 0 -16 2 -5 4 22 4 28 0 40 -2 28 -4z m121 -28 c-4 -8 -15
-15 -25 -15 -27 0 -24 18 4 23 12 2 23 5 24 6 1 0 0 -6 -3 -14z m-104 -7 c0
-5 -21 -8 -46 -8 -25 0 -43 3 -40 8 2 4 23 7 45 7 23 0 41 -3 41 -7z m50 2 c0
-5 -9 -10 -21 -10 -11 0 -17 5 -14 10 3 6 13 10 21 10 8 0 14 -4 14 -10z m-7
-37 c-7 -2 -19 -2 -25 0 -7 3 -2 5 12 5 14 0 19 -2 13 -5z m50 0 c-7 -2 -19
-2 -25 0 -7 3 -2 5 12 5 14 0 19 -2 13 -5z m-93 -33 c0 -5 -9 -10 -20 -10 -11
0 -20 5 -20 10 0 6 9 10 20 10 11 0 20 -4 20 -10z m51 -2 c0 -10 2 -10 6 0 5
14 43 17 43 3 0 -11 -37 -18 -67 -13 -13 2 -23 8 -23 13 0 14 40 11 41 -3z
m-8 -35 c-7 -2 -19 -2 -25 0 -7 3 -2 5 12 5 14 0 19 -2 13 -5z m50 0 c-7 -2
-19 -2 -25 0 -7 3 -2 5 12 5 14 0 19 -2 13 -5z m7 -33 c0 -5 -9 -10 -20 -10
-11 0 -20 5 -20 10 0 6 9 10 20 10 11 0 20 -4 20 -10z m-50 -36 c0 -2 -9 -4
-21 -4 -11 0 -18 4 -14 10 5 8 35 3 35 -6z m-53 -1 c-8 -7 -77 -6 -85 2 -3 3
16 5 43 5 27 0 45 -3 42 -7z m96 0 c-7 -2 -19 -2 -25 0 -7 3 -2 5 12 5 14 0
19 -2 13 -5z m-93 -37 c0 -6 4 -4 9 4 6 8 24 14 46 13 42 -1 56 -10 35 -23 -8
-5 -19 -5 -23 -1 -5 5 -21 6 -36 2 -14 -4 -42 -6 -61 -5 -19 1 -41 3 -47 3
-22 2 -14 19 10 23 33 5 67 -3 67 -16z m595 4 c3 -4 -18 -8 -45 -8 -28 0 -50
4 -50 8 0 18 84 17 95 0z m-617 -37 c-35 -5 -37 -23 -3 -23 14 0 25 -4 25 -10
0 -5 -20 -10 -45 -10 -25 0 -45 5 -45 10 0 6 7 10 15 10 21 0 19 18 -2 23 -10
3 5 5 32 4 28 0 38 -2 23 -4z m65 0 c-7 -2 -19 -2 -25 0 -7 3 -2 5 12 5 14 0
19 -2 13 -5z m7 -33 c0 -5 -9 -10 -20 -10 -11 0 -20 5 -20 10 0 6 9 10 20 10
11 0 20 -4 20 -10z m50 0 c0 -5 -9 -10 -20 -10 -11 0 -20 5 -20 10 0 6 9 10
20 10 11 0 20 -4 20 -10z m75 -30 c-19 -8 -19 -9 -1 -9 11 -1 17 -3 15 -6 -3
-2 -23 -1 -45 2 l-39 7 30 7 c43 10 64 9 40 -1z m52 4 c-3 -3 -12 -4 -19 -1
-8 3 -5 6 6 6 11 1 17 -2 13 -5z m40 0 c-3 -3 -12 -4 -19 -1 -8 3 -5 6 6 6 11
1 17 -2 13 -5z m40 0 c-3 -3 -12 -4 -19 -1 -8 3 -5 6 6 6 11 1 17 -2 13 -5z
m40 0 c-3 -3 -12 -4 -19 -1 -8 3 -5 6 6 6 11 1 17 -2 13 -5z m40 0 c-3 -3 -12
-4 -19 -1 -8 3 -5 6 6 6 11 1 17 -2 13 -5z m-404 -11 c-13 -2 -35 -2 -50 0
-16 2 -5 4 22 4 28 0 40 -2 28 -4z m60 0 c-7 -2 -19 -2 -25 0 -7 3 -2 5 12 5
14 0 19 -2 13 -5z m50 0 c-7 -2 -19 -2 -25 0 -7 3 -2 5 12 5 14 0 19 -2 13 -5z
m380 0 c-13 -2 -35 -2 -50 0 -16 2 -5 4 22 4 28 0 40 -2 28 -4z m-246 -9 c-3
-3 -12 -4 -19 -1 -8 3 -5 6 6 6 11 1 17 -2 13 -5z m40 0 c-3 -3 -12 -4 -19 -1
-8 3 -5 6 6 6 11 1 17 -2 13 -5z m40 0 c-3 -3 -12 -4 -19 -1 -8 3 -5 6 6 6 11
1 17 -2 13 -5z m40 0 c-3 -3 -12 -4 -19 -1 -8 3 -5 6 6 6 11 1 17 -2 13 -5z
m40 0 c-3 -3 -12 -4 -19 -1 -8 3 -5 6 6 6 11 1 17 -2 13 -5z m-336 -26 c0 -10
2 -10 6 0 5 14 43 17 43 3 0 -5 -9 -11 -19 -14 -25 -6 -71 3 -71 14 0 14 40
10 41 -3z m-8 -35 c-7 -2 -19 -2 -25 0 -7 3 -2 5 12 5 14 0 19 -2 13 -5z m50
0 c-7 -2 -19 -2 -25 0 -7 3 -2 5 12 5 14 0 19 -2 13 -5z m-43 -33 c0 -5 -9
-10 -20 -10 -11 0 -20 5 -20 10 0 6 9 10 20 10 11 0 20 -4 20 -10z m-7 -37
c-7 -2 -19 -2 -25 0 -7 3 -2 5 12 5 14 0 19 -2 13 -5z m50 0 c-7 -2 -19 -2
-25 0 -7 3 -2 5 12 5 14 0 19 -2 13 -5z m-43 -33 c0 -5 -9 -10 -20 -10 -11 0
-20 5 -20 10 0 6 9 10 20 10 11 0 20 -4 20 -10z m-7 -37 c-7 -2 -19 -2 -25 0
-7 3 -2 5 12 5 14 0 19 -2 13 -5z m50 0 c-7 -2 -19 -2 -25 0 -7 3 -2 5 12 5
14 0 19 -2 13 -5z m62 -23 c-3 -5 -10 -10 -16 -10 -5 0 -9 5 -9 10 0 6 7 10
16 10 8 0 12 -4 9 -10z m-105 -10 c0 -5 -9 -10 -20 -10 -11 0 -20 5 -20 10 0
6 9 10 20 10 11 0 20 -4 20 -10z m555 -66 c-10 -8 -16 -16 -13 -19 2 -3 15 6
28 20 16 17 34 25 56 25 28 0 32 -4 38 -34 4 -18 4 -41 0 -50 -3 -9 -1 -16 5
-16 6 0 11 17 11 40 0 27 4 40 13 40 23 0 78 -31 72 -41 -4 -5 1 -9 10 -9 10
0 13 5 9 13 -4 6 2 3 14 -7 25 -21 29 -41 8 -33 -7 3 -23 -1 -34 -9 -17 -12
-25 -12 -41 -2 -15 9 -26 9 -44 1 -19 -9 -29 -8 -46 3 -18 13 -22 13 -40 -5
-20 -20 -44 -10 -35 14 3 7 1 16 -5 20 -7 3 -8 0 -5 -9 4 -11 0 -16 -10 -16
-9 0 -16 8 -17 18 -1 12 -3 10 -7 -6 -4 -13 -11 -22 -17 -20 -5 2 -9 6 -8 9 3
8 -66 -6 -74 -15 -8 -8 -43 24 -43 39 0 7 7 18 15 25 20 16 85 31 85 18 0 -5
5 -6 10 -3 6 4 8 10 5 15 -6 10 32 17 59 11 18 -4 18 -5 1 -17z m-202 -87 c3
-9 -6 -14 -29 -15 -32 -2 -43 6 -27 21 11 12 51 8 56 -6z"/>
<path d="M2949 2446 c13 -16 51 -41 51 -33 0 2 -15 14 -32 27 -21 15 -28 17
-19 6z"/>
<path d="M2240 2426 c0 -2 8 -10 18 -17 15 -13 16 -12 3 4 -13 16 -21 21 -21
13z"/>
<path d="M1530 2406 c0 -2 8 -10 18 -17 15 -13 16 -12 3 4 -13 16 -21 21 -21
13z"/>
<path d="M60 2396 c0 -2 8 -10 18 -17 15 -13 16 -12 3 4 -13 16 -21 21 -21 13z"/>
<path d="M2008 2275 c-6 -129 -16 -195 -28 -195 -4 0 -17 -9 -29 -19 l-23 -20
33 -60 32 -61 -6 -218 c-4 -144 -2 -197 3 -159 7 40 16 64 31 76 20 16 21 25
20 162 -2 134 0 148 19 172 12 15 19 27 15 27 -3 0 1 13 10 30 14 27 14 31 -2
50 -10 11 -23 20 -29 20 -16 0 -25 52 -33 195 l-7 120 -6 -120z m22 -149 c0
-11 -19 -15 -25 -6 -3 5 1 10 9 10 9 0 16 -2 16 -4z m-5 -46 c3 -5 -1 -10 -9
-10 -9 0 -16 5 -16 10 0 6 4 10 9 10 6 0 13 -4 16 -10z m53 -44 c3 -3 -26 -5
-64 -5 -52 1 -62 3 -39 9 32 8 93 5 103 -4z m-12 -23 c-15 -4 -16 -7 -5 -14
10 -6 5 -9 -16 -10 -29 -1 -30 -1 -5 -9 20 -6 14 -8 -25 -8 -39 0 -45 2 -25 8
25 8 25 8 -5 10 -16 1 -24 4 -17 7 6 2 10 9 6 14 -3 5 20 8 53 8 32 -1 49 -4
39 -6z m-42 -246 c3 -48 2 -87 -3 -87 -5 0 -9 38 -10 85 -1 47 -4 93 -7 103
-5 15 -4 15 5 1 6 -9 12 -55 15 -102z"/>
<path d="M2008 2003 c7 -3 16 -2 19 1 4 3 -2 6 -13 5 -11 0 -14 -3 -6 -6z"/>
<path d="M90 2225 c-24 -25 -42 -45 -39 -45 3 0 25 20 49 45 24 25 42 45 39
45 -3 0 -25 -20 -49 -45z"/>
<path d="M2330 2256 c0 -2 7 -9 15 -16 9 -7 15 -8 15 -2 0 5 -7 12 -15 16 -8
3 -15 4 -15 2z"/>
<path d="M840 2225 c-1 -11 -3 -26 -4 -33 0 -8 -19 -29 -41 -48 l-40 -34 85 1
85 0 -37 32 c-26 23 -38 42 -41 67 -2 19 -5 26 -7 15z m15 -85 c3 -5 -1 -10
-10 -10 -9 0 -13 5 -10 10 3 6 8 10 10 10 2 0 7 -4 10 -10z"/>
<path d="M1564 2218 l-19 -23 23 19 c21 18 27 26 19 26 -2 0 -12 -10 -23 -22z"/>
<path d="M2460 2226 c0 -2 8 -10 18 -17 15 -13 16 -12 3 4 -13 16 -21 21 -21
13z"/>
<path d="M270 2206 c0 -2 8 -10 18 -17 15 -13 16 -12 3 4 -13 16 -21 21 -21
13z"/>
<path d="M2500 2196 c0 -2 8 -10 18 -17 15 -13 16 -12 3 4 -13 16 -21 21 -21
13z"/>
<path d="M2540 2166 c0 -2 8 -10 18 -17 15 -13 16 -12 3 4 -13 16 -21 21 -21
13z"/>
<path d="M2949 2133 c-13 -16 -12 -17 4 -4 16 13 21 21 13 21 -2 0 -10 -8 -17
-17z"/>
<path d="M360 2136 c0 -2 8 -10 18 -17 15 -13 16 -12 3 4 -13 16 -21 21 -21
13z"/>
<path d="M415 2090 c10 -11 20 -20 23 -20 3 0 -3 9 -13 20 -10 11 -20 20 -23
20 -3 0 3 -9 13 -20z"/>
<path d="M1395 2058 l-50 -53 53 50 c28 27 52 51 52 52 0 8 -9 -1 -55 -49z"/>
<path d="M2899 2093 c-13 -16 -12 -17 4 -4 16 13 21 21 13 21 -2 0 -10 -8 -17
-17z"/>
<path d="M732 2089 c2 -6 7 -10 11 -10 4 1 52 1 107 1 60 0 100 4 100 10 0 6
-44 10 -111 10 -74 0 -109 -4 -107 -11z"/>
<path d="M635 2038 l-40 -43 43 40 c39 36 47 45 39 45 -2 0 -21 -19 -42 -42z"/>
<path d="M2854 2058 l-19 -23 23 19 c12 11 22 21 22 23 0 8 -8 2 -26 -19z"/>
<path d="M450 2066 c0 -2 8 -10 18 -17 15 -13 16 -12 3 4 -13 16 -21 21 -21
13z"/>
<path d="M713 1863 c4 -115 7 -213 7 -220 0 -6 9 -9 20 -6 11 3 20 0 20 -6 0
-6 -11 -11 -25 -11 -23 0 -25 -4 -25 -45 0 -25 5 -45 10 -45 6 0 10 5 10 10 0
6 7 10 15 10 8 0 15 -4 15 -10 0 -5 -6 -10 -12 -10 -10 0 -9 -3 1 -9 7 -5 22
-6 32 -4 10 3 19 0 19 -6 0 -6 -5 -11 -12 -11 -6 0 -8 -3 -4 -7 3 -4 24 -6 46
-5 23 2 40 -2 40 -8 0 -19 -65 -10 -102 15 -20 14 -44 22 -52 19 -14 -5 -16
10 -16 123 l0 129 -52 -4 c-29 -2 -64 1 -78 7 -20 8 -10 10 53 10 89 1 98 13
47 68 l-29 32 -55 -57 -55 -57 4 -82 c3 -67 1 -83 -11 -83 -11 0 -14 -26 -14
-144 l0 -144 43 3 42 3 -1 46 c-1 35 2 46 13 46 12 0 14 -10 8 -60 -7 -57 -6
-60 15 -60 23 0 23 -2 3 118 -3 19 -1 32 6 32 6 0 8 -7 5 -15 -4 -9 0 -15 8
-15 22 0 19 37 -4 43 -14 4 -22 0 -25 -14 -3 -10 -12 -19 -19 -19 -11 0 -14
20 -14 90 l0 90 49 0 49 0 4 -51 c3 -57 -12 -74 -67 -72 l-30 2 29 -9 c32 -10
83 -3 93 13 4 6 1 7 -7 2 -8 -5 -11 -4 -6 3 7 12 66 -4 66 -18 0 -5 10 -11 23
-13 19 -4 18 -4 -5 -6 -18 0 -28 -7 -28 -16 0 -8 -5 -15 -11 -15 -6 0 -9 6 -6
13 3 8 -3 13 -17 14 -11 0 -15 -1 -8 -4 22 -9 12 -25 -13 -21 -14 3 -25 1 -25
-3 0 -15 79 -10 108 7 25 15 25 15 8 0 -19 -16 -19 -16 2 -16 20 0 28 14 23
43 0 4 10 7 24 7 29 0 34 -16 8 -23 -17 -4 -17 -5 0 -6 9 0 17 -5 17 -10 0
-14 -40 -21 -130 -21 l-85 0 3 -45 4 -45 89 0 89 0 0 45 c0 33 4 45 15 45 8 0
15 -4 15 -10 0 -5 -6 -10 -12 -10 -9 0 -8 -4 2 -10 12 -8 13 -11 1 -19 -11 -7
-11 -9 0 -14 12 -4 11 -7 -1 -16 -11 -8 1 -11 48 -11 l62 0 0 378 0 377 -109
0 c-86 0 -107 -3 -99 -12 6 -7 19 -13 29 -13 11 0 19 -4 19 -10 0 -14 -23 -13
-38 2 -9 9 -12 9 -12 0 0 -7 -7 -12 -15 -12 -8 0 -15 5 -15 10 0 6 7 10 16 10
14 0 14 3 4 15 -7 8 -19 15 -28 15 -13 0 -14 -25 -9 -207z m157 167 c0 -5 -11
-10 -25 -10 -14 0 -25 5 -25 10 0 6 11 10 25 10 14 0 25 -4 25 -10z m40 0 c0
-5 -7 -10 -15 -10 -8 0 -15 5 -15 10 0 6 7 10 15 10 8 0 15 -4 15 -10z m40 0
c0 -5 -7 -10 -15 -10 -8 0 -15 5 -15 10 0 6 7 10 15 10 8 0 15 -4 15 -10z
m-190 -30 c0 -5 -7 -10 -15 -10 -8 0 -15 5 -15 10 0 6 7 10 15 10 8 0 15 -4
15 -10z m110 0 c0 -6 -20 -10 -45 -10 -25 0 -45 4 -45 9 0 5 20 9 45 9 25 1
45 -3 45 -8z m40 0 c0 -5 -7 -10 -15 -10 -8 0 -15 5 -15 10 0 6 7 10 15 10 8
0 15 -4 15 -10z m40 0 c0 -5 -7 -10 -15 -10 -8 0 -15 5 -15 10 0 6 7 10 15 10
8 0 15 -4 15 -10z m-190 -30 c0 -5 -7 -10 -15 -10 -8 0 -15 5 -15 10 0 6 7 10
15 10 8 0 15 -4 15 -10z m110 0 c0 -6 -20 -10 -45 -10 -25 0 -45 4 -45 8 0 4
20 9 45 10 25 1 45 -3 45 -8z m40 0 c0 -5 -7 -10 -15 -10 -8 0 -15 5 -15 10 0
6 7 10 15 10 8 0 15 -4 15 -10z m40 0 c0 -5 -7 -10 -15 -10 -8 0 -15 5 -15 10
0 6 7 10 15 10 8 0 15 -4 15 -10z m-190 -30 c0 -5 -7 -10 -15 -10 -8 0 -15 5
-15 10 0 6 7 10 15 10 8 0 15 -4 15 -10z m110 -2 c0 -4 -20 -8 -45 -8 -25 0
-45 4 -45 8 0 4 20 8 45 8 25 1 45 -3 45 -8z m40 2 c0 -5 -7 -10 -15 -10 -8 0
-15 5 -15 10 0 6 7 10 15 10 8 0 15 -4 15 -10z m40 0 c0 -5 -7 -10 -16 -10 -8
0 -12 5 -9 10 3 6 10 10 16 10 5 0 9 -4 9 -10z m-190 -30 c0 -5 -7 -10 -15
-10 -8 0 -15 5 -15 10 0 6 7 10 15 10 8 0 15 -4 15 -10z m40 0 c0 -5 -7 -10
-16 -10 -8 0 -12 5 -9 10 3 6 10 10 16 10 5 0 9 -4 9 -10z m70 -1 c0 -5 -14
-9 -31 -9 -16 0 -28 4 -25 9 3 5 17 9 31 9 14 0 25 -4 25 -9z m40 1 c0 -5 -7
-10 -15 -10 -8 0 -15 5 -15 10 0 6 7 10 15 10 8 0 15 -4 15 -10z m40 0 c0 -5
-7 -10 -15 -10 -8 0 -15 5 -15 10 0 6 7 10 15 10 8 0 15 -4 15 -10z m-190 -30
c0 -5 -7 -10 -15 -10 -8 0 -15 5 -15 10 0 6 7 10 15 10 8 0 15 -4 15 -10z
m110 -2 c0 -5 -23 -8 -51 -8 -27 0 -48 4 -45 8 6 10 96 10 96 0z m40 2 c0 -5
-7 -10 -15 -10 -8 0 -15 5 -15 10 0 6 7 10 15 10 8 0 15 -4 15 -10z m40 0 c0
-5 -7 -10 -15 -10 -8 0 -15 5 -15 10 0 6 7 10 15 10 8 0 15 -4 15 -10z m-190
-30 c0 -5 -7 -10 -16 -10 -8 0 -12 5 -9 10 3 6 10 10 16 10 5 0 9 -4 9 -10z
m40 0 c0 -5 -7 -10 -16 -10 -8 0 -12 5 -9 10 3 6 10 10 16 10 5 0 9 -4 9 -10z
m70 0 c0 -5 -15 -9 -32 -9 l-33 1 30 8 c17 4 31 8 33 9 1 0 2 -3 2 -9z m40 0
c0 -5 -7 -10 -15 -10 -8 0 -15 5 -15 10 0 6 7 10 15 10 8 0 15 -4 15 -10z m40
0 c0 -5 -7 -10 -16 -10 -8 0 -12 5 -9 10 3 6 10 10 16 10 5 0 9 -4 9 -10z
m-292 -22 c21 -21 13 -33 -20 -31 -18 1 -35 2 -37 2 -6 1 31 41 39 41 3 0 11
-5 18 -12z m102 -23 c0 -16 -6 -25 -15 -25 -9 0 -15 9 -15 25 0 16 6 25 15 25
9 0 15 -9 15 -25z m40 15 c0 -5 -7 -10 -16 -10 -8 0 -12 5 -9 10 3 6 10 10 16
10 5 0 9 -4 9 -10z m70 0 c0 -5 -15 -9 -32 -9 l-33 1 30 8 c17 4 31 8 33 9 1
0 2 -3 2 -9z m40 -2 c0 -4 -7 -8 -15 -8 -8 0 -15 4 -15 8 0 5 7 9 15 9 8 0 15
-4 15 -9z m40 2 c0 -5 -7 -10 -16 -10 -8 0 -12 5 -9 10 3 6 10 10 16 10 5 0 9
-4 9 -10z m-40 -30 c0 -5 -8 -10 -17 -10 -15 0 -16 2 -3 10 19 12 20 12 20 0z
m40 0 c0 -5 -7 -10 -16 -10 -8 0 -12 5 -9 10 3 6 10 10 16 10 5 0 9 -4 9 -10z
m-152 -12 c-2 -8 11 -14 35 -16 31 -3 37 -7 37 -26 0 -20 -4 -22 -32 -17 -32
5 -32 6 -5 9 37 5 35 22 -3 22 -23 0 -30 -4 -30 -20 0 -11 -5 -17 -12 -15 -7
3 -13 21 -13 40 0 21 5 35 13 35 6 0 11 -6 10 -12z m60 5 c-10 -2 -26 -2 -35
0 -10 3 -2 5 17 5 19 0 27 -2 18 -5z m-98 -58 c0 -33 -4 -45 -15 -45 -8 0 -15
5 -15 10 0 6 6 10 13 10 8 0 9 2 1 8 -7 4 -10 18 -9 32 3 31 3 30 15 30 6 0
10 -20 10 -45z m150 12 c0 -14 -6 -24 -15 -24 -9 0 -15 10 -15 24 0 14 6 23
15 23 9 0 15 -9 15 -23z m40 -2 c0 -25 -14 -33 -25 -15 -3 6 0 10 7 11 10 0
10 2 1 6 -18 7 -16 23 2 23 9 0 15 -9 15 -25z m-373 9 c-3 -3 -12 -4 -19 -1
-8 3 -5 6 6 6 11 1 17 -2 13 -5z m73 -3 c0 -6 -4 -13 -10 -16 -5 -3 -10 -12
-10 -18 0 -8 3 -8 9 1 4 7 12 12 17 11 21 -4 26 2 14 16 -10 12 -10 15 3 15
11 0 15 -10 14 -34 0 -19 -4 -33 -8 -30 -4 2 -9 -6 -11 -18 -2 -18 -9 -23 -33
-23 -26 0 -30 3 -27 24 2 13 0 21 -5 18 -5 -3 -7 7 -5 23 4 25 14 34 45 39 4
0 7 -3 7 -8z m-73 -17 c-3 -3 -12 -4 -19 -1 -8 3 -5 6 6 6 11 1 17 -2 13 -5z
m0 -20 c-3 -3 -12 -4 -19 -1 -8 3 -5 6 6 6 11 1 17 -2 13 -5z m223 -14 c0 -5
-4 -10 -9 -10 -6 0 -13 5 -16 10 -3 6 1 10 9 10 9 0 16 -4 16 -10z m70 2 c0
-5 -13 -7 -30 -4 -16 2 -30 6 -30 8 0 2 14 4 30 4 17 0 30 -4 30 -8z m40 0 c0
-5 -7 -9 -15 -9 -8 0 -15 4 -15 9 0 4 7 8 15 8 8 0 15 -4 15 -8z m40 -2 c0 -5
-4 -10 -9 -10 -6 0 -13 5 -16 10 -3 6 1 10 9 10 9 0 16 -4 16 -10z m-370 -30
c0 -16 -4 -30 -10 -30 -5 0 -10 14 -10 30 0 17 5 30 10 30 6 0 10 -13 10 -30z
m180 0 c0 -5 -4 -10 -9 -10 -6 0 -13 5 -16 10 -3 6 1 10 9 10 9 0 16 -4 16
-10z m40 0 c0 -5 -4 -10 -9 -10 -6 0 -13 5 -16 10 -3 6 1 10 9 10 9 0 16 -4
16 -10z m70 1 c0 -4 -13 -8 -30 -7 -39 1 -39 16 0 16 17 0 30 -4 30 -9z m40
-16 c0 -16 -6 -25 -15 -25 -18 0 -20 20 -2 21 10 0 10 2 0 6 -18 7 -16 23 2
23 9 0 15 -9 15 -25z m40 15 c0 -5 -7 -10 -15 -10 -8 0 -15 5 -15 10 0 6 7 10
15 10 8 0 15 -4 15 -10z m-150 -30 c0 -5 -4 -10 -9 -10 -6 0 -13 5 -16 10 -3
6 1 10 9 10 9 0 16 -4 16 -10z m70 1 c0 -4 -13 -8 -30 -7 -39 1 -39 16 0 16
17 0 30 -4 30 -9z m80 -1 c0 -5 -7 -10 -15 -10 -8 0 -15 5 -15 10 0 6 7 10 15
10 8 0 15 -4 15 -10z m-373 -16 c-3 -3 -12 -4 -19 -1 -8 3 -5 6 6 6 11 1 17
-2 13 -5z m91 -1 c-16 -2 -40 -2 -55 0 -16 2 -3 4 27 4 30 0 43 -2 28 -4z m92
-13 c0 -5 -7 -10 -15 -10 -8 0 -15 5 -15 10 0 6 7 10 15 10 8 0 15 -4 15 -10z
m40 0 c0 -5 -7 -10 -15 -10 -8 0 -15 5 -15 10 0 6 7 10 15 10 8 0 15 -4 15
-10z m70 0 c0 -5 -13 -10 -30 -10 -16 0 -30 5 -30 10 0 6 14 10 30 10 17 0 30
-4 30 -10z m40 0 c0 -5 -7 -10 -15 -10 -8 0 -15 5 -15 10 0 6 7 10 15 10 8 0
15 -4 15 -10z m40 0 c0 -5 -7 -10 -15 -10 -8 0 -15 5 -15 10 0 6 7 10 15 10 8
0 15 -4 15 -10z m-372 -75 c-2 -60 -5 -75 -17 -76 -12 -1 -12 -2 2 -6 25 -7
21 -23 -6 -23 -19 0 -23 5 -21 28 1 15 2 55 3 90 1 55 3 62 21 62 19 0 20 -6
18 -75z m182 45 c0 -5 -7 -10 -15 -10 -8 0 -15 5 -15 10 0 6 7 10 15 10 8 0
15 -4 15 -10z m40 0 c0 -5 -7 -10 -15 -10 -8 0 -15 5 -15 10 0 6 7 10 15 10 8
0 15 -4 15 -10z m70 0 c0 -5 -13 -10 -30 -10 -16 0 -30 5 -30 10 0 6 14 10 30
10 17 0 30 -4 30 -10z m40 0 c0 -5 -7 -10 -15 -10 -8 0 -15 5 -15 10 0 6 7 10
15 10 8 0 15 -4 15 -10z m40 0 c0 -5 -7 -10 -15 -10 -8 0 -15 5 -15 10 0 6 7
10 15 10 8 0 15 -4 15 -10z m-150 -30 c0 -5 -7 -10 -15 -10 -8 0 -15 5 -15 10
0 6 7 10 15 10 8 0 15 -4 15 -10z m70 0 c0 -5 -13 -10 -30 -10 -16 0 -30 5
-30 10 0 6 14 10 30 10 17 0 30 -4 30 -10z m40 0 c0 -5 -7 -10 -15 -10 -8 0
-15 5 -15 10 0 6 7 10 15 10 8 0 15 -4 15 -10z m40 0 c0 -5 -7 -10 -15 -10 -8
0 -15 5 -15 10 0 6 7 10 15 10 8 0 15 -4 15 -10z m-80 -30 c0 -5 -13 -10 -30
-10 -16 0 -30 5 -30 10 0 6 14 10 30 10 17 0 30 -4 30 -10z m40 0 c0 -5 -7
-10 -15 -10 -8 0 -15 5 -15 10 0 6 7 10 15 10 8 0 15 -4 15 -10z m40 0 c0 -5
-7 -10 -15 -10 -8 0 -15 5 -15 10 0 6 7 10 15 10 8 0 15 -4 15 -10z m-40 -30
c0 -5 -7 -10 -15 -10 -8 0 -15 5 -15 10 0 6 7 10 15 10 8 0 15 -4 15 -10z m40
0 c0 -5 -7 -10 -15 -10 -8 0 -15 5 -15 10 0 6 7 10 15 10 8 0 15 -4 15 -10z
m-40 -30 c0 -5 -7 -10 -15 -10 -8 0 -15 5 -15 10 0 6 7 10 15 10 8 0 15 -4 15
-10z m40 0 c0 -5 -7 -10 -15 -10 -8 0 -15 5 -15 10 0 6 7 10 15 10 8 0 15 -4
15 -10z m-40 -30 c0 -5 -7 -10 -15 -10 -8 0 -15 5 -15 10 0 6 7 10 15 10 8 0
15 -4 15 -10z m40 0 c0 -5 -7 -10 -15 -10 -8 0 -15 5 -15 10 0 6 7 10 15 10 8
0 15 -4 15 -10z m-370 -20 c0 -5 -12 -10 -26 -10 -14 0 -23 4 -19 10 3 6 15
10 26 10 10 0 19 -4 19 -10z m330 -10 c0 -5 -7 -10 -15 -10 -8 0 -15 5 -15 10
0 6 7 10 15 10 8 0 15 -4 15 -10z m40 0 c0 -5 -7 -10 -15 -10 -8 0 -15 5 -15
10 0 6 7 10 15 10 8 0 15 -4 15 -10z m-260 -32 c0 -25 3 -29 10 -18 8 13 10
12 10 -2 0 -11 -8 -18 -20 -18 -16 0 -20 7 -20 35 0 19 5 35 10 35 6 0 10 -15
10 -32z m53 17 c1 -5 -6 -11 -15 -13 -11 -2 -18 3 -18 13 0 17 30 18 33 0z
m38 -17 l2 -33 7 35 7 35 2 -37 c1 -31 -3 -38 -17 -38 -14 0 -19 8 -20 35 -1
19 3 35 8 35 6 0 11 -15 11 -32z m49 -3 c0 -19 -4 -35 -10 -35 -5 0 -10 16
-10 35 0 19 5 35 10 35 6 0 10 -16 10 -35z m-250 15 c0 -5 -12 -10 -26 -10
-14 0 -23 4 -19 10 3 6 15 10 26 10 10 0 19 -4 19 -10z m330 -10 c0 -5 -7 -10
-15 -10 -8 0 -15 5 -15 10 0 6 7 10 15 10 8 0 15 -4 15 -10z m40 0 c0 -5 -7
-10 -15 -10 -8 0 -15 5 -15 10 0 6 7 10 15 10 8 0 15 -4 15 -10z m-370 -20 c0
-5 -12 -10 -26 -10 -14 0 -23 4 -19 10 3 6 15 10 26 10 10 0 19 -4 19 -10z
m170 -7 c0 -7 -7 -13 -15 -13 -8 0 -15 6 -15 13 0 8 7 14 15 14 8 0 15 -6 15
-14z m160 -3 c0 -5 -7 -10 -15 -10 -8 0 -15 5 -15 10 0 6 7 10 15 10 8 0 15
-4 15 -10z m40 0 c0 -5 -7 -10 -15 -10 -8 0 -15 5 -15 10 0 6 7 10 15 10 8 0
15 -4 15 -10z"/>
<path d="M2284 1720 c0 -179 2 -252 3 -162 2 89 2 235 0 325 -1 89 -3 16 -3
-163z"/>
<path d="M2740 1975 c0 -8 2 -15 4 -15 2 0 6 7 10 15 3 8 1 15 -4 15 -6 0 -10
-7 -10 -15z"/>
<path d="M2776 1977 c3 -10 9 -15 12 -12 3 3 0 11 -7 18 -10 9 -11 8 -5 -6z"/>
<path d="M484 1928 l-19 -23 23 19 c21 18 27 26 19 26 -2 0 -12 -10 -23 -22z"/>
<path d="M580 1936 c0 -2 8 -10 18 -17 15 -13 16 -12 3 4 -13 16 -21 21 -21
13z"/>
<path d="M2810 1926 c0 -2 8 -10 18 -17 15 -13 16 -12 3 4 -13 16 -21 21 -21
13z"/>
<path d="M2630 1863 l-55 -58 58 55 c53 50 62 60 54 60 -1 0 -27 -26 -57 -57z"/>
<path d="M1807 1853 c-3 -5 1 -14 9 -20 7 -7 15 -9 18 -4 4 5 15 7 26 4 14 -4
20 0 20 11 0 12 -9 16 -34 16 -19 0 -37 -3 -39 -7z"/>
<path d="M2900 1856 c0 -2 8 -10 18 -17 15 -13 16 -12 3 4 -13 16 -21 21 -21
13z"/>
<path d="M1450 1836 c0 -2 8 -10 18 -17 15 -13 16 -12 3 4 -13 16 -21 21 -21
13z"/>
<path d="M2549 1783 c-13 -16 -12 -17 4 -4 9 7 17 15 17 17 0 8 -8 3 -21 -13z"/>
<path d="M1837 1783 c-13 -12 -7 -18 18 -19 15 -1 25 3 25 12 0 14 -31 19 -43
7z"/>
<path d="M60 1766 c0 -2 8 -10 18 -17 15 -13 16 -12 3 4 -13 16 -21 21 -21 13z"/>
<path d="M1840 1740 c0 -5 9 -10 20 -10 11 0 20 5 20 10 0 6 -9 10 -20 10 -11
0 -20 -4 -20 -10z"/>
<path d="M1030 1704 c0 -11 5 -14 16 -10 9 3 20 6 25 6 5 0 9 5 9 10 0 6 -11
10 -25 10 -16 0 -25 -6 -25 -16z"/>
<path d="M1580 1705 c0 -11 6 -14 25 -9 15 4 25 2 25 -5 0 -6 -11 -11 -25 -11
-14 0 -25 -4 -25 -10 0 -5 11 -10 25 -10 14 0 25 5 25 11 0 8 5 8 15 -1 9 -8
15 -8 15 -2 0 6 -6 13 -12 15 -22 9 10 25 43 21 16 -2 29 0 29 4 0 4 -31 9
-70 10 -58 3 -70 1 -70 -13z"/>
<path d="M1732 1711 c2 -27 -4 -33 -32 -29 -19 3 -29 1 -27 -6 5 -15 107 -21
107 -7 0 6 -9 11 -20 11 -11 0 -20 5 -20 11 0 7 9 9 24 5 16 -4 26 -1 30 9 4
12 -2 15 -29 13 -18 -1 -33 -4 -33 -7z"/>
<path d="M1835 1710 c-3 -5 3 -10 14 -10 12 0 21 -4 21 -10 0 -5 -4 -10 -10
-10 -5 0 -10 -4 -10 -10 0 -5 7 -10 15 -10 10 0 15 10 15 30 0 23 -5 30 -19
30 -11 0 -23 -4 -26 -10z"/>
<path d="M1850 1641 c0 -5 6 -12 13 -15 10 -5 10 -7 0 -12 -18 -8 -16 -24 2
-24 10 0 15 10 15 30 0 20 -5 30 -15 30 -8 0 -15 -4 -15 -9z"/>
<path d="M127 1619 c7 -7 15 -10 18 -7 3 3 -2 9 -12 12 -14 6 -15 5 -6 -5z"/>
<path d="M230 1606 c0 -2 8 -10 18 -17 15 -13 16 -12 3 4 -13 16 -21 21 -21
13z"/>
<path d="M2441 1607 c2 -1 15 -11 29 -22 l25 -20 -19 23 c-11 12 -24 22 -29
22 -6 0 -8 -1 -6 -3z"/>
<path d="M1302 1564 c9 -9 21 -13 27 -10 20 13 11 26 -16 26 -25 0 -26 -1 -11
-16z"/>
<path d="M1850 1570 c19 -13 30 -13 30 0 0 6 -10 10 -22 10 -19 0 -20 -2 -8
-10z"/>
<path d="M2500 1566 c0 -2 8 -10 18 -17 15 -13 16 -12 3 4 -13 16 -21 21 -21
13z"/>
<path d="M320 1536 c0 -2 8 -10 18 -17 15 -13 16 -12 3 4 -13 16 -21 21 -21
13z"/>
<path d="M616 1530 c7 -7 19 -7 35 -1 23 9 22 10 -10 10 -24 1 -32 -2 -25 -9z"/>
<path d="M2540 1536 c0 -2 8 -10 18 -17 15 -13 16 -12 3 4 -13 16 -21 21 -21
13z"/>
<path d="M360 1506 c0 -2 8 -10 18 -17 15 -13 16 -12 3 4 -13 16 -21 21 -21
13z"/>
<path d="M643 1499 c14 -8 22 -8 30 0 8 8 3 11 -18 11 -26 -1 -28 -2 -12 -11z"/>
<path d="M1580 1460 c0 -12 56 -14 64 -2 2 4 -11 9 -30 10 -19 2 -34 -2 -34
-8z"/>
<path d="M2630 1466 c0 -2 8 -10 18 -17 15 -13 16 -12 3 4 -13 16 -21 21 -21
13z"/>
<path d="M2894 1448 l-19 -23 23 19 c12 11 22 21 22 23 0 8 -8 2 -26 -19z"/>
<path d="M1580 1410 c0 -29 13 -40 25 -20 3 6 1 10 -4 10 -6 0 -11 5 -11 10 0
6 6 10 14 10 8 0 18 5 21 10 4 6 -5 10 -19 10 -22 0 -26 -4 -26 -30z"/>
<path d="M2685 1420 c10 -11 20 -20 23 -20 3 0 -3 9 -13 20 -10 11 -20 20 -23
20 -3 0 3 -9 13 -20z"/>
<path d="M400 1388 c-1 -24 -5 -62 -9 -85 -8 -42 -8 -43 19 -43 27 0 27 1 19
43 -4 23 -8 61 -9 85 0 23 -4 42 -10 42 -5 0 -10 -19 -10 -42z"/>
<path d="M2824 1388 l-19 -23 23 19 c21 18 27 26 19 26 -2 0 -12 -10 -23 -22z"/>
<path d="M2362 1320 c0 -14 2 -19 5 -12 2 6 2 18 0 25 -3 6 -5 1 -5 -13z"/>
<path d="M470 1050 c0 -140 4 -270 9 -288 6 -18 6 -30 1 -27 -14 8 -28 -18
-35 -67 -8 -54 -2 -58 33 -25 l25 22 -6 -22 c-3 -13 -1 -23 4 -23 5 0 9 9 9
20 0 11 5 20 10 20 6 0 10 -9 10 -20 0 -12 7 -20 18 -20 14 0 15 2 2 10 -13 9
-13 11 0 20 13 8 12 10 -5 11 -11 1 -26 2 -32 2 -8 -1 -13 12 -14 31 -2 78 3
152 12 168 23 42 59 3 59 -63 0 -16 5 -29 11 -29 7 0 9 18 5 53 -10 100 -7
172 7 158 16 -16 63 -13 78 5 10 13 10 17 -1 24 -7 4 -19 6 -27 3 -7 -3 -24
-2 -38 1 -22 6 -24 11 -24 62 1 56 -10 91 -12 38 -1 -29 -1 -29 -9 -4 -8 24
-8 24 -9 3 -1 -13 -5 -23 -9 -23 -5 0 -7 13 -4 30 2 16 9 28 15 27 7 -1 11 12
9 33 l-1 35 11 -30 c16 -44 27 -55 59 -55 26 0 28 -3 32 -47 l4 -48 0 52 c-1
29 2 56 6 60 17 17 6 33 -18 27 -34 -8 -75 3 -75 21 0 19 19 19 26 0 4 -8 15
-15 25 -15 16 0 19 7 17 53 -1 35 -2 42 -5 20 -2 -18 -9 -33 -14 -33 -7 0 -8
12 -4 30 4 17 2 30 -3 30 -14 0 -23 -30 -17 -51 5 -14 2 -17 -9 -13 -19 7 -22
70 -3 77 6 2 -18 6 -56 8 l-67 4 0 -255z m50 205 c0 -24 -5 -35 -15 -35 -10 0
-15 11 -15 35 0 24 5 35 15 35 10 0 15 -11 15 -35z m27 -17 c-2 -13 -4 -5 -4
17 -1 22 1 32 4 23 2 -10 2 -28 0 -40z m20 0 c-2 -13 -4 -5 -4 17 -1 22 1 32
4 23 2 -10 2 -28 0 -40z m-47 -53 c0 -16 -6 -25 -15 -25 -9 0 -15 9 -15 25 0
16 6 25 15 25 9 0 15 -9 15 -25z m30 0 c0 -14 -3 -25 -7 -25 -5 0 -8 11 -8 25
0 14 3 25 8 25 4 0 7 -11 7 -25z m110 -35 c0 -5 -2 -10 -4 -10 -3 0 -8 5 -11
10 -3 6 -1 10 4 10 6 0 11 -4 11 -10z m-140 -36 c0 -15 -6 -24 -15 -24 -10 0
-15 10 -15 30 0 22 4 28 15 24 8 -4 15 -17 15 -30z m0 -59 c0 -7 -7 -15 -15
-19 -11 -4 -15 1 -15 19 0 18 4 23 15 19 8 -4 15 -12 15 -19z m27 -12 c-3 -10
-5 -4 -5 12 0 17 2 24 5 18 2 -7 2 -21 0 -30z m20 0 c-3 -10 -5 -4 -5 12 0 17
2 24 5 18 2 -7 2 -21 0 -30z m-47 -48 c0 -16 -6 -25 -15 -25 -9 0 -15 9 -15
25 0 16 6 25 15 25 9 0 15 -9 15 -25z m30 0 c0 -14 -3 -25 -7 -25 -5 0 -8 11
-8 25 0 14 3 25 8 25 4 0 7 -11 7 -25z m30 13 c0 -7 -5 -20 -10 -28 -8 -12
-10 -9 -10 13 0 15 5 27 10 27 6 0 10 -6 10 -12z m-60 -63 c0 -8 -7 -15 -15
-15 -8 0 -15 7 -15 15 0 8 7 15 15 15 8 0 15 -7 15 -15z m30 -1 c0 -8 -5 -12
-10 -9 -6 4 -8 11 -5 16 9 14 15 11 15 -7z m17 -6 c-3 -8 -6 -5 -6 6 -1 11 2
17 5 13 3 -3 4 -12 1 -19z m-47 -28 c0 -5 -7 -10 -15 -10 -8 0 -15 5 -15 10 0
6 7 10 15 10 8 0 15 -4 15 -10z m50 1 c0 -10 -26 -9 -36 2 -4 4 2 7 14 7 12 0
22 -4 22 -9z m-82 -227 c-2 -10 -11 -20 -21 -22 -12 -2 -15 1 -12 12 3 9 7 24
10 33 8 22 28 2 23 -23z"/>
<path d="M472 690 c0 -14 2 -19 5 -12 2 6 2 18 0 25 -3 6 -5 1 -5 -13z"/>
<path d="M2081 1294 c0 -11 3 -14 6 -6 3 7 2 16 -1 19 -3 4 -6 -2 -5 -13z"/>
<path d="M661 1243 c1 -32 4 -46 6 -30 3 19 10 27 24 27 10 0 19 -5 19 -11 0
-5 -4 -7 -10 -4 -6 4 -10 -35 -10 -109 0 -64 4 -116 9 -116 5 0 9 -15 9 -33 0
-25 -4 -33 -19 -33 -10 0 -19 6 -19 14 0 7 5 10 10 7 6 -3 10 1 10 11 0 13 -3
14 -14 5 -8 -7 -14 -25 -14 -41 1 -26 3 -27 13 -13 13 18 35 10 35 -13 0 -17
16 -19 26 -2 4 7 3 8 -4 4 -7 -4 -12 -2 -12 3 0 6 5 11 10 11 6 0 10 5 10 11
0 5 -4 7 -10 4 -5 -3 -10 1 -10 9 0 8 8 17 18 19 16 4 16 5 0 6 -22 1 -24 31
-3 31 8 0 18 -15 23 -32 8 -29 10 -31 18 -14 5 13 3 21 -4 24 -8 2 -12 42 -12
132 0 123 1 129 20 127 18 -1 20 -8 20 -90 0 -75 2 -86 14 -75 8 7 10 15 5 16
-5 2 -9 17 -9 33 0 38 26 29 32 -12 4 -22 -1 -33 -19 -44 -24 -16 -59 -75 -44
-75 5 0 11 10 14 22 5 18 8 19 22 8 8 -7 13 -15 10 -19 -3 -3 -10 1 -15 9 -8
13 -10 12 -10 -2 0 -13 8 -18 29 -18 23 0 30 6 35 26 6 21 9 24 21 14 18 -15
20 -34 3 -24 -6 4 -8 3 -5 -3 4 -7 58 -12 136 -12 125 -2 129 -1 134 21 4 12
1 28 -5 35 -32 39 -148 80 -148 53 0 -7 7 -10 16 -6 14 5 15 4 4 -9 -8 -10
-21 -13 -39 -8 -24 6 -25 5 -11 -12 8 -10 10 -16 4 -12 -7 4 -14 -2 -17 -14
-4 -15 -2 -18 7 -10 7 6 16 8 19 4 4 -3 7 0 7 9 0 16 40 38 68 38 9 0 26 -7
36 -15 16 -12 17 -17 6 -30 -10 -12 -10 -15 4 -15 9 0 16 5 16 11 0 5 5 7 10
4 6 -3 10 -12 10 -20 0 -10 -7 -12 -29 -5 -15 4 -34 4 -42 0 -7 -5 -38 -6 -68
-4 -31 3 -65 5 -76 5 -11 1 -15 3 -9 5 6 3 9 16 6 29 -3 19 0 25 13 25 14 0
15 3 5 14 -9 12 -7 15 12 14 13 -1 29 -6 36 -11 9 -7 11 -5 6 8 -6 14 -16 16
-58 12 -28 -2 -59 -8 -68 -12 -14 -5 -16 -2 -13 22 5 40 6 41 15 13 l8 -25 2
25 2 25 8 -25 c8 -24 8 -24 9 -2 1 24 11 28 29 10 8 -8 13 -1 18 30 4 23 10
42 14 42 11 0 9 -49 -1 -56 -19 -11 -8 -34 15 -34 30 0 40 14 24 32 -17 17
-20 98 -6 116 8 9 8 16 -2 25 -9 9 -11 9 -6 0 3 -6 2 -14 -4 -18 -5 -3 -10 1
-10 10 0 9 -5 13 -10 10 -7 -4 -7 -12 0 -25 13 -24 13 -50 0 -50 -5 0 -10 9
-10 20 0 11 -6 20 -14 20 -9 0 -12 -7 -9 -20 4 -14 0 -20 -11 -20 -12 0 -16 9
-16 35 0 34 12 46 25 25 9 -15 22 -12 22 5 0 13 -23 15 -144 15 l-143 0 1 -57z
m49 37 c0 -5 -6 -10 -12 -10 -9 0 -8 -4 2 -10 12 -8 11 -10 -7 -10 -16 0 -23
6 -23 20 0 13 7 20 20 20 11 0 20 -4 20 -10z m40 -8 c0 -10 -7 -19 -15 -19 -8
0 -15 9 -15 19 0 10 7 18 15 18 8 0 15 -8 15 -18z m30 -2 c0 -11 -4 -20 -10
-20 -5 0 -10 9 -10 20 0 11 5 20 10 20 6 0 10 -9 10 -20z m17 -12 c-3 -7 -5
-2 -5 12 0 14 2 19 5 13 2 -7 2 -19 0 -25z m43 -3 c0 -24 -5 -35 -15 -35 -10
0 -15 11 -15 35 0 24 5 35 15 35 10 0 15 -11 15 -35z m40 5 l7 35 2 -37 c1
-26 -3 -38 -13 -38 -16 0 -30 46 -19 63 5 7 10 -2 12 -23 l4 -35 7 35z m-130
-135 c0 -96 -3 -115 -15 -115 -12 0 -15 19 -15 115 0 96 3 115 15 115 12 0 15
-19 15 -115z m90 60 c0 -16 -6 -25 -15 -25 -9 0 -15 9 -15 25 0 16 6 25 15 25
9 0 15 -9 15 -25z m30 0 c0 -33 -15 -33 -16 0 -1 14 2 25 7 25 5 0 9 -11 9
-25z m17 -12 c-3 -10 -5 -4 -5 12 0 17 2 24 5 18 2 -7 2 -21 0 -30z m43 12 c0
-16 -6 -25 -15 -25 -9 0 -15 9 -15 25 0 16 6 25 15 25 9 0 15 -9 15 -25z
m-223 -87 c-3 -8 -6 -5 -6 6 -1 11 2 17 5 13 3 -3 4 -12 1 -19z m213 -17 c0
-6 -4 -12 -9 -15 -5 -3 -7 -16 -3 -29 5 -20 4 -21 -11 -8 -20 16 -22 32 -5 49
14 14 28 16 28 3z m-213 -33 c-3 -7 -5 -2 -5 12 0 14 2 19 5 13 2 -7 2 -19 0
-25z m143 -9 c-7 -11 -14 -18 -17 -15 -8 8 5 36 17 36 7 0 7 -6 0 -21z"/>
<path d="M733 1095 c0 -22 2 -30 4 -17 2 12 2 30 0 40 -3 9 -5 -1 -4 -23z"/>
<path d="M2810 1296 c0 -2 8 -10 18 -17 15 -13 16 -12 3 4 -13 16 -21 21 -21
13z"/>
<path d="M2260 1179 c0 -103 1 -110 17 -98 15 12 16 12 10 -3 -3 -10 -2 -20 3
-23 6 -4 10 7 10 24 0 23 -4 29 -15 25 -8 -4 -15 -1 -15 5 0 6 9 11 20 11 16
0 20 -7 21 -37 l2 -38 7 40 7 40 2 -36 c1 -29 5 -35 21 -34 28 2 38 15 12 15
-17 0 -22 6 -22 24 0 19 4 23 20 19 12 -3 20 -14 21 -27 1 -19 2 -19 9 4 5 16
8 19 9 8 1 -20 29 -38 57 -38 3 0 -2 -7 -10 -16 -9 -8 -14 -19 -11 -24 2 -4
-7 -7 -20 -7 -14 0 -28 3 -31 8 -3 5 1 7 8 4 9 -4 13 3 13 20 0 32 -11 28 -37
-13 -20 -32 -20 -33 -2 -30 11 2 18 -2 17 -9 -2 -9 12 -13 45 -13 26 0 52 -4
59 -8 6 -4 -17 -7 -52 -7 -35 0 -63 4 -62 9 1 5 -3 10 -9 13 -7 2 -12 -13 -12
-42 -1 -33 3 -45 13 -45 8 0 15 9 15 20 0 27 19 25 29 -2 l8 -23 7 23 c9 27
26 29 26 2 0 -11 5 -20 10 -20 6 0 10 9 10 20 0 11 5 20 11 20 6 0 13 -9 16
-20 7 -27 23 -25 24 3 0 12 2 34 3 49 1 14 -2 24 -6 22 -4 -3 -8 1 -8 10 0 19
-49 77 -64 75 -31 -4 -34 3 -35 86 -1 51 2 85 8 85 6 0 7 -8 4 -17 -6 -16 -5
-16 10 -4 22 17 24 -4 2 -25 -8 -9 -15 -21 -15 -27 0 -7 7 -3 15 7 17 23 20 4
4 -26 -8 -15 -8 -19 0 -14 7 5 11 -5 12 -26 0 -27 2 -30 9 -13 8 18 9 18 10
-5 l2 -25 8 25 c8 25 8 25 9 -5 1 -16 8 -41 16 -55 14 -25 14 -25 15 15 0 22
2 84 3 138 l3 97 -133 0 -133 0 0 -111z m30 86 c0 -8 -4 -15 -10 -15 -5 0 -10
7 -10 15 0 8 5 15 10 15 6 0 10 -7 10 -15z m17 -7 c-3 -8 -6 -5 -6 6 -1 11 2
17 5 13 3 -3 4 -12 1 -19z m20 0 c-3 -8 -6 -5 -6 6 -1 11 2 17 5 13 3 -3 4
-12 1 -19z m53 12 c0 -5 -4 -9 -9 -7 -10 2 -11 -2 -10 -40 l1 -28 8 30 c6 23
8 14 9 -38 1 -60 -1 -68 -16 -65 -15 3 -18 16 -20 81 -1 70 1 77 18 77 10 0
19 -4 19 -10z m70 -5 c0 -8 -4 -15 -10 -15 -5 0 -10 5 -10 11 0 5 -4 7 -10 4
-5 -3 -10 -1 -10 4 0 6 9 11 20 11 11 0 20 -7 20 -15z m17 -7 c-3 -8 -6 -5 -6
6 -1 11 2 17 5 13 3 -3 4 -12 1 -19z m20 0 c-3 -8 -6 -5 -6 6 -1 11 2 17 5 13
3 -3 4 -12 1 -19z m20 0 c-3 -8 -6 -5 -6 6 -1 11 2 17 5 13 3 -3 4 -12 1 -19z
m-110 -105 c-2 -21 -4 -6 -4 32 0 39 2 55 4 38 2 -18 2 -50 0 -70z m-87 72 c0
-6 -9 -11 -20 -12 -11 -1 -20 4 -20 10 0 7 9 13 20 13 11 0 20 -5 20 -11z m17
-7 c-3 -8 -6 -5 -6 6 -1 11 2 17 5 13 3 -3 4 -12 1 -19z m140 0 c-3 -8 -6 -5
-6 6 -1 11 2 17 5 13 3 -3 4 -12 1 -19z m20 0 c-3 -8 -6 -5 -6 6 -1 11 2 17 5
13 3 -3 4 -12 1 -19z m20 0 c-3 -8 -6 -5 -6 6 -1 11 2 17 5 13 3 -3 4 -12 1
-19z m-217 -33 c0 -8 -4 -15 -10 -15 -5 0 -10 7 -10 15 0 8 5 15 10 15 6 0 10
-7 10 -15z m17 -37 c-2 -13 -4 -5 -4 17 -1 22 1 32 4 23 2 -10 2 -28 0 -40z
m20 0 c-2 -13 -4 -5 -4 17 -1 22 1 32 4 23 2 -10 2 -28 0 -40z m140 0 c-2 -13
-4 -5 -4 17 -1 22 1 32 4 23 2 -10 2 -28 0 -40z m34 2 c5 0 9 -4 9 -10 0 -5
-7 -10 -15 -10 -11 0 -15 10 -14 38 2 30 3 32 6 10 2 -16 9 -28 14 -28z m6 28
c-3 -8 -6 -5 -6 6 -1 11 2 17 5 13 3 -3 4 -12 1 -19z m-217 -38 c0 -5 -4 -10
-10 -10 -5 0 -10 5 -10 10 0 6 5 10 10 10 6 0 10 -4 10 -10z m217 -42 c-3 -8
-6 -5 -6 6 -1 11 2 17 5 13 3 -3 4 -12 1 -19z m-29 -86 c3 -17 -2 -22 -18 -22
-16 0 -20 4 -16 16 3 9 6 20 6 26 0 19 25 1 28 -20z"/>
<path d="M2362 1155 c0 -16 2 -22 5 -12 2 9 2 23 0 30 -3 6 -5 -1 -5 -18z"/>
<path d="M2865 1250 c10 -11 20 -20 23 -20 3 0 -3 9 -13 20 -10 11 -20 20 -23
20 -3 0 3 -9 13 -20z"/>
<path d="M1255 1250 c-3 -5 -1 -10 4 -10 6 0 11 5 11 10 0 6 -2 10 -4 10 -3 0
-8 -4 -11 -10z"/>
<path d="M2624 1228 l-29 -33 33 29 c30 28 37 36 29 36 -2 0 -16 -15 -33 -32z"/>
<path d="M380 1200 c0 -49 1 -50 30 -50 29 0 30 1 30 50 0 49 -1 50 -30 50
-29 0 -30 -1 -30 -50z m27 3 c-3 -10 -5 -4 -5 12 0 17 2 24 5 18 2 -7 2 -21 0
-30z"/>
<path d="M1030 1220 c0 -5 9 -10 21 -10 11 0 17 5 14 10 -3 6 -13 10 -21 10
-8 0 -14 -4 -14 -10z"/>
<path d="M1100 1218 c0 -11 57 -10 64 1 3 5 -10 9 -29 8 -19 -1 -35 -5 -35 -9z"/>
<path d="M1233 1210 c-3 -11 -10 -20 -17 -20 -6 0 -4 -5 4 -10 13 -9 13 -11 0
-21 -11 -7 -12 -12 -3 -15 7 -3 9 -13 6 -22 -4 -11 2 -9 18 7 16 17 19 26 11
29 -9 3 -8 8 5 18 17 13 17 13 1 14 -25 0 -23 20 2 20 11 0 20 5 20 10 0 19
-42 10 -47 -10z"/>
<path d="M2900 1226 c0 -2 8 -10 18 -17 15 -13 16 -12 3 4 -13 16 -21 21 -21
13z"/>
<path d="M784 1135 c0 -49 1 -71 3 -48 2 23 2 64 0 90 -2 26 -3 8 -3 -42z"/>
<path d="M1440 1216 c0 -2 8 -10 18 -17 15 -13 16 -12 3 4 -13 16 -21 21 -21
13z"/>
<path d="M1080 1201 c0 -10 19 -25 25 -20 1 2 -3 10 -11 17 -8 7 -14 8 -14 3z"/>
<path d="M2061 1194 c0 -11 3 -14 6 -6 3 7 2 16 -1 19 -3 4 -6 -2 -5 -13z"/>
<path d="M2082 1185 c0 -16 2 -22 5 -12 2 9 2 23 0 30 -3 6 -5 -1 -5 -18z"/>
<path d="M1030 1185 c0 -8 9 -15 20 -15 24 0 27 15 4 24 -22 9 -24 8 -24 -9z"/>
<path d="M1138 1183 c7 -3 16 -2 19 1 4 3 -2 6 -13 5 -11 0 -14 -3 -6 -6z"/>
<path d="M1322 1172 c-34 -3 -43 -7 -40 -20 4 -23 76 -30 84 -8 10 26 1 31
-44 28z"/>
<path d="M1081 1155 c-1 -27 9 -41 37 -49 31 -10 28 2 -4 15 -35 13 -25 22 26
21 24 -1 38 3 34 9 -3 5 -23 8 -45 6 -22 -2 -40 1 -43 7 -2 6 -5 2 -5 -9z"/>
<path d="M285 1108 l-50 -53 53 50 c48 46 57 55 49 55 -1 0 -25 -24 -52 -52z"/>
<path d="M1030 1150 c0 -5 9 -10 20 -10 11 0 20 5 20 10 0 6 -9 10 -20 10 -11
0 -20 -4 -20 -10z"/>
<path d="M60 1136 c0 -2 8 -10 18 -17 15 -13 16 -12 3 4 -13 16 -21 21 -21 13z"/>
<path d="M360 1126 c0 -8 5 -18 10 -21 6 -3 10 -33 10 -66 0 -59 0 -59 30 -59
29 0 30 1 30 50 0 64 -19 66 -22 3 l-1 -48 -4 45 c-3 24 -10 48 -16 52 -9 6
-9 8 1 8 6 0 12 11 12 25 0 20 -5 25 -25 25 -15 0 -25 -6 -25 -14z"/>
<path d="M424 1115 c-2 -27 6 -31 24 -13 18 18 15 38 -5 38 -12 0 -18 -8 -19
-25z"/>
<path d="M1045 1120 c3 -5 11 -10 16 -10 6 0 7 5 4 10 -3 6 -11 10 -16 10 -6
0 -7 -4 -4 -10z"/>
<path d="M1190 1107 c0 -12 -9 -28 -20 -35 -19 -12 -19 -13 6 -49 14 -21 35
-41 47 -45 22 -6 22 -6 -2 -7 -21 -1 -23 -4 -17 -35 4 -19 2 -36 -3 -38 -11
-4 -18 -94 -8 -104 4 -4 7 16 7 45 0 29 4 50 9 47 4 -3 6 -17 3 -31 -4 -24 -2
-25 42 -25 35 0 46 4 46 16 0 8 5 12 10 9 6 -3 10 -24 10 -46 0 -21 5 -39 10
-39 11 0 14 49 4 75 -4 8 -19 22 -35 31 -16 8 -29 19 -29 25 0 6 5 7 10 4 6
-4 10 5 10 19 0 14 -4 26 -9 26 -5 0 -7 10 -4 23 3 17 2 19 -6 7 -5 -9 -8 -28
-7 -43 4 -35 -14 -60 -37 -52 -14 6 -15 11 -5 28 6 12 14 24 17 27 4 3 12 23
19 45 13 44 -1 78 -37 90 -13 4 -18 13 -16 30 1 14 -2 25 -6 25 -5 0 -9 -10
-9 -23z m40 -66 c14 -28 13 -31 -14 -31 -17 0 -25 7 -28 25 -4 19 -1 25 13 25
10 0 23 -9 29 -19z m57 -187 c2 -5 -11 -10 -27 -11 -32 -2 -41 13 -12 20 22 6
35 3 39 -9z"/>
<path d="M2432 1110 c0 -14 2 -19 5 -12 2 6 2 18 0 25 -3 6 -5 1 -5 -13z"/>
<path d="M600 1076 c0 -39 3 -44 25 -48 24 -5 25 -3 25 43 0 46 -2 49 -25 49
-23 0 -25 -4 -25 -44z"/>
<path d="M1155 1110 c3 -5 8 -10 11 -10 2 0 4 5 4 10 0 6 -5 10 -11 10 -5 0
-7 -4 -4 -10z"/>
<path d="M1300 1070 c0 -47 2 -50 25 -50 23 0 25 3 25 50 0 47 -2 50 -25 50
-23 0 -25 -3 -25 -50z m27 -22 c-3 -8 -6 -5 -6 6 -1 11 2 17 5 13 3 -3 4 -12
1 -19z"/>
<path d="M1378 1086 c-3 -14 0 -30 6 -37 8 -9 8 -10 -1 -5 -14 8 -15 -4 -4
-43 6 -22 8 -23 22 -9 13 14 20 14 47 2 30 -12 32 -12 32 6 0 16 -7 20 -34 20
-31 0 -35 4 -42 33 -4 17 -7 38 -5 45 1 6 -2 12 -7 12 -5 0 -12 -11 -14 -24z"/>
<path d="M2238 1085 c-4 -18 -2 -33 5 -37 8 -5 5 -8 -6 -8 -14 0 -17 -5 -11
-22 4 -13 12 -26 18 -30 15 -10 18 26 8 82 -8 43 -8 44 -14 15z"/>
<path d="M110 1096 c0 -2 8 -10 18 -17 15 -13 16 -12 3 4 -13 16 -21 21 -21
13z"/>
<path d="M2350 1090 c0 -5 5 -10 10 -10 6 0 10 5 10 10 0 6 -4 10 -10 10 -5 0
-10 -4 -10 -10z"/>
<path d="M1135 1080 c4 -6 11 -8 16 -5 14 9 11 15 -7 15 -8 0 -12 -5 -9 -10z"/>
<path d="M1250 1080 c0 -5 4 -10 9 -10 6 0 13 5 16 10 3 6 -1 10 -9 10 -9 0
-16 -4 -16 -10z"/>
<path d="M1519 1076 c-2 -3 -3 -25 -1 -50 4 -41 7 -46 28 -46 22 0 24 4 24 50
0 46 -2 50 -23 50 -13 0 -26 -2 -28 -4z m36 -16 c3 -5 1 -10 -4 -10 -6 0 -11
5 -11 10 0 6 2 10 4 10 3 0 8 -4 11 -10z"/>
<path d="M930 1050 c0 -5 5 -10 10 -10 6 0 10 5 10 10 0 6 -4 10 -10 10 -5 0
-10 -4 -10 -10z"/>
<path d="M2410 1050 c0 -5 5 -10 10 -10 6 0 10 5 10 10 0 6 -4 10 -10 10 -5 0
-10 -4 -10 -10z"/>
<path d="M1490 1015 c0 -19 5 -35 10 -35 6 0 10 16 10 35 0 19 -4 35 -10 35
-5 0 -10 -16 -10 -35z"/>
<path d="M1600 1015 c0 -25 4 -33 14 -29 15 6 28 42 20 56 -3 4 -12 8 -20 8
-9 0 -14 -11 -14 -35z"/>
<path d="M2000 1017 c0 -23 5 -34 15 -34 10 0 15 11 15 34 0 23 -5 33 -15 33
-10 0 -15 -10 -15 -33z"/>
<path d="M2110 1021 c0 -16 6 -31 15 -35 12 -4 15 3 15 29 0 24 -5 35 -15 35
-10 0 -15 -10 -15 -29z"/>
<path d="M2290 1042 c-12 -2 -16 -19 -17 -72 -1 -39 3 -70 8 -70 5 0 9 20 9
45 0 33 4 45 15 45 11 0 15 -12 15 -47 0 -62 7 -52 14 21 4 33 11 65 16 71 10
12 -19 15 -60 7z m30 -28 c0 -8 -7 -14 -15 -14 -15 0 -21 21 -9 33 10 9 24 -2
24 -19z"/>
<path d="M2178 1033 c6 -2 18 -2 25 0 6 3 1 5 -13 5 -14 0 -19 -2 -12 -5z"/>
<path d="M1737 1004 c-24 -16 -36 -31 -33 -40 3 -7 0 -13 -6 -11 -32 6 -51
-142 -22 -170 9 -10 13 -25 10 -37 -3 -12 -6 -31 -6 -44 0 -13 -4 -20 -10 -17
-5 3 -10 0 -10 -8 0 -19 38 -33 83 -29 l37 3 0 121 0 121 -40 -6 c-22 -3 -40
-1 -40 4 0 24 33 70 60 84 57 30 127 10 155 -45 22 -42 19 -46 -25 -42 l-40 4
0 -121 0 -121 35 0 c32 0 35 -2 25 -19 -17 -32 -12 -61 9 -61 11 0 27 -3 36
-6 15 -6 16 10 13 174 l-3 181 -28 29 c-15 15 -24 31 -21 35 3 3 -9 15 -27 26
-48 29 -105 27 -152 -5z m-42 -145 c-10 -15 -25 -10 -19 6 4 8 10 12 15 9 5
-3 7 -10 4 -15z m265 0 c0 -18 -2 -19 -15 -9 -15 12 -12 30 6 30 5 0 9 -10 9
-21z m-225 -52 c2 -30 -2 -37 -17 -37 -14 0 -18 8 -18 41 0 33 3 40 17 37 12
-2 18 -14 18 -41z m195 3 c0 -31 -4 -40 -17 -40 -14 0 -18 8 -16 37 1 21 2 39
2 41 1 1 8 2 16 2 11 0 15 -11 15 -40z m30 -65 c0 -8 -2 -15 -4 -15 -2 0 -6 7
-10 15 -3 8 -1 15 4 15 6 0 10 -7 10 -15z m-224 -42 c-1 -27 -7 -39 -19 -41
-14 -3 -17 4 -17 37 0 34 3 41 19 41 16 0 19 -6 17 -37z m194 -2 c0 -25 5 -41
14 -44 9 -4 14 -18 14 -36 -1 -33 -5 -36 -28 -21 -12 7 -12 12 4 29 18 20 18
20 -7 26 -20 6 -26 14 -29 46 -3 32 0 39 14 39 14 0 18 -8 18 -39z m27 -23
c-3 -7 -5 -2 -5 12 0 14 2 19 5 13 2 -7 2 -19 0 -25z"/>
<path d="M1160 1005 c0 -8 4 -15 10 -15 5 0 7 7 4 15 -4 8 -8 15 -10 15 -2 0
-4 -7 -4 -15z"/>
<path d="M1280 1008 c0 -25 15 -38 44 -37 l31 1 -30 9 -30 8 35 -2 c24 -1 36
3 38 13 2 12 -8 15 -43 15 -25 0 -45 -3 -45 -7z"/>
<path d="M1582 1000 c0 -14 2 -19 5 -12 2 6 2 18 0 25 -3 6 -5 1 -5 -13z"/>
<path d="M1650 958 l1 -63 15 35 c8 19 27 47 41 63 l27 27 -42 0 -42 0 0 -62z"/>
<path d="M1913 1002 c10 -10 14 -22 10 -27 -5 -4 -3 -5 4 -1 6 3 14 2 18 -4 4
-6 11 -7 17 -4 6 4 8 2 5 -4 -4 -5 -3 -21 2 -34 7 -19 9 -12 12 35 l4 57 -44
0 c-42 0 -43 -1 -28 -18z"/>
<path d="M2041 783 l0 -238 28 -1 28 -1 -2 206 c-3 294 -1 271 -29 271 l-24 0
-1 -237z m44 127 c0 -22 -5 -30 -17 -30 -13 0 -18 8 -18 30 0 22 5 30 18 30
12 0 17 -8 17 -30z m-5 -126 c0 -19 -4 -34 -10 -34 -5 0 -10 18 -10 41 0 24 4
38 10 34 6 -3 10 -22 10 -41z m5 -94 c0 -22 -5 -30 -17 -30 -13 0 -18 8 -18
30 0 22 5 30 18 30 12 0 17 -8 17 -30z m-5 -59 c0 -6 -4 -13 -10 -16 -5 -3
-10 1 -10 9 0 9 5 16 10 16 6 0 10 -4 10 -9z"/>
<path d="M2151 775 c0 -158 4 -245 10 -245 6 0 7 5 4 10 -3 6 3 10 14 10 12 0
21 -7 21 -15 0 -8 5 -15 10 -15 14 0 4 214 -10 218 -7 3 -8 8 -1 16 6 7 12 70
13 139 l3 127 -32 0 -31 0 -1 -245z m49 202 c0 -20 -1 -20 -16 -5 -9 9 -13 21
-9 27 10 16 25 3 25 -22z m0 -67 c0 -23 -5 -30 -19 -30 -14 0 -18 7 -17 30 1
21 6 30 19 30 12 0 17 -8 17 -30z m-7 -57 c-7 -2 -19 -2 -25 0 -7 3 -2 5 12 5
14 0 19 -2 13 -5z m5 -50 c1 -33 -10 -52 -30 -53 -8 0 -1 67 8 81 11 19 21 7
22 -28z m2 -113 c0 -23 -5 -30 -19 -30 -14 0 -18 7 -17 30 1 21 6 30 19 30 12
0 17 -8 17 -30z m0 -65 c0 -8 -4 -15 -10 -15 -5 0 -7 7 -4 15 4 8 8 15 10 15
2 0 4 -7 4 -15z"/>
<path d="M75 948 l-60 -63 63 60 c34 33 62 61 62 62 0 8 -10 -1 -65 -59z"/>
<path d="M1421 861 c2 -71 7 -133 12 -137 4 -4 15 0 24 9 12 12 17 41 21 117
5 114 0 139 -23 120 -12 -10 -15 -9 -15 4 0 9 -5 16 -11 16 -8 0 -10 -40 -8
-129z m49 49 c0 -23 -4 -30 -20 -30 -16 0 -20 7 -20 30 0 23 4 30 20 30 16 0
20 -7 20 -30z m-10 -100 c0 -20 -5 -30 -15 -30 -17 0 -18 4 -9 38 9 32 24 27
24 -8z"/>
<path d="M230 976 c0 -2 8 -10 18 -17 15 -13 16 -12 3 4 -13 16 -21 21 -21 13z"/>
<path d="M362 956 c2 -11 9 -21 17 -24 9 -3 11 0 6 9 -7 12 -6 12 6 0 11 -10
11 -15 2 -18 -10 -3 -13 -46 -13 -164 0 -135 2 -159 15 -159 11 0 15 12 16 43
l2 42 6 -35 c6 -34 7 -33 14 20 4 30 7 101 7 157 0 57 4 105 10 108 6 3 10 14
10 23 0 14 -10 17 -50 17 -44 0 -50 -2 -48 -19z m68 0 c0 -3 -4 -8 -10 -11 -5
-3 -10 -1 -10 4 0 6 5 11 10 11 6 0 10 -2 10 -4z m-7 -81 c-1 -30 -7 -62 -13
-72 -11 -17 -11 -17 -6 0 3 10 6 43 6 73 0 30 3 54 8 54 4 0 7 -25 5 -55z
m-16 -162 c-3 -10 -5 -4 -5 12 0 17 2 24 5 18 2 -7 2 -21 0 -30z"/>
<path d="M793 957 c-4 -12 -6 -25 -5 -29 1 -4 -4 -5 -12 -2 -8 3 -17 1 -21 -5
-4 -7 8 -11 32 -11 39 0 39 0 35 -35 -3 -24 0 -35 9 -35 7 0 3 -10 -11 -25
l-23 -25 176 0 c155 0 176 2 170 15 -7 19 -63 49 -122 65 -49 13 -145 -3 -138
-24 4 -12 -41 -51 -50 -42 -3 3 5 15 18 26 16 13 18 18 7 14 -15 -5 -18 0 -18
35 0 30 -5 43 -20 51 -21 11 -27 30 -9 30 5 0 7 -4 4 -10 -3 -5 -1 -10 4 -10
6 0 11 5 11 10 0 6 7 10 15 10 29 0 15 17 -15 18 -21 0 -31 -5 -37 -21z m265
-116 c59 -16 48 -34 -21 -35 -46 -1 -57 2 -61 17 -3 13 -13 18 -33 17 -42 -3
-51 1 -23 10 32 9 83 6 138 -9z m-143 -22 c10 -15 -1 -23 -20 -15 -9 3 -13 10
-10 16 8 13 22 13 30 -1z m55 1 c0 -5 -9 -10 -20 -10 -11 0 -20 5 -20 10 0 6
9 10 20 10 11 0 20 -4 20 -10z"/>
<path d="M865 956 c-15 -77 -16 -98 -3 -93 7 3 39 11 71 18 56 13 57 14 57 47
0 22 4 32 13 30 15 -6 22 -58 8 -58 -25 0 -8 -18 22 -23 17 -3 40 -8 50 -12
15 -6 17 -1 15 40 -2 31 1 49 10 52 6 3 12 -3 12 -12 0 -14 3 -15 15 -5 8 7
15 18 15 25 0 11 -31 13 -140 13 -135 -1 -140 -2 -145 -22z m45 -32 c0 -24 -4
-34 -12 -32 -24 8 -22 68 2 68 5 0 10 -16 10 -36z m50 6 c0 -16 -4 -30 -10
-30 -5 0 -10 14 -10 30 0 17 5 30 10 30 6 0 10 -13 10 -30z m110 -3 c0 -23 -5
-34 -15 -34 -10 0 -15 11 -15 34 0 23 5 33 15 33 10 0 15 -10 15 -33z"/>
<path d="M1170 966 c0 -8 5 -18 10 -21 6 -3 10 3 10 14 0 12 -4 21 -10 21 -5
0 -10 -6 -10 -14z"/>
<path d="M1368 910 c3 -48 7 -60 20 -60 26 0 30 85 5 95 -17 7 -17 8 2 15 18
8 18 9 -5 9 -24 1 -25 -1 -22 -59z"/>
<path d="M1496 955 c4 -8 11 -12 17 -8 6 3 7 1 3 -5 -4 -7 -2 -13 3 -13 6 -1
16 -2 21 -3 11 -1 14 -11 7 -29 -4 -9 -8 -8 -16 3 -8 11 -11 -19 -10 -110 0
-69 3 -119 6 -112 4 10 8 10 19 1 22 -18 18 -42 -6 -36 -15 4 -20 0 -21 -16
-1 -12 -5 -4 -9 18 -5 22 -6 68 -3 103 4 46 3 62 -7 62 -8 0 -11 -14 -9 -44 2
-24 0 -42 -4 -39 -12 8 -37 -18 -37 -38 0 -27 28 -24 32 4 3 20 4 19 10 -7 5
-27 5 -28 -29 -23 -46 8 -61 1 -57 -29 2 -19 -2 -24 -22 -24 -16 0 -24 6 -24
18 0 14 2 15 10 2 8 -12 10 -11 10 8 0 17 -6 22 -25 22 -23 0 -24 -2 -15 -21
7 -11 9 -23 7 -26 -6 -6 -357 -10 -363 -4 -3 3 -14 6 -26 8 -32 5 -40 -18 -16
-44 24 -25 14 -30 -16 -8 -12 9 -17 22 -13 35 5 19 1 20 -68 20 -43 0 -77 -5
-81 -11 -4 -8 1 -9 16 -4 16 5 20 4 15 -4 -3 -7 -24 -11 -45 -9 -21 1 -37 5
-34 10 7 10 -25 5 -51 -9 -22 -11 -92 -6 -101 8 -7 13 -54 11 -54 -2 0 -5 -5
-7 -11 -3 -16 10 -79 13 -79 3 0 -9 96 -20 250 -28 116 -6 125 -7 128 -26 4
-30 68 -23 76 8 6 21 7 21 20 5 16 -22 59 -23 76 -3 9 11 16 12 25 5 8 -7 28
-7 61 0 90 18 318 40 417 40 l97 0 0 164 c0 99 4 167 10 171 6 3 10 13 10 21
0 10 -13 14 -50 14 -40 0 -48 -3 -44 -15z m54 -101 c0 -8 -5 -12 -10 -9 -6 4
-8 11 -5 16 9 14 15 11 15 -7z m1 -37 c-1 -4 -1 -14 -1 -22 0 -8 -3 -15 -7
-15 -5 0 -8 11 -8 25 0 14 4 24 8 22 5 -1 8 -6 8 -10z m5 -69 c-3 -13 -6 -29
-6 -37 0 -20 -10 -8 -15 19 -5 26 1 40 17 40 6 0 8 -10 4 -22z m-111 -108 c-3
-5 -11 -10 -16 -10 -6 0 -7 5 -4 10 3 6 11 10 16 10 6 0 7 -4 4 -10z m38 -27
c-7 -2 -21 -2 -30 0 -10 3 -4 5 12 5 17 0 24 -2 18 -5z m-593 -8 c0 -2 -12
-16 -26 -30 l-27 -27 -21 21 c-18 18 -18 21 -3 21 9 0 17 5 17 10 0 6 14 10
30 10 17 0 30 -2 30 -5z"/>
<path d="M1608 963 c6 -2 18 -2 25 0 6 3 1 5 -13 5 -14 0 -19 -2 -12 -5z"/>
<path d="M1998 963 c6 -2 18 -2 25 0 6 3 1 5 -13 5 -14 0 -19 -2 -12 -5z"/>
<path d="M2108 963 c6 -2 18 -2 25 0 6 3 1 5 -13 5 -14 0 -19 -2 -12 -5z"/>
<path d="M2233 963 c9 -2 23 -2 30 0 6 3 -1 5 -18 5 -16 0 -22 -2 -12 -5z"/>
<path d="M600 893 c1 -66 1 -67 16 -40 13 24 36 38 33 20 -6 -36 2 -43 46 -43
37 0 45 3 45 18 0 10 -13 28 -29 40 -24 17 -30 19 -35 7 -11 -29 -26 -14 -26
25 0 36 -2 40 -25 40 -24 0 -25 -2 -25 -67z m123 -37 c3 -7 -6 -12 -26 -11
-33 0 -49 21 -20 27 23 5 40 0 46 -16z"/>
<path d="M1300 927 c0 -34 15 -57 37 -57 9 0 13 15 13 45 0 41 -2 45 -25 45
-22 0 -25 -4 -25 -33z m28 -2 c-3 -3 -9 2 -12 12 -6 14 -5 15 5 6 7 -7 10 -15
7 -18z"/>
<path d="M270 946 c0 -2 8 -10 18 -17 15 -13 16 -12 3 4 -13 16 -21 21 -21 13z"/>
<path d="M1150 941 c0 -5 -9 -13 -20 -16 -16 -5 -20 -15 -20 -46 0 -22 5 -39
11 -39 7 0 10 13 7 35 -4 33 -3 34 36 37 l40 3 -27 18 c-15 9 -27 13 -27 8z"/>
<path d="M1600 899 c0 -46 2 -49 25 -49 16 0 25 6 25 16 0 8 -3 13 -7 11 -5
-3 -8 11 -8 30 0 27 -5 37 -17 39 -15 2 -18 -6 -18 -47z"/>
<path d="M2000 898 c0 -36 4 -48 15 -48 11 0 15 12 15 48 0 37 -4 49 -15 49
-11 0 -15 -12 -15 -49z"/>
<path d="M2110 898 c0 -36 4 -48 15 -48 11 0 15 12 15 48 0 37 -4 49 -15 49
-11 0 -15 -12 -15 -49z"/>
<path d="M2230 936 c0 -8 5 -18 10 -21 6 -3 10 -15 10 -26 0 -10 -4 -19 -10
-19 -5 0 -10 -4 -10 -10 0 -5 7 -10 15 -10 11 0 15 12 15 50 0 38 -4 50 -15
50 -8 0 -15 -6 -15 -14z"/>
<path d="M1490 891 c0 -23 5 -41 10 -41 6 0 10 15 10 34 0 19 -4 38 -10 41 -6
4 -10 -10 -10 -34z"/>
<path d="M1583 880 c0 -25 2 -35 4 -22 2 12 2 32 0 45 -2 12 -4 2 -4 -23z"/>
<path d="M1790 916 c0 -2 8 -10 18 -17 15 -13 16 -12 3 4 -13 16 -21 21 -21
13z"/>
<path d="M2950 875 c-24 -25 -42 -45 -39 -45 3 0 25 20 49 45 24 25 42 45 39
45 -3 0 -25 -20 -49 -45z"/>
<path d="M750 850 c0 -27 5 -50 10 -50 6 0 10 22 9 50 -1 28 -6 50 -11 50 -4
0 -8 -22 -8 -50z"/>
<path d="M780 850 c0 -49 12 -66 24 -34 12 32 7 84 -9 84 -11 0 -15 -12 -15
-50z"/>
<path d="M1140 863 c0 -21 7 -47 15 -57 14 -18 15 -15 15 37 0 44 -3 57 -15
57 -11 0 -15 -11 -15 -37z"/>
<path d="M2434 892 l-161 -2 1 -40 c1 -22 6 -38 11 -37 6 2 9 16 7 30 -2 15 0
27 5 28 4 0 17 2 28 4 12 2 32 -7 50 -23 16 -15 23 -19 16 -9 -7 9 -12 18 -10
18 2 1 47 3 99 4 l95 3 -3 -71 c-2 -39 -8 -74 -13 -78 -7 -4 -4 -9 5 -12 17
-7 23 -47 7 -47 -6 0 -16 8 -23 18 -7 9 -24 26 -38 37 -13 11 -2 -6 24 -38 27
-32 47 -59 45 -61 -2 -3 -18 -6 -34 -8 -29 -3 -30 -1 -36 42 l-6 45 -2 -45
c-3 -42 -3 -43 -11 -16 -5 16 -7 33 -4 37 2 4 -1 19 -8 34 -10 21 -9 28 2 35
11 7 5 18 -28 49 -23 22 -44 36 -47 31 -3 -5 -1 -11 5 -15 6 -4 5 -14 -3 -28
-17 -30 -29 -38 -52 -31 -17 5 -16 2 7 -23 23 -24 27 -36 24 -71 -2 -24 -6
-45 -9 -49 -5 -4 -83 -12 -88 -9 0 1 -3 41 -5 91 -7 126 -16 121 -13 -8 l2
-107 69 0 68 0 0 45 c0 41 2 45 25 45 23 0 25 -4 25 -41 l0 -42 63 7 c34 4 65
11 70 15 4 4 6 72 5 152 l-3 144 -161 -3z m21 -149 c5 -20 3 -23 -19 -23 -28
0 -32 10 -15 42 12 22 23 16 34 -19z m5 -54 c0 -14 -7 -19 -25 -19 -35 0 -35
34 0 36 18 2 25 -3 25 -17z"/>
<path d="M626 851 c-4 -7 -5 -15 -2 -18 9 -9 19 4 14 18 -4 11 -6 11 -12 0z"/>
<path d="M1984 740 c0 -119 0 -120 3 -22 3 92 5 102 23 102 10 0 22 5 25 10 3
6 -5 10 -19 10 -13 0 -26 6 -29 13 -2 6 -4 -44 -3 -113z"/>
<path d="M1365 830 c3 -5 15 -10 26 -10 10 0 19 5 19 10 0 6 -12 10 -26 10
-14 0 -23 -4 -19 -10z"/>
<path d="M1490 830 c0 -5 5 -10 10 -10 6 0 10 5 10 10 0 6 -4 10 -10 10 -5 0
-10 -4 -10 -10z"/>
<path d="M1600 830 c0 -5 9 -10 20 -10 19 0 20 -7 22 -112 l2 -113 4 100 c3
119 -1 145 -28 145 -11 0 -20 -4 -20 -10z"/>
<path d="M2100 830 c0 -5 9 -10 19 -10 11 0 23 5 26 10 4 6 -5 10 -19 10 -14
0 -26 -4 -26 -10z"/>
<path d="M2220 830 c0 -5 9 -10 19 -10 11 0 23 5 26 10 4 6 -5 10 -19 10 -14
0 -26 -4 -26 -10z"/>
<path d="M2547 833 c-4 -3 -7 -11 -7 -17 0 -6 5 -5 12 2 6 6 9 14 7 17 -3 3
-9 2 -12 -2z"/>
<path d="M1584 715 c0 -66 1 -92 3 -57 2 34 2 88 0 120 -2 31 -3 3 -3 -63z"/>
<path d="M607 813 c-12 -12 -7 -43 6 -43 20 0 25 9 20 31 -5 20 -15 24 -26 12z
m10 -25 c-3 -8 -6 -5 -6 6 -1 11 2 17 5 13 3 -3 4 -12 1 -19z"/>
<path d="M650 800 c5 -10 6 -20 3 -24 -3 -3 12 -6 35 -6 23 0 42 4 42 9 0 5 2
15 5 23 4 10 -8 13 -45 14 -43 1 -48 -1 -40 -16z"/>
<path d="M1214 804 c3 -9 6 -20 6 -25 0 -5 18 -9 40 -9 37 0 40 2 40 27 l0 27
-20 -22 c-26 -27 -40 -28 -47 -2 -3 11 -10 20 -15 20 -6 0 -7 -7 -4 -16z"/>
<path d="M1370 790 c0 -13 7 -20 20 -20 13 0 20 7 20 20 0 13 -7 20 -20 20
-13 0 -20 -7 -20 -20z"/>
<path d="M1600 710 c0 -77 3 -100 13 -100 11 0 14 24 16 100 1 84 -1 100 -14
100 -12 0 -15 -17 -15 -100z"/>
<path d="M2000 710 c0 -82 3 -100 15 -100 12 0 15 18 15 100 0 82 -3 100 -15
100 -12 0 -15 -18 -15 -100z"/>
<path d="M2110 710 c0 -82 3 -100 15 -100 12 0 15 18 15 100 0 82 -3 100 -15
100 -12 0 -15 -18 -15 -100z"/>
<path d="M2230 736 c0 -50 4 -76 13 -79 10 -4 10 -6 0 -6 -18 -1 -16 -41 2
-41 12 0 15 18 15 100 0 82 -3 100 -15 100 -12 0 -15 -15 -15 -74z"/>
<path d="M2670 806 c0 -2 8 -10 18 -17 15 -13 16 -12 3 4 -13 16 -21 21 -21
13z"/>
<path d="M2829 763 l-34 -38 38 34 c20 19 37 36 37 38 0 8 -8 0 -41 -34z"/>
<path d="M740 770 c0 -11 5 -20 11 -20 5 0 15 -13 20 -30 l11 -30 115 0 c73 0
112 4 108 10 -3 6 -2 10 4 10 5 0 13 -4 16 -10 3 -5 37 -10 75 -10 52 0 69 4
74 16 3 8 2 12 -3 9 -5 -3 -12 -1 -16 5 -3 5 -2 10 4 10 7 0 7 8 -1 25 l-11
25 -174 0 c-115 0 -173 -4 -173 -11 0 -5 5 -7 10 -4 6 3 10 -3 10 -15 0 -12 5
-18 10 -15 6 4 8 10 5 15 -3 5 -1 11 5 15 6 3 10 -4 11 -17 0 -23 0 -23 11 2
l11 25 7 -25 c8 -24 8 -24 9 -2 1 12 5 22 10 22 5 0 12 -10 14 -22 l4 -23 2
23 c0 12 5 22 10 22 5 0 12 -10 14 -22 l4 -23 2 23 c0 12 5 22 10 22 5 0 12
-10 14 -22 l4 -23 2 23 c0 12 5 22 10 22 5 0 12 -10 14 -22 l4 -23 2 23 c0 12
6 22 12 22 6 0 9 -10 7 -22 -3 -22 -8 -23 -123 -28 l-120 -5 4 38 c3 34 1 37
-23 37 -19 0 -26 -5 -26 -20z m321 -22 l2 -23 4 23 c6 29 20 28 25 -3 5 -22 2
-25 -27 -25 -29 0 -32 3 -27 25 6 31 22 33 23 3z m60 0 c1 -22 1 -22 9 2 4 14
9 22 10 18 6 -20 5 -34 -4 -40 -15 -10 -36 3 -36 23 0 27 20 24 21 -3z m34
-38 c3 -5 -1 -10 -10 -10 -9 0 -13 5 -10 10 3 6 8 10 10 10 2 0 7 -4 10 -10z
m-48 -6 c-3 -3 -12 -4 -19 -1 -8 3 -5 6 6 6 11 1 17 -2 13 -5z"/>
<path d="M1206 753 c2 -7 -1 -15 -6 -18 -6 -4 -10 -17 -10 -31 0 -19 5 -24 25
-24 16 0 25 6 25 16 0 10 -6 14 -15 11 -8 -4 -17 -2 -20 3 -4 6 4 10 16 10 17
0 19 3 10 13 -6 8 -7 18 -3 22 4 5 2 5 -5 2 -6 -4 -13 -4 -16 0 -2 5 -2 3 -1
-4z"/>
<path d="M537 753 c-14 -13 -8 -83 7 -83 22 0 28 31 10 51 -16 18 -16 19 2 20
10 1 31 0 47 -1 15 -1 27 3 27 9 0 12 -82 15 -93 4z"/>
<path d="M660 750 c0 -5 5 -10 10 -10 6 0 10 5 10 10 0 6 -4 10 -10 10 -5 0
-10 -4 -10 -10z"/>
<path d="M695 749 c4 -6 14 -8 22 -4 13 4 14 3 3 -10 -11 -13 -8 -15 15 -15
27 0 28 0 10 20 -19 21 -62 29 -50 9z"/>
<path d="M1270 747 c0 -5 7 -7 15 -3 8 3 15 1 15 -3 0 -11 -29 -23 -39 -17 -4
3 -8 -6 -9 -18 -1 -21 4 -24 59 -30 34 -4 63 -5 66 -2 2 2 0 14 -7 25 -9 18
-8 21 9 21 11 0 23 -5 27 -12 5 -7 2 -9 -8 -5 -12 4 -14 1 -11 -14 9 -31 33
-23 33 12 0 29 -2 31 -37 28 -49 -2 -63 -1 -63 9 0 4 23 5 51 3 36 -2 49 0 45
8 -9 14 -146 12 -146 -2z m31 -39 c0 -10 2 -10 6 0 2 6 9 10 14 6 14 -8 0 -24
-22 -24 -10 0 -19 7 -19 15 0 18 20 20 21 3z"/>
<path d="M640 742 c0 -8 9 -16 21 -19 16 -4 17 -8 7 -14 -10 -7 -11 -9 0 -9 7
0 11 -4 8 -9 -3 -5 1 -12 9 -15 12 -4 15 1 13 22 -1 20 -8 28 -22 30 -10 0
-23 7 -27 14 -7 11 -9 10 -9 0z"/>
<path d="M1661 724 c0 -11 3 -14 6 -6 3 7 2 16 -1 19 -3 4 -6 -2 -5 -13z"/>
<path d="M570 719 c0 -5 5 -7 10 -4 6 3 10 8 10 11 0 2 -4 4 -10 4 -5 0 -10
-5 -10 -11z"/>
<path d="M598 713 c-23 -28 -30 -43 -19 -43 6 0 11 7 11 15 0 14 11 19 37 16
8 -1 10 5 7 14 -8 20 -17 19 -36 -2z"/>
<path d="M2740 716 c0 -9 5 -16 11 -16 5 0 7 5 4 10 -3 6 0 10 9 10 8 0 17 -5
19 -10 3 -6 4 -5 3 2 -4 20 -46 23 -46 4z"/>
<path d="M512 700 c0 -14 2 -19 5 -12 2 6 2 18 0 25 -3 6 -5 1 -5 -13z"/>
<path d="M710 664 c0 -40 2 -44 25 -44 22 0 25 4 25 39 0 33 -3 39 -25 43 -24
5 -25 3 -25 -38z m40 17 c0 -17 -12 -41 -21 -41 -5 0 -9 11 -9 25 0 16 6 25
15 25 8 0 15 -4 15 -9z"/>
<path d="M610 686 c0 -10 28 -13 41 -5 10 6 7 9 -13 9 -16 0 -28 -2 -28 -4z"/>
<path d="M770 654 c0 -15 6 -24 15 -24 8 0 15 6 15 14 0 24 21 30 27 7 3 -14
13 -21 28 -21 15 0 25 7 28 21 6 23 27 17 27 -7 0 -23 47 -17 53 7 7 25 27 16
27 -12 0 -29 48 -26 52 4 4 26 21 26 28 0 3 -10 15 -19 26 -21 16 -2 23 4 28
23 7 29 26 25 26 -6 0 -10 7 -19 15 -19 10 0 15 10 15 30 l0 30 -69 0 c-46 0
-71 -4 -74 -12 -4 -10 -7 -10 -15 0 -6 9 -41 12 -130 11 -122 -1 -122 -1 -122
-25z"/>
<path d="M1190 650 c0 -10 5 -22 10 -25 6 -3 10 1 10 10 0 9 5 13 10 10 6 -4
8 -11 5 -16 -4 -5 -1 -9 4 -9 21 0 11 27 -14 38 -22 10 -25 9 -25 -8z"/>
<path d="M2810 666 c0 -2 8 -10 18 -17 15 -13 16 -12 3 4 -13 16 -21 21 -21
13z"/>
<path d="M570 638 c0 -22 3 -23 65 -20 56 3 65 6 65 23 0 17 -8 19 -65 19 -61
0 -65 -1 -65 -22z m120 2 c0 -11 -14 -11 -50 0 -22 7 -21 8 13 9 20 1 37 -3
37 -9z"/>
<path d="M1250 635 c0 -11 11 -15 43 -14 l42 1 -35 13 c-46 18 -50 18 -50 0z"/>
<path d="M1661 629 c-1 -27 14 -39 50 -39 21 0 24 17 8 40 -9 13 -10 12 -5 -2
3 -10 1 -20 -4 -23 -6 -4 -10 4 -10 16 0 17 -3 19 -14 10 -11 -10 -15 -8 -19
6 -3 12 -5 9 -6 -8z"/>
<path d="M1733 626 c5 -16 159 -15 165 2 3 10 -16 12 -83 11 -59 -1 -85 -5
-82 -13z"/>
<path d="M330 570 c12 -23 25 -38 30 -35 5 3 7 0 4 -8 -2 -7 11 -38 31 -67 34
-51 35 -54 19 -78 -15 -23 -15 -25 1 -19 9 4 20 7 25 7 4 0 11 40 14 90 4 49
11 91 14 94 4 2 34 -4 66 -13 52 -14 60 -19 63 -43 3 -19 -2 -31 -17 -40 -11
-7 -20 -17 -20 -22 0 -4 6 -3 14 3 11 9 15 8 20 -5 3 -8 6 -17 6 -19 0 -2 -31
-14 -70 -26 -38 -13 -68 -25 -65 -27 2 -3 33 -10 67 -16 l63 -11 1 -37 c1 -34
-1 -36 -35 -40 -28 -4 -41 1 -61 21 -14 14 -22 22 -18 16 17 -21 8 -36 -19
-33 -26 3 -27 6 -25 48 3 43 2 45 -25 45 -36 -1 -141 -65 -122 -75 27 -15 155
-39 239 -46 l85 -6 1 150 c0 83 2 153 5 156 2 2 29 6 59 10 46 5 50 4 23 -5
-46 -14 -41 -19 17 -19 41 0 50 3 50 18 0 15 -12 18 -107 20 -125 3 -251 19
-307 38 -21 8 -40 14 -42 14 -3 0 5 -18 16 -40z m60 -4 c0 -3 -4 -8 -10 -11
-5 -3 -10 -1 -10 4 0 6 5 11 10 11 6 0 10 -2 10 -4z m46 -14 c11 -8 7 -92 -5
-92 -14 0 -44 67 -38 84 7 17 25 21 43 8z m154 -176 c0 -21 -4 -24 -27 -21
-16 2 -32 4 -38 5 -8 1 50 38 63 40 1 0 2 -11 2 -24z m-195 -56 c-3 -5 -1 -10
4 -10 6 0 11 5 11 12 0 8 3 9 10 2 17 -17 0 -44 -26 -44 -18 0 -22 4 -17 18 6
15 5 15 -10 3 -10 -8 -20 -11 -23 -8 -3 3 7 12 23 21 34 18 36 19 28 6z"/>
<path d="M2653 600 c-53 -22 -178 -39 -295 -41 -116 -3 -128 -5 -128 -21 0
-15 9 -18 50 -18 58 0 63 5 18 19 -28 9 -24 10 22 5 30 -3 59 -9 63 -13 4 -5
7 -74 5 -155 l-3 -148 85 7 c84 7 213 31 239 45 9 5 2 14 -25 30 -47 29 -96
68 -106 85 -5 8 7 35 28 67 44 64 87 148 77 147 -5 0 -18 -4 -30 -9z m-13 -41
c0 -11 -4 -18 -9 -15 -5 3 -12 -6 -15 -20 -7 -28 -49 -68 -99 -96 -31 -18 -30
-20 26 -32 15 -4 27 -13 27 -21 0 -8 20 -28 45 -45 25 -17 43 -36 40 -41 -4
-5 -10 -7 -15 -4 -5 3 -11 1 -15 -4 -3 -6 -12 -8 -20 -4 -8 3 -15 1 -15 -3 0
-5 -42 -9 -93 -9 l-92 0 -3 35 c-3 30 2 39 40 72 24 21 37 38 31 38 -7 0 -13
-4 -13 -8 0 -4 -12 -15 -28 -24 -27 -16 -27 -16 -28 13 -1 16 3 26 8 23 6 -4
5 2 -1 14 -11 21 -12 61 -4 96 4 15 12 17 39 13 20 -4 32 -2 29 4 -4 5 11 9
32 10 76 2 118 8 121 19 6 17 12 11 12 -11z m-82 -129 c-7 -11 -20 -20 -28
-20 -10 0 -7 7 10 20 31 25 33 25 18 0z"/>
<path d="M2519 373 c5 -10 24 -34 41 -53 28 -32 28 -30 -6 18 -35 50 -55 70
-35 35z"/>
<path d="M1760 591 c14 -4 49 -11 78 -15 43 -6 52 -4 52 9 0 12 -14 15 -77 14
-52 0 -70 -3 -53 -8z"/>
<path d="M1986 584 c-10 -27 -7 -34 19 -34 31 0 33 17 3 23 l-23 4 23 2 c27 1
30 21 3 21 -10 0 -22 -7 -25 -16z"/>
<path d="M2100 590 c0 -5 9 -10 20 -10 11 0 20 5 20 10 0 6 -9 10 -20 10 -11
0 -20 -4 -20 -10z"/>
<path d="M2220 590 c0 -5 9 -10 19 -10 11 0 23 5 26 10 4 6 -5 10 -19 10 -14
0 -26 -4 -26 -10z"/>
<path d="M1316 578 c-43 -4 -176 -21 -295 -39 -155 -22 -241 -30 -303 -27
l-88 4 0 -162 0 -163 46 -7 c55 -8 181 1 314 21 306 49 403 57 570 52 111 -4
228 -16 357 -36 223 -36 342 -46 407 -37 l46 7 0 162 0 162 -140 1 c-108 0
-140 -3 -140 -13 0 -9 10 -11 33 -7 24 4 28 3 17 -5 -9 -7 -10 -11 -3 -11 6 0
14 4 17 8 3 5 28 6 55 2 28 -3 71 -5 96 -3 l46 4 -5 -40 c-3 -24 0 -41 6 -43
8 -3 7 -11 -1 -27 -8 -14 -9 -27 -3 -33 11 -11 5 -115 -8 -138 -7 -11 -10 -8
-11 15 -1 28 -1 29 -8 6 -5 -20 -14 -25 -44 -27 -31 -1 -35 1 -26 12 7 8 27
22 45 30 19 9 34 21 34 26 0 11 -10 6 -70 -37 -44 -32 -46 -32 -110 -24 -35 5
-70 7 -77 4 -7 -2 -13 0 -13 5 0 15 106 33 129 21 16 -9 22 -8 30 6 5 10 24
23 43 30 28 11 29 12 5 8 -31 -6 -44 12 -29 42 14 25 4 67 -18 81 -11 6 -42
12 -70 13 -27 1 -50 6 -50 10 0 5 -12 4 -26 -1 -19 -7 -31 -7 -40 1 -8 6 -25
8 -38 5 -26 -6 -46 8 -24 17 7 3 -3 4 -22 2 l-34 -3 32 29 c33 29 65 36 91 20
11 -7 7 -13 -20 -25 -35 -16 -8 -12 40 6 23 8 23 9 5 23 -16 13 -17 14 -1 9 9
-3 17 -2 17 3 0 10 -250 49 -405 63 -120 11 -236 10 -359 -2z m153 -22 c12 -8
13 -8 7 2 -6 10 11 13 86 12 104 -2 141 -8 132 -21 -3 -5 -10 -6 -16 -3 -7 4
-8 2 -4 -5 6 -8 11 -9 21 -1 9 8 150 9 150 0 0 -3 79 -12 113 -13 l33 0 -28
-23 c-41 -33 -83 -56 -83 -46 0 4 -13 7 -30 6 -24 -2 -30 2 -30 17 0 12 -7 19
-20 19 -13 0 -20 7 -20 20 0 17 -3 18 -25 8 -13 -6 -22 -14 -20 -18 15 -24
-99 -37 -133 -16 -7 4 -17 4 -22 1 -6 -3 -14 4 -19 17 -7 19 -9 16 -15 -25 -5
-31 -12 -47 -22 -47 -8 0 -14 8 -14 19 0 10 -7 24 -15 31 -19 16 -65 4 -65
-16 0 -13 -7 -15 -31 -10 l-31 6 31 -36 c22 -24 30 -42 26 -55 -8 -23 43 -79
54 -60 6 9 11 8 21 -4 11 -13 10 -14 -6 -8 -17 6 -18 5 -5 -11 14 -16 15 -16
30 8 12 20 24 26 49 26 27 0 31 -2 20 -14 -9 -10 -15 -10 -20 -3 -4 6 -11 8
-15 3 -4 -5 -2 -11 5 -13 29 -11 10 -29 -33 -30 -26 -1 -43 3 -40 8 4 5 1 10
-4 10 -6 1 -17 2 -23 3 -7 1 -15 -1 -18 -5 -8 -10 -170 -18 -170 -8 0 5 9 18
20 29 16 16 25 18 40 10 64 -34 86 17 45 104 -15 31 -32 56 -38 56 -7 0 -6 4
3 10 17 11 6 13 -27 4 -29 -8 -30 -24 -3 -24 15 0 26 -13 40 -47 11 -27 25
-56 30 -65 6 -11 6 -18 1 -18 -5 0 -16 -3 -25 -6 -11 -4 -16 -1 -16 10 0 9 -8
16 -20 16 -11 0 -20 -6 -20 -14 0 -10 -20 -17 -62 -23 -35 -5 -66 -7 -69 -4
-4 3 -10 34 -13 69 -6 57 -5 62 12 62 21 0 32 -25 32 -73 0 -24 3 -27 25 -21
15 4 25 2 25 -5 0 -6 3 -11 8 -11 12 0 32 124 22 134 -5 5 -20 -1 -36 -13 -25
-20 -30 -21 -40 -7 -16 22 -51 20 -66 -4 -18 -29 -24 -25 -37 24 -15 62 -16
62 28 61 21 0 37 -3 34 -7 -8 -14 8 -9 23 7 21 20 31 19 44 -5 6 -12 7 -20 1
-20 -5 0 -11 4 -13 10 -2 5 -9 6 -16 1 -9 -6 -1 -11 27 -18 l41 -11 -20 25
c-11 14 -20 28 -20 32 0 3 26 7 57 7 l57 2 -34 -29 c-45 -37 -29 -38 19 -1 20
16 44 33 54 39 21 11 65 6 86 -11z m-383 -70 c4 -19 3 -27 -3 -23 -6 4 -22 -2
-36 -14 -22 -16 -29 -18 -46 -8 -18 12 -18 15 -3 45 10 23 23 34 41 36 32 4
38 0 47 -36z m-101 -3 c-24 -57 -32 -63 -68 -52 -18 5 -41 9 -52 8 -20 0 -20
0 0 -9 19 -8 18 -9 -5 -11 -61 -4 -90 -1 -104 11 -16 12 -23 0 -9 -14 4 -4 8
-32 10 -62 2 -53 2 -55 -20 -48 -31 9 -31 7 -20 84 9 69 3 85 -22 61 -6 -5
-19 -12 -31 -15 -18 -6 -20 -3 -16 24 4 27 6 28 26 18 19 -10 20 -10 8 5 -12
14 -11 15 17 7 17 -5 31 -5 31 -1 0 4 24 4 54 1 30 -3 52 -2 49 3 -3 5 12 7
33 5 21 -2 59 2 84 8 25 7 46 13 48 13 1 1 -5 -16 -13 -36z m795 17 c16 -16
17 -20 5 -20 -8 0 -15 -6 -15 -12 0 -10 -3 -9 -9 1 -5 8 -14 10 -21 6 -8 -5
-11 -3 -8 6 3 8 10 13 16 12 6 -2 9 4 6 12 -8 21 2 19 26 -5z m-290 -74 c0
-51 1 -53 25 -48 20 3 25 0 25 -17 0 -18 -6 -21 -45 -21 l-45 0 0 70 c0 63 2
70 20 70 18 0 20 -7 20 -54z m94 48 c12 -4 16 -20 16 -55 0 -37 4 -49 15 -49
10 0 15 10 15 28 0 43 11 72 27 72 12 0 14 -10 10 -54 -3 -30 -8 -59 -12 -65
-11 -19 -83 -13 -93 7 -7 15 -5 122 3 122 2 0 10 -3 19 -6z m174 -53 l9 -36 7
33 c6 27 12 32 37 32 l30 0 -7 -62 c-7 -67 -15 -85 -34 -73 -8 5 -10 23 -6 54
l6 46 -15 -34 c-8 -18 -15 -40 -15 -47 0 -19 -26 -18 -34 2 -3 9 -7 32 -7 52
-1 26 -3 29 -6 12 -8 -56 -14 -70 -27 -70 -12 0 -13 12 -9 58 6 78 8 80 36 75
19 -4 28 -14 35 -42z m-508 -15 c-11 -30 -30 -26 -30 6 0 25 33 55 38 34 2 -7
-2 -25 -8 -40z m-126 -27 c14 -33 26 -62 26 -63 0 -2 -9 -6 -20 -9 -13 -3 -20
0 -20 9 0 8 -9 14 -20 14 -11 0 -20 -6 -20 -14 0 -12 -20 -26 -37 -26 -2 0 -2
12 1 28 3 15 8 46 11 69 6 38 13 46 46 52 4 0 18 -26 33 -60z m833 39 c31 -25
7 -68 -39 -68 -23 0 -28 -4 -28 -25 0 -26 -6 -30 -28 -16 -10 6 -12 24 -6 71
l7 62 40 -6 c23 -4 47 -12 54 -18z m-1255 1 c2 -6 2 -26 0 -45 -4 -28 -8 -34
-28 -34 -21 0 -24 4 -22 33 1 17 6 38 11 45 12 15 34 16 39 1z m815 -11 c-3
-8 -6 -5 -6 6 -1 11 2 17 5 13 3 -3 4 -12 1 -19z m-504 -40 c6 -62 -10 -88
-53 -88 -37 0 -50 18 -57 79 -5 46 -4 51 14 51 17 0 22 -9 27 -50 5 -36 11
-50 23 -50 13 0 15 9 10 55 -5 48 -3 55 12 55 15 0 20 -11 24 -52z m1011 -3
c-6 -45 -4 -55 8 -55 17 0 28 29 28 73 0 21 5 27 21 27 15 0 19 -5 15 -17 -2
-10 -8 -37 -11 -61 -5 -34 -12 -43 -32 -48 -39 -10 -73 11 -73 45 0 57 12 91
31 91 17 0 19 -6 13 -55z m-1155 12 c-10 -23 -9 -32 15 -67 l26 -40 -25 0
c-17 0 -29 8 -37 25 -8 19 -14 22 -20 13 -4 -7 -5 -21 -2 -30 4 -13 0 -18 -15
-18 -23 0 -29 16 -33 85 -2 40 1 51 14 53 12 2 18 -6 20 -30 l4 -33 13 32 c7
17 20 34 29 36 24 5 24 3 11 -26z m1345 7 c20 -20 20 -33 0 -55 -12 -13 -13
-22 -5 -38 15 -28 14 -31 -13 -31 -18 0 -25 7 -29 30 -8 36 -27 40 -27 5 0
-19 -5 -25 -21 -25 -19 0 -21 4 -15 31 3 17 6 47 6 65 0 34 1 34 44 34 27 0
51 -6 60 -16z m-529 -65 c4 -6 14 -8 22 -5 9 4 22 1 29 -5 7 -6 19 -9 26 -7 7
3 18 -2 25 -11 7 -9 13 -11 13 -5 0 12 23 12 53 1 38 -15 47 -16 47 -4 0 7 7
22 15 33 15 18 16 18 40 -11 23 -28 23 -30 7 -49 -12 -15 -13 -17 -2 -9 21 16
147 16 131 0 -13 -13 -169 -18 -186 -6 -14 9 -60 19 -114 25 -108 11 -138 13
-174 13 -47 1 -45 19 4 37 43 16 56 17 64 3z m-981 -57 c-2 -61 -5 -66 -33
-57 -28 8 -31 45 -7 74 17 20 18 23 4 18 -10 -3 -19 0 -22 9 -5 12 1 15 27 12
32 -3 32 -3 31 -56z m556 19 c-7 -14 -21 -21 -39 -21 -16 0 -43 -3 -60 -6 -23
-5 -31 -3 -31 7 0 21 29 35 80 38 25 2 47 5 49 7 11 10 12 -6 1 -25z m-510 9
c8 -5 11 -12 8 -16 -4 -3 3 -15 15 -25 16 -13 18 -18 7 -19 -8 0 -25 -3 -37
-6 -21 -6 -23 -3 -23 35 0 42 5 47 30 31z m361 -2 c-1 -5 -1 -17 -1 -28 0 -18
-5 -19 -47 -13 -34 4 -44 3 -39 -5 4 -7 1 -12 -8 -12 -18 0 -32 20 -14 21 7 0
4 4 -7 9 -17 6 -13 9 20 14 22 4 47 11 55 16 17 10 41 9 41 -2z m-141 -47 c0
-20 -24 -25 -170 -35 l-75 -6 105 29 c128 35 140 36 140 12z"/>
<path d="M1578 543 c18 -2 45 -2 60 0 15 2 0 4 -33 4 -33 0 -45 -2 -27 -4z"/>
<path d="M1803 533 c-15 -5 -17 -23 -4 -23 5 0 11 7 15 15 3 8 4 15 3 14 -1 0
-8 -3 -14 -6z"/>
<path d="M1400 515 c-25 -7 -36 -13 -25 -13 11 0 38 5 60 13 52 17 24 17 -35
0z"/>
<path d="M1306 411 c-4 -7 -5 -15 -2 -18 9 -9 19 4 14 18 -4 11 -6 11 -12 0z"/>
<path d="M1530 290 c0 -5 5 -10 11 -10 5 0 7 5 4 10 -3 6 -8 10 -11 10 -2 0
-4 -4 -4 -10z"/>
<path d="M778 453 c7 -3 16 -2 19 1 4 3 -2 6 -13 5 -11 0 -14 -3 -6 -6z"/>
<path d="M1070 370 c0 -19 3 -21 12 -12 9 9 9 15 0 24 -9 9 -12 7 -12 -12z"/>
<path d="M1900 396 c0 -9 7 -16 16 -16 9 0 14 5 12 12 -6 18 -28 21 -28 4z"/>
<path d="M2150 355 c0 -10 7 -15 18 -13 21 4 19 22 -2 26 -10 2 -16 -3 -16
-13z"/>
<path d="M2110 550 c0 -11 7 -20 15 -20 8 0 15 9 15 20 0 11 -7 20 -15 20 -8
0 -15 -9 -15 -20z"/>
<path d="M60 506 c0 -2 8 -10 18 -17 15 -13 16 -12 3 4 -13 16 -21 21 -21 13z"/>
<path d="M100 476 c0 -2 8 -10 18 -17 15 -13 16 -12 3 4 -13 16 -21 21 -21 13z"/>
<path d="M2296 403 c-6 -14 -5 -15 5 -6 7 7 10 15 7 18 -3 3 -9 -2 -12 -12z"/>
<path d="M2262 335 c-6 -14 -8 -25 -3 -25 8 0 23 41 17 47 -1 2 -8 -8 -14 -22z"/>
<path d="M230 346 c0 -2 8 -10 18 -17 15 -13 16 -12 3 4 -13 16 -21 21 -21 13z"/>
<path d="M2283 306 c-3 -6 -3 -8 1 -4 5 4 19 3 32 -2 13 -5 26 -5 29 -1 2 5
-9 11 -26 13 -16 3 -33 0 -36 -6z"/>
<path d="M2974 268 l-19 -23 23 19 c12 11 22 21 22 23 0 8 -8 2 -26 -19z"/>
<path d="M1385 158 l-60 -63 63 60 c58 55 67 65 59 65 -1 0 -29 -28 -62 -62z"/>
<path d="M2630 206 c0 -2 8 -10 18 -17 15 -13 16 -12 3 4 -13 16 -21 21 -21
13z"/>
<path d="M450 176 c0 -2 8 -10 18 -17 15 -13 16 -12 3 4 -13 16 -21 21 -21 13z"/>
<path d="M1190 176 c0 -2 8 -10 18 -17 15 -13 16 -12 3 4 -13 16 -21 21 -21
13z"/>
<path d="M2670 176 c0 -2 8 -10 18 -17 15 -13 16 -12 3 4 -13 16 -21 21 -21
13z"/>
<path d="M2094 128 l-29 -33 33 29 c30 28 37 36 29 36 -2 0 -16 -15 -33 -32z"/>
<path d="M490 146 c0 -2 8 -10 18 -17 15 -13 16 -12 3 4 -13 16 -21 21 -21 13z"/>
<path d="M604 118 l-19 -23 23 19 c21 18 27 26 19 26 -2 0 -12 -10 -23 -22z"/>
<path d="M1987 129 c7 -7 15 -10 18 -7 3 3 -2 9 -12 12 -14 6 -15 5 -6 -5z"/>
<path d="M531 84 c0 -11 3 -14 6 -6 3 7 2 16 -1 19 -3 4 -6 -2 -5 -13z"/>
<path d="M556 85 c4 -8 10 -15 15 -15 4 0 6 7 3 15 -4 8 -10 15 -15 15 -4 0
-6 -7 -3 -15z"/>
<path d="M2010 85 c0 -8 2 -15 4 -15 2 0 6 7 10 15 3 8 1 15 -4 15 -6 0 -10
-7 -10 -15z"/>
<path d="M484 38 l-19 -23 23 19 c21 18 27 26 19 26 -2 0 -12 -10 -23 -22z"/>
</g>
</svg>
