<?xml version="1.0" standalone="no"?>
<!DOCTYPE svg PUBLIC "-//W3C//DTD SVG 20010904//EN"
 "http://www.w3.org/TR/2001/REC-SVG-20010904/DTD/svg10.dtd">
<svg version="1.0" xmlns="http://www.w3.org/2000/svg"
 width="300.000000pt" height="297.000000pt" viewBox="0 0 300.000000 297.000000"
 preserveAspectRatio="xMidYMid meet">
<metadata>
Created by potrace 1.10, written by Peter Selinger 2001-2011
</metadata>
<g transform="translate(0.000000,297.000000) scale(0.100000,-0.100000)"
fill="#000000" stroke="none">
<path d="M315 2960 c-3 -5 -1 -10 4 -10 6 0 11 5 11 10 0 6 -2 10 -4 10 -3 0
-8 -4 -11 -10z"/>
<path d="M1443 2963 c9 -2 25 -2 35 0 9 3 1 5 -18 5 -19 0 -27 -2 -17 -5z"/>
<path d="M1558 2963 c6 -2 18 -2 25 0 6 3 1 5 -13 5 -14 0 -19 -2 -12 -5z"/>
<path d="M2958 2945 c-3 -14 -1 -28 3 -31 5 -3 9 -17 9 -32 0 -22 -2 -24 -11
-12 -12 16 -12 18 6 -38 6 -21 4 -23 -14 -17 -13 4 -21 2 -21 -5 0 -6 5 -8 10
-5 6 3 10 1 10 -4 0 -6 -4 -11 -10 -11 -5 0 -10 -4 -10 -9 0 -6 9 -8 21 -6 19
4 20 0 17 -60 -2 -36 -6 -65 -9 -65 -4 0 -10 -7 -13 -16 -5 -14 -4 -15 8 -5
13 11 15 1 14 -74 0 -48 -4 -102 -8 -121 -4 -19 -4 -37 1 -40 14 -8 11 -41 -6
-58 -19 -18 -19 -27 -2 -20 10 4 13 -6 11 -40 -1 -25 -5 -50 -8 -55 -4 -5 -2
-12 4 -16 16 -10 12 -25 -7 -25 -15 0 -15 -1 0 -18 20 -22 22 -73 5 -90 -7 -7
-8 -12 -2 -12 7 0 11 -40 12 -105 1 -65 -2 -105 -8 -105 -5 0 -10 -11 -10 -25
0 -14 5 -25 10 -25 14 0 12 -63 -2 -79 -11 -11 -10 -13 0 -7 10 6 12 -17 11
-108 -1 -80 -4 -116 -12 -116 -9 0 -9 -2 -1 -8 17 -11 18 -430 2 -450 -10 -13
-10 -14 0 -8 6 4 12 3 12 -3 0 -5 -6 -11 -12 -14 -10 -3 -10 -7 0 -19 15 -18
16 -242 1 -232 -5 3 -9 0 -9 -5 0 -6 5 -11 10 -11 6 0 10 -10 9 -22 0 -21 -1
-21 -8 -4 -5 13 -7 1 -7 -32 1 -29 4 -52 8 -52 7 0 4 -24 -7 -52 -5 -11 -3
-18 5 -18 9 0 8 -7 -4 -24 -10 -15 -12 -26 -5 -28 6 -2 12 -27 14 -56 3 -39 1
-51 -8 -46 -8 5 -8 3 1 -7 15 -16 17 -83 2 -74 -13 8 -9 -17 4 -26 5 -4 6 -15
1 -25 -10 -25 -12 -93 -2 -87 12 7 8 -12 -5 -25 -7 -7 -8 -12 -3 -12 6 0 10
-32 9 -70 -1 -39 3 -73 8 -76 4 -3 8 663 8 1480 0 853 -4 1486 -9 1486 -5 0
-11 -11 -13 -25z"/>
<path d="M1368 2953 c6 -2 18 -2 25 0 6 3 1 5 -13 5 -14 0 -19 -2 -12 -5z"/>
<path d="M2817 2942 c-19 -20 -22 -32 -9 -32 5 0 14 11 20 25 14 30 11 31 -11
7z"/>
<path d="M230 2946 c0 -2 7 -7 16 -10 8 -3 12 -2 9 4 -6 10 -25 14 -25 6z"/>
<path d="M780 2946 c0 -2 7 -7 16 -10 8 -3 12 -2 9 4 -6 10 -25 14 -25 6z"/>
<path d="M2870 2942 c0 -4 11 -9 26 -10 14 -1 23 2 19 8 -7 12 -45 14 -45 2z"/>
<path d="M2620 2925 c-8 -9 -8 -15 -2 -15 12 0 26 19 19 26 -2 2 -10 -2 -17
-11z"/>
<path d="M2927 2923 c-4 -3 -7 -11 -7 -17 0 -6 5 -5 12 2 6 6 9 14 7 17 -3 3
-9 2 -12 -2z"/>
<path d="M1421 2904 c0 -11 3 -14 6 -6 3 7 2 16 -1 19 -3 4 -6 -2 -5 -13z"/>
<path d="M2640 2891 c0 -14 18 -23 31 -15 8 4 7 9 -2 15 -18 11 -29 11 -29 0z"/>
<path d="M197 2883 c-4 -3 -7 -11 -7 -17 0 -6 5 -5 12 2 6 6 9 14 7 17 -3 3
-9 2 -12 -2z"/>
<path d="M1460 2879 c0 -5 5 -7 10 -4 6 3 10 8 10 11 0 2 -4 4 -10 4 -5 0 -10
-5 -10 -11z"/>
<path d="M2040 2879 c0 -5 5 -7 10 -4 6 3 10 8 10 11 0 2 -4 4 -10 4 -5 0 -10
-5 -10 -11z"/>
<path d="M2810 2857 c0 -20 -8 -41 -19 -51 -13 -12 -16 -25 -12 -44 5 -26 5
-26 12 8 5 30 7 31 8 8 0 -15 6 -30 11 -33 6 -4 10 22 10 69 0 42 -2 76 -5 76
-3 0 -5 -15 -5 -33z"/>
<path d="M340 2870 c0 -5 5 -10 11 -10 5 0 7 5 4 10 -3 6 -8 10 -11 10 -2 0
-4 -4 -4 -10z"/>
<path d="M705 2870 c3 -5 8 -10 11 -10 2 0 4 5 4 10 0 6 -5 10 -11 10 -5 0 -7
-4 -4 -10z"/>
<path d="M2551 2850 c-1 -24 -11 -46 -31 -69 -17 -19 -28 -37 -25 -40 4 -3 10
1 16 9 8 13 10 13 19 0 7 -11 10 -7 11 20 l2 35 6 -35 7 -35 6 42 c3 22 2 56
-2 75 l-8 33 -1 -35z"/>
<path d="M2237 2839 c4 -13 8 -18 11 -10 2 7 -1 18 -6 23 -8 8 -9 4 -5 -13z"/>
<path d="M85 2840 c3 -5 11 -10 16 -10 6 0 7 5 4 10 -3 6 -11 10 -16 10 -6 0
-7 -4 -4 -10z"/>
<path d="M150 2840 c-9 -6 -10 -10 -3 -10 6 0 15 5 18 10 8 12 4 12 -15 0z"/>
<path d="M120 2795 c-11 -13 -10 -14 4 -9 9 3 16 10 16 15 0 13 -6 11 -20 -6z"/>
<path d="M2831 2773 c1 -34 2 -35 9 -13 7 23 8 23 9 3 1 -12 9 -24 19 -27 9
-2 -20 -4 -66 -3 -79 2 -82 1 -82 -20 0 -22 3 -23 95 -23 87 0 95 2 95 19 0
11 -3 21 -7 23 -5 2 -23 20 -40 41 l-33 38 1 -38z m34 -64 c3 -3 -6 -5 -19 -5
-14 1 -28 4 -31 7 -3 3 6 5 19 5 14 -1 28 -4 31 -7z"/>
<path d="M2570 2773 c0 -35 15 -45 23 -15 4 16 5 16 6 -1 0 -10 6 -15 11 -12
6 3 10 1 10 -4 0 -7 -30 -11 -80 -11 l-79 0 1 -32 c0 -18 -2 -52 -7 -76 l-7
-43 97 2 c53 1 99 -1 102 -5 4 -3 -39 -6 -95 -6 l-101 0 0 -435 -1 -435 105 0
106 0 -3 508 -3 508 -42 45 -43 44 0 -32z m34 -61 c3 -5 -1 -9 -9 -9 -8 0 -12
4 -9 9 3 4 7 8 9 8 2 0 6 -4 9 -8z m31 -32 c-3 -5 -40 -10 -81 -10 -43 0 -74
4 -74 10 0 6 34 10 81 10 51 0 78 -4 74 -10z m-112 -27 c-7 -2 -19 -2 -25 0
-7 3 -2 5 12 5 14 0 19 -2 13 -5z m104 1 c-3 -3 -12 -4 -19 -1 -8 3 -5 6 6 6
11 1 17 -2 13 -5z m-19 -31 c-27 -2 -69 -2 -95 0 -27 2 -5 3 47 3 52 0 74 -1
48 -3z m-31 -19 c-3 -3 -12 -4 -19 -1 -8 3 -5 6 6 6 11 1 17 -2 13 -5z m-77
-54 c0 -5 -7 -10 -15 -10 -8 0 -15 5 -15 10 0 6 7 10 15 10 8 0 15 -4 15 -10z
m90 0 c0 -5 -13 -10 -30 -10 -16 0 -30 5 -30 10 0 6 14 10 30 10 17 0 30 -4
30 -10z m60 0 c0 -5 -9 -10 -20 -10 -11 0 -20 5 -20 10 0 6 9 10 20 10 11 0
20 -4 20 -10z m-150 -30 c0 -5 -7 -10 -15 -10 -8 0 -15 5 -15 10 0 6 7 10 15
10 8 0 15 -4 15 -10z m90 0 c0 -5 -13 -10 -30 -10 -16 0 -30 5 -30 10 0 6 14
10 30 10 17 0 30 -4 30 -10z m60 0 c0 -5 -9 -10 -20 -10 -11 0 -20 5 -20 10 0
6 9 10 20 10 11 0 20 -4 20 -10z m-150 -65 c0 -33 -4 -45 -15 -45 -18 0 -20
20 -2 21 10 0 10 2 0 6 -7 2 -13 11 -13 19 0 9 5 12 13 8 10 -6 10 -4 0 7 -17
18 -16 29 2 29 11 0 15 -12 15 -45z m85 15 c0 -20 -6 -26 -28 -28 -24 -3 -27
0 -27 28 0 28 3 31 27 28 22 -2 28 -8 28 -28z m59 0 c0 -15 -6 -26 -15 -28
-11 -2 -16 5 -16 28 0 23 5 30 16 28 9 -2 15 -13 15 -28z m-54 -50 c0 -5 -13
-10 -30 -10 -16 0 -30 5 -30 10 0 6 14 10 30 10 17 0 30 -4 30 -10z m60 0 c0
-5 -9 -10 -20 -10 -11 0 -20 5 -20 10 0 6 9 10 20 10 11 0 20 -4 20 -10z
m-150 -30 c0 -5 -7 -10 -15 -10 -8 0 -15 5 -15 10 0 6 7 10 15 10 8 0 15 -4
15 -10z m90 0 c0 -5 -13 -10 -30 -10 -16 0 -30 5 -30 10 0 6 14 10 30 10 17 0
30 -4 30 -10z m60 0 c0 -5 -9 -10 -20 -10 -11 0 -20 5 -20 10 0 6 9 10 20 10
11 0 20 -4 20 -10z m-150 -30 c0 -5 -7 -10 -15 -10 -8 0 -15 5 -15 10 0 6 7
10 15 10 8 0 15 -4 15 -10z m90 0 c0 -5 -13 -10 -30 -10 -16 0 -30 5 -30 10 0
6 14 10 30 10 17 0 30 -4 30 -10z m60 0 c0 -5 -9 -10 -20 -10 -11 0 -20 5 -20
10 0 6 9 10 20 10 11 0 20 -4 20 -10z m-150 -35 c0 -8 7 -15 15 -15 8 0 15 7
15 16 0 11 8 14 28 12 32 -4 33 -21 0 -28 -19 -5 -24 -13 -26 -48 -4 -49 -19
-58 -17 -9 1 17 -1 37 -4 42 -4 6 -8 -125 -11 -290 l-5 -300 -3 303 c-1 193
-6 302 -12 302 -5 0 -10 7 -10 15 0 8 7 15 15 15 8 0 15 -7 15 -15z m141 0
c-1 -15 -24 -12 -29 3 -3 9 2 13 12 10 10 -1 17 -7 17 -13z m-14 -52 c2 -18 0
-33 -6 -33 -5 0 -12 15 -14 33 -2 17 -6 -103 -8 -268 l-4 -300 -5 300 -5 300
-3 -292 c-1 -161 -6 -293 -10 -293 -13 0 -10 574 2 583 24 17 50 2 53 -30z
m-80 -421 c-1 -81 -3 -12 -3 153 0 165 2 231 3 147 2 -84 2 -219 0 -300z m-70
396 c-3 -7 -5 -2 -5 12 0 14 2 19 5 13 2 -7 2 -19 0 -25z m170 -15 c-3 -10 -5
-2 -5 17 0 19 2 27 5 18 2 -10 2 -26 0 -35z m-170 -400 c-1 -71 -3 -13 -3 127
0 140 2 198 3 128 2 -71 2 -185 0 -255z m53 132 c0 -135 -3 -245 -7 -245 -5 0
-8 110 -8 245 -1 135 3 245 7 245 4 0 8 -110 8 -245z m100 215 c0 -16 -4 -30
-10 -30 -5 0 -10 14 -10 30 0 17 5 30 10 30 6 0 10 -13 10 -30z m17 -343 c-1
-67 -3 -9 -3 128 0 138 2 192 3 122 2 -71 2 -183 0 -250z m-20 228 c1 -42 -2
-75 -8 -75 -5 0 -9 34 -9 75 0 41 4 75 8 75 4 0 9 -34 9 -75z m0 -125 c0 -22
-4 -40 -9 -40 -4 0 -8 18 -8 40 0 22 4 40 8 40 5 0 9 -18 9 -40z m3 -80 c0
-16 -4 -30 -10 -30 -5 0 -10 14 -10 30 0 17 5 30 10 30 6 0 10 -13 10 -30z m0
-70 c0 -16 -4 -30 -10 -30 -5 0 -10 14 -10 30 0 17 5 30 10 30 6 0 10 -13 10
-30z m0 -55 c0 -8 -4 -15 -8 -15 -5 0 -9 7 -9 15 0 8 4 15 9 15 4 0 8 -7 8
-15z"/>
<path d="M2540 2470 c0 -5 7 -10 15 -10 8 0 15 5 15 10 0 6 -7 10 -15 10 -8 0
-15 -4 -15 -10z"/>
<path d="M2455 2780 c-3 -5 -2 -10 4 -10 5 0 13 5 16 10 3 6 2 10 -4 10 -5 0
-13 -4 -16 -10z"/>
<path d="M884 2769 c-5 -9 -2 -10 9 -6 9 3 18 2 21 -4 2 -5 3 -4 2 3 -3 17
-23 21 -32 7z"/>
<path d="M2750 2755 c-10 -12 -10 -15 4 -15 9 0 16 7 16 15 0 8 -2 15 -4 15
-2 0 -9 -7 -16 -15z"/>
<path d="M119 2749 c-10 -6 -7 -9 14 -9 29 0 35 5 14 13 -8 3 -20 1 -28 -4z"/>
<path d="M2071 2741 c-8 -5 -9 -11 -3 -15 5 -3 12 1 16 9 6 17 6 18 -13 6z"/>
<path d="M598 2733 c-9 -2 -33 -26 -52 -53 -24 -34 -44 -50 -66 -55 -17 -4
-29 -9 -27 -11 7 -7 338 -7 344 0 4 3 -2 6 -11 6 -30 0 -72 30 -90 65 -10 18
-29 38 -42 44 -26 11 -28 12 -56 4z m58 -37 c21 -21 19 -22 -36 -25 -51 -2
-64 10 -32 28 24 15 51 13 68 -3z m46 -54 c4 -14 -1 -18 -21 -19 -23 -2 -24
-1 -6 7 14 6 -2 9 -52 9 -42 1 -73 5 -73 11 0 6 31 10 74 10 62 0 74 -3 78
-18z"/>
<path d="M235 2710 c-3 -5 -1 -10 4 -10 6 0 11 5 11 10 0 6 -2 10 -4 10 -3 0
-8 -4 -11 -10z"/>
<path d="M40 2700 c0 -5 5 -10 11 -10 5 0 7 5 4 10 -3 6 -8 10 -11 10 -2 0 -4
-4 -4 -10z"/>
<path d="M928 2703 c7 -3 16 -2 19 1 4 3 -2 6 -13 5 -11 0 -14 -3 -6 -6z"/>
<path d="M1984 2694 c-18 -14 -18 -15 4 -4 12 6 22 13 22 15 0 8 -5 6 -26 -11z"/>
<path d="M1775 2690 c-3 -5 -1 -10 4 -10 6 0 11 5 11 10 0 6 -2 10 -4 10 -3 0
-8 -4 -11 -10z"/>
<path d="M8 2683 c7 -3 16 -2 19 1 4 3 -2 6 -13 5 -11 0 -14 -3 -6 -6z"/>
<path d="M1601 2656 c-12 -22 -14 -59 -12 -194 l1 -52 234 0 c256 1 246 -1
246 61 l0 29 -237 3 -238 2 241 3 241 2 -4 58 c-4 57 -20 112 -32 112 -15 0
-34 -48 -32 -82 l2 -38 -181 0 -180 0 0 35 c0 35 -18 85 -30 85 -4 0 -12 -11
-19 -24z m6 -88 c-3 -7 -5 -2 -5 12 0 14 2 19 5 13 2 -7 2 -19 0 -25z m33 12
c0 -11 -4 -20 -9 -20 -5 0 -7 9 -4 20 3 11 7 20 9 20 2 0 4 -9 4 -20z m387
-12 c-3 -7 -5 -2 -5 12 0 14 2 19 5 13 2 -7 2 -19 0 -25z m33 12 c0 -11 -2
-20 -4 -20 -2 0 -6 9 -9 20 -3 11 -1 20 4 20 5 0 9 -9 9 -20z m-117 -37 c-62
-2 -164 -2 -225 0 -62 1 -12 3 112 3 124 0 174 -2 113 -3z m5 -20 c-65 -2
-171 -2 -235 0 -65 1 -12 3 117 3 129 0 182 -2 118 -3z m90 -68 l3 -30 -163 1
c-271 1 -258 -1 -258 33 l0 30 208 -2 207 -2 3 -30z"/>
<path d="M2710 2660 c0 -19 7 -20 95 -20 78 0 93 -3 89 -14 -3 -8 -11 -13 -17
-11 -7 2 -47 6 -89 9 l-78 6 0 -160 0 -160 105 0 105 0 0 134 0 134 -95 0
c-52 -1 -98 2 -102 5 -3 4 40 7 97 7 l103 0 -7 31 c-3 17 -6 38 -6 45 0 11
-22 14 -100 14 -93 0 -100 -1 -100 -20z m158 -7 c-10 -2 -26 -2 -35 0 -10 3
-2 5 17 5 19 0 27 -2 18 -5z m-108 -92 c0 -14 -18 -23 -30 -16 -6 4 -8 11 -5
16 8 12 35 12 35 0z m80 -21 c0 -27 -3 -30 -31 -30 -17 0 -28 4 -24 10 3 6 15
10 26 10 12 0 17 4 14 11 -4 6 -13 8 -21 5 -15 -6 -27 7 -17 18 3 3 17 6 30 6
19 0 23 -5 23 -30z m60 0 c0 -20 -5 -30 -15 -30 -18 0 -20 20 -2 21 10 0 10 2
0 6 -18 7 -16 33 2 33 10 0 15 -10 15 -30z m-140 -20 c0 -5 -6 -10 -14 -10 -8
0 -18 5 -21 10 -3 6 3 10 14 10 12 0 21 -4 21 -10z m0 -30 c0 -5 -9 -10 -20
-10 -11 0 -20 5 -20 10 0 6 9 10 20 10 11 0 20 -4 20 -10z m80 0 c0 -5 -13
-10 -30 -10 -16 0 -30 5 -30 10 0 6 14 10 30 10 17 0 30 -4 30 -10z m60 0 c0
-5 -7 -10 -15 -10 -8 0 -15 5 -15 10 0 6 7 10 15 10 8 0 15 -4 15 -10z m-140
-30 c0 -5 -6 -10 -14 -10 -8 0 -18 5 -21 10 -3 6 3 10 14 10 12 0 21 -4 21
-10z m80 0 c0 -5 -11 -10 -24 -10 -14 0 -28 5 -31 10 -4 6 7 10 24 10 17 0 31
-4 31 -10z m60 0 c0 -5 -7 -10 -15 -10 -8 0 -15 5 -15 10 0 6 7 10 15 10 8 0
15 -4 15 -10z m-145 -30 c3 -5 -3 -10 -15 -10 -12 0 -18 5 -15 10 3 6 10 10
15 10 5 0 12 -4 15 -10z m85 -35 c0 -43 -1 -45 -30 -45 -16 0 -30 5 -30 10 0
6 11 10 25 10 14 0 25 5 25 11 0 5 -8 9 -18 7 -11 -2 -19 2 -20 7 -1 6 8 9 18
7 11 -2 20 2 20 7 0 6 -12 11 -26 11 -14 0 -23 4 -19 10 3 6 17 10 31 10 22 0
24 -4 24 -45z m60 0 c0 -33 -4 -45 -15 -45 -18 0 -20 20 -2 21 10 0 10 2 0 6
-19 7 -17 63 2 63 11 0 15 -12 15 -45z m-145 6 c7 -12 -12 -24 -25 -16 -11 7
-4 25 10 25 5 0 11 -4 15 -9z m5 -41 c0 -5 -6 -10 -14 -10 -8 0 -18 5 -21 10
-3 6 3 10 14 10 12 0 21 -4 21 -10z m0 -30 c0 -5 -7 -10 -15 -10 -8 0 -15 5
-15 10 0 6 7 10 15 10 8 0 15 -4 15 -10z m80 0 c0 -5 -11 -10 -24 -10 -14 0
-28 5 -31 10 -4 6 7 10 24 10 17 0 31 -4 31 -10z m60 0 c0 -5 -7 -10 -15 -10
-8 0 -15 5 -15 10 0 6 7 10 15 10 8 0 15 -4 15 -10z"/>
<path d="M321 2590 c-25 -27 -55 -50 -65 -50 -11 0 -17 -3 -13 -6 7 -7 239 -5
246 2 10 9 -85 104 -105 104 -9 0 -38 -22 -63 -50z m79 5 c0 -5 -11 -10 -24
-11 -15 -1 -22 4 -20 11 6 15 44 14 44 0z m46 -33 c-3 -5 -19 -7 -37 -4 -24 3
-30 1 -24 -8 6 -9 3 -9 -15 0 -15 8 -20 8 -16 1 4 -6 1 -11 -7 -11 -8 0 -17 7
-21 15 -4 12 6 15 60 15 36 0 63 -4 60 -8z"/>
<path d="M799 2588 l-49 -53 0 33 c0 21 -5 32 -15 32 -9 0 -12 -6 -9 -17 5
-15 4 -16 -5 -3 -11 16 -135 25 -125 9 3 -5 -2 -9 -11 -9 -9 0 -14 4 -11 8 3
5 -13 9 -34 10 l-39 2 2 -75 2 -75 120 0 121 0 -4 40 c-3 25 0 40 7 40 6 0 11
-15 11 -34 0 -35 21 -66 45 -66 7 0 20 -3 29 -6 11 -4 16 -1 16 10 0 9 7 16
15 16 21 0 19 -38 -2 -43 -10 -3 9 -5 42 -6 l60 -1 2 60 2 59 -102 4 -102 3
125 2 c123 3 124 3 88 18 -21 9 -40 24 -43 35 -7 23 -52 59 -73 59 -8 0 -37
-24 -63 -52z m95 2 c7 -7 -2 -10 -27 -10 -34 0 -45 8 -31 23 8 8 45 0 58 -13z
m-266 -48 c-12 -2 -28 -11 -36 -20 -11 -14 -11 -12 0 8 32 56 30 54 45 34 13
-17 12 -19 -9 -22z m-54 13 c4 -10 -1 -15 -14 -15 -20 0 -26 11 -13 23 10 11
20 8 27 -8z m134 -3 c2 -7 -5 -12 -17 -12 -14 0 -19 5 -14 15 6 17 25 15 31
-3z m202 11 c-14 -3 -28 -10 -32 -17 -5 -6 -8 -7 -8 -1 0 6 -14 12 -32 13 -60
5 -41 12 28 11 38 -1 58 -4 44 -6z m-230 -37 c0 -3 -4 -8 -10 -11 -5 -3 -10
-1 -10 4 0 6 5 11 10 11 6 0 10 -2 10 -4z m-40 -31 c0 -18 -5 -25 -19 -25 -14
0 -17 6 -13 25 2 14 11 25 18 25 8 0 14 -10 14 -25z m-70 -5 c0 -11 -7 -20
-15 -20 -8 0 -15 9 -15 20 0 11 7 20 15 20 8 0 15 -9 15 -20z m133 0 c3 -13 0
-20 -9 -20 -8 0 -14 9 -14 20 0 11 4 20 9 20 5 0 11 -9 14 -20z m110 8 c14
-12 14 -15 2 -32 -17 -23 -25 -18 -29 18 -4 29 2 32 27 14z m127 -39 c0 -43
-3 -50 -17 -47 -12 2 -18 13 -18 30 1 15 -3 24 -7 22 -14 -9 -8 14 8 30 26 27
34 18 34 -35z m-60 20 c0 -5 -10 -9 -21 -9 -18 0 -19 2 -9 15 12 15 30 12 30
-6z"/>
<path d="M198 2623 c7 -3 16 -2 19 1 4 3 -2 6 -13 5 -11 0 -14 -3 -6 -6z"/>
<path d="M106 2611 c-4 -7 -5 -15 -2 -18 9 -9 19 4 14 18 -4 11 -6 11 -12 0z"/>
<path d="M2210 2551 c-6 -12 -7 -21 -1 -21 10 0 24 30 17 37 -2 3 -9 -5 -16
-16z"/>
<path d="M130 2510 c-17 -22 -40 -40 -51 -40 -10 0 -19 -3 -19 -7 0 -5 44 -8
97 -7 94 1 94 1 14 -3 l-83 -4 6 -31 c3 -17 6 -39 6 -49 0 -15 8 -19 43 -20
34 -1 38 -2 17 -8 -14 -4 -35 -4 -47 0 -13 5 -25 4 -28 -1 -4 -6 -17 -10 -30
-10 -13 0 -27 -5 -31 -12 -5 -8 6 -9 41 -5 26 4 79 7 117 7 50 0 69 3 66 12
-3 7 -15 12 -29 12 -25 0 -49 17 -49 35 0 6 7 11 15 11 8 0 15 -7 15 -15 0
-11 7 -10 35 6 27 16 35 27 35 50 0 16 5 29 10 29 15 0 12 -43 -5 -67 -8 -12
-25 -24 -38 -26 -12 -2 33 -5 101 -6 102 -1 122 1 122 14 0 11 -11 15 -37 16
-35 0 -36 1 -14 10 14 6 112 9 227 7 194 -3 232 1 162 17 -53 12 -308 17 -321
6 -7 -5 -33 -12 -59 -16 -44 -7 -48 -6 -48 14 0 12 6 21 15 21 8 0 15 -7 15
-16 0 -11 5 -14 16 -10 9 3 22 6 29 6 23 0 45 30 45 61 l0 29 -85 0 c-50 0
-85 -4 -85 -10 0 -5 8 -10 18 -10 11 0 17 -8 18 -25 1 -14 -2 -25 -7 -25 -4 0
-6 -6 -3 -13 3 -8 -4 -13 -17 -14 -17 -2 -20 2 -16 23 2 13 0 24 -5 24 -6 0
-7 11 -4 25 5 18 2 25 -9 25 -10 0 -15 -10 -15 -27 -1 -28 -1 -28 -38 15 -47
54 -71 54 -112 2z m90 -4 c0 -2 -9 -2 -20 1 -11 3 -20 1 -20 -5 0 -6 15 -13
33 -15 17 -2 5 -4 -28 -4 -44 -1 -53 1 -35 7 14 4 18 9 10 9 -12 1 -11 5 4 16
13 10 24 11 37 4 11 -5 19 -11 19 -13z m248 -18 c-5 -36 -18 -51 -32 -39 -7 6
-16 8 -19 4 -13 -12 -7 13 6 26 7 9 7 11 1 8 -7 -4 -14 -1 -17 6 -3 9 6 14 29
15 31 2 34 0 32 -20z m-68 -9 c0 -5 -10 -9 -21 -9 -18 0 -19 2 -9 15 12 15 30
12 30 -6z m-251 -57 c6 -11 5 -25 -3 -41 l-13 -23 -6 23 c-15 53 0 81 22 41z
m54 1 c-6 -14 -33 -18 -33 -5 0 12 8 19 24 19 8 0 12 -6 9 -14z m42 -8 c0 -10
-8 -19 -18 -21 -13 -2 -17 2 -13 13 3 8 6 19 6 25 0 5 6 8 13 6 6 -3 12 -13
12 -23z m118 -22 c-13 -2 -35 -2 -50 0 -16 2 -5 4 22 4 28 0 40 -2 28 -4z"/>
<path d="M1006 2505 l-37 -45 88 -2 88 -2 -83 -3 -83 -4 3 -26 c3 -30 68 -76
68 -48 0 8 7 15 15 15 8 0 15 -6 15 -13 0 -14 -40 -37 -65 -37 -8 0 -15 -4
-15 -9 0 -4 51 -11 113 -14 133 -6 150 -1 65 17 -26 6 -28 9 -27 66 1 55 3 60
20 55 11 -4 19 -2 19 4 0 6 -9 11 -19 11 -11 0 -34 18 -51 40 -42 54 -67 53
-114 -5z m74 -1 c0 -8 4 -13 8 -10 4 2 14 1 22 -5 10 -6 -5 -9 -45 -9 -40 0
-55 3 -45 9 8 6 18 7 24 4 5 -4 7 0 4 8 -4 10 1 15 13 16 11 1 19 -5 19 -13z
m-40 -96 c0 -12 -28 -9 -36 3 -3 6 0 15 7 20 13 7 28 -5 29 -23z m40 11 c0 -5
-7 -9 -15 -9 -15 0 -20 12 -9 23 8 8 24 -1 24 -14z m41 9 c1 -7 0 -23 -1 -36
-1 -13 4 -30 10 -38 11 -12 6 -14 -26 -14 -27 0 -35 3 -25 9 8 5 21 7 30 4 13
-5 13 -3 4 7 -6 7 -9 19 -6 28 5 11 3 13 -7 7 -10 -6 -12 -4 -7 9 4 10 7 22 7
27 0 14 20 11 21 -3z"/>
<path d="M2240 2519 c0 -5 5 -7 10 -4 6 3 10 8 10 11 0 2 -4 4 -10 4 -5 0 -10
-5 -10 -11z"/>
<path d="M2198 2513 c7 -3 16 -2 19 1 4 3 -2 6 -13 5 -11 0 -14 -3 -6 -6z"/>
<path d="M2410 2430 c-13 -8 -12 -10 3 -10 9 0 17 5 17 10 0 12 -1 12 -20 0z"/>
<path d="M1290 2416 c0 -8 -3 -21 -6 -29 -5 -13 15 -15 137 -16 79 -1 145 -4
148 -6 2 -3 -60 -5 -138 -5 l-142 0 3 -27 c2 -16 6 -27 11 -25 4 1 68 2 142 2
l135 0 0 34 c0 22 -6 36 -16 40 -9 3 -73 6 -142 6 -88 0 -122 3 -112 10 8 6
67 10 130 10 146 -1 140 -2 140 10 0 6 -55 10 -145 10 -119 0 -145 -3 -145
-14z m258 -78 c-5 -14 -163 -24 -205 -13 -53 13 -15 23 93 24 91 1 115 -1 112
-11z"/>
<path d="M2078 2418 c8 -8 52 -11 136 -9 80 2 126 -1 131 -8 4 -8 -34 -11
-124 -11 -71 0 -132 -4 -136 -9 -3 -6 54 -10 146 -10 134 -1 150 1 145 15 -3
9 -6 22 -6 30 0 11 -27 14 -152 14 -116 0 -149 -3 -140 -12z"/>
<path d="M480 2303 l0 -92 33 -4 c31 -4 30 -4 -8 -7 l-40 -3 35 -7 c31 -7 32
-7 8 -9 -25 -1 -28 -5 -29 -38 -2 -31 -3 -33 -6 -10 -6 39 -23 33 -23 -8 0
-35 0 -35 45 -35 l45 0 0 50 c0 28 3 50 8 50 4 0 7 16 8 35 0 33 10 47 55 82
12 10 20 8 40 -10 32 -29 53 -72 46 -91 -4 -9 -2 -16 4 -16 7 0 10 -19 7 -50
l-3 -50 45 0 45 0 1 59 c2 60 27 121 50 121 13 0 30 36 26 56 -1 7 15 11 45
10 l48 -1 0 -58 c0 -33 -3 -61 -6 -63 -9 -5 -20 26 -14 37 4 5 -1 6 -10 3 -11
-5 -14 -2 -9 12 4 11 3 16 -1 11 -5 -4 -16 0 -26 9 -12 11 -19 12 -24 4 -4 -6
2 -19 13 -28 27 -24 43 -58 36 -76 -5 -13 2 -16 37 -18 l44 -1 -37 -4 c-36 -4
-38 -6 -38 -39 0 -33 1 -34 40 -34 l40 0 0 55 c0 45 4 58 25 80 14 14 30 25
35 25 14 0 50 -51 50 -70 0 -13 6 -17 20 -13 12 3 20 0 20 -6 0 -7 -8 -11 -17
-9 -14 2 -19 -5 -21 -29 -3 -29 0 -33 22 -33 21 0 25 5 28 38 2 20 2 70 0 110
-3 63 -6 72 -23 72 -10 0 -19 -4 -19 -10 0 -5 5 -10 10 -10 6 0 10 -18 10 -40
0 -45 -11 -51 -29 -16 -19 34 -52 47 -75 30 -25 -18 -39 -8 -32 22 4 14 2 24
-4 24 -6 0 -10 -28 -10 -65 l0 -65 -32 1 c-30 1 -31 2 -8 8 24 6 25 9 25 84
l1 77 -103 0 -103 0 1 -121 c1 -66 -2 -123 -5 -126 -3 -4 -6 12 -6 35 0 38 -3
42 -24 42 -13 0 -26 7 -30 15 -4 11 2 15 24 15 l30 0 0 93 0 92 -145 0 -145 0
0 -92z m274 30 c7 -66 3 -106 -11 -111 -7 -2 -13 3 -13 12 0 9 -4 16 -10 16
-5 0 -10 7 -10 15 0 8 -4 15 -9 15 -5 0 -12 9 -16 19 -7 24 -53 41 -80 31 -22
-8 -56 -45 -75 -79 -6 -12 -18 -21 -26 -21 -12 0 -15 12 -13 58 3 96 -6 90
133 91 l124 2 6 -48z m109 -8 c4 -9 -5 -22 -22 -35 -39 -27 -41 -26 -41 15 0
32 3 35 29 35 16 0 31 -6 34 -15z m-343 -191 c0 -8 -4 -14 -10 -14 -5 0 -10 9
-10 21 0 11 5 17 10 14 6 -3 10 -13 10 -21z m233 12 c3 -8 0 -19 -7 -25 -10
-9 -13 -6 -11 11 4 34 9 38 18 14z"/>
<path d="M1703 2393 c70 -2 184 -2 255 0 70 1 12 3 -128 3 -140 0 -198 -2
-127 -3z"/>
<path d="M780 2375 c0 -13 20 -15 123 -15 114 0 120 1 93 15 -41 21 -216 21
-216 0z"/>
<path d="M1593 2346 l0 -36 234 0 233 0 0 34 c0 30 -3 33 -22 28 -16 -4 -18
-7 -7 -11 7 -3 15 -13 15 -22 1 -15 -20 -17 -215 -15 -185 1 -216 3 -216 16 0
13 29 15 198 15 108 0 197 3 197 8 0 4 -84 7 -187 7 -104 0 -197 3 -209 6 -18
5 -21 1 -21 -30z"/>
<path d="M2080 2335 l0 -25 145 0 145 0 0 25 0 25 -145 0 -145 0 0 -25z m260
4 c0 -14 -30 -18 -137 -17 -75 0 -110 4 -110 12 0 7 39 11 124 11 68 1 123 -2
123 -6z"/>
<path d="M260 2270 l0 -80 28 -1 c15 0 21 -3 14 -6 -6 -2 -10 -9 -6 -14 3 -5
-4 -9 -15 -9 -14 0 -21 -8 -24 -27 -4 -27 -4 -26 -6 4 -1 22 4 33 17 36 16 4
16 5 0 6 -15 1 -18 11 -18 65 l0 64 -85 0 -85 1 -1 -67 c0 -37 -1 -86 -2 -110
-2 -40 0 -42 25 -42 26 0 28 2 27 48 -2 82 39 128 82 93 22 -18 25 -28 28
-108 1 -32 3 -33 42 -33 41 0 41 0 39 38 -1 20 -1 39 0 42 1 3 3 17 4 32 1 15
15 39 32 55 l30 29 29 -28 c17 -16 30 -38 31 -55 0 -15 5 -28 10 -30 5 -2 9 9
8 24 -1 16 -3 56 -3 91 l-1 62 -100 0 -100 0 0 -80z m180 54 c0 -7 3 -19 6
-28 4 -11 1 -16 -11 -16 -11 0 -15 5 -11 16 4 10 2 13 -6 8 -7 -5 -24 -8 -37
-8 -17 -1 -34 -14 -56 -43 -16 -23 -35 -42 -41 -42 -6 -1 -11 21 -13 49 -1 29
2 50 8 50 6 0 8 6 5 13 -4 11 12 14 76 14 56 -1 80 -4 80 -13z m-216 -36 c-3
-4 0 -8 5 -8 6 0 11 -7 11 -15 0 -18 1 -18 -45 1 -25 10 -34 11 -29 3 5 -9 2
-10 -10 -6 -9 4 -15 3 -13 -1 3 -4 -6 -22 -19 -41 l-23 -34 1 51 c0 47 2 51
26 54 52 6 101 4 96 -4z m-114 -128 c0 -5 -4 -10 -10 -10 -5 0 -10 5 -10 10 0
6 5 10 10 10 6 0 10 -4 10 -10z m184 -28 c3 -5 -1 -9 -9 -9 -8 0 -12 4 -9 9 3
4 7 8 9 8 2 0 6 -4 9 -8z"/>
<path d="M384 2319 c-4 -7 -3 -9 4 -5 5 3 13 0 15 -6 4 -9 6 -10 6 -1 1 17
-16 25 -25 12z"/>
<path d="M1058 2293 c7 -3 16 -2 19 1 4 3 -2 6 -13 5 -11 0 -14 -3 -6 -6z"/>
<path d="M1273 2281 c16 -19 23 -341 8 -341 -6 0 -11 -11 -11 -25 0 -24 3 -25
60 -25 l60 0 0 59 c0 49 4 65 24 88 l25 28 23 -23 c19 -19 23 -33 23 -87 0
-61 1 -65 23 -65 17 0 22 6 22 25 0 14 5 25 12 25 6 0 8 3 5 7 -4 3 -2 12 4
20 9 10 5 13 -21 13 -33 0 -34 14 -2 16 55 3 52 -4 52 119 l0 114 -142 4 -143
3 143 2 c106 1 142 5 142 15 0 9 -35 12 -142 11 l-143 0 138 3 c189 5 175 22
-20 26 -129 2 -150 0 -140 -12z m285 -163 c-3 -97 -4 -103 -25 -106 -16 -2
-26 5 -38 27 -8 17 -20 31 -25 31 -6 0 -10 5 -10 11 0 6 8 9 18 7 11 -3 25 5
36 20 11 14 13 22 6 17 -10 -6 -12 -3 -8 13 4 12 2 20 -2 17 -5 -3 -10 -2 -12
3 -1 4 -19 18 -38 32 -19 13 -32 20 -28 15 9 -10 -52 -44 -72 -40 -10 2 -16
-4 -16 -15 0 -10 4 -16 8 -14 4 3 8 -4 8 -14 0 -18 31 -37 53 -33 5 1 7 -4 4
-11 -2 -7 -9 -12 -15 -11 -6 1 -15 -11 -21 -27 -7 -23 -16 -30 -35 -30 -22 0
-26 5 -27 33 -1 56 2 161 6 167 2 3 55 6 119 8 l117 4 -3 -104z m-70 25 l24
-28 -67 -3 c-37 -2 -70 0 -73 3 -3 3 5 16 18 30 31 33 68 32 98 -2z m-113
-153 c4 -6 -10 -10 -35 -10 -25 0 -39 4 -35 10 3 6 19 10 35 10 16 0 32 -4 35
-10z m-7 -57 c2 -9 -9 -13 -40 -13 -40 1 -42 2 -23 16 23 17 56 15 63 -3z"/>
<path d="M1580 2289 c0 -5 41 -9 92 -9 50 0 89 2 87 4 -9 8 -179 13 -179 5z"/>
<path d="M2045 2290 c-3 -5 3 -10 14 -10 12 0 21 5 21 10 0 6 -6 10 -14 10 -8
0 -18 -4 -21 -10z"/>
<path d="M2086 2275 c-3 -11 -6 -23 -6 -27 0 -3 68 -7 151 -7 119 -1 150 1
146 11 -2 7 1 20 9 28 11 13 -5 15 -141 15 -145 0 -154 -1 -159 -20z m206 -12
c-40 -2 -103 -2 -140 0 -37 2 -4 3 73 3 77 0 107 -2 67 -3z"/>
<path d="M2710 2003 l0 -298 105 -1 105 0 0 298 c0 291 0 298 -20 298 -19 0
-20 -8 -23 -292 l-2 -293 -3 293 c-2 284 -3 292 -22 292 -19 0 -20 -8 -23
-292 l-2 -293 -3 293 c-2 285 -3 292 -22 292 -19 0 -20 -7 -22 -292 l-3 -293
-5 295 -5 295 -5 -295 c-3 -171 -6 -239 -7 -162 -3 117 -6 132 -21 133 -14 0
-14 2 3 8 20 8 20 8 0 13 -16 5 -17 6 -2 7 12 1 17 10 17 30 0 20 -6 31 -17
34 -17 4 -17 5 0 6 16 1 18 10 16 74 -2 55 -6 74 -18 79 -14 6 -14 7 2 7 27 1
24 61 -3 61 -20 0 -20 -7 -20 -297z m23 267 c3 -11 1 -20 -4 -20 -5 0 -9 9 -9
20 0 11 2 20 4 20 2 0 6 -9 9 -20z m77 -265 c0 -157 -4 -285 -8 -285 -4 0 -8
128 -8 285 0 157 4 285 8 285 5 0 8 -128 8 -285z m50 130 c0 -85 -4 -155 -8
-155 -4 0 -8 70 -8 155 0 85 4 155 8 155 4 0 8 -70 8 -155z m43 135 c3 -11 1
-20 -4 -20 -5 0 -9 9 -9 20 0 11 2 20 4 20 2 0 6 -9 9 -20z m-176 -112 c-2
-13 -4 -3 -4 22 0 25 2 35 4 23 2 -13 2 -33 0 -45z m176 1 c-3 -84 -13 -88
-13 -6 0 37 4 67 8 67 4 0 7 -28 5 -61z m-176 -61 c-3 -7 -5 -2 -5 12 0 14 2
19 5 13 2 -7 2 -19 0 -25z m0 -70 c-3 -7 -5 -2 -5 12 0 14 2 19 5 13 2 -7 2
-19 0 -25z m176 12 c-3 -11 -7 -20 -9 -20 -2 0 -4 9 -4 20 0 11 4 20 9 20 5 0
7 -9 4 -20z m4 -45 c0 -8 -4 -15 -9 -15 -4 0 -8 7 -8 15 0 8 4 15 8 15 5 0 9
-7 9 -15z m-180 -57 c-3 -7 -5 -2 -5 12 0 14 2 19 5 13 2 -7 2 -19 0 -25z
m132 -23 c-1 -30 -5 -55 -10 -55 -4 0 -8 25 -8 55 1 30 5 55 10 55 4 0 8 -25
8 -55z m43 0 c0 -26 -3 -49 -6 -52 -3 -4 -6 20 -6 52 0 32 3 56 6 53 3 -4 6
-27 6 -53z m-175 -47 c-3 -7 -5 -2 -5 12 0 14 2 19 5 13 2 -7 2 -19 0 -25z m5
-68 c-2 -16 -6 -30 -8 -30 -2 0 -4 14 -4 30 0 17 4 30 8 30 5 0 7 -13 4 -30z
m128 -10 c0 -22 -4 -40 -8 -40 -5 0 -9 18 -9 40 0 22 4 40 9 40 4 0 8 -18 8
-40z m45 0 c0 -22 -3 -40 -7 -40 -5 0 -8 18 -8 40 0 22 3 40 8 40 4 0 7 -18 7
-40z m-45 -60 c0 -5 -4 -10 -10 -10 -5 0 -10 5 -10 10 0 6 5 10 10 10 6 0 10
-4 10 -10z"/>
<path d="M1898 2283 c17 -2 47 -2 65 0 17 2 3 4 -33 4 -36 0 -50 -2 -32 -4z"/>
<path d="M1592 2180 l3 -90 43 0 c23 0 42 -4 42 -10 0 -5 -19 -10 -42 -10 -42
0 -43 -1 -44 -35 0 -35 0 -35 43 -35 30 0 42 -4 37 -11 -4 -7 -24 -9 -56 -6
-30 4 -46 2 -43 -3 4 -6 30 -10 58 -10 30 0 47 -4 39 -8 -7 -5 -35 -7 -62 -5
-28 1 -50 -2 -50 -7 0 -5 28 -11 63 -13 l62 -3 -72 -2 c-66 -2 -73 -4 -73 -22
0 -19 6 -20 79 -19 l78 1 -5 89 c-4 81 -3 93 23 144 62 128 164 124 232 -8 23
-47 25 -59 21 -138 l-5 -86 104 1 105 1 1 62 c2 50 6 67 25 85 l22 22 23 -22
c18 -18 22 -35 24 -85 l1 -62 61 -3 c59 -3 61 -2 61 23 0 16 -6 25 -15 25 -8
0 -15 -4 -15 -10 0 -5 -16 -10 -36 -10 -24 0 -34 4 -31 13 2 6 19 12 38 12
l34 0 3 143 3 142 -146 0 -145 0 0 -114 0 -115 43 -9 c39 -9 39 -10 10 -11
-26 -1 -30 -4 -26 -21 3 -11 9 -20 14 -20 5 0 9 -8 8 -17 0 -11 -3 -13 -6 -5
-3 8 -30 13 -76 14 l-72 2 63 3 c34 2 62 8 62 14 0 6 -20 8 -48 5 -26 -2 -55
0 -63 5 -9 6 3 9 38 9 28 0 54 4 58 10 3 5 -13 7 -43 3 -32 -3 -52 -1 -56 6
-5 7 6 11 33 11 40 0 41 1 41 35 0 34 -1 35 -40 35 -22 0 -40 5 -40 10 0 6 18
10 40 10 l40 0 0 90 0 90 -235 0 -235 0 2 -90z m218 76 c0 -2 -20 -16 -44 -30
-31 -18 -50 -39 -67 -75 -21 -43 -27 -49 -54 -48 l-30 2 -1 70 c-1 39 0 73 3
78 4 7 193 10 193 3z m220 -8 c0 -10 2 -10 8 0 6 8 9 2 9 -17 0 -19 -4 -28
-11 -24 -6 4 -5 0 2 -9 7 -9 12 -34 11 -56 -3 -35 -5 -39 -31 -40 -29 -1 -63
33 -51 51 3 6 1 7 -5 3 -7 -4 -12 -3 -12 2 0 13 -72 82 -86 82 -7 0 -16 5 -19
10 -4 6 28 10 89 10 70 0 96 -3 96 -12z m308 -135 l3 -103 -26 0 c-14 0 -24 3
-24 8 3 17 -2 33 -8 29 -5 -2 -19 8 -33 22 -14 14 -21 23 -16 19 4 -3 21 -2
38 4 21 8 28 16 26 32 -3 21 -44 65 -63 67 -39 4 -52 2 -66 -11 -9 -8 -14 -19
-11 -24 3 -5 -1 -7 -9 -4 -20 8 -17 -32 4 -62 15 -22 22 -21 18 2 0 4 6 5 14
2 19 -8 19 -10 -2 -32 -10 -10 -23 -27 -28 -37 -8 -13 -17 -16 -33 -11 -21 7
-22 13 -22 101 0 66 4 95 13 98 6 2 59 4 117 3 l105 -1 3 -102z m-70 30 l24
-28 -36 -3 c-20 -2 -52 -2 -72 0 l-36 3 22 28 c14 17 31 27 48 27 16 0 35 -10
50 -27z m-605 -104 c7 -24 -17 -36 -38 -19 -18 15 -10 35 14 37 11 1 21 -7 24
-18z m377 -3 c0 -19 -4 -23 -20 -19 -30 8 -25 43 7 43 7 0 13 -11 13 -24z
m305 -46 c4 -6 -8 -10 -30 -10 -22 0 -34 4 -30 10 3 6 17 10 30 10 13 0 27 -4
30 -10z"/>
<path d="M748 2193 c6 -2 18 -2 25 0 6 3 1 5 -13 5 -14 0 -19 -2 -12 -5z"/>
<path d="M378 2153 c7 -3 16 -2 19 1 4 3 -2 6 -13 5 -11 0 -14 -3 -6 -6z"/>
<path d="M1770 2124 c0 -8 5 -12 10 -9 6 4 8 11 5 16 -9 14 -15 11 -15 -7z"/>
<path d="M1838 2133 c7 -3 16 -2 19 1 4 3 -2 6 -13 5 -11 0 -14 -3 -6 -6z"/>
<path d="M372 2118 c-7 -7 -12 -16 -12 -21 0 -5 7 -1 16 8 9 9 14 18 12 20 -2
3 -10 -1 -16 -7z"/>
<path d="M620 2090 c0 -5 5 -10 11 -10 5 0 7 5 4 10 -3 6 -8 10 -11 10 -2 0
-4 -4 -4 -10z"/>
<path d="M1750 2089 c0 -5 5 -7 10 -4 6 3 10 8 10 11 0 2 -4 4 -10 4 -5 0 -10
-5 -10 -11z"/>
<path d="M1780 2086 c0 -9 5 -16 10 -16 6 0 10 4 10 9 0 6 -4 13 -10 16 -5 3
-10 -1 -10 -9z"/>
<path d="M1905 2090 c-3 -5 -1 -10 4 -10 6 0 11 5 11 10 0 6 -2 10 -4 10 -3 0
-8 -4 -11 -10z"/>
<path d="M1880 2040 c0 -5 7 -10 16 -10 8 0 12 5 9 10 -3 6 -10 10 -16 10 -5
0 -9 -4 -9 -10z"/>
<path d="M1725 2030 c-3 -5 1 -10 9 -10 9 0 16 5 16 10 0 6 -4 10 -9 10 -6 0
-13 -4 -16 -10z"/>
<path d="M1112 1992 c-7 -14 -12 -32 -12 -39 0 -7 -4 -13 -9 -13 -4 0 -5 -18
-1 -40 7 -37 5 -42 -23 -62 -16 -12 -38 -41 -49 -64 -10 -24 -22 -45 -27 -48
-4 -3 -6 -37 -3 -76 2 -39 1 -82 -2 -96 -6 -24 -8 -24 -116 -24 -62 0 -111 -4
-115 -10 -9 -14 -422 -13 -430 0 -5 8 -11 7 -21 -1 -8 -6 -23 -9 -34 -6 -13 3
-26 -3 -39 -19 -23 -29 -31 -30 -31 -4 0 18 -4 20 -34 14 -19 -3 -41 -2 -48 3
-9 5 2 10 31 13 54 6 60 18 28 56 -14 16 -27 38 -30 49 -4 18 -5 17 -6 -3 0
-13 -11 -32 -23 -41 -28 -23 -30 -42 -35 -353 -3 -239 -2 -267 12 -262 8 3 15
12 15 20 0 7 8 18 18 23 21 11 52 -3 52 -24 0 -22 33 -18 48 5 16 27 62 27 69
0 7 -26 29 -26 36 0 3 14 14 20 32 20 18 0 29 -6 32 -20 7 -26 39 -26 46 0 8
32 55 27 69 -7 l11 -28 6 25 c5 19 13 25 36 25 21 0 33 -7 42 -25 12 -24 13
-24 13 -3 0 16 8 25 25 29 28 7 55 -10 55 -35 0 -10 5 -7 13 9 9 18 21 25 42
25 23 0 31 -6 36 -25 l6 -25 12 28 c9 23 16 28 38 25 19 -2 29 -10 34 -28 l6
-25 11 28 c14 33 61 39 69 8 8 -30 33 -35 33 -7 0 49 62 63 68 16 5 -35 22
-50 22 -20 0 36 14 52 41 48 20 -2 24 -9 24 -39 0 -45 22 -42 27 4 2 26 8 33
30 35 31 4 39 -13 33 -78 -2 -25 -4 -55 -4 -66 -1 -13 -16 -31 -40 -47 -50
-34 -60 -62 -31 -89 l22 -21 30 30 c19 19 24 30 14 30 -8 0 -20 -12 -26 -26
l-12 -26 -10 22 c-9 19 -5 27 27 57 35 34 38 35 61 19 24 -15 35 -31 12 -17
-7 4 -8 3 -4 -5 4 -6 11 -9 15 -6 5 2 17 -2 27 -10 17 -12 17 -15 4 -29 -13
-13 -19 -14 -41 -2 -24 12 -28 11 -53 -16 -14 -16 -24 -33 -21 -38 12 -20 -31
4 -53 29 -15 17 -22 20 -18 9 3 -10 0 -20 -5 -24 -7 -4 -10 7 -8 29 2 20 0 39
-4 43 -4 4 -7 -37 -7 -92 0 -77 -4 -105 -17 -124 -9 -13 -16 -39 -15 -57 l3
-33 -196 0 -195 0 0 -30 0 -30 190 0 190 0 1 28 c1 24 2 23 8 -8 7 -37 0 -101
-7 -67 -3 15 -21 17 -193 17 l-189 0 0 -35 c0 -21 5 -35 13 -35 8 0 7 -4 -3
-10 -10 -7 7 -10 57 -10 70 0 73 1 79 27 5 19 2 30 -11 40 -17 12 -17 13 -2
13 9 0 17 -4 17 -10 0 -5 9 -10 20 -10 31 0 28 -50 -2 -51 -18 -1 -19 -2 -5
-6 10 -3 25 1 34 9 12 9 15 9 9 1 -5 -9 1 -13 23 -13 16 0 32 6 34 13 4 9 6 9
6 0 1 -8 14 -13 31 -13 23 0 31 5 36 25 4 14 1 32 -6 40 -10 12 -7 12 19 -1
17 -9 31 -22 31 -30 0 -8 6 -14 13 -14 9 0 12 12 11 38 l-3 37 8 -35 8 -35 2
33 c0 17 6 32 11 32 6 0 10 28 10 64 0 59 -2 65 -22 69 l-23 4 23 2 c16 1 23
7 21 19 -1 9 0 42 1 72 l3 55 8 -50 7 -50 -2 63 c-1 34 1 57 6 50 12 -20 10
-116 -4 -120 -7 -3 -8 -10 -2 -21 9 -15 12 -16 32 -1 12 8 20 20 17 25 -3 5 1
6 10 3 11 -5 13 -10 5 -19 -8 -9 -8 -15 0 -20 5 -3 10 -2 10 4 0 5 8 8 18 6 9
-2 17 -4 17 -5 0 -1 9 -3 20 -5 16 -3 15 0 -7 16 -25 18 -28 27 -28 74 0 30 5
57 11 61 8 4 10 -12 7 -55 -3 -61 4 -75 35 -67 6 1 8 1 4 -2 -9 -4 11 -32 23
-32 14 0 21 33 9 41 -24 15 -22 129 2 129 6 0 9 -7 5 -15 -3 -8 -1 -15 5 -15
7 0 9 -26 7 -70 -3 -69 -2 -70 22 -71 23 -2 24 -2 3 -6 -30 -6 -32 -43 -3 -43
16 0 20 -7 20 -30 0 -23 -4 -30 -20 -30 -11 0 -20 -7 -20 -15 0 -8 9 -15 20
-15 25 0 28 -45 3 -54 -18 -7 -33 9 -33 35 0 8 -10 25 -23 37 -18 17 -26 19
-35 10 -19 -19 -14 -28 13 -28 18 0 25 -5 25 -20 0 -11 -4 -20 -10 -20 -5 0
-10 8 -10 17 0 9 -3 13 -7 10 -3 -4 -6 -20 -5 -37 0 -16 -4 -30 -9 -30 -5 0
-9 18 -9 39 0 35 -2 38 -20 34 -14 -4 -30 3 -45 17 -20 19 -27 21 -40 10 -13
-11 -15 -10 -12 8 2 12 7 25 12 29 4 5 5 2 0 -6 -6 -10 -4 -12 4 -6 8 4 24 -4
42 -21 24 -23 31 -26 42 -14 10 10 9 12 -5 7 -10 -4 -18 -2 -18 4 0 6 8 9 18
7 11 -2 26 3 35 11 15 12 19 10 36 -10 l19 -23 6 30 c4 17 3 42 -3 55 -11 30
-39 55 -49 44 -4 -4 -1 -10 6 -12 7 -3 17 -14 24 -26 10 -21 10 -21 -7 -7 -17
14 -18 14 -6 -7 7 -15 8 -23 2 -23 -6 0 -14 12 -17 27 -10 40 -43 64 -69 50
-11 -6 -22 -10 -25 -9 -3 1 -6 -2 -6 -8 -1 -5 -3 -12 -4 -15 -3 -6 -7 -21 -9
-33 -1 -11 -31 -11 -31 -1 0 4 6 10 13 12 10 4 10 6 0 6 -7 1 -13 6 -13 12 0
6 7 8 17 5 10 -4 14 -4 10 0 -4 4 -2 13 4 21 15 17 -1 16 -24 -1 -15 -11 -18
-26 -16 -70 1 -31 0 -59 -4 -63 -4 -3 -7 -14 -7 -23 0 -9 -9 -25 -20 -35 -11
-10 -21 -30 -21 -44 -1 -17 -3 -20 -6 -9 -4 16 -22 18 -199 18 l-194 0 0 -95
c0 -57 -4 -95 -10 -95 -5 0 -10 22 -10 49 0 45 -2 49 -27 54 -15 3 -42 3 -60
0 -31 -5 -32 -8 -36 -57 -3 -40 -4 -35 -5 25 -2 75 -2 76 -27 74 -23 -3 -25 0
-25 41 0 37 3 44 20 44 25 0 26 -17 3 -23 -14 -4 -12 -5 5 -6 20 -1 22 4 22
43 0 41 -1 43 -25 38 -24 -4 -25 -2 -25 42 0 39 3 46 20 46 13 0 20 7 20 20 0
11 -4 20 -10 20 -16 0 -50 -38 -50 -56 0 -12 -4 -14 -13 -7 -6 5 -22 10 -34
11 -20 1 -21 -2 -12 -25 5 -15 7 -34 3 -42 -5 -11 -9 -3 -13 24 -5 34 -10 40
-32 43 -23 3 -26 0 -22 -22 6 -32 23 -34 24 -3 0 22 0 22 10 -2 13 -33 8 -43
-25 -47 -27 -3 -28 -1 -22 31 5 27 3 36 -12 44 -11 6 -22 18 -26 26 -3 9 -2
14 3 10 5 -3 19 7 30 21 12 15 21 21 21 13 0 -9 13 -15 35 -16 19 -2 35 1 35
6 0 14 29 21 36 9 5 -7 2 -8 -7 -3 -8 4 -5 -1 6 -12 18 -18 22 -18 47 -4 16 9
23 20 18 25 -5 5 -4 16 3 27 14 22 -3 43 -78 95 l-53 36 -62 -42 c-34 -23 -63
-47 -65 -53 -2 -7 -5 -38 -8 -69 -3 -51 -1 -58 15 -58 15 0 18 -8 18 -45 0
-38 -3 -45 -20 -45 -17 0 -20 7 -20 39 0 45 -8 71 -21 71 -6 0 -5 -9 1 -20 7
-12 7 -20 1 -20 -17 0 -19 13 -22 103 l-3 87 -36 0 -36 0 -3 -87 c-1 -49 -6
-92 -11 -97 -5 -4 -6 26 -3 69 5 59 3 79 -8 87 -11 7 -11 11 -1 15 6 2 12 13
12 24 0 10 -6 19 -12 19 -10 0 -10 2 0 9 9 5 11 17 6 36 l-7 29 -10 -25 c-11
-27 -11 -119 -1 -251 l6 -88 68 0 c72 0 91 -13 70 -48 -8 -14 -9 -12 -10 11 0
27 -1 27 -65 27 l-65 0 0 -75 0 -75 65 0 c61 0 65 2 65 23 1 20 2 20 11 5 5
-10 9 -26 7 -35 -2 -12 4 -19 20 -21 19 -3 22 -9 22 -48 0 -40 -2 -44 -24 -44
-21 0 -24 4 -22 27 2 15 11 30 22 34 17 7 17 8 2 8 -10 1 -18 6 -18 12 0 5 -4
8 -9 5 -5 -4 -11 -2 -13 4 -1 5 -31 12 -65 14 l-63 3 0 -58 0 -59 1138 0 1137
0 0 140 0 140 -62 0 -62 0 -3 -37 -4 -38 -10 45 c-8 39 -13 45 -33 42 -21 -3
-22 0 -19 40 3 38 6 43 26 42 16 0 21 4 17 13 -3 8 -5 38 -5 67 0 53 0 53 -55
92 -48 34 -55 43 -53 70 1 18 -4 39 -11 48 -13 15 -16 15 -31 1 -25 -22 -15
-64 13 -59 13 3 16 2 7 -2 -8 -4 -43 -27 -77 -52 l-63 -46 0 -57 c0 -33 -5
-61 -12 -65 -7 -4 -8 -3 -4 4 4 7 2 12 -3 12 -6 0 -11 -7 -11 -15 0 -13 7 -15
35 -9 l35 6 0 -46 c0 -42 -2 -46 -25 -46 -21 0 -25 -5 -25 -29 0 -25 3 -28 25
-23 16 3 24 10 23 21 -3 14 8 16 80 14 46 -1 82 2 82 8 0 5 -7 9 -15 9 -16 0
-18 23 -5 55 6 17 9 14 15 -18 7 -37 34 -63 51 -49 5 4 0 -4 -11 -18 -11 -14
-26 -29 -33 -33 -9 -6 -11 -19 -7 -37 3 -16 2 -31 -4 -35 -16 -9 -23 18 -13
46 8 21 6 26 -14 36 -13 6 -22 8 -19 3 3 -4 -7 -10 -20 -13 -14 -2 -28 0 -32
6 -3 5 -2 7 3 4 6 -3 16 -1 24 4 12 7 10 8 -7 6 -11 -2 -27 -8 -35 -15 -11 -9
-17 -9 -26 0 -9 9 -12 1 -12 -34 0 -41 -2 -45 -22 -44 -20 1 -23 -5 -26 -41
-3 -39 -1 -43 20 -42 17 1 18 3 6 6 -10 2 -18 9 -18 14 0 6 8 9 18 7 12 -2 18
-15 20 -46 3 -41 2 -42 -26 -40 -16 1 -29 8 -29 15 0 6 4 10 9 7 4 -3 8 2 8
11 0 9 -4 13 -10 10 -6 -4 -10 6 -10 23 0 25 -4 30 -32 34 -18 3 -47 3 -65 1
-31 -5 -32 -7 -36 -57 -2 -29 -4 -9 -5 47 l-2 97 -196 0 -197 0 5 -67 c3 -38
2 -81 -2 -98 -5 -19 -8 10 -9 78 -1 64 -5 107 -11 107 -5 0 -10 5 -10 11 0 5
10 3 22 -5 28 -20 168 -22 186 -4 9 9 12 9 12 0 0 -7 13 -12 31 -12 21 0 28 4
23 13 -6 10 -4 10 7 0 7 -7 34 -13 59 -13 25 0 52 6 59 13 11 10 13 10 7 0 -4
-7 -2 -13 3 -13 6 0 11 20 11 45 l0 45 -190 0 c-145 0 -190 -3 -190 -12 0 -9
-4 -8 -10 2 -25 38 -17 40 191 40 l200 0 -3 28 -3 27 -192 3 -193 2 0 33 c0
18 -6 41 -14 52 -7 11 -16 62 -20 115 l-6 95 -49 45 c-42 38 -50 52 -55 93 -3
26 -2 47 3 47 5 0 11 9 14 20 8 32 55 27 69 -7 l11 -28 6 25 c4 16 15 26 29
28 25 4 55 -15 47 -28 -3 -5 -1 -11 5 -15 5 -3 10 3 10 14 0 14 9 23 25 27 28
7 55 -10 55 -35 0 -10 5 -7 13 9 8 16 23 26 39 28 22 3 29 -2 34 -24 l7 -27
14 27 c19 36 64 33 74 -4 l6 -25 11 28 c14 34 61 39 69 7 7 -26 29 -26 43 0
14 27 60 27 67 0 7 -26 29 -26 36 0 7 27 53 27 69 0 15 -23 48 -27 48 -5 0 21
32 35 53 24 9 -6 17 -17 17 -24 0 -8 7 -15 15 -15 12 0 15 16 15 80 l0 80 -66
0 c-36 0 -63 -4 -60 -9 3 -5 29 -8 56 -7 28 2 53 -1 56 -6 3 -4 1 -8 -5 -8 -5
0 -12 -10 -14 -22 l-4 -23 -2 23 c-1 26 -18 29 -24 5 -4 -17 -5 -17 -6 0 -1
22 -18 22 -24 0 -4 -17 -5 -17 -6 0 0 9 -5 17 -11 17 -5 0 -10 -25 -10 -56 0
-34 -4 -53 -10 -49 -5 3 -10 22 -10 41 0 27 -4 34 -20 34 -13 0 -20 7 -20 18
0 10 -5 23 -12 30 -7 7 -10 12 -7 13 2 0 12 2 22 4 15 3 16 1 6 -11 -9 -11 -8
-14 4 -14 8 0 17 -6 20 -12 8 -23 15 -4 10 25 -4 18 -12 27 -24 27 -12 0 -19
7 -19 20 0 12 7 20 18 20 14 0 15 -2 2 -10 -13 -8 -13 -10 2 -10 31 0 30 20
-1 31 -17 6 -31 14 -31 19 0 4 -9 10 -21 13 -12 3 -18 10 -15 16 9 14 -7 21
-24 10 -10 -6 -11 -9 -2 -9 6 0 12 -5 12 -11 0 -5 -4 -7 -10 -4 -5 3 -10 2
-10 -3 0 -12 29 -24 41 -16 5 3 9 0 9 -5 0 -6 -9 -11 -19 -11 -24 0 -51 36
-46 61 2 10 0 19 -6 19 -5 0 -9 7 -9 15 0 22 21 18 27 -5 3 -11 9 -20 14 -20
5 0 9 9 9 20 0 12 7 20 18 20 12 0 14 2 4 8 -13 9 -6 42 8 42 15 0 22 -40 10
-55 -6 -7 -10 -22 -8 -32 4 -24 47 -65 62 -58 6 3 18 8 28 11 20 7 30 52 17
77 -6 10 -6 24 -1 33 7 13 11 9 16 -19 4 -20 4 -47 0 -61 -4 -16 -2 -26 5 -26
6 0 11 9 11 21 0 12 4 17 11 14 6 -4 8 -13 5 -21 -3 -8 -1 -14 4 -14 5 0 11 8
13 18 4 16 5 16 6 0 0 -10 6 -18 12 -18 5 0 8 -4 5 -9 -3 -5 -26 -7 -51 -6
-25 2 -47 -1 -51 -6 -3 -5 21 -9 55 -9 l61 0 0 81 0 81 -70 -4 c-67 -4 -70 -3
-70 19 0 16 -6 23 -20 23 -13 0 -20 7 -20 20 0 25 18 26 35 3 12 -16 12 -14 8
10 -3 16 -1 27 6 27 6 0 11 -16 11 -35 l0 -35 58 -2 57 -1 -65 -7 -65 -7 69
-1 68 -2 -6 68 c-10 113 -12 122 -33 145 -12 12 -23 31 -26 42 -4 18 -5 18 -6
1 0 -10 -12 -32 -27 -48 -14 -17 -23 -37 -20 -44 3 -8 1 -26 -5 -41 l-10 -26
-15 21 c-10 14 -26 22 -44 22 -16 0 -32 5 -36 11 -4 8 -9 8 -17 0 -14 -14
-423 -15 -432 -1 -4 6 -53 10 -115 10 -108 0 -110 0 -116 24 -3 14 -4 57 -1
96 2 46 0 76 -7 83 -7 7 -18 27 -25 45 -8 18 -29 45 -47 59 -19 14 -31 29 -28
34 3 5 0 9 -5 9 -17 0 -13 32 7 46 10 8 12 13 5 14 -7 0 -13 6 -13 14 0 7 -6
25 -13 39 l-13 24 -12 -25z m28 -52 c0 -5 -7 -7 -15 -4 -8 4 -15 8 -15 10 0 2
7 4 15 4 8 0 15 -4 15 -10z m-33 -52 c-3 -7 -5 -2 -5 12 0 14 2 19 5 13 2 -7
2 -19 0 -25z m20 -5 c-3 -10 -5 -4 -5 12 0 17 2 24 5 18 2 -7 2 -21 0 -30z
m12 -54 c-6 -12 -5 -20 3 -25 6 -4 8 -3 4 4 -4 7 2 10 14 9 13 -1 23 -11 27
-25 4 -18 8 -21 14 -10 12 19 11 0 -2 -23 -5 -11 -14 -17 -20 -14 -5 4 -8 1
-7 -6 4 -17 -81 -32 -99 -18 -10 9 -13 8 -13 -5 0 -13 12 -16 64 -16 60 0 64
2 70 25 4 14 11 25 16 25 13 0 13 -6 -2 -30 -14 -22 -3 -39 14 -22 9 9 9 12
-1 12 -7 0 -9 5 -6 10 11 17 24 11 20 -10 -2 -11 0 -20 6 -20 5 0 9 -7 9 -16
0 -12 -7 -15 -25 -12 -24 5 -25 3 -25 -48 0 -52 1 -54 28 -54 17 0 22 -3 15
-8 -9 -6 -7 -12 7 -25 11 -9 20 -24 20 -33 0 -15 2 -15 21 2 19 17 21 18 30 1
13 -22 48 -22 65 1 10 13 15 14 25 5 6 -6 19 -9 28 -6 14 4 14 3 1 -6 -12 -9
-11 -11 8 -11 15 0 21 4 16 12 -4 6 -3 8 4 4 6 -3 14 -2 17 4 5 8 11 7 21 -1
8 -6 14 -8 14 -4 0 4 7 2 15 -5 8 -7 21 -10 30 -6 8 3 14 1 12 -3 -1 -5 1 -9
6 -10 19 -3 28 0 24 7 -3 4 12 7 33 7 21 1 36 -3 34 -7 -5 -7 3 -10 24 -7 4 1
6 4 5 8 -1 3 14 6 32 6 18 0 33 -3 32 -6 -1 -4 1 -7 6 -8 19 -3 28 0 23 7 -2
4 14 6 37 5 22 -1 47 3 54 9 10 8 12 7 7 -6 -3 -9 -17 -16 -30 -16 -20 0 -24
-5 -24 -27 0 -20 3 -24 9 -14 11 16 31 6 31 -16 0 -11 -7 -14 -23 -11 -20 4
-22 1 -19 -30 3 -24 7 -30 13 -21 8 12 11 11 19 -1 19 -30 12 -39 -22 -28 -32
10 -33 11 -30 59 l4 49 -276 0 -276 0 0 -64 c0 -48 4 -65 15 -70 8 -3 15 -12
15 -21 0 -17 16 -20 25 -5 8 14 -13 50 -28 47 -7 -1 -12 4 -12 12 0 8 9 15 21
16 16 1 23 -7 31 -37 6 -21 7 -38 2 -38 -15 0 -5 -42 12 -51 23 -12 49 -1 49
20 0 14 -2 14 -10 1 -8 -13 -11 -13 -27 3 -16 16 -16 17 10 17 32 0 36 16 7
25 -11 3 -20 10 -20 15 0 4 9 6 20 3 11 -3 20 0 20 6 0 6 -9 11 -21 11 -12 0
-19 5 -16 13 2 6 12 12 23 12 12 0 18 7 16 16 -4 25 23 43 38 25 13 -17 6 -36
-14 -36 -19 0 -19 -127 0 -134 10 -4 14 11 16 62 3 56 6 67 20 64 9 -1 19 2
23 8 3 5 -2 10 -12 10 -15 0 -15 2 -3 9 8 6 17 8 22 5 4 -3 15 7 24 21 18 28
44 34 44 10 0 -9 -9 -15 -21 -15 -15 0 -20 -5 -17 -22 2 -17 9 -23 26 -22 12
1 22 -4 22 -12 0 -8 -9 -14 -20 -14 -24 0 -35 -22 -25 -47 6 -16 8 -16 15 3
15 39 70 41 70 3 0 -10 7 -19 15 -19 21 0 19 26 -5 50 -20 20 -27 41 -12 39
29 -5 34 2 28 39 -3 20 -2 30 2 22 9 -19 42 -22 42 -4 0 8 9 14 20 14 11 0 20
-7 20 -15 0 -9 -9 -15 -21 -15 -15 0 -20 -5 -17 -22 2 -14 9 -22 19 -20 18 3
69 -51 69 -73 0 -8 5 -15 10 -15 6 0 10 6 10 13 0 8 9 22 21 33 24 22 38 8 33
-34 -4 -27 -4 -27 4 -2 5 17 10 21 16 12 4 -6 4 -17 1 -22 -3 -5 -1 -10 4 -10
20 0 11 -32 -9 -37 -11 -3 -20 -14 -20 -24 0 -12 7 -19 20 -19 11 0 20 -4 20
-10 0 -5 -9 -10 -20 -10 -17 0 -20 -6 -19 -37 1 -21 3 -30 6 -20 6 22 27 17
31 -6 2 -12 -3 -17 -17 -17 -17 0 -21 -6 -21 -35 0 -19 -5 -35 -11 -35 -6 0
-10 40 -9 113 2 179 1 194 -10 177 -5 -8 -10 -24 -10 -35 0 -14 -7 -21 -20
-22 -11 -1 -20 4 -20 11 0 17 -39 95 -40 79 0 -7 -7 -10 -15 -7 -8 4 -15 1
-15 -5 0 -6 7 -11 15 -11 8 0 15 -7 15 -15 0 -9 7 -29 15 -45 13 -25 19 -29
45 -23 17 3 30 2 30 -3 0 -5 -18 -10 -40 -11 -28 -2 -40 1 -40 11 0 8 -9 16
-21 19 -15 4 -23 0 -26 -14 -5 -19 -43 -28 -43 -9 0 5 6 7 14 4 19 -7 30 30
17 54 -7 13 -7 22 1 30 12 12 1 92 -13 92 -5 0 -9 -36 -9 -81 0 -78 -1 -80
-22 -77 -15 2 -25 12 -28 28 -6 27 -40 35 -48 11 -3 -8 0 -11 7 -7 7 4 11 -1
11 -13 0 -15 -5 -19 -20 -16 -14 3 -24 -3 -31 -19 -8 -16 -17 -22 -30 -19 -26
7 -36 25 -13 22 26 -5 44 9 44 32 0 13 -4 18 -12 13 -7 -5 -9 -2 -5 9 4 11 2
14 -9 10 -22 -8 -17 15 6 27 22 12 26 35 8 46 -8 5 -9 2 -5 -10 4 -10 3 -15
-3 -11 -6 3 -10 0 -10 -8 0 -10 -7 -13 -19 -10 -17 4 -19 1 -17 -23 3 -20 9
-29 20 -28 10 1 16 -6 16 -17 0 -11 -3 -18 -7 -18 -21 3 -33 -2 -33 -15 0 -19
-107 -17 -119 2 -4 7 -17 15 -27 16 -12 2 -19 11 -19 24 0 11 -3 24 -7 28 -5
4 -8 -11 -8 -33 0 -37 2 -41 23 -37 l22 5 -22 -12 c-19 -10 -23 -20 -23 -61 0
-32 4 -47 12 -46 7 2 14 -7 16 -19 2 -15 -2 -23 -12 -23 -9 0 -16 -12 -18 -32
-2 -18 -5 12 -6 67 -1 60 -6 101 -12 103 -6 2 -17 10 -25 19 -8 8 -19 12 -24
9 -14 -9 -41 22 -35 39 4 8 -1 18 -10 21 -18 7 -22 54 -5 54 5 0 7 -5 4 -10
-3 -6 3 -22 14 -36 12 -15 21 -34 21 -43 1 -15 2 -14 13 1 11 14 15 13 31 -15
11 -19 21 -27 23 -20 3 7 -3 20 -11 29 -20 20 -20 33 1 56 19 22 10 36 -12 18
-18 -15 -29 -7 -30 23 0 12 -6 21 -12 19 -15 -2 -17 14 -3 23 6 3 13 -1 17
-11 5 -14 8 -14 24 7 l19 24 0 -22 c0 -13 -6 -23 -13 -23 -8 0 -14 -7 -14 -15
0 -17 6 -18 25 -6 9 5 12 25 10 62 l-3 54 -47 1 c-29 0 -55 7 -66 17 -17 15
-19 15 -35 0 -11 -12 -30 -16 -62 -14 -44 2 -45 1 -45 -28 0 -18 10 -41 25
-57 25 -27 34 -64 14 -64 -5 0 -8 -4 -5 -9 3 -5 -1 -14 -10 -22 -29 -24 -36
-47 -16 -58 10 -6 27 -8 38 -5 15 4 19 13 18 42 -2 26 3 40 17 50 10 7 20 23
20 35 l2 22 4 -23 c2 -12 -3 -29 -11 -38 -12 -11 -16 -36 -16 -90 0 -48 -4
-74 -11 -74 -8 0 -10 12 -6 36 5 31 4 35 -11 29 -9 -4 -25 -7 -34 -7 -15 1
-18 -8 -18 -51 0 -31 -4 -47 -9 -41 -10 10 -19 134 -10 134 3 0 4 11 1 25 -2
14 -9 25 -14 25 -6 0 -3 11 6 25 9 14 12 25 7 25 -14 0 -23 32 -11 44 5 5 10
18 10 28 0 17 -17 18 -275 18 l-275 0 0 -157 c-1 -87 0 -184 0 -215 1 -35 -3
-58 -9 -58 -7 0 -11 29 -11 75 0 68 -2 75 -20 75 -13 0 -20 7 -20 19 0 10 -10
25 -22 34 -21 14 -21 15 -4 13 11 -2 22 -8 24 -14 2 -7 10 -12 17 -12 7 0 16
-6 18 -12 3 -7 6 4 6 24 1 32 -2 36 -20 33 -16 -3 -20 0 -17 18 1 12 -2 23 -7
24 -6 0 -9 -3 -8 -8 2 -5 -6 -9 -18 -9 -11 0 -17 5 -14 10 3 6 -1 10 -10 10
-9 0 -13 -4 -10 -10 3 -6 -4 -10 -17 -10 -22 1 -22 1 -4 15 10 7 16 18 12 23
-3 5 1 9 9 9 8 0 11 -5 8 -10 -4 -6 1 -8 11 -4 11 5 15 3 10 -4 -4 -7 -1 -10
7 -7 8 3 13 12 11 19 -1 8 11 -1 28 -19 l30 -32 0 75 c0 68 -2 75 -20 75 -13
0 -20 7 -20 20 0 25 27 27 33 3 3 -10 5 -3 6 16 1 29 -2 33 -19 28 -14 -4 -24
2 -32 16 -10 19 -9 20 3 10 8 -7 34 -11 56 -10 23 1 40 -1 37 -4 -5 -9 22 -19
30 -12 3 4 0 13 -6 22 -10 13 -10 14 2 4 18 -16 52 -17 67 -2 9 9 10 6 6 -10
-4 -17 -2 -20 11 -15 9 3 14 9 12 13 -3 4 13 7 34 6 21 0 36 -3 34 -6 -5 -9
22 -19 30 -12 3 4 0 13 -7 22 -11 14 -10 14 5 2 10 -7 25 -11 33 -7 8 3 19 6
23 7 4 0 12 5 18 10 7 6 16 4 24 -6 15 -18 55 -21 44 -2 -4 6 -4 9 1 5 4 -4
15 -2 23 4 11 10 17 9 27 -5 13 -17 61 -25 50 -7 -3 5 -13 7 -23 4 -14 -5 -14
-4 -2 4 9 7 18 7 26 1 8 -7 14 -6 17 3 4 10 9 9 20 -4 17 -22 27 -23 27 -3 0
8 9 23 20 32 14 13 16 19 7 25 -7 5 -2 8 16 8 26 0 27 2 27 51 0 46 -2 50 -22
47 -15 -2 -23 2 -23 12 0 8 10 16 23 18 12 2 22 10 22 17 0 19 -17 28 -23 13
-2 -7 -4 -1 -3 14 1 23 3 25 21 15 17 -9 18 -8 9 4 -17 20 27 84 45 66 7 -7
12 -7 11 -2 -5 24 1 34 19 32 15 -1 17 -5 10 -18z m-99 -225 c0 -17 -5 -24
-20 -24 -14 0 -20 7 -20 23 0 16 6 23 20 24 15 1 20 -4 20 -23z m210 -1 c0
-16 -6 -23 -20 -23 -15 0 -20 7 -20 24 0 19 5 24 20 23 14 -1 20 -8 20 -24z
m-1082 -53 c3 -9 -1 -11 -12 -7 -10 4 -15 3 -11 -3 3 -6 -1 -10 -9 -10 -19 0
-20 12 -4 28 14 14 30 11 36 -8z m1951 2 c8 -15 5 -18 -15 -20 -26 -2 -31 7
-12 26 15 15 16 15 27 -6z m21 -42 c0 -5 -16 -10 -35 -10 -19 0 -35 5 -35 10
0 6 16 10 35 10 19 0 35 -4 35 -10z m-1844 -30 c5 0 10 -6 12 -14 2 -9 -3 -16
-12 -16 -9 0 -16 7 -16 15 0 8 -4 15 -10 15 -5 0 -10 -4 -10 -10 0 -5 -7 -7
-16 -3 -12 4 -11 8 8 17 13 7 26 8 29 3 3 -5 10 -8 15 -7z m-106 1 c0 -10 -46
-18 -72 -13 -36 7 -17 22 27 22 25 0 45 -4 45 -9z m160 -19 c0 -15 -2 -15 -10
-2 -8 12 -10 12 -10 1 0 -8 -3 -12 -6 -8 -4 3 -4 13 0 22 7 20 26 10 26 -13z
m1580 4 c0 -7 -7 -13 -15 -13 -15 0 -20 18 -9 30 9 9 24 -2 24 -17z m40 -11
c0 -5 -5 -3 -10 5 -8 12 -10 12 -10 1 0 -8 -2 -12 -5 -9 -3 3 -2 13 1 22 5 14
9 15 15 4 5 -7 9 -17 9 -23z m41 17 c-7 -2 -18 1 -23 6 -8 8 -4 9 13 5 13 -4
18 -8 10 -11z m134 8 c-3 -5 -16 -10 -28 -10 -18 0 -19 -2 -7 -10 8 -5 11 -10
5 -10 -5 0 -21 9 -35 20 l-25 20 48 0 c30 0 46 -4 42 -10z m-1970 -31 c-5 -7
-54 -4 -61 4 -3 3 11 4 30 4 19 -1 33 -4 31 -8z m42 -54 c-2 -56 0 -63 11 -48
11 16 14 16 22 3 15 -23 12 -30 -10 -30 -23 0 -23 1 -22 -192 1 -71 -3 -130
-9 -133 -5 -4 -9 17 -9 49 0 31 -4 56 -10 56 -5 0 -11 -10 -11 -22 l-2 -23 -4
23 c-5 26 -22 30 -24 5 -1 -17 -2 -17 -6 0 -6 24 -23 22 -23 -4 0 -11 -4 -18
-10 -14 -5 3 -7 12 -3 20 3 8 0 15 -7 15 -6 0 -8 5 -4 11 4 8 9 7 15 -2 5 -8
9 -9 9 -3 0 7 16 10 40 8 22 -2 42 1 45 7 4 5 -20 10 -57 11 l-63 2 58 3 c53
4 57 6 57 28 0 22 -4 24 -57 28 l-58 3 63 2 c41 1 61 6 57 12 -4 6 -14 10 -23
9 -46 -4 -96 2 -83 10 7 5 11 13 7 19 -3 6 -2 13 4 17 5 3 10 -3 10 -14 0 -28
20 -27 21 2 l2 22 4 -22 c2 -13 9 -23 14 -23 5 0 10 10 10 23 l2 22 4 -22 c9
-47 23 -21 23 42 l0 64 -57 4 -58 3 65 4 65 3 -65 7 -65 7 58 1 57 2 0 35 c0
19 4 35 9 35 6 0 9 -29 8 -65z m93 24 c0 -28 -37 -25 -42 4 -4 20 -1 23 19 19
14 -3 23 -11 23 -23z m-52 -2 c2 -12 -3 -17 -17 -17 -23 0 -24 1 -15 25 8 19
28 15 32 -8z m99 3 c1 -14 -4 -20 -18 -20 -21 0 -22 1 -13 24 9 23 29 20 31
-4z m697 -23 l7 -28 -22 22 c-12 12 -18 27 -14 36 7 20 20 7 29 -30z m26 17
c0 -14 -4 -23 -10 -19 -5 3 -10 15 -10 26 0 10 5 19 10 19 6 0 10 -12 10 -26z
m124 7 c9 22 34 20 29 -2 -7 -24 -63 -32 -63 -9 0 25 13 33 21 13 6 -16 8 -16
13 -2z m726 -1 c0 -13 -7 -20 -20 -20 -19 0 -27 20 -13 33 13 14 33 6 33 -13z
m40 16 c0 -2 3 -11 6 -20 4 -11 0 -16 -14 -16 -15 0 -20 6 -19 20 1 11 7 20
14 20 7 0 13 -2 13 -4z m-1850 -22 c0 -8 -5 -12 -10 -9 -6 4 -8 11 -5 16 9 14
15 11 15 -7z m27 -6 c-3 -8 -6 -5 -6 6 -1 11 2 17 5 13 3 -3 4 -12 1 -19z m30
0 c-3 -8 -6 -5 -6 6 -1 11 2 17 5 13 3 -3 4 -12 1 -19z m1903 7 c0 -8 -2 -15
-4 -15 -2 0 -6 7 -10 15 -3 8 -1 15 4 15 6 0 10 -7 10 -15z m27 -7 c-3 -8 -6
-5 -6 6 -1 11 2 17 5 13 3 -3 4 -12 1 -19z m30 0 c-3 -8 -6 -5 -6 6 -1 11 2
17 5 13 3 -3 4 -12 1 -19z m-1647 -3 c0 -8 -9 -15 -20 -15 -11 0 -20 7 -20 15
0 8 9 15 20 15 11 0 20 -7 20 -15z m80 0 c0 -8 -9 -15 -20 -15 -11 0 -20 7
-20 15 0 8 9 15 20 15 11 0 20 -7 20 -15z m80 0 c0 -8 -9 -15 -20 -15 -11 0
-20 7 -20 15 0 8 9 15 20 15 11 0 20 -7 20 -15z m74 0 c4 -11 -1 -15 -19 -15
-24 0 -32 10 -18 23 11 12 31 8 37 -8z m75 -2 c0 -11 -3 -13 -6 -6 -3 10 -8
10 -19 -1 -8 -8 -14 -20 -14 -26 0 -6 -7 -13 -15 -16 -8 -4 -15 -14 -15 -23 0
-12 -8 -17 -22 -17 -13 1 -23 -3 -23 -9 0 -5 -6 -19 -12 -30 -11 -18 -12 -18
-13 -2 0 9 -8 17 -17 18 -12 0 -8 4 10 11 15 5 27 17 27 28 0 12 7 17 22 16
11 0 23 5 26 13 3 9 0 11 -9 7 -8 -4 -5 -1 5 6 10 7 26 21 35 31 8 9 21 17 28
17 7 0 13 -8 12 -17z m81 2 c0 -8 -9 -15 -20 -15 -11 0 -20 7 -20 15 0 8 9 15
20 15 11 0 20 -7 20 -15z m80 0 c0 -8 -9 -15 -20 -15 -11 0 -20 7 -20 15 0 8
9 15 20 15 11 0 20 -7 20 -15z m150 2 c0 -7 -6 -21 -13 -32 -11 -14 -16 -15
-22 -5 -5 9 -4 11 3 6 7 -4 14 3 18 19 7 27 14 33 14 12z m55 -45 c-2 -3 -7 3
-11 12 -3 9 -10 14 -14 11 -5 -3 -6 4 -3 15 5 19 6 19 19 -6 8 -15 12 -29 9
-32z m165 43 c0 -8 -9 -15 -20 -15 -11 0 -20 7 -20 15 0 8 9 15 20 15 11 0 20
-7 20 -15z m80 0 c0 -8 -9 -15 -20 -15 -11 0 -20 7 -20 15 0 8 9 15 20 15 11
0 20 -7 20 -15z m78 -2 c2 -8 -5 -13 -17 -13 -12 0 -21 6 -21 16 0 18 31 15
38 -3z m128 -10 c-10 -10 -19 5 -10 18 6 11 8 11 12 0 2 -7 1 -15 -2 -18z
m184 12 c0 -8 -9 -15 -20 -15 -11 0 -20 7 -20 15 0 8 9 15 20 15 11 0 20 -7
20 -15z m-1482 -24 c7 -1 10 -6 7 -11 -4 -7 -11 -7 -18 -2 -7 5 -20 8 -30 7
-9 -2 -15 0 -12 5 3 5 13 7 23 5 9 -2 23 -4 30 -4z m211 -5 c15 -18 -4 -26
-39 -15 -16 4 -19 7 -7 8 9 1 17 6 17 11 0 14 16 12 29 -4z m81 -6 c0 -5 -5
-12 -11 -16 -14 -8 -33 11 -25 25 7 11 36 4 36 -9z m71 3 c10 -11 10 -14 2 -9
-8 4 -13 2 -14 -6 0 -10 -2 -10 -6 0 -2 6 -10 9 -16 5 -7 -4 -6 1 2 10 7 9 15
17 16 17 1 0 9 -8 16 -17z m167 -3 c14 0 14 -2 3 -9 -7 -5 -21 -7 -30 -6 -9 2
-20 4 -26 5 -5 0 -1 7 10 16 12 9 21 11 23 4 2 -5 11 -10 20 -10z m62 -1 c0
-5 -7 -9 -15 -9 -9 0 -12 6 -9 15 6 15 24 11 24 -6z m463 8 c7 4 7 0 -1 -9
-14 -17 -42 -14 -42 4 0 5 5 6 10 3 6 -3 10 0 11 7 0 10 2 10 6 0 2 -6 10 -9
16 -5z m227 -8 c0 -5 -7 -9 -15 -9 -9 0 -12 6 -9 15 6 15 24 11 24 -6z m157 4
c6 -18 -25 -23 -39 -5 -9 11 -10 14 0 8 7 -4 12 -2 12 4 0 14 22 8 27 -7z
m139 10 c-10 -11 -37 -12 -30 -2 3 5 12 9 21 9 9 0 13 -3 9 -7z m46 -14 c-14
-10 -20 -23 -16 -33 4 -12 0 -16 -15 -16 -12 0 -21 5 -21 11 0 17 41 56 58 56
11 0 9 -5 -6 -18z m-1562 5 c0 -8 -19 -13 -24 -6 -3 5 1 9 9 9 8 0 15 -2 15
-3z m571 -29 c5 4 9 -3 9 -13 0 -15 -5 -19 -20 -15 -22 6 -23 8 -13 43 7 25 8
25 11 2 2 -12 8 -20 13 -17z m195 13 c4 -6 3 -8 -4 -4 -6 4 -12 -5 -15 -21 -4
-26 -4 -26 -6 5 -1 32 11 42 25 20z m-838 -21 c2 -12 -3 -17 -17 -17 -12 0
-21 6 -21 13 0 31 32 34 38 4z m46 7 c9 -23 8 -24 -14 -24 -11 0 -20 2 -20 4
0 12 13 36 20 36 4 0 11 -7 14 -16z m46 -4 c0 -11 -7 -20 -15 -20 -15 0 -21
21 -8 33 12 13 23 7 23 -13z m1620 10 c0 -5 7 -10 15 -10 23 0 21 -96 -2 -102
-10 -3 -24 -3 -30 -1 -19 7 -15 33 5 33 14 0 15 -2 2 -10 -13 -8 -12 -10 3
-10 12 0 17 8 17 25 0 27 -9 32 -28 13 -9 -9 -12 -9 -12 0 0 6 11 14 25 18 14
3 25 10 25 14 0 4 -11 5 -25 2 -24 -4 -35 14 -18 31 10 10 23 8 23 -3z m-1900
-15 c0 -8 -4 -15 -10 -15 -5 0 -7 7 -4 15 4 8 8 15 10 15 2 0 4 -7 4 -15z m27
-7 c-3 -8 -6 -5 -6 6 -1 11 2 17 5 13 3 -3 4 -12 1 -19z m30 0 c-3 -8 -6 -5
-6 6 -1 11 2 17 5 13 3 -3 4 -12 1 -19z m313 2 c0 -9 -8 -16 -20 -16 -12 0
-20 7 -20 16 0 9 8 16 20 16 12 0 20 -7 20 -16z m80 0 c0 -10 -8 -16 -20 -15
-39 3 -39 31 -1 31 13 0 21 -7 21 -16z m80 -1 c0 -12 -7 -15 -25 -11 -14 2
-25 11 -25 18 0 9 9 13 25 12 16 -2 25 -8 25 -19z m160 4 c0 -7 -8 -13 -18
-13 -27 0 -34 -11 -19 -28 10 -13 9 -14 -1 -8 -7 4 -15 1 -19 -9 -5 -16 -7
-16 -16 0 -7 13 -5 20 7 27 9 5 16 17 16 26 0 13 8 18 25 18 14 0 25 -6 25
-13z m97 4 c2 -3 -10 -10 -27 -17 -21 -9 -30 -19 -30 -36 0 -13 5 -24 10 -24
6 0 10 6 10 14 0 22 27 38 50 31 16 -5 20 -13 17 -27 -4 -14 -1 -18 8 -14 19
7 27 -20 9 -34 -11 -10 -14 -10 -14 -1 0 7 -5 9 -11 5 -8 -5 -10 1 -7 20 3 14
1 29 -3 32 -5 3 -9 -1 -9 -8 0 -10 -2 -10 -9 1 -6 9 -11 10 -15 2 -4 -6 -4
-16 -1 -21 4 -6 1 -17 -5 -25 -11 -13 -7 -15 21 -15 24 0 30 -3 20 -9 -8 -5
-24 -6 -37 -1 -12 5 -25 6 -30 2 -4 -4 -4 -1 0 6 4 6 2 12 -3 12 -6 0 -11 12
-11 26 0 14 -4 23 -10 19 -5 -3 -10 -1 -10 5 0 6 -4 9 -9 5 -5 -3 -12 -1 -16
5 -5 9 15 15 38 11 4 0 7 10 7 23 0 22 4 24 31 21 18 -3 34 -6 36 -8z m173 -7
c0 -11 -4 -20 -10 -20 -5 0 -10 9 -10 20 0 11 5 20 10 20 6 0 10 -9 10 -20z
m106 11 c-3 -4 3 -16 14 -26 11 -10 17 -21 14 -26 -7 -11 -44 27 -44 46 0 8 5
15 11 15 5 0 8 -4 5 -9z m614 -7 c0 -14 -25 -26 -34 -17 -13 13 -5 29 14 29
11 0 20 -6 20 -12z m315 7 c3 -5 1 -12 -5 -16 -5 -3 -10 1 -10 9 0 18 6 21 15
7z m29 -6 c3 -8 1 -15 -4 -15 -6 0 -10 7 -10 15 0 8 2 15 4 15 2 0 6 -7 10
-15z m-1876 -46 c-10 -5 -14 -18 -10 -34 3 -18 0 -25 -11 -25 -22 0 -32 20
-10 21 10 0 13 3 6 6 -10 3 -8 11 5 28 9 13 21 21 26 18 5 -3 2 -10 -6 -14z
m260 12 c18 -11 -9 -34 -31 -25 -13 5 -14 9 -4 20 14 16 18 16 35 5z m1607 1
c6 -4 11 -13 13 -20 2 -10 -2 -10 -18 -2 -11 6 -20 15 -20 20 0 12 11 13 25 2z
m-1945 -11 c0 -4 -18 -8 -40 -9 -22 -2 -40 1 -40 6 0 5 18 10 40 10 22 0 40
-3 40 -7z m418 -3 c-3 -7 -11 -13 -18 -13 -7 0 -15 6 -17 13 -3 7 4 12 17 12
13 0 20 -5 18 -12z m521 -25 c-1 -33 -2 -35 -8 -13 l-8 25 -5 -25 -5 -25 -2
26 c-1 21 14 49 26 49 2 0 3 -17 2 -37z m-76 6 c-6 -6 -9 -18 -6 -25 3 -8 -1
-14 -11 -14 -21 0 -20 26 2 39 23 14 29 14 15 0z m94 -26 c-3 -10 -5 -4 -5 12
0 17 2 24 5 18 2 -7 2 -21 0 -30z m-657 15 c0 -16 -6 -22 -22 -23 -10 -1 -18
5 -18 15 0 9 8 16 20 16 11 0 20 -4 20 -8z m80 -8 c0 -17 -36 -25 -45 -9 -9
14 1 25 24 25 12 0 21 -7 21 -16z m80 1 c0 -12 -7 -18 -22 -17 -30 1 -34 23
-6 29 13 2 24 5 26 6 1 0 2 -7 2 -18z m80 -1 c0 -10 -9 -16 -25 -16 -16 0 -25
6 -25 16 0 10 9 16 25 16 16 0 25 -6 25 -16z m73 11 c4 -1 7 -8 7 -16 0 -10
-9 -14 -25 -13 -16 2 -25 8 -25 19 0 11 6 16 18 14 9 -2 20 -4 25 -4z m-493
-21 c0 -5 -9 -10 -20 -10 -11 0 -20 5 -20 10 0 6 9 10 20 10 11 0 20 -4 20
-10z m50 0 c0 -5 -9 -10 -20 -10 -11 0 -20 5 -20 10 0 6 9 10 20 10 11 0 20
-4 20 -10z m160 -25 c0 -8 -7 -15 -15 -15 -16 0 -20 12 -8 23 11 12 23 8 23
-8z m88 2 c9 3 13 2 9 -2 -10 -12 -68 -15 -61 -4 3 5 10 7 15 4 5 -4 9 0 10 7
0 9 2 10 5 1 3 -7 13 -9 22 -6z m73 -1 c5 3 9 1 9 -4 0 -16 -28 -22 -33 -7 -3
7 -3 16 1 20 4 3 8 1 10 -4 2 -6 8 -9 13 -5z m73 -16 c-8 -8 -15 -6 -25 6 -9
12 -10 15 -1 10 7 -4 12 -2 12 5 0 10 3 10 12 1 8 -8 9 -15 2 -22z m79 4 c-4
-10 -9 -12 -15 -6 -12 12 -1 35 12 27 5 -3 6 -13 3 -21z m-563 6 c0 -5 -4 -10
-10 -10 -5 0 -10 5 -10 10 0 6 5 10 10 10 6 0 10 -4 10 -10z m50 0 c0 -5 -4
-10 -10 -10 -5 0 -10 5 -10 10 0 6 5 10 10 10 6 0 10 -4 10 -10z m864 -2 c-3
-4 -14 -8 -25 -8 -22 0 -42 -16 -52 -40 -3 -9 -6 -3 -6 13 -1 20 3 26 12 21 9
-6 9 -4 -1 8 -12 14 -8 16 32 16 25 -1 43 -5 40 -10z m424 1 c-18 -10 -68 -8
-68 3 0 4 19 6 42 6 29 0 37 -3 26 -9z m-1348 -39 c0 -13 -7 -20 -20 -20 -11
0 -20 5 -20 10 0 6 5 10 11 10 5 0 7 5 4 10 -3 6 1 10 9 10 9 0 16 -9 16 -20z
m40 10 c-10 -6 -11 -10 -2 -10 6 0 12 -4 12 -10 0 -5 -9 -10 -19 -10 -14 0
-19 6 -18 20 1 13 8 20 22 20 16 0 17 -2 5 -10z m53 3 c-9 -3 -7 -11 7 -26 24
-25 25 -37 4 -37 -10 0 -14 6 -10 15 3 10 -1 15 -14 15 -13 0 -18 6 -17 20 1
13 8 20 22 19 11 0 15 -3 8 -6z m137 -8 c0 -8 -9 -15 -20 -15 -11 0 -20 7 -20
15 0 8 9 15 20 15 11 0 20 -7 20 -15z m80 -2 c0 -7 -11 -13 -25 -13 -15 0 -25
6 -25 15 0 10 9 14 25 13 14 -1 25 -8 25 -15z m80 0 c0 -7 -11 -13 -25 -13
-15 0 -25 6 -25 15 0 10 9 14 25 13 14 -1 25 -8 25 -15z m80 2 c0 -9 -9 -15
-25 -15 -16 0 -25 6 -25 15 0 9 9 15 25 15 16 0 25 -6 25 -15z m80 0 c0 -9
-10 -15 -25 -15 -14 0 -25 6 -25 13 0 7 11 14 25 15 16 1 25 -3 25 -13z m80 0
c0 -9 -9 -15 -25 -15 -16 0 -25 6 -25 15 0 9 9 15 25 15 16 0 25 -6 25 -15z
m70 0 c0 -8 -9 -15 -20 -15 -11 0 -20 7 -20 15 0 8 9 15 20 15 11 0 20 -7 20
-15z m92 -20 c2 -11 12 -21 23 -21 11 -1 28 -2 38 -3 29 -2 12 -16 -22 -19
-20 -1 -31 2 -31 10 0 9 -3 10 -8 2 -4 -6 -14 -11 -23 -11 -15 0 -16 25 -3 66
6 18 21 4 26 -24z m138 16 c0 -11 -4 -23 -10 -26 -6 -4 -10 5 -10 19 0 14 5
26 10 26 6 0 10 -9 10 -19z m40 -7 c0 -8 -7 -14 -15 -14 -17 0 -18 2 -9 24 7
18 24 12 24 -10z m100 11 c0 -9 -9 -15 -25 -15 -18 0 -23 4 -19 15 4 8 15 15
25 15 10 0 19 -7 19 -15z m80 0 c0 -9 -9 -15 -25 -15 -16 0 -25 6 -25 15 0 9
9 15 25 15 16 0 25 -6 25 -15z m80 -2 c0 -7 -11 -13 -25 -13 -15 0 -25 6 -25
15 0 10 9 14 25 13 14 -1 25 -8 25 -15z m80 2 c0 -9 -10 -15 -25 -15 -14 0
-25 6 -25 13 0 7 11 14 25 15 16 1 25 -3 25 -13z m80 0 c0 -9 -10 -15 -25 -15
-14 0 -25 6 -25 13 0 7 11 14 25 15 16 1 25 -3 25 -13z m70 0 c0 -8 -9 -15
-20 -15 -11 0 -20 7 -20 15 0 8 9 15 20 15 11 0 20 -7 20 -15z m80 0 c0 -8 -9
-15 -20 -15 -11 0 -20 7 -20 15 0 8 9 15 20 15 11 0 20 -7 20 -15z m77 9 c-3
-3 -12 -4 -19 -1 -8 3 -5 6 6 6 11 1 17 -2 13 -5z m53 -14 c0 -13 -7 -20 -20
-20 -11 0 -20 5 -20 10 0 6 8 10 18 10 14 0 15 2 2 10 -13 8 -12 10 3 10 10 0
17 -8 17 -20z m37 14 c-3 -3 -12 -4 -19 -1 -8 3 -5 6 6 6 11 1 17 -2 13 -5z
m-1847 -20 c0 -8 -5 -12 -10 -9 -6 4 -8 11 -5 16 9 14 15 11 15 -7z m27 -6
c-3 -8 -6 -5 -6 6 -1 11 2 17 5 13 3 -3 4 -12 1 -19z m30 0 c-3 -8 -6 -5 -6 6
-1 11 2 17 5 13 3 -3 4 -12 1 -19z m950 -10 c-3 -8 -6 -5 -6 6 -1 11 2 17 5
13 3 -3 4 -12 1 -19z m48 -38 c3 -5 1 -10 -4 -10 -6 0 -11 7 -11 16 0 8 -4 13
-8 10 -4 -2 -9 7 -10 22 l-2 27 14 -27 c8 -16 18 -32 21 -38z m805 50 c0 -5
-9 -10 -20 -10 -11 0 -20 5 -20 10 0 6 9 10 20 10 11 0 20 -4 20 -10z m-730
-22 c0 -19 -6 -23 -29 -23 -16 0 -33 4 -37 8 -5 4 -1 5 8 2 10 -4 24 1 35 13
23 26 23 26 23 0z m-713 3 c18 -5 35 -6 37 -3 5 9 194 7 203 -2 7 -7 10 -6
-194 -9 -79 -1 -143 -1 -143 0 0 1 15 7 33 12 17 5 32 10 32 10 0 1 15 -3 32
-8z m376 0 c4 -1 7 -5 7 -9 0 -4 -29 -8 -65 -8 -36 1 -65 4 -65 8 0 13 28 15
123 9z m486 -7 c2 -2 -10 -4 -27 -5 -83 -3 -100 0 -57 11 27 6 73 3 84 -6z
m62 6 c6 0 7 -5 3 -11 -4 -8 -9 -8 -17 0 -7 7 -14 7 -24 0 -7 -7 -13 -7 -13
-2 0 16 13 24 28 18 7 -3 18 -5 23 -5z m63 4 c9 -3 16 -10 16 -14 0 -7 -21 -7
-60 -1 -4 1 21 20 27 21 1 0 8 -3 17 -6z m88 -4 c6 0 8 -3 4 -7 -9 -10 -56
-11 -56 -3 0 13 14 21 28 15 7 -3 19 -5 24 -5z m62 4 c25 -10 19 -20 -11 -18
-39 3 -40 3 -23 14 18 12 15 11 34 4z m86 -4 c16 -10 13 -12 -25 -12 -14 0
-28 1 -32 1 -11 2 19 21 32 21 6 0 17 -5 25 -10z m-1420 -4 c0 -9 -30 -14 -35
-6 -4 6 3 10 14 10 12 0 21 -2 21 -4z m1470 -6 c0 -5 -4 -10 -9 -10 -6 0 -13
5 -16 10 -3 6 1 10 9 10 9 0 16 -4 16 -10z m90 -6 c0 -2 -7 -4 -15 -4 -8 0
-15 4 -15 10 0 5 7 7 15 4 8 -4 15 -8 15 -10z m57 1 c5 -4 3 -5 -4 -2 -6 4
-13 2 -15 -4 -2 -7 -9 -5 -17 5 -12 14 -11 16 7 13 12 -2 25 -7 29 -12z
m-1699 -38 c2 -12 -3 -17 -17 -17 -23 0 -24 1 -15 25 8 19 28 15 32 -8z m50 0
c2 -12 -3 -17 -17 -17 -23 0 -24 1 -15 25 8 19 28 15 32 -8z m50 0 c2 -12 -3
-17 -17 -17 -12 0 -21 6 -21 13 0 31 32 34 38 4z m42 3 c0 -11 -7 -20 -15 -20
-15 0 -21 21 -8 33 12 13 23 7 23 -13z m88 -8 c2 -15 -2 -22 -12 -22 -11 0
-16 9 -16 26 0 31 23 28 28 -4z m40 0 c2 -15 -2 -22 -12 -22 -11 0 -16 9 -16
26 0 31 23 28 28 -4z m32 3 c0 -14 -4 -25 -10 -25 -5 0 -10 11 -10 25 0 14 5
25 10 25 6 0 10 -11 10 -25z m40 0 c0 -16 -6 -25 -15 -25 -8 0 -15 5 -15 10 0
6 4 10 10 10 5 0 7 7 4 15 -4 8 -1 15 5 15 6 0 11 -11 11 -25z m40 0 c0 -16
-6 -25 -15 -25 -15 0 -21 31 -8 43 13 14 23 6 23 -18z m38 -3 c2 -15 -2 -22
-12 -22 -11 0 -16 9 -16 26 0 31 23 28 28 -4z m28 13 c-3 -8 -1 -15 4 -15 19
0 25 5 22 18 -2 6 2 12 8 12 5 0 10 -11 10 -25 0 -21 -5 -25 -30 -25 -25 0
-30 4 -30 25 0 14 5 25 11 25 6 0 9 -7 5 -15z m84 -10 c0 -16 -6 -25 -15 -25
-15 0 -21 31 -8 43 13 14 23 6 23 -18z m38 -3 c2 -15 -2 -22 -12 -22 -11 0
-16 9 -16 26 0 31 23 28 28 -4z m28 12 c-3 -8 -2 -12 4 -9 6 3 10 -1 10 -9 0
-9 -7 -16 -15 -16 -9 0 -15 9 -15 25 0 14 5 25 11 25 6 0 8 -7 5 -16z m44 -9
c0 -14 -4 -25 -10 -25 -5 0 -10 11 -10 25 0 14 5 25 10 25 6 0 10 -11 10 -25z
m40 0 c0 -16 -6 -25 -15 -25 -8 0 -15 5 -15 10 0 6 4 10 10 10 5 0 7 7 4 15
-4 8 -1 15 5 15 6 0 11 -11 11 -25z m40 0 c0 -16 -6 -25 -15 -25 -15 0 -21 31
-8 43 13 14 23 6 23 -18z m355 15 c3 -5 0 -10 -7 -11 -10 0 -10 -2 0 -6 17 -7
15 -23 -3 -23 -9 0 -15 9 -15 25 0 25 14 33 25 15z m35 -15 c0 -14 -4 -25 -10
-25 -5 0 -10 11 -10 25 0 14 5 25 10 25 6 0 10 -11 10 -25z m40 0 c0 -16 -6
-25 -15 -25 -18 0 -20 20 -2 21 9 0 9 2 -1 6 -6 2 -10 9 -6 14 10 18 24 9 24
-16z m40 -6 c0 -10 -7 -19 -15 -19 -15 0 -21 31 -9 43 11 10 24 -3 24 -24z
m38 3 c2 -15 -2 -22 -12 -22 -11 0 -16 9 -16 26 0 31 23 28 28 -4z m30 3 c0
-14 -4 -25 -9 -25 -5 0 -9 11 -9 25 0 14 4 25 9 25 5 0 9 -11 9 -25z m42 0 c0
-16 -6 -25 -15 -25 -8 0 -15 5 -15 10 0 6 4 10 10 10 5 0 7 7 4 15 -4 8 -1 15
5 15 6 0 11 -11 11 -25z m40 0 c0 -16 -6 -25 -15 -25 -15 0 -21 31 -8 43 13
14 23 6 23 -18z m40 -6 c0 -10 -7 -19 -15 -19 -15 0 -21 31 -9 43 11 10 24 -3
24 -24z m26 16 c-3 -8 -1 -15 4 -15 6 0 10 -4 10 -10 0 -5 -7 -10 -15 -10 -9
0 -15 9 -15 25 0 14 5 25 11 25 6 0 9 -7 5 -15z m44 -10 c0 -14 -4 -25 -10
-25 -5 0 -10 11 -10 25 0 14 5 25 10 25 6 0 10 -11 10 -25z m40 0 c0 -16 -6
-25 -15 -25 -18 0 -20 20 -2 21 9 0 9 2 -1 6 -6 2 -10 9 -6 14 10 18 24 9 24
-16z m40 0 c0 -16 -6 -25 -15 -25 -15 0 -21 31 -8 43 13 14 23 6 23 -18z m138
2 c2 -12 -3 -17 -17 -17 -12 0 -21 6 -21 13 0 31 32 34 38 4z m46 7 c9 -23 8
-24 -14 -24 -19 0 -27 20 -13 33 11 11 20 8 27 -9z m-904 -22 c0 -14 -8 -18
-30 -18 -22 0 -30 4 -30 18 0 13 8 18 30 18 22 0 30 -5 30 -18z m90 -1 c0 -15
-7 -19 -35 -19 -28 0 -35 4 -35 19 0 15 7 19 35 19 28 0 35 -4 35 -19z m80 1
c0 -14 -8 -18 -30 -18 -22 0 -30 4 -30 18 0 13 8 18 30 18 22 0 30 -5 30 -18z
m-960 -22 c0 -7 6 -7 19 0 13 7 22 7 26 0 3 -5 15 -10 26 -10 12 0 17 4 13 11
-4 8 0 8 15 0 28 -15 27 -18 -10 -19 -17 0 -36 -5 -43 -11 -9 -8 -18 -7 -32 4
-10 7 -29 11 -41 8 -15 -3 -23 -1 -23 7 0 7 7 10 15 6 8 -3 15 -1 15 4 0 6 5
10 10 10 6 0 10 -5 10 -10z m180 -5 c10 -12 10 -15 -2 -15 -8 0 -15 7 -15 15
0 8 1 15 2 15 2 0 8 -7 15 -15z m1458 4 c16 10 66 6 88 -7 15 -9 10 -10 -20
-5 -31 5 -37 3 -31 -7 5 -9 4 -11 -3 -6 -7 4 -12 2 -12 -4 0 -6 -10 -4 -25 6
-13 8 -29 13 -34 9 -7 -3 -8 0 -5 10 4 10 10 12 18 6 6 -5 17 -6 24 -2z m176
-10 c-3 -5 -9 -7 -14 -4 -4 3 -11 -1 -13 -7 -3 -7 -6 -3 -6 9 -1 16 3 20 19
16 11 -3 17 -9 14 -14z m-1904 3 c0 -4 -12 -7 -27 -6 -16 1 -37 -3 -48 -9 -17
-9 -18 -8 -8 5 13 15 83 24 83 10z m310 -2 c0 -5 -2 -10 -4 -10 -3 0 -8 5 -11
10 -3 6 -1 10 4 10 6 0 11 -4 11 -10z m133 -4 c21 4 21 4 2 -4 -24 -11 -47 -4
-38 11 5 8 8 8 10 0 2 -6 14 -9 26 -7z m367 7 c0 -5 -5 -15 -10 -23 -8 -12
-10 -11 -10 8 0 12 5 22 10 22 6 0 10 -3 10 -7z m457 -8 c0 -8 -4 -15 -9 -15
-10 0 -11 14 -1 23 9 10 10 9 10 -8z m678 -3 c-3 -3 -11 0 -18 7 -9 10 -8 11
6 5 10 -3 15 -9 12 -12z m-1595 0 c0 -5 -7 -9 -15 -9 -8 0 -12 4 -9 9 3 4 9 8
15 8 5 0 9 -4 9 -8z m184 -4 c-7 -11 -34 -10 -34 1 0 6 9 9 19 8 11 0 17 -5
15 -9z m86 6 c0 -8 -19 -13 -24 -6 -3 5 1 9 9 9 8 0 15 -2 15 -3z m90 -4 c0
-16 -17 -19 -34 -7 -14 11 -13 12 9 13 14 1 25 -2 25 -6z m470 -4 c-4 -4 -16
-4 -26 2 -16 9 -14 10 8 9 15 -1 23 -6 18 -11z m180 5 c0 -5 -9 -7 -20 -4 -11
3 -20 7 -20 9 0 2 9 4 20 4 11 0 20 -4 20 -9z m100 -1 c-18 -12 -30 -13 -30
-2 0 4 10 9 22 9 18 2 20 0 8 -7z m-329 -287 c16 19 20 20 29 7 5 -8 10 -19
10 -25 0 -5 -5 -3 -10 5 -9 13 -12 13 -24 -2 -7 -10 -15 -18 -18 -18 -9 0 -48
37 -48 46 0 5 10 -1 21 -13 l22 -22 18 22z m-69 -35 c-7 -7 -12 -36 -12 -65 0
-29 -4 -53 -10 -53 -5 0 -10 20 -10 45 0 45 16 85 34 85 6 0 5 -5 -2 -12z
m-822 -51 c0 -2 -8 -3 -18 -3 -10 0 -19 6 -19 13 0 8 6 9 19 2 10 -5 18 -11
18 -12z m1679 9 c10 -12 8 -13 -8 -9 -12 3 -18 9 -15 14 7 12 10 11 23 -5z
m-62 -34 c-10 -10 -17 -26 -17 -36 0 -10 -5 -14 -11 -11 -5 4 -19 -1 -30 -11
-10 -9 -19 -14 -19 -9 0 7 80 84 89 85 2 0 -3 -8 -12 -18z m-1613 -8 c23 -23
20 -51 -8 -69 -45 -30 -91 16 -61 61 18 28 47 31 69 8z m40 -4 c17 0 51 -38
43 -47 -4 -3 -7 -1 -7 6 0 9 -9 12 -23 9 -13 -3 -24 0 -24 6 0 6 -3 18 -5 26
-3 8 -3 12 -1 8 3 -5 10 -8 17 -8z m1654 8 c7 -7 12 -21 12 -32 0 -21 -27 -56
-43 -56 -17 0 -47 32 -47 51 0 38 52 63 78 37z m-1792 -20 c0 -17 -6 -23 -22
-23 l-23 0 21 23 c12 12 22 22 23 22 0 0 1 -10 1 -22z m1864 -17 c0 -12 -40
-7 -44 6 -3 7 -1 13 5 13 6 0 7 6 3 13 -4 6 2 3 14 -7 12 -11 22 -22 22 -25z
m-2002 -19 c3 -37 1 -42 -17 -42 -18 0 -21 6 -21 38 0 68 33 71 38 4z m122
-22 c0 -11 -4 -20 -10 -20 -5 0 -10 9 -10 20 0 11 5 20 10 20 6 0 10 -9 10
-20z m180 0 c0 -11 -4 -20 -10 -20 -5 0 -10 9 -10 20 0 11 5 20 10 20 6 0 10
-9 10 -20z m1520 0 c0 -11 -4 -20 -10 -20 -5 0 -10 9 -10 20 0 11 5 20 10 20
6 0 10 -9 10 -20z m170 0 c0 -11 -4 -20 -10 -20 -5 0 -10 9 -10 20 0 11 5 20
10 20 6 0 10 -9 10 -20z m-98 -24 c15 -2 36 2 49 12 12 8 19 10 15 3 -8 -13
23 -43 36 -35 5 3 8 0 8 -6 0 -6 -7 -13 -16 -17 -9 -3 -13 -12 -9 -21 5 -13 2
-13 -14 2 -10 9 -21 13 -24 9 -3 -5 -25 -8 -49 -7 -24 1 -49 -3 -57 -10 -12
-8 -13 -8 -7 2 4 6 3 12 -2 12 -5 0 -15 11 -22 25 -7 13 -16 22 -20 20 -4 -2
-7 2 -7 10 0 13 3 13 18 -1 14 -12 22 -13 39 -4 18 10 19 14 8 28 -12 16 -11
16 7 0 11 -9 32 -19 47 -22z m-808 -28 c8 -14 6 -22 -10 -39 -18 -17 -25 -19
-43 -10 -22 12 -26 27 -15 56 8 21 53 16 68 -7z m-1086 -56 c3 -37 1 -42 -17
-42 -18 0 -21 6 -21 38 0 68 33 71 38 4z m909 1 c-3 -10 -5 -2 -5 17 0 19 2
27 5 18 2 -10 2 -26 0 -35z m20 0 c-3 -10 -5 -2 -5 17 0 19 2 27 5 18 2 -10 2
-26 0 -35z m290 5 c-3 -7 -5 -2 -5 12 0 14 2 19 5 13 2 -7 2 -19 0 -25z m-352
12 c4 -6 -44 -11 -137 -12 -79 0 -154 -2 -168 -3 -31 -1 -42 4 -35 16 8 12
332 12 340 -1z m705 -5 c0 -5 -27 -10 -60 -11 -33 -1 -60 2 -60 6 0 7 -119 5
-186 -4 -22 -3 -31 0 -31 10 0 12 29 14 169 12 103 -2 168 -7 168 -13z m-1310
-36 c0 -16 -4 -29 -10 -29 -5 0 -10 16 -10 36 0 21 4 33 10 29 6 -3 10 -19 10
-36z m1600 5 c0 -21 -4 -34 -11 -32 -6 2 -10 7 -10 11 1 4 1 18 1 32 0 14 5
25 10 25 6 0 10 -16 10 -36z m30 -4 c0 -16 -4 -30 -10 -30 -5 0 -10 14 -10 30
0 17 5 30 10 30 6 0 10 -13 10 -30z m30 0 c0 -16 -4 -30 -10 -30 -5 0 -10 14
-10 30 0 17 5 30 10 30 6 0 10 -13 10 -30z m-909 -27 c0 -5 2 -23 5 -40 4 -31
2 -33 -27 -33 -24 0 -30 3 -25 16 3 9 6 27 6 40 0 17 6 24 20 24 11 0 20 -3
21 -7z m-858 -46 c-3 -6 -1 -7 6 -3 6 4 9 12 6 17 -7 10 -1 11 55 13 19 1 41
5 48 10 24 15 38 -10 22 -39 -14 -26 -32 -34 -28 -13 2 6 -6 13 -17 15 -20 3
-20 3 0 -6 14 -7 0 -9 -47 -7 -37 1 -64 -2 -62 -6 3 -4 1 -8 -4 -8 -11 0 -23
51 -15 63 3 5 13 1 24 -9 10 -9 16 -21 12 -27z m567 37 c0 -8 -19 -13 -24 -6
-3 5 1 9 9 9 8 0 15 -2 15 -3z m602 -34 c-3 -21 -10 -30 -23 -30 -29 0 -26 47
4 53 12 2 22 5 23 6 0 0 -1 -12 -4 -29z m-762 -5 c0 -13 -6 -22 -15 -22 -9 0
-15 9 -15 22 0 13 6 22 15 22 9 0 15 -9 15 -22z m60 0 c0 -16 -6 -25 -15 -25
-9 0 -15 9 -15 25 0 16 6 25 15 25 9 0 15 -9 15 -25z m130 0 c0 -13 -6 -22
-15 -22 -9 0 -15 9 -15 22 0 13 6 22 15 22 9 0 15 -9 15 -22z m65 -3 c1 -14
-4 -20 -17 -19 -11 1 -18 9 -18 23 0 29 33 25 35 -4z m435 3 c0 -13 -6 -22
-15 -22 -9 0 -15 9 -15 22 0 13 6 22 15 22 9 0 15 -9 15 -22z m130 0 c0 -13
-6 -22 -15 -22 -9 0 -15 9 -15 22 0 13 6 22 15 22 9 0 15 -9 15 -22z m60 0 c0
-16 -6 -25 -15 -25 -9 0 -15 9 -15 25 0 16 6 25 15 25 9 0 15 -9 15 -25z m70
0 c0 -18 -5 -25 -20 -25 -20 0 -28 28 -13 43 15 16 33 6 33 -18z m60 0 c0 -13
-6 -22 -15 -22 -9 0 -15 9 -15 22 0 13 6 22 15 22 9 0 15 -9 15 -22z m-510 -6
c0 -11 -4 -17 -10 -14 -5 3 -10 13 -10 21 0 8 5 14 10 14 6 0 10 -9 10 -21z
m-1060 -40 c0 -32 -3 -39 -20 -39 -17 0 -20 7 -20 38 0 43 6 53 26 45 9 -3 14
-20 14 -44z m1130 36 c0 -8 -4 -15 -10 -15 -5 0 -10 7 -10 15 0 8 5 15 10 15
6 0 10 -7 10 -15z m1010 -40 c0 -40 -2 -42 -25 -37 -27 5 -34 37 -15 72 17 33
40 13 40 -35z m-2040 1 c0 -39 -3 -45 -20 -43 -17 1 -20 8 -20 44 0 36 3 43
20 43 17 0 20 -7 20 -44z m1940 1 c0 -38 -3 -43 -25 -45 -23 -2 -25 2 -25 36
0 43 5 52 32 52 15 0 18 -8 18 -43z m-1847 -12 c2 -23 -2 -28 -25 -30 -30 -4
-35 11 -18 50 8 19 9 19 9 -2 1 -13 6 -23 12 -23 7 0 9 11 6 26 -3 15 -1 22 5
16 5 -5 10 -21 11 -37z m33 -3 c4 -19 2 -32 -4 -32 -5 0 -12 18 -14 40 -4 45
8 40 18 -8z m34 3 c0 -19 -4 -35 -10 -35 -5 0 -10 16 -10 35 0 19 5 35 10 35
6 0 10 -16 10 -35z m1600 -6 c0 -18 -5 -29 -11 -27 -6 2 -10 7 -10 11 1 4 1
19 1 33 0 14 4 23 10 19 6 -3 10 -20 10 -36z m30 0 c0 -16 -4 -29 -10 -29 -5
0 -10 16 -10 36 0 21 4 33 10 29 6 -3 10 -19 10 -36z m30 6 c0 -19 -4 -35 -10
-35 -11 0 -14 53 -3 63 11 12 13 8 13 -28z m-942 -7 c2 -10 -1 -18 -7 -18 -6
0 -11 8 -12 18 0 14 -2 14 -8 -3 -5 -11 -6 -27 -3 -34 4 -10 7 -11 10 -3 5 17
22 15 22 -3 0 -9 -9 -15 -25 -15 -23 0 -25 4 -25 41 0 36 2 40 22 37 13 -2 24
-11 26 -20z m92 -18 c0 -36 -2 -40 -25 -40 -16 0 -25 6 -25 16 0 10 6 14 15
11 8 -4 17 -2 20 3 4 6 -3 10 -14 10 -12 0 -21 6 -21 13 0 19 10 27 32 27 14
0 18 -8 18 -40z m97 -2 c2 -34 0 -38 -22 -38 -22 0 -25 4 -25 41 0 36 2 40 23
37 18 -2 22 -10 24 -40z m-607 -14 c0 -27 -4 -34 -20 -34 -11 0 -20 5 -20 10
0 6 6 10 13 10 8 0 9 2 1 8 -15 9 1 56 16 47 5 -3 10 -22 10 -41z m63 24 c4
-13 1 -26 -6 -30 -9 -6 -9 -8 1 -8 6 0 12 -4 12 -10 0 -5 -8 -10 -18 -10 -14
0 -19 8 -20 32 -1 50 20 68 31 26z m61 6 c13 -34 7 -64 -13 -64 -11 0 -23 -4
-26 -10 -3 -5 -1 -10 5 -10 7 0 10 -7 6 -15 -4 -10 1 -15 14 -15 13 0 20 -7
20 -20 0 -14 -7 -20 -21 -20 -14 0 -19 5 -16 15 4 8 -5 23 -21 35 -15 12 -22
19 -16 16 6 -3 17 6 24 19 7 14 20 26 29 26 13 1 12 2 -1 6 -10 2 -18 8 -18
13 0 16 12 40 20 40 4 0 11 -7 14 -16z m66 -14 c0 -10 -6 -21 -12 -23 -8 -3
-6 -6 5 -6 24 -1 22 -21 -3 -21 -16 0 -20 7 -20 33 0 19 3 37 6 40 11 10 24
-3 24 -23z m60 21 c0 -5 3 -16 6 -25 4 -11 0 -16 -12 -17 -17 -1 -17 -2 -1 -6
23 -6 22 -23 -3 -23 -16 0 -20 7 -20 33 0 19 3 37 7 40 9 10 23 9 23 -2z m68
-19 c3 -17 -2 -22 -18 -22 -16 0 -20 4 -16 16 3 9 6 20 6 26 0 19 25 1 28 -20z
m371 6 c5 -15 4 -26 -3 -30 -8 -6 -7 -8 2 -8 6 0 12 -4 12 -10 0 -5 -9 -10
-20 -10 -16 0 -20 7 -20 33 0 30 6 47 17 47 2 0 7 -10 12 -22z m62 10 c1 -7 3
-25 5 -40 2 -22 -1 -28 -17 -28 -15 0 -19 7 -19 33 0 19 3 37 7 40 10 11 23 8
24 -5z m67 -31 c3 -32 0 -37 -17 -37 -25 0 -28 20 -3 21 15 1 15 2 -1 6 -11 3
-16 10 -13 20 3 8 6 19 6 25 0 5 6 8 13 6 6 -3 13 -21 15 -41z m61 21 c5 -15
4 -26 -3 -30 -8 -6 -7 -8 2 -8 6 0 12 -4 12 -10 0 -5 -8 -10 -18 -10 -14 0
-19 8 -20 32 -1 50 13 64 27 26z m65 6 c13 -34 7 -64 -14 -64 -14 0 -20 7 -20
24 0 30 9 56 20 56 4 0 11 -7 14 -16z m64 -29 c-1 -27 -6 -35 -20 -35 -10 0
-18 5 -18 10 0 6 6 10 13 10 9 0 8 3 -2 9 -10 7 -11 13 -2 30 16 30 31 17 29
-24z m548 -15 c30 0 54 -4 54 -9 0 -5 -23 -8 -51 -8 -31 1 -53 -4 -58 -12 -15
-23 -23 7 -15 52 8 41 9 42 12 10 3 -33 4 -33 58 -33z m-1981 10 c8 -13 118
-13 131 0 7 7 19 6 36 -2 l25 -12 -24 -13 c-19 -10 -29 -10 -43 -1 -13 9 -25
9 -42 1 -16 -7 -28 -7 -40 1 -13 8 -23 8 -38 -2 -16 -9 -24 -10 -39 0 -18 11
-18 13 -3 25 21 15 29 16 37 3z m1749 -10 c46 0 49 -1 34 -16 -13 -13 -19 -14
-37 -2 -17 10 -25 10 -41 0 -16 -9 -24 -10 -39 0 -18 11 -18 13 -3 24 11 8 21
9 27 3 5 -5 32 -9 59 -9z m108 -16 c-12 -8 -21 -9 -33 -1 -16 10 -16 12 -1 23
12 8 21 9 33 1 16 -10 16 -12 1 -23z m-1112 6 c0 -5 -9 -10 -20 -10 -11 0 -20
5 -20 10 0 6 9 10 20 10 11 0 20 -4 20 -10z m19 -47 c-1 -55 -1 -56 -11 -24
-9 31 -4 81 7 81 3 0 5 -26 4 -57z m105 32 c-4 -8 -8 -15 -10 -15 -2 0 -4 7
-4 15 0 8 4 15 10 15 5 0 7 -7 4 -15z m101 6 c3 -5 1 -12 -5 -16 -5 -3 -10 1
-10 9 0 18 6 21 15 7z m-1105 -54 c0 -36 -3 -43 -20 -43 -17 0 -20 7 -20 43 0
36 3 43 20 43 17 0 20 -7 20 -43z m178 -5 c3 -37 1 -42 -17 -42 -17 0 -21 6
-21 30 0 21 5 30 18 31 16 1 16 2 0 6 -10 2 -18 9 -18 14 0 6 8 9 18 7 12 -2
18 -15 20 -46z m80 0 c3 -37 1 -42 -17 -42 -17 0 -21 6 -21 30 0 21 5 30 18
31 16 1 16 2 0 6 -10 2 -18 9 -18 14 0 6 8 9 18 7 12 -2 18 -15 20 -46z m80 0
c3 -37 1 -42 -17 -42 -17 0 -21 6 -21 30 0 21 5 30 18 31 16 1 16 2 0 6 -10 2
-18 9 -18 14 0 6 8 9 18 7 12 -2 18 -15 20 -46z m107 3 c0 -34 -3 -40 -22 -41
-21 -1 -23 3 -23 43 0 40 2 44 23 41 19 -3 22 -9 22 -43z m72 23 c-3 -8 -6 -5
-6 6 -1 11 2 17 5 13 3 -3 4 -12 1 -19z m83 13 c2 -1 -1 -6 -7 -12 -13 -13
-47 -4 -39 10 4 5 14 8 24 6 9 -2 19 -4 22 -4z m124 0 c7 -10 25 -9 44 2 7 5
12 3 12 -7 0 -18 -16 -30 -24 -17 -6 10 -31 9 -41 -1 -4 -3 -15 -4 -26 -1 -18
5 -19 6 -2 19 21 16 30 17 37 5z m122 -17 c-3 -9 2 -14 14 -14 13 0 20 -7 20
-20 0 -14 -7 -20 -21 -20 -14 0 -19 5 -16 15 4 8 2 17 -4 20 -5 4 -7 11 -3 16
3 5 2 9 -3 8 -4 -1 -15 -1 -23 1 -11 1 -9 4 5 9 25 10 38 4 31 -15z m132 -21
c3 -38 1 -40 -22 -40 -23 0 -26 3 -26 37 0 42 4 49 28 46 12 -2 18 -14 20 -43z
m92 -4 c0 -35 -2 -39 -22 -35 -30 4 -38 54 -12 73 24 18 34 7 34 -38z m92 36
c11 -15 9 -75 -2 -75 -5 0 -11 17 -12 38 l-1 37 -4 -37 c-2 -21 -8 -38 -14
-38 -10 0 -13 73 -3 83 9 8 27 4 36 -8z m118 7 c0 -12 34 -11 41 1 4 6 13 6
24 -1 17 -9 17 -10 -1 -20 -12 -6 -26 -7 -34 -2 -8 5 -18 6 -23 3 -13 -8 -39
6 -32 17 7 12 25 13 25 2z m151 -14 c3 -1 13 3 22 11 15 11 17 11 17 -2 0 -19
-16 -31 -24 -18 -7 10 -25 9 -42 -2 -7 -4 -17 -1 -23 7 -21 25 11 28 50 4z
m146 -21 c-13 -39 -37 -51 -37 -17 0 11 6 20 14 20 7 0 16 10 19 22 4 12 8 20
11 17 2 -2 -1 -21 -7 -42z m119 -7 l2 -45 -8 40 -7 40 -2 -36 c-2 -51 -31 -50
-31 1 0 41 7 52 30 48 10 -2 15 -16 16 -48z m182 2 c3 -39 1 -42 -22 -42 -22
0 -26 4 -26 30 0 24 4 30 23 31 16 1 18 2 5 6 -10 2 -18 9 -18 14 0 6 8 9 18
7 12 -2 18 -15 20 -46z m80 0 c3 -39 1 -42 -22 -42 -21 0 -25 4 -24 30 1 23 6
30 22 31 20 2 19 2 -2 6 -12 2 -20 9 -16 14 3 6 13 9 22 7 12 -2 18 -16 20
-46z m77 38 c3 -5 -3 -10 -14 -10 -12 0 -21 5 -21 10 0 6 6 10 14 10 8 0 18
-4 21 -10z m105 -34 c0 -37 -3 -44 -17 -41 -10 2 -21 4 -25 4 -10 1 -11 65 -1
74 3 4 15 7 25 7 15 0 18 -8 18 -44z m-609 16 c-12 -8 -21 -23 -21 -33 0 -12
-7 -19 -20 -19 -13 0 -20 7 -20 20 0 14 7 20 21 20 15 0 19 5 15 15 -4 11 1
14 20 13 26 -3 26 -3 5 -16z m509 -32 c0 -25 -4 -30 -25 -30 -21 0 -25 5 -25
30 0 25 4 30 25 30 21 0 25 -5 25 -30z m-1480 0 c0 -11 -7 -20 -15 -20 -8 0
-15 9 -15 20 0 11 7 20 15 20 8 0 15 -9 15 -20z m60 0 c0 -11 -7 -20 -15 -20
-8 0 -15 9 -15 20 0 11 7 20 15 20 8 0 15 -9 15 -20z m130 0 c0 -11 -7 -20
-15 -20 -8 0 -15 9 -15 20 0 11 7 20 15 20 8 0 15 -9 15 -20z m63 0 c-3 -11
-12 -20 -19 -20 -8 0 -14 9 -14 20 0 13 7 20 19 20 14 0 18 -5 14 -20z m437 0
c0 -11 -7 -20 -15 -20 -8 0 -15 9 -15 20 0 11 7 20 15 20 8 0 15 -9 15 -20z
m70 0 c0 -13 -7 -20 -20 -20 -13 0 -20 7 -20 20 0 13 7 20 20 20 13 0 20 -7
20 -20z m60 0 c0 -11 -7 -20 -15 -20 -8 0 -15 9 -15 20 0 11 7 20 15 20 8 0
15 -9 15 -20z m60 0 c0 -11 -7 -20 -15 -20 -8 0 -15 9 -15 20 0 11 7 20 15 20
8 0 15 -9 15 -20z"/>
<path d="M1087 1683 c18 -2 50 -2 70 0 21 2 7 4 -32 4 -38 0 -55 -2 -38 -4z"/>
<path d="M1060 1599 c0 -43 3 -50 17 -47 14 3 17 11 15 41 -3 30 -1 36 12 31
9 -3 16 -16 17 -28 1 -19 2 -19 8 3 10 38 31 38 31 1 0 -18 -4 -29 -10 -25 -5
3 -10 1 -10 -5 0 -6 -4 -9 -9 -6 -4 3 -17 -1 -27 -9 -18 -13 -16 -14 19 -15
21 0 36 4 33 9 -4 5 3 7 14 4 18 -5 20 0 20 46 l0 51 -65 0 -65 0 0 -51z"/>
<path d="M1007 1508 l-14 -33 46 -3 c31 -2 49 1 56 11 6 8 25 18 43 21 52 12
48 26 -8 26 -48 0 -51 -1 -45 -22 5 -18 4 -19 -4 -8 -9 12 -11 12 -17 -3 -8
-21 -44 -23 -44 -2 0 8 3 14 8 14 20 -3 32 2 32 16 0 29 -39 16 -53 -17z"/>
<path d="M1190 1526 c0 -20 16 -29 41 -21 16 5 18 10 8 21 -15 18 -49 18 -49
0z"/>
<path d="M746 1491 c-4 -6 -13 -8 -19 -4 -7 4 -7 1 1 -9 8 -9 19 -15 27 -12 7
3 16 1 20 -5 4 -7 -4 -11 -19 -11 -14 0 -26 5 -26 10 0 6 -11 10 -25 10 -14 0
-25 -4 -25 -10 0 -5 -12 -10 -26 -10 -14 0 -23 4 -19 10 4 6 -7 10 -24 10 -17
0 -31 -4 -31 -10 0 -5 -9 -10 -20 -10 -11 0 -20 5 -20 10 0 6 -11 10 -25 10
-14 0 -25 -4 -25 -10 0 -5 -12 -10 -26 -10 -14 0 -23 4 -19 10 3 6 2 10 -3 10
-6 0 -12 -7 -16 -15 -5 -13 30 -15 274 -15 153 0 281 4 284 9 9 15 -44 45 -57
32 -14 -14 -50 -14 -64 0 -6 6 -16 8 -22 5 -18 -12 -12 -25 9 -21 11 2 20 0
20 -6 0 -5 -11 -9 -25 -9 -14 0 -25 5 -25 10 0 6 -11 10 -25 10 -13 0 -28 7
-33 16 -6 12 -11 13 -16 5z m214 -31 c0 -5 -9 -10 -20 -10 -11 0 -20 5 -20 10
0 6 9 10 20 10 11 0 20 -4 20 -10z"/>
<path d="M1150 1485 c8 -10 30 -15 61 -15 37 0 49 4 49 15 0 8 -4 15 -10 15
-5 0 -10 -4 -10 -10 0 -5 -9 -10 -20 -10 -11 0 -20 5 -20 10 0 6 -14 10 -31
10 -27 0 -30 -2 -19 -15z"/>
<path d="M1486 1485 c-3 -8 -17 -15 -31 -15 -14 0 -25 -4 -25 -10 0 -5 -11
-10 -25 -10 -14 0 -25 5 -25 10 0 6 3 9 8 9 19 -3 33 2 28 10 -4 5 -19 5 -36
-2 -23 -9 -35 -9 -50 1 -16 10 -24 10 -40 0 -11 -7 -20 -18 -20 -25 0 -10 61
-13 275 -13 238 0 275 2 275 15 0 8 -4 15 -10 15 -5 0 -10 -4 -10 -10 0 -5 -9
-10 -20 -10 -11 0 -20 5 -20 10 0 6 -11 10 -25 10 -14 0 -25 -4 -25 -10 0 -5
-11 -10 -25 -10 -14 0 -25 5 -25 10 0 6 -9 10 -20 10 -11 0 -20 -4 -20 -10 0
-5 -11 -10 -25 -10 -14 0 -25 5 -25 10 0 6 -11 10 -25 10 -14 0 -25 -4 -25
-10 0 -5 -9 -10 -20 -10 -11 0 -20 5 -20 11 0 6 6 9 14 6 8 -3 20 2 27 11 8 9
9 14 5 10 -5 -4 -15 -3 -21 2 -9 8 -14 6 -19 -5z m-156 -25 c0 -5 -9 -10 -20
-10 -11 0 -20 5 -20 10 0 6 9 10 20 10 11 0 20 -4 20 -10z"/>
<path d="M1000 1360 c0 -19 11 -26 23 -14 8 8 -3 34 -14 34 -5 0 -9 -9 -9 -20z"/>
<path d="M1420 1370 c0 -5 5 -10 10 -10 6 0 10 5 10 10 0 6 -4 10 -10 10 -5 0
-10 -4 -10 -10z"/>
<path d="M996 1314 c-4 -10 -1 -14 6 -12 15 5 23 28 10 28 -5 0 -13 -7 -16
-16z"/>
<path d="M1246 1282 c-2 -4 -1 -14 5 -22 7 -12 9 -10 9 8 0 23 -5 28 -14 14z"/>
<path d="M1682 1278 c6 -18 28 -21 28 -4 0 9 -7 16 -16 16 -9 0 -14 -5 -12
-12z"/>
<path d="M1840 1228 c0 -4 4 -8 9 -8 6 0 12 4 15 8 3 5 -1 9 -9 9 -8 0 -15 -4
-15 -9z"/>
<path d="M1030 1134 c0 -8 5 -12 10 -9 6 4 8 11 5 16 -9 14 -15 11 -15 -7z"/>
<path d="M374 605 c-9 -23 3 -45 25 -45 22 0 41 27 34 48 -6 17 -52 15 -59 -3z"/>
<path d="M2064 605 c-8 -20 13 -45 37 -45 19 0 35 33 24 50 -10 16 -55 12 -61
-5z"/>
<path d="M1224 495 c-8 -19 3 -35 26 -35 22 0 33 23 17 39 -15 15 -37 14 -43
-4z"/>
<path d="M2318 303 c5 -21 7 -23 10 -9 2 10 0 22 -6 28 -6 6 -7 0 -4 -19z"/>
<path d="M2222 295 c0 -16 2 -22 5 -12 2 9 2 23 0 30 -3 6 -5 -1 -5 -18z"/>
<path d="M1337 271 c-2 -10 -1 -25 4 -32 6 -10 9 -4 9 19 0 36 -5 42 -13 13z"/>
<path d="M611 158 c0 -16 2 -18 6 -8 3 8 11 18 17 22 7 5 4 8 -6 8 -12 0 -18
-7 -17 -22z"/>
<path d="M1152 155 c0 -16 2 -22 5 -12 2 9 2 23 0 30 -3 6 -5 -1 -5 -18z"/>
<path d="M1242 155 c0 -16 2 -22 5 -12 2 9 2 23 0 30 -3 6 -5 -1 -5 -18z"/>
<path d="M1862 155 c0 -16 2 -22 5 -12 2 9 2 23 0 30 -3 6 -5 -1 -5 -18z"/>
<path d="M2308 173 c7 -3 16 -2 19 1 4 3 -2 6 -13 5 -11 0 -14 -3 -6 -6z"/>
<path d="M2321 144 c0 -11 3 -14 6 -6 3 7 2 16 -1 19 -3 4 -6 -2 -5 -13z"/>
<path d="M1419 1973 c-12 -15 -12 -16 5 -10 12 5 23 1 32 -10 13 -16 13 -15 3
10 -14 31 -21 33 -40 10z"/>
<path d="M1750 1974 c-13 -15 -6 -17 24 -5 17 6 17 8 3 14 -8 3 -21 -1 -27 -9z"/>
<path d="M1873 1983 c-13 -2 -23 -8 -23 -12 0 -14 49 -9 54 5 3 8 2 13 -2 13
-4 -1 -17 -4 -29 -6z"/>
<path d="M700 1960 c0 -5 5 -10 11 -10 5 0 7 5 4 10 -3 6 -8 10 -11 10 -2 0
-4 -4 -4 -10z"/>
<path d="M1852 1932 c-9 -9 -25 -16 -35 -14 -9 2 -17 -1 -17 -7 0 -6 7 -8 15
-5 8 4 15 1 15 -6 0 -12 11 -3 39 33 18 22 6 22 -17 -1z"/>
<path d="M810 1929 c0 -5 5 -7 10 -4 6 3 10 8 10 11 0 2 -4 4 -10 4 -5 0 -10
-5 -10 -11z"/>
<path d="M95 1845 c0 -63 3 -75 17 -75 10 0 15 6 13 18 -9 45 -12 102 -5 97 4
-2 13 -25 20 -50 7 -25 16 -45 20 -45 4 0 17 21 28 48 l20 47 1 -45 c1 -26 -4
-51 -11 -58 -9 -9 -7 -12 13 -12 23 0 24 2 24 75 0 65 -2 75 -17 75 -10 0 -18
-6 -19 -12 0 -7 -8 -31 -18 -53 l-18 -40 -17 53 c-12 35 -23 52 -34 52 -14 0
-17 -12 -17 -75z"/>
<path d="M270 1854 c6 -68 16 -84 56 -84 32 0 41 18 46 88 4 51 2 62 -11 62
-13 0 -15 -11 -13 -65 3 -52 1 -66 -12 -71 -28 -11 -46 15 -46 65 0 26 5 52
12 59 9 9 7 12 -13 12 -24 0 -24 -1 -19 -66z"/>
<path d="M405 1845 c0 -60 3 -75 15 -75 12 0 15 12 13 57 l-2 58 16 -48 c9
-26 21 -46 26 -44 5 1 18 23 28 47 l19 45 -2 -58 c-2 -45 0 -57 12 -57 12 0
14 12 12 66 -3 48 0 69 10 75 9 6 6 9 -10 9 -18 0 -27 -10 -44 -51 l-21 -51
-19 51 c-13 34 -25 51 -36 51 -14 0 -17 -11 -17 -75z"/>
<path d="M585 1845 l0 -75 36 0 c19 0 40 5 47 12 16 16 15 55 0 62 -10 5 -10
7 0 12 19 9 14 42 -7 54 -11 5 -32 10 -48 10 l-28 0 0 -75z m75 36 c0 -17 -18
-31 -41 -31 -5 0 -9 11 -9 25 0 20 5 25 25 25 18 0 25 -5 25 -19z m-2 -68 c2
-13 -1 -23 -6 -23 -6 0 -17 -3 -26 -6 -13 -5 -16 1 -16 26 0 27 3 31 23 28 14
-2 23 -11 25 -25z"/>
<path d="M736 1868 c-10 -29 -25 -63 -33 -75 -12 -21 -12 -23 10 -23 20 0 23
4 19 25 -4 21 -1 25 21 25 31 0 43 -16 27 -35 -10 -13 -8 -15 15 -15 22 0 26
3 20 18 -4 9 -15 42 -25 72 -10 30 -22 56 -27 57 -5 2 -17 -20 -27 -49z m36
-13 c4 -20 1 -25 -14 -25 -14 0 -18 5 -14 16 3 9 6 22 6 30 0 23 17 7 22 -21z"/>
<path d="M845 1845 c0 -60 3 -75 15 -75 12 0 15 15 15 75 0 60 -3 75 -15 75
-12 0 -15 -15 -15 -75z"/>
<path d="M1427 1913 c-4 -3 -7 -11 -7 -17 0 -6 5 -5 12 2 6 6 9 14 7 17 -3 3
-9 2 -12 -2z"/>
<path d="M2220 1905 c-8 -9 -8 -15 -2 -15 12 0 26 19 19 26 -2 2 -10 -2 -17
-11z"/>
<path d="M1740 1906 c0 -2 7 -7 16 -10 8 -3 12 -2 9 4 -6 10 -25 14 -25 6z"/>
<path d="M1900 1900 c0 -5 7 -7 15 -4 8 4 15 8 15 10 0 2 -7 4 -15 4 -8 0 -15
-4 -15 -10z"/>
<path d="M1010 1890 c0 -5 5 -10 11 -10 5 0 7 5 4 10 -3 6 -8 10 -11 10 -2 0
-4 -4 -4 -10z"/>
<path d="M1436 1881 c-3 -5 2 -15 12 -22 15 -12 16 -12 5 2 -7 9 -10 19 -6 22
3 4 4 7 0 7 -3 0 -8 -4 -11 -9z"/>
<path d="M1785 1870 c-3 -5 -1 -10 4 -10 6 0 11 5 11 10 0 6 -2 10 -4 10 -3 0
-8 -4 -11 -10z"/>
<path d="M2187 1873 c-10 -9 -9 -23 2 -23 5 0 11 7 15 15 5 15 -5 20 -17 8z"/>
<path d="M1515 1859 c-3 -4 2 -6 10 -5 21 3 28 13 10 13 -9 0 -18 -4 -20 -8z"/>
<path d="M2070 1855 c0 -8 2 -15 4 -15 2 0 6 7 10 15 3 8 1 15 -4 15 -6 0 -10
-7 -10 -15z"/>
<path d="M1475 1850 c-4 -6 -2 -17 4 -23 15 -15 25 -2 13 19 -7 12 -11 13 -17
4z"/>
<path d="M2140 1855 c0 -2 9 -9 20 -15 16 -9 18 -8 14 5 -5 13 -34 22 -34 10z"/>
<path d="M1366 1842 c-3 -5 3 -13 13 -19 14 -9 18 -8 18 3 0 15 -24 27 -31 16z"/>
<path d="M2117 1839 c7 -7 15 -10 18 -7 3 3 -2 9 -12 12 -14 6 -15 5 -6 -5z"/>
<path d="M2220 1835 c-6 -8 -10 -19 -8 -24 1 -6 8 1 15 14 13 28 11 31 -7 10z"/>
<path d="M1310 1825 c-6 -8 -10 -20 -7 -27 4 -8 6 -7 6 4 1 9 9 22 19 27 9 6
12 11 6 11 -6 0 -17 -7 -24 -15z"/>
<path d="M2085 1830 c-3 -5 -1 -10 4 -10 6 0 11 5 11 10 0 6 -2 10 -4 10 -3 0
-8 -4 -11 -10z"/>
<path d="M1270 1820 c0 -5 5 -10 11 -10 5 0 7 5 4 10 -3 6 -8 10 -11 10 -2 0
-4 -4 -4 -10z"/>
<path d="M1439 1821 c12 -8 12 -12 2 -25 -15 -17 -36 -22 -26 -6 3 6 2 10 -4
10 -5 0 -11 -5 -13 -11 -3 -9 -9 -9 -25 0 -24 12 -61 15 -49 4 4 -5 13 -8 19
-8 7 -1 11 -6 10 -13 -4 -14 -1 -15 31 -2 20 7 27 6 35 -8 10 -16 10 -16 11 0
0 9 7 21 17 26 18 11 11 42 -9 42 -10 0 -9 -3 1 -9z"/>
<path d="M2150 1810 c-9 -6 -10 -10 -3 -10 6 0 15 5 18 10 8 12 4 12 -15 0z"/>
<path d="M945 1800 c-3 -5 -1 -10 4 -10 6 0 11 5 11 10 0 6 -2 10 -4 10 -3 0
-8 -4 -11 -10z"/>
<path d="M1510 1779 c0 -5 5 -7 10 -4 6 3 10 8 10 11 0 2 -4 4 -10 4 -5 0 -10
-5 -10 -11z"/>
<path d="M2076 1781 c-3 -4 6 -6 19 -3 14 2 25 6 25 8 0 8 -39 4 -44 -5z"/>
<path d="M1550 1770 c0 -5 5 -10 11 -10 5 0 7 5 4 10 -3 6 -8 10 -11 10 -2 0
-4 -4 -4 -10z"/>
<path d="M1277 1759 c7 -7 15 -10 18 -7 3 3 -2 9 -12 12 -14 6 -15 5 -6 -5z"/>
<path d="M1512 1740 c-7 -12 -9 -26 -5 -33 4 -7 6 -21 5 -32 -2 -16 0 -15 11
5 7 14 9 27 5 28 -12 5 -10 32 2 32 6 0 10 5 10 10 0 17 -14 11 -28 -10z"/>
<path d="M1352 1736 c7 -8 15 -12 17 -11 5 6 -10 25 -20 25 -5 0 -4 -6 3 -14z"/>
<path d="M1465 1741 c-3 -5 -1 -12 5 -16 5 -3 10 1 10 9 0 18 -6 21 -15 7z"/>
<path d="M1550 1730 c0 -11 2 -20 4 -20 2 0 6 9 9 20 3 11 1 20 -4 20 -5 0 -9
-9 -9 -20z"/>
<path d="M1621 1714 c0 -11 3 -14 6 -6 3 7 2 16 -1 19 -3 4 -6 -2 -5 -13z"/>
<path d="M520 1690 c-9 -6 -10 -10 -3 -10 6 0 15 5 18 10 8 12 4 12 -15 0z"/>
<path d="M1576 1685 c-3 -8 -1 -15 4 -15 6 0 10 6 10 13 0 9 3 8 9 -2 5 -8 11
-9 15 -3 3 5 -1 13 -10 16 -21 8 -21 8 -28 -9z"/>
<path d="M1686 1675 c-3 -8 -1 -15 4 -15 6 0 10 7 10 15 0 8 -2 15 -4 15 -2 0
-6 -7 -10 -15z"/>
<path d="M2026 1674 c-5 -14 -4 -15 9 -4 17 14 19 20 6 20 -5 0 -12 -7 -15
-16z"/>
<path d="M2100 1680 c0 -5 5 -10 11 -10 5 0 7 5 4 10 -3 6 -8 10 -11 10 -2 0
-4 -4 -4 -10z"/>
<path d="M105 1641 c-3 -5 -2 -12 3 -15 5 -3 9 1 9 9 0 17 -3 19 -12 6z"/>
<path d="M1860 1646 c0 -2 7 -7 16 -10 8 -3 12 -2 9 4 -6 10 -25 14 -25 6z"/>
<path d="M2040 1639 c0 -5 5 -7 10 -4 6 3 10 8 10 11 0 2 -4 4 -10 4 -5 0 -10
-5 -10 -11z"/>
<path d="M2743 1474 c-42 -172 -42 -174 -25 -214 l17 -40 25 60 c14 33 28 60
31 60 4 0 18 -27 31 -61 l25 -61 13 48 c13 45 12 55 -23 189 -20 79 -37 152
-37 163 0 60 -19 12 -57 -144z m47 21 c1 18 11 -7 40 -100 5 -16 11 -50 14
-75 l6 -45 -25 48 c-14 26 -28 47 -31 47 -3 0 -3 -4 0 -9 3 -5 -1 -12 -9 -15
-9 -3 -24 -24 -34 -46 -16 -36 -19 -39 -24 -20 -3 12 -1 33 4 47 5 13 9 35 9
47 0 13 7 29 15 36 8 7 15 18 15 24 0 6 -5 4 -11 -4 -9 -12 -9 -11 -4 5 5 11
10 33 13 50 4 26 6 28 13 10 8 -20 8 -20 9 0z"/>
<path d="M2210 1619 c0 -5 5 -7 10 -4 6 3 10 8 10 11 0 2 -4 4 -10 4 -5 0 -10
-5 -10 -11z"/>
<path d="M2176 1605 c-3 -9 -6 -22 -5 -28 0 -7 5 -1 10 12 5 13 8 26 5 28 -2
2 -6 -3 -10 -12z"/>
<path d="M2322 1601 c-15 -12 -22 -29 -21 -52 l1 -34 8 30 c4 17 8 -86 9 -227
l1 -258 114 0 c82 0 115 3 118 13 2 6 4 125 3 262 0 138 2 234 6 215 l6 -35 2
34 c2 57 -25 71 -134 71 -75 0 -96 -3 -113 -19z m199 -44 l1 -32 8 30 8 30 1
-32 c1 -30 -2 -33 -29 -33 -27 0 -30 3 -32 33 l-1 32 -5 -35 -5 -35 -7 35 -7
35 -3 -35 -3 -35 -7 35 -7 35 -2 -32 c-1 -32 -3 -33 -41 -33 -38 0 -40 1 -41
33 l-2 32 -7 -35 -7 -35 -2 38 -1 37 95 -1 95 -1 1 -31z m-161 -82 c0 -46 -14
-46 -17 0 -1 19 2 35 8 35 5 0 9 -16 9 -35z m17 -2 c-3 -10 -5 -4 -5 12 0 17
2 24 5 18 2 -7 2 -21 0 -30z m33 22 c0 -8 -4 -15 -10 -15 -5 0 -10 7 -10 15 0
8 5 15 10 15 6 0 10 -7 10 -15z m17 -22 c-3 -10 -5 -4 -5 12 0 17 2 24 5 18 2
-7 2 -21 0 -30z m26 17 c-3 -12 0 -20 6 -20 7 0 10 4 7 8 -2 4 -1 14 5 22 6
11 9 8 9 -12 0 -20 -5 -28 -17 -29 -15 0 -15 -2 2 -9 19 -8 19 -9 -2 -9 -20
-1 -23 4 -23 34 0 19 4 35 9 35 5 0 7 -9 4 -20z m44 -17 c-3 -10 -5 -4 -5 12
0 17 2 24 5 18 2 -7 2 -21 0 -30z m33 12 c0 -14 -4 -25 -8 -25 -4 0 -9 11 -10
25 -1 14 3 25 8 25 6 0 10 -11 10 -25z m-153 -207 c-2 -35 -3 -9 -3 57 0 66 1
94 3 63 2 -32 2 -86 0 -120z m-17 -28 c0 -99 -4 -180 -8 -180 -4 0 -8 81 -8
180 0 99 4 180 8 180 4 0 8 -81 8 -180z m67 88 c-2 -18 -4 -4 -4 32 0 36 2 50
4 33 2 -18 2 -48 0 -65z m32 22 c5 0 8 16 6 35 -1 19 2 35 7 35 4 0 8 -27 8
-60 0 -47 -3 -60 -15 -60 -11 0 -15 -11 -15 -40 0 -22 4 -40 9 -40 5 0 8 16 6
35 -1 19 2 35 7 35 4 0 8 -18 8 -40 0 -33 -3 -40 -20 -40 -19 0 -20 6 -18 108
1 59 3 90 5 70 2 -21 8 -38 12 -38z m38 -87 c-2 -32 -3 -8 -3 52 0 61 1 87 3
58 2 -29 2 -78 0 -110z m33 107 c0 -65 -14 -65 -18 0 -1 29 2 50 8 50 5 0 10
-22 10 -50z m-120 10 c0 -11 -4 -20 -10 -20 -5 0 -10 9 -10 20 0 11 5 20 10
20 6 0 10 -9 10 -20z m119 -120 c1 -27 -2 -50 -7 -50 -5 0 -9 23 -11 50 -1 28
2 50 7 50 5 0 9 -22 11 -50z m-121 0 c1 -16 -2 -30 -8 -30 -5 0 -10 14 -10 30
0 17 4 30 8 30 4 0 9 -13 10 -30z m19 -32 c-2 -13 -4 -3 -4 22 0 25 2 35 4 23
2 -13 2 -33 0 -45z m3 -98 l0 -70 -30 0 -30 0 2 63 2 62 3 -57 c3 -50 7 -58
23 -58 18 0 20 7 20 65 0 36 2 65 5 65 3 0 5 -31 5 -70z m43 63 c-7 -2 -19 -2
-25 0 -7 3 -2 5 12 5 14 0 19 -2 13 -5z m-3 -21 c-18 -8 -27 -62 -10 -62 6 0
9 3 7 8 -3 4 -1 16 4 27 6 16 8 14 8 -12 1 -25 -4 -33 -16 -34 -17 -1 -17 -2
0 -6 24 -6 22 -33 -3 -33 -18 0 -20 7 -20 60 0 56 2 60 23 59 16 0 18 -2 7 -7z
m27 -84 c-2 -18 -4 -4 -4 32 0 36 2 50 4 33 2 -18 2 -48 0 -65z m-87 52 c0
-11 -4 -20 -10 -20 -5 0 -10 9 -10 20 0 11 5 20 10 20 6 0 10 -9 10 -20z m120
-30 c0 -27 -4 -50 -9 -50 -4 0 -9 23 -10 50 0 28 4 50 9 50 6 0 10 -22 10 -50z"/>
<path d="M2362 1555 c0 -16 2 -22 5 -12 2 9 2 23 0 30 -3 6 -5 -1 -5 -18z"/>
<path d="M2412 1555 c0 -16 2 -22 5 -12 2 9 2 23 0 30 -3 6 -5 -1 -5 -18z"/>
<path d="M2391 1544 c0 -11 3 -14 6 -6 3 7 2 16 -1 19 -3 4 -6 -2 -5 -13z"/>
<path d="M2491 1544 c0 -11 3 -14 6 -6 3 7 2 16 -1 19 -3 4 -6 -2 -5 -13z"/>
<path d="M1595 1580 c-18 -8 -17 -9 8 -9 16 -1 26 3 22 9 -3 6 -7 10 -8 9 -1
0 -11 -4 -22 -9z"/>
<path d="M1675 1567 c-4 -10 -5 -21 -1 -24 10 -10 18 4 13 24 -4 17 -4 17 -12
0z"/>
<path d="M2250 1510 c-13 -8 -12 -10 3 -10 9 0 17 5 17 10 0 12 -1 12 -20 0z"/>
<path d="M2207 1479 c-4 -16 -3 -18 9 -8 7 6 11 15 8 20 -8 13 -11 11 -17 -12z"/>
<path d="M2240 1450 c0 -12 7 -20 16 -20 13 0 14 3 5 13 -6 8 -8 17 -4 20 3 4
1 7 -5 7 -7 0 -12 -9 -12 -20z"/>
<path d="M2680 1415 c-7 -9 -10 -18 -7 -21 3 -3 10 4 17 15 13 25 8 27 -10 6z"/>
<path d="M2909 1403 c-13 -17 -13 -17 6 -3 11 8 22 16 24 17 2 2 0 3 -6 3 -6
0 -17 -8 -24 -17z"/>
<path d="M2233 1387 c9 -15 9 -21 0 -24 -7 -3 -13 -10 -13 -16 0 -6 12 0 27
14 14 13 23 18 18 10 -5 -9 -4 -12 3 -7 17 10 15 26 -3 26 -8 0 -15 4 -15 8 0
5 -6 9 -14 9 -11 0 -12 -4 -3 -20z"/>
<path d="M2640 1385 c-11 -13 -10 -14 4 -9 9 3 16 10 16 15 0 13 -6 11 -20 -6z"/>
<path d="M2679 1215 c-2 -67 -3 -153 -1 -193 3 -62 6 -72 22 -72 11 0 33 19
51 45 18 25 35 45 38 44 3 0 20 -19 36 -42 17 -23 38 -43 48 -45 14 -3 17 5
17 55 l0 58 -91 -3 c-56 -2 -96 1 -102 7 -8 8 19 11 94 11 l104 0 0 124 c0 68
-1 124 -2 123 0 -1 -11 -30 -22 -64 -25 -75 -29 -168 -6 -160 8 4 17 2 20 -3
4 -6 -36 -10 -102 -10 -70 0 -103 4 -93 9 8 6 18 7 23 4 13 -8 2 125 -15 182
l-16 50 -3 -120z m74 -182 c-3 -7 -10 -10 -16 -6 -6 3 -7 1 -3 -6 9 -13 -12
-43 -24 -36 -10 6 -1 47 12 56 16 11 36 6 31 -8z m108 8 c5 -1 5 -17 0 -55 -1
-8 -51 51 -51 60 0 1 38 -2 51 -5z"/>
<path d="M2766 1262 c-18 -36 -26 -67 -26 -104 l0 -53 50 3 50 4 0 42 c0 24
-11 69 -24 101 l-24 59 -26 -52z m44 -32 c1 -8 2 -34 1 -56 -1 -36 -4 -42 -26
-46 -24 -5 -25 -4 -22 47 2 29 8 60 15 68 6 7 10 16 8 19 -1 3 3 0 10 -6 7 -6
13 -18 14 -26z"/>
<path d="M1941 1284 c0 -11 3 -14 6 -6 3 7 2 16 -1 19 -3 4 -6 -2 -5 -13z"/>
<path d="M2195 1290 c-3 -5 -1 -10 4 -10 6 0 11 5 11 10 0 6 -2 10 -4 10 -3 0
-8 -4 -11 -10z"/>
<path d="M2260 1266 c0 -8 4 -17 8 -20 4 -2 8 4 8 15 0 10 -4 19 -8 19 -4 0
-8 -6 -8 -14z"/>
<path d="M2230 1250 c-9 -6 -10 -10 -3 -10 6 0 15 5 18 10 8 12 4 12 -15 0z"/>
<path d="M2275 1220 c-3 -6 1 -7 9 -4 18 7 21 14 7 14 -6 0 -13 -4 -16 -10z"/>
<path d="M2047 1171 c-7 -28 -1 -31 65 -31 55 0 58 1 58 25 0 24 -3 25 -59 25
-50 0 -59 -3 -64 -19z m30 -13 c-3 -8 -6 -5 -6 6 -1 11 2 17 5 13 3 -3 4 -12
1 -19z m30 0 c-3 -8 -6 -5 -6 6 -1 11 2 17 5 13 3 -3 4 -12 1 -19z m30 0 c-3
-8 -6 -5 -6 6 -1 11 2 17 5 13 3 -3 4 -12 1 -19z"/>
<path d="M2250 1180 c0 -5 5 -10 11 -10 5 0 7 5 4 10 -3 6 -8 10 -11 10 -2 0
-4 -4 -4 -10z"/>
<path d="M2238 1139 c-7 -18 28 -24 38 -7 5 7 1 9 -9 5 -9 -3 -17 -1 -20 6 -2
7 -5 5 -9 -4z"/>
<path d="M2294 1051 c-8 -9 -4 -111 5 -111 6 0 12 24 14 53 l3 52 2 -52 c1
-29 7 -53 12 -53 6 0 11 24 12 53 l1 52 7 -55 7 -55 1 53 c1 28 6 52 11 52 6
0 12 -24 14 -52 l3 -53 2 53 c1 28 6 52 10 52 4 0 6 -16 4 -35 -2 -19 -1 -43
4 -52 6 -13 10 -2 14 37 l7 55 1 -53 c1 -36 6 -51 13 -46 7 4 9 24 6 50 -2 24
-1 44 4 44 4 0 10 -24 12 -52 l3 -53 2 53 c1 29 7 52 13 52 6 0 10 -18 9 -42
-3 -66 2 -69 10 -8 l7 55 1 -52 c1 -29 7 -53 12 -53 6 0 11 24 12 53 l1 52 7
-55 c8 -61 13 -58 10 8 -2 61 18 52 23 -10 l3 -53 2 57 2 57 -141 3 c-77 2
-143 1 -145 -1z"/>
<path d="M2751 979 c-18 -21 -40 -39 -47 -39 -14 0 -15 -9 -15 -180 0 -38 0
-110 0 -160 l1 -90 100 0 100 0 1 93 c0 50 0 124 -2 162 -1 39 -3 92 -3 119
-1 34 -7 51 -16 54 -8 2 -31 21 -50 42 l-35 38 -34 -39z m81 -26 c38 -34 11
-103 -41 -103 -32 0 -44 8 -60 38 -12 23 -1 58 23 74 19 13 59 9 78 -9z m44
-116 c4 -4 -34 -7 -85 -7 -51 0 -90 3 -88 8 6 9 163 9 173 -1z m-131 -63 c0
-30 -4 -40 -18 -42 -16 -3 -18 2 -16 35 3 46 7 55 22 50 7 -2 12 -21 12 -43z
m115 31 c3 -2 4 -19 2 -39 -3 -25 -9 -34 -21 -33 -14 1 -17 8 -14 30 2 20 -3
34 -15 43 -15 12 -14 13 12 8 16 -3 32 -7 36 -9z m-60 -43 c0 -28 -4 -39 -15
-39 -11 0 -15 11 -15 39 0 27 4 38 15 38 11 0 15 -11 15 -38z m77 -67 c0 -12
-17 -15 -91 -14 -50 0 -85 3 -77 6 11 5 11 7 0 14 -9 5 22 9 77 9 74 0 91 -3
91 -15z m-138 -92 c1 -37 4 -70 7 -75 6 -10 1 -10 -20 -2 -20 8 -23 129 -3
137 6 3 12 6 13 6 0 1 2 -29 3 -66z m70 53 c10 -12 7 -15 -18 -14 -30 1 -38 8
-24 21 11 11 30 8 42 -7z m52 -38 c5 -60 0 -98 -14 -98 -10 0 -13 38 -7 133 0
4 4 7 9 7 5 0 11 -19 12 -42z m-83 -38 c1 -27 -3 -50 -9 -50 -5 0 -9 23 -9 50
0 28 4 50 9 50 5 0 9 -22 9 -50z m39 30 c1 -11 -4 -20 -13 -20 -8 0 -14 9 -14
20 0 11 6 20 13 20 7 0 13 -9 14 -20z m3 -55 c0 -16 -6 -25 -15 -25 -9 0 -15
9 -15 25 0 16 6 25 15 25 9 0 15 -9 15 -25z"/>
<path d="M2756 944 c-23 -23 -20 -51 8 -69 45 -30 91 16 61 61 -18 28 -47 31
-69 8z m49 -18 c8 4 15 1 15 -6 0 -20 -45 -6 -48 15 -2 18 -2 18 8 3 6 -9 17
-15 25 -12z"/>
<path d="M560 961 c0 -6 5 -13 10 -16 6 -3 10 1 10 9 0 9 -4 16 -10 16 -5 0
-10 -4 -10 -9z"/>
<path d="M2088 963 c6 -2 18 -2 25 0 6 3 1 5 -13 5 -14 0 -19 -2 -12 -5z"/>
<path d="M1300 956 c0 -2 7 -7 16 -10 8 -3 12 -2 9 4 -6 10 -25 14 -25 6z"/>
<path d="M625 939 c-4 -6 -5 -12 -2 -15 2 -3 7 2 10 11 7 17 1 20 -8 4z"/>
<path d="M1200 914 c0 -8 5 -12 10 -9 6 3 10 10 10 16 0 5 -4 9 -10 9 -5 0
-10 -7 -10 -16z"/>
<path d="M1310 916 c0 -8 4 -17 9 -20 5 -4 7 3 4 14 -6 23 -13 26 -13 6z"/>
<path d="M1150 900 c-9 -6 -10 -10 -3 -10 6 0 15 5 18 10 8 12 4 12 -15 0z"/>
<path d="M1871 887 c-1 -25 -17 -69 -39 -107 -38 -64 -42 -81 -42 -172 1 -58
6 -102 14 -117 12 -22 14 -18 15 49 1 42 -3 78 -10 86 -9 11 -8 14 5 14 12 0
14 5 6 25 -6 16 -6 25 0 25 6 0 8 10 5 23 -6 21 -3 22 50 22 52 0 56 -1 50
-22 -3 -12 0 -23 8 -26 9 -4 9 -6 0 -6 -20 -1 -16 -41 5 -41 16 -1 16 -1 0
-14 -24 -18 -26 -116 -3 -116 11 0 15 14 17 58 1 31 3 75 4 97 1 43 -18 97
-49 131 -10 12 -22 44 -26 70 -6 31 -9 39 -10 21z m29 -128 c0 -5 -11 -9 -25
-9 -27 0 -32 9 -13 28 12 12 38 -1 38 -19z"/>
<path d="M2270 895 c-17 -10 -20 -14 -9 -15 9 0 22 7 29 15 15 18 12 18 -20 0z"/>
<path d="M2311 880 c-1 -19 -8 -46 -16 -60 -40 -68 -58 -119 -57 -155 0 -22 1
-66 1 -97 1 -45 4 -58 16 -58 23 0 21 98 -2 116 -17 13 -17 13 0 14 20 0 24
40 5 40 -10 0 -9 3 1 9 7 5 11 17 7 27 -5 17 -1 19 49 16 51 -4 55 -2 55 19 0
12 -7 30 -16 40 -9 10 -22 42 -29 71 -12 49 -13 50 -14 18z m27 -113 c3 -12
-3 -17 -22 -17 -14 0 -28 5 -32 12 -4 7 -3 8 4 4 7 -4 12 -1 12 9 0 22 34 15
38 -8z"/>
<path d="M167 855 c-2 -25 -12 -54 -21 -64 -9 -10 -16 -27 -16 -39 0 -20 5
-22 50 -22 45 0 50 2 50 22 0 12 -7 29 -16 39 -9 10 -19 39 -21 64 -3 25 -9
45 -13 45 -4 0 -10 -20 -13 -45z m43 -97 c0 -11 -48 -10 -55 2 -3 6 1 13 9 16
9 3 13 11 9 18 -3 6 3 2 15 -8 12 -11 22 -23 22 -28z"/>
<path d="M616 865 c-4 -22 -16 -52 -27 -67 -10 -15 -19 -37 -19 -49 0 -19 4
-21 55 -17 50 3 54 1 49 -16 -4 -10 0 -22 7 -27 10 -6 11 -9 2 -9 -20 0 -16
-40 5 -40 16 -1 16 -1 0 -14 -20 -15 -25 -99 -8 -126 15 -25 19 -8 21 100 3
107 -9 160 -47 201 -8 9 -18 36 -23 60 l-8 44 -7 -40z m24 -93 c0 -11 -8 -18
-20 -19 -22 -2 -26 17 -8 35 14 14 28 6 28 -16z"/>
<path d="M1049 843 c-13 -17 -13 -17 6 -3 11 8 22 16 24 17 2 2 0 3 -6 3 -6 0
-17 -8 -24 -17z"/>
<path d="M971 841 c-8 -5 -21 -7 -30 -4 -12 5 -13 3 -5 -6 9 -10 18 -10 40 3
16 8 25 15 19 15 -5 1 -16 -3 -24 -8z"/>
<path d="M826 805 c4 -8 10 -12 15 -9 11 6 2 24 -11 24 -5 0 -7 -7 -4 -15z"/>
<path d="M700 798 c0 -4 9 -8 20 -8 11 0 20 4 20 8 0 4 -9 8 -20 8 -11 0 -20
-4 -20 -8z"/>
<path d="M1037 794 c3 -9 9 -12 12 -7 3 4 10 11 15 16 5 4 0 7 -12 7 -15 0
-20 -4 -15 -16z"/>
<path d="M756 785 c-19 -15 -19 -15 3 -15 12 0 20 4 17 9 -4 5 0 12 6 14 7 3
9 6 3 6 -5 0 -19 -6 -29 -14z"/>
<path d="M378 759 c-10 -10 -13 -19 -7 -19 6 0 9 -8 7 -18 -4 -15 1 -19 23
-19 33 0 43 31 19 60 -18 21 -20 20 -42 -4z"/>
<path d="M1075 770 c-3 -5 -1 -10 4 -10 6 0 11 5 11 10 0 6 -2 10 -4 10 -3 0
-8 -4 -11 -10z"/>
<path d="M850 750 c0 -5 5 -10 10 -10 6 0 10 5 10 10 0 6 -4 10 -10 10 -5 0
-10 -4 -10 -10z"/>
<path d="M1020 751 c0 -5 -9 -11 -20 -14 -11 -3 -20 -13 -20 -23 0 -15 2 -16
13 -3 6 8 21 22 32 32 10 9 14 17 7 17 -7 0 -12 -4 -12 -9z"/>
<path d="M238 734 c-3 -15 -11 -18 -48 -16 -44 3 -45 2 -47 -27 -2 -30 -1 -31
38 -31 39 0 41 1 35 25 -6 24 -5 25 14 13 11 -7 16 -14 10 -16 -13 -5 -13 -42
0 -42 6 0 10 -5 10 -11 0 -5 -4 -7 -10 -4 -6 4 -10 -17 -10 -54 0 -48 3 -61
15 -61 12 0 15 13 16 58 0 31 1 75 2 97 2 44 -18 102 -25 69z m-54 -54 c-10
-4 -21 -6 -24 -3 -8 7 24 22 34 16 5 -4 1 -10 -10 -13z"/>
<path d="M2197 731 c-4 -17 -3 -21 5 -13 5 5 8 16 6 23 -3 8 -7 3 -11 -10z"/>
<path d="M545 721 c-9 -29 5 -211 16 -211 14 0 11 104 -3 118 -9 9 -8 12 5 12
13 0 15 4 7 25 -6 16 -6 25 0 25 14 0 12 13 -4 35 -13 18 -14 18 -21 -4z"/>
<path d="M2370 720 c-9 -17 -10 -25 -2 -28 7 -2 8 -11 2 -28 -8 -19 -6 -24 7
-24 13 0 14 -3 5 -12 -7 -7 -12 -42 -12 -87 0 -94 -12 -86 -15 11 -2 40 -3 79
-4 86 0 7 -15 12 -35 12 l-33 0 -2 -81 c-1 -44 -5 -87 -8 -95 -8 -22 -22 -17
-16 6 3 11 1 20 -3 20 -5 0 -10 -25 -12 -55 l-3 -55 69 0 70 0 6 48 c13 99 18
270 8 288 -9 16 -11 15 -22 -6z m-30 -154 c0 -41 -1 -43 -25 -38 -20 3 -25 10
-25 34 0 19 4 27 12 22 7 -5 8 -3 3 6 -8 13 13 32 27 24 4 -3 8 -25 8 -48z
m-2 -124 c3 -39 1 -42 -22 -42 -22 0 -26 4 -26 30 0 24 4 30 23 31 17 1 18 2
4 6 -9 2 -15 9 -11 14 13 21 29 1 32 -39z"/>
<path d="M2321 574 c0 -11 3 -14 6 -6 3 7 2 16 -1 19 -3 4 -6 -2 -5 -13z"/>
<path d="M2321 434 c0 -11 3 -14 6 -6 3 7 2 16 -1 19 -3 4 -6 -2 -5 -13z"/>
<path d="M588 690 c4 -27 8 -30 38 -30 31 0 34 3 34 30 0 28 -2 30 -38 30 -37
0 -38 -1 -34 -30z m46 -8 c3 -5 -1 -9 -9 -9 -8 0 -15 4 -15 9 0 4 4 8 9 8 6 0
12 -4 15 -8z"/>
<path d="M1838 690 c4 -27 8 -30 38 -30 31 0 34 3 34 30 0 28 -2 30 -38 30
-37 0 -38 -1 -34 -30z m58 -2 c4 -7 4 -10 -1 -6 -4 4 -16 3 -26 -3 -11 -5 -19
-6 -19 -1 0 23 34 30 46 10z"/>
<path d="M2280 690 c0 -27 3 -30 34 -30 30 0 34 3 38 30 4 29 3 30 -34 30 -36
0 -38 -2 -38 -30z m48 -9 c3 -8 -1 -12 -9 -9 -7 2 -15 10 -17 17 -3 8 1 12 9
9 7 -2 15 -10 17 -17z"/>
<path d="M871 697 c-8 -11 -5 -14 18 -14 24 0 27 3 16 14 -8 7 -16 13 -18 13
-3 0 -10 -6 -16 -13z"/>
<path d="M810 696 c0 -2 9 -6 20 -9 11 -3 18 -1 14 4 -5 9 -34 13 -34 5z"/>
<path d="M945 690 c-16 -7 -17 -9 -3 -9 9 -1 20 4 23 9 7 11 7 11 -20 0z"/>
<path d="M734 679 c-5 -9 1 -10 20 -5 17 4 34 2 42 -5 12 -10 13 -9 8 5 -7 19
-59 22 -70 5z"/>
<path d="M1050 650 c-8 -5 -11 -12 -7 -16 4 -4 13 -2 19 4 15 15 7 24 -12 12z"/>
<path d="M586 613 c-3 -21 -5 -59 -4 -84 1 -48 -6 -69 -23 -69 -6 0 -7 5 -4
10 3 6 1 10 -4 10 -6 0 -11 -4 -11 -9 0 -5 -8 -12 -17 -14 -14 -4 -12 -5 4 -6
13 0 22 -4 21 -8 -1 -5 1 -18 6 -30 7 -21 14 -23 71 -23 l65 0 -7 33 c-3 17
-9 39 -14 48 -4 8 -9 52 -10 97 l-2 82 -33 0 c-30 0 -33 -3 -38 -37z m64 -54
c0 -21 -6 -28 -25 -31 -24 -5 -25 -3 -25 38 0 46 17 62 38 36 6 -9 12 -28 12
-43z m-10 -88 c5 -11 10 -31 10 -45 0 -21 -5 -26 -25 -26 -22 0 -25 4 -25 38
0 54 20 70 40 33z"/>
<path d="M612 570 c0 -14 2 -19 5 -12 2 6 2 18 0 25 -3 6 -5 1 -5 -13z"/>
<path d="M611 434 c0 -11 3 -14 6 -6 3 7 2 16 -1 19 -3 4 -6 -2 -5 -13z"/>
<path d="M1838 558 c-2 -61 -7 -93 -15 -96 -7 -2 -13 -19 -13 -38 l0 -34 65 0
c45 0 65 4 67 13 0 6 1 19 2 27 2 25 34 24 39 -2 4 -20 4 -20 6 5 1 24 -2 27
-33 27 -30 0 -34 4 -40 31 -3 17 -6 60 -6 95 l0 64 -34 0 -34 0 -4 -92z m62 2
c0 -34 -2 -37 -25 -32 -21 4 -25 10 -25 42 0 22 5 40 13 43 21 8 37 -14 37
-53z m-2 -118 c3 -39 1 -42 -22 -42 -23 0 -26 4 -26 38 0 43 7 54 30 50 10 -2
16 -17 18 -46z"/>
<path d="M1862 565 c0 -16 2 -22 5 -12 2 9 2 23 0 30 -3 6 -5 -1 -5 -18z"/>
<path d="M1882 565 c0 -16 2 -22 5 -12 2 9 2 23 0 30 -3 6 -5 -1 -5 -18z"/>
<path d="M1866 462 c7 -4 14 -18 17 -32 4 -21 4 -20 6 8 1 24 -3 32 -16 32
-12 0 -14 -3 -7 -8z"/>
<path d="M1862 430 c0 -14 2 -19 5 -12 2 6 2 18 0 25 -3 6 -5 1 -5 -13z"/>
<path d="M1010 621 c0 -10 19 -25 25 -20 1 2 -3 10 -11 17 -8 7 -14 8 -14 3z"/>
<path d="M2685 310 l0 -190 103 0 102 0 0 85 c0 77 -8 102 -25 75 -10 -17
-151 -12 -165 5 -11 13 0 15 89 15 l101 0 0 90 0 90 -97 2 -98 2 105 6 105 6
-110 2 -110 2 0 -190z m175 81 c0 -69 0 -70 -27 -71 -16 0 -48 -1 -73 -3 l-45
-2 -3 73 -3 72 76 0 75 0 0 -69z m-73 -150 c7 -9 13 -28 13 -43 0 -15 5 -30
10 -33 6 -4 10 10 10 34 0 25 -5 41 -12 41 -20 0 2 14 27 17 20 3 25 -1 26
-19 0 -13 1 -37 2 -55 2 -27 -2 -32 -25 -36 -16 -2 -28 -1 -28 3 0 4 -22 4
-50 0 l-50 -6 0 51 c0 28 2 54 5 57 12 12 60 5 72 -11z"/>
<path d="M2767 412 c-24 -26 -6 -80 26 -78 12 1 22 6 22 13 0 6 3 14 6 18 11
11 -6 60 -22 63 -9 1 -23 -6 -32 -16z m35 -36 c3 -24 0 -32 -9 -29 -14 6 -18
63 -4 63 5 0 11 -15 13 -34z"/>
<path d="M2766 228 c-13 -28 -3 -63 19 -66 13 -2 16 0 8 5 -6 5 -13 24 -15 43
-3 26 -6 31 -12 18z"/>
<path d="M2206 452 c7 -4 14 -16 17 -27 4 -15 5 -14 6 8 1 20 -4 27 -16 27
-12 0 -14 -3 -7 -8z"/>
<path d="M1961 424 c0 -11 3 -14 6 -6 3 7 2 16 -1 19 -3 4 -6 -2 -5 -13z"/>
<path d="M793 413 c53 -2 141 -2 195 0 53 1 9 3 -98 3 -107 0 -151 -2 -97 -3z"/>
<path d="M1508 413 c57 -2 147 -2 200 0 53 1 7 3 -103 3 -110 0 -154 -2 -97
-3z"/>
<path d="M557 333 c-3 -27 -3 -60 0 -75 5 -27 8 -28 67 -28 l61 0 -3 75 -4 75
-57 0 -58 0 -6 -47z m93 -44 c0 -21 -6 -28 -25 -31 -24 -5 -25 -3 -25 38 0 46
17 62 38 36 6 -9 12 -28 12 -43z"/>
<path d="M1810 305 l0 -75 64 0 c62 0 64 1 69 28 3 15 3 48 0 75 l-6 47 -63 0
-64 0 0 -75z m50 61 c0 -2 -6 -9 -14 -15 -11 -9 -16 -9 -22 0 -4 7 -3 9 4 5 6
-3 13 -2 17 4 6 10 15 14 15 6z m60 -11 c7 -9 8 -15 2 -15 -5 0 -12 7 -16 15
-3 8 -4 15 -2 15 2 0 9 -7 16 -15z m-20 -60 c0 -40 -2 -42 -25 -37 -21 4 -25
10 -25 42 0 22 5 40 13 43 25 9 37 -6 37 -48z"/>
<path d="M1862 295 c0 -16 2 -22 5 -12 2 9 2 23 0 30 -3 6 -5 -1 -5 -18z"/>
<path d="M1882 295 c0 -16 2 -22 5 -12 2 9 2 23 0 30 -3 6 -5 -1 -5 -18z"/>
<path d="M2011 348 c5 -10 11 -18 12 -18 2 0 3 8 3 18 0 10 -6 19 -13 19 -8 0
-9 -6 -2 -19z"/>
<path d="M2134 349 c-4 -7 -3 -9 4 -5 5 3 13 0 15 -6 4 -9 6 -10 6 -1 1 17
-16 25 -25 12z"/>
<path d="M1048 313 c6 -2 18 -2 25 0 6 3 1 5 -13 5 -14 0 -19 -2 -12 -5z"/>
<path d="M1982 295 c0 -16 2 -22 5 -12 2 9 2 23 0 30 -3 6 -5 -1 -5 -18z"/>
<path d="M50 159 c0 -5 5 -7 10 -4 6 3 10 8 10 11 0 2 -4 4 -10 4 -5 0 -10 -5
-10 -11z"/>
<path d="M2195 10 c-3 -5 -1 -10 4 -10 6 0 11 5 11 10 0 6 -2 10 -4 10 -3 0
-8 -4 -11 -10z"/>
</g>
</svg>
