<?xml version="1.0" standalone="no"?>
<!DOCTYPE svg PUBLIC "-//W3C//DTD SVG 20010904//EN"
 "http://www.w3.org/TR/2001/REC-SVG-20010904/DTD/svg10.dtd">
<svg version="1.0" xmlns="http://www.w3.org/2000/svg"
 width="300.000000pt" height="300.000000pt" viewBox="0 0 300.000000 300.000000"
 preserveAspectRatio="xMidYMid meet">
<metadata>
Created by potrace 1.10, written by Peter Selinger 2001-2011
</metadata>
<g transform="translate(0.000000,300.000000) scale(0.100000,-0.100000)"
fill="#000000" stroke="none">
<path d="M172 2824 c-7 -8 -8 -14 -3 -14 10 0 25 19 20 25 -2 1 -10 -3 -17
-11z"/>
<path d="M224 2806 c-31 -14 -44 -33 -44 -65 0 -31 25 -52 80 -70 41 -14 55
-23 55 -37 0 -28 -50 -32 -65 -5 -8 15 -21 21 -45 21 -44 0 -46 -20 -6 -61 26
-25 37 -29 86 -29 50 0 60 4 87 30 25 26 29 36 24 63 -8 39 -26 53 -94 73 -54
16 -65 36 -24 42 13 2 25 -3 28 -12 4 -11 19 -16 46 -16 33 0 39 3 34 16 -3 9
-6 20 -6 25 0 14 -64 39 -97 39 -15 -1 -42 -7 -59 -14z m1 -55 c-2 -22 2 -31
18 -35 12 -3 18 -8 14 -12 -11 -11 -59 26 -50 39 4 7 8 15 9 20 6 30 12 21 9
-12z m123 -79 c6 -18 -15 -14 -22 4 -4 10 -1 14 6 12 6 -2 14 -10 16 -16z m22
-27 c0 -9 -6 -12 -15 -9 -8 4 -12 10 -9 15 8 14 24 10 24 -6z m-133 -42 c0 -9
-4 -10 -14 -2 -7 6 -13 12 -13 14 0 1 6 2 13 2 8 0 14 -6 14 -14z"/>
<path d="M430 2688 l0 -128 35 0 35 0 0 59 c0 39 5 63 15 71 25 20 35 1 35
-66 l0 -64 38 0 37 0 -3 78 c-4 83 -19 112 -56 112 -12 0 -32 -7 -44 -16 -22
-15 -22 -15 -22 33 l0 48 -35 0 -35 0 0 -127z m55 34 c-3 -3 0 -11 5 -17 7 -9
6 -14 -4 -18 -9 -4 -15 2 -18 17 -3 14 0 23 9 23 7 0 11 -3 8 -5z m102 -24 c0
-13 -1 -17 -4 -10 -3 6 -10 9 -16 5 -7 -4 -6 1 2 10 17 21 17 21 18 -5z m0
-60 c-3 -7 -5 -2 -5 12 0 14 2 19 5 13 2 -7 2 -19 0 -25z"/>
<path d="M1370 2688 l0 -128 35 0 35 0 0 58 c0 60 12 84 36 75 10 -4 14 -24
14 -69 l0 -64 35 0 35 0 0 75 c0 62 -4 79 -20 95 -24 24 -63 26 -84 5 -8 -8
-16 -15 -18 -15 -2 0 -2 21 0 47 l4 48 -36 0 -36 0 0 -127z m48 11 c-18 -11
-32 6 -24 28 7 17 8 17 22 -1 11 -16 11 -21 2 -27z m112 -9 c0 -5 -4 -10 -10
-10 -5 0 -10 5 -10 10 0 6 5 10 10 10 6 0 10 -4 10 -10z m-128 -52 c-6 -6 -7
0 -4 19 5 21 7 23 10 9 2 -10 0 -22 -6 -28z"/>
<path d="M1840 2790 c0 -24 3 -26 35 -22 28 3 35 9 35 26 0 17 -6 21 -35 21
-31 0 -35 -3 -35 -25z"/>
<path d="M980 2769 c0 -5 5 -7 10 -4 6 3 10 8 10 11 0 2 -4 4 -10 4 -5 0 -10
-5 -10 -11z"/>
<path d="M703 2740 c-12 -5 -27 -19 -33 -31 -11 -20 -10 -21 27 -16 78 12 86
12 90 1 2 -7 -18 -17 -49 -24 -66 -16 -78 -25 -78 -61 0 -44 62 -65 113 -38
16 9 22 9 25 0 2 -6 18 -11 35 -11 l32 0 -6 72 c-7 87 -13 104 -42 112 -31 8
-88 6 -114 -4z m82 -119 c-8 -27 -58 -30 -53 -4 2 9 14 20 28 23 31 8 33 7 25
-19z"/>
<path d="M900 2653 l0 -93 35 0 35 0 0 58 c0 60 12 84 36 75 10 -4 14 -24 14
-69 l0 -64 35 0 35 0 0 79 c0 71 -2 82 -22 95 -28 20 -62 20 -82 1 -17 -18
-27 -19 -23 -4 1 6 -12 12 -31 13 l-32 1 0 -92z m150 58 c0 -6 -4 -12 -8 -15
-5 -3 -9 1 -9 9 0 8 4 15 9 15 4 0 8 -4 8 -9z m-107 -53 c-8 -72 -13 -73 -13
-5 0 32 4 57 10 57 5 0 7 -22 3 -52z"/>
<path d="M1150 2730 c-30 -30 -28 -109 3 -138 28 -26 64 -28 89 -5 17 15 18
15 18 -4 0 -10 -6 -28 -14 -39 -12 -15 -18 -17 -33 -8 -10 6 -33 15 -51 19
-28 6 -32 4 -32 -14 0 -31 38 -51 96 -51 36 0 59 6 75 19 22 18 24 28 27 128
l4 110 -36 -1 c-23 -1 -36 -6 -36 -14 0 -10 -5 -9 -22 2 -31 22 -64 20 -88 -4z
m100 -50 c16 -30 3 -60 -25 -60 -15 0 -26 7 -30 20 -8 24 10 60 30 60 8 0 19
-9 25 -20z m-63 -64 c0 -8 -6 -12 -15 -9 -11 5 -11 7 0 14 7 5 13 9 14 9 0 0
1 -6 1 -14z m99 -23 c-11 -11 -19 6 -11 24 8 17 8 17 12 0 3 -10 2 -21 -1 -24z
m14 -27 c0 -3 -4 -8 -10 -11 -5 -3 -10 -1 -10 4 0 6 5 11 10 11 6 0 10 -2 10
-4z"/>
<path d="M1640 2744 c-17 -7 -40 -33 -40 -46 0 -12 58 -10 79 4 19 12 51 5 51
-11 0 -5 -12 -12 -27 -15 -88 -22 -102 -28 -108 -47 -11 -34 20 -69 61 -69 19
0 44 5 55 10 13 7 19 7 19 0 0 -5 15 -10 33 -10 l34 0 -5 78 c-2 45 -10 83
-18 91 -13 15 -108 25 -134 15z m123 -74 c-6 -23 -20 -27 -20 -5 0 8 5 15 11
15 6 0 5 5 -2 12 -7 7 -12 17 -12 23 0 5 7 2 14 -8 8 -10 12 -27 9 -37z m-33
-33 c0 -20 -22 -37 -47 -37 -32 0 -29 26 5 38 37 14 42 14 42 -1z m27 -12 c0
-8 -4 -12 -9 -9 -5 3 -6 10 -3 15 9 13 12 11 12 -6z"/>
<path d="M1840 2653 l0 -93 35 0 35 0 0 93 0 92 -35 0 -35 0 0 -92z"/>
<path d="M1126 2478 c3 -5 10 -6 15 -3 13 9 11 12 -6 12 -8 0 -12 -4 -9 -9z"/>
<path d="M827 2423 c-4 -3 -7 -68 -7 -143 0 -92 -4 -140 -12 -148 -9 -9 -9
-15 0 -24 18 -18 16 -118 -3 -118 -30 0 -44 -79 -15 -88 6 -2 10 -65 10 -163
0 -147 -2 -162 -21 -188 -12 -16 -18 -34 -15 -40 4 -6 34 -11 67 -11 38 0 58
-4 54 -10 -8 -13 -81 -13 -106 0 -19 11 -28 -3 -9 -15 13 -8 1 -35 -16 -35
-13 0 -18 -11 -15 -36 1 -6 -6 -17 -14 -24 -12 -10 -15 -10 -15 4 0 26 -46 66
-75 66 -36 0 -73 -41 -81 -89 -8 -53 -30 -53 -38 0 -8 48 -45 89 -81 89 -28 0
-75 -40 -75 -65 0 -8 -5 -15 -11 -15 -7 0 -9 -10 -7 -25 5 -24 3 -25 -38 -25
l-44 0 0 -73 0 -72 45 3 45 4 -6 -31 c-4 -18 -2 -31 4 -31 5 0 13 -11 16 -25
9 -34 57 -58 90 -45 32 12 66 65 66 103 0 17 5 27 15 27 9 0 15 -10 15 -26 0
-42 29 -92 59 -102 42 -15 90 9 98 49 6 30 7 31 20 14 7 -11 13 -26 13 -36 0
-9 10 -23 22 -31 20 -13 21 -17 9 -32 -13 -16 -12 -17 15 -10 16 4 36 8 44 8
8 0 28 -4 44 -8 27 -7 28 -6 16 9 -13 15 -11 20 13 37 15 11 24 24 21 30 -3 5
1 17 9 26 8 9 22 31 30 47 16 29 16 26 17 -86 0 -109 1 -117 24 -138 14 -13
29 -20 35 -16 7 4 11 -4 11 -19 0 -52 62 -76 68 -26 4 28 22 52 22 30 0 -8 18
-25 40 -37 l40 -21 0 32 c0 25 6 36 25 46 19 10 25 21 25 47 0 18 4 33 9 33 5
0 11 7 15 15 4 13 2 14 -14 5 -11 -6 -20 -19 -20 -30 0 -29 -11 -51 -23 -43
-5 3 -7 2 -4 -4 3 -5 -3 -17 -14 -27 -12 -9 -18 -23 -16 -30 4 -11 -1 -11 -24
1 -33 17 -48 35 -31 41 7 2 12 11 11 20 0 11 -2 12 -6 5 -3 -9 -28 -13 -76
-12 -40 0 -67 2 -62 5 6 2 9 46 8 106 -3 133 -3 138 -13 108 l-8 -25 -1 27
c-1 22 -5 26 -23 23 -12 -3 -26 0 -33 5 -6 5 -31 7 -55 4 -25 -2 -77 -5 -117
-5 l-72 -1 6 -30 c4 -22 3 -29 -5 -24 -7 4 -10 2 -7 -6 8 -20 -37 -64 -63 -62
-22 1 -46 17 -48 32 0 4 -6 26 -13 50 -8 30 -17 42 -30 42 -20 0 -45 -23 -35
-33 3 -3 -2 -17 -11 -31 -10 -14 -14 -26 -10 -26 5 0 -2 -9 -15 -20 -25 -22
-50 -26 -50 -9 0 5 -4 8 -10 4 -11 -7 -39 45 -42 80 -2 21 -10 28 -43 37 -22
6 -41 12 -41 12 -1 1 -5 11 -8 24 l-7 22 288 0 288 0 -3 46 c-3 37 0 50 19 70
12 13 26 24 30 24 5 0 49 -65 49 -73 0 -1 -20 -1 -45 1 -44 4 -45 4 -45 -26 0
-17 5 -34 12 -38 15 -10 198 -11 204 -2 3 5 -7 8 -22 8 l-27 0 23 25 c31 33
40 32 40 -9 0 -34 0 -34 36 -26 43 10 59 29 40 49 -18 17 -39 4 -33 -20 6 -23
-8 -25 -17 -3 -4 9 -1 23 5 30 9 11 5 14 -26 14 -27 0 -44 -7 -61 -25 -26 -28
-34 -31 -34 -12 0 23 17 39 51 47 32 7 32 8 7 9 -16 1 -28 6 -28 11 0 6 28 10
65 10 68 0 93 -19 28 -21 l-38 -2 40 -6 c22 -4 46 -10 53 -14 17 -11 15 -37
-4 -58 -14 -16 -14 -17 3 -14 10 2 21 4 25 4 3 1 9 9 11 19 4 16 5 16 6 0 0
-10 4 -18 9 -19 4 0 15 -2 25 -4 21 -4 23 11 1 19 -9 3 -14 15 -12 28 2 18 9
23 33 23 32 0 47 -27 26 -48 -9 -9 -11 -5 -9 13 2 16 -3 25 -13 28 -25 5 -29
-21 -8 -47 20 -25 59 -22 59 5 0 8 5 12 10 9 6 -4 2 8 -8 26 -12 22 -27 34
-46 36 -31 4 -70 -22 -59 -41 4 -6 -7 3 -23 19 -27 28 -28 49 -1 27 8 -7 18
-6 31 4 26 18 70 18 86 -1 12 -14 15 -14 31 1 9 8 26 14 36 11 15 -3 13 -6 -9
-15 -34 -14 -36 -44 -5 -65 l22 -16 -28 0 c-16 -1 -26 -5 -23 -10 3 -4 24 -7
46 -5 24 2 40 -1 40 -8 0 -7 4 -7 13 0 17 14 229 13 220 -2 -5 -8 -2 -7 8 1 9
8 66 11 179 10 148 -2 167 0 183 16 10 10 16 25 13 34 -9 21 -31 10 -30 -16 1
-25 -11 -28 -21 -4 -4 12 1 24 16 36 20 16 23 16 40 1 25 -23 24 -43 -3 -53
-21 -8 -21 -10 -5 -16 21 -9 47 11 47 34 0 26 -28 59 -53 64 -20 3 -20 4 -4
11 12 6 24 3 36 -8 16 -15 19 -15 31 -1 16 19 44 19 60 0 7 -8 17 -15 23 -15
5 0 2 9 -9 21 -16 18 -26 20 -66 15 -45 -6 -48 -5 -54 20 -9 35 3 158 16 162
6 2 8 8 4 13 -3 5 4 9 16 9 18 0 19 -3 9 -22 -10 -18 -9 -20 6 -15 18 7 52
-19 40 -31 -3 -4 -11 1 -16 11 -6 9 -15 15 -20 11 -6 -4 1 -18 17 -35 26 -27
29 -28 51 -14 23 15 29 10 23 -20 -1 -5 1 -7 5 -3 4 4 14 0 22 -8 9 -8 12 -18
9 -22 -4 -3 -10 -1 -14 5 -5 8 -13 9 -22 3 -10 -7 -11 -10 -2 -10 6 0 12 -6
12 -13 0 -8 7 -14 15 -14 8 0 15 3 15 7 0 4 13 7 29 6 21 -1 27 -4 19 -13 -5
-6 -16 -9 -23 -7 -8 3 -22 1 -31 -4 -16 -9 -16 -10 2 -15 50 -16 81 9 64 53
-1 3 -1 10 0 15 9 43 8 54 -9 69 -16 14 -26 16 -56 7 -40 -11 -52 1 -42 39 3
11 1 20 -3 20 -5 0 -7 11 -5 25 1 14 -2 25 -6 25 -5 0 -9 5 -9 11 0 8 5 8 15
-1 8 -7 12 -17 8 -24 -5 -8 -3 -8 8 1 8 6 38 10 69 9 64 -3 82 2 73 18 -3 6
-3 8 1 5 4 -4 7 -76 7 -160 0 -84 4 -160 9 -169 10 -19 84 -26 109 -11 11 7
14 48 16 186 3 187 6 198 50 193 16 -2 21 -12 23 -43 2 -22 11 -48 20 -59 16
-17 15 -20 -15 -43 -31 -24 -32 -26 -17 -54 10 -21 11 -28 2 -27 -15 4 -22
-27 -12 -50 4 -9 6 -21 5 -26 -1 -5 5 -6 12 -3 8 3 19 1 25 -5 6 -6 15 -7 21
-4 15 9 14 39 -1 54 -10 10 -10 15 1 21 11 7 10 11 -5 19 -10 6 -15 14 -11 18
4 4 13 -1 21 -11 8 -11 18 -15 26 -10 9 5 11 4 6 -3 -4 -7 -2 -12 3 -12 6 0
11 -17 11 -38 0 -50 24 -72 76 -72 31 0 49 -7 74 -30 l34 -30 -325 2 c-250 2
-324 6 -325 16 -1 6 -2 17 -3 23 0 5 -6 7 -11 4 -6 -3 -7 -18 -4 -31 l7 -26
-27 27 c-27 27 -37 57 -12 36 10 -8 16 -9 21 -1 8 13 -20 24 -40 16 -19 -7
-19 -45 0 -52 18 -7 20 -26 3 -22 -7 2 -14 -1 -15 -6 -2 -4 168 -7 377 -7 329
2 380 0 380 -13 0 -18 -29 -48 -40 -41 -4 2 -19 -6 -34 -20 -18 -17 -40 -25
-73 -27 l-48 -3 -3 -45 c-2 -28 -11 -51 -23 -63 -10 -10 -19 -23 -19 -30 0 -7
-3 -23 -6 -37 -4 -20 -3 -22 5 -10 6 9 11 10 11 3 0 -19 -12 -43 -19 -39 -18
12 -35 -16 -37 -61 -1 -26 -2 -52 -3 -56 0 -5 -23 -7 -51 -4 -42 4 -50 2 -50
-12 0 -13 -10 -16 -53 -15 -48 0 -52 2 -51 24 1 15 -8 32 -24 44 -27 22 -62
30 -62 15 0 -5 9 -9 21 -9 29 0 49 -24 49 -59 l0 -31 71 0 c57 0 70 3 66 14
-8 21 2 26 30 15 13 -5 35 -6 49 -3 22 6 24 11 24 66 0 59 0 59 28 56 27 -3
27 -3 27 59 0 54 2 63 17 63 15 0 18 9 18 53 l0 53 65 -4 66 -4 -7 27 c-6 26
-6 27 32 23 l39 -3 3 73 2 72 -41 0 c-36 0 -40 2 -34 20 6 19 2 20 -59 20
l-66 0 0 55 c0 46 -3 55 -18 55 -16 0 -18 7 -14 61 l5 62 -32 -5 -31 -5 0 59
c0 53 -2 58 -25 64 -14 3 -36 3 -50 0 -20 -5 -25 -3 -25 14 0 18 -6 20 -70 20
l-70 0 0 -35 c0 -19 -4 -35 -10 -35 -5 0 -10 -7 -10 -15 0 -12 -14 -15 -70
-15 l-70 0 0 30 c0 29 -1 30 -49 30 -76 0 -81 -4 -81 -66 0 -39 -4 -56 -15
-60 -12 -5 -15 -27 -15 -111 l0 -105 -55 4 c-39 2 -55 -1 -55 -9 0 -7 -5 -13
-12 -13 -9 0 -9 -3 0 -12 18 -18 15 -65 -3 -65 -10 0 -14 6 -10 15 3 8 -2 25
-10 38 -30 46 -105 23 -105 -32 0 -33 -17 -22 -25 16 -6 27 -11 30 -44 30 -34
0 -38 3 -36 23 1 12 -1 31 -6 42 -5 13 -8 -8 -8 -57 -1 -48 -5 -78 -12 -78 -5
0 -7 5 -4 11 4 5 1 23 -5 40 -11 25 -18 29 -49 29 -44 0 -61 -14 -61 -52 0
-17 -5 -28 -13 -28 -21 0 -27 11 -16 31 7 15 6 17 -6 13 -8 -4 -15 -1 -15 5 0
6 8 11 18 11 32 1 52 25 52 64 0 34 1 36 34 36 49 0 57 -20 9 -21 -34 -2 -35
-2 -8 -6 48 -7 54 -23 9 -24 -33 -2 -35 -3 -9 -6 17 -3 34 -9 39 -14 20 -19
28 -8 23 31 -4 30 -2 40 9 40 8 0 14 4 14 9 0 6 15 12 33 14 l32 4 -32 1 c-18
1 -33 7 -33 13 0 6 16 9 37 7 30 -2 37 -7 38 -25 1 -20 -3 -23 -32 -23 -22 0
-32 -4 -28 -11 4 -5 19 -9 33 -7 24 3 27 0 24 -22 -1 -14 3 -34 11 -44 14 -19
14 -19 35 2 23 23 57 28 81 13 10 -6 21 -2 38 15 21 21 24 37 33 148 9 113 43
285 70 347 8 19 9 10 5 -36 -4 -56 -8 -213 -6 -243 1 -7 6 -10 11 -7 7 4 10
71 10 181 l-2 174 -24 -5 c-13 -3 -35 -7 -49 -10 l-25 -5 0 -235 c0 -194 -2
-235 -14 -235 -11 0 -14 29 -15 153 -1 119 -4 154 -15 162 -8 6 -18 29 -22 50
l-7 40 -10 -35 c-5 -19 -15 -42 -23 -51 -10 -11 -14 -47 -15 -132 0 -109 -2
-117 -20 -117 -18 0 -19 9 -19 144 0 154 -2 160 -50 145 -14 -4 -36 -10 -50
-13 l-25 -5 3 -136 c2 -93 0 -135 -8 -135 -7 0 -10 38 -8 120 3 109 1 121 -17
134 -11 9 -35 16 -52 16 l-33 0 -2 -162 c-1 -90 -3 -140 -5 -112 l-4 52 -54
-5 c-50 -5 -55 -4 -55 15 0 11 -7 22 -15 26 -10 3 -15 19 -15 46 0 39 -1 41
-27 38 l-28 -3 -5 -104 c-5 -102 -5 -103 -24 -82 -11 12 -16 29 -13 41 4 14
-3 26 -24 41 -21 15 -29 29 -29 50 l0 29 -40 -20 c-22 -11 -40 -25 -40 -30 0
-6 -5 -10 -11 -10 -6 0 -9 6 -6 14 8 21 -16 49 -39 45 -11 -3 -23 -17 -29 -37
-5 -17 -14 -32 -20 -32 -6 0 -21 -10 -33 -23 -20 -21 -22 -34 -22 -135 0 -108
-1 -112 -27 -137 -33 -31 -76 -31 -81 0 -3 19 -2 19 11 3 8 -10 19 -18 25 -18
6 0 15 8 21 18 5 9 13 16 18 14 4 -2 12 3 18 12 7 11 3 24 -13 46 -13 17 -25
40 -27 52 -3 11 -14 27 -25 35 -14 10 -18 18 -11 26 13 16 8 80 -7 85 -14 4
-17 338 -4 346 5 3 9 19 10 36 0 21 -6 35 -22 46 -19 12 -24 24 -24 61 -1 26
4 53 10 60 7 9 7 17 0 26 -6 7 -11 71 -11 151 -1 77 -3 141 -5 143 -1 2 -6 0
-9 -4z m13 -463 c0 -5 -4 -10 -10 -10 -5 0 -10 5 -10 10 0 6 5 10 10 10 6 0
10 -4 10 -10z m34 -42 c-7 -10 -65 -10 -81 0 -8 5 8 8 36 8 28 0 48 -3 45 -8z
m-29 -48 c0 -7 -6 -15 -12 -17 -8 -3 -13 4 -13 17 0 13 5 20 13 18 6 -3 12
-11 12 -18z m1141 4 c-3 -9 -6 -20 -6 -25 0 -5 -9 -9 -20 -9 -15 0 -20 7 -20
25 0 20 5 25 26 25 20 0 25 -4 20 -16z m-1139 -59 c0 -8 -6 -15 -14 -15 -7 0
-13 7 -13 15 0 8 6 15 13 15 8 0 14 -7 14 -15z m0 -50 c0 -8 -6 -15 -14 -15
-7 0 -13 7 -13 15 0 8 6 15 13 15 8 0 14 -7 14 -15z m887 -12 c-7 -26 -74 -27
-74 -1 0 14 8 18 39 18 32 0 38 -3 35 -17z m-124 -17 c0 -8 -14 -15 -35 -18
-29 -3 -35 -1 -35 14 0 14 8 18 35 18 23 0 35 -5 35 -14z m254 -156 c2 -85 6
-163 7 -173 3 -17 4 -17 16 -1 16 22 16 6 0 -21 -10 -16 -24 -20 -72 -22 l-61
-1 1 59 c0 51 2 59 19 59 11 0 28 7 38 17 15 14 18 32 18 128 0 61 3 115 7
119 17 16 22 -19 27 -164z m-1020 135 c3 -9 0 -15 -9 -15 -8 0 -15 7 -15 15 0
8 4 15 9 15 5 0 11 -7 15 -15z m886 -5 c0 -5 -15 -11 -32 -12 l-33 -1 33 -4
c43 -6 41 -23 -3 -23 -31 0 -35 3 -35 25 0 22 4 25 35 25 19 0 35 -4 35 -10z
m708 -7 c-16 -2 -40 -2 -55 0 -16 2 -3 4 27 4 30 0 43 -2 28 -4z m-828 -13 c0
-5 -16 -10 -35 -10 -19 0 -35 5 -35 10 0 6 16 10 35 10 19 0 35 -4 35 -10z
m844 -30 c0 -19 -5 -22 -47 -24 -42 -2 -47 1 -47 19 0 29 2 30 51 29 38 -1 43
-4 43 -24z m-1609 0 c0 -7 -6 -15 -12 -17 -8 -3 -13 4 -13 17 0 13 5 20 13 18
6 -3 12 -11 12 -18z m1315 -2 c0 -5 -4 -6 -10 -3 -5 3 -7 0 -4 -9 4 -10 -2
-17 -20 -22 -28 -7 -34 -19 -13 -27 6 -2 8 -8 4 -13 -4 -5 -12 -2 -16 5 -5 7
-13 11 -18 8 -5 -3 -7 10 -5 29 3 25 11 38 25 43 25 9 57 3 57 -11z m-550 2
c0 -5 -16 -10 -35 -10 -19 0 -35 5 -35 10 0 6 16 10 35 10 19 0 35 -4 35 -10z
m120 -10 c0 -5 -16 -10 -35 -10 -19 0 -35 5 -35 10 0 6 16 10 35 10 19 0 35
-4 35 -10z m-120 -20 c0 -5 -15 -11 -32 -12 l-33 -1 33 -4 c17 -2 32 -8 32
-14 0 -5 -15 -10 -32 -11 l-33 -1 33 -4 c43 -6 41 -23 -3 -23 -34 0 -35 1 -35
40 0 39 1 40 35 40 19 0 35 -4 35 -10z m-765 -20 c0 -7 -6 -15 -12 -17 -8 -3
-13 4 -13 17 0 13 5 20 13 18 6 -3 12 -11 12 -18z m885 -7 c0 -20 -5 -23 -35
-23 -30 0 -35 3 -35 23 0 19 5 22 35 22 30 0 35 -3 35 -22z m726 -5 c-2 -20
-10 -23 -49 -26 -44 -3 -47 -2 -47 22 0 24 3 26 50 26 46 0 50 -2 46 -22z
m-1256 -14 c0 -8 4 -14 9 -14 5 0 19 -19 30 -42 12 -24 27 -51 35 -60 16 -22
46 -23 46 -2 0 8 4 13 9 10 4 -3 7 26 6 64 -1 63 0 68 16 59 11 -5 16 -16 13
-24 -4 -9 1 -18 11 -21 10 -4 14 -12 9 -23 -3 -9 -6 -43 -5 -76 2 -83 -5 -90
-80 -88 -34 2 -69 -2 -79 -7 -13 -7 -24 -5 -42 10 -12 11 -18 19 -13 20 11 0
12 50 1 68 -3 6 -2 13 4 17 15 9 12 28 -2 19 -10 -5 -10 -4 -1 6 9 10 10 17 2
27 -7 7 -8 13 -4 13 4 0 2 6 -4 14 -10 12 -8 17 9 26 11 6 17 16 14 22 -4 7
-3 8 4 4 7 -4 12 -14 12 -22z m960 16 c0 -5 -4 -10 -10 -10 -5 0 -10 5 -10 10
0 6 5 10 10 10 6 0 10 -4 10 -10z m-1060 -10 c0 -5 -4 -10 -10 -10 -5 0 -10 5
-10 10 0 6 5 10 10 10 6 0 10 -4 10 -10z m-250 -46 c0 -9 5 -12 12 -8 7 4 8 3
4 -4 -9 -14 -52 -16 -61 -3 -7 12 24 43 36 36 5 -4 9 -13 9 -21z m880 9 c0 -8
-14 -14 -32 -15 l-33 -1 33 -4 c17 -2 32 -8 32 -13 0 -5 -8 -7 -18 -5 -10 2
-25 -1 -33 -6 -10 -6 -2 -9 24 -9 23 0 36 -4 32 -10 -3 -5 -22 -10 -41 -10
-33 0 -34 1 -34 43 0 41 0 42 35 42 21 0 35 -5 35 -12z m435 7 c3 -5 -1 -10
-10 -10 -9 0 -13 5 -10 10 3 6 8 10 10 10 2 0 7 -4 10 -10z m-1015 -14 c0 -13
-13 -16 -65 -16 -57 0 -75 6 -61 21 3 2 32 6 65 7 50 3 61 0 61 -12z m1310 4
c0 -5 -22 -10 -50 -10 -27 0 -50 5 -50 10 0 6 23 10 50 10 28 0 50 -4 50 -10z
m-848 -48 c5 -62 0 -72 -38 -72 -30 0 -34 3 -34 25 0 21 5 25 30 25 17 0 30 5
30 11 0 7 -12 10 -30 7 -26 -4 -30 -1 -30 19 0 20 5 23 34 23 32 0 34 -2 38
-38z m988 28 c0 -5 -4 -10 -10 -10 -5 0 -10 5 -10 10 0 6 5 10 10 10 6 0 10
-4 10 -10z m-435 -10 c-3 -5 -1 -10 4 -10 6 0 3 -8 -6 -18 -10 -10 -19 -18
-21 -17 -5 4 17 55 23 55 4 0 3 -4 0 -10z m293 -15 c0 -23 -4 -25 -49 -25 -46
0 -49 2 -49 25 0 23 3 25 49 25 45 0 49 -2 49 -25z m-1308 -25 l0 -40 -65 0
c-84 0 -86 19 -2 22 l62 1 -65 6 c-38 4 -60 9 -53 14 7 4 28 5 47 2 19 -4 43
-2 53 4 14 8 5 10 -44 11 -35 0 -63 4 -63 10 0 6 28 10 65 10 l65 0 0 -40z
m270 30 c0 -5 -4 -10 -10 -10 -5 0 -10 5 -10 10 0 6 5 10 10 10 6 0 10 -4 10
-10z m30 0 c0 -5 -4 -10 -10 -10 -5 0 -10 5 -10 10 0 6 5 10 10 10 6 0 10 -4
10 -10z m40 0 c0 -5 -4 -10 -10 -10 -5 0 -10 5 -10 10 0 6 5 10 10 10 6 0 10
-4 10 -10z m1077 -16 c-9 -9 -28 6 -21 18 4 6 10 6 17 -1 6 -6 8 -13 4 -17z
m-337 -15 c0 -5 -6 -9 -13 -9 -8 0 -14 6 -14 14 0 8 6 12 14 9 7 -3 13 -9 13
-14z m40 11 c0 -5 -4 -10 -9 -10 -6 0 -13 5 -16 10 -3 6 1 10 9 10 9 0 16 -4
16 -10z m-850 -10 c0 -5 -4 -10 -10 -10 -5 0 -10 5 -10 10 0 6 5 10 10 10 6 0
10 -4 10 -10z m30 0 c0 -5 -5 -10 -11 -10 -5 0 -7 5 -4 10 3 6 8 10 11 10 2 0
4 -4 4 -10z m40 0 c0 -5 -4 -10 -10 -10 -5 0 -10 5 -10 10 0 6 5 10 10 10 6 0
10 -4 10 -10z m964 -41 c0 -21 -3 -23 -42 -21 -25 2 -42 -1 -42 -7 0 -6 19
-11 44 -11 40 0 44 -2 44 -25 0 -23 -5 -25 -47 -27 l-46 -2 48 -3 c63 -5 61
-23 -3 -23 l-50 0 0 73 0 73 47 -2 c42 -2 47 -4 47 -25z m-179 11 c-3 -5 -10
-10 -16 -10 -5 0 -9 5 -9 10 0 6 7 10 16 10 8 0 12 -4 9 -10z m-1455 -42 c0
-39 -1 -41 -16 -26 -11 11 -14 25 -10 42 10 40 26 31 26 -16z m50 8 c0 -13 -7
-29 -15 -36 -13 -11 -15 -8 -14 21 2 19 4 37 6 42 8 14 23 -4 23 -27z m550 24
c0 -5 -4 -10 -10 -10 -5 0 -10 5 -10 10 0 6 5 10 10 10 6 0 10 -4 10 -10z m30
0 c0 -5 -4 -10 -10 -10 -5 0 -10 5 -10 10 0 6 5 10 10 10 6 0 10 -4 10 -10z
m40 0 c0 -5 -4 -10 -10 -10 -5 0 -10 5 -10 10 0 6 5 10 10 10 6 0 10 -4 10
-10z m1065 -10 c3 -5 -1 -10 -10 -10 -9 0 -13 5 -10 10 3 6 8 10 10 10 2 0 7
-4 10 -10z m-1875 -42 c0 -6 8 -20 18 -31 9 -11 11 -17 4 -13 -10 6 -9 -1 3
-24 9 -17 19 -30 21 -27 3 3 20 1 39 -3 21 -5 35 -4 37 2 2 6 9 3 16 -5 11
-13 -18 -15 -258 -16 -169 0 -270 3 -270 9 0 6 11 10 24 10 31 0 51 20 66 67
15 45 23 56 49 60 23 3 61 -40 61 -68 0 -23 29 -59 48 -59 7 0 26 27 41 60 15
34 30 58 34 54 4 -4 7 0 7 10 0 15 2 15 30 1 17 -9 30 -21 30 -27z m470 15 c0
-28 -1 -28 -62 -26 -54 1 -62 4 -65 22 -2 18 3 20 60 24 34 2 63 4 65 5 1 1 2
-10 2 -25z m270 7 c0 -5 -4 -10 -10 -10 -5 0 -10 5 -10 10 0 6 5 10 10 10 6 0
10 -4 10 -10z m30 0 c0 -5 -4 -10 -10 -10 -5 0 -10 5 -10 10 0 6 5 10 10 10 6
0 10 -4 10 -10z m40 0 c0 -5 -4 -10 -10 -10 -5 0 -10 5 -10 10 0 6 5 10 10 10
6 0 10 -4 10 -10z m34 -26 c3 -8 2 -12 -4 -9 -6 3 -10 10 -10 16 0 14 7 11 14
-7z m1066 6 c0 -5 -4 -10 -10 -10 -5 0 -10 5 -10 10 0 6 5 10 10 10 6 0 10 -4
10 -10z m-1793 -22 c37 -35 30 -48 -27 -48 l-50 0 22 35 c13 19 25 35 27 35 3
0 15 -10 28 -22z m623 12 c0 -5 -4 -10 -10 -10 -5 0 -10 5 -10 10 0 6 5 10 10
10 6 0 10 -4 10 -10z m35 0 c3 -5 -1 -10 -9 -10 -9 0 -16 5 -16 10 0 6 4 10 9
10 6 0 13 -4 16 -10z m35 0 c0 -5 -4 -10 -10 -10 -5 0 -10 5 -10 10 0 6 5 10
10 10 6 0 10 -4 10 -10z m30 -29 c0 -6 -4 -13 -10 -16 -5 -3 -10 0 -10 7 0 10
-3 9 -10 -2 -5 -8 -12 -11 -17 -7 -8 9 15 27 35 27 6 0 12 -4 12 -9z m-100
-11 c0 -5 -4 -10 -10 -10 -5 0 -10 5 -10 10 0 6 5 10 10 10 6 0 10 -4 10 -10z
m40 6 c0 -11 -19 -15 -25 -6 -3 5 1 10 9 10 9 0 16 -2 16 -4z m514 -7 c4 6 12
11 17 11 6 0 1 -12 -10 -26 -12 -15 -21 -35 -21 -45 0 -11 -7 -19 -15 -19 -10
0 -15 10 -15 30 0 17 5 30 10 30 6 0 10 8 10 18 0 13 2 14 9 3 6 -9 11 -10 15
-2z m-571 -27 c2 7 8 9 13 5 5 -4 2 -12 -5 -16 -9 -6 -10 -11 -2 -15 14 -9 14
-26 1 -26 -5 0 -10 6 -10 14 0 8 -9 18 -20 21 -11 3 -20 13 -20 22 0 14 2 14
19 -1 15 -13 20 -14 24 -4z m57 -22 c0 -16 -5 -30 -11 -30 -6 0 -9 9 -6 20 3
11 1 20 -4 20 -5 0 -9 5 -9 10 0 6 7 10 15 10 10 0 15 -10 15 -30z m155 8 c-1
-13 -3 -26 -4 -30 0 -5 -9 -8 -18 -8 -15 0 -15 2 -4 9 17 11 7 41 -13 41 -22
0 -29 -19 -14 -37 11 -14 11 -15 -2 -11 -8 2 -15 17 -16 31 -1 25 2 27 36 27
33 0 37 -3 35 -22z m105 3 c5 -11 10 -26 10 -33 -1 -7 -7 -2 -15 12 -16 30
-28 29 -37 -2 -6 -22 -6 -22 -7 3 -2 42 30 55 49 20z m138 -13 c2 -16 -2 -28
-8 -28 -6 0 -10 6 -9 13 5 36 -4 44 -30 28 -12 -8 -12 -12 -2 -25 10 -11 10
-16 2 -16 -15 0 -25 26 -17 46 4 10 15 14 33 12 22 -2 29 -9 31 -30z m-1038
-126 c0 -17 -47 -71 -52 -61 -2 2 -13 18 -26 36 -12 18 -22 35 -22 38 0 3 23
5 50 5 42 0 50 -3 50 -18z m120 12 c0 -5 -19 -35 -46 -72 -6 -9 -54 44 -54 60
0 15 8 18 50 18 28 0 50 -3 50 -6z m67 -76 c-3 -7 -5 -2 -5 12 0 14 2 19 5 13
2 -7 2 -19 0 -25z m-174 -61 c7 -5 2 -5 -12 -2 -18 6 -22 4 -16 -6 5 -8 5 -11
0 -7 -14 13 -16 70 -3 86 11 13 14 9 16 -24 2 -21 9 -42 15 -47z m32 63 c8
-25 -3 -62 -16 -55 -12 8 -12 75 0 75 5 0 13 -9 16 -20z m142 -112 c-2 -18 -4
-6 -4 27 0 33 2 48 4 33 2 -15 2 -42 0 -60z m123 -68 c0 -5 -4 -10 -10 -10 -5
0 -10 -9 -10 -19 0 -28 -21 -37 -37 -16 -25 35 -17 55 22 55 19 0 35 -4 35
-10z"/>
<path d="M1688 1753 c6 -2 18 -2 25 0 6 3 1 5 -13 5 -14 0 -19 -2 -12 -5z"/>
<path d="M2380 1658 c0 -12 48 -10 55 2 4 6 -5 10 -24 8 -17 -1 -31 -6 -31
-10z"/>
<path d="M1688 1603 c6 -2 18 -2 25 0 6 3 1 5 -13 5 -14 0 -19 -2 -12 -5z"/>
<path d="M2388 1593 c12 -2 30 -2 40 0 9 3 -1 5 -23 4 -22 0 -30 -2 -17 -4z"/>
<path d="M1560 1520 c0 -5 7 -10 15 -10 8 0 15 5 15 10 0 6 -7 10 -15 10 -8 0
-15 -4 -15 -10z"/>
<path d="M1563 1453 c9 -2 23 -2 30 0 6 3 -1 5 -18 5 -16 0 -22 -2 -12 -5z"/>
<path d="M2388 1503 c12 -2 30 -2 40 0 9 3 -1 5 -23 4 -22 0 -30 -2 -17 -4z"/>
<path d="M2390 1440 c20 -13 40 -13 40 0 0 6 -12 10 -27 10 -22 0 -25 -2 -13
-10z"/>
<path d="M2388 1373 c12 -2 30 -2 40 0 9 3 -1 5 -23 4 -22 0 -30 -2 -17 -4z"/>
<path d="M1063 1393 c15 -2 37 -2 50 0 12 2 0 4 -28 4 -27 0 -38 -2 -22 -4z"/>
<path d="M1942 1290 c0 -14 2 -19 5 -12 2 6 2 18 0 25 -3 6 -5 1 -5 -13z"/>
<path d="M2193 2263 c-25 -5 -28 -36 -39 -360 l-6 -193 26 0 c21 0 26 -5 26
-25 0 -23 4 -25 41 -25 l41 0 -6 38 c-3 20 -8 133 -12 250 -3 117 -9 236 -13
265 -6 53 -13 59 -58 50z m27 -48 c0 -8 -4 -15 -10 -15 -5 0 -10 7 -10 15 0 8
5 15 10 15 6 0 10 -7 10 -15z m20 -55 c0 -5 -13 -10 -30 -10 -16 0 -30 5 -30
10 0 6 14 10 30 10 17 0 30 -4 30 -10z m10 -80 c0 -5 -16 -10 -35 -10 -19 0
-35 5 -35 10 0 6 16 10 35 10 19 0 35 -4 35 -10z m-20 -60 c0 -13 -7 -20 -20
-20 -13 0 -20 7 -20 20 0 13 7 20 20 20 13 0 20 -7 20 -20z m20 -60 c0 -5 -18
-10 -40 -10 -22 0 -40 5 -40 10 0 6 18 10 40 10 22 0 40 -4 40 -10z m-15 -50
c0 -8 -10 -16 -22 -18 -18 -3 -23 2 -23 18 0 16 5 21 23 18 12 -2 22 -10 22
-18z m21 -63 c3 -3 -15 -7 -40 -9 -28 -2 -46 1 -46 8 0 10 76 12 86 1z m-16
-58 c0 -5 -11 -9 -25 -9 -24 0 -32 10 -19 22 8 8 44 -3 44 -13z m20 -49 c0 -5
-20 -10 -44 -10 -25 0 -48 5 -51 10 -4 6 13 10 44 10 28 0 51 -4 51 -10z"/>
<path d="M1685 1381 c-3 -6 4 -9 15 -8 11 1 20 5 20 9 0 11 -28 10 -35 -1z"/>
<path d="M2510 1355 c0 -9 7 -18 15 -21 18 -7 47 14 39 28 -4 6 -10 5 -16 -3
-7 -11 -11 -11 -15 -1 -7 17 -23 15 -23 -3z"/>
<path d="M1688 1343 c6 -2 18 -2 25 0 6 3 1 5 -13 5 -14 0 -19 -2 -12 -5z"/>
<path d="M1080 1211 c0 -12 6 -21 15 -21 8 0 15 4 15 9 0 5 -7 14 -15 21 -13
10 -15 9 -15 -9z"/>
<path d="M1522 1218 c-16 -16 -15 -28 3 -28 8 0 15 9 15 20 0 23 -2 24 -18 8z"/>
<path d="M2070 1226 c0 -2 8 -10 18 -17 15 -13 16 -12 3 4 -13 16 -21 21 -21
13z"/>
<path d="M888 1213 c6 -2 18 -2 25 0 6 3 1 5 -13 5 -14 0 -19 -2 -12 -5z"/>
<path d="M1050 1210 c0 -5 5 -10 10 -10 6 0 10 5 10 10 0 6 -4 10 -10 10 -5 0
-10 -4 -10 -10z"/>
<path d="M1392 1213 c5 -3 4 -12 -1 -21 -10 -19 -7 -204 3 -221 7 -11 -8 -47
-31 -69 -7 -7 -13 -27 -13 -44 0 -19 -4 -28 -12 -25 -9 3 -13 31 -12 100 1 54
-2 97 -7 97 -5 0 -9 -47 -9 -104 0 -85 3 -105 16 -110 36 -14 44 -7 44 38 0
30 5 46 15 50 8 3 15 12 15 21 0 12 12 15 54 15 l55 0 4 48 c2 26 4 -27 5
-117 l2 -164 36 6 c48 8 64 23 63 61 l-1 31 -7 -29 c-5 -24 -12 -30 -38 -33
l-33 -4 0 206 0 205 24 -6 c13 -3 27 -1 30 5 5 7 -4 11 -23 11 -18 0 -31 5
-31 12 0 9 -3 9 -12 0 -19 -19 -28 -14 -28 13 0 14 -6 26 -12 26 -7 1 -23 3
-35 4 -13 1 -20 -2 -16 -8 4 -6 0 -8 -10 -4 -22 9 -44 15 -35 10z m82 -9 c9
-3 16 -12 16 -20 0 -21 -20 -17 -20 4 -1 15 -2 15 -15 -2 -8 -11 -18 -17 -21
-13 -4 4 -1 13 6 22 14 17 13 17 34 9z m-58 -31 c-10 -10 -19 5 -10 18 6 11 8
11 12 0 2 -7 1 -15 -2 -18z m4 -23 c0 -5 -4 -10 -10 -10 -5 0 -10 5 -10 10 0
6 5 10 10 10 6 0 10 -4 10 -10z m30 0 c0 -5 -4 -10 -10 -10 -5 0 -10 5 -10 10
0 6 5 10 10 10 6 0 10 -4 10 -10z m40 0 c0 -5 -4 -10 -10 -10 -5 0 -10 5 -10
10 0 6 5 10 10 10 6 0 10 -4 10 -10z m37 -50 c-1 -65 -21 -85 -25 -25 -2 19 2
35 8 35 5 0 10 5 10 11 0 5 -4 7 -10 4 -5 -3 -10 0 -10 9 0 8 6 17 13 19 6 3
13 6 14 6 1 1 1 -26 0 -59z m-109 0 c-1 -16 -5 -30 -9 -30 -4 0 -7 14 -7 30 1
17 5 30 9 30 4 0 7 -13 7 -30z m37 13 c-2 -10 -4 -24 -4 -30 -1 -7 -5 -13 -10
-13 -7 0 -8 34 -2 58 1 1 5 2 10 2 5 0 8 -8 6 -17z m33 -13 c-1 -16 -5 -30 -9
-30 -4 0 -7 14 -7 30 1 17 5 30 9 30 4 0 7 -13 7 -30z m-68 -50 c0 -5 -4 -10
-10 -10 -5 0 -10 5 -10 10 0 6 5 10 10 10 6 0 10 -4 10 -10z m35 0 c-3 -5 -10
-10 -16 -10 -5 0 -9 5 -9 10 0 6 7 10 16 10 8 0 12 -4 9 -10z m35 0 c0 -5 -4
-10 -10 -10 -5 0 -10 5 -10 10 0 6 5 10 10 10 6 0 10 -4 10 -10z m-74 -37 c-8
-25 9 -51 18 -28 3 9 10 13 16 10 6 -4 8 -11 5 -16 -4 -5 -1 -9 4 -9 6 0 11 7
11 15 0 21 17 19 23 -4 4 -15 -1 -18 -29 -15 -21 1 -32 -2 -28 -8 3 -5 -3 -4
-15 4 -22 13 -30 68 -10 68 6 0 8 -8 5 -17z m39 7 c3 -5 -1 -10 -9 -10 -9 0
-16 5 -16 10 0 6 4 10 9 10 6 0 13 -4 16 -10z m35 0 c0 -5 -4 -10 -10 -10 -5
0 -10 5 -10 10 0 6 5 10 10 10 6 0 10 -4 10 -10z"/>
<path d="M1610 1211 c0 -10 -9 -12 -30 -7 -22 4 -30 2 -30 -9 0 -18 45 -21 56
-4 4 8 9 7 15 -2 4 -7 10 -11 13 -9 2 3 -2 14 -10 24 -8 12 -14 15 -14 7z"/>
<path d="M1770 1210 c-8 -5 -10 -10 -5 -10 6 0 17 5 25 10 8 5 11 10 5 10 -5
0 -17 -5 -25 -10z"/>
<path d="M1127 1195 c-16 -15 -84 -18 -93 -3 -3 4 -10 8 -15 8 -6 0 -3 -7 5
-16 12 -12 31 -15 71 -12 l55 3 0 -102 c0 -57 3 -103 8 -103 13 0 8 196 -5
212 -7 8 -10 18 -6 21 3 4 4 7 0 7 -3 0 -12 -7 -20 -15z"/>
<path d="M2348 1154 c-2 -19 0 -37 4 -40 4 -3 8 -1 8 5 0 5 8 12 18 14 16 4
16 5 0 6 -11 1 -18 9 -18 20 0 17 8 21 53 24 l52 3 -56 2 -57 2 -4 -36z"/>
<path d="M1649 1177 c0 -1 -3 -106 -6 -233 l-5 -230 52 -12 c28 -7 56 -10 61
-6 5 3 9 68 9 145 0 132 1 139 20 139 19 0 20 -7 20 -113 0 -101 2 -116 20
-132 11 -10 18 -21 15 -24 -2 -4 0 -13 6 -21 7 -12 9 -11 9 4 0 11 9 29 20 41
18 19 20 36 21 172 0 124 3 151 14 147 11 -5 14 -52 15 -237 0 -127 2 -232 3
-233 1 0 24 -4 52 -8 32 -4 46 -3 39 4 -8 8 -40 17 -70 19 -8 1 -12 36 -13
108 -2 105 2 127 12 68 6 -34 28 -98 32 -93 2 2 -5 37 -16 78 -10 41 -23 138
-29 215 -6 76 -15 144 -20 149 -7 7 -10 0 -10 -20 0 -17 -9 -40 -19 -51 -11
-12 -18 -22 -16 -24 2 -2 6 -62 9 -132 5 -127 -2 -167 -29 -167 -27 0 -36 42
-30 144 5 86 4 105 -9 116 -9 7 -25 10 -36 7 -10 -3 -19 -2 -18 2 2 19 -3 32
-11 27 -5 -4 -8 -73 -6 -155 4 -148 3 -149 -19 -153 -13 -3 -31 -1 -42 2 -17
7 -19 17 -17 96 1 49 2 146 2 217 l1 127 40 0 c22 0 40 -4 40 -10 0 -5 -16
-10 -37 -10 -20 0 -33 -3 -29 -7 4 -4 19 -7 34 -8 25 0 27 -3 26 -42 0 -28 4
-43 12 -43 8 0 10 10 4 35 -4 19 -5 35 -1 35 15 0 -2 59 -18 64 -16 4 -80 7
-82 3z"/>
<path d="M1610 1141 c0 -30 15 -49 28 -36 4 4 1 10 -6 12 -10 4 -10 8 -2 19
12 14 6 34 -11 34 -5 0 -9 -13 -9 -29z"/>
<path d="M2408 1163 c6 -2 18 -2 25 0 6 3 1 5 -13 5 -14 0 -19 -2 -12 -5z"/>
<path d="M2456 1141 c3 -29 2 -30 -44 -34 l-47 -3 46 -2 46 -2 0 -40 c0 -40 0
-40 -38 -40 -21 0 -41 -4 -44 -10 -4 -6 12 -9 43 -7 l50 2 -2 38 c0 20 1 37 4
37 3 0 4 20 2 45 -2 25 -7 45 -12 45 -4 0 -6 -13 -4 -29z"/>
<path d="M1063 1143 c15 -2 39 -2 55 0 15 2 2 4 -28 4 -30 0 -43 -2 -27 -4z"/>
<path d="M1927 1139 c6 -6 30 -9 53 -7 l42 4 -4 -206 c-3 -113 -3 -161 -1
-107 3 77 7 97 18 97 11 0 15 -13 15 -55 0 -60 15 -77 64 -73 33 3 34 18 2 18
-43 0 -56 10 -56 45 0 18 6 36 13 38 10 4 10 6 0 6 -7 1 -13 8 -13 16 0 9 -6
18 -14 21 -10 4 -14 28 -13 98 0 51 -3 98 -7 104 -4 7 -30 12 -59 12 -37 0
-48 -3 -40 -11z"/>
<path d="M2551 1137 c-1 -14 -6 -17 -23 -12 -20 5 -21 4 -5 -5 9 -6 22 -8 27
-5 6 3 10 -1 10 -11 0 -11 -6 -15 -18 -12 -12 4 -18 -1 -19 -13 -2 -28 15 -33
45 -13 15 10 31 17 35 16 4 -1 3 7 -3 18 -6 11 -17 20 -25 20 -7 0 -16 8 -18
18 -4 16 -5 16 -6 -1z m39 -37 c0 -5 -4 -10 -10 -10 -5 0 -10 5 -10 10 0 6 5
10 10 10 6 0 10 -4 10 -10z m-30 -30 c-19 -13 -30 -13 -30 0 0 6 10 10 23 10
18 0 19 -2 7 -10z"/>
<path d="M2408 1133 c6 -2 18 -2 25 0 6 3 1 5 -13 5 -14 0 -19 -2 -12 -5z"/>
<path d="M1568 1123 c7 -3 16 -2 19 1 4 3 -2 6 -13 5 -11 0 -14 -3 -6 -6z"/>
<path d="M2240 1120 c13 -8 13 -10 -2 -10 -9 0 -20 -5 -24 -12 -9 -14 -14 -81
-6 -73 3 3 11 0 19 -6 19 -17 16 -3 -4 17 -17 17 -17 17 4 12 12 -3 24 -1 26
6 3 7 9 6 22 -4 17 -13 18 -13 10 0 -5 8 -8 23 -6 34 1 10 -2 15 -7 12 -6 -4
-13 -2 -17 4 -3 5 0 10 7 10 9 0 9 3 -2 10 -8 5 -19 10 -25 10 -5 0 -3 -5 5
-10z m10 -36 c0 -14 -3 -14 -15 -4 -8 7 -15 14 -15 16 0 2 7 4 15 4 8 0 15 -7
15 -16z m-20 -14 c0 -5 -4 -10 -10 -10 -5 0 -10 5 -10 10 0 6 5 10 10 10 6 0
10 -4 10 -10z"/>
<path d="M1058 1113 c18 -2 45 -2 60 0 15 2 0 4 -33 4 -33 0 -45 -2 -27 -4z"/>
<path d="M1683 1103 c9 -2 23 -2 30 0 6 3 -1 5 -18 5 -16 0 -22 -2 -12 -5z"/>
<path d="M1554 1089 c-4 -7 5 -10 26 -7 32 3 33 2 36 -39 l3 -43 -37 -2 c-37
-1 -37 -1 -4 -5 17 -2 32 -8 32 -13 0 -5 -15 -11 -32 -13 l-33 -4 33 -1 c41
-2 42 -22 1 -22 -18 0 -28 -4 -24 -10 3 -6 17 -7 30 -4 23 6 24 4 28 -58 3
-61 3 -61 5 17 1 44 6 95 11 113 5 17 6 32 3 32 -4 0 -7 14 -7 32 0 29 -3 33
-32 35 -18 1 -35 -2 -39 -8z"/>
<path d="M2353 1055 c0 -27 2 -38 4 -22 2 15 2 37 0 50 -2 12 -4 0 -4 -28z"/>
<path d="M1063 1083 c15 -2 39 -2 55 0 15 2 2 4 -28 4 -30 0 -43 -2 -27 -4z"/>
<path d="M1670 1076 c0 -10 28 -13 41 -5 10 6 7 9 -13 9 -16 0 -28 -2 -28 -4z"/>
<path d="M2388 1073 c12 -2 30 -2 40 0 9 3 -1 5 -23 4 -22 0 -30 -2 -17 -4z"/>
<path d="M1040 1052 c0 -9 88 -7 97 2 4 3 -17 6 -45 6 -29 0 -52 -4 -52 -8z"/>
<path d="M1563 1053 c9 -2 23 -2 30 0 6 3 -1 5 -18 5 -16 0 -22 -2 -12 -5z"/>
<path d="M2388 1043 c12 -2 30 -2 40 0 9 3 -1 5 -23 4 -22 0 -30 -2 -17 -4z"/>
<path d="M2550 1041 c-25 -7 -25 -7 -2 -13 12 -3 22 -2 22 3 0 5 5 9 11 9 20
0 3 -24 -21 -30 -33 -8 -36 -28 -7 -39 14 -5 27 -13 29 -18 3 -4 3 -2 1 6 -2
7 2 21 9 29 10 12 10 14 1 8 -18 -10 -16 9 2 24 13 11 13 15 3 21 -15 10 -14
10 -48 0z m20 -51 c0 -5 -7 -10 -15 -10 -8 0 -15 5 -15 10 0 6 7 10 15 10 8 0
15 -4 15 -10z"/>
<path d="M1063 1023 c15 -2 37 -2 50 0 12 2 0 4 -28 4 -27 0 -38 -2 -22 -4z"/>
<path d="M1563 1023 c9 -2 23 -2 30 0 6 3 -1 5 -18 5 -16 0 -22 -2 -12 -5z"/>
<path d="M2250 1021 c0 -5 7 -12 16 -15 14 -5 15 -4 4 9 -14 17 -20 19 -20 6z"/>
<path d="M1674 1008 c-3 -4 6 -8 20 -8 14 0 26 4 26 9 0 11 -39 10 -46 -1z"/>
<path d="M2113 995 c-3 -9 3 -25 12 -35 20 -22 14 -25 -18 -9 -21 10 -21 10
-3 -5 11 -9 24 -16 29 -16 5 0 4 -7 -3 -15 -10 -12 -10 -18 0 -30 7 -8 18 -15
24 -14 7 0 6 2 -1 6 -7 2 -13 12 -13 20 0 13 2 13 17 2 15 -13 15 -12 3 11
-16 28 -20 60 -9 60 4 0 10 -6 12 -12 3 -8 6 -5 6 6 1 15 -4 17 -24 12 -19 -5
-25 -2 -25 9 0 9 3 14 8 12 4 -3 16 -1 27 4 17 7 16 8 -8 8 -16 1 -30 -5 -34
-14z"/>
<path d="M783 990 c-28 -11 -29 -24 -3 -50 18 -18 20 -33 20 -177 0 -133 -3
-159 -17 -175 -16 -18 -16 -18 0 -12 9 3 17 10 17 15 0 5 8 9 18 9 13 0 14 2
4 9 -17 11 -17 21 0 32 22 14 30 10 28 -13 -4 -40 0 -48 18 -47 9 0 12 3 6 5
-17 7 -7 331 11 357 8 12 15 27 15 33 0 22 -75 31 -117 14z m70 -15 c12 -11
17 -12 20 -2 4 8 6 9 6 0 1 -6 -6 -18 -14 -27 -8 -8 -15 -19 -15 -24 0 -18
-32 -8 -48 16 -15 23 -15 25 3 38 24 18 30 17 48 -1z m-6 -90 c0 -8 -6 -15
-13 -15 -6 0 -14 7 -18 15 -3 10 1 15 13 15 10 0 18 -7 18 -15z m3 -49 c0 -18
-16 -29 -30 -21 -13 8 -1 35 16 35 8 0 14 -6 14 -14z m0 -56 c0 -11 -7 -20
-15 -20 -8 0 -15 9 -15 20 0 11 7 20 15 20 8 0 15 -9 15 -20z m0 -50 c0 -11
-6 -20 -14 -20 -18 0 -29 16 -21 30 11 18 35 11 35 -10z m0 -50 c9 -17 8 -20
-14 -20 -22 0 -26 8 -17 38 3 9 22 -2 31 -18z"/>
<path d="M1045 990 c3 -5 27 -10 53 -10 34 0 43 3 32 10 -20 13 -93 13 -85 0z"/>
<path d="M2210 989 c-12 -8 -10 -9 7 -4 12 3 33 1 45 -5 22 -11 22 -10 4 4
-23 19 -35 20 -56 5z"/>
<path d="M2352 975 c0 -16 2 -22 5 -12 2 9 2 23 0 30 -3 6 -5 -1 -5 -18z"/>
<path d="M1688 973 c6 -2 18 -2 25 0 6 3 1 5 -13 5 -14 0 -19 -2 -12 -5z"/>
<path d="M2370 950 c0 -5 5 -10 10 -10 6 0 10 5 10 10 0 6 -4 10 -10 10 -5 0
-10 -4 -10 -10z"/>
<path d="M2408 943 c6 -2 18 -2 25 0 6 3 1 5 -13 5 -14 0 -19 -2 -12 -5z"/>
<path d="M1683 913 c9 -2 23 -2 30 0 6 3 -1 5 -18 5 -16 0 -22 -2 -12 -5z"/>
<path d="M2393 913 c9 -2 25 -2 35 0 9 3 1 5 -18 5 -19 0 -27 -2 -17 -5z"/>
<path d="M2393 883 c9 -2 25 -2 35 0 9 3 1 5 -18 5 -19 0 -27 -2 -17 -5z"/>
<path d="M1550 870 c0 -5 11 -10 25 -10 14 0 25 5 25 10 0 6 -11 10 -25 10
-14 0 -25 -4 -25 -10z"/>
<path d="M2197 858 c-7 -4 5 -8 26 -8 20 0 37 4 37 9 0 10 -46 9 -63 -1z"/>
<path d="M2351 854 c0 -11 3 -14 6 -6 3 7 2 16 -1 19 -3 4 -6 -2 -5 -13z"/>
<path d="M2398 853 c12 -2 32 -2 45 0 12 2 2 4 -23 4 -25 0 -35 -2 -22 -4z"/>
<path d="M2170 830 c0 -11 -4 -20 -10 -20 -5 0 -10 -4 -10 -8 0 -5 7 -9 15 -9
10 0 15 10 15 29 0 15 -2 28 -5 28 -3 0 -5 -9 -5 -20z"/>
<path d="M1563 833 c9 -2 23 -2 30 0 6 3 -1 5 -18 5 -16 0 -22 -2 -12 -5z"/>
<path d="M2200 810 c0 -25 -4 -30 -25 -30 l-24 0 6 -117 c3 -65 8 -120 10
-123 3 -3 3 38 1 91 l-3 96 48 2 c44 2 47 1 47 -23 0 -19 -7 -27 -25 -32 -14
-3 -32 -4 -40 0 -8 3 -15 1 -15 -5 0 -6 16 -9 37 -7 22 2 38 -2 41 -10 2 -8
-8 -12 -32 -12 -51 0 -52 -15 0 -16 l44 -1 1 66 c0 36 1 85 3 109 2 35 -1 42
-16 42 -10 0 -18 -4 -18 -10 0 -5 5 -10 10 -10 6 0 10 -11 10 -25 0 -26 -7
-29 -34 -19 -17 7 -22 44 -6 44 6 0 10 5 10 10 0 6 -7 10 -15 10 -10 0 -15
-10 -15 -30z m60 -60 c0 -5 -22 -10 -50 -10 -27 0 -50 5 -50 10 0 6 23 10 50
10 28 0 50 -4 50 -10z"/>
<path d="M1568 803 c7 -3 16 -2 19 1 4 3 -2 6 -13 5 -11 0 -14 -3 -6 -6z"/>
<path d="M1563 773 c9 -2 23 -2 30 0 6 3 -1 5 -18 5 -16 0 -22 -2 -12 -5z"/>
<path d="M752 690 c0 -19 2 -27 5 -17 2 9 2 25 0 35 -3 9 -5 1 -5 -18z"/>
<path d="M2011 664 c0 -11 3 -14 6 -6 3 7 2 16 -1 19 -3 4 -6 -2 -5 -13z"/>
<path d="M1981 655 c0 -11 4 -29 9 -40 9 -20 9 -20 9 0 0 11 -4 29 -9 40 -9
20 -9 20 -9 0z"/>
<path d="M2254 595 c-3 -8 -4 -20 -2 -27 3 -7 7 -1 10 15 6 29 1 36 -8 12z"/>
<path d="M787 556 c-16 -13 -16 -14 0 -27 12 -10 15 -11 9 -1 -4 7 -2 19 4 27
15 18 11 19 -13 1z"/>
<path d="M850 556 c0 -2 7 -7 16 -10 8 -3 12 -2 9 4 -6 10 -25 14 -25 6z"/>
<path d="M2203 543 c9 -2 23 -2 30 0 6 3 -1 5 -18 5 -16 0 -22 -2 -12 -5z"/>
<path d="M2252 525 c0 -16 2 -22 5 -12 2 9 2 23 0 30 -3 6 -5 -1 -5 -18z"/>
<path d="M2165 510 c3 -5 8 -10 11 -10 2 0 4 5 4 10 0 6 -5 10 -11 10 -5 0 -7
-4 -4 -10z"/>
<path d="M2251 474 c0 -11 3 -14 6 -6 3 7 2 16 -1 19 -3 4 -6 -2 -5 -13z"/>
<path d="M831 454 c0 -11 3 -14 6 -6 3 7 2 16 -1 19 -3 4 -6 -2 -5 -13z"/>
<path d="M832 410 c0 -14 2 -19 5 -12 2 6 2 18 0 25 -3 6 -5 1 -5 -13z"/>
</g>
</svg>
