<?xml version="1.0" standalone="no"?>
<!DOCTYPE svg PUBLIC "-//W3C//DTD SVG 20010904//EN"
 "http://www.w3.org/TR/2001/REC-SVG-20010904/DTD/svg10.dtd">
<svg version="1.0" xmlns="http://www.w3.org/2000/svg"
 width="300.000000pt" height="293.000000pt" viewBox="0 0 300.000000 293.000000"
 preserveAspectRatio="xMidYMid meet">
<metadata>
Created by potrace 1.10, written by Peter Selinger 2001-2011
</metadata>
<g transform="translate(0.000000,293.000000) scale(0.100000,-0.100000)"
fill="#000000" stroke="none">
<path d="M1950 2633 c0 -164 0 -304 0 -310 0 -10 -107 -13 -497 -14 -274 0
-492 -3 -485 -6 15 -6 18 -528 2 -538 -6 -4 -10 -65 -10 -151 0 -94 4 -143 10
-139 6 4 9 60 7 146 l-4 139 484 0 c379 0 484 3 481 12 -4 10 -112 13 -469 14
-255 1 -467 3 -470 3 -4 1 -6 65 -5 144 1 101 4 141 13 140 8 -2 7 6 -2 25
-12 24 -14 69 -7 170 2 22 5 22 87 21 47 -1 85 -6 85 -11 0 -5 -4 -6 -10 -3
-5 3 -10 1 -10 -4 0 -6 -6 -11 -13 -11 -17 0 -101 -90 -103 -110 -1 -8 -5 -41
-9 -73 -6 -49 -4 -62 11 -79 13 -14 14 -18 4 -13 -20 12 37 -54 73 -84 15 -12
37 -24 50 -26 12 -1 34 -8 50 -14 15 -6 27 -7 27 -2 0 4 11 7 25 6 13 -2 28 2
34 9 7 8 0 10 -28 8 -128 -12 -247 106 -225 223 9 50 57 111 106 136 32 16 60
22 113 22 66 0 68 0 40 13 -24 10 -26 13 -10 14 75 4 619 -1 624 -6 7 -7 8
-13 10 -60 1 -22 5 -33 12 -29 6 4 10 19 9 33 -1 15 -2 40 -1 56 1 24 3 27 16
16 8 -7 12 -16 9 -21 -8 -14 6 -50 17 -44 5 4 9 -8 9 -24 0 -17 -5 -31 -11
-31 -6 0 -9 -6 -6 -14 3 -7 0 -19 -6 -25 -8 -8 -8 -11 0 -11 7 0 15 9 18 20 3
11 10 20 14 20 4 0 6 14 3 30 -2 18 0 30 7 30 6 0 8 6 5 14 -3 8 -12 12 -19
10 -7 -3 -16 -1 -20 5 -3 6 0 14 9 17 8 3 12 12 10 19 -3 8 -12 11 -19 9 -7
-3 -16 -1 -20 5 -3 6 1 14 9 17 20 8 21 34 1 34 -17 0 -20 16 -4 25 16 11 50
-30 37 -43 -8 -8 -8 -16 2 -27 14 -17 30 -20 30 -4 0 5 -5 7 -11 3 -8 -5 -10
0 -6 17 6 25 -30 79 -53 79 -5 0 -10 7 -10 15 0 8 7 15 15 15 9 0 18 -7 21
-15 4 -8 10 -15 15 -15 4 0 5 7 2 17 -5 12 -3 14 7 8 10 -6 11 -2 6 19 -3 14
-2 26 3 26 4 0 9 11 9 25 0 14 -4 25 -9 25 -5 0 -9 -10 -9 -23 0 -13 -5 -28
-12 -35 -9 -9 -9 -12 2 -12 10 0 11 -3 3 -11 -9 -9 -16 -8 -27 4 -22 22 -20
34 7 41 14 4 18 9 11 13 -18 13 -35 52 -34 76 7 77 -1 347 -10 347 -6 0 -10
-108 -10 -297z"/>
<path d="M933 2913 c15 -2 39 -2 55 0 15 2 2 4 -28 4 -30 0 -43 -2 -27 -4z"/>
<path d="M1243 2913 c9 -2 23 -2 30 0 6 3 -1 5 -18 5 -16 0 -22 -2 -12 -5z"/>
<path d="M621 2869 c-25 -5 -49 -10 -54 -12 -5 -1 20 -17 56 -35 81 -40 126
-89 129 -140 2 -55 2 -62 -6 -131 -5 -46 -4 -62 4 -59 12 4 17 47 21 173 2 48
-3 80 -14 101 -17 34 -40 56 -53 52 -18 -4 -54 14 -54 28 0 15 9 17 34 8 8 -3
14 -11 12 -17 -1 -7 -1 -9 1 -4 6 9 193 9 193 -1 0 -4 -9 -13 -20 -19 -40 -26
-51 -66 -49 -191 1 -127 5 -152 21 -152 6 0 8 13 4 33 -12 66 -8 192 8 230 16
39 85 91 137 102 16 4 29 10 29 14 0 25 -298 40 -399 20z m116 -15 c-3 -3 -12
-4 -19 -1 -8 3 -5 6 6 6 11 1 17 -2 13 -5z m197 -13 c3 -5 -3 -11 -14 -14 -13
-3 -20 0 -20 9 0 15 26 19 34 5z"/>
<path d="M1070 2785 c-8 -2 -37 -7 -65 -10 l-50 -7 61 -28 c58 -26 104 -68
104 -96 0 -8 5 -14 10 -14 21 0 9 51 -20 84 l-30 34 48 4 c27 1 62 1 77 -2 26
-5 27 -6 11 -19 -16 -13 -46 -63 -46 -76 0 -15 27 -2 35 17 12 27 70 67 108
75 38 8 34 19 -10 27 -49 8 -214 16 -233 11z"/>
<path d="M333 2733 c-38 -5 -43 -18 -10 -27 12 -3 37 -18 55 -33 27 -23 35
-38 39 -76 8 -64 19 -60 15 5 -3 40 -10 60 -30 81 l-26 27 68 0 68 0 -26 -31
c-24 -29 -27 -38 -25 -110 1 -45 6 -79 12 -79 5 0 7 16 4 39 -5 38 -4 39 29
45 18 4 37 13 41 20 5 8 26 17 48 21 22 4 53 9 69 12 18 3 26 1 21 -6 -4 -7 5
-11 24 -11 24 0 31 4 31 20 0 25 -16 26 -29 3 -6 -10 -11 -12 -11 -5 0 16 -17
15 -122 -4 -68 -12 -88 -20 -88 -33 0 -12 -2 -13 -9 -3 -22 35 28 104 85 118
87 22 -100 43 -233 27z m207 -133 c0 -5 -10 -10 -22 -9 -22 0 -22 1 -3 9 11 5
21 9 23 9 1 1 2 -3 2 -9z"/>
<path d="M1355 2731 c-3 -5 -2 -12 3 -15 5 -3 9 1 9 9 0 17 -3 19 -12 6z"/>
<path d="M2307 2734 c-3 -3 -32 -7 -63 -9 -32 -1 -60 -8 -62 -14 -2 -6 -8 -11
-13 -11 -6 0 -8 4 -5 8 3 5 -1 9 -9 9 -8 0 -15 -4 -15 -8 0 -5 -13 -15 -29
-23 -16 -9 -42 -29 -57 -46 -16 -16 -35 -30 -41 -30 -7 0 -13 -9 -13 -19 0
-11 -5 -23 -10 -26 -15 -9 -2 -25 21 -25 20 0 26 15 9 25 -16 10 -11 26 8 24
30 -3 35 1 22 16 -10 12 -9 16 2 20 8 3 21 5 29 3 7 -2 13 5 14 16 0 20 25 36
25 17 0 -6 5 -11 10 -11 6 0 10 9 10 20 0 22 25 28 33 8 4 -8 8 -4 12 10 8 24
30 30 39 10 3 -9 8 -8 16 5 13 21 30 22 30 2 0 -8 7 -15 15 -15 8 0 15 7 15
15 0 26 19 17 36 -17 19 -37 34 -50 51 -43 6 2 13 -1 15 -7 3 -7 20 -17 39
-24 19 -6 33 -17 32 -23 -2 -6 5 -11 14 -11 13 0 10 7 -12 30 -19 20 -35 28
-47 24 -12 -4 -18 -1 -16 8 2 8 -5 12 -20 11 -13 -2 -21 1 -17 7 3 6 -1 10 -9
10 -9 0 -16 9 -16 20 0 27 26 25 34 -2 5 -18 8 -20 15 -9 12 19 42 6 35 -14
-5 -13 -2 -15 20 -9 23 5 27 4 24 -12 -2 -15 2 -18 20 -17 19 3 23 -1 20 -20
-2 -16 2 -21 14 -19 21 3 35 -18 18 -28 -17 -11 -3 -31 16 -23 14 5 15 1 9
-27 -5 -23 -4 -30 4 -26 6 4 13 1 16 -6 3 -8 15 -14 26 -15 l21 -2 -21 18
c-12 10 -21 25 -21 33 0 9 -7 21 -15 28 -8 6 -14 15 -13 18 2 21 -4 31 -22 37
-11 4 -18 10 -15 15 7 11 -24 42 -36 35 -5 -4 -9 0 -9 7 -1 15 -63 57 -91 61
-10 2 -21 6 -25 9 -3 4 -12 4 -20 1 -8 -3 -20 0 -28 6 -7 6 -16 8 -19 5z"/>
<path d="M1385 2670 c-33 -7 -35 -5 37 -32 48 -18 60 -40 56 -107 -3 -56 -1
-61 17 -60 11 0 16 2 10 5 -6 2 -9 30 -7 62 3 51 0 63 -22 89 l-25 30 59 2
c36 1 60 -3 60 -9 0 -5 -4 -10 -10 -10 -11 0 -40 -53 -40 -75 0 -27 16 -16 25
18 8 25 21 38 63 58 l54 26 -48 7 c-59 8 -190 6 -229 -4z"/>
<path d="M2200 2670 c-8 -5 -7 -9 4 -13 9 -4 16 -1 16 6 0 8 3 8 9 -2 6 -9 14
-10 27 -3 18 9 31 9 64 0 8 -3 12 -3 7 -1 -4 3 -5 9 -2 13 6 10 -109 10 -125
0z"/>
<path d="M850 2642 c0 -17 10 -18 128 -18 118 1 128 3 124 19 -4 15 -19 17
-128 17 -113 0 -124 -2 -124 -18z m118 1 c-10 -2 -26 -2 -35 0 -10 3 -2 5 17
5 19 0 27 -2 18 -5z m70 0 c-10 -2 -26 -2 -35 0 -10 3 -2 5 17 5 19 0 27 -2
18 -5z"/>
<path d="M2140 2644 c-14 -8 -24 -18 -22 -24 1 -5 -4 -10 -11 -10 -14 0 -67
-54 -67 -69 0 -5 5 -13 11 -16 6 -4 9 0 7 11 -2 11 2 18 10 16 7 -1 17 9 24
23 6 13 14 22 19 20 4 -3 10 4 14 14 4 13 11 18 22 14 11 -4 14 -2 9 5 -4 7
-1 12 8 12 9 0 16 5 16 10 0 13 -9 11 -40 -6z"/>
<path d="M1216 2639 c3 -6 1 -15 -6 -19 -7 -4 13 -11 46 -15 31 -4 91 -16 132
-26 41 -11 77 -17 80 -14 3 3 0 5 -6 5 -7 0 -12 6 -12 14 0 16 -72 40 -154 52
-36 5 -50 3 -57 -7 -7 -11 -9 -10 -9 4 0 9 -5 17 -11 17 -5 0 -7 -5 -3 -11z
m74 -18 c0 -5 -9 -7 -20 -4 -11 3 -20 7 -20 9 0 2 9 4 20 4 11 0 20 -4 20 -9z
m50 -10 c0 -5 -9 -7 -20 -4 -11 3 -20 7 -20 9 0 2 9 4 20 4 11 0 20 -4 20 -9z
m70 -17 c0 -2 -7 -4 -15 -4 -8 0 -15 4 -15 10 0 5 7 7 15 4 8 -4 15 -8 15 -10z
m25 -4 c3 -5 1 -10 -4 -10 -6 0 -11 5 -11 10 0 6 2 10 4 10 3 0 8 -4 11 -10z"/>
<path d="M1178 2633 c7 -3 16 -2 19 1 4 3 -2 6 -13 5 -11 0 -14 -3 -6 -6z"/>
<path d="M2185 2621 c-81 -36 -144 -126 -145 -203 0 -38 13 -51 24 -23 3 8 1
15 -4 15 -6 0 -10 5 -10 11 0 5 5 7 11 3 8 -4 7 0 -1 15 -11 21 -10 22 27 17
21 -2 47 -7 58 -10 11 -4 5 1 -13 9 -18 9 -37 13 -41 10 -14 -8 -23 27 -10 39
8 8 13 7 16 -2 3 -7 19 -19 36 -28 30 -15 30 -14 -8 19 -22 19 -37 38 -34 42
4 3 14 -2 23 -11 9 -9 20 -14 23 -11 3 3 -2 13 -11 22 -17 17 -21 35 -8 35 4
0 13 -5 19 -11 8 -8 11 -6 10 6 -3 32 22 27 37 -7 7 -18 21 -42 30 -53 10 -11
6 2 -9 30 -14 27 -25 56 -25 62 0 20 28 15 33 -4 3 -13 5 -11 6 6 1 18 5 22
21 18 11 -3 20 0 20 5 0 6 6 5 15 -2 10 -9 15 -9 15 -1 0 6 7 11 15 11 17 0
20 -23 5 -51 -6 -11 -7 -19 -1 -19 5 0 12 11 15 24 3 13 9 31 12 40 9 24 -98
22 -151 -3z"/>
<path d="M2354 2604 c-2 -21 0 -23 10 -9 10 14 15 15 40 2 16 -9 23 -18 17
-22 -6 -3 -11 -12 -10 -18 0 -9 2 -9 5 0 3 7 11 10 19 7 32 -13 20 15 -18 39
-51 34 -62 34 -63 1z"/>
<path d="M1120 2583 c0 -21 -3 -55 -6 -75 -6 -35 -5 -38 17 -38 17 0 20 3 11
9 -11 6 -12 24 -7 75 5 46 4 66 -4 66 -6 0 -11 -17 -11 -37z"/>
<path d="M1170 2603 c0 -10 5 -25 10 -33 7 -11 10 -7 10 18 0 17 -4 32 -10 32
-5 0 -10 -8 -10 -17z"/>
<path d="M615 2599 c-22 -4 -43 -5 -47 -2 -5 2 -8 -1 -8 -6 0 -6 4 -11 9 -11
18 0 41 -31 41 -55 0 -14 7 -25 20 -28 17 -4 20 0 20 30 0 29 5 36 30 46 17 6
30 14 30 18 0 11 -52 15 -95 8z m36 -23 c-7 -8 -16 -27 -21 -43 l-8 -28 -1 27
c-1 15 -5 30 -11 33 -19 12 -10 21 21 23 27 2 30 0 20 -12z"/>
<path d="M916 2593 c-50 -8 -8 -22 48 -17 50 5 51 5 30 -13 -11 -10 -19 -24
-16 -31 2 -6 -1 -12 -7 -12 -6 0 -11 -14 -11 -31 0 -18 4 -28 10 -24 6 4 8 10
6 14 -3 4 0 13 5 21 8 12 10 9 8 -10 -3 -51 4 -43 10 10 6 51 9 56 41 72 27
13 30 17 14 18 -12 0 -41 2 -65 4 -24 2 -57 2 -73 -1z"/>
<path d="M313 2563 c-7 -2 -13 -12 -13 -20 0 -13 3 -13 15 -3 13 11 18 10 30
-6 15 -19 20 -8 9 20 -6 16 -18 19 -41 9z"/>
<path d="M1376 2554 c-4 -9 -4 -19 -1 -22 2 -3 7 3 11 12 4 9 4 19 1 22 -2 3
-7 -3 -11 -12z"/>
<path d="M2220 2560 c0 -8 5 -22 10 -30 9 -13 10 -13 10 0 0 8 -5 22 -10 30
-9 13 -10 13 -10 0z"/>
<path d="M2329 2544 c-5 -15 -8 -29 -5 -31 2 -2 8 10 14 26 13 38 5 41 -9 5z"/>
<path d="M2356 2528 c-15 -23 -20 -35 -11 -28 15 13 50 70 42 70 -2 0 -16 -19
-31 -42z"/>
<path d="M2506 2555 c-3 -9 0 -15 9 -15 9 0 12 6 9 15 -4 8 -7 15 -9 15 -2 0
-5 -7 -9 -15z"/>
<path d="M557 2546 c-8 -21 -11 -175 -3 -183 3 -3 6 35 6 86 0 58 4 90 10 86
6 -3 7 1 4 9 -8 20 -10 20 -17 2z"/>
<path d="M1416 2545 c4 -8 11 -15 16 -15 6 0 5 6 -2 15 -7 8 -14 15 -16 15 -2
0 -1 -7 2 -15z"/>
<path d="M2438 2530 c-15 -15 -39 -37 -55 -49 -15 -12 -19 -18 -8 -13 11 6 33
22 48 36 31 28 52 33 63 14 4 -7 4 -10 -1 -6 -4 4 -20 -3 -35 -15 -15 -12 -36
-28 -46 -34 -11 -7 -2 -5 19 4 20 9 37 19 37 23 0 3 9 6 20 7 32 3 23 -10 -22
-31 -23 -11 -36 -22 -29 -24 7 -2 17 1 21 8 4 7 22 13 39 14 35 1 37 6 17 45
-25 48 -38 52 -68 21z"/>
<path d="M2663 2526 c3 -22 1 -37 -6 -40 -7 -2 -3 -5 8 -6 20 -1 20 -1 0 -10
-16 -7 -16 -9 -4 -9 12 -1 18 -12 21 -41 3 -33 0 -40 -17 -43 -18 -4 -18 -4 3
-6 12 0 22 -5 22 -11 0 -5 5 -10 11 -10 5 0 7 5 4 10 -4 6 14 9 47 8 l53 -1
-45 -7 -45 -7 50 -1 c55 -2 54 -4 58 76 0 6 7 12 16 12 14 0 14 2 1 10 -13 9
-13 10 0 10 13 0 13 1 0 10 -8 5 -10 10 -5 10 6 0 10 18 10 40 l1 40 -94 0
-95 0 6 -34z m37 4 c0 -5 -5 -10 -11 -10 -5 0 -7 5 -4 10 3 6 8 10 11 10 2 0
4 -4 4 -10z m130 -10 c0 -5 -22 -10 -49 -10 -30 0 -51 -5 -54 -12 -3 -7 -6 -3
-6 10 -1 20 3 22 54 22 30 0 55 -4 55 -10z m-120 -20 c0 -5 -7 -10 -16 -10 -8
0 -12 5 -9 10 3 6 10 10 16 10 5 0 9 -4 9 -10z m55 -30 l-60 -7 60 -2 c44 -2
55 -5 40 -11 -11 -5 -15 -9 -8 -9 6 -1 10 -9 8 -18 -2 -10 -4 -24 -4 -30 -1
-9 -18 -13 -51 -13 -43 0 -50 3 -50 19 0 11 6 22 13 24 7 3 5 6 -5 6 -13 1
-17 8 -16 26 2 24 5 25 68 23 l65 -1 -60 -7z"/>
<path d="M2718 2443 c12 -2 30 -2 40 0 9 3 -1 5 -23 4 -22 0 -30 -2 -17 -4z"/>
<path d="M678 2543 c-2 -4 -1 -48 2 -98 4 -49 7 -88 9 -85 1 3 2 44 3 93 1 80
-4 111 -14 90z"/>
<path d="M905 2540 c-3 -5 -1 -10 4 -10 6 0 11 5 11 10 0 6 -2 10 -4 10 -3 0
-8 -4 -11 -10z"/>
<path d="M1038 2543 c-8 -17 4 -183 13 -183 5 0 9 36 9 80 0 50 4 80 11 80 6
0 4 7 -5 15 -16 17 -23 19 -28 8z"/>
<path d="M1274 2535 c-4 -8 -1 -21 4 -28 6 -7 13 -44 15 -82 l3 -70 2 83 c1
53 -2 81 -8 77 -5 -3 -10 -1 -10 4 0 15 13 14 29 -1 11 -11 13 -10 7 5 -3 10
-6 21 -6 23 0 11 -31 2 -36 -11z"/>
<path d="M1626 2534 c-10 -26 -7 -28 12 -11 15 13 21 14 31 4 10 -9 11 -8 6 6
-9 21 -41 22 -49 1z"/>
<path d="M2282 2530 c0 -14 2 -19 5 -12 2 6 2 18 0 25 -3 6 -5 1 -5 -13z"/>
<path d="M2300 2530 c0 -11 2 -20 4 -20 2 0 6 9 9 20 3 11 1 20 -4 20 -5 0 -9
-9 -9 -20z"/>
<path d="M930 2450 c0 -51 3 -90 6 -87 7 7 5 169 -2 176 -2 2 -4 -38 -4 -89z"/>
<path d="M2184 2507 c16 -20 30 -37 33 -37 7 0 -36 58 -49 66 -7 4 1 -9 16
-29z"/>
<path d="M2379 2514 c-13 -14 -17 -23 -9 -19 13 5 46 45 37 45 -2 0 -14 -11
-28 -26z"/>
<path d="M320 2444 c0 -48 4 -83 9 -80 11 7 10 166 -1 166 -4 0 -8 -39 -8 -86z"/>
<path d="M780 2445 c0 -105 17 -113 22 -10 3 81 1 95 -13 95 -5 0 -9 -38 -9
-85z"/>
<path d="M1160 2450 c-3 -47 -4 -87 -3 -89 10 -15 13 18 11 90 l-3 84 -5 -85z"/>
<path d="M1180 2500 c0 -16 5 -30 10 -30 6 0 10 14 10 30 0 17 -4 30 -10 30
-5 0 -10 -13 -10 -30z"/>
<path d="M1390 2445 c0 -50 4 -85 10 -85 6 0 10 35 10 85 0 50 -4 85 -10 85
-6 0 -10 -35 -10 -85z"/>
<path d="M2519 2522 c7 -6 14 -20 15 -33 1 -22 26 -41 26 -19 0 6 -4 9 -9 5
-6 -3 -9 7 -8 22 2 20 -3 28 -18 31 -15 2 -17 1 -6 -6z"/>
<path d="M408 2502 c-4 -15 -2 -22 8 -22 13 0 15 -8 19 -87 0 -12 4 -26 8 -30
4 -4 7 28 6 70 -1 59 -5 77 -15 73 -7 -3 -14 0 -17 7 -2 6 -6 1 -9 -11z"/>
<path d="M1647 2448 c6 -103 11 -107 12 -10 1 45 -3 82 -8 82 -4 0 -6 -33 -4
-72z"/>
<path d="M1523 2435 c2 -98 17 -98 17 0 0 41 -4 75 -9 75 -5 0 -8 -34 -8 -75z"/>
<path d="M2150 2507 c0 -2 15 -16 33 -33 l32 -29 -29 33 c-28 30 -36 37 -36
29z"/>
<path d="M716 2473 c-6 -14 -5 -15 5 -6 7 7 10 15 7 18 -3 3 -9 -2 -12 -12z"/>
<path d="M370 2470 c8 -5 20 -10 25 -10 6 0 3 5 -5 10 -8 5 -19 10 -25 10 -5
0 -3 -5 5 -10z"/>
<path d="M2286 2463 c-6 -14 -5 -15 5 -6 7 7 10 15 7 18 -3 3 -9 -2 -12 -12z"/>
<path d="M865 2460 c-8 -13 15 -13 35 0 12 8 11 10 -7 10 -12 0 -25 -4 -28
-10z"/>
<path d="M1203 2455 c-4 -5 -3 -7 2 -3 4 4 15 2 23 -5 11 -8 14 -8 9 0 -4 7 0
13 10 16 10 3 5 4 -10 4 -16 -1 -31 -6 -34 -12z"/>
<path d="M1330 2461 c0 -5 9 -11 21 -14 16 -4 18 -3 8 9 -13 16 -29 19 -29 5z"/>
<path d="M1430 2455 c0 -10 7 -15 18 -13 21 4 19 22 -2 26 -10 2 -16 -3 -16
-13z"/>
<path d="M1577 2463 c-4 -3 -7 -10 -7 -14 0 -9 39 1 46 12 6 10 -29 12 -39 2z"/>
<path d="M2480 2355 l0 -85 60 0 60 0 0 85 0 85 -60 0 -60 0 0 -85z m73 58
c-7 -2 -19 -2 -25 0 -7 3 -2 5 12 5 14 0 19 -2 13 -5z m25 -20 c-10 -2 -18 -8
-18 -13 0 -5 8 -11 18 -13 9 -3 -8 -5 -38 -5 -30 0 -47 2 -37 5 20 5 22 19 5
26 -7 3 10 5 37 5 28 0 42 -2 33 -5z m0 -50 c-10 -2 -18 -8 -18 -13 0 -5 8
-11 18 -13 9 -3 -5 -5 -33 -5 -27 0 -44 2 -37 5 17 7 15 21 -5 26 -10 3 7 5
37 5 30 0 47 -2 38 -5z m-10 -50 c-16 -2 -40 -2 -55 0 -16 2 -3 4 27 4 30 0
43 -2 28 -4z"/>
<path d="M2535 2380 c3 -5 8 -10 11 -10 2 0 4 5 4 10 0 6 -5 10 -11 10 -5 0
-7 -4 -4 -10z"/>
<path d="M2535 2330 c3 -5 8 -10 11 -10 2 0 4 5 4 10 0 6 -5 10 -11 10 -5 0
-7 -4 -4 -10z"/>
<path d="M2415 2420 c-18 -8 -17 -9 8 -9 15 -1 27 4 27 9 0 12 -8 12 -35 0z"/>
<path d="M2653 2410 c-1 -11 2 -20 5 -20 4 0 8 9 9 20 1 11 -2 20 -5 20 -4 0
-8 -9 -9 -20z"/>
<path d="M2310 2401 c0 -5 11 -8 25 -8 30 0 28 6 -4 12 -11 2 -21 0 -21 -4z"/>
<path d="M619 2392 c11 -8 8 -11 -15 -15 -28 -4 -28 -4 4 -6 34 -1 42 18 11
27 -12 3 -12 2 0 -6z"/>
<path d="M2090 2310 l0 -90 90 0 c53 0 90 4 90 10 0 11 -7 12 -97 14 -96 2
-87 16 10 16 51 0 87 4 87 10 0 6 -35 10 -85 10 -50 0 -85 4 -85 10 0 6 35 10
85 10 50 0 85 4 85 10 0 6 -35 10 -85 10 -50 0 -85 4 -85 10 0 6 35 10 85 10
50 0 85 4 85 10 0 6 -37 10 -87 11 -56 1 -77 4 -58 8 17 4 56 6 88 4 45 -2 57
1 57 12 0 12 -17 15 -90 15 l-90 0 0 -90z"/>
<path d="M2435 2390 c3 -5 8 -10 11 -10 2 0 4 5 4 10 0 6 -5 10 -11 10 -5 0
-7 -4 -4 -10z"/>
<path d="M385 2380 c-3 -5 1 -10 10 -10 9 0 13 5 10 10 -3 6 -8 10 -10 10 -2
0 -7 -4 -10 -10z"/>
<path d="M480 2380 c0 -6 7 -10 15 -10 8 0 15 2 15 4 0 2 -7 6 -15 10 -8 3
-15 1 -15 -4z"/>
<path d="M839 2377 c5 -5 24 -7 42 -5 33 3 33 4 -8 8 -23 3 -39 2 -34 -3z"/>
<path d="M1106 2375 c-11 -8 -15 -15 -9 -15 7 0 15 5 18 10 4 6 11 7 17 4 7
-4 8 -2 4 4 -9 14 -7 15 -30 -3z"/>
<path d="M988 2373 c7 -3 16 -2 19 1 4 3 -2 6 -13 5 -11 0 -14 -3 -6 -6z"/>
<path d="M1580 2370 c-13 -8 -12 -10 3 -10 9 0 17 5 17 10 0 12 -1 12 -20 0z"/>
<path d="M2838 2373 c7 -3 16 -2 19 1 4 3 -2 6 -13 5 -11 0 -14 -3 -6 -6z"/>
<path d="M2044 2338 c7 -35 13 -44 22 -35 4 4 1 14 -7 23 -11 14 -11 18 -1 21
14 5 6 23 -10 23 -6 0 -8 -12 -4 -32z"/>
<path d="M2431 2361 c-12 -8 -12 -12 -2 -25 7 -9 11 -22 8 -31 -4 -8 -2 -17 3
-20 6 -4 10 13 10 39 0 25 -1 46 -2 46 -2 0 -9 -4 -17 -9z"/>
<path d="M2368 2353 c7 -3 16 -2 19 1 4 3 -2 6 -13 5 -11 0 -14 -3 -6 -6z"/>
<path d="M2658 2353 c7 -3 16 -2 19 1 4 3 -2 6 -13 5 -11 0 -14 -3 -6 -6z"/>
<path d="M2838 2353 c7 -3 16 -2 19 1 4 3 -2 6 -13 5 -11 0 -14 -3 -6 -6z"/>
<path d="M2293 2325 c11 -22 18 -25 73 -25 47 0 61 3 61 15 0 11 -13 15 -54
15 -29 0 -53 5 -53 10 0 6 -9 10 -19 10 -17 0 -18 -3 -8 -25z m95 -12 c-16 -2
-40 -2 -55 0 -16 2 -3 4 27 4 30 0 43 -2 28 -4z"/>
<path d="M2675 2330 l30 -7 -30 -5 -30 -5 28 -2 c24 -1 27 -5 28 -36 1 -19 3
-48 4 -65 1 -16 3 -50 4 -75 l1 -45 45 0 45 0 0 65 0 65 33 1 32 2 -30 6 c-17
3 -30 12 -29 19 1 6 2 23 3 37 1 20 7 25 29 26 l27 1 -30 8 -30 7 30 5 c17 3
-19 5 -80 5 -65 1 -98 -2 -80 -7z m108 -7 c-13 -2 -35 -2 -50 0 -16 2 -5 4 22
4 28 0 40 -2 28 -4z m5 -43 c-2 -28 -5 -30 -43 -29 -22 0 -34 3 -27 6 10 4 10
8 1 19 -9 12 -5 14 22 15 l34 2 -35 7 -35 7 43 2 c41 1 42 0 40 -29z m-10 -47
c-10 -2 -28 -2 -40 0 -13 2 -5 4 17 4 22 1 32 -1 23 -4z m0 -20 c-10 -2 -28
-2 -40 0 -13 2 -5 4 17 4 22 1 32 -1 23 -4z m0 -20 c-10 -2 -28 -2 -40 0 -13
2 -5 4 17 4 22 1 32 -1 23 -4z m-13 -23 c-21 -5 -24 -8 -10 -9 22 -1 33 -40
12 -42 -7 0 -3 -4 8 -9 16 -7 11 -9 -20 -9 -22 1 -34 3 -27 6 6 2 10 8 8 12
-3 4 -7 19 -10 34 -4 25 -3 27 32 26 l37 -1 -30 -8z"/>
<path d="M98 2303 c57 -2 147 -2 200 0 53 1 7 3 -103 3 -110 0 -154 -2 -97 -3z"/>
<path d="M418 2303 c12 -2 30 -2 40 0 9 3 -1 5 -23 4 -22 0 -30 -2 -17 -4z"/>
<path d="M482 2304 c8 -7 157 -8 165 0 3 3 -33 6 -82 6 -49 0 -86 -3 -83 -6z"/>
<path d="M688 2303 c6 -2 18 -2 25 0 6 3 1 5 -13 5 -14 0 -19 -2 -12 -5z"/>
<path d="M793 2303 c32 -2 81 -2 110 0 29 2 3 3 -58 3 -60 0 -84 -1 -52 -3z"/>
<path d="M2650 2290 c0 -5 7 -7 15 -4 8 4 15 8 15 10 0 2 -7 4 -15 4 -8 0 -15
-4 -15 -10z"/>
<path d="M2840 2290 c13 -9 13 -11 0 -20 -13 -8 -12 -10 3 -10 10 0 17 8 17
20 0 12 -7 20 -17 20 -15 0 -16 -2 -3 -10z"/>
<path d="M2020 2281 c0 -5 7 -12 16 -15 24 -9 27 -7 10 9 -17 17 -26 19 -26 6z"/>
<path d="M2066 2275 c4 -8 8 -15 10 -15 2 0 4 7 4 15 0 8 -4 15 -10 15 -5 0
-7 -7 -4 -15z"/>
<path d="M2300 2270 c0 -18 7 -20 64 -20 36 0 67 -3 69 -7 3 -5 -25 -8 -61 -7
l-67 1 63 -4 c54 -3 62 -7 62 -23 0 -18 -8 -20 -67 -22 l-68 -2 65 -3 c36 -2
68 -7 72 -11 4 -4 -25 -5 -65 -4 -40 2 -70 1 -67 -2 3 -2 33 -6 68 -7 34 -1
62 -6 62 -11 0 -6 -29 -8 -65 -6 -36 1 -65 0 -65 -4 0 -4 30 -8 66 -10 l67 -3
1 -40 2 -40 -66 1 -65 1 63 -4 c34 -2 62 -8 62 -13 0 -5 -28 -11 -62 -13 l-63
-4 66 1 c54 1 66 -2 64 -14 -2 -8 -4 -27 -4 -42 -1 -26 -3 -27 -68 -31 l-68
-3 68 -2 67 -2 0 -32 c0 -17 3 -28 8 -24 4 4 7 96 7 205 l0 196 -67 -3 c-48
-3 -68 -1 -68 8 0 8 18 11 55 9 30 -1 58 0 62 4 3 4 -24 7 -60 7 -60 0 -67 -2
-67 -20z"/>
<path d="M2658 2263 c7 -3 16 -2 19 1 4 3 -2 6 -13 5 -11 0 -14 -3 -6 -6z"/>
<path d="M2040 2241 c0 -6 5 -13 10 -16 6 -3 10 1 10 9 0 9 -4 16 -10 16 -5 0
-10 -4 -10 -9z"/>
<path d="M2480 2163 l0 -83 60 0 60 0 0 84 0 84 -60 -1 -60 -1 0 -83z m109 52
c-3 -2 -16 -7 -30 -9 -37 -7 -37 -8 1 -16 31 -7 29 -7 -20 -8 -30 0 -47 2 -37
5 9 2 17 8 17 13 0 5 -8 11 -17 13 -10 3 6 5 36 6 30 0 52 -1 50 -4z m1 -57
c0 -4 -20 -8 -45 -8 -25 0 -45 5 -45 10 0 6 20 9 45 8 25 0 45 -5 45 -10z
m-22 -25 c-16 -2 -40 -2 -55 0 -16 2 -3 4 27 4 30 0 43 -2 28 -4z m16 -21 c3
-5 -15 -10 -39 -10 -25 -1 -45 2 -45 8 0 12 77 14 84 2z"/>
<path d="M2658 2243 c6 -2 18 -2 25 0 6 3 1 5 -13 5 -14 0 -19 -2 -12 -5z"/>
<path d="M2828 2243 c6 -2 18 -2 25 0 6 3 1 5 -13 5 -14 0 -19 -2 -12 -5z"/>
<path d="M2913 2231 c1 -16 8 -21 27 -20 15 0 19 3 10 6 -8 3 -20 12 -27 20
-10 13 -12 12 -10 -6z"/>
<path d="M1230 2227 c-56 -30 -71 -44 -90 -83 -36 -73 -23 -139 37 -196 36
-34 95 -59 113 -48 10 6 7 9 -10 12 -13 1 -25 9 -28 16 -3 11 0 12 18 2 18
-10 24 -9 31 1 6 10 9 10 9 2 0 -7 7 -10 15 -6 13 5 13 8 -5 20 -17 12 -23 13
-37 1 -14 -11 -15 -10 -9 9 4 12 2 24 -4 28 -15 9 -12 28 4 22 8 -3 17 1 20
10 10 26 -2 28 -27 5 -23 -22 -32 -52 -15 -52 14 0 9 -18 -8 -24 -22 -8 -68
27 -87 66 -17 38 -9 115 12 110 7 -1 10 2 6 8 -3 6 -11 7 -17 4 -6 -4 -3 4 8
18 10 14 39 34 64 45 106 46 99 42 60 42 -19 1 -46 -5 -60 -12z"/>
<path d="M1369 2208 c16 -28 35 -36 45 -19 3 4 -6 13 -20 20 -14 6 -23 15 -20
19 3 5 -1 9 -8 9 -10 0 -10 -7 3 -29z"/>
<path d="M2658 2223 c6 -2 18 -2 25 0 6 3 1 5 -13 5 -14 0 -19 -2 -12 -5z"/>
<path d="M1322 2195 c-12 -14 -17 -27 -11 -30 11 -7 3 -25 -12 -25 -6 0 -8 3
-6 8 3 4 -6 8 -19 8 -13 1 -24 -3 -24 -10 0 -6 -5 -4 -10 4 -8 13 -10 13 -10
-2 0 -9 -8 -21 -17 -27 -13 -7 -14 -12 -6 -23 11 -13 12 -16 14 -40 0 -7 4 -4
9 7 4 11 4 24 -1 30 -13 14 -11 25 6 25 7 0 19 8 24 18 10 16 10 16 11 0 0
-11 8 -18 20 -18 11 0 20 -4 20 -10 0 -5 -4 -10 -10 -10 -23 0 5 -93 30 -96
21 -3 22 -4 10 -19 -6 -8 -9 -19 -5 -25 5 -8 11 -6 19 6 12 16 15 14 31 -13
15 -25 23 -30 44 -26 32 5 53 23 47 38 -2 7 1 18 7 24 9 9 6 16 -13 31 -14 10
-21 22 -17 26 4 4 7 2 7 -4 0 -7 5 -12 11 -12 5 0 7 5 3 11 -4 7 0 9 13 5 16
-5 22 1 31 31 11 36 10 39 -18 66 -29 27 -36 25 -24 -7 3 -9 15 -16 25 -16 22
0 25 -15 5 -23 -10 -4 -12 -14 -8 -29 5 -20 3 -21 -11 -10 -12 10 -21 11 -36
2 -12 -6 -21 -8 -21 -5 0 3 -11 -6 -25 -20 -36 -35 -57 -32 -94 18 -12 15 -12
17 5 10 16 -6 17 -4 7 8 -18 22 -3 36 44 41 41 3 62 -10 48 -32 -3 -4 2 -10
10 -14 10 -4 15 1 15 14 0 11 -4 20 -10 20 -5 0 -10 5 -10 10 0 6 9 10 20 10
26 0 26 22 0 45 -16 15 -22 16 -35 5 -9 -7 -13 -21 -10 -31 7 -20 -9 -26 -20
-9 -4 7 -13 6 -27 -1 -18 -10 -20 -9 -14 6 3 10 1 24 -5 31 -9 11 -8 14 4 14
12 0 27 19 27 36 0 11 -19 1 -38 -21z m119 -42 c7 -10 9 -15 5 -11 -5 4 -15 0
-22 -9 -11 -15 -11 -14 -7 10 6 32 7 32 24 10z m-1 -138 c0 -8 6 -12 14 -9 8
3 17 1 20 -4 3 -6 -1 -13 -10 -16 -11 -4 -13 -12 -8 -28 6 -20 5 -21 -10 -9
-13 11 -19 11 -31 1 -13 -11 -15 -8 -15 14 0 14 -4 26 -10 26 -5 0 -10 4 -10
10 0 5 7 7 15 4 8 -4 17 1 21 10 8 20 24 21 24 1z"/>
<path d="M2300 2209 c0 -5 27 -9 60 -9 33 0 60 4 60 10 0 5 -27 9 -60 9 -33
-1 -60 -5 -60 -10z"/>
<path d="M2029 2208 c-8 -20 -4 -48 7 -48 8 0 14 -4 14 -9 0 -5 6 -11 14 -14
10 -4 14 0 13 14 -1 10 -7 19 -15 19 -7 0 -12 7 -10 16 2 14 -19 34 -23 22z"/>
<path d="M2090 2197 c0 -10 22 -13 90 -12 61 0 90 3 90 11 0 8 -29 12 -90 13
-68 1 -90 -2 -90 -12z"/>
<path d="M2653 2203 c9 -2 23 -2 30 0 6 3 -1 5 -18 5 -16 0 -22 -2 -12 -5z"/>
<path d="M2823 2203 c9 -2 23 -2 30 0 6 3 -1 5 -18 5 -16 0 -22 -2 -12 -5z"/>
<path d="M2947 2189 c6 -6 9 -18 6 -25 -3 -8 0 -14 6 -14 6 0 11 4 11 9 0 19
-12 41 -23 41 -8 0 -8 -3 0 -11z"/>
<path d="M2658 2183 c6 -2 18 -2 25 0 6 3 1 5 -13 5 -14 0 -19 -2 -12 -5z"/>
<path d="M2818 2183 c7 -3 16 -2 19 1 4 3 -2 6 -13 5 -11 0 -14 -3 -6 -6z"/>
<path d="M1931 2164 c0 -11 3 -14 6 -6 3 7 2 16 -1 19 -3 4 -6 -2 -5 -13z"/>
<path d="M2090 2160 c0 -6 37 -10 90 -10 53 0 90 4 90 10 0 6 -37 10 -90 10
-53 0 -90 -4 -90 -10z"/>
<path d="M2658 2163 c6 -2 18 -2 25 0 6 3 1 5 -13 5 -14 0 -19 -2 -12 -5z"/>
<path d="M2906 2000 l7 -159 -54 2 c-45 3 -54 6 -55 23 0 10 -1 54 -2 97 l-2
77 -45 0 -45 0 0 -47 c0 -27 -3 -71 -6 -98 l-6 -51 -213 -2 c-172 -2 -214 0
-218 11 -4 10 -25 13 -86 11 -45 -1 -81 2 -81 7 0 5 38 9 85 9 50 0 85 4 85
10 0 6 -35 10 -85 10 -50 0 -85 4 -85 10 0 6 35 10 85 10 50 0 85 4 85 10 0 6
-35 10 -85 10 -50 0 -85 4 -85 10 0 6 35 10 85 10 50 0 85 4 85 10 0 6 -36 10
-87 10 -47 0 -83 3 -79 8 4 4 42 7 84 7 50 0 77 4 79 12 3 9 -20 13 -84 16
l-88 3 88 2 c66 2 87 5 87 16 0 11 -17 13 -80 11 -44 -2 -83 1 -86 6 -3 5 33
9 80 9 51 0 86 4 86 10 0 6 -35 10 -85 10 -50 0 -85 4 -85 10 0 6 35 10 85 10
50 0 85 4 85 10 0 6 -37 10 -91 10 l-90 0 3 -145 3 -145 -32 0 -33 0 -2 138
-1 137 -7 -110 c-4 -60 -8 -123 -9 -139 -1 -26 -4 -28 -31 -24 -29 4 -30 4
-30 -39 l0 -43 525 0 c442 0 525 2 525 14 0 22 -19 25 -176 20 -153 -4 -543
-7 -740 -5 -94 1 -111 3 -111 17 0 10 7 14 19 11 10 -3 16 -1 12 4 -3 5 -1 9
5 9 5 0 12 -4 15 -9 7 -11 68 -3 76 9 7 12 133 15 151 5 15 -10 72 -13 274
-13 77 0 150 -1 163 -1 12 0 22 5 23 12 0 6 2 21 5 32 2 11 6 47 9 80 2 33 5
62 6 65 1 3 1 8 0 13 0 4 11 7 27 6 23 0 24 -2 8 -8 -16 -6 -17 -8 -4 -13 9
-4 17 -22 20 -42 2 -19 0 -32 -5 -29 -9 5 -7 -7 15 -78 8 -29 15 -35 29 -32
11 3 19 0 19 -7 0 -9 4 -9 13 -2 7 6 41 8 80 5 57 -4 67 -2 67 12 0 13 -8 16
-37 13 -32 -2 -38 0 -38 17 -1 11 -2 82 -3 158 -1 90 -6 137 -13 137 -7 0 -8
-48 -3 -160z"/>
<path d="M2647 2130 c-4 -16 0 -20 21 -19 17 1 21 3 10 6 -10 2 -18 8 -18 13
0 5 8 11 18 13 13 4 13 5 -4 6 -14 1 -24 -6 -27 -19z"/>
<path d="M2828 2143 c6 -2 18 -2 25 0 6 3 1 5 -13 5 -14 0 -19 -2 -12 -5z"/>
<path d="M1931 2114 c0 -11 3 -14 6 -6 3 7 2 16 -1 19 -3 4 -6 -2 -5 -13z"/>
<path d="M2830 2120 c-12 -8 -10 -10 8 -10 13 0 20 4 17 10 -7 12 -6 12 -25 0z"/>
<path d="M2327 2113 c18 -2 50 -2 70 0 21 2 7 4 -32 4 -38 0 -55 -2 -38 -4z"/>
<path d="M1976 2084 c-5 -14 -4 -15 9 -4 17 14 19 20 6 20 -5 0 -12 -7 -15
-16z"/>
<path d="M2300 2090 c0 -6 27 -10 60 -10 33 0 60 4 60 10 0 6 -27 10 -60 10
-33 0 -60 -4 -60 -10z"/>
<path d="M2653 2093 c9 -2 25 -2 35 0 9 3 1 5 -18 5 -19 0 -27 -2 -17 -5z"/>
<path d="M2823 2093 c9 -2 23 -2 30 0 6 3 -1 5 -18 5 -16 0 -22 -2 -12 -5z"/>
<path d="M1931 1968 c-1 -79 2 -118 8 -109 10 15 7 218 -2 228 -3 2 -6 -51 -6
-119z"/>
<path d="M2693 2073 c31 -2 83 -2 115 0 31 2 5 3 -58 3 -63 0 -89 -1 -57 -3z"/>
<path d="M1247 2063 c-11 -10 -8 -25 3 -18 6 3 10 1 10 -6 0 -10 3 -10 11 -2
6 6 8 16 5 22 -8 12 -20 14 -29 4z"/>
<path d="M2327 2063 c18 -2 50 -2 70 0 21 2 7 4 -32 4 -38 0 -55 -2 -38 -4z"/>
<path d="M2678 2053 c23 -2 61 -2 85 0 23 2 4 4 -43 4 -47 0 -66 -2 -42 -4z"/>
<path d="M2823 2053 c9 -2 23 -2 30 0 6 3 -1 5 -18 5 -16 0 -22 -2 -12 -5z"/>
<path d="M2480 1968 l0 -83 60 0 60 0 0 83 0 82 -60 0 -60 0 0 -82z m93 55
c-13 -2 -35 -2 -50 0 -16 2 -5 4 22 4 28 0 40 -2 28 -4z m5 -20 c-10 -2 -18
-8 -18 -13 0 -5 8 -11 18 -13 9 -3 -8 -5 -38 -5 -30 0 -47 2 -37 5 9 2 17 8
17 13 0 5 -8 11 -17 13 -10 3 7 5 37 5 30 0 47 -2 38 -5z m0 -50 c-10 -2 -18
-8 -18 -13 0 -5 8 -11 18 -13 9 -3 -5 -5 -33 -5 -27 0 -44 2 -37 5 17 7 15 21
-5 26 -10 3 7 5 37 5 30 0 47 -2 38 -5z"/>
<path d="M2653 2033 c9 -2 25 -2 35 0 9 3 1 5 -18 5 -19 0 -27 -2 -17 -5z"/>
<path d="M2823 2033 c9 -2 23 -2 30 0 6 3 -1 5 -18 5 -16 0 -22 -2 -12 -5z"/>
<path d="M2640 2010 c0 -5 11 -10 25 -10 14 0 25 5 25 10 0 6 -11 10 -25 10
-14 0 -25 -4 -25 -10z"/>
<path d="M2815 2010 c3 -5 15 -10 26 -10 10 0 19 5 19 10 0 6 -12 10 -26 10
-14 0 -23 -4 -19 -10z"/>
<path d="M2327 1993 c18 -2 50 -2 70 0 21 2 7 4 -32 4 -38 0 -55 -2 -38 -4z"/>
<path d="M2641 1927 c-3 -72 4 -72 17 0 7 38 6 53 -3 57 -8 3 -12 -14 -14 -57z"/>
<path d="M2853 1930 c0 -36 2 -50 4 -32 2 17 2 47 0 65 -2 17 -4 3 -4 -33z"/>
<path d="M2300 1970 c0 -6 27 -10 60 -10 33 0 60 4 60 10 0 6 -27 10 -60 10
-33 0 -60 -4 -60 -10z"/>
<path d="M627 1959 c7 -7 18 -14 25 -16 49 -10 91 -22 96 -28 13 -13 12 -259
-1 -295 -33 -90 -90 -152 -158 -170 -23 -7 -40 -19 -48 -36 -16 -35 -7 -42 13
-11 9 13 34 30 56 37 22 7 49 23 61 36 12 13 26 21 31 18 5 -3 7 -2 6 3 -5 13
28 53 37 45 5 -4 5 -2 1 5 -3 6 4 40 17 75 14 38 22 81 21 108 -7 147 -25 226
-50 216 -8 -3 -14 -1 -14 4 0 5 -12 7 -27 6 -16 -2 -39 1 -53 6 -20 7 -23 7
-13 -3z"/>
<path d="M2328 1943 c17 -2 47 -2 65 0 17 2 3 4 -33 4 -36 0 -50 -2 -32 -4z"/>
<path d="M597 1883 c-7 -69 -25 -125 -38 -117 -5 3 -9 15 -9 27 -1 12 -9 45
-19 72 -16 47 -20 50 -57 55 -21 3 -56 3 -77 1 -41 -3 -55 -22 -63 -86 -2 -16
-9 -59 -16 -93 -14 -72 -17 -71 -64 21 -14 27 -27 47 -30 44 -3 -2 9 -29 26
-58 17 -30 38 -70 47 -89 l16 -35 19 100 c10 55 21 118 24 140 l6 40 72 0 71
-1 23 -89 c13 -50 26 -119 30 -155 l7 -65 33 97 c17 53 32 107 31 120 -1 27
-1 26 -30 -72 -18 -64 -23 -72 -30 -52 -6 16 -1 44 15 95 29 87 41 157 28 157
-5 0 -12 -26 -15 -57z"/>
<path d="M633 1880 c0 -25 2 -35 4 -22 2 12 2 32 0 45 -2 12 -4 2 -4 -23z"/>
<path d="M136 1843 c-2 -2 -16 -6 -32 -9 -16 -3 -34 -10 -40 -15 -13 -11 -24
-140 -11 -132 4 2 7 -4 7 -13 0 -15 -4 -14 -27 7 -23 21 -25 22 -19 4 10 -27
68 -103 84 -109 9 -4 9 1 -2 22 -16 31 -36 129 -36 177 0 30 2 32 68 47 38 10
68 13 70 7 2 -5 8 -9 14 -9 7 0 6 5 -1 14 -11 13 -64 19 -75 9z"/>
<path d="M2733 1833 c9 -2 23 -2 30 0 6 3 -1 5 -18 5 -16 0 -22 -2 -12 -5z"/>
<path d="M192 1759 c18 -35 35 -66 38 -69 3 -3 18 -25 32 -50 15 -25 33 -54
41 -64 13 -18 14 -17 9 12 -2 18 -7 30 -11 28 -9 -6 -73 92 -102 155 -9 20
-22 40 -29 44 -6 4 3 -21 22 -56z"/>
<path d="M1950 1605 c0 -101 3 -135 13 -135 14 -1 843 -1 960 0 42 0 77 3 77
8 0 4 -231 7 -513 7 l-512 0 -2 25 c0 14 -1 71 -2 128 -1 61 -5 102 -11 102
-6 0 -10 -52 -10 -135z"/>
<path d="M0 1603 c0 -22 47 -84 85 -113 42 -31 84 -49 146 -60 35 -7 74 -19
87 -27 23 -14 23 -14 7 10 -12 20 -27 25 -75 30 -99 11 -190 70 -233 152 -14
27 -16 28 -17 8z"/>
<path d="M630 1570 c0 -15 7 -20 25 -20 18 0 25 5 25 20 0 15 -7 20 -25 20
-18 0 -25 -5 -25 -20z"/>
<path d="M978 1175 l3 -285 479 0 c264 0 480 -4 480 -8 0 -5 -3 -12 -7 -16 -4
-3 -7 -76 -7 -161 -1 -118 2 -155 12 -155 9 0 12 98 12 455 l0 455 -487 0
-488 0 3 -285z m947 233 c1 -16 -3 -28 -9 -28 -6 0 -3 -7 6 -16 15 -15 14 -18
-9 -40 -23 -21 -23 -28 -3 -26 3 0 4 -17 2 -39 -3 -22 1 -46 8 -54 7 -9 10
-19 6 -23 -4 -4 -14 2 -22 12 -12 17 -16 17 -31 5 -15 -13 -16 -12 -8 6 20 48
18 73 -8 90 -17 11 -34 14 -53 9 -27 -7 -28 -6 -14 11 14 17 14 18 -7 7 -19
-11 -24 -9 -35 10 -7 13 -11 26 -10 31 1 4 -4 7 -12 7 -8 0 -21 3 -30 6 -11 4
-16 0 -17 -12 0 -11 -3 -14 -6 -6 -9 24 -23 12 -23 -21 l0 -34 -57 1 c-32 1
-62 6 -66 11 -5 6 -7 3 -3 -7 3 -10 2 -18 -2 -18 -13 1 -42 27 -42 39 0 7 -5
9 -10 6 -6 -4 -8 -11 -5 -16 4 -5 1 -9 -4 -9 -6 0 -11 -7 -11 -15 0 -12 18
-15 103 -15 l103 0 17 35 c22 45 43 45 51 -1 6 -28 11 -35 29 -34 43 4 48 -1
72 -55 21 -47 29 -55 51 -55 22 0 25 -3 20 -22 -3 -13 -6 -31 -6 -40 0 -17
-25 -18 -394 -18 l-395 0 -20 29 c-12 16 -38 40 -58 52 -23 15 -32 24 -23 27
8 3 16 0 18 -6 2 -7 26 -12 56 -12 52 0 53 1 72 40 l19 40 90 2 90 2 -72 3
c-40 2 -73 7 -73 12 0 9 -45 31 -64 31 -28 0 -56 -40 -56 -83 -1 -38 -2 -40
-15 -24 -10 14 -20 17 -36 12 -22 -7 -23 -7 -8 16 9 12 22 25 30 28 12 4 12 1
-1 -15 -10 -13 -10 -16 0 -7 7 7 14 23 16 37 2 18 -3 26 -21 30 -13 3 -31 3
-41 -1 -12 -4 -15 -3 -10 6 4 6 7 37 7 69 l0 57 462 0 461 0 1 -27z m-897
-145 c-30 -30 -46 -26 -28 6 6 12 21 21 33 21 21 0 21 -1 -5 -27z m137 17 c4
-6 -5 -10 -20 -10 -24 0 -26 -3 -20 -27 5 -23 4 -25 -9 -14 -9 8 -16 19 -16
25 0 29 51 49 65 26z m679 4 c19 -7 21 -49 4 -60 -8 -5 -9 -2 -4 11 5 14 0 24
-16 37 -23 17 -14 24 16 12z m93 -56 c-3 -7 -5 -2 -5 12 0 14 2 19 5 13 2 -7
2 -19 0 -25z m-851 -149 c-7 10 -3 10 15 -2 20 -12 86 -15 403 -15 l378 -1 25
27 25 27 -7 -100 c-4 -55 -8 -101 -9 -102 -2 -2 -434 -4 -776 -3 l-135 0 -1
126 -2 126 46 -48 c25 -27 42 -43 38 -35z"/>
<path d="M1390 1369 c0 -5 5 -7 10 -4 6 3 10 8 10 11 0 2 -4 4 -10 4 -5 0 -10
-5 -10 -11z"/>
<path d="M1456 1365 c-3 -8 -1 -15 4 -15 6 0 10 7 10 15 0 8 -2 15 -4 15 -2 0
-6 -7 -10 -15z"/>
<path d="M1280 1348 c-12 -10 -20 -22 -16 -25 4 -4 -8 -15 -26 -25 l-33 -18
29 2 c16 2 34 12 40 23 6 10 17 26 25 34 12 13 12 11 7 -16 -6 -28 -4 -33 25
-47 18 -9 49 -16 71 -16 34 0 38 3 38 25 0 14 -4 25 -10 25 -5 0 -10 -7 -10
-15 0 -20 -10 -19 -26 3 -11 14 -16 15 -33 5 -27 -17 -34 -16 -27 2 3 8 1 15
-5 15 -6 0 -9 6 -6 13 2 6 -1 17 -7 23 -9 8 -18 6 -36 -8z m104 -66 c3 -5 -1
-9 -9 -9 -8 0 -15 4 -15 9 0 4 4 8 9 8 6 0 12 -4 15 -8z"/>
<path d="M1420 1350 c0 -5 5 -10 11 -10 5 0 7 -4 4 -10 -3 -5 -1 -10 4 -10 13
0 13 3 5 24 -7 18 -24 22 -24 6z"/>
<path d="M1885 1341 c-4 -14 -11 -18 -23 -14 -14 6 -15 5 -2 -9 14 -15 16 -14
24 1 5 9 16 22 24 29 14 11 14 12 0 12 -9 0 -19 -9 -23 -19z"/>
<path d="M1615 1331 c-3 -5 -1 -12 5 -16 5 -3 10 1 10 9 0 18 -6 21 -15 7z"/>
<path d="M1215 1320 c6 -10 4 -12 -11 -6 -15 6 -17 5 -6 -5 9 -9 15 -10 23 -2
8 8 7 13 -2 18 -8 6 -10 4 -4 -5z"/>
<path d="M1076 1308 c3 -5 10 -6 15 -3 13 9 11 12 -6 12 -8 0 -12 -4 -9 -9z"/>
<path d="M1533 1263 c48 -2 125 -2 170 0 45 1 6 3 -88 3 -93 0 -130 -2 -82 -3z"/>
<path d="M1185 1230 c-4 -6 5 -10 24 -8 17 1 31 6 31 10 0 12 -48 10 -55 -2z"/>
<path d="M1250 1233 c0 -5 20 -8 45 -9 25 0 45 3 45 8 0 4 -20 8 -45 8 -25 0
-45 -3 -45 -7z"/>
<path d="M1350 1232 c0 -4 16 -9 35 -10 19 -2 35 2 35 8 0 5 -16 10 -35 10
-19 0 -35 -4 -35 -8z"/>
<path d="M1420 1205 c-10 -12 -10 -15 4 -15 9 0 16 7 16 15 0 8 -2 15 -4 15
-2 0 -9 -7 -16 -15z"/>
<path d="M1503 1213 c26 -2 67 -2 90 0 23 2 2 3 -48 3 -49 0 -68 -1 -42 -3z"/>
<path d="M1683 1213 c26 -2 67 -2 90 0 23 2 2 3 -48 3 -49 0 -68 -1 -42 -3z"/>
<path d="M1228 1203 c7 -3 16 -2 19 1 4 3 -2 6 -13 5 -11 0 -14 -3 -6 -6z"/>
<path d="M1260 1195 c0 -8 8 -15 18 -15 13 0 14 2 3 9 -11 7 -11 9 0 14 10 4
9 6 -3 6 -10 1 -18 -6 -18 -14z"/>
<path d="M1313 1203 c9 -2 25 -2 35 0 9 3 1 5 -18 5 -19 0 -27 -2 -17 -5z"/>
<path d="M1503 1193 c26 -2 67 -2 90 0 23 2 2 3 -48 3 -49 0 -68 -1 -42 -3z"/>
<path d="M1685 1190 l50 -6 -50 -5 c-39 -4 -31 -6 38 -7 71 -2 87 1 87 13 0
12 -16 15 -87 13 -76 -1 -81 -2 -38 -8z"/>
<path d="M1188 1183 c7 -3 16 -2 19 1 4 3 -2 6 -13 5 -11 0 -14 -3 -6 -6z"/>
<path d="M1228 1183 c7 -3 16 -2 19 1 4 3 -2 6 -13 5 -11 0 -14 -3 -6 -6z"/>
<path d="M1313 1183 c9 -2 25 -2 35 0 9 3 1 5 -18 5 -19 0 -27 -2 -17 -5z"/>
<path d="M1493 1173 c26 -2 68 -2 95 0 26 2 4 3 -48 3 -52 0 -74 -1 -47 -3z"/>
<path d="M520 1430 c-9 -6 -10 -10 -3 -10 6 0 15 5 18 10 8 12 4 12 -15 0z"/>
<path d="M390 1412 c0 -14 8 -17 45 -17 36 0 45 3 45 18 0 14 -9 17 -45 17
-36 0 -45 -3 -45 -18z"/>
<path d="M0 1391 c0 -11 33 -18 125 -27 108 -10 137 -12 182 -13 41 -1 42 -2
37 -28 l-6 -28 96 3 c98 3 103 6 88 45 -6 15 -24 18 -112 22 -58 2 -170 11
-249 20 -169 18 -161 17 -161 6z m490 -58 c0 -4 -25 -9 -55 -10 -30 -2 -55 1
-55 5 0 4 25 8 55 10 30 2 55 0 55 -5z"/>
<path d="M940 1346 c0 -14 4 -27 8 -30 5 -3 9 8 9 24 0 17 -4 30 -9 30 -4 0
-8 -11 -8 -24z"/>
<path d="M540 1332 c8 -5 69 -19 135 -31 66 -13 125 -27 132 -33 7 -5 17 -7
22 -4 5 4 13 1 17 -6 4 -7 4 -10 -1 -6 -4 4 -17 3 -27 -3 -20 -11 -44 -15
-143 -23 -27 -2 -57 -7 -65 -10 -26 -9 -346 -34 -523 -41 -75 -3 -97 -8 -85
-21 13 -12 602 33 743 57 115 20 152 44 106 69 -52 28 -354 78 -311 52z"/>
<path d="M2282 1261 c-2 -74 -2 -75 -47 -117 l-45 -43 -67 6 c-82 7 -80 -4 3
-16 52 -8 54 -9 19 -10 -22 -1 -45 -5 -52 -9 -6 -4 85 -7 203 -7 117 0 206 3
196 7 -9 4 -35 7 -57 8 l-40 2 44 9 c70 13 72 19 6 15 -48 -3 -66 0 -91 17
-47 31 -58 55 -65 137 l-6 75 -1 -74z m17 -108 c-3 -20 2 -33 12 -30 6 1 13
-3 16 -10 3 -7 -16 -12 -57 -15 -45 -2 -57 0 -44 7 9 6 26 20 37 33 20 22 38
29 36 15z"/>
<path d="M883 1303 c-24 -9 -13 -20 14 -15 18 3 30 -1 40 -13 7 -11 13 -14 13
-8 0 28 -38 48 -67 36z"/>
<path d="M1984 1284 c-21 -32 -10 -73 24 -85 18 -7 28 -4 48 16 29 29 30 35 3
69 -26 33 -54 33 -75 0z m64 -6 c16 -16 15 -36 -4 -55 -12 -12 -20 -13 -40 -5
-38 18 -26 72 16 72 9 0 21 -5 28 -12z"/>
<path d="M2097 1304 c-14 -14 -7 -43 14 -58 12 -8 18 -19 14 -26 -5 -8 -10 -8
-20 0 -9 7 -15 8 -19 1 -4 -6 2 -15 13 -21 16 -8 23 -6 35 12 21 30 20 33 -10
46 -29 14 -23 36 8 26 15 -4 19 -2 16 7 -5 15 -40 24 -51 13z"/>
<path d="M934 1236 c-3 -9 -17 -16 -32 -16 -19 0 -23 -3 -15 -11 14 -14 49 -3
57 18 4 9 4 18 1 21 -2 3 -7 -3 -11 -12z"/>
<path d="M2702 1148 c-2 -60 -5 -69 -33 -97 -27 -27 -38 -31 -92 -33 l-62 -1
50 -7 c28 -4 39 -8 25 -9 -14 -1 -30 -5 -37 -9 -6 -4 67 -7 162 -7 95 0 172 2
169 4 -2 2 -21 7 -41 11 l-38 8 38 1 c20 0 37 4 37 9 0 4 -21 5 -46 3 -83 -6
-115 27 -125 129 l-6 65 -1 -67z m26 -116 c5 -15 -23 -26 -44 -18 -13 5 -14 9
-5 20 14 16 43 15 49 -2z"/>
<path d="M618 1163 c7 -3 16 -2 19 1 4 3 -2 6 -13 5 -11 0 -14 -3 -6 -6z"/>
<path d="M350 1140 l-35 -7 32 -2 c17 0 35 4 38 9 3 6 5 9 3 9 -2 -1 -19 -5
-38 -9z"/>
<path d="M413 1143 c9 -2 25 -2 35 0 9 3 1 5 -18 5 -19 0 -27 -2 -17 -5z"/>
<path d="M228 1123 c12 -2 32 -2 45 0 12 2 2 4 -23 4 -25 0 -35 -2 -22 -4z"/>
<path d="M58 1113 c6 -2 18 -2 25 0 6 3 1 5 -13 5 -14 0 -19 -2 -12 -5z"/>
<path d="M2153 1005 c0 -27 2 -38 4 -22 2 15 2 37 0 50 -2 12 -4 0 -4 -28z"/>
<path d="M2411 1000 l1 -45 10 34 c6 23 6 37 -1 44 -8 8 -11 -2 -10 -33z"/>
<path d="M2250 1011 c-5 -11 -10 -29 -10 -40 0 -18 6 -21 45 -21 39 0 45 3 45
21 0 34 -19 59 -45 59 -14 0 -29 -8 -35 -19z m34 -27 c3 -8 2 -12 -4 -9 -6 3
-10 10 -10 16 0 14 7 11 14 -7z"/>
<path d="M2593 935 c0 -22 2 -30 4 -17 2 12 2 30 0 40 -3 9 -5 -1 -4 -23z"/>
<path d="M2682 948 c-7 -7 -12 -21 -12 -32 0 -18 6 -21 37 -20 31 1 37 5 35
20 -8 40 -37 55 -60 32z"/>
<path d="M2811 930 c0 -29 1 -32 10 -17 7 11 7 23 0 35 -9 14 -10 11 -10 -18z"/>
<path d="M2080 933 c19 -2 46 -6 60 -10 20 -6 14 -8 -30 -13 -30 -4 46 -7 170
-7 124 0 200 3 170 7 -57 6 -52 17 10 22 19 2 -66 4 -190 4 -124 0 -209 -1
-190 -3z"/>
<path d="M2534 878 c6 -4 25 -8 41 -9 30 -2 30 -2 -5 -9 -21 -4 32 -8 138 -11
94 -2 172 -1 172 4 0 4 -17 7 -37 8 l-38 1 33 8 c18 4 35 9 37 11 2 2 -77 4
-175 4 -98 0 -173 -3 -166 -7z"/>
<path d="M653 873 c9 -2 23 -2 30 0 6 3 -1 5 -18 5 -16 0 -22 -2 -12 -5z"/>
<path d="M2149 878 c-5 -26 -3 -98 3 -98 4 0 8 23 8 50 0 28 -2 50 -5 50 -3 0
-5 -1 -6 -2z"/>
<path d="M2410 843 c0 -34 18 -82 21 -58 6 42 3 72 -8 83 -11 11 -13 7 -13
-25z"/>
<path d="M178 863 c12 -2 30 -2 40 0 9 3 -1 5 -23 4 -22 0 -30 -2 -17 -4z"/>
<path d="M1270 435 c0 -241 2 -436 5 -433 8 7 8 859 0 866 -3 3 -5 -192 -5
-433z"/>
<path d="M2255 846 c-9 -14 -15 -33 -13 -43 2 -15 10 -17 51 -13 l47 5 -17 35
c-22 43 -47 49 -68 16z m39 -15 c3 -5 -1 -11 -9 -14 -9 -4 -12 -1 -8 9 6 16
10 17 17 5z"/>
<path d="M218 823 c7 -3 16 -2 19 1 4 3 -2 6 -13 5 -11 0 -14 -3 -6 -6z"/>
<path d="M2591 795 c1 -40 1 -40 10 -10 5 18 5 33 -1 39 -7 7 -10 -4 -9 -29z"/>
<path d="M2686 811 c-29 -32 -21 -51 25 -51 33 0 40 3 35 16 -3 9 -6 20 -6 24
0 5 -8 14 -19 19 -14 8 -22 6 -35 -8z"/>
<path d="M2810 795 c0 -19 5 -35 10 -35 6 0 10 16 10 35 0 19 -4 35 -10 35 -5
0 -10 -16 -10 -35z"/>
<path d="M1700 793 c-19 -3 -49 -17 -66 -31 -18 -15 -42 -34 -52 -42 -23 -17
-43 -68 -21 -55 9 6 11 4 6 -8 -3 -9 -1 -18 6 -20 9 -3 9 -7 0 -17 -6 -7 -9
-20 -5 -29 5 -13 3 -14 -10 -3 -13 11 -20 8 -43 -20 -49 -57 -79 -136 -79
-205 0 -51 -3 -63 -16 -63 -13 0 -15 10 -9 69 7 82 37 148 94 208 23 23 39 43
36 43 -12 0 -77 -43 -105 -69 -30 -27 -86 -134 -86 -163 0 -10 -7 -18 -15 -18
-21 0 -18 27 9 85 28 62 95 129 158 161 56 28 62 37 16 22 -18 -6 -41 -11 -50
-11 -9 -1 -14 -5 -12 -9 5 -8 -37 -34 -49 -30 -5 1 -5 -3 -1 -9 5 -9 2 -10
-10 -6 -10 4 -15 3 -11 -3 8 -13 -30 -62 -40 -52 -5 4 -5 1 -1 -5 4 -7 2 -13
-4 -13 -6 0 -9 -4 -6 -9 4 -5 1 -11 -4 -13 -6 -2 -12 -10 -13 -18 -2 -8 -8
-23 -13 -33 -14 -24 -6 -67 14 -74 8 -4 23 -1 34 6 11 7 22 10 25 8 4 -4 13
-53 15 -83 2 -18 26 -12 48 11 16 17 21 36 22 86 1 39 7 73 17 88 8 13 16 30
17 38 4 22 35 53 47 46 5 -3 7 -1 3 5 -3 6 -2 13 3 16 5 3 11 -5 13 -19 3 -14
1 -25 -3 -25 -5 0 0 -9 11 -20 11 -11 20 -23 21 -27 0 -5 3 -19 5 -33 3 -14 0
-44 -6 -68 -17 -67 2 -74 21 -9 19 64 15 94 -20 151 -26 41 -26 50 -2 43 22
-5 38 32 19 44 -16 10 -2 40 17 33 8 -3 15 -2 15 3 0 17 -13 23 -26 12 -18
-15 -34 -3 -34 27 0 20 12 31 23 22 1 -2 16 10 32 25 39 36 66 42 101 24 60
-31 68 -49 67 -155 0 -53 4 -103 9 -109 7 -9 7 -13 1 -13 -6 0 -11 -30 -12
-66 -1 -37 -4 -70 -7 -75 -10 -16 6 -9 26 11 11 11 17 20 13 20 -5 0 -7 69 -5
152 2 129 0 159 -15 190 -10 21 -22 38 -26 38 -5 0 -20 9 -33 19 -17 13 -20
21 -12 24 14 6 10 6 -42 0z m-110 -193 c0 -5 -2 -10 -4 -10 -3 0 -8 5 -11 10
-3 6 -1 10 4 10 6 0 11 -4 11 -10z m-204 -187 c-8 -15 -15 -25 -16 -21 0 12
23 58 27 54 3 -2 -2 -17 -11 -33z"/>
<path d="M287 771 c4 -16 8 -18 23 -9 14 9 22 9 34 -1 14 -12 16 -10 16 8 0
18 -6 21 -39 21 -34 0 -38 -3 -34 -19z"/>
<path d="M1605 769 c-4 -6 -5 -12 -2 -15 2 -3 7 2 10 11 7 17 1 20 -8 4z"/>
<path d="M30 760 c0 -9 117 -48 180 -60 85 -16 931 -15 941 1 11 19 -20 38
-62 39 -20 0 -39 3 -43 7 -11 12 -56 14 -56 3 0 -5 -9 -10 -19 -10 -11 0 -22
-4 -25 -8 -7 -11 -355 -5 -476 9 -62 7 -105 7 -125 0 l-30 -9 33 -1 c19 -1 31
-5 27 -11 -11 -18 -50 -10 -79 16 -26 25 -33 26 -95 22 -36 -3 -90 -2 -119 2
-28 3 -52 4 -52 0z m1008 -29 c8 -5 -1 -8 -25 -9 -28 -1 -34 1 -23 8 18 12 31
12 48 1z m-749 -5 c-12 -10 -60 -16 -54 -6 3 5 18 10 32 10 15 0 24 -2 22 -4z"/>
<path d="M685 750 c3 -5 8 -10 11 -10 2 0 4 5 4 10 0 6 -5 10 -11 10 -5 0 -7
-4 -4 -10z"/>
<path d="M900 750 c-13 -8 -12 -10 3 -10 9 0 17 5 17 10 0 12 -1 12 -20 0z"/>
<path d="M2081 745 c-40 -8 -76 -17 -79 -20 -3 -3 115 -5 261 -5 147 0 267 -3
267 -7 0 -5 85 -8 189 -8 105 0 187 3 183 7 -18 18 -133 39 -165 30 -18 -5
-43 -5 -55 -1 -13 5 -43 4 -71 -2 -37 -8 -67 -7 -126 4 -97 19 -308 19 -404 2z"/>
<path d="M858 743 c7 -3 16 -2 19 1 4 3 -2 6 -13 5 -11 0 -14 -3 -6 -6z"/>
<path d="M2147 656 c-7 -55 -4 -77 9 -64 3 3 4 32 2 64 l-3 59 -8 -59z"/>
<path d="M2410 647 l0 -53 35 0 c20 1 35 6 35 13 0 7 -12 11 -27 10 -25 -2
-26 1 -26 41 0 23 -3 42 -8 42 -5 0 -9 -24 -9 -53z"/>
<path d="M2260 670 c-27 -27 -27 -70 0 -70 14 0 20 7 20 22 0 12 3 18 8 14 4
-4 7 -13 7 -19 0 -7 8 -13 18 -15 32 -6 16 68 -18 82 -9 3 -24 -3 -35 -14z"/>
<path d="M2591 669 c0 -15 -8 -29 -16 -33 -25 -9 -19 -43 8 -43 20 0 22 4 19
36 -5 53 -10 70 -11 40z m-1 -49 c0 -5 -4 -10 -10 -10 -5 0 -10 5 -10 10 0 6
5 10 10 10 6 0 10 -4 10 -10z"/>
<path d="M275 642 c8 -42 8 -423 0 -465 l-6 -32 111 0 111 0 -6 61 c-10 86
-11 371 -2 424 l7 45 -110 0 -111 0 6 -33z m185 -209 l0 -223 -80 0 -80 0 1
89 1 89 69 -3 c38 -1 72 2 75 7 3 4 -28 8 -69 8 l-74 0 -2 128 -1 127 80 0 80
0 0 -222z m10 -252 c3 -1 -2 -6 -10 -11 -24 -15 -160 -13 -160 3 0 10 21 12
83 11 45 -1 84 -2 87 -3z"/>
<path d="M320 632 c0 -10 116 -10 126 1 4 4 -23 7 -59 7 -37 0 -67 -4 -67 -8z"/>
<path d="M320 601 c0 -11 115 -9 126 2 4 4 -23 7 -59 7 -37 0 -67 -4 -67 -9z"/>
<path d="M314 573 c11 -11 126 -12 132 -1 3 4 -27 8 -67 8 -40 0 -69 -3 -65
-7z"/>
<path d="M320 542 c0 -11 115 -10 126 1 4 4 -23 7 -59 7 -37 0 -67 -4 -67 -8z"/>
<path d="M320 513 c0 -5 27 -8 59 -8 33 0 63 3 67 8 4 4 -23 7 -59 7 -37 0
-67 -3 -67 -7z"/>
<path d="M320 483 c0 -5 27 -8 59 -8 33 0 63 3 67 8 4 4 -23 7 -59 7 -37 0
-67 -3 -67 -7z"/>
<path d="M320 452 c0 -10 116 -10 126 1 4 4 -23 7 -59 7 -37 0 -67 -4 -67 -8z"/>
<path d="M320 422 c0 -10 116 -10 126 1 4 4 -23 7 -59 7 -37 0 -67 -4 -67 -8z"/>
<path d="M320 362 c0 -10 116 -10 126 1 4 4 -23 7 -59 7 -37 0 -67 -4 -67 -8z"/>
<path d="M320 332 c0 -10 116 -10 126 1 4 4 -23 7 -59 7 -37 0 -67 -4 -67 -8z"/>
<path d="M320 303 c0 -10 116 -10 126 0 4 4 -23 7 -59 7 -37 0 -67 -3 -67 -7z"/>
<path d="M320 272 c0 -10 116 -10 126 1 4 4 -23 7 -59 7 -37 0 -67 -4 -67 -8z"/>
<path d="M320 240 c0 -5 9 -10 20 -10 11 0 20 5 20 10 0 6 -9 10 -20 10 -11 0
-20 -4 -20 -10z"/>
<path d="M370 240 c0 -5 18 -9 40 -8 22 1 40 5 40 10 0 4 -18 8 -40 8 -22 0
-40 -4 -40 -10z"/>
<path d="M2685 664 c-24 -25 -19 -54 10 -54 14 0 25 6 25 13 0 8 3 7 10 -3 14
-22 22 -6 11 22 -12 32 -36 41 -56 22z"/>
<path d="M2811 663 c-1 -12 4 -25 9 -28 6 -4 8 -14 5 -24 -4 -12 1 -17 20 -19
21 -1 25 2 24 26 -1 17 -3 20 -6 10 -2 -10 -9 -18 -14 -18 -6 0 -7 5 -4 10 3
6 2 10 -4 10 -5 0 -14 12 -19 28 -9 24 -11 24 -11 5z"/>
<path d="M563 588 c8 -76 1 -406 -9 -432 -3 -8 29 -11 103 -11 l108 0 0 262 0
263 -106 0 -105 0 9 -82z m177 9 l0 -53 -70 2 c-38 1 -70 -3 -70 -7 0 -5 32
-9 70 -9 l70 0 0 -37 0 -38 -77 1 -76 0 -3 52 -2 52 75 0 c47 0 72 4 68 10 -4
6 -35 9 -74 7 l-68 -4 -1 39 -2 38 80 0 80 0 0 -53z m0 -274 l0 -118 -77 2
-78 2 -1 55 -1 56 74 0 c46 0 72 4 68 10 -3 5 -36 8 -74 6 -67 -3 -69 -3 -67
20 1 23 4 24 74 24 45 0 71 4 67 10 -3 5 -37 8 -74 7 -66 -3 -68 -2 -68 20 0
22 3 23 78 23 l79 0 0 -117z m10 -142 c0 -15 -31 -21 -73 -14 -40 7 -41 7 -12
13 51 9 85 9 85 1z m-120 -11 c0 -5 -4 -10 -9 -10 -6 0 -13 5 -16 10 -3 6 1
10 9 10 9 0 16 -4 16 -10z"/>
<path d="M600 628 c0 -5 30 -8 66 -8 37 0 63 4 59 9 -6 11 -125 10 -125 -1z"/>
<path d="M600 598 c0 -5 30 -8 66 -8 37 0 63 4 59 9 -6 11 -125 10 -125 -1z"/>
<path d="M600 508 c0 -5 30 -8 66 -8 37 0 63 4 59 9 -6 11 -125 10 -125 -1z"/>
<path d="M600 478 c0 -4 27 -8 60 -8 33 0 60 4 60 9 0 6 -27 9 -60 9 -33 -1
-60 -5 -60 -10z"/>
<path d="M600 418 c0 -5 30 -8 66 -8 37 0 63 4 59 9 -6 11 -125 10 -125 -1z"/>
<path d="M600 358 c0 -5 30 -8 66 -8 37 0 63 4 59 9 -6 11 -125 10 -125 -1z"/>
<path d="M600 299 c0 -5 30 -9 66 -9 36 0 63 4 60 9 -7 11 -126 11 -126 0z"/>
<path d="M600 268 c0 -5 30 -8 66 -8 37 0 63 4 59 9 -6 11 -125 10 -125 -1z"/>
<path d="M600 235 c0 -7 23 -12 60 -13 44 -1 60 3 60 12 0 16 -61 17 -72 1 -5
-6 -8 -6 -8 2 0 6 -9 11 -20 10 -11 -1 -20 -6 -20 -12z"/>
<path d="M845 468 c0 -112 -2 -229 -4 -261 l-5 -58 105 -2 105 -2 -1 262 0
263 -100 0 -101 0 1 -202z m173 157 c0 -25 -2 -25 -80 -25 -52 0 -77 4 -73 10
4 6 33 10 66 9 33 -1 62 1 66 4 3 4 -26 7 -65 7 -41 0 -72 4 -72 10 0 6 33 10
79 10 77 0 79 0 79 -25z m2 -45 c0 -6 -31 -10 -74 -10 -41 0 -78 5 -81 10 -4
6 23 10 74 10 47 0 81 -4 81 -10z m0 -30 c0 -12 -147 -13 -154 -2 -3 5 31 9
74 10 46 1 80 -3 80 -8z m0 -30 c0 -6 -34 -10 -75 -10 -41 0 -75 4 -75 9 0 5
34 10 75 10 42 0 75 -4 75 -9z m0 -30 c0 -6 -34 -10 -75 -10 -41 0 -75 4 -75
9 0 5 34 10 75 10 42 0 75 -4 75 -9z m0 -30 c0 -6 -34 -10 -81 -10 -51 0 -78
4 -74 10 3 6 40 10 81 10 43 0 74 -4 74 -10z m0 -30 c0 -6 -32 -10 -75 -10
-43 0 -75 4 -75 10 0 6 32 10 75 10 43 0 75 -4 75 -10z m0 -30 c0 -6 -32 -10
-75 -10 -43 0 -75 4 -75 10 0 6 32 10 75 10 43 0 75 -4 75 -10z m0 -30 c0 -6
-32 -10 -75 -10 -43 0 -75 4 -75 10 0 6 32 10 75 10 43 0 75 -4 75 -10z m0
-30 c0 -6 -34 -10 -75 -10 -41 0 -75 4 -75 9 0 5 34 10 75 10 42 0 75 -4 75
-9z m0 -30 c0 -12 -147 -14 -154 -1 -3 5 30 9 74 10 48 1 80 -3 80 -9z m0 -30
c0 -6 -33 -10 -80 -10 -47 0 -80 4 -80 10 0 6 33 10 80 10 47 0 80 -4 80 -10z
m-3 -33 c-2 -7 -17 -11 -35 -9 -18 2 -32 -1 -32 -7 0 -6 16 -11 35 -11 19 0
35 -4 35 -10 0 -6 -31 -10 -74 -10 -41 0 -78 5 -81 10 -4 6 10 10 34 10 23 0
41 5 41 11 0 6 -16 8 -40 6 -28 -3 -40 0 -40 9 0 9 22 13 81 13 58 0 79 -3 76
-12z m-22 -77 c-7 -11 -128 -7 -132 5 -2 6 24 9 67 7 39 -2 68 -7 65 -12z m32
-2 c-3 -8 -6 -5 -6 6 -1 11 2 17 5 13 3 -3 4 -12 1 -19z"/>
<path d="M1991 624 c0 -11 3 -14 6 -6 3 7 2 16 -1 19 -3 4 -6 -2 -5 -13z"/>
<path d="M2024 620 c0 -11 4 -20 9 -20 4 0 12 0 17 0 6 0 5 8 -2 20 -16 26
-26 25 -24 0z"/>
<path d="M2534 625 c-5 -11 -10 -13 -19 -5 -9 8 -15 8 -20 0 -10 -16 2 -27 27
-25 16 1 23 8 24 23 1 26 -4 28 -12 7z"/>
<path d="M2911 623 c-5 -10 -12 -17 -15 -15 -3 1 -6 -1 -6 -5 0 -20 34 -6 35
15 2 27 -1 28 -14 5z"/>
<path d="M2111 623 c0 -6 -10 -9 -21 -6 -11 3 -20 1 -20 -5 0 -10 41 -25 48
-17 2 2 2 12 -1 22 -3 10 -5 13 -6 6z"/>
<path d="M2960 621 c0 -7 -4 -9 -10 -6 -6 4 -10 -7 -10 -25 0 -20 4 -29 11
-25 6 4 8 13 5 20 -2 7 1 18 7 24 6 6 8 14 4 18 -4 3 -7 1 -7 -6z"/>
<path d="M1992 575 c0 -16 2 -22 5 -12 2 9 2 23 0 30 -3 6 -5 -1 -5 -18z"/>
<path d="M1234 425 c0 -60 1 -84 3 -52 2 32 2 81 0 110 -2 29 -3 3 -3 -58z"/>
<path d="M1950 265 c0 -170 4 -265 10 -265 6 0 11 34 11 80 1 72 3 105 8 128
1 4 6 -1 12 -10 5 -10 17 -18 25 -18 10 0 12 -5 8 -12 -5 -9 -2 -9 9 1 14 11
20 11 33 1 12 -11 15 -11 12 -1 -2 8 5 15 15 16 9 2 17 -1 17 -7 0 -6 6 -5 15
2 12 10 15 10 15 0 0 -9 7 -8 25 4 30 20 42 20 61 1 17 -16 39 -21 30 -6 -9
14 15 19 44 10 48 -14 82 -20 77 -12 -3 4 11 8 31 7 22 -1 41 5 48 14 9 12 13
12 19 2 6 -9 4 -11 -5 -5 -9 5 -11 4 -6 -4 4 -6 11 -9 16 -6 5 3 14 -3 20 -12
11 -17 11 -17 6 0 -6 19 10 24 17 5 4 -10 6 -9 6 1 1 11 4 11 17 1 8 -8 14 -9
13 -4 -4 24 2 55 10 50 5 -4 11 -1 13 5 5 14 38 0 38 -17 0 -8 16 -21 37 -29
33 -14 38 -14 61 1 24 16 25 15 18 -1 -5 -15 -4 -16 8 -6 9 7 17 8 20 2 10
-15 55 11 48 28 -4 10 2 9 20 -5 14 -10 25 -21 23 -24 -2 -3 15 -4 37 -2 22 3
45 -1 51 -7 7 -7 14 -5 24 7 14 16 14 16 8 -3 -4 -13 -3 -17 4 -10 16 16 25
65 11 65 -6 0 -8 5 -4 12 4 7 3 8 -4 4 -15 -9 -15 7 0 22 8 8 8 15 0 25 -9 10
-8 19 4 36 27 37 3 52 -77 49 -38 -1 -71 1 -74 4 -3 3 -23 2 -43 -3 -23 -5
-51 -4 -75 3 -33 10 -41 9 -66 -10 -25 -18 -31 -19 -41 -7 -14 17 -86 20 -95
4 -5 -7 -15 -5 -31 6 -16 10 -30 13 -42 7 -9 -5 -26 -8 -37 -6 -69 12 -94 12
-105 -1 -9 -11 -17 -12 -30 -5 -20 11 -50 4 -50 -12 0 -6 -11 -3 -24 5 -27 18
-191 23 -201 6 -15 -23 -26 8 -24 67 1 35 6 61 11 58 4 -3 8 -2 8 3 0 4 210 8
468 7 472 -1 542 1 542 17 0 5 -233 9 -525 9 l-525 0 0 -265z m138 83 c14 -14
16 -48 3 -48 -5 0 -11 9 -14 21 -4 16 -12 20 -33 17 -41 -5 -41 -26 0 -43 46
-19 60 -45 40 -73 -16 -24 -44 -28 -75 -12 -20 11 -27 50 -9 50 6 0 10 -6 10
-14 0 -17 24 -28 45 -20 26 10 16 33 -22 51 -42 20 -54 50 -27 70 22 16 66 17
82 1z m42 -68 c0 -47 -4 -80 -10 -80 -6 0 -10 33 -10 80 0 47 4 80 10 80 6 0
10 -33 10 -80z m77 14 l32 -59 1 63 c0 36 4 62 10 62 16 0 8 -152 -7 -157 -7
-3 -26 23 -43 56 -17 34 -32 61 -35 61 -3 0 -2 -27 2 -60 5 -52 4 -60 -11 -60
-13 0 -16 12 -16 73 0 109 17 115 67 21z m183 51 c16 -19 5 -34 -12 -17 -34
34 -91 -1 -86 -52 3 -34 43 -61 72 -50 19 7 21 40 4 47 -7 2 -10 8 -6 12 17
18 38 -6 38 -43 0 -38 0 -39 -41 -40 -30 -2 -46 4 -65 23 -31 31 -33 86 -4
115 24 24 82 27 100 5z m104 -7 c18 -25 22 -138 6 -138 -5 0 -10 16 -10 35 0
32 -2 35 -30 35 -28 0 -30 -3 -30 -35 0 -19 -4 -35 -10 -35 -17 0 -12 126 6
144 22 22 50 20 68 -6z m104 10 c7 -7 12 -24 12 -38 0 -32 -17 -50 -47 -50
-19 0 -23 -5 -23 -30 0 -16 -4 -30 -10 -30 -11 0 -14 142 -3 153 11 11 58 8
71 -5z m128 4 c41 -27 41 -111 -1 -138 -71 -46 -135 62 -77 129 15 17 58 23
78 9z m141 -22 c10 -20 10 -29 -1 -45 -12 -18 -12 -25 0 -46 17 -31 17 -39 0
-39 -8 0 -17 13 -21 30 -5 23 -12 30 -31 30 -20 0 -24 -5 -24 -30 0 -16 -4
-30 -10 -30 -11 0 -14 143 -3 154 4 4 23 6 42 4 26 -2 39 -10 48 -28z m113 20
c0 -5 -16 -10 -35 -10 -31 0 -35 -3 -35 -25 0 -21 5 -25 30 -25 17 0 30 -4 30
-10 0 -5 -13 -10 -30 -10 -26 0 -30 -4 -30 -26 0 -22 4 -25 30 -22 16 1 30 -2
30 -7 0 -6 -15 -11 -35 -13 -29 -3 -36 1 -43 20 -6 17 -8 120 -3 136 3 8 91 0
91 -8z m-634 -52 c-10 -14 -12 -26 -6 -33 7 -8 5 -12 -5 -12 -8 0 -12 4 -9 9
3 4 -1 8 -8 8 -10 0 -10 2 1 9 8 5 10 14 6 21 -5 8 -4 11 3 6 6 -3 13 -2 17 4
3 5 8 10 11 10 3 0 -2 -10 -10 -22z"/>
<path d="M2437 333 c-4 -3 -7 -15 -7 -25 0 -13 8 -18 30 -18 31 0 39 17 18 38
-13 13 -31 16 -41 5z"/>
<path d="M2540 310 c0 -27 3 -31 23 -28 16 2 22 10 22 28 0 18 -6 26 -22 28
-20 3 -23 -1 -23 -28z"/>
<path d="M2655 316 c-31 -47 10 -110 55 -86 25 14 36 55 21 86 -14 32 -55 32
-76 0z m53 -35 c-2 -25 -5 -28 -20 -20 -28 15 -22 49 9 49 9 0 13 -10 11 -29z"/>
<path d="M2790 310 c0 -28 3 -31 28 -28 21 2 27 8 27 28 0 20 -6 26 -27 28
-25 3 -28 0 -28 -28z"/>
<path d="M1523 308 c-58 -28 -31 -33 168 -33 202 0 235 7 150 32 -34 10 -49 9
-83 -3 -52 -18 -95 -18 -148 1 -49 17 -57 18 -87 3z"/>
<path d="M438 73 c7 -3 16 -2 19 1 4 3 -2 6 -13 5 -11 0 -14 -3 -6 -6z"/>
</g>
</svg>
