<?xml version="1.0" standalone="no"?>
<!DOCTYPE svg PUBLIC "-//W3C//DTD SVG 20010904//EN"
 "http://www.w3.org/TR/2001/REC-SVG-20010904/DTD/svg10.dtd">
<svg version="1.0" xmlns="http://www.w3.org/2000/svg"
 width="300.000000pt" height="300.000000pt" viewBox="0 0 300.000000 300.000000"
 preserveAspectRatio="xMidYMid meet">
<metadata>
Created by potrace 1.10, written by Peter Selinger 2001-2011
</metadata>
<g transform="translate(0.000000,300.000000) scale(0.100000,-0.100000)"
fill="#000000" stroke="none">
<path d="M1336 2937 c3 -9 1 -24 -6 -32 -10 -12 -8 -20 11 -42 12 -15 19 -20
16 -10 -6 15 3 22 26 18 11 -2 9 17 -3 24 -6 4 -7 12 -4 18 4 7 4 9 -1 5 -4
-4 -16 3 -26 15 -14 16 -18 18 -13 4z m24 -47 c0 -5 -4 -10 -10 -10 -5 0 -10
5 -10 10 0 6 5 10 10 10 6 0 10 -4 10 -10z"/>
<path d="M2413 2936 c-3 -5 -1 -6 5 -2 15 9 15 1 1 -26 -8 -16 -8 -19 1 -13 7
4 16 2 20 -5 4 -7 16 -9 29 -5 17 5 19 10 11 26 -6 11 -9 23 -6 27 2 4 -9 7
-26 7 -16 1 -32 -3 -35 -9z m52 -26 c3 -5 -1 -10 -9 -10 -9 0 -16 5 -16 10 0
6 4 10 9 10 6 0 13 -4 16 -10z"/>
<path d="M1560 2930 c0 -6 -5 -8 -11 -4 -7 4 -7 -1 1 -15 12 -23 42 -25 46 -3
1 7 0 8 -3 2 -6 -12 -33 -13 -33 -1 0 5 5 11 12 13 9 3 9 6 0 12 -7 4 -12 2
-12 -4z"/>
<path d="M127 2864 c-11 -15 -13 -25 -7 -29 8 -5 7 -12 -2 -23 -11 -13 -11
-14 7 -5 11 6 25 11 30 11 23 1 28 29 8 49 -19 19 -19 19 -36 -3z m33 -25 c0
-5 -4 -9 -10 -9 -5 0 -10 7 -10 16 0 8 5 12 10 9 6 -3 10 -10 10 -16z"/>
<path d="M590 2866 c-18 -47 -6 -65 30 -46 25 13 25 25 0 52 l-19 21 -11 -27z
m30 -20 c0 -8 -7 -16 -15 -20 -13 -4 -14 -2 -5 14 13 23 20 26 20 6z"/>
<path d="M1650 2845 c-7 -8 -10 -18 -6 -22 3 -3 6 -1 6 5 0 7 5 12 11 12 6 0
8 -9 3 -22 -6 -21 -6 -21 11 -4 16 15 16 19 3 32 -13 13 -16 13 -28 -1z"/>
<path d="M895 2830 c3 -5 1 -12 -5 -15 -8 -5 -7 -11 1 -21 14 -17 39 -19 39
-3 0 6 7 9 15 5 13 -4 14 -2 5 14 -6 11 -14 20 -18 21 -4 0 -15 2 -25 4 -9 2
-15 -1 -12 -5z m25 -30 c0 -5 -4 -10 -10 -10 -5 0 -10 5 -10 10 0 6 5 10 10
10 6 0 10 -4 10 -10z"/>
<path d="M1207 2773 c3 -7 11 -13 19 -13 8 0 14 -4 14 -10 0 -15 -11 -12 -32
7 -17 15 -18 15 -18 -7 0 -13 3 -20 7 -17 3 4 13 1 21 -5 11 -10 18 -8 32 9
10 12 21 19 25 15 5 -4 5 -1 1 6 -4 7 -11 10 -16 7 -4 -3 -10 2 -13 9 -3 8
-15 14 -25 13 -12 0 -18 -6 -15 -14z"/>
<path d="M2160 2769 c0 -5 -4 -8 -8 -5 -14 8 -10 -27 4 -41 17 -17 24 -16 40
5 10 14 10 20 -3 35 -18 19 -33 22 -33 6z m24 -30 c-3 -5 -10 -7 -15 -3 -5 3
-7 10 -3 15 3 5 10 7 15 3 5 -3 7 -10 3 -15z"/>
<path d="M1335 2760 c-4 -6 -1 -9 7 -8 7 2 12 -4 10 -12 -2 -8 0 -12 4 -8 4 4
12 4 18 -1 7 -5 15 -4 22 3 9 10 7 16 -7 24 -14 9 -19 9 -19 1 0 -8 -4 -8 -14
0 -10 8 -16 9 -21 1z"/>
<path d="M1956 2761 c-3 -5 0 -14 8 -20 10 -9 17 -7 27 5 12 15 11 16 -10 9
-16 -5 -21 -4 -17 4 4 6 5 11 2 11 -3 0 -7 -4 -10 -9z"/>
<path d="M425 2751 c-6 -11 13 -26 22 -17 4 3 1 6 -6 6 -7 0 -9 5 -6 10 3 6 4
10 1 10 -3 0 -7 -4 -11 -9z"/>
<path d="M2753 2748 c-15 -20 -24 -50 -13 -43 6 3 13 -1 16 -9 3 -9 10 -16 16
-16 5 0 7 4 4 8 -3 5 4 14 14 22 18 13 18 14 -2 32 -25 21 -23 21 -35 6z m27
-29 c0 -5 -4 -9 -10 -9 -5 0 -10 7 -10 16 0 8 5 12 10 9 6 -3 10 -10 10 -16z"/>
<path d="M1754 2739 c-3 -6 -1 -21 6 -34 12 -23 13 -23 32 -6 11 11 16 25 12
34 -7 19 -39 23 -50 6z m36 -19 c0 -5 -4 -10 -10 -10 -5 0 -10 5 -10 10 0 6 5
10 10 10 6 0 10 -4 10 -10z"/>
<path d="M1926 2742 c-3 -5 1 -9 9 -9 8 0 12 4 9 9 -3 4 -7 8 -9 8 -2 0 -6 -4
-9 -8z"/>
<path d="M1656 2592 c-19 -22 -20 -30 -3 -45 20 -19 36 -18 46 2 8 14 6 24 -8
40 -17 20 -19 20 -35 3z m24 -28 c0 -8 -4 -12 -10 -9 -5 3 -10 10 -10 16 0 5
5 9 10 9 6 0 10 -7 10 -16z"/>
<path d="M195 2569 c-4 -6 1 -16 11 -24 11 -7 21 -9 22 -4 2 5 7 7 11 5 4 -3
8 1 8 9 0 8 -6 16 -14 19 -7 3 -12 2 -10 -2 1 -4 -2 -8 -8 -9 -5 -2 -9 2 -7 7
3 13 -5 13 -13 -1z"/>
<path d="M370 2570 c-20 -13 1 -46 26 -42 33 6 41 22 20 38 -23 16 -26 17 -46
4z m30 -20 c0 -5 -4 -10 -10 -10 -5 0 -10 5 -10 10 0 6 5 10 10 10 6 0 10 -4
10 -10z"/>
<path d="M1200 2532 c0 -4 4 -21 9 -39 7 -24 6 -33 -4 -37 -10 -3 -12 0 -8 12
3 9 3 14 -1 11 -4 -4 -8 -16 -11 -27 -2 -12 -12 -31 -23 -42 l-19 -21 -27 31
c-14 18 -24 35 -21 39 6 11 -44 33 -56 25 -6 -3 -17 0 -25 7 -23 19 -50 -11
-35 -39 19 -35 12 -39 -9 -5 -35 58 -124 54 -155 -7 -30 -59 -12 -100 58 -134
31 -14 57 -47 57 -71 0 -3 -15 -2 -32 2 -18 3 -37 6 -43 7 -5 0 -16 7 -23 14
-7 6 -20 12 -28 12 -8 0 -12 5 -9 10 3 6 2 10 -2 10 -13 0 -50 -29 -38 -30 6
0 4 -4 -3 -9 -11 -7 -11 -11 2 -23 8 -9 13 -18 11 -22 -3 -3 -2 -4 2 -1 3 3
11 1 17 -4 52 -42 85 -49 171 -38 21 2 55 27 55 40 0 15 47 77 53 71 4 -4 4 4
2 16 -7 35 -21 45 -41 29 -14 -11 -18 -11 -28 2 -6 9 -22 20 -36 24 -14 4 -34
15 -44 24 -16 13 -18 13 -11 1 6 -11 3 -11 -10 2 -23 21 -13 57 10 38 10 -8
25 -9 42 -4 16 4 31 8 35 8 4 1 14 10 23 21 9 11 14 15 11 8 -4 -6 -2 -14 4
-18 6 -4 8 -10 5 -15 -3 -4 2 -13 10 -20 8 -7 15 -20 15 -29 0 -12 2 -13 8 -3
6 8 15 0 31 -28 25 -45 26 -94 2 -123 -8 -9 -11 -20 -6 -25 4 -4 10 -1 12 6 3
6 11 12 18 12 40 0 27 121 -17 164 -39 39 -63 85 -50 98 6 6 19 -7 35 -34 14
-24 34 -51 45 -61 19 -17 20 -16 58 29 21 26 42 52 45 57 4 5 12 6 18 3 7 -5
-7 -30 -39 -69 -46 -57 -50 -66 -50 -115 0 -63 -13 -92 -41 -92 -12 0 -19 -5
-16 -12 6 -18 34 -11 59 14 16 16 21 34 22 79 1 31 3 55 5 53 2 -2 10 4 18 14
9 10 12 11 7 2 -4 -8 -3 -11 1 -7 14 12 15 38 2 30 -7 -3 -1 6 12 20 13 15 27
24 31 22 7 -4 8 0 11 40 3 35 -1 46 -13 39 -7 -5 -9 -2 -5 8 7 19 -19 58 -39
58 -8 0 -14 -3 -14 -8z m37 -18 c-3 -3 -12 -4 -19 -1 -8 3 -5 6 6 6 11 1 17
-2 13 -5z m13 -18 c0 -2 -7 -6 -15 -10 -8 -3 -15 -1 -15 4 0 6 7 10 15 10 8 0
15 -2 15 -4z m-235 -26 c3 -5 -1 -10 -9 -10 -9 0 -16 5 -16 10 0 6 4 10 9 10
6 0 13 -4 16 -10z m-91 -10 c28 -10 36 -40 11 -40 -8 0 -15 5 -15 10 0 6 -13
10 -30 10 -23 0 -31 -5 -36 -25 -8 -33 7 -50 78 -86 42 -21 59 -36 64 -55 20
-80 -85 -115 -187 -64 -39 20 -53 50 -24 50 8 0 15 -4 15 -9 0 -14 76 -41 114
-41 39 0 59 19 54 52 -2 16 -20 32 -63 55 -33 17 -66 41 -74 52 -18 29 -6 67
27 85 33 18 34 18 66 6z m126 -160 c0 -5 -4 -10 -10 -10 -5 0 -10 5 -10 10 0
6 5 10 10 10 6 0 10 -4 10 -10z m-105 -40 c3 -5 1 -10 -4 -10 -6 0 -11 5 -11
10 0 6 2 10 4 10 3 0 8 -4 11 -10z"/>
<path d="M2105 2510 c-7 -11 2 -30 15 -30 4 0 10 6 13 14 6 16 -19 30 -28 16z"/>
<path d="M1823 2499 c-24 -9 -30 -25 -37 -109 -2 -30 -7 -65 -10 -77 -2 -13
-2 -23 2 -23 4 0 5 -25 4 -56 -3 -44 -1 -55 9 -49 8 6 11 4 6 -7 -7 -20 55
-29 135 -19 32 4 66 3 75 -2 17 -8 17 -7 0 6 -11 9 -14 16 -7 19 17 5 1 36
-23 45 -12 4 -44 6 -72 4 -48 -2 -49 -2 -28 13 12 9 29 13 37 10 19 -7 66 21
66 40 0 22 -30 40 -68 41 -31 0 -38 4 -47 28 -14 41 12 59 61 44 26 -8 40 -8
54 1 16 9 22 6 44 -23 14 -18 33 -40 42 -49 22 -23 26 -74 8 -112 -13 -27 -13
-36 -3 -53 8 -11 21 -19 30 -18 36 6 75 72 65 112 -4 14 -3 31 1 38 4 7 8 14
8 17 1 12 39 69 45 65 10 -6 32 54 26 71 -11 28 -38 29 -62 1 -12 -14 -24 -24
-26 -21 -3 2 -11 -8 -19 -22 l-13 -26 -47 53 c-46 53 -48 53 -67 36 -11 -10
-23 -14 -26 -9 -3 6 -23 12 -43 15 -21 2 -52 9 -68 14 -17 6 -40 7 -52 2z m95
-39 c19 -5 40 -6 48 -3 14 5 20 -17 8 -29 -3 -3 -31 0 -62 8 -31 7 -60 13 -64
14 -5 0 -8 -34 -8 -75 l0 -76 60 7 c48 5 60 4 60 -7 0 -10 -17 -15 -57 -17
-32 -2 -58 -4 -59 -5 -1 -1 -5 -16 -8 -34 -7 -31 -7 -32 37 -38 25 -4 59 -4
76 0 24 5 31 3 31 -9 0 -13 -14 -16 -79 -16 -51 0 -82 4 -87 12 -4 7 -6 34 -5
61 2 33 -2 53 -11 58 -10 7 -10 9 0 9 7 0 12 13 12 34 0 18 3 54 6 79 7 51 7
51 102 27z m131 -19 c7 -15 27 -42 44 -59 l33 -32 42 55 c41 53 62 67 62 44 0
-6 -20 -35 -45 -63 -41 -49 -45 -58 -45 -107 0 -57 -19 -99 -46 -99 -19 0 -18
16 1 24 21 8 22 131 0 139 -21 8 -75 87 -75 109 0 27 16 22 29 -11z"/>
<path d="M654 2494 c-15 -6 -5 -51 13 -58 21 -9 48 21 34 38 -6 7 -8 16 -4 19
7 8 -26 8 -43 1z m36 -22 c0 -13 -12 -22 -22 -16 -10 6 -1 24 13 24 5 0 9 -4
9 -8z"/>
<path d="M1295 2487 c-11 -13 -13 -42 -4 -51 10 -10 -3 -66 -14 -59 -6 4 -7 1
-2 -7 11 -18 14 -120 3 -126 -14 -9 -9 -34 12 -65 18 -25 26 -28 64 -26 24 2
60 13 80 25 20 12 42 22 48 22 6 0 9 3 5 6 -3 3 4 17 16 31 16 17 22 38 22 69
0 24 -3 44 -7 44 -5 0 -8 7 -8 15 0 9 -11 27 -25 41 -13 13 -24 27 -22 29 5
10 -75 45 -104 45 -16 0 -28 4 -25 8 8 13 -28 11 -39 -1z m74 -31 c108 -20
170 -155 102 -223 -26 -26 -138 -69 -150 -58 -2 3 -3 62 -3 131 1 70 -3 135
-8 144 -11 20 -2 34 14 21 6 -4 26 -11 45 -15z m-59 -230 c0 -11 -19 -15 -25
-6 -3 5 1 10 9 10 9 0 16 -2 16 -4z"/>
<path d="M1338 2324 l3 -116 36 5 c69 12 112 60 99 110 -12 50 -89 117 -133
117 -4 0 -7 -52 -5 -116z m47 72 c14 6 48 -37 64 -79 9 -24 7 -29 -22 -50 -46
-34 -53 -38 -55 -24 -6 48 -11 170 -6 160 3 -7 11 -10 19 -7z"/>
<path d="M2539 2474 c-15 -19 -21 -47 -8 -38 5 3 9 1 9 -5 0 -15 32 -6 46 14
12 15 11 20 -4 31 -22 17 -27 17 -43 -2z m31 -12 c0 -13 -12 -22 -22 -16 -10
6 -1 24 13 24 5 0 9 -4 9 -8z"/>
<path d="M1558 2463 c-12 -14 -14 -42 -12 -133 4 -139 8 -156 37 -171 12 -6
19 -8 14 -4 -4 5 0 16 8 24 8 9 15 33 17 54 1 20 5 37 9 37 6 0 18 -32 25 -70
2 -8 8 -16 14 -18 5 -2 8 -7 6 -10 -2 -4 2 -13 10 -20 10 -9 14 -9 14 -1 0 6
7 9 15 6 8 -4 17 -1 21 5 8 12 6 123 -3 230 -7 84 -20 98 -70 74 -32 -15 -37
-15 -53 -1 -22 20 -33 19 -52 -2z m49 -36 c12 -17 34 -58 48 -89 15 -32 27
-58 28 -58 1 0 0 41 -2 91 -2 74 0 90 10 87 11 -3 15 -33 16 -119 3 -125 9
-163 23 -154 6 4 7 -1 3 -11 -4 -11 -8 -13 -11 -6 -2 7 -10 12 -18 12 -8 0
-14 7 -14 15 0 13 -86 195 -93 195 -1 0 -2 -45 -2 -100 1 -75 -2 -100 -12
-100 -10 0 -13 32 -13 135 0 74 3 135 8 135 4 0 17 -15 29 -33z m53 4 c0 -6
-4 -13 -10 -16 -5 -3 -10 1 -10 9 0 9 5 16 10 16 6 0 10 -4 10 -9z"/>
<path d="M257 2403 c-12 -11 -7 -40 9 -53 12 -11 18 -11 30 2 13 12 14 20 5
37 -12 21 -31 27 -44 14z m33 -23 c0 -5 -7 -10 -16 -10 -8 0 -12 5 -9 10 3 6
10 10 16 10 5 0 9 -4 9 -10z"/>
<path d="M2817 2379 c-9 -6 -22 -7 -27 -4 -6 3 -10 1 -10 -4 0 -6 5 -11 10
-11 6 0 10 -7 10 -15 0 -8 3 -15 8 -16 4 0 15 -2 25 -4 9 -2 15 1 11 6 -3 5 0
9 5 9 15 0 14 13 -1 33 -10 12 -17 14 -31 6z m14 -32 c-13 -13 -26 -3 -16 12
3 6 11 8 17 5 6 -4 6 -10 -1 -17z"/>
<path d="M638 2321 c-10 -12 -12 -21 -6 -23 6 -2 3 -10 -6 -17 -14 -12 -16
-12 -11 0 3 8 -1 23 -10 34 -15 20 -15 20 -34 -4 -14 -18 -20 -21 -24 -10 -3
8 -6 9 -6 3 -1 -6 6 -17 14 -24 8 -7 15 -9 15 -4 0 4 7 -1 15 -12 9 -12 14
-14 15 -6 0 7 4 11 9 7 5 -3 13 0 16 6 4 6 18 8 31 5 19 -5 25 -2 30 19 4 14
3 29 0 33 -4 3 -9 -4 -13 -16 -6 -25 -23 -30 -23 -7 0 8 5 15 10 15 6 0 10 5
10 10 0 16 -14 12 -32 -9z m-38 -31 c0 -5 -4 -10 -10 -10 -5 0 -10 5 -10 10 0
6 5 10 10 10 6 0 10 -4 10 -10z"/>
<path d="M2213 2303 c-17 -6 6 -53 26 -53 9 0 23 12 32 28 15 27 15 27 -15 29
-17 0 -36 -1 -43 -4z m37 -23 c0 -5 -4 -10 -10 -10 -5 0 -10 5 -10 10 0 6 5
10 10 10 6 0 10 -4 10 -10z"/>
<path d="M2583 2296 c-3 -5 -1 -6 6 -2 9 6 10 0 5 -20 -5 -18 -3 -25 4 -20 6
3 12 1 14 -4 2 -7 10 -6 22 3 15 11 17 17 7 35 -11 21 -47 26 -58 8z m47 -21
c0 -8 -4 -15 -9 -15 -13 0 -22 16 -14 24 11 11 23 6 23 -9z"/>
<path d="M173 2255 c-3 -9 -3 -19 1 -22 3 -4 6 1 6 11 0 9 5 14 10 11 6 -4 7
-11 4 -17 -4 -7 -2 -8 5 -4 9 6 9 11 0 22 -15 18 -18 18 -26 -1z"/>
<path d="M130 2161 c12 -8 12 -13 2 -23 -9 -9 -12 -9 -12 0 0 7 -5 12 -11 12
-8 0 -9 -4 0 -13 6 -8 7 -18 3 -23 -4 -4 0 -3 9 4 12 9 18 9 29 -1 10 -10 11
-9 4 3 -5 8 -9 21 -9 29 0 8 -7 16 -15 18 -13 4 -13 3 0 -6z"/>
<path d="M1451 2073 c-1 -17 19 -27 31 -15 6 6 6 12 -3 17 -8 5 -10 4 -5 -3 4
-7 3 -12 -3 -12 -5 0 -12 6 -14 13 -4 9 -6 9 -6 0z"/>
<path d="M1009 2063 c-16 -4 -33 -42 -24 -52 3 -2 5 2 5 9 0 9 9 5 26 -11 21
-19 24 -20 18 -5 -5 13 -4 17 4 12 8 -5 10 -2 6 9 -4 10 -2 15 6 13 7 -2 15 4
17 12 4 13 3 13 -6 0 -9 -12 -11 -12 -17 3 -3 9 -9 16 -13 16 -3 -1 -13 -3
-22 -6z m21 -29 c0 -8 -4 -12 -10 -9 -5 3 -10 10 -10 16 0 5 5 9 10 9 6 0 10
-7 10 -16z"/>
<path d="M1171 2047 c-8 -11 -6 -20 9 -37 11 -13 20 -18 20 -12 0 7 5 12 11
12 5 0 7 -6 3 -12 -4 -7 -3 -9 1 -5 14 12 15 40 3 54 -14 17 -33 17 -47 0z
m39 -17 c0 -5 -7 -10 -16 -10 -8 0 -12 5 -9 10 3 6 10 10 16 10 5 0 9 -4 9
-10z"/>
<path d="M2579 2039 c-7 -5 -9 -9 -4 -9 6 0 3 -5 -5 -10 -11 -7 -11 -10 -2
-10 7 0 10 -5 6 -12 -4 -6 -3 -8 4 -4 6 3 14 2 17 -4 8 -14 35 6 35 26 0 19
-33 35 -51 23z m31 -24 c0 -8 -4 -15 -10 -15 -5 0 -10 7 -10 15 0 8 5 15 10
15 6 0 10 -7 10 -15z"/>
<path d="M305 2024 c-9 -9 -14 -23 -11 -31 3 -8 6 -17 6 -19 0 -2 8 -4 18 -4
10 0 26 14 36 31 11 18 14 29 8 25 -6 -3 -13 -2 -17 4 -9 14 -21 12 -40 -6z
m35 -14 c0 -5 -4 -10 -10 -10 -5 0 -10 5 -10 10 0 6 5 10 10 10 6 0 10 -4 10
-10z"/>
<path d="M596 2025 c-3 -8 -1 -15 4 -15 6 0 10 7 10 15 0 8 -2 15 -4 15 -2 0
-6 -7 -10 -15z"/>
<path d="M620 2021 c0 -10 -6 -22 -12 -24 -10 -4 -10 -6 -1 -6 17 -1 36 36 23
44 -5 3 -10 -3 -10 -14z"/>
<path d="M2752 2020 c-16 -26 -15 -27 7 -39 15 -8 25 -5 47 16 16 15 21 24 12
21 -9 -4 -22 0 -28 8 -16 19 -23 18 -38 -6z m36 -12 c-2 -6 -12 -12 -22 -14
-14 -2 -15 0 -5 12 14 17 32 19 27 2z"/>
<path d="M699 2023 c-4 -38 0 -68 8 -60 3 4 12 2 19 -4 8 -7 14 -7 19 1 3 5 3
10 -2 10 -4 0 -1 5 7 10 13 8 12 13 -7 32 -17 16 -23 18 -23 8 0 -13 -2 -13
-10 0 -7 10 -10 11 -11 3z m41 -34 c0 -14 -27 -10 -33 5 -4 10 0 12 14 9 10
-3 19 -9 19 -14z"/>
<path d="M1580 1989 c0 -5 -4 -7 -10 -4 -6 4 -7 -1 -3 -11 4 -12 3 -15 -5 -10
-8 5 -10 2 -6 -9 4 -9 9 -13 12 -11 3 3 11 1 18 -5 19 -15 40 27 23 47 -14 17
-29 18 -29 3z m20 -19 c0 -5 -4 -10 -10 -10 -5 0 -10 5 -10 10 0 6 5 10 10 10
6 0 10 -4 10 -10z"/>
<path d="M2281 1982 c-6 -11 -5 -22 2 -32 18 -22 35 -22 42 0 4 11 11 18 16
15 14 -9 11 2 -7 19 -20 21 -41 20 -53 -2z m39 -12 c0 -5 -7 -10 -16 -10 -8 0
-12 5 -9 10 3 6 10 10 16 10 5 0 9 -4 9 -10z"/>
<path d="M300 1950 c-9 -6 -10 -10 -3 -10 6 0 15 5 18 10 8 12 4 12 -15 0z"/>
<path d="M820 1943 c16 -8 12 -26 -5 -19 -8 3 -15 1 -15 -5 0 -6 8 -9 18 -7
20 4 23 30 4 34 -7 1 -8 0 -2 -3z"/>
<path d="M1379 1924 c-11 -14 -10 -18 6 -30 16 -12 21 -12 33 0 17 17 9 46
-11 46 -8 0 -21 -7 -28 -16z m41 -14 c0 -5 -7 -10 -15 -10 -8 0 -15 5 -15 10
0 6 7 10 15 10 8 0 15 -4 15 -10z"/>
<path d="M1891 1911 c-9 -6 -10 -11 -2 -15 6 -4 9 -12 6 -17 -8 -12 25 -12 44
0 12 8 12 12 2 25 -15 18 -29 20 -50 7z m39 -9 c0 -13 -12 -22 -22 -16 -10 6
-1 24 13 24 5 0 9 -4 9 -8z"/>
<path d="M2384 1909 c-3 -6 -2 -15 4 -21 13 -13 32 -2 32 18 0 16 -26 19 -36
3z m26 -9 c0 -5 -4 -10 -10 -10 -5 0 -10 5 -10 10 0 6 5 10 10 10 6 0 10 -4
10 -10z"/>
<path d="M1728 1879 c-15 -8 -16 -13 -5 -29 14 -24 45 -26 53 -5 6 15 -11 45
-25 45 -3 0 -14 -5 -23 -11z m32 -18 c0 -6 -4 -13 -10 -16 -5 -3 -10 1 -10 9
0 9 5 16 10 16 6 0 10 -4 10 -9z"/>
<path d="M536 1868 c3 -5 10 -6 15 -3 13 9 11 12 -6 12 -8 0 -12 -4 -9 -9z"/>
<path d="M1115 1861 c-8 -15 3 -31 21 -31 9 0 14 7 12 17 -4 20 -24 28 -33 14z
m25 -11 c0 -5 -4 -10 -10 -10 -5 0 -10 5 -10 10 0 6 5 10 10 10 6 0 10 -4 10
-10z"/>
<path d="M560 1850 c0 -5 -6 -7 -14 -4 -18 7 -30 -12 -15 -22 8 -4 9 -3 5 4
-4 7 -2 12 3 12 6 0 11 -5 11 -11 0 -6 5 -9 12 -7 14 5 20 38 7 38 -5 0 -9 -4
-9 -10z"/>
<path d="M1450 1841 c-13 -25 -13 -41 0 -41 5 0 7 6 4 14 -9 23 31 29 64 9 21
-13 26 -21 18 -29 -17 -15 -56 -12 -56 6 0 8 -9 -3 -20 -25 -11 -22 -18 -30
-16 -18 2 13 0 25 -4 28 -4 3 -11 -27 -15 -65 -5 -48 -11 -68 -19 -63 -6 3 -8
3 -4 -2 4 -4 1 -13 -8 -20 -14 -10 -13 -13 10 -28 17 -12 26 -26 26 -44 0 -36
9 -25 12 16 1 18 6 35 11 38 4 3 2 12 -6 21 -10 11 -12 24 -7 37 8 17 9 18 11
3 1 -10 2 -22 3 -28 0 -5 10 -20 20 -32 21 -24 36 -138 19 -138 -14 0 -40 23
-46 40 -3 9 -6 6 -6 -8 -1 -16 6 -26 19 -29 11 -3 20 -9 20 -13 0 -5 8 -7 18
-6 14 2 18 17 23 92 3 49 9 104 13 123 6 24 4 36 -5 42 -11 7 -15 -2 -19 -38
-8 -75 -30 -67 -30 11 0 75 13 90 55 62 14 -9 25 -12 25 -6 0 15 20 12 26 -4
3 -7 59 -69 126 -137 66 -68 139 -149 162 -179 95 -122 169 -274 210 -428 13
-48 38 -139 55 -202 17 -63 31 -127 31 -142 0 -16 4 -28 9 -28 6 0 18 -14 28
-30 19 -34 40 -39 50 -12 11 29 92 152 100 152 5 -1 23 -14 42 -30 18 -15 40
-26 47 -23 8 3 14 0 14 -6 0 -23 36 -52 56 -44 10 3 21 10 24 13 3 4 25 17 49
30 36 18 46 19 56 8 23 -25 59 -98 51 -105 -4 -4 -10 -3 -14 2 -7 10 -53 10
-133 -1 -35 -4 -50 -2 -62 10 -20 20 -53 20 -90 1 -46 -24 -127 -45 -173 -45
-36 0 -46 5 -65 31 -13 19 -48 44 -85 61 l-63 30 -57 -17 c-31 -9 -58 -14 -61
-12 -5 6 15 159 23 166 2 3 19 -1 37 -8 18 -7 56 -22 86 -32 30 -11 62 -26 71
-34 9 -8 19 -15 22 -15 7 0 -51 158 -79 215 -67 138 -150 246 -246 319 -18 14
-75 48 -126 76 -50 27 -102 59 -114 71 l-22 20 22 18 c19 16 22 29 24 129 2
74 0 115 -8 123 -17 17 -43 -79 -43 -157 0 -41 -4 -64 -12 -67 -10 -3 -10 -7
-1 -19 7 -8 10 -18 7 -21 -4 -4 1 -18 11 -33 9 -15 11 -23 4 -19 -8 5 -10 4
-5 -3 4 -7 14 -12 23 -12 8 0 30 -7 49 -16 32 -15 34 -19 34 -65 0 -27 5 -49
10 -49 6 0 10 18 10 40 0 22 5 40 11 40 7 0 8 -11 4 -30 -4 -20 -3 -30 5 -30
6 0 8 5 5 10 -3 6 -2 10 4 10 5 0 11 8 13 18 3 11 9 5 18 -20 15 -40 42 -54
32 -16 l-5 21 21 -21 c12 -12 27 -22 33 -22 5 0 8 -4 4 -10 -3 -5 -13 -6 -23
-3 -9 3 -14 3 -11 -1 4 -4 17 -9 30 -11 13 -3 31 -13 40 -24 9 -11 20 -17 24
-13 5 4 5 -1 2 -10 -4 -13 -2 -15 10 -11 12 5 14 3 8 -8 -4 -8 -5 -11 0 -7 8
7 68 -70 85 -111 6 -13 20 -37 31 -52 11 -16 34 -66 50 -110 24 -66 27 -80 14
-75 -9 3 -21 6 -26 6 -6 0 -8 4 -5 9 3 4 -5 6 -19 4 -13 -3 -34 2 -47 11 -12
9 -32 16 -43 16 -20 0 -56 -32 -54 -48 4 -24 -3 -43 -13 -39 -7 2 -12 10 -10
17 2 7 -1 16 -6 19 -5 3 -22 33 -39 66 -77 152 -138 253 -173 285 -9 8 -19 23
-23 34 -4 10 -13 16 -21 13 -8 -3 -20 1 -26 9 -9 10 -9 14 -1 14 6 0 11 -5 11
-11 0 -5 5 -7 10 -4 8 5 7 11 -1 21 -14 17 -36 18 -42 2 -3 -7 -6 -3 -6 9 -1
16 3 21 14 17 26 -10 65 6 77 31 15 34 -12 75 -50 75 -33 -1 -62 -21 -62 -44
0 -9 -6 -16 -12 -16 -9 0 -8 -3 2 -10 8 -5 11 -12 8 -15 -10 -10 -25 2 -31 26
-4 16 -2 19 10 15 13 -5 14 -4 4 8 -9 10 -9 15 0 18 7 2 5 9 -7 18 -11 9 -15
10 -10 3 4 -8 2 -13 -5 -13 -6 0 -9 8 -6 20 3 11 1 20 -4 20 -5 0 -9 -6 -9
-14 0 -8 -5 -18 -11 -22 -8 -4 -9 1 -4 15 5 18 3 22 -10 19 -10 -2 -22 6 -29
17 -6 11 -20 26 -31 35 -11 8 -30 25 -43 37 -13 13 -26 23 -30 23 -4 0 -25 16
-47 35 -22 19 -49 38 -60 41 -11 4 -33 16 -48 26 -27 20 -29 20 -42 2 -14 -19
-36 -101 -34 -132 1 -30 18 19 18 54 1 43 32 80 55 67 16 -9 15 -11 -4 -35
-11 -15 -16 -29 -11 -32 13 -9 21 -46 8 -43 -6 1 -11 -14 -11 -35 0 -25 -3
-35 -10 -28 -6 6 -21 10 -34 10 -13 0 -21 4 -17 9 9 16 -64 31 -145 30 l-75
-1 74 -18 c41 -11 78 -17 82 -14 4 2 10 0 14 -6 3 -5 27 -10 52 -10 26 0 43
-3 40 -7 -6 -6 21 -32 34 -33 3 0 9 23 12 51 4 28 12 58 19 66 9 12 9 16 -3
24 -8 5 -18 9 -22 9 -5 0 -5 5 -2 11 12 19 69 -2 106 -40 20 -20 48 -42 63
-50 31 -17 76 -65 201 -215 154 -185 213 -267 272 -383 32 -62 66 -116 76
-119 9 -3 17 -9 17 -13 0 -14 -123 24 -158 47 -18 12 -45 31 -62 42 -16 11
-38 20 -49 20 -11 0 -23 9 -26 21 -5 16 -9 18 -15 9 -7 -11 -15 -10 -43 3 -41
20 -59 21 -74 6 -16 -16 -26 6 -13 31 12 23 33 25 80 8 25 -8 35 -8 38 0 4 12
51 -4 65 -23 4 -6 10 -5 16 4 6 10 13 10 29 2 29 -15 72 -70 72 -91 0 -16 52
-50 78 -50 13 0 -55 124 -112 203 -55 78 -257 283 -273 279 -8 -2 -13 7 -13
23 0 14 -4 25 -10 25 -5 0 -10 -7 -10 -15 0 -8 -9 -19 -19 -24 -16 -9 -18 -8
-14 9 3 11 0 20 -6 20 -15 0 -14 63 2 79 10 10 9 11 -5 6 -9 -4 -18 -15 -21
-26 -6 -24 -27 -25 -27 -1 -1 16 -1 16 -11 -1 -11 -19 5 -52 21 -42 4 3 15 -6
24 -20 14 -22 15 -25 1 -25 -8 0 -15 5 -15 11 0 5 -4 7 -10 4 -17 -11 12 -31
44 -31 17 0 45 -7 61 -16 42 -22 210 -198 275 -288 l54 -75 -51 43 c-50 41
-71 53 -57 31 4 -7 -1 -7 -16 1 -12 6 -24 9 -27 6 -3 -3 -14 -1 -24 4 -12 7
-20 7 -24 0 -4 -7 -12 -7 -25 0 -10 5 -35 10 -55 10 -32 0 -38 -4 -51 -35 -18
-43 -37 -44 -75 -4 -16 17 -32 28 -37 25 -13 -8 -55 72 -49 93 3 14 0 17 -14
14 -13 -4 -19 0 -19 11 0 10 -4 15 -9 12 -5 -3 -12 1 -15 10 -3 8 -2 13 2 10
5 -3 9 1 9 9 0 8 -4 12 -8 9 -10 -6 -99 80 -99 95 0 6 -3 10 -7 10 -23 -4 -33
4 -33 25 0 20 -4 23 -27 20 l-28 -4 28 11 c33 13 36 32 3 23 -13 -3 -33 -1
-45 5 -18 10 -19 15 -9 36 8 17 19 25 37 25 l26 -1 -22 -18 c-13 -11 -23 -24
-23 -31 0 -6 14 2 31 18 36 33 32 52 -10 52 -32 0 -48 -15 -61 -57 -7 -24 -9
-20 -10 27 -1 30 -2 63 -1 73 1 9 -3 17 -10 17 -7 0 -10 -11 -7 -29 4 -28 3
-29 -39 -33 -33 -2 -42 0 -38 10 3 7 0 10 -6 7 -5 -4 -28 5 -51 20 -22 15 -38
23 -35 18 3 -5 -16 2 -44 15 -37 18 -47 28 -39 37 7 9 6 16 -4 24 -11 9 -16 9
-21 0 -6 -8 -10 -7 -16 2 -7 11 -9 11 -9 1 0 -7 7 -15 15 -18 8 -4 13 -10 10
-14 -3 -5 -25 2 -49 16 -39 22 -45 23 -56 9 -23 -28 -14 -170 18 -287 13 -46
16 -68 8 -71 -18 -7 -160 14 -173 25 -9 7 -13 7 -13 -1 0 -6 -9 -2 -19 8 -25
25 -65 17 -58 -10 5 -18 -1 -21 -38 -22 -5 -1 -18 -9 -27 -18 -16 -17 -15 -19
9 -34 13 -9 32 -14 41 -10 9 3 13 3 9 -1 -4 -4 11 -16 33 -26 22 -10 40 -21
40 -24 0 -3 -4 -3 -8 0 -4 2 -9 -5 -9 -17 -2 -17 0 -19 7 -7 5 8 10 13 10 10
1 -3 3 -46 6 -95 l5 -90 -50 -22 c-33 -14 -51 -27 -51 -38 0 -12 -5 -15 -16
-11 -9 4 -23 1 -30 -5 -11 -9 -11 -16 1 -40 20 -38 19 -42 -12 -81 -16 -19
-20 -27 -8 -18 12 10 16 11 11 2 -4 -7 -2 -20 5 -28 10 -13 10 -17 -2 -24 -9
-7 -15 -5 -17 5 -2 8 -8 15 -13 15 -6 0 -6 -7 0 -19 8 -14 4 -24 -19 -48 -20
-21 -26 -33 -19 -44 13 -20 11 -31 -3 -23 -9 5 -10 4 -3 -4 13 -15 94 -22 102
-9 3 5 14 7 24 4 10 -3 22 -1 25 4 3 5 11 9 17 9 7 0 6 -4 -3 -10 -10 -7 -11
-10 -2 -10 7 0 15 7 18 15 5 11 10 13 19 5 9 -8 14 -7 17 1 2 7 15 13 28 15
14 1 52 7 85 13 63 11 82 11 103 -2 6 -5 16 -5 22 -2 5 3 20 -1 32 -9 35 -25
86 -21 99 8 9 19 7 29 -6 50 -10 14 -22 26 -28 26 -8 0 -8 3 0 11 5 5 41 15
79 21 82 12 89 13 132 3 29 -7 34 -5 39 14 3 11 9 21 13 21 4 0 10 9 13 20 3
11 1 18 -4 14 -5 -3 -9 0 -9 7 0 7 -3 10 -6 6 -3 -3 -15 4 -26 15 -18 18 -28
19 -86 13 -36 -4 -77 -11 -90 -16 -37 -14 -255 -31 -337 -26 -44 2 -78 0 -81
-5 -4 -6 -10 -5 -15 3 -14 23 -10 38 12 50 14 7 19 7 15 0 -4 -6 9 -4 28 4 25
11 42 12 60 5 14 -5 28 -5 31 -1 5 10 73 26 94 22 7 -1 10 2 7 7 -3 5 70 10
177 11 100 1 191 2 202 2 62 3 225 -4 225 -10 0 -4 18 -7 39 -6 21 0 37 4 34
9 -3 5 0 6 8 4 15 -5 74 22 123 56 20 13 27 15 22 5 -5 -10 -3 -9 6 2 7 8 27
20 44 26 32 11 84 7 84 -7 0 -4 7 -11 16 -14 10 -4 13 -2 8 7 -4 6 3 3 16 -8
13 -11 20 -14 16 -7 -7 12 84 -38 114 -64 8 -7 29 -16 45 -20 17 -4 35 -9 40
-13 6 -3 16 -6 24 -8 16 -2 31 -22 31 -41 0 -8 5 -10 12 -6 8 5 9 2 5 -10 -5
-12 -3 -15 6 -9 6 4 23 9 37 11 14 2 29 7 34 13 13 12 79 12 71 -1 -3 -6 1 -7
9 -4 9 3 16 1 16 -5 0 -6 3 -10 8 -9 24 5 84 -43 81 -65 -8 -47 16 -51 316
-51 156 0 185 2 218 18 22 11 41 25 43 31 5 12 51 9 69 -5 6 -5 26 -6 45 -4
40 5 71 -3 53 -14 -6 -4 8 -7 30 -8 23 0 48 -2 56 -5 7 -2 15 1 18 8 5 15 -52
32 -132 40 -33 3 -66 10 -72 15 -7 6 -24 7 -38 4 -18 -5 -25 -2 -25 9 0 18 39
20 102 5 24 -5 71 -13 106 -18 55 -8 62 -7 60 7 -3 17 -4 17 -90 19 -33 1 -63
8 -70 15 -6 8 -22 12 -34 9 -21 -4 -22 -2 -16 87 6 106 -14 203 -59 292 -15
31 -26 59 -24 63 3 3 2 4 -2 1 -3 -3 -13 4 -21 16 -21 30 -57 22 -58 -13 -1
-15 3 -25 7 -22 5 3 9 0 9 -6 0 -7 9 -25 21 -41 12 -18 18 -37 14 -47 -3 -9
-3 -13 1 -9 11 10 40 -53 48 -103 14 -98 16 -120 7 -120 -4 0 -6 -11 -3 -25 7
-37 -14 -30 -34 10 -25 53 -118 143 -212 205 -46 30 -87 55 -90 56 -4 0 -14 3
-22 7 -8 3 -28 9 -44 14 -34 11 -47 33 -19 33 10 0 31 7 47 15 16 9 31 13 34
10 3 -3 10 0 17 5 7 5 54 14 105 19 105 11 140 29 105 55 -23 17 -89 28 -125
22 -14 -3 -43 -7 -65 -10 -45 -6 -123 -32 -142 -48 -9 -7 -18 3 -34 39 -12 26
-35 75 -50 109 -30 62 -36 90 -19 79 16 -10 11 1 -7 16 -10 8 -14 9 -10 2 4
-6 3 -14 -2 -17 -5 -3 -19 15 -30 40 -12 25 -32 63 -45 83 -13 20 -23 39 -22
43 1 3 -3 10 -8 15 -5 5 -6 3 -2 -4 4 -7 3 -13 -2 -13 -5 0 -14 11 -20 25 -6
14 -16 25 -22 25 -5 0 -10 8 -10 17 0 9 -2 14 -5 11 -3 -2 -37 27 -77 66 -39
39 -75 70 -80 68 -5 -1 -7 2 -4 7 4 5 -3 12 -14 16 -11 3 -20 10 -20 15 0 8
-51 41 -70 45 -3 1 -13 5 -22 8 -39 15 -47 15 -58 2 -9 -11 -7 -12 8 -9 44 12
278 -186 387 -328 52 -66 140 -229 177 -325 l31 -81 56 28 c31 16 76 33 101
39 57 13 170 14 190 1 11 -7 -4 -10 -50 -10 -36 0 -85 -5 -110 -11 -47 -10
-180 -59 -180 -66 0 -2 8 -36 17 -76 22 -92 24 -267 4 -291 -24 -29 -33 -4
-42 116 -9 129 -19 178 -55 293 -65 203 -181 390 -343 555 -102 104 -159 146
-184 137 -7 -3 -23 6 -37 18 -26 24 -134 85 -150 85 -5 0 -14 -9 -20 -19z
m268 -138 c28 -27 61 -57 74 -69 48 -43 130 -136 132 -150 1 -7 6 -17 11 -21
4 -5 5 -1 0 7 -5 8 3 3 16 -11 36 -39 60 -87 46 -92 -6 -2 -20 6 -29 17 l-18
21 3 -25 c2 -14 2 -19 0 -12 -3 6 -9 12 -14 12 -6 0 -8 4 -5 9 4 5 3 11 -1 13
-5 1 -21 22 -37 45 -15 23 -63 81 -106 128 -44 47 -82 95 -85 105 -7 21 -21
26 -27 10 -2 -6 -19 3 -38 21 l-35 31 33 -22 c35 -23 53 -21 32 5 -7 8 -17 12
-23 8 -6 -3 -7 -1 -3 5 12 19 22 14 74 -35z m-288 -78 c0 -8 -4 -15 -10 -15
-5 0 -10 7 -10 15 0 8 5 15 10 15 6 0 10 -7 10 -15z m-745 -165 c3 -5 1 -10
-4 -10 -6 0 -11 5 -11 10 0 6 2 10 4 10 3 0 8 -4 11 -10z m-83 -17 c2 -5 39
-23 83 -42 173 -74 317 -171 440 -295 68 -68 155 -188 155 -213 0 -6 12 -13
28 -15 21 -2 28 -9 30 -30 3 -24 8 -28 35 -28 18 1 50 7 72 15 75 27 60 15
-50 -41 l-110 -56 -140 6 c-209 8 -569 -8 -625 -28 -24 -9 -51 -14 -60 -10
-26 11 107 43 225 55 61 6 220 9 355 7 217 -2 249 0 280 15 19 9 27 15 17 12
-11 -3 -20 2 -23 13 -3 9 -9 26 -14 37 -7 19 -9 18 -19 -7 -12 -32 -18 -33
-57 -13 -32 16 -139 21 -129 6 3 -5 1 -12 -5 -16 -6 -3 -13 1 -16 9 -12 30
-159 21 -319 -19 -142 -35 -185 -43 -155 -26 8 5 32 11 53 15 39 7 42 12 28
35 -7 11 -25 8 -102 -14 -51 -14 -131 -42 -178 -61 -98 -39 -123 -37 -33 3 60
27 61 29 61 68 0 22 -4 58 -9 80 -6 28 -5 44 3 53 9 12 2 23 -37 58 -51 46
-52 53 -7 30 32 -17 94 -83 139 -149 30 -42 31 -48 16 -54 -10 -4 -19 -2 -21
4 -9 27 -73 116 -73 102 0 -9 14 -33 30 -54 33 -42 37 -55 15 -55 -8 0 -19 -9
-25 -21 -13 -24 -22 -25 107 16 73 24 91 33 86 45 -3 8 -14 46 -25 84 -10 39
-24 73 -31 78 -27 17 -125 30 -216 28 -111 -3 -128 -1 -86 10 53 13 217 10
260 -5 22 -8 41 -15 43 -15 1 0 2 10 2 22 0 33 15 11 35 -52 43 -134 55 -158
74 -153 16 4 18 10 11 31 -21 65 -51 307 -48 387 2 65 0 86 -11 90 -11 4 -12
-16 -10 -109 4 -121 -8 -134 -17 -19 -9 117 -15 153 -26 153 -29 0 16 -292 57
-370 9 -18 14 -34 11 -37 -10 -10 -56 106 -76 191 -11 44 -23 120 -26 168 -6
76 -5 88 9 88 8 0 17 -3 19 -7z m443 -23 c3 -5 2 -10 -4 -10 -5 0 -13 5 -16
10 -3 6 -2 10 4 10 5 0 13 -4 16 -10z m985 -64 c0 -3 -13 -11 -30 -20 -31 -15
-39 -9 -18 12 11 11 48 17 48 8z m-1088 -60 c11 -20 10 -20 -9 -3 -11 9 -25
17 -32 17 -7 0 -10 4 -6 10 8 14 34 1 47 -24z m662 18 c20 -8 20 -33 0 -55
-28 -31 -83 6 -63 42 10 19 34 24 63 13z m450 -16 c8 -13 6 -22 -9 -38 l-20
-22 -17 22 c-10 12 -18 31 -18 42 0 15 6 19 26 16 15 -2 32 -11 38 -20z m31
-38 c-4 -6 -1 -18 7 -27 11 -14 10 -15 -9 -9 -12 4 -24 2 -28 -4 -4 -6 -1 -11
6 -9 8 1 23 1 34 0 17 -1 18 -3 5 -11 -13 -8 -13 -10 1 -10 23 0 76 -179 80
-272 2 -26 6 -45 10 -42 11 6 19 -46 22 -141 2 -65 6 -83 21 -96 13 -11 16
-18 8 -23 -9 -5 -34 24 -37 44 -1 3 -7 22 -14 42 -7 21 -9 47 -6 59 5 14 3 19
-3 15 -6 -3 -8 2 -5 13 3 11 -2 34 -10 53 -8 18 -23 62 -32 98 -10 36 -21 70
-25 75 -4 6 -15 35 -24 65 -10 30 -27 75 -39 100 l-22 45 30 22 c35 25 38 26
30 13z m-1721 -141 c-3 -5 -10 -7 -15 -3 -5 3 -7 10 -3 15 3 5 10 7 15 3 5 -3
7 -10 3 -15z m2322 -81 c79 -125 115 -351 65 -401 -9 -9 -9 -3 0 22 26 75 -10
246 -76 355 -19 32 -35 63 -35 68 0 16 20 -3 46 -44z m-2137 -4 c36 -12 56
-37 45 -56 -5 -7 -3 -8 6 -3 10 6 12 4 7 -8 -4 -10 -2 -29 3 -43 18 -46 -39
-80 -61 -36 -7 15 -27 43 -44 63 -16 20 -42 50 -57 68 l-27 32 47 -3 c26 -1
62 -7 81 -14z m1851 -105 c78 -36 160 -96 217 -158 43 -47 109 -158 100 -168
-3 -3 -14 12 -25 34 -56 109 -169 209 -319 280 -51 24 -93 47 -93 50 0 9 54
-7 120 -38z m25 -64 c43 -22 90 -58 123 -93 28 -31 52 -59 52 -62 0 -3 -18
-12 -39 -21 -38 -16 -41 -16 -93 8 -29 13 -55 27 -58 32 -3 4 -21 14 -40 23
-26 13 -36 14 -42 5 -4 -7 -7 8 -7 33 1 36 2 40 8 20 7 -23 8 -21 13 15 5 31
2 44 -13 57 -10 9 -19 21 -19 27 0 13 25 4 115 -44z m-87 -10 c-3 -3 -9 2 -12
12 -6 14 -5 15 5 6 7 -7 10 -15 7 -18z m-1284 -44 c5 0 7 -4 3 -7 -8 -8 -167
-10 -167 -2 0 10 116 17 164 9z m710 -7 c3 -8 2 -12 -4 -9 -6 3 -10 10 -10 16
0 14 7 11 14 -7z m-560 -3 c33 -13 0 -23 -40 -12 -19 5 -43 7 -52 4 -15 -4
-15 -3 -2 6 17 12 66 13 94 2z m-629 -20 c-11 -10 -82 -25 -72 -15 5 5 26 11
77 23 2 1 0 -3 -5 -8z m-132 -46 c-3 -9 -8 -14 -10 -11 -3 3 -2 9 2 15 9 16
15 13 8 -4z m-23 -23 c0 -11 -99 -34 -111 -26 -13 7 -11 -3 3 -26 10 -15 10
-27 1 -51 l-12 -31 42 8 c23 5 96 9 162 9 132 1 196 8 296 31 82 19 148 16
163 -9 16 -27 -17 -50 -49 -35 -18 8 -50 6 -127 -6 -73 -12 -147 -16 -253 -14
-82 2 -172 -1 -200 -5 -70 -11 -87 2 -57 42 27 37 28 51 1 80 -22 24 -19 42 4
23 8 -7 17 -9 21 -5 4 4 28 10 54 14 26 3 50 7 55 8 4 0 7 -3 7 -7z m2045
-142 c-3 -5 -12 -7 -20 -3 -21 7 -19 13 6 13 11 0 18 -4 14 -10z m238 -21 c-6
-6 -31 -15 -55 -20 -59 -12 -488 -10 -488 2 0 5 71 9 168 10 92 1 194 5 227 9
100 12 161 12 148 -1z m-2244 -8 c16 5 38 5 56 -1 30 -10 29 -10 -7 -6 -25 3
-38 0 -42 -10 -3 -8 -16 -14 -29 -14 -13 0 -45 -6 -70 -14 -48 -14 -60 -7 -32
21 20 20 66 32 84 23 8 -4 26 -4 40 1z m-156 -8 c4 -3 -10 -21 -31 -39 -20
-17 -34 -35 -30 -39 4 -4 64 5 135 21 163 36 319 40 352 10 19 -18 20 -21 6
-35 -13 -13 -20 -13 -60 7 -60 29 -125 28 -268 -2 -225 -47 -238 -44 -166 38
41 46 50 52 62 39z"/>
<path d="M859 1256 c14 -17 49 -27 56 -17 5 8 -37 31 -57 31 -7 0 -7 -4 1 -14z"/>
<path d="M725 1063 c16 -95 48 -163 76 -163 15 0 19 4 15 16 -3 9 -6 30 -6 47
0 28 -1 29 -13 12 -17 -22 -37 -12 -37 17 0 30 -31 138 -40 138 -4 0 -2 -30 5
-67z"/>
<path d="M861 1104 c0 -11 3 -14 6 -6 3 7 2 16 -1 19 -3 4 -6 -2 -5 -13z"/>
<path d="M952 940 c0 -19 2 -27 5 -17 2 9 2 25 0 35 -3 9 -5 1 -5 -18z"/>
<path d="M742 917 c1 -15 8 -27 16 -27 10 0 10 5 1 23 -17 33 -19 33 -17 4z"/>
<path d="M852 920 c0 -14 2 -19 5 -12 2 6 2 18 0 25 -3 6 -5 1 -5 -13z"/>
<path d="M910 920 c0 -5 5 -10 10 -10 6 0 10 5 10 10 0 6 -4 10 -10 10 -5 0
-10 -4 -10 -10z"/>
<path d="M940 885 c-8 -2 -61 -9 -117 -15 -57 -7 -103 -15 -103 -19 1 -27 18
-29 79 -11 35 11 94 23 132 26 38 4 69 11 69 15 0 9 -28 10 -60 4z"/>
<path d="M1020 880 c0 -5 12 -10 26 -10 14 0 23 4 19 10 -3 6 -15 10 -26 10
-10 0 -19 -4 -19 -10z"/>
<path d="M1566 1303 c-13 -14 -5 -33 14 -33 11 0 20 6 20 14 0 15 -24 28 -34
19z m19 -13 c3 -5 1 -10 -4 -10 -6 0 -11 5 -11 10 0 6 2 10 4 10 3 0 8 -4 11
-10z"/>
<path d="M2005 1301 c-8 -15 3 -31 21 -31 9 0 14 7 12 17 -4 20 -24 28 -33 14z
m25 -11 c0 -5 -5 -10 -11 -10 -5 0 -7 5 -4 10 3 6 8 10 11 10 2 0 4 -4 4 -10z"/>
<path d="M2191 834 c0 -11 3 -14 6 -6 3 7 2 16 -1 19 -3 4 -6 -2 -5 -13z"/>
<path d="M504 978 c-4 -7 -4 -10 1 -6 4 4 15 2 24 -5 14 -11 14 -10 2 6 -16
20 -18 21 -27 5z"/>
<path d="M2410 790 c-13 -8 -12 -10 3 -10 9 0 17 5 17 10 0 12 -1 12 -20 0z"/>
<path d="M2430 770 c-9 -6 -10 -10 -3 -10 6 0 15 5 18 10 8 12 4 12 -15 0z"/>
<path d="M2460 750 c8 -5 22 -10 30 -10 13 0 13 1 0 10 -8 5 -22 10 -30 10
-13 0 -13 -1 0 -10z"/>
<path d="M2018 1853 c19 -8 14 -26 -5 -18 -15 5 -16 4 -5 -6 9 -10 15 -10 23
-2 13 13 4 33 -14 32 -9 0 -9 -2 1 -6z"/>
<path d="M922 1837 c-15 -19 -10 -43 11 -56 10 -7 16 -8 13 -3 -3 6 1 12 9 16
21 8 19 33 -4 45 -13 8 -22 7 -29 -2z m28 -27 c0 -5 -4 -10 -10 -10 -5 0 -10
5 -10 10 0 6 5 10 10 10 6 0 10 -4 10 -10z"/>
<path d="M2693 1834 c-9 -25 12 -38 28 -17 13 16 12 17 -3 4 -16 -12 -18 -11
-18 2 0 8 6 18 13 20 9 4 9 6 -1 6 -7 1 -15 -6 -19 -15z"/>
<path d="M2118 1823 c6 -2 12 -9 12 -14 0 -6 -5 -7 -12 -3 -7 4 -8 3 -4 -5 9
-14 26 -5 26 15 0 8 -8 14 -17 13 -11 0 -13 -3 -5 -6z"/>
<path d="M1500 1810 c8 -5 20 -10 25 -10 6 0 3 5 -5 10 -8 5 -19 10 -25 10 -5
0 -3 -5 5 -10z"/>
<path d="M2503 1813 c-19 -7 -16 -40 4 -47 9 -4 23 0 31 8 13 12 13 18 2 30
-13 17 -17 18 -37 9z m27 -23 c0 -5 -4 -10 -10 -10 -5 0 -10 5 -10 10 0 6 5
10 10 10 6 0 10 -4 10 -10z"/>
<path d="M1245 1801 c-3 -7 0 -8 10 -5 11 4 14 2 9 -9 -3 -8 -1 -17 4 -21 5
-3 8 5 7 16 -2 24 -19 35 -30 19z"/>
<path d="M560 1781 c-8 -3 -15 -18 -16 -33 0 -21 4 -25 20 -22 11 2 26 10 33
17 11 11 11 16 -4 29 -10 9 -25 13 -33 9z m24 -32 c-3 -5 -10 -7 -15 -3 -5 3
-7 10 -3 15 3 5 10 7 15 3 5 -3 7 -10 3 -15z"/>
<path d="M2096 1782 c-3 -5 1 -9 9 -9 8 0 12 4 9 9 -3 4 -7 8 -9 8 -2 0 -6 -4
-9 -8z"/>
<path d="M2690 1780 c0 -5 5 -10 11 -10 5 0 7 5 4 10 -3 6 -8 10 -11 10 -2 0
-4 -4 -4 -10z"/>
<path d="M1110 1765 c-10 -12 -10 -18 0 -30 16 -19 25 -19 45 1 14 15 14 17
-2 30 -23 17 -28 17 -43 -1z m30 -15 c0 -5 -4 -10 -10 -10 -5 0 -10 5 -10 10
0 6 5 10 10 10 6 0 10 -4 10 -10z"/>
<path d="M44 1755 c-14 -34 13 -56 45 -36 10 7 11 13 2 30 -14 24 -39 28 -47
6z m36 -15 c0 -5 -4 -10 -10 -10 -5 0 -10 5 -10 10 0 6 5 10 10 10 6 0 10 -4
10 -10z"/>
<path d="M2131 1748 c-11 -17 -10 -23 3 -36 15 -15 18 -15 36 4 19 18 19 21 4
39 -8 11 -12 13 -8 5 6 -12 5 -13 -7 -3 -12 10 -17 8 -28 -9z m29 -18 c0 -5
-4 -10 -10 -10 -5 0 -10 5 -10 10 0 6 5 10 10 10 6 0 10 -4 10 -10z"/>
<path d="M2695 1747 c-17 -22 -15 -36 6 -42 27 -9 43 7 34 34 -7 23 -25 27
-40 8z m25 -17 c0 -5 -4 -10 -10 -10 -5 0 -10 5 -10 10 0 6 5 10 10 10 6 0 10
-4 10 -10z"/>
<path d="M1342 1736 c7 -8 15 -12 17 -11 5 6 -10 25 -20 25 -5 0 -4 -6 3 -14z"/>
<path d="M776 1708 c5 -8 2 -9 -9 -5 -16 6 -16 4 -2 -23 18 -34 27 -37 50 -14
15 15 15 18 -1 35 -19 21 -50 27 -38 7z m24 -24 c0 -8 -5 -12 -10 -9 -6 4 -8
11 -5 16 9 14 15 11 15 -7z"/>
<path d="M1255 1690 c3 -4 0 -10 -6 -12 -15 -5 0 -37 22 -49 11 -5 18 -6 17
-2 -1 4 3 18 10 30 13 23 7 31 -28 38 -11 2 -18 0 -15 -5z m25 -26 c0 -8 -4
-12 -10 -9 -5 3 -10 10 -10 16 0 5 5 9 10 9 6 0 10 -7 10 -16z"/>
<path d="M2351 1678 c-10 -16 -10 -23 -2 -26 6 -2 9 -7 7 -11 -3 -4 4 -13 16
-20 11 -7 17 -8 13 -2 -3 6 -2 11 2 11 13 0 14 42 1 57 -15 18 -21 16 -37 -9z
m25 -25 c-10 -10 -19 5 -10 18 6 11 8 11 12 0 2 -7 1 -15 -2 -18z"/>
<path d="M1625 1640 c3 -5 11 -10 16 -10 6 0 7 5 4 10 -3 6 -11 10 -16 10 -6
0 -7 -4 -4 -10z"/>
<path d="M1960 1635 c-12 -15 2 -55 19 -55 15 0 30 25 29 46 -2 23 -31 29 -48
9z m30 -15 c0 -5 -4 -10 -10 -10 -5 0 -10 5 -10 10 0 6 5 10 10 10 6 0 10 -4
10 -10z"/>
<path d="M2775 1631 c-3 -5 -2 -12 3 -15 5 -3 9 1 9 9 0 17 -3 19 -12 6z"/>
<path d="M265 1620 c-3 -5 -1 -18 4 -28 6 -11 8 -21 6 -24 -3 -3 3 -5 12 -5
29 0 46 23 33 47 -11 21 -44 27 -55 10z m25 -4 c0 -3 -4 -8 -10 -11 -5 -3 -10
-1 -10 4 0 6 5 11 10 11 6 0 10 -2 10 -4z m20 -26 c0 -5 -4 -10 -10 -10 -5 0
-10 5 -10 10 0 6 5 10 10 10 6 0 10 -4 10 -10z"/>
<path d="M570 1605 c-10 -12 -10 -18 0 -30 19 -23 54 -13 54 16 1 29 -34 38
-54 14z m46 -14 c0 -12 -6 -17 -18 -13 -23 6 -23 19 0 25 9 3 17 5 17 6 1 0 1
-7 1 -18z"/>
<path d="M2843 1583 c-7 -3 -13 -9 -13 -15 0 -6 7 -4 17 3 15 12 16 12 10 -3
-4 -12 -2 -15 9 -11 28 10 6 36 -23 26z"/>
<path d="M351 1546 c-8 -10 -9 -16 -1 -21 5 -3 10 -1 10 4 0 6 5 11 11 11 6 0
8 -7 4 -17 -4 -13 -3 -15 5 -7 11 11 4 44 -10 44 -4 0 -13 -6 -19 -14z"/>
<path d="M515 1540 c-3 -6 1 -7 9 -4 9 3 16 2 16 -4 0 -6 -6 -13 -12 -15 -8
-3 -6 -6 5 -6 11 -1 17 6 17 19 0 21 -24 28 -35 10z"/>
<path d="M776 1526 c6 -33 21 -41 50 -26 14 8 21 16 15 18 -6 2 -8 9 -5 14 4
7 2 8 -4 4 -7 -4 -12 -4 -12 1 0 4 -11 8 -24 8 -18 0 -23 -5 -20 -19z m44 -5
c0 -6 -4 -13 -10 -16 -5 -3 -10 1 -10 9 0 9 5 16 10 16 6 0 10 -4 10 -9z"/>
<path d="M1625 1495 c-4 -25 -5 -48 -2 -51 2 -3 8 16 12 41 3 26 4 49 2 52 -3
3 -9 -16 -12 -42z"/>
<path d="M2110 1534 c0 -6 5 -15 12 -22 9 -9 8 -12 -5 -12 -9 0 -17 5 -17 10
0 6 -5 10 -11 10 -8 0 -8 -5 1 -15 26 -31 58 -13 34 20 -8 10 -14 14 -14 9z"/>
<path d="M2360 1501 c-13 -25 15 -45 42 -30 22 12 23 35 2 43 -25 10 -33 7
-44 -13z m40 -11 c0 -5 -4 -10 -9 -10 -6 0 -13 5 -16 10 -3 6 1 10 9 10 9 0
16 -4 16 -10z"/>
<path d="M1654 1450 c-8 -38 -8 -53 1 -60 9 -8 14 0 19 27 14 90 -3 118 -20
33z"/>
<path d="M1184 1455 c-16 -39 -19 -105 -4 -105 6 0 10 -5 10 -10 0 -7 -6 -8
-16 -2 -23 13 -62 3 -79 -21 -18 -25 -21 -127 -4 -127 7 0 10 12 7 30 -4 29 5
40 17 20 11 -18 45 -11 71 15 20 20 26 22 31 10 3 -9 14 -20 24 -26 21 -11 72
-2 63 12 -3 5 -17 6 -31 3 -29 -8 -46 11 -37 40 5 14 2 18 -10 13 -8 -3 -18
-2 -21 3 -9 15 15 107 34 127 18 19 17 20 -11 36 l-29 17 -15 -35z m-6 -167
c3 -22 -2 -29 -22 -34 -16 -4 -32 -1 -41 6 -8 7 -15 9 -15 5 0 -5 -2 -6 -5 -3
-3 3 0 17 6 32 10 22 18 26 43 24 25 -2 32 -8 34 -30z"/>
<path d="M1133 1303 c-18 -6 -16 -30 2 -37 9 -3 18 1 22 10 7 18 -7 33 -24 27z"/>
<path d="M2711 1457 c-13 -16 -5 -47 13 -47 26 1 41 19 30 37 -14 23 -29 26
-43 10z m29 -17 c0 -5 -4 -10 -10 -10 -5 0 -10 5 -10 10 0 6 5 10 10 10 6 0
10 -4 10 -10z"/>
<path d="M70 1449 c-12 -8 -11 -9 6 -5 11 4 29 -1 40 -9 17 -13 17 -14 2 -15
-10 0 -18 5 -18 10 0 6 -4 10 -10 10 -5 0 -10 -6 -10 -14 0 -22 39 -31 57 -13
13 12 12 16 -2 31 -19 18 -43 20 -65 5z"/>
<path d="M466 1439 c-12 -18 -13 -25 -3 -31 37 -23 69 8 37 37 -17 15 -19 15
-34 -6z m34 -20 c0 -5 -4 -9 -10 -9 -5 0 -10 7 -10 16 0 8 5 12 10 9 6 -3 10
-10 10 -16z"/>
<path d="M1707 1447 c-4 -10 -7 -35 -6 -55 l1 -37 9 34 c6 18 9 43 7 55 -3 19
-4 19 -11 3z"/>
<path d="M1438 1402 c9 -10 19 -17 21 -16 6 5 -20 34 -30 34 -5 0 -1 -8 9 -18z"/>
<path d="M1738 1380 c-3 -16 -1 -30 4 -30 4 0 8 6 8 14 0 8 3 21 6 30 3 9 2
16 -4 16 -5 0 -12 -13 -14 -30z"/>
<path d="M2521 1396 c-8 -10 -9 -16 -1 -21 6 -3 8 -11 5 -16 -3 -5 2 -6 11 -2
13 5 15 3 10 -8 -4 -8 1 -3 12 11 15 18 18 28 10 37 -14 17 -33 16 -47 -1z
m30 -19 c-13 -13 -26 -3 -16 12 3 6 11 8 17 5 6 -4 6 -10 -1 -17z"/>
<path d="M920 1386 c0 -8 -10 -17 -22 -19 -20 -4 -19 -4 5 -6 21 -1 27 4 27
19 0 11 -2 20 -5 20 -3 0 -5 -6 -5 -14z"/>
<path d="M1416 1391 c-4 -5 -2 -12 3 -15 5 -4 12 -2 15 3 4 5 2 12 -3 15 -5 4
-12 2 -15 -3z"/>
<path d="M982 1370 c0 -14 2 -19 5 -12 2 6 2 18 0 25 -3 6 -5 1 -5 -13z"/>
<path d="M1767 1366 c-4 -15 -6 -31 -2 -34 10 -10 16 6 13 35 l-3 28 -8 -29z"/>
<path d="M1290 1370 c0 -5 5 -10 10 -10 6 0 10 5 10 10 0 6 -4 10 -10 10 -5 0
-10 -4 -10 -10z"/>
<path d="M1500 1374 c0 -10 28 -33 33 -27 3 3 0 12 -8 19 -14 15 -25 18 -25 8z"/>
<path d="M233 1354 c-4 -11 1 -22 12 -31 16 -11 21 -11 34 1 12 12 12 18 1 30
-16 21 -39 20 -47 0z m37 -14 c0 -5 -4 -10 -10 -10 -5 0 -10 5 -10 10 0 6 5
10 10 10 6 0 10 -4 10 -10z"/>
<path d="M1059 1357 c16 -20 37 -22 47 -6 4 7 1 10 -7 7 -8 -3 -23 -1 -34 5
-18 9 -19 9 -6 -6z"/>
<path d="M2145 1360 c3 -5 8 -10 11 -10 2 0 4 5 4 10 0 6 -5 10 -11 10 -5 0
-7 -4 -4 -10z"/>
<path d="M1247 1344 c-12 -12 3 -22 24 -17 16 4 17 8 7 14 -16 10 -23 11 -31
3z"/>
<path d="M1800 1332 c0 -11 7 -25 15 -32 12 -10 15 -9 15 8 0 11 -7 25 -15 32
-12 10 -15 9 -15 -8z"/>
<path d="M1850 1333 c0 -6 8 -17 18 -24 16 -13 16 -13 2 6 -8 11 -16 22 -17
24 -2 2 -3 0 -3 -6z"/>
<path d="M1895 1330 c3 -5 8 -10 11 -10 2 0 4 5 4 10 0 6 -5 10 -11 10 -5 0
-7 -4 -4 -10z"/>
<path d="M1910 1281 c0 -17 5 -31 10 -31 6 0 10 11 10 24 0 14 -4 28 -10 31
-6 4 -10 -7 -10 -24z"/>
<path d="M1252 1291 c-10 -6 -9 -11 3 -21 11 -9 19 -10 26 -3 13 13 -12 35
-29 24z"/>
<path d="M1370 1296 c0 -2 8 -10 18 -17 15 -13 16 -12 3 4 -13 16 -21 21 -21
13z"/>
<path d="M1841 1290 c0 -8 13 -28 29 -44 39 -38 38 -22 0 24 -17 21 -29 29
-29 20z"/>
<path d="M2341 1286 c-15 -18 -5 -56 14 -56 8 0 19 8 24 19 8 14 6 22 -8 35
-16 14 -20 15 -30 2z m23 -27 c-3 -5 -10 -7 -15 -3 -5 3 -7 10 -3 15 3 5 10 7
15 3 5 -3 7 -10 3 -15z"/>
<path d="M1713 1246 c1 -17 9 -31 17 -33 10 -3 11 -2 4 4 -7 4 -14 19 -17 33
-4 22 -5 21 -4 -4z"/>
<path d="M1925 1240 c-3 -5 1 -10 9 -10 9 0 16 5 16 10 0 6 -4 10 -9 10 -6 0
-13 -4 -16 -10z"/>
<path d="M1180 1224 c-14 -7 -33 -11 -42 -8 -14 4 -18 0 -18 -18 0 -13 3 -18
8 -12 8 14 74 33 99 30 10 -2 12 -1 6 1 -7 3 -13 9 -13 14 0 12 -9 10 -40 -7z"/>
<path d="M1620 1225 c-7 -9 -10 -18 -6 -22 3 -3 6 -1 6 6 0 7 5 9 10 6 6 -3
10 1 10 9 0 20 -4 20 -20 1z"/>
<path d="M1278 1213 c7 -3 16 -2 19 1 4 3 -2 6 -13 5 -11 0 -14 -3 -6 -6z"/>
<path d="M1249 1193 c-1 -4 -1 -11 0 -15 0 -5 -3 -8 -9 -8 -16 0 -12 -37 5
-44 15 -5 45 18 45 35 0 5 -7 9 -16 9 -8 0 -13 4 -9 9 3 5 1 12 -5 16 -5 3
-11 3 -11 -2z m21 -43 c0 -5 -4 -10 -9 -10 -6 0 -13 5 -16 10 -3 6 1 10 9 10
9 0 16 -4 16 -10z"/>
<path d="M85 1170 c6 -9 -7 -14 -27 -11 -4 0 -5 -6 -2 -14 4 -8 10 -15 16 -15
5 0 6 5 3 10 -8 14 8 13 22 -1 9 -9 11 -7 8 7 -2 11 -4 22 -4 27 -1 4 -6 7
-12 7 -5 0 -7 -4 -4 -10z"/>
<path d="M2811 1143 c-15 -12 -14 -14 3 -28 17 -13 23 -13 40 -2 10 7 20 20
21 28 3 18 -42 19 -64 2z m39 -13 c0 -5 -7 -10 -15 -10 -8 0 -15 5 -15 10 0 6
7 10 15 10 8 0 15 -4 15 -10z"/>
<path d="M1493 1079 c-1 -12 10 -25 30 -35 18 -9 27 -11 20 -4 -6 7 -9 18 -7
25 5 13 -10 28 -31 31 -6 1 -12 -7 -12 -17z m34 -15 c-9 -9 -28 6 -21 18 4 6
10 6 17 -1 6 -6 8 -13 4 -17z"/>
<path d="M1306 952 c-9 -15 23 -23 45 -12 10 6 19 13 19 16 0 2 -10 0 -21 -7
-16 -8 -23 -8 -29 1 -5 8 -10 8 -14 2z"/>
<path d="M2545 900 c3 -5 8 -10 11 -10 2 0 4 5 4 10 0 6 -5 10 -11 10 -5 0 -7
-4 -4 -10z"/>
<path d="M2644 831 c21 -23 26 -26 26 -11 0 5 -10 15 -22 21 -23 12 -23 12 -4
-10z"/>
<path d="M151 816 c-10 -12 -10 -19 1 -33 13 -18 44 -31 34 -14 -4 5 0 11 6
14 10 3 10 9 2 23 -14 24 -29 28 -43 10z m29 -16 c0 -5 -4 -10 -10 -10 -5 0
-10 5 -10 10 0 6 5 10 10 10 6 0 10 -4 10 -10z"/>
<path d="M1930 741 c0 -16 -3 -36 -6 -45 -5 -13 0 -15 27 -10 48 9 56 20 20
27 -28 6 -46 37 -21 37 6 0 10 5 10 10 0 6 -7 10 -15 10 -10 0 -15 -10 -15
-29z"/>
<path d="M1620 746 c0 -2 9 -6 20 -9 11 -3 18 -1 14 4 -5 9 -34 13 -34 5z"/>
<path d="M2050 706 c0 -7 10 -16 23 -20 43 -11 52 -6 19 14 -39 24 -42 24 -42
6z"/>
<path d="M1176 677 c3 -10 9 -15 12 -12 3 3 0 11 -7 18 -10 9 -11 8 -5 -6z"/>
<path d="M2376 674 c-9 -24 -8 -25 13 -12 11 7 17 16 15 20 -8 13 -21 9 -28
-8z"/>
<path d="M2316 630 c-24 -44 -25 -50 -10 -50 10 0 15 3 11 6 -3 4 3 24 14 46
30 59 17 57 -15 -2z"/>
<path d="M1559 660 c-1 -5 -2 -15 -3 -22 0 -6 -14 -15 -31 -20 -16 -5 -37 -12
-45 -15 -8 -4 -22 -7 -30 -8 -8 -1 -23 -5 -33 -9 -16 -8 -114 -3 -166 8 -14 3
-28 11 -33 18 -4 7 -8 9 -8 3 0 -5 -7 1 -14 14 -8 15 -16 19 -20 13 -4 -6 -13
-9 -21 -5 -24 8 -19 -44 6 -70 12 -12 18 -15 14 -7 -8 13 -7 13 8 1 9 -7 17
-10 17 -6 0 5 9 0 20 -10 11 -10 20 -14 20 -9 0 5 5 2 10 -6 5 -8 10 -10 10
-5 0 6 41 10 100 11 94 1 101 0 105 -20 11 -53 14 -57 10 -14 -4 44 -3 48 18
47 12 0 49 2 82 5 141 12 189 11 180 -4 -8 -12 45 10 63 27 17 17 15 30 -8 46
-11 8 -18 16 -15 18 6 6 -24 8 -120 8 -44 0 -81 -4 -83 -9 -2 -5 -9 -7 -17 -4
-8 3 -11 12 -8 20 3 8 2 14 -1 14 -3 0 -7 -4 -7 -10z m211 -43 c19 -7 34 -16
33 -20 -2 -4 -54 -10 -115 -12 -62 -2 -158 -10 -213 -19 -159 -25 -229 -18
-301 29 -41 26 -23 27 29 0 90 -45 166 -42 387 14 87 23 131 25 180 8z"/>
<path d="M351 644 c0 -11 3 -14 6 -6 3 7 2 16 -1 19 -3 4 -6 -2 -5 -13z"/>
<path d="M2636 647 c3 -10 9 -15 12 -12 3 3 0 11 -7 18 -10 9 -11 8 -5 -6z"/>
<path d="M2450 630 c-9 -6 -10 -10 -3 -10 6 0 15 5 18 10 8 12 4 12 -15 0z"/>
<path d="M2515 620 c-6 -9 18 -20 44 -20 10 0 18 6 18 14 0 14 -53 20 -62 6z"/>
<path d="M1700 556 c0 -2 7 -7 16 -10 8 -3 12 -2 9 4 -6 10 -25 14 -25 6z"/>
<path d="M1904 545 c-5 -11 -11 -12 -24 -5 -11 6 -21 6 -24 2 -2 -4 -21 -7
-40 -7 -25 1 -36 -3 -36 -12 0 -8 -5 -11 -12 -7 -6 4 -3 -4 7 -17 15 -20 25
-23 63 -20 30 2 47 -1 53 -10 7 -11 9 -10 9 5 0 15 3 16 14 7 11 -9 16 -9 21
0 6 8 9 8 15 -1 4 -7 8 -1 8 15 0 15 6 31 13 36 10 6 7 8 -11 7 -40 -2 -52 1
-45 12 3 6 4 10 0 10 -3 0 -8 -7 -11 -15z m36 -35 c0 -6 -33 -9 -82 -9 -63 1
-75 3 -48 9 53 11 130 11 130 0z"/>
<path d="M2830 490 c0 -5 -7 -6 -17 -3 -10 4 -14 2 -10 -4 4 -7 -7 -12 -29
-15 -19 -2 -38 0 -41 5 -3 4 -12 0 -20 -10 -10 -13 -16 -15 -19 -5 -3 6 -11
12 -16 12 -6 0 -9 -3 -5 -6 3 -4 -1 -14 -10 -23 -12 -11 -18 -12 -20 -4 -3 9
-11 6 -25 -7 -12 -11 -25 -17 -29 -14 -4 2 -11 -1 -15 -7 -5 -8 -3 -9 6 -4 10
6 12 4 7 -9 -4 -9 -3 -14 2 -11 5 3 12 1 16 -5 7 -11 84 -8 104 4 6 4 11 0 12
-11 0 -16 1 -16 8 2 8 20 8 20 13 0 5 -16 6 -17 7 -2 0 9 8 17 16 17 7 0 19
-8 24 -17 9 -16 10 -16 11 -2 0 13 13 18 66 21 65 4 84 15 84 48 0 26 -17 43
-47 46 -15 1 -38 5 -50 8 -13 2 -23 1 -23 -4z m98 -47 c-3 -15 -22 -20 -123
-29 -66 -7 -139 -15 -162 -19 -30 -5 -43 -4 -43 4 0 6 11 11 24 11 13 0 43 7
67 16 47 17 128 31 197 33 36 1 43 -2 40 -16z"/>
<path d="M2966 474 c-8 -21 -8 -24 3 -24 5 0 11 9 14 20 6 24 -8 27 -17 4z"/>
<path d="M1626 435 c4 -16 11 -37 15 -45 6 -10 7 -4 3 15 -4 17 -11 37 -15 45
-6 10 -7 4 -3 -15z"/>
<path d="M1451 428 c-32 -33 -37 -66 -15 -83 10 -7 22 -11 27 -8 4 2 14 -1 22
-7 8 -7 24 -9 36 -5 18 6 20 12 15 43 -3 20 -10 38 -16 40 -5 2 -7 9 -3 15 3
7 2 9 -2 4 -5 -4 -16 0 -26 9 -16 14 -19 13 -38 -8z m57 -30 c15 -15 16 -58 2
-58 -6 0 -16 12 -22 28 -11 26 -12 26 -15 5 -3 -13 -9 -23 -14 -23 -10 0 -12
43 -2 53 10 11 38 8 51 -5z"/>
<path d="M1016 427 c3 -8 -12 -12 -50 -14 -30 0 -70 -6 -88 -12 -18 -6 -67
-16 -108 -22 -41 -6 -86 -12 -100 -14 -21 -3 -215 -12 -394 -19 -29 -1 -43 -7
-55 -26 -9 -13 -11 -21 -4 -17 6 4 13 3 15 -3 4 -13 271 -20 317 -8 45 12 400
19 463 9 26 -4 46 -5 44 -2 -4 10 42 49 50 42 4 -3 2 4 -4 15 -6 12 -9 23 -7
26 7 7 -25 32 -57 46 -21 9 -26 8 -22 -1z m57 -49 c8 -12 7 -21 -3 -34 -13
-15 -30 -16 -153 -11 -93 4 -178 1 -260 -8 -137 -17 -427 -20 -427 -6 0 6 58
10 134 10 174 1 339 16 506 46 152 27 188 27 203 3z"/>
<path d="M2965 430 c3 -5 8 -10 11 -10 2 0 4 5 4 10 0 6 -5 10 -11 10 -5 0 -7
-4 -4 -10z"/>
<path d="M1141 404 c0 -11 3 -14 6 -6 3 7 2 16 -1 19 -3 4 -6 -2 -5 -13z"/>
<path d="M2132 376 c-13 -28 -2 -35 18 -11 7 8 21 15 30 15 20 0 80 -46 80
-61 0 -16 -17 -10 -48 16 -33 28 -62 33 -62 11 0 -9 7 -13 20 -11 12 2 21 -3
25 -16 4 -11 11 -17 16 -14 5 4 9 2 9 -3 0 -5 9 -12 20 -15 12 -3 17 -1 14 5
-3 5 2 8 12 6 27 -5 23 33 -8 66 -18 20 -38 30 -70 33 -40 5 -45 3 -56 -21z"/>
<path d="M2428 390 c-15 -4 -30 -5 -34 -1 -4 3 -4 1 -1 -5 4 -7 26 -9 58 -6
37 3 50 2 45 -7 -4 -6 -26 -11 -48 -11 -51 0 -41 -13 12 -17 41 -3 60 18 39
43 -13 15 -30 16 -71 4z"/>
<path d="M1546 377 c3 -10 9 -15 12 -12 3 3 0 11 -7 18 -10 9 -11 8 -5 -6z"/>
<path d="M1651 344 c0 -11 3 -14 6 -6 3 7 2 16 -1 19 -3 4 -6 -2 -5 -13z"/>
</g>
</svg>
