<?xml version="1.0" standalone="no"?>
<!DOCTYPE svg PUBLIC "-//W3C//DTD SVG 20010904//EN"
 "http://www.w3.org/TR/2001/REC-SVG-20010904/DTD/svg10.dtd">
<svg version="1.0" xmlns="http://www.w3.org/2000/svg"
 width="300.000000pt" height="300.000000pt" viewBox="0 0 300.000000 300.000000"
 preserveAspectRatio="xMidYMid meet">
<metadata>
Created by potrace 1.10, written by Peter Selinger 2001-2011
</metadata>
<g transform="translate(0.000000,300.000000) scale(0.100000,-0.100000)"
fill="#000000" stroke="none">
<path d="M685 2664 c-4 -22 -2 -41 4 -47 8 -8 11 -7 11 2 0 7 5 9 10 6 6 -4 8
-16 5 -28 -5 -17 -4 -18 4 -8 8 12 11 9 17 -13 4 -18 9 -24 14 -16 8 13 -38
140 -51 140 -4 0 -10 -16 -14 -36z"/>
<path d="M602 2604 c-6 -42 -8 -84 -4 -92 5 -13 2 -13 -18 1 -38 27 -45 20
-10 -10 25 -21 46 -28 91 -31 63 -5 112 3 107 18 -2 4 -21 28 -43 52 -23 24
-56 64 -73 91 -18 26 -34 47 -36 47 -2 0 -8 -34 -14 -76z m38 -4 c0 -5 6 -7
13 -4 7 2 21 -10 32 -28 10 -18 25 -39 32 -46 23 -24 14 -32 -37 -32 -32 0
-52 5 -57 14 -11 19 -4 106 8 106 5 0 9 -4 9 -10z"/>
<path d="M808 2673 c7 -3 16 -2 19 1 4 3 -2 6 -13 5 -11 0 -14 -3 -6 -6z"/>
<path d="M1921 2664 c0 -11 3 -14 6 -6 3 7 2 16 -1 19 -3 4 -6 -2 -5 -13z"/>
<path d="M2438 2673 c7 -3 16 -2 19 1 4 3 -2 6 -13 5 -11 0 -14 -3 -6 -6z"/>
<path d="M900 2646 c0 -7 5 -17 12 -24 8 -8 8 -15 -2 -27 -12 -14 -11 -18 1
-26 20 -13 63 -11 77 3 15 15 15 30 -1 52 -16 21 -87 40 -87 22z m62 -58 c-9
-9 -15 -9 -24 1 -11 11 -10 12 1 6 10 -6 12 -2 6 16 -7 23 -6 23 11 7 14 -14
15 -20 6 -30z"/>
<path d="M1957 2624 c-38 -21 -54 -64 -31 -81 25 -18 48 -16 75 6 l24 20 -24
9 c-16 6 -20 11 -13 16 13 8 17 46 5 46 -5 -1 -21 -8 -36 -16z m2 -46 c-10
-19 -9 -20 7 -14 15 6 17 5 7 -5 -20 -20 -41 4 -23 26 18 22 23 19 9 -7z"/>
<path d="M2189 2626 c-75 -29 -118 -57 -162 -106 -62 -69 -90 -144 -90 -240 0
-107 29 -178 104 -252 l58 -57 -67 -31 c-89 -42 -172 -123 -172 -169 0 -6 183
-10 511 -10 l510 -1 -6 23 c-21 66 -52 121 -87 153 -23 20 -37 39 -32 43 17
12 32 68 23 84 -14 24 -13 145 1 162 11 13 7 15 -23 15 l-35 0 4 -42 c10 -112
10 -148 1 -151 -7 -2 -6 -15 1 -36 9 -25 9 -32 -1 -28 -6 2 -18 -10 -25 -27
l-14 -31 -27 33 c-33 38 -44 41 -35 7 7 -29 -12 -35 -21 -6 -3 11 -13 25 -22
33 -15 11 -16 10 -11 -9 6 -23 -6 -32 -17 -13 -10 17 -28 11 -22 -7 18 -57 19
-63 8 -63 -6 0 -18 18 -27 40 -18 45 -34 52 -34 15 0 -33 -13 -32 -31 3 -14
26 -14 26 -17 -31 -4 -76 -22 -64 -22 16 0 62 -15 71 -22 13 -4 -42 -26 -44
-31 -4 l-4 33 -1 -32 c-2 -38 -16 -43 -27 -10 -7 20 -8 20 -12 -8 -6 -47 -12
-60 -24 -48 -7 7 -6 25 2 56 12 51 5 93 -11 67 -6 -8 -10 -27 -10 -42 0 -15
-4 -30 -10 -33 -6 -3 -10 4 -10 17 l0 23 -21 -25 -20 -25 6 38 c7 45 -8 49
-25 6 -8 -17 -23 -40 -34 -50 -15 -14 -16 -19 -5 -19 8 0 20 5 25 10 13 13 46
2 38 -14 -3 -6 1 -3 9 6 13 16 16 16 33 2 10 -9 13 -12 5 -8 -9 5 -12 3 -7 -4
18 -29 43 -32 70 -7 14 13 26 20 26 15 0 -6 6 -10 14 -10 8 0 24 -11 35 -25
l19 -26 21 22 c12 13 21 28 21 35 0 21 26 23 43 3 29 -33 77 -18 77 24 0 16 3
17 15 7 8 -6 23 -9 34 -5 11 3 29 0 41 -7 19 -11 24 -10 43 12 l22 25 31 -30
c38 -37 67 -91 58 -107 -5 -7 -3 -8 6 -3 8 5 11 3 8 -6 -4 -12 -79 -14 -449
-15 -244 -1 -451 0 -461 3 -9 2 -15 10 -14 18 3 23 16 30 27 15 9 -13 10 -13
8 0 -3 21 11 51 21 45 4 -3 11 2 14 11 3 9 13 14 20 11 8 -3 20 1 26 9 14 16
50 19 50 4 0 -16 38 -32 46 -18 5 7 2 9 -7 4 -8 -4 -5 1 7 11 23 21 48 73 38
82 -3 3 -11 -2 -18 -13 -22 -37 -44 -61 -50 -55 -12 12 15 63 57 109 24 25 57
66 75 93 36 51 46 55 74 31 22 -20 35 -11 79 53 18 25 38 43 49 43 12 0 41
-28 77 -72 88 -111 95 -118 120 -112 19 5 21 11 15 38 -7 34 -7 46 2 126 4 30
2 85 -4 122 -8 45 -8 78 -2 102 10 36 10 36 -20 36 -24 0 -39 9 -64 38 -18 21
-62 53 -99 72 -56 29 -78 34 -148 37 -52 2 -95 -2 -118 -11z m146 -15 c3 -6
18 -9 33 -7 15 2 41 -5 57 -15 17 -10 39 -23 51 -28 11 -5 42 -29 68 -54 46
-43 48 -46 47 -98 -1 -30 -1 -110 -1 -179 l0 -125 -24 30 c-14 17 -25 37 -25
45 -1 13 0 13 9 0 7 -12 9 -10 7 7 0 12 -5 19 -11 16 -5 -4 -7 2 -3 13 7 18 7
18 -8 0 -15 -20 -15 -20 -30 0 -8 10 -15 21 -15 24 0 3 -12 13 -27 22 -29 16
-64 11 -78 -11 -3 -6 -11 -9 -16 -6 -5 3 -6 -2 -2 -11 5 -13 3 -15 -7 -9 -8 5
-11 4 -7 -2 10 -15 -27 -58 -42 -49 -6 4 -9 11 -7 14 2 4 -8 7 -22 6 -15 0
-31 4 -35 10 -6 7 -7 5 -3 -6 3 -10 -5 -26 -19 -40 -14 -13 -25 -29 -25 -35 0
-7 -4 -13 -10 -13 -5 0 -10 -7 -10 -15 0 -9 -11 -20 -25 -25 -14 -5 -25 -12
-25 -15 0 -4 6 -3 13 1 8 5 7 2 -2 -10 -8 -9 -20 -15 -27 -12 -7 3 -16 0 -20
-6 -4 -6 -3 -8 4 -4 6 3 13 2 17 -3 3 -6 -4 -8 -17 -6 -31 6 -103 89 -103 118
0 7 -6 17 -13 22 -7 6 -13 30 -14 53 0 23 -4 40 -7 37 -4 -2 -4 21 0 52 4 31
6 60 3 64 -2 4 0 10 5 14 6 3 8 12 5 20 -4 8 1 18 10 21 9 3 13 10 10 15 -7
11 21 40 30 31 4 -3 4 1 1 10 -4 11 1 21 14 30 12 7 21 17 21 23 0 15 91 63
151 79 63 17 115 20 124 7z m285 -326 c0 -8 -4 -16 -9 -19 -5 -3 -8 5 -7 18 1
25 16 26 16 1z"/>
<path d="M2526 2255 c-10 -7 -16 -18 -15 -24 2 -5 18 1 34 15 32 25 14 34 -19
9z"/>
<path d="M781 2616 c-15 -18 -27 -114 -13 -101 6 6 12 27 14 48 2 34 5 38 25
34 28 -5 30 4 4 20 -15 10 -22 9 -30 -1z"/>
<path d="M1060 2368 l-1 -193 -29 35 c-36 43 -37 48 -5 56 14 3 25 12 25 20 0
7 -6 11 -12 9 -8 -3 -14 4 -14 20 -1 16 2 23 10 18 6 -3 3 3 -7 14 -17 20 -17
21 5 27 14 5 18 9 10 13 -19 8 -41 -15 -35 -37 3 -12 0 -20 -6 -20 -7 0 -9 5
-5 12 4 7 3 8 -4 4 -20 -12 -14 -35 8 -29 12 3 20 0 20 -6 0 -7 -4 -10 -9 -7
-5 3 -8 -2 -7 -11 3 -39 -25 -16 -94 79 -40 56 -76 96 -78 90 -2 -6 -17 -26
-34 -44 -49 -52 -86 -148 -58 -148 6 0 10 6 10 13 0 7 9 29 20 50 11 20 18 37
15 37 -3 0 3 8 13 18 9 10 22 27 28 37 9 16 19 6 80 -75 l69 -93 -26 -28 -26
-28 -103 35 c-56 19 -105 32 -108 29 -8 -8 -6 -9 158 -65 89 -31 161 -62 168
-72 17 -23 49 -23 61 0 6 11 66 37 165 71 145 50 156 55 150 75 -17 54 -45
106 -73 138 -17 20 -31 41 -31 47 0 18 -18 13 -30 -9 -6 -11 -16 -17 -22 -14
-7 4 -8 3 -4 -5 8 -12 -98 -161 -114 -161 -5 0 -14 9 -20 21 -10 17 -8 21 9
26 12 3 21 9 21 14 0 5 -7 6 -15 3 -18 -7 -18 -4 -5 31 5 14 14 23 20 20 5 -3
10 -1 10 4 0 6 -7 11 -15 11 -8 0 -15 -4 -15 -9 0 -5 -10 -7 -22 -4 -22 4 -22
4 -5 -10 10 -8 14 -18 9 -20 -4 -3 -7 -20 -6 -36 1 -21 -3 -31 -12 -31 -8 0
-14 6 -14 13 0 6 -3 23 -7 36 -4 17 -3 22 5 17 8 -4 10 -2 6 8 -3 8 -6 40 -7
71 -2 45 0 55 13 52 8 -2 14 -8 13 -14 -1 -6 10 -10 27 -9 20 1 30 -3 30 -12
0 -9 7 -11 23 -6 12 3 19 3 15 -1 -4 -5 0 -14 10 -21 15 -12 14 -13 -10 -12
-16 1 -28 6 -28 10 0 4 -5 8 -10 8 -6 0 -4 -13 5 -29 16 -31 39 -53 29 -27 -3
9 3 19 16 26 12 6 19 14 16 17 -3 4 -1 12 5 20 9 10 2 17 -36 34 -27 12 -65
24 -85 26 -32 5 -36 8 -32 28 2 12 -1 26 -7 29 -8 5 -11 -49 -11 -186z m250
59 c0 -7 8 -22 18 -33 10 -10 26 -37 36 -59 10 -22 23 -48 28 -57 6 -13 5 -18
-4 -18 -7 0 -21 23 -31 50 -10 28 -22 50 -27 50 -14 0 -12 -13 3 -30 10 -12 9
-12 -4 -2 -21 16 -43 -11 -47 -58 -2 -24 0 -31 6 -21 6 7 15 11 21 7 7 -5 9
-1 5 8 -3 9 -10 16 -15 16 -4 0 -6 6 -3 13 6 16 35 18 33 3 -3 -23 1 -36 12
-36 6 0 8 9 4 23 -5 17 -4 19 4 7 19 -27 12 -38 -36 -55 -27 -10 -88 -32 -136
-51 -49 -18 -87 -29 -85 -24 6 18 203 280 210 280 5 0 8 -6 8 -13z m-202 -214
c-17 -24 -33 -43 -34 -43 -2 0 3 96 6 107 0 1 13 -4 29 -10 l30 -11 -31 -43z
m-91 -13 c15 -22 36 -40 46 -40 9 0 17 -6 17 -13 0 -17 -28 -18 -34 -1 -2 6
-27 20 -55 29 -50 16 -53 21 -28 53 15 19 24 15 54 -28z"/>
<path d="M1290 2394 c0 -5 5 -15 11 -21 9 -9 6 -10 -12 -6 -22 6 -23 5 -10
-11 13 -15 16 -16 30 -2 14 15 14 18 -2 33 -9 10 -17 13 -17 7z"/>
<path d="M1255 2348 c4 -11 0 -18 -12 -21 -17 -4 -17 -4 0 -12 29 -12 45 11
24 33 -16 15 -17 15 -12 0z"/>
<path d="M1204 2299 c-5 -9 10 -13 31 -9 7 1 7 -2 0 -8 -5 -6 -18 -12 -29 -14
-17 -3 -17 -4 3 -28 17 -21 21 -22 22 -7 3 31 4 35 12 43 4 4 7 11 7 15 0 11
-39 18 -46 8z m26 -43 c0 -3 -4 -8 -10 -11 -5 -3 -10 -1 -10 4 0 6 5 11 10 11
6 0 10 -2 10 -4z"/>
<path d="M1261 2274 c0 -11 3 -14 6 -6 3 7 2 16 -1 19 -3 4 -6 -2 -5 -13z"/>
<path d="M1160 2240 c0 -4 10 -15 22 -26 20 -18 21 -18 15 -1 -4 10 -7 22 -7
26 0 4 -7 8 -15 8 -8 0 -15 -3 -15 -7z"/>
<path d="M981 2534 c-57 -15 -131 -52 -131 -66 0 -15 34 -8 55 12 22 20 45 29
96 34 30 3 49 13 49 27 0 11 -3 11 -69 -7z"/>
<path d="M1090 2535 c0 -7 18 -15 39 -19 22 -3 62 -17 89 -31 54 -27 62 -29
62 -17 0 15 -96 62 -144 71 -35 6 -46 5 -46 -4z"/>
<path d="M1818 2523 c-9 -2 -20 -13 -24 -25 -4 -14 -9 -17 -17 -9 -38 38 -98
-19 -62 -59 18 -19 18 -21 1 -33 -40 -29 3 -95 45 -69 11 7 24 11 27 8 3 -3 2
-6 -2 -6 -4 0 -2 -9 4 -20 22 -40 89 -14 77 30 -4 16 0 20 19 20 32 0 51 38
35 69 -7 11 -20 21 -29 21 -13 0 -18 8 -17 26 0 29 -30 53 -57 47z m42 -49 c0
-2 -9 0 -20 6 -11 6 -20 13 -20 16 0 2 9 0 20 -6 11 -6 20 -13 20 -16z m-108
-8 c-4 -6 -7 -14 -7 -18 0 -3 -3 -10 -8 -14 -4 -4 -6 4 -5 18 1 13 8 25 15 25
6 0 9 -5 5 -11z m77 -22 c-19 -23 3 -39 31 -24 l22 12 -18 -30 c-10 -17 -22
-28 -27 -25 -5 3 -3 10 4 15 11 8 11 9 -1 5 -8 -2 -14 -14 -13 -26 2 -11 1
-21 -1 -21 -14 0 -36 14 -36 22 0 5 6 6 13 3 6 -4 4 0 -5 7 -11 10 -14 19 -8
29 5 8 7 22 4 33 -4 11 -2 16 4 12 6 -3 13 -2 17 4 4 6 11 8 16 4 6 -4 5 -11
-2 -20z m-45 -9 c3 -8 1 -15 -5 -15 -6 0 -7 -4 -4 -10 3 -5 2 -10 -3 -10 -5 0
-9 11 -9 25 0 28 12 33 21 10z m66 -5 c0 -5 -5 -10 -11 -10 -5 0 -7 5 -4 10 3
6 8 10 11 10 2 0 4 -4 4 -10z m54 -35 c-4 -8 -10 -13 -15 -10 -4 3 -6 12 -3
20 4 8 10 13 15 10 4 -3 6 -12 3 -20z m-169 -15 c-3 -5 -1 -10 4 -10 6 0 11 5
11 10 0 6 7 10 15 10 25 0 17 -17 -12 -25 -22 -5 -24 -8 -12 -16 12 -9 12 -10
-1 -6 -19 5 -22 47 -4 47 3 0 2 -4 -1 -10z m109 -55 c-7 -17 -34 -21 -34 -4 0
5 4 8 9 4 5 -3 12 -1 16 5 9 15 15 12 9 -5z"/>
<path d="M956 2480 c-56 -22 -96 -53 -59 -45 15 2 20 -1 17 -10 -3 -7 4 -19
15 -27 12 -8 18 -18 14 -21 -3 -4 -1 -7 5 -7 7 0 12 -10 12 -22 0 -16 3 -19
11 -11 6 6 11 17 12 24 2 8 6 20 10 27 12 19 -4 14 -19 -5 -13 -16 -14 -16
-11 7 1 14 7 29 12 33 10 9 -4 5 -42 -10 -15 -6 -16 -4 -6 9 7 8 9 18 5 22 -4
4 5 5 21 1 20 -5 27 -3 27 7 0 7 9 14 20 14 11 0 20 -6 20 -13 0 -7 -7 -13
-15 -13 -8 0 -15 -7 -15 -15 0 -8 4 -15 9 -15 5 0 16 -3 25 -6 11 -4 16 -1 16
11 0 9 -4 13 -10 10 -13 -8 -13 1 0 26 7 13 7 19 0 19 -17 0 -11 18 8 23 11 3
9 5 -8 5 -14 1 -47 -8 -74 -18z"/>
<path d="M2684 2490 c-20 -8 -39 -38 -31 -47 8 -8 38 10 48 29 13 24 10 28
-17 18z"/>
<path d="M415 2481 c-6 -5 -26 -11 -45 -13 -27 -2 -35 -7 -35 -23 0 -33 -13
-43 -51 -42 -73 2 -101 -92 -42 -136 37 -28 44 -17 13 19 -32 37 -32 57 2 83
31 25 39 21 23 -10 -16 -30 -6 -87 21 -115 21 -22 30 -24 130 -24 104 0 108 1
128 26 12 15 21 32 21 38 0 18 41 89 59 103 13 9 13 14 4 24 -10 10 -17 8 -36
-9 -29 -27 -35 -27 -65 1 -20 19 -34 22 -103 22 -75 0 -110 15 -52 23 16 2 29
7 31 12 2 6 10 6 20 0 9 -5 32 -13 50 -19 29 -9 33 -8 30 7 -2 12 -15 18 -41
20 -20 2 -37 7 -37 13 0 12 -13 12 -25 0z m-53 -93 c-16 -16 -15 -23 3 -42 13
-12 13 -19 3 -35 -9 -15 -9 -23 1 -35 11 -14 11 -16 -5 -17 -18 0 -18 -1 1 -9
19 -8 19 -9 -2 -9 -13 -1 -23 4 -23 9 0 6 -7 10 -15 10 -8 0 -19 9 -25 20 -9
17 -8 19 7 13 16 -6 16 -4 -2 17 -11 13 -14 20 -6 15 11 -6 13 -4 8 8 -6 17
34 67 55 67 9 0 9 -3 0 -12z m68 -18 c6 0 10 7 10 15 0 8 5 15 10 15 6 0 10
-4 10 -10 0 -14 27 -13 32 2 3 7 12 9 22 5 10 -4 14 -12 10 -18 -4 -8 -3 -9 4
-5 13 8 32 -24 32 -56 0 -18 -2 -20 -10 -8 -6 9 -10 10 -10 3 0 -6 5 -15 11
-18 13 -8 -28 -55 -48 -55 -17 0 -17 11 2 37 13 18 13 22 0 33 -17 14 -20 50
-4 50 5 0 8 4 4 9 -3 6 -16 4 -30 -3 -28 -15 -95 -11 -110 6 -7 8 -3 9 13 5
16 -4 22 -1 22 11 1 15 2 15 11 0 5 -10 14 -18 19 -18z m157 -22 c-3 -8 -6 -5
-6 6 -1 11 2 17 5 13 3 -3 4 -12 1 -19z m-147 -8 c0 -6 12 -15 28 -21 l27 -11
-27 -10 c-16 -5 -28 -14 -28 -19 0 -4 6 -6 14 -3 8 3 17 0 22 -7 5 -9 2 -10
-9 -6 -9 3 -18 1 -21 -6 -2 -7 -8 -2 -11 11 -7 23 -15 26 -50 22 -17 -2 -16 2
10 28 32 32 45 38 45 22z m-25 -79 c-3 -6 -11 -11 -17 -11 -6 0 -6 6 2 15 14
17 26 13 15 -4z"/>
<path d="M526 2347 c3 -10 9 -15 12 -12 3 3 0 11 -7 18 -10 9 -11 8 -5 -6z"/>
<path d="M416 2315 c-3 -8 -1 -15 3 -15 5 0 12 6 14 13 4 10 6 10 6 0 1 -7 6
-13 12 -13 8 0 8 5 -1 15 -7 8 -16 15 -20 15 -4 0 -10 -7 -14 -15z"/>
<path d="M1104 2425 c-2 -28 -2 -28 20 -19 26 10 13 44 -17 44 -1 0 -3 -11 -3
-25z"/>
<path d="M2690 2430 c0 -5 -3 -9 -7 -9 -20 3 -34 -2 -28 -11 7 -12 71 -12 100
-1 19 8 19 8 -2 19 -27 15 -63 16 -63 2z"/>
<path d="M809 2363 c-34 -52 -51 -93 -39 -93 6 0 10 6 10 13 0 9 3 8 9 -2 6
-9 11 -10 15 -2 4 6 4 16 0 23 -5 7 -2 9 9 5 8 -3 18 0 21 8 5 15 -20 29 -28
14 -2 -5 -3 -4 -2 3 2 7 11 12 21 10 10 -2 21 2 26 9 4 8 11 10 15 6 4 -4 3
-12 -3 -18 -17 -17 -5 -38 18 -32 20 5 27 23 9 23 -5 0 -10 6 -10 14 0 19 -26
40 -35 26 -3 -5 -11 -10 -17 -10 -6 0 -3 9 7 20 10 11 14 20 8 20 -6 0 -21
-17 -34 -37z"/>
<path d="M2650 2375 c0 -17 46 -42 57 -32 8 9 -27 47 -44 47 -7 0 -13 -7 -13
-15z"/>
<path d="M1155 2349 c10 -10 22 -16 27 -13 12 8 -6 27 -28 30 -14 2 -14 0 1
-17z"/>
<path d="M1632 2309 c-1 -9 -11 -27 -23 -40 -11 -13 -18 -32 -15 -42 2 -10 -5
-27 -19 -41 -27 -27 -45 -83 -45 -143 0 -48 15 -93 30 -93 6 0 9 4 5 10 -3 5
-8 42 -10 82 l-5 73 13 -48 c15 -52 42 -87 66 -87 12 1 11 3 -4 12 -39 22 -57
70 -45 120 l8 33 1 -31 c1 -35 42 -77 66 -68 11 5 19 -3 28 -25 6 -17 14 -31
17 -31 13 0 9 -64 -4 -79 -18 -19 -58 -20 -80 -2 -9 8 -16 10 -16 6 0 -5 -8
-1 -17 7 -10 8 -34 18 -53 21 l-35 7 28 -25 c15 -14 36 -25 46 -25 10 0 32 -7
47 -15 63 -33 119 -4 117 60 -1 20 -6 42 -12 48 -6 6 -11 17 -11 25 0 21 -31
82 -42 82 -5 0 -6 -9 -3 -20 9 -28 -16 -26 -43 3 -36 38 -21 112 23 112 13 0
23 10 30 30 5 17 17 36 25 43 13 12 12 13 -5 9 -11 -3 -28 -8 -37 -12 -13 -5
-17 0 -21 27 -2 18 -5 26 -5 17z m8 -74 c0 -8 -4 -15 -10 -15 -5 0 -10 7 -10
15 0 8 5 15 10 15 6 0 10 -7 10 -15z"/>
<path d="M877 2293 c-4 -3 -7 -13 -7 -22 1 -13 3 -13 11 2 11 19 8 33 -4 20z"/>
<path d="M900 2286 c0 -8 5 -18 10 -21 6 -3 10 -11 10 -16 0 -6 -4 -7 -10 -4
-5 3 -10 -1 -10 -9 0 -14 3 -14 20 -4 24 15 26 38 4 38 -14 0 -14 3 -4 15 10
12 10 15 -4 15 -9 0 -16 -6 -16 -14z"/>
<path d="M816 2265 c-5 -13 -2 -14 15 -4 13 7 19 7 15 1 -3 -6 -2 -13 4 -17 5
-3 10 3 10 14 0 25 -35 29 -44 6z"/>
<path d="M870 2240 c0 -5 5 -10 10 -10 6 0 10 5 10 10 0 6 -4 10 -10 10 -5 0
-10 -4 -10 -10z"/>
<path d="M1380 2204 c0 -16 -5 -35 -11 -41 -7 -7 -8 -20 -4 -30 5 -14 10 -7
23 30 11 36 12 51 4 59 -9 9 -12 5 -12 -18z"/>
<path d="M2808 2218 c-19 -16 -31 -48 -18 -48 6 0 19 9 30 20 32 32 23 55 -12
28z"/>
<path d="M270 2184 c0 -31 2 -34 23 -29 96 23 173 24 246 5 19 -5 38 -7 43 -4
9 6 11 48 2 56 -8 9 -44 -3 -38 -13 3 -5 2 -9 -3 -9 -107 -4 -227 0 -232 7 -3
5 -14 12 -23 16 -15 5 -18 1 -18 -29z"/>
<path d="M1410 2186 c0 -14 -4 -28 -10 -31 -5 -3 -10 -11 -10 -17 0 -6 9 -3
20 7 21 19 26 50 10 60 -6 3 -10 -5 -10 -19z"/>
<path d="M1740 2183 c-14 -18 -20 -36 -16 -53 16 -80 24 -108 37 -130 l14 -25
3 27 c2 15 -3 39 -11 55 -20 38 -23 74 -9 99 6 12 8 24 5 28 -3 3 3 6 15 6 11
0 24 -5 27 -10 4 -6 11 -8 16 -5 5 4 9 1 9 -5 0 -6 5 -8 11 -5 6 4 20 -2 32
-13 28 -25 79 -38 71 -19 -5 13 -21 23 -64 41 -8 4 -26 13 -40 21 -40 23 -76
19 -100 -12z"/>
<path d="M2871 2184 c0 -11 3 -14 6 -6 3 7 2 16 -1 19 -3 4 -6 -2 -5 -13z"/>
<path d="M780 2163 c-1 -27 -1 -28 -16 -8 -15 19 -16 18 -12 -17 4 -41 -2 -47
-22 -23 -7 8 -19 15 -26 15 -23 0 9 -54 41 -68 32 -15 38 -15 30 -1 -10 14 3
59 17 59 7 0 9 -14 5 -41 -4 -31 -2 -38 6 -30 6 6 22 11 35 11 21 0 22 -2 12
-15 -7 -8 -22 -15 -34 -15 -17 0 -18 -2 -6 -10 23 -15 50 -12 50 5 0 8 6 15
14 15 7 0 19 7 26 15 11 13 8 15 -20 15 -32 0 -33 0 -15 20 24 27 12 37 -19
17 l-25 -17 6 38 c6 34 5 36 -10 23 -15 -12 -17 -11 -17 13 0 14 -4 26 -10 26
-5 0 -10 -12 -10 -27z"/>
<path d="M970 2126 c0 -14 5 -26 10 -26 6 0 10 9 10 19 0 11 -4 23 -10 26 -6
4 -10 -5 -10 -19z"/>
<path d="M1150 2126 c0 -14 5 -26 10 -26 6 0 10 9 10 19 0 11 -4 23 -10 26 -6
4 -10 -5 -10 -19z"/>
<path d="M2660 2126 c0 -16 32 -46 48 -46 15 0 15 12 0 32 -18 21 -48 31 -48
14z"/>
<path d="M323 2107 c-24 -6 -43 -14 -43 -18 0 -5 -12 -9 -27 -10 -24 0 -25 -1
-8 -8 12 -5 28 -3 41 5 11 8 24 11 27 7 4 -3 7 -1 7 5 0 17 100 15 143 -3 20
-8 44 -15 54 -14 14 0 15 2 3 6 -8 2 -28 11 -45 18 -43 18 -103 23 -152 12z"/>
<path d="M1300 2094 c0 -11 18 -14 90 -14 72 0 90 3 90 15 0 11 -18 14 -90 14
-72 0 -90 -3 -90 -15z"/>
<path d="M1899 2078 c-3 -87 -6 -114 -16 -132 -8 -14 -9 -7 -5 33 5 57 -9 95
-42 113 -16 9 -15 4 7 -21 28 -33 34 -76 17 -116 -7 -16 -9 -14 -10 15 0 25
-8 40 -25 53 -21 15 -25 16 -25 3 0 -8 9 -20 19 -25 12 -7 20 -24 23 -50 2
-22 0 -37 -4 -35 -7 5 -12 -9 -10 -27 1 -3 -12 -3 -29 -1 -25 4 -31 0 -44 -31
-8 -19 -20 -37 -27 -40 -7 -2 -10 -7 -6 -11 3 -4 20 0 37 8 l31 16 -6 -30 c-4
-19 -2 -30 5 -30 6 0 11 6 11 13 0 8 9 22 20 32 11 10 19 26 18 36 -2 9 6 26
18 36 12 10 29 34 39 53 21 41 34 170 16 170 -6 0 -11 -15 -12 -32z m-84 -246
c-1 -1 -10 0 -19 4 -13 5 -14 9 -4 21 10 13 13 13 19 -4 3 -10 5 -19 4 -21z"/>
<path d="M137 2083 c-4 -3 -7 -16 -6 -27 0 -15 2 -17 6 -6 4 8 13 20 22 27 15
11 15 12 0 13 -9 0 -19 -3 -22 -7z"/>
<path d="M568 2083 c6 -2 18 -2 25 0 6 3 1 5 -13 5 -14 0 -19 -2 -12 -5z"/>
<path d="M620 2066 c5 -13 6 -27 2 -32 -4 -4 -1 -4 6 0 17 10 15 43 -3 49 -11
5 -12 1 -5 -17z"/>
<path d="M660 2079 c0 -5 11 -16 25 -25 14 -9 22 -20 19 -25 -3 -5 8 -9 25 -9
16 0 33 5 36 10 3 6 -5 10 -19 10 -15 0 -30 8 -35 19 -11 19 -51 36 -51 20z"/>
<path d="M950 2060 l0 -29 120 -3 120 -3 0 31 0 31 -120 1 -120 0 0 -28z m67
-16 c-9 -9 -28 6 -21 18 4 6 10 6 17 -1 6 -6 8 -13 4 -17z m118 17 c3 -5 1
-12 -5 -16 -5 -3 -10 1 -10 9 0 18 6 21 15 7z"/>
<path d="M2643 2066 c-36 -17 -27 -26 22 -26 49 0 58 11 23 26 -15 7 -31 6
-45 0z"/>
<path d="M1320 2055 c7 -9 15 -13 17 -11 7 7 -7 26 -19 26 -6 0 -6 -6 2 -15z"/>
<path d="M1443 2063 c-17 -6 -16 -23 1 -23 8 0 16 7 20 15 6 15 1 17 -21 8z"/>
<path d="M160 2050 c0 -15 22 -60 30 -60 4 0 13 11 20 25 7 14 17 25 22 25 5
0 6 5 3 10 -8 13 -75 13 -75 0z"/>
<path d="M530 2051 c0 -4 10 -21 22 -36 20 -26 22 -27 35 -9 25 34 17 54 -22
54 -19 0 -35 -4 -35 -9z"/>
<path d="M1315 2020 c3 -5 37 -10 75 -10 38 0 72 5 75 10 4 6 -23 10 -75 10
-52 0 -79 -4 -75 -10z"/>
<path d="M2690 2020 c-12 -7 -12 -12 -2 -22 9 -9 15 -9 24 0 16 16 -2 34 -22
22z"/>
<path d="M158 1985 c6 -10 8 -42 5 -71 -7 -66 28 -149 79 -188 51 -38 53 -32
5 14 -28 27 -35 38 -22 34 12 -3 9 1 -7 11 -27 15 -46 55 -35 72 3 5 2 15 -3
23 -5 9 -5 19 2 27 6 8 7 13 1 13 -6 0 -8 10 -6 23 2 12 -3 31 -12 42 -16 19
-16 19 -7 0z"/>
<path d="M2785 1980 c-11 -17 15 -30 45 -23 44 10 42 19 -7 29 -19 4 -33 2
-38 -6z"/>
<path d="M245 1958 c-14 -11 -22 -24 -19 -30 3 -5 12 0 21 11 19 28 57 27 76
-1 12 -18 16 -19 16 -7 2 38 -58 55 -94 27z"/>
<path d="M470 1972 c-21 -7 -50 -33 -50 -45 0 -6 9 -1 20 11 12 12 29 22 40
22 11 0 28 -10 40 -22 11 -12 20 -18 20 -12 -1 25 -45 55 -70 46z"/>
<path d="M702 1970 c8 -26 66 -52 151 -66 l82 -13 -80 3 c-44 3 -88 7 -97 11
-27 11 -21 -10 6 -23 13 -6 41 -14 63 -18 21 -4 42 -9 47 -12 14 -8 386 -8
386 1 0 4 12 7 28 7 27 0 119 37 111 45 -3 2 -22 0 -44 -5 -22 -5 -65 -9 -95
-9 l-55 1 75 13 c91 16 119 26 144 54 23 26 19 26 -25 4 -29 -16 -70 -18 -287
-21 -253 -4 -370 5 -401 31 -11 10 -13 9 -9 -3z m501 -79 c3 -14 -14 -16 -137
-16 -128 0 -140 1 -126 16 22 23 257 23 263 0z"/>
<path d="M585 1893 c0 -35 -3 -67 -7 -69 -5 -3 -8 -10 -8 -17 0 -6 7 -2 15 9
15 20 21 129 7 138 -4 2 -8 -25 -7 -61z"/>
<path d="M356 1881 c-3 -5 1 -14 9 -21 12 -10 13 -16 3 -27 -10 -13 -14 -12
-25 3 -7 10 -16 15 -19 11 -16 -16 19 -35 59 -32 58 3 57 3 57 22 0 15 -2 15
-19 -1 -22 -20 -40 -4 -21 19 6 8 9 19 5 25 -8 12 -42 13 -49 1z"/>
<path d="M1420 1875 c0 -7 -5 -15 -12 -17 -7 -3 -3 -13 12 -28 15 -15 25 -19
28 -12 2 7 10 12 17 12 9 0 13 10 11 26 -2 21 -9 28 -30 30 -16 2 -26 -2 -26
-11z m40 -20 c0 -8 -7 -15 -15 -15 -8 0 -15 7 -15 15 0 8 7 15 15 15 8 0 15
-7 15 -15z"/>
<path d="M210 1871 c0 -5 10 -12 23 -14 18 -4 17 -4 -6 -6 -16 0 -26 -5 -23
-9 7 -11 66 -2 66 9 0 5 -12 14 -26 19 -31 12 -34 12 -34 1z"/>
<path d="M518 1869 c-40 -15 -20 -59 27 -58 15 0 13 3 -10 14 l-30 13 30 2 30
2 -30 8 c-23 6 -25 8 -8 9 12 0 25 6 28 11 7 12 -1 12 -37 -1z"/>
<path d="M660 1860 c0 -11 -4 -20 -10 -20 -5 0 -10 -10 -10 -23 0 -13 -9 -42
-20 -65 -22 -44 -27 -127 -9 -152 7 -11 9 0 4 40 l-6 55 15 -33 c15 -32 46
-70 46 -57 0 4 -9 18 -20 32 -21 27 -27 68 -10 78 6 3 10 19 10 36 0 24 4 29
25 29 20 0 27 6 32 30 3 17 9 30 14 30 5 0 9 5 9 10 0 7 -6 7 -19 0 -27 -14
-31 -13 -31 10 0 11 -4 20 -10 20 -5 0 -10 -9 -10 -20z m7 -52 c-3 -8 -6 -5
-6 6 -1 11 2 17 5 13 3 -3 4 -12 1 -19z"/>
<path d="M1040 1825 c0 -7 11 -12 25 -12 14 0 25 5 25 12 0 7 -11 13 -25 13
-14 0 -25 -6 -25 -13z"/>
<path d="M228 1823 c-10 -2 -18 -9 -18 -14 0 -6 7 -6 18 -1 9 5 24 12 32 15
13 5 13 5 0 5 -8 0 -23 -2 -32 -5z"/>
<path d="M1526 1802 c-3 -10 -9 -23 -12 -29 -3 -7 0 -13 7 -13 6 0 17 -7 24
-16 11 -15 14 -15 38 1 27 17 36 35 18 35 -5 0 -7 9 -4 19 4 16 -1 19 -30 19
-24 0 -37 -5 -41 -16z m54 -22 c0 -13 -7 -20 -20 -20 -19 0 -27 20 -13 33 13
14 33 6 33 -13z"/>
<path d="M1655 1784 c-8 -20 -15 -45 -15 -55 0 -23 -9 -24 -38 -3 -12 8 -22
13 -22 9 0 -3 14 -14 31 -24 l30 -19 -34 -6 c-20 -4 -46 -1 -61 5 -14 7 -29 9
-33 6 -13 -13 8 -20 62 -21 30 -1 54 -5 52 -10 -4 -12 -135 -68 -164 -70 -31
-2 -41 -16 -12 -16 23 0 24 -3 22 -42 l-2 -43 8 37 c4 20 13 44 20 52 14 16
79 41 87 33 10 -10 -16 -46 -37 -52 -38 -12 -78 -65 -49 -65 18 0 11 -18 -9
-23 -12 -3 -22 1 -25 9 -8 21 -37 17 -43 -5 -3 -11 -13 -21 -24 -24 -25 -7
-25 -37 0 -44 11 -3 18 -10 15 -16 -2 -7 1 -19 6 -27 8 -12 13 -13 29 -3 11 7
26 10 34 7 19 -7 44 23 30 37 -15 15 7 58 35 65 13 4 22 14 22 24 0 26 15 33
31 14 11 -13 10 -17 -4 -25 -26 -15 -22 -46 6 -44 18 2 22 7 19 34 -1 18 -12
45 -24 62 -17 22 -19 32 -10 41 7 7 12 20 12 30 0 10 7 18 16 18 9 0 23 17 32
40 9 22 20 40 23 40 11 0 16 -34 8 -55 -4 -11 -8 -16 -8 -11 -1 5 -8 3 -16 -4
-9 -7 -14 -18 -12 -24 3 -6 -2 -19 -10 -28 -18 -20 -9 -38 18 -38 10 0 19 -7
19 -15 0 -8 9 -15 20 -15 11 0 20 7 20 15 0 8 9 15 19 15 26 0 38 20 20 34 -8
6 -13 22 -11 35 3 21 0 23 -22 19 -27 -5 -30 -1 -20 26 5 12 10 13 26 5 10 -6
24 -8 31 -6 7 3 -1 10 -18 16 -51 21 -82 69 -55 86 13 8 13 55 0 55 -5 0 -17
-16 -25 -36z m46 -173 c0 8 5 3 10 -10 7 -19 6 -28 -6 -40 -13 -14 -17 -14
-31 1 -21 21 -10 65 12 47 11 -9 14 -8 15 2z m-121 -71 c0 -5 -7 -7 -15 -4 -8
4 -12 10 -9 15 6 11 24 2 24 -11z m-32 -27 c-5 -25 -28 -28 -28 -4 0 12 6 21
16 21 9 0 14 -7 12 -17z m-85 -61 c-2 -6 3 -9 10 -6 9 3 13 -3 12 -17 -2 -29
-42 -45 -49 -21 -7 21 -4 38 6 35 4 -2 4 5 1 13 -4 12 -2 15 8 12 8 -3 13 -10
12 -16z"/>
<path d="M823 1802 c-55 -3 -63 -6 -63 -22 0 -19 9 -20 305 -20 298 0 305 0
305 20 0 18 -7 20 -57 21 -271 3 -438 4 -490 1z"/>
<path d="M550 1779 c0 -5 -4 -8 -8 -5 -4 2 -8 -4 -8 -14 0 -22 12 -17 26 11 7
13 7 19 0 19 -5 0 -10 -5 -10 -11z"/>
<path d="M467 1773 c-14 -13 -6 -23 17 -23 23 0 24 -2 23 -72 -2 -65 -4 -73
-21 -71 -13 1 -15 -2 -7 -10 7 -7 14 -7 24 2 11 9 17 8 27 -4 7 -8 8 -15 2
-15 -5 0 -12 -10 -15 -21 -4 -16 -11 -20 -24 -15 -14 6 -15 5 -6 -5 10 -10 18
-8 38 11 28 27 32 48 10 56 -12 5 -15 24 -15 84 0 62 -3 79 -16 84 -20 8 -29
8 -37 -1z"/>
<path d="M890 1571 c0 -165 1 -171 20 -171 20 0 20 5 18 167 -3 151 -5 168
-20 171 -17 3 -18 -10 -18 -167z"/>
<path d="M1209 1598 c-1 -79 -3 -155 -5 -170 -2 -22 1 -28 17 -28 18 0 19 8
19 170 0 144 -2 170 -15 170 -13 0 -15 -23 -16 -142z"/>
<path d="M1407 1733 c-4 -3 -7 -15 -7 -25 0 -10 -5 -18 -11 -18 -6 0 -9 -10
-7 -22 2 -15 9 -22 21 -22 10 1 17 -5 17 -17 0 -23 28 -26 36 -4 4 8 14 15 24
15 25 0 35 17 20 35 -6 8 -9 19 -5 25 4 6 1 17 -5 26 -10 11 -16 12 -28 2 -12
-10 -16 -10 -19 0 -5 13 -25 16 -36 5z m64 -48 c8 -29 -25 -52 -45 -32 -8 8
-12 24 -9 35 7 27 46 25 54 -3z"/>
<path d="M1942 1728 c3 -7 12 -14 21 -16 12 -2 15 1 11 12 -7 19 -38 22 -32 4z"/>
<path d="M2100 1731 c0 -13 41 -41 60 -41 8 0 22 5 30 10 13 8 12 11 -5 24
-22 17 -85 22 -85 7z"/>
<path d="M2269 1716 c-9 -20 -9 -28 4 -40 18 -18 37 -21 37 -6 0 6 6 9 13 8 7
-2 11 6 9 21 -3 29 -1 27 -29 35 -18 6 -25 2 -34 -18z m39 -27 c-16 -10 -33 5
-23 21 5 8 11 8 21 -1 12 -10 12 -14 2 -20z"/>
<path d="M2444 1729 c-3 -6 -3 -13 0 -16 3 -3 -2 -11 -11 -18 -18 -13 -10 -35
13 -35 8 0 14 -7 14 -15 0 -19 9 -19 48 1 32 16 38 25 25 38 -4 4 -8 17 -8 29
0 17 -7 21 -37 23 -21 2 -40 -2 -44 -7z m63 -38 c2 -25 -24 -35 -42 -17 -10
10 -11 16 -2 25 17 17 43 13 44 -8z"/>
<path d="M1800 1721 c0 -5 -9 -11 -20 -14 -20 -5 -29 -27 -11 -27 5 0 7 -9 4
-20 -4 -14 0 -20 10 -20 8 0 22 -3 31 -6 10 -4 18 1 23 12 3 11 11 22 17 26 6
4 0 17 -15 32 -25 26 -39 33 -39 17z m25 -31 c3 -5 2 -16 -2 -24 -11 -20 -38
-3 -30 18 7 18 23 21 32 6z"/>
<path d="M2374 1692 c5 -36 3 -43 -19 -60 -33 -26 -101 -38 -120 -22 -18 15
-19 9 -3 -25 13 -28 53 -44 71 -26 8 8 6 11 -8 12 -12 0 -4 6 19 15 21 8 44
19 51 24 14 11 45 3 45 -12 0 -5 3 -7 8 -4 10 6 51 -17 51 -29 0 -5 9 -11 19
-13 21 -3 46 22 57 58 8 25 7 25 -13 6 -17 -14 -29 -17 -59 -11 -65 11 -85 30
-81 77 2 28 -2 43 -11 46 -11 4 -13 -4 -7 -36z"/>
<path d="M2653 1720 c-13 -5 -23 -11 -23 -12 0 -2 29 -3 65 -3 66 0 83 8 43
19 -31 8 -58 7 -85 -4z"/>
<path d="M2814 1712 c4 -6 -4 -12 -18 -14 -22 -3 -23 -5 -12 -21 13 -16 14
-16 30 7 11 18 13 27 4 32 -6 4 -8 3 -4 -4z"/>
<path d="M649 1693 c6 -12 16 -25 21 -28 17 -11 11 5 -11 28 l-21 22 11 -22z"/>
<path d="M702 1662 c6 -28 13 -52 17 -52 3 0 6 -15 6 -32 0 -25 -5 -34 -20
-36 -31 -4 -70 21 -68 44 1 10 0 13 -3 7 -3 -7 -18 -13 -32 -13 l-27 -1 24
-19 c13 -11 31 -20 42 -20 10 0 21 -4 24 -10 9 -14 58 -13 73 2 15 15 16 74 2
83 -5 3 -10 17 -10 29 0 13 -9 34 -19 47 l-19 24 10 -53z"/>
<path d="M790 1685 c0 -8 4 -15 8 -15 5 0 8 -61 7 -135 -1 -123 1 -135 17
-135 16 0 18 12 18 128 0 70 3 137 6 150 6 19 3 22 -25 22 -21 0 -31 -5 -31
-15z"/>
<path d="M1284 1678 c3 -13 6 -80 6 -150 0 -121 1 -128 20 -128 19 0 20 7 20
128 0 70 3 137 6 150 6 19 3 22 -26 22 -29 0 -32 -3 -26 -22z"/>
<path d="M1965 1693 c-11 -2 -34 -19 -50 -36 -17 -18 -58 -58 -92 -89 -65 -61
-62 -68 21 -39 48 17 51 17 101 -4 69 -28 78 -38 100 -117 11 -38 23 -68 27
-68 11 0 10 3 -11 73 -25 78 -23 92 19 150 27 38 43 50 84 62 27 8 56 15 64
15 9 0 13 3 10 6 -4 3 -8 6 -10 5 -1 0 -55 11 -118 24 -63 14 -117 24 -120 24
-3 -1 -14 -3 -25 -6z m49 -20 c4 -4 19 -8 34 -9 40 -3 84 -22 77 -34 -4 -7
-19 -4 -42 10 -20 11 -38 19 -40 16 -3 -2 9 -12 26 -21 34 -17 33 -23 -8 -75
-17 -21 -21 -22 -21 -7 0 10 12 29 26 42 21 19 22 23 6 18 -13 -3 -27 5 -46
29 -14 18 -26 28 -26 22 0 -5 9 -20 20 -32 19 -21 28 -48 12 -38 -4 2 -7 -12
-5 -32 2 -32 0 -29 -17 22 -25 73 -31 81 -28 33 2 -20 6 -37 9 -37 10 0 19
-44 11 -52 -6 -6 -80 15 -100 28 -7 5 52 105 67 114 20 11 35 12 45 3z m-104
-72 c-21 -42 -36 -56 -44 -43 -4 7 51 82 61 82 2 0 -6 -18 -17 -39z m124 -102
c-3 -5 -10 -7 -15 -3 -5 3 -7 10 -3 15 3 5 10 7 15 3 5 -3 7 -10 3 -15z"/>
<path d="M1949 1638 c-2 -34 -11 -63 -22 -71 -8 -5 -5 -7 9 -5 12 2 32 -6 45
-17 24 -20 24 -20 9 0 -8 11 -22 26 -30 33 -8 8 -10 11 -5 8 7 -3 9 8 7 30 -4
33 -11 46 -13 22z"/>
<path d="M2584 1684 c3 -9 6 -18 6 -21 0 -3 7 0 15 7 21 18 19 30 -6 30 -15 0
-19 -4 -15 -16z"/>
<path d="M275 1661 c-18 -36 -19 -57 -2 -64 8 -3 12 6 11 29 -2 37 7 41 50 24
16 -6 27 -6 31 0 4 6 25 9 47 8 24 -2 43 2 45 8 3 8 -14 11 -54 10 -32 0 -70
2 -85 7 -24 6 -29 3 -43 -22z"/>
<path d="M1004 1665 c9 -48 17 -62 41 -73 35 -16 70 0 83 37 l11 31 -60 0
c-37 0 -59 4 -59 11 0 8 20 10 60 7 33 -2 60 -1 60 4 0 4 -32 8 -70 8 -70 0
-70 0 -66 -25z m106 -31 c0 -2 -9 -8 -21 -14 -23 -13 -60 7 -39 20 11 7 60 2
60 -6z"/>
<path d="M2871 1674 c0 -11 3 -14 6 -6 3 7 2 16 -1 19 -3 4 -6 -2 -5 -13z"/>
<path d="M2622 1647 c-9 -10 -4 -13 23 -13 27 0 32 3 23 13 -6 7 -16 13 -23
13 -7 0 -17 -6 -23 -13z"/>
<path d="M2727 1654 c-13 -14 -7 -19 23 -19 17 0 29 5 27 10 -4 12 -40 19 -50
9z"/>
<path d="M371 1636 c-8 -10 -7 -17 5 -27 13 -11 17 -10 25 2 12 20 11 26 -5
32 -8 3 -19 0 -25 -7z"/>
<path d="M2797 1637 c-3 -7 -2 -19 3 -26 5 -10 8 -9 13 2 3 7 2 19 -3 26 -5
10 -8 9 -13 -2z"/>
<path d="M2871 1624 c0 -11 3 -14 6 -6 3 7 2 16 -1 19 -3 4 -6 -2 -5 -13z"/>
<path d="M2581 1614 c0 -11 3 -14 6 -6 3 7 2 16 -1 19 -3 4 -6 -2 -5 -13z"/>
<path d="M216 1605 c-19 -19 -9 -45 26 -69 37 -26 40 -18 7 14 -27 25 -30 32
-19 45 18 21 6 30 -14 10z"/>
<path d="M2604 1585 c0 -18 4 -24 14 -20 7 3 16 5 18 5 2 0 4 6 4 14 0 11 -20
26 -34 26 -1 0 -2 -11 -2 -25z"/>
<path d="M2686 1595 c5 -12 2 -14 -12 -8 -16 6 -17 4 -7 -8 15 -18 55 -18 61
-1 2 8 -3 10 -15 5 -16 -6 -16 -5 -4 10 12 15 11 17 -7 17 -15 0 -20 -5 -16
-15z"/>
<path d="M2773 1603 c-14 -5 -18 -33 -5 -33 4 0 14 5 22 10 11 7 11 10 2 10
-7 0 -10 5 -7 10 7 11 6 11 -12 3z"/>
<path d="M321 1581 c-14 -11 -19 -21 -13 -25 5 -3 20 2 33 12 29 24 11 36 -20
13z"/>
<path d="M1391 1566 c-11 -13 -10 -19 4 -32 19 -19 39 -7 33 22 -4 23 -22 28
-37 10z"/>
<path d="M2325 1570 c-3 -5 -1 -10 4 -10 6 0 11 5 11 10 0 6 -2 10 -4 10 -3 0
-8 -4 -11 -10z"/>
<path d="M2375 1570 l-30 -8 33 -1 c17 0 32 4 32 9 0 6 -1 9 -2 9 -2 -1 -16
-5 -33 -9z"/>
<path d="M2428 1563 c7 -3 16 -2 19 1 4 3 -2 6 -13 5 -11 0 -14 -3 -6 -6z"/>
<path d="M2785 1560 c3 -5 8 -10 11 -10 2 0 4 5 4 10 0 6 -5 10 -11 10 -5 0
-7 -4 -4 -10z"/>
<path d="M2297 1543 c-13 -12 -7 -43 8 -43 9 0 15 9 15 25 0 24 -10 32 -23 18z"/>
<path d="M2336 1543 c-12 -12 -6 -43 9 -43 8 0 15 9 15 19 0 21 -13 34 -24 24z"/>
<path d="M2377 1543 c-12 -12 -7 -43 7 -43 9 0 12 8 8 25 -5 27 -6 28 -15 18z"/>
<path d="M2410 1525 c0 -14 5 -25 10 -25 6 0 10 11 10 25 0 14 -4 25 -10 25
-5 0 -10 -11 -10 -25z"/>
<path d="M2446 1543 c-12 -12 -6 -43 9 -43 8 0 15 9 15 19 0 21 -13 34 -24 24z"/>
<path d="M2610 1535 c7 -8 20 -15 28 -15 13 0 12 3 -4 15 -25 19 -40 19 -24 0z"/>
<path d="M2740 1540 c0 -5 4 -10 9 -10 5 0 5 -15 2 -32 -5 -24 -3 -36 8 -45
11 -8 12 -12 4 -13 -7 0 -13 -4 -13 -10 0 -5 7 -7 16 -3 11 4 13 13 8 37 -4
17 -6 43 -6 59 0 17 -5 27 -14 27 -8 0 -14 -4 -14 -10z"/>
<path d="M486 1506 c5 -12 -14 -15 -117 -15 -84 0 -118 4 -108 10 11 8 10 9
-5 7 -11 -2 -21 -9 -24 -15 -3 -10 30 -13 142 -13 143 0 170 6 126 30 -16 8
-18 8 -14 -4z"/>
<path d="M2173 1483 c30 -69 28 -68 145 -65 44 1 62 6 60 14 -2 6 -11 13 -19
16 -11 3 -11 2 1 -7 12 -9 9 -11 -14 -11 -28 0 -29 1 -10 15 24 18 68 20 58 3
-6 -10 -4 -10 7 0 17 16 29 15 29 -2 0 -8 -10 -17 -22 -19 -13 -2 -5 -4 17 -4
22 0 34 2 27 5 -6 2 -12 11 -12 19 0 13 2 13 17 2 9 -8 14 -9 10 -2 -5 7 -1
10 10 8 10 -2 27 -4 38 -4 16 -1 17 -3 5 -10 -8 -6 -18 -7 -22 -5 -4 3 -8 1
-8 -4 0 -15 41 -22 62 -11 11 6 26 26 34 46 17 39 14 52 -6 28 -15 -18 -80
-20 -80 -2 0 8 -3 8 -9 -2 -11 -16 -32 -23 -76 -22 -16 1 -49 1 -71 1 -26 -1
-48 6 -58 15 -9 9 -16 12 -16 6 0 -17 -66 -13 -80 4 -20 24 -30 17 -17 -12z
m87 -31 c0 9 3 9 10 -2 6 -10 10 -11 10 -2 0 6 5 12 11 12 5 0 7 -6 3 -12 -6
-10 -4 -10 7 0 7 6 20 12 28 12 11 0 10 -4 -5 -15 -25 -19 -65 -19 -90 1 -18
14 -18 15 4 4 17 -8 22 -8 22 2z"/>
<path d="M2643 1493 c-3 -7 -3 -18 0 -25 4 -8 6 -6 6 5 1 21 15 22 35 1 14
-14 18 -13 37 4 l20 20 -46 4 c-31 2 -49 -1 -52 -9z"/>
<path d="M1006 1463 c8 -48 30 -73 63 -73 37 0 50 11 61 51 17 58 16 59 -60
59 l-71 0 7 -37z m114 -1 c0 -5 -11 -18 -24 -29 -21 -18 -25 -19 -30 -6 -5 13
-9 13 -23 2 -10 -8 -14 -9 -10 -2 4 6 3 14 -3 18 -23 14 -7 25 40 25 28 0 50
-4 50 -8z"/>
<path d="M1718 1470 c-37 -11 -68 -34 -89 -67 -24 -36 -24 -60 1 -68 16 -5 20
-15 20 -56 0 -27 5 -49 10 -49 6 0 10 17 10 38 0 75 37 83 59 12 7 -23 10 -44
7 -47 -3 -3 -8 0 -10 8 -21 59 -27 69 -36 64 -6 -4 -6 -15 1 -32 6 -18 6 -30
-2 -39 -14 -17 -49 -19 -49 -3 0 8 -5 8 -15 -1 -20 -17 -19 -31 3 -23 16 7 16
6 0 -11 -38 -37 -67 -102 -70 -152 -2 -39 -7 -51 -18 -49 -8 1 -15 9 -14 17 1
8 -5 15 -12 15 -7 0 -10 -5 -7 -10 3 -6 1 -7 -4 -4 -6 4 -14 21 -18 39 -10 44
-10 48 -2 86 6 28 10 32 27 27 22 -7 64 17 52 30 -4 4 2 6 14 3 12 -3 21 0 21
7 0 7 -11 13 -23 13 -16 0 -24 -7 -26 -22 -4 -26 -41 -29 -46 -3 -2 9 2 17 8
17 6 0 8 -4 5 -10 -3 -5 1 -10 9 -10 10 0 16 9 16 23 0 20 4 23 29 19 40 -6
75 29 66 66 -4 15 -9 29 -11 31 -8 8 -56 -23 -96 -62 -107 -104 -103 -241 7
-304 48 -27 74 -31 55 -8 -33 40 15 197 73 239 40 29 171 33 214 6 38 -23 82
-113 85 -170 1 -31 5 -40 16 -35 7 3 32 8 54 11 34 6 42 12 55 42 17 40 12 96
-13 144 -21 41 -82 107 -116 124 -21 11 -28 22 -28 43 0 78 -118 140 -212 111z
m80 -30 c-10 -6 -25 -7 -40 -1 -20 9 -18 10 17 10 31 0 36 -2 23 -9z m-29 -26
c19 -2 41 1 48 7 16 14 43 4 43 -15 0 -8 13 -17 28 -21 19 -4 28 -12 28 -26 0
-17 -5 -19 -26 -13 -14 4 -34 8 -45 9 -11 1 -28 5 -38 9 -9 5 -34 5 -55 0 -20
-4 -41 -9 -47 -10 -5 -1 -12 -3 -15 -4 -3 -1 -18 -3 -33 -5 -24 -3 -28 -1 -25
17 2 12 12 22 23 24 11 2 26 12 34 24 9 14 20 19 30 14 9 -4 31 -8 50 -10z
m-21 -85 l8 -20 18 20 c22 24 38 27 30 6 -4 -8 -10 -12 -15 -10 -14 10 -22
-45 -10 -72 8 -17 8 -24 1 -21 -14 4 -61 118 -49 118 6 0 13 -9 17 -21z m133
4 c24 -14 29 -24 29 -55 0 -37 21 -61 38 -43 4 4 1 10 -5 12 -7 3 -12 19 -12
36 2 28 2 29 7 7 4 -23 5 -24 13 -5 7 19 8 19 8 -1 1 -26 20 -43 57 -53 26 -7
26 -7 8 -26 -17 -17 -17 -18 -2 -12 22 8 38 -20 44 -79 5 -43 -8 -77 -31 -81
-5 -1 -17 -4 -26 -8 -12 -5 -18 6 -28 49 -7 31 -12 59 -12 63 0 5 -9 17 -20
29 -10 11 -16 24 -12 29 5 4 3 5 -3 2 -7 -4 -16 -1 -22 6 -11 13 -12 17 -12
43 0 14 -1 14 -16 0 -19 -19 -25 -20 -21 -4 1 9 -10 13 -33 13 -29 0 -36 4
-38 23 -5 32 13 50 43 44 20 -3 25 -10 25 -33 0 -16 5 -29 10 -29 20 0 10 59
-12 74 -30 21 -13 20 23 -1z m-267 -61 c-14 -21 -43 -28 -58 -12 -8 9 -5 11
14 8 20 -2 26 2 28 21 3 17 7 20 15 12 8 -8 9 -16 1 -29z"/>
<path d="M1814 1295 c-3 -8 -3 -19 1 -25 10 -16 35 7 28 26 -7 18 -22 18 -29
-1z"/>
<path d="M1964 1231 c4 -5 2 -12 -4 -16 -5 -3 -10 -12 -10 -18 0 -9 2 -9 8 -1
4 7 15 13 25 15 16 4 16 5 -4 17 -11 8 -18 9 -15 3z"/>
<path d="M2610 1459 c0 -8 5 -21 10 -29 8 -12 9 -10 7 7 -4 26 -17 43 -17 22z"/>
<path d="M2667 1453 c-4 -3 -7 -11 -7 -17 0 -6 5 -5 12 2 6 6 9 14 7 17 -3 3
-9 2 -12 -2z"/>
<path d="M583 1435 c-24 -10 -31 -18 -26 -30 3 -10 0 -21 -8 -26 -19 -12 -86
-11 -94 1 -4 6 12 10 41 10 38 0 44 2 35 14 -11 14 -62 9 -90 -8 -17 -11 -14
-105 4 -112 10 -4 15 -20 15 -44 0 -25 5 -40 16 -44 20 -8 78 -8 98 0 17 7 22
44 6 44 -5 0 -10 -4 -10 -9 0 -13 -48 -23 -71 -16 -17 6 -18 9 -7 23 10 12 10
14 1 8 -7 -4 -13 -4 -13 1 0 4 27 9 60 10 35 2 58 -1 55 -7 -3 -5 -1 -11 4
-15 6 -3 8 -12 5 -20 -7 -17 26 -35 65 -35 48 0 61 9 61 44 0 25 5 34 28 42
25 9 27 15 25 58 -1 55 -22 78 -65 73 -18 -2 -28 1 -28 9 0 14 -34 36 -60 40
-8 2 -30 -3 -47 -11z m75 -14 c7 -1 10 -5 7 -11 -8 -13 -82 -13 -90 -1 -5 10
28 19 55 15 8 -1 21 -3 28 -3z m77 -47 c11 -1 24 -3 28 -3 5 -1 5 -5 2 -11 -8
-13 -71 -13 -97 1 -17 9 -18 13 -7 20 8 5 23 6 34 2 11 -3 29 -7 40 -9z m-95
-24 c20 -6 22 -9 9 -14 -32 -14 -119 -11 -119 3 0 18 65 25 110 11z m-151 -17
c-6 -7 -15 -10 -20 -7 -13 8 -3 21 15 21 12 0 13 -4 5 -14z m266 -13 c7 -12
-12 -12 -40 0 -18 8 -17 9 7 9 15 1 30 -3 33 -9z m-171 -19 c12 -18 -71 -29
-109 -15 -13 5 -14 8 -3 15 17 12 105 11 112 0z m127 -1 c30 0 22 -18 -10 -25
-35 -7 -106 4 -94 15 10 10 54 18 71 14 8 -2 22 -4 33 -4z m-17 -57 c6 1 12
-9 13 -23 l2 -25 -8 25 c-7 25 -7 25 -13 3 -6 -23 -28 -32 -28 -12 0 5 -5 7
-11 4 -9 -6 -38 21 -39 36 0 4 17 3 37 -1 20 -5 41 -8 47 -7z"/>
<path d="M513 1293 c9 -2 23 -2 30 0 6 3 -1 5 -18 5 -16 0 -22 -2 -12 -5z"/>
<path d="M658 1283 c7 -3 16 -2 19 1 4 3 -2 6 -13 5 -11 0 -14 -3 -6 -6z"/>
<path d="M2633 1413 c-31 -11 -8 -18 62 -19 41 -1 75 2 75 6 0 5 -25 9 -55 9
-30 0 -58 2 -62 4 -5 2 -14 2 -20 0z"/>
<path d="M953 1403 c-15 -5 -18 -43 -4 -43 5 0 11 10 14 22 7 26 6 27 -10 21z"/>
<path d="M2277 1404 c-4 -4 -7 -20 -7 -36 0 -23 4 -29 18 -26 11 2 17 13 17
32 0 29 -14 43 -28 30z"/>
<path d="M2327 1403 c-14 -13 -7 -63 8 -63 10 0 15 11 15 35 0 33 -8 43 -23
28z"/>
<path d="M2370 1376 c0 -26 4 -36 16 -36 11 0 14 8 12 32 -4 46 -28 49 -28 4z"/>
<path d="M2417 1403 c-14 -13 -7 -63 8 -63 10 0 15 11 15 35 0 33 -8 43 -23
28z"/>
<path d="M2460 1376 c0 -26 4 -36 16 -36 11 0 14 8 12 32 -4 46 -28 49 -28 4z"/>
<path d="M2242 1375 c0 -16 2 -22 5 -12 2 9 2 23 0 30 -3 6 -5 -1 -5 -18z"/>
<path d="M2510 1375 c0 -15 4 -24 10 -20 6 3 10 12 10 20 0 8 -4 17 -10 20 -6
4 -10 -5 -10 -20z"/>
<path d="M1162 1346 c-26 -13 -24 -31 5 -31 24 -1 53 -22 53 -40 0 -7 -7 -18
-15 -25 -11 -9 -15 -10 -15 0 0 7 -13 10 -37 8 -22 -2 -38 2 -40 10 -3 7 1 10
10 6 23 -8 31 16 11 30 -13 10 -24 11 -39 3 -11 -5 -27 -13 -35 -17 -28 -13
-17 -35 17 -32 17 2 34 -2 38 -7 3 -6 19 -11 35 -11 24 0 29 -5 32 -27 3 -24
8 -29 43 -33 49 -6 56 -27 22 -66 -21 -24 -27 -26 -41 -15 -13 11 -19 11 -32
0 -13 -11 -18 -10 -32 8 -10 12 -30 24 -47 26 -23 3 -19 4 15 6 l45 2 -24 20
c-13 11 -37 19 -55 18 -17 0 -40 2 -51 5 -11 4 -27 2 -35 -3 -22 -15 15 -53
45 -45 13 3 26 1 29 -5 4 -6 19 -11 34 -11 19 0 31 -7 37 -22 11 -23 15 -24
50 -13 14 4 12 2 -5 -9 -14 -8 -33 -15 -42 -16 -9 0 -30 -11 -46 -25 -37 -31
-40 -31 -44 -2 -2 18 -10 23 -41 25 -29 2 -38 7 -36 20 3 35 -2 41 -37 48 -19
4 -38 12 -41 20 -2 7 -12 12 -21 12 -9 0 -23 1 -31 3 -27 8 -22 -21 6 -33 15
-7 34 -18 41 -25 16 -16 29 -16 37 -3 9 15 35 12 35 -3 0 -8 -11 -20 -25 -27
-21 -11 -27 -11 -42 2 -19 15 -73 23 -73 10 0 -4 4 -13 8 -19 8 -13 25 -14
135 -13 98 1 101 -17 18 -101 l-59 -59 -16 24 c-8 14 -26 26 -38 28 -30 4 -30
22 0 26 28 4 28 18 1 32 -14 8 -29 9 -47 2 -15 -6 -39 -13 -54 -16 -16 -4 -28
-13 -28 -21 0 -11 13 -15 50 -15 28 0 50 -4 50 -10 0 -5 8 -10 18 -10 21 0 59
-37 49 -47 -4 -3 -17 -2 -30 4 -63 30 -105 36 -151 22 -50 -15 -54 -20 -30
-40 12 -10 22 -10 47 -1 50 17 115 24 122 12 8 -13 51 -13 75 0 22 12 50 -10
50 -39 0 -9 13 -21 30 -28 21 -8 28 -16 24 -27 -4 -10 -1 -16 9 -16 8 0 17 -7
21 -15 4 -11 -2 -15 -24 -15 -27 0 -30 -3 -30 -34 0 -29 3 -33 23 -31 12 1 70
3 130 4 l107 1 0 30 c0 28 -3 30 -36 30 -24 0 -41 7 -53 21 -10 12 -34 24 -57
28 -30 5 -40 11 -42 29 -2 13 -22 35 -47 52 -48 33 -72 60 -37 41 26 -14 69
-14 77 -1 5 8 11 7 20 0 23 -19 60 -8 60 18 0 21 27 52 46 52 6 0 29 -53 29
-67 0 -3 -12 -3 -27 -1 -20 2 -28 -2 -28 -12 0 -11 17 -17 59 -23 74 -10 92 3
40 29 -26 13 -40 28 -45 47 -6 23 -5 28 7 23 9 -3 20 -6 25 -6 4 0 15 -13 24
-30 15 -29 18 -30 76 -27 74 5 94 20 59 47 -18 13 -28 16 -37 8 -7 -6 -23 -8
-35 -5 -13 4 -30 2 -38 -3 -10 -6 -20 -4 -32 7 -9 8 -32 18 -50 22 -20 4 13 7
80 8 62 0 115 3 119 7 15 15 -19 28 -76 31 -56 2 -61 1 -56 -16 6 -16 1 -18
-44 -12 -45 5 -53 3 -80 -23 -17 -16 -31 -37 -31 -46 0 -21 -13 -23 -42 -7
-14 8 -23 8 -31 0 -13 -13 -57 -15 -57 -2 0 5 14 11 30 15 18 3 30 12 30 21 0
25 38 55 68 55 16 0 37 9 47 20 10 11 26 20 35 20 21 0 50 31 50 54 0 17 2 17
24 2 14 -9 32 -13 40 -10 11 4 13 0 9 -15 -3 -12 -3 -21 0 -21 16 0 77 32 77
40 0 11 -9 13 -62 10 -55 -2 -80 8 -73 30 3 10 1 21 -5 25 -5 3 -10 13 -10 21
0 11 9 13 40 8 22 -4 40 -3 40 2 0 5 -20 10 -45 12 -25 1 -45 -1 -45 -6 0 -4
-16 -8 -35 -9 -41 -1 -43 5 -13 42 17 22 19 31 10 45 -9 14 -8 21 3 30 39 33
-17 52 -73 26z m58 -17 c0 -15 -18 -19 -23 -6 -3 8 1 14 9 14 8 0 14 -4 14 -8z
m-26 -604 c3 -8 12 -12 21 -9 8 3 23 3 33 -1 30 -13 -15 -24 -100 -24 -79 -1
-108 4 -108 21 0 5 4 7 9 4 5 -3 14 1 21 9 17 21 116 21 124 0z"/>
<path d="M2130 1355 c0 -20 36 -87 51 -95 25 -14 365 -13 391 1 19 10 48 65
48 90 0 7 -10 3 -23 -9 -23 -22 -84 -32 -72 -12 3 6 -1 10 -10 10 -9 0 -13 -4
-10 -10 4 -6 -40 -10 -125 -10 -85 0 -129 4 -125 10 3 6 1 10 -4 10 -6 0 -11
-4 -11 -10 0 -18 -59 -11 -80 10 -20 20 -30 25 -30 15z m136 -56 c-10 16 76
14 93 -1 8 -7 11 -8 8 -2 -5 8 18 12 74 13 53 1 79 -2 74 -8 -4 -7 6 -9 25 -7
27 3 30 1 18 -10 -10 -10 -55 -14 -180 -14 -92 -1 -172 1 -177 5 -31 19 17 39
53 22 13 -6 16 -6 12 2z"/>
<path d="M849 1308 c-55 -72 -92 -108 -149 -147 l-55 -38 -65 11 c-88 16 -210
82 -194 107 4 7 3 10 -3 6 -6 -4 -16 -1 -21 6 -8 10 -6 13 10 14 22 2 45 19
37 28 -3 2 -22 0 -42 -6 l-37 -10 17 -31 c20 -34 82 -87 129 -111 52 -26 124
-40 140 -26 8 7 17 10 20 7 2 -3 -12 -18 -33 -33 -21 -16 -40 -30 -42 -31 -1
-1 0 -8 4 -14 6 -9 90 54 148 112 42 42 23 12 -42 -68 -66 -81 -84 -110 -62
-102 5 2 37 39 71 83 34 44 74 87 90 95 16 8 45 31 66 50 28 25 46 34 66 31
15 -1 28 2 28 7 0 5 -11 8 -25 7 -14 -2 -25 1 -25 7 0 9 -54 -36 -89 -74 -26
-30 -33 -20 -9 12 12 17 48 51 80 76 32 25 58 50 58 56 0 7 -10 2 -23 -10 -29
-28 -46 -29 -22 -2 10 11 16 23 13 26 -3 2 -20 -14 -39 -38z"/>
<path d="M1355 1336 c-13 -9 -16 -19 -10 -32 7 -17 9 -17 12 -2 2 9 14 18 25
20 18 3 19 5 6 15 -12 10 -18 10 -33 -1z"/>
<path d="M1542 1330 c-12 -12 -22 -24 -22 -27 0 -4 11 4 25 17 23 22 29 30 22
30 -2 0 -13 -9 -25 -20z"/>
<path d="M1996 1343 c-12 -13 -5 -20 19 -20 14 0 28 5 32 11 3 6 3 8 -2 4 -4
-4 -15 -3 -25 2 -10 5 -20 6 -24 3z"/>
<path d="M946 1308 c-15 -29 -15 -32 4 -50 21 -19 50 -24 50 -8 0 6 6 9 13 8
8 -2 11 8 9 31 -3 41 0 36 -34 45 -23 5 -29 1 -42 -26z m61 -16 c0 -16 -14
-32 -28 -32 -9 0 -20 30 -15 39 9 15 43 9 43 -7z"/>
<path d="M1040 1336 c0 -2 7 -7 16 -10 8 -3 12 -2 9 4 -6 10 -25 14 -25 6z"/>
<path d="M1277 1333 c-4 -3 2 -13 14 -21 25 -17 37 -9 16 13 -17 17 -21 18
-30 8z"/>
<path d="M1485 1330 c-3 -5 -1 -10 4 -10 6 0 11 5 11 10 0 6 -2 10 -4 10 -3 0
-8 -4 -11 -10z"/>
<path d="M2074 1308 c3 -13 5 -27 5 -32 1 -6 5 -6 11 0 11 11 2 54 -11 54 -5
0 -7 -10 -5 -22z"/>
<path d="M1425 1308 c-2 -7 0 -29 4 -48 l9 -35 1 48 c1 45 -5 60 -14 35z"/>
<path d="M1460 1273 c0 -26 3 -34 9 -24 5 8 7 21 4 29 -3 8 0 18 8 23 11 7 11
9 -3 9 -14 0 -18 -8 -18 -37z"/>
<path d="M1310 1271 c0 -18 54 -49 73 -43 5 1 6 -2 3 -7 -4 -5 -2 -12 3 -16 6
-3 15 3 20 14 9 16 7 21 -8 26 -11 3 -22 12 -25 20 -3 8 -12 12 -20 9 -8 -3
-17 -1 -21 5 -10 17 -25 13 -25 -8z"/>
<path d="M2124 1255 c-5 -11 -10 -13 -19 -5 -10 8 -15 8 -21 -1 -4 -8 -3 -9 4
-5 7 4 12 2 12 -3 0 -16 26 -13 39 3 8 10 9 16 1 21 -5 3 -13 -1 -16 -10z"/>
<path d="M1256 1241 c-4 -5 3 -7 14 -4 23 6 26 13 6 13 -8 0 -17 -4 -20 -9z"/>
<path d="M1080 1221 c0 -6 5 -13 10 -16 6 -3 10 1 10 9 0 9 -4 16 -10 16 -5 0
-10 -4 -10 -9z"/>
<path d="M2201 1214 c0 -11 3 -14 6 -6 3 7 2 16 -1 19 -3 4 -6 -2 -5 -13z"/>
<path d="M2220 1200 c0 -20 5 -30 15 -30 10 0 15 10 15 30 0 20 -5 30 -15 30
-10 0 -15 -10 -15 -30z"/>
<path d="M2270 1200 c0 -20 5 -30 15 -30 10 0 15 10 15 30 0 20 -5 30 -15 30
-10 0 -15 -10 -15 -30z"/>
<path d="M2319 1228 c0 -2 -2 -15 -3 -30 -1 -21 3 -28 16 -28 13 0 18 8 18 30
0 20 -5 30 -15 30 -8 0 -15 -1 -16 -2z"/>
<path d="M2360 1200 c0 -20 5 -30 15 -30 10 0 15 10 15 30 0 20 -5 30 -15 30
-10 0 -15 -10 -15 -30z"/>
<path d="M2410 1200 c0 -20 5 -30 15 -30 10 0 15 10 15 30 0 20 -5 30 -15 30
-10 0 -15 -10 -15 -30z"/>
<path d="M2457 1224 c-4 -4 -7 -18 -7 -31 0 -16 6 -23 19 -23 15 0 19 6 18 27
-2 26 -17 40 -30 27z"/>
<path d="M2500 1200 c0 -22 5 -30 18 -30 15 0 18 6 14 30 -2 17 -10 30 -18 30
-9 0 -14 -11 -14 -30z"/>
<path d="M2542 1165 c-10 -12 -44 -14 -177 -12 -91 1 -165 -1 -165 -5 0 -5 81
-8 180 -8 173 0 180 1 180 20 0 23 -1 24 -18 5z"/>
<path d="M1864 1139 c-4 -7 -3 -9 4 -5 5 3 13 0 15 -6 4 -9 6 -10 6 -1 1 17
-16 25 -25 12z"/>
<path d="M2140 1086 c0 -69 50 -91 78 -33 17 35 7 74 -14 56 -11 -9 -18 -8
-32 5 -28 24 -32 20 -32 -28z m53 -38 c-9 -16 -41 12 -36 32 5 19 6 19 23 -3
10 -12 16 -25 13 -29z"/>
<path d="M1636 1091 c-3 -4 12 -8 34 -8 22 0 37 4 34 8 -3 5 -18 9 -34 9 -16
0 -31 -4 -34 -9z"/>
<path d="M1834 1085 c-18 -14 -17 -14 9 -5 16 5 40 7 55 4 21 -4 24 -3 12 5
-21 15 -53 13 -76 -4z"/>
<path d="M2288 1089 c-27 -15 -25 -85 2 -94 11 -3 20 -15 20 -25 0 -23 37 -35
75 -26 16 4 25 13 25 26 0 13 8 20 28 22 23 2 28 8 30 36 2 18 -2 40 -9 48
-13 16 -79 20 -79 4 0 -5 6 -7 13 -4 7 2 24 0 38 -5 22 -9 21 -10 -14 -10 -25
-1 -43 5 -54 19 -19 22 -48 25 -75 9z m62 -19 c0 -5 -13 -10 -30 -10 -16 0
-30 5 -30 10 0 6 14 10 30 10 17 0 30 -4 30 -10z m55 -40 c8 -13 -39 -24 -70
-16 -37 9 -21 26 25 26 21 0 42 -4 45 -10z m-31 -49 c3 -5 -1 -11 -9 -15 -15
-6 -29 7 -18 18 9 9 21 8 27 -3z"/>
<path d="M1632 1047 c-13 -16 -6 -28 12 -21 7 3 25 0 41 -6 27 -10 28 -10 13
12 -18 27 -50 34 -66 15z"/>
<path d="M1845 1030 l-30 -31 39 16 c21 9 45 14 53 11 10 -4 13 0 11 12 -5 29
-41 25 -73 -8z"/>
<path d="M2076 995 c-3 -10 -12 -15 -21 -11 -8 3 -15 1 -15 -4 0 -6 21 -10 46
-10 27 0 43 4 39 10 -3 6 0 10 8 10 11 0 12 -10 7 -45 -8 -53 -19 -68 -27 -37
-4 18 -10 21 -32 15 -14 -3 -27 -6 -28 -7 -1 -1 -3 -15 -5 -31 -2 -22 1 -29
11 -27 8 2 18 -3 23 -10 7 -10 11 -9 22 5 19 25 27 21 15 -9 -5 -15 -11 -49
-14 -75 -2 -27 -7 -59 -11 -71 -6 -20 -9 -17 -31 25 -13 26 -21 52 -18 56 2 5
-2 15 -11 22 -14 11 -54 81 -54 93 0 3 10 5 23 3 16 -1 22 3 22 18 0 27 -42
34 -47 8 -3 -13 -8 -7 -18 20 -8 20 -19 37 -25 37 -6 0 6 -35 26 -77 27 -54
36 -84 32 -104 -4 -21 -1 -28 16 -34 19 -6 68 -81 59 -91 -2 -2 -39 15 -81 37
-73 38 -95 59 -62 59 8 0 15 -7 15 -15 0 -8 5 -15 10 -15 12 0 13 11 0 30 -12
19 -50 22 -50 4 0 -19 -1 -19 -65 17 -31 17 -59 28 -62 25 -4 -3 -4 -7 -2 -8
18 -12 139 -76 207 -110 45 -23 82 -45 82 -49 0 -7 -112 -19 -119 -13 -3 2 3
10 12 17 23 17 -1 48 -30 41 -27 -7 -36 -41 -15 -53 16 -9 5 -11 -105 -24 -18
-2 -33 0 -33 5 0 4 5 8 10 8 7 0 8 13 4 34 -3 19 -1 51 6 72 10 30 10 38 -1
45 -25 15 -34 -11 -35 -96 -1 -100 -20 -92 176 -70 93 11 136 13 145 5 13 -11
45 -4 45 11 0 5 0 12 0 17 0 4 50 57 111 118 l111 112 -38 36 c-74 69 -213
119 -228 81z m110 -27 c5 -7 3 -8 -6 -3 -9 6 -11 4 -6 -4 5 -7 15 -10 23 -7 8
3 11 1 8 -4 -3 -6 -2 -10 3 -10 4 0 26 -15 48 -33 21 -19 46 -32 54 -29 8 2
-32 -43 -90 -102 -57 -58 -107 -106 -111 -106 -3 0 -1 25 4 55 6 30 14 52 19
49 5 -3 15 2 23 12 11 16 11 22 -2 37 -14 15 -15 26 -4 87 12 68 22 83 37 58z
m-175 -51 c-1 -12 -15 -9 -19 4 -3 6 1 10 8 8 6 -3 11 -8 11 -12z m92 -20 c3
-8 1 -20 -4 -28 -11 -19 -34 3 -26 25 8 20 23 21 30 3z m42 -86 c3 -5 1 -12
-5 -16 -5 -3 -10 1 -10 9 0 18 6 21 15 7z m-125 -27 c0 -8 -4 -12 -10 -9 -5 3
-10 10 -10 16 0 5 5 9 10 9 6 0 10 -7 10 -16z m-80 -119 c0 -8 -7 -15 -15 -15
-8 0 -15 7 -15 15 0 8 7 15 15 15 8 0 15 -7 15 -15z m162 -20 c0 -5 -5 -11
-11 -13 -6 -2 -11 4 -11 13 0 9 5 15 11 13 6 -2 11 -8 11 -13z"/>
<path d="M2165 921 c-3 -2 -5 -14 -5 -27 0 -29 28 -39 51 -18 14 13 16 20 7
34 -11 17 -42 23 -53 11z m36 -26 c-1 -15 -24 -12 -29 3 -3 9 2 13 12 10 10
-1 17 -7 17 -13z"/>
<path d="M2190 821 c-8 -16 -6 -22 7 -29 21 -12 46 10 37 32 -8 22 -31 20 -44
-3z m30 -11 c0 -5 -4 -10 -10 -10 -5 0 -10 5 -10 10 0 6 5 10 10 10 6 0 10 -4
10 -10z"/>
<path d="M1985 966 c-18 -13 -18 -14 8 -9 15 3 30 9 33 14 8 14 -20 10 -41 -5z"/>
<path d="M1857 923 c-21 -20 -47 -48 -57 -63 -18 -26 -19 -28 -2 -32 11 -3 37
16 75 54 31 32 52 58 46 58 -5 0 -7 5 -4 10 15 24 -24 7 -58 -27z m13 -16 c0
-2 -12 -14 -27 -28 l-28 -24 24 28 c23 25 31 32 31 24z"/>
<path d="M1609 915 c13 -28 57 -71 98 -96 49 -30 51 -17 3 15 -22 14 -56 43
-76 64 -19 20 -31 28 -25 17z"/>
<path d="M1480 912 c0 -15 46 -52 63 -52 23 0 21 16 -3 40 -20 20 -60 28 -60
12z"/>
<path d="M1740 901 c0 -16 27 -31 44 -25 28 11 19 34 -14 34 -16 0 -30 -4 -30
-9z"/>
<path d="M1900 890 c0 -21 -2 -25 -16 -33 -18 -10 -18 -27 1 -27 8 0 15 -7 15
-16 0 -12 6 -15 23 -10 12 3 27 6 34 6 6 0 11 13 11 30 -1 23 -8 34 -31 45
-36 18 -37 18 -37 5z m38 -29 c17 -10 15 -23 -5 -35 -19 -10 -38 7 -30 28 7
18 16 20 35 7z"/>
<path d="M1413 801 c-54 -25 -59 -61 -14 -89 28 -17 29 -19 10 -30 -24 -15
-24 -38 0 -59 19 -16 19 -17 -5 -36 -61 -48 6 -102 127 -102 74 0 77 1 110 35
31 32 38 58 20 70 -5 3 0 17 9 32 l16 27 10 -49 c6 -27 6 -47 2 -44 -5 3 -6
-6 -2 -20 5 -22 4 -25 -12 -19 -11 4 -15 3 -11 -4 9 -15 66 -10 76 6 6 9 11
10 15 2 4 -6 4 -16 0 -22 -3 -6 -2 -14 3 -18 6 -3 13 -16 17 -27 10 -31 -37
-67 -79 -61 -53 8 -65 17 -61 46 2 21 -1 27 -16 27 -15 0 -18 -5 -13 -26 11
-45 40 -65 94 -65 80 0 117 53 86 120 -20 41 -45 52 -63 28 -13 -16 -14 -14
-8 16 4 23 1 42 -10 59 -9 13 -14 32 -11 42 6 22 -18 60 -39 60 -18 0 -18 8 1
27 21 21 16 42 -18 67 -41 31 -175 35 -234 7z m59 -24 c-23 -24 -30 -53 -10
-41 6 4 8 3 5 -3 -7 -11 52 -28 61 -18 3 3 -1 5 -9 5 -8 0 -20 4 -27 9 -20 12
17 71 45 71 33 0 53 -11 53 -29 1 -14 2 -14 11 2 11 19 24 15 39 -12 7 -15 6
-18 -7 -17 -8 0 -17 -7 -18 -17 -2 -10 1 -14 8 -10 6 4 8 0 4 -10 -4 -10 3
-21 20 -32 19 -13 22 -19 13 -25 -7 -4 -14 -23 -15 -42 -3 -54 -14 -75 -45
-88 -35 -15 -94 -8 -115 14 -8 8 -23 17 -33 20 -10 4 -19 13 -19 21 0 11 10
13 44 9 52 -6 58 11 7 19 -40 7 -74 32 -74 55 0 12 5 11 23 -6 24 -23 102 -54
111 -45 10 11 -5 22 -21 16 -11 -4 -14 -3 -9 5 5 8 1 10 -10 5 -11 -4 -15 -3
-11 4 5 7 0 9 -12 6 -13 -3 -23 2 -31 16 -15 30 -5 41 33 36 30 -5 31 -5 5 4
-38 13 -88 50 -88 65 0 16 37 34 69 35 l24 1 -21 -23z m-8 -253 c56 -26 38
-33 -21 -9 -40 17 -55 33 -46 49 4 6 8 5 11 -3 2 -7 27 -24 56 -37z"/>
<path d="M867 803 c-4 -3 -7 -14 -7 -24 0 -9 -7 -19 -15 -23 -22 -8 -19 -47 4
-53 11 -3 21 -13 24 -24 6 -24 45 -25 55 -1 4 9 16 17 27 17 13 0 21 8 23 23
2 12 -1 22 -7 22 -5 0 -9 12 -8 28 2 23 -2 27 -25 27 -15 1 -30 4 -34 8 -9 9
-29 9 -37 0z m49 -46 c-6 9 -4 13 7 13 8 0 17 -12 20 -26 3 -20 -1 -27 -20
-35 -32 -12 -33 -12 -33 7 0 8 -4 12 -10 9 -12 -7 -14 8 -2 19 4 4 8 12 8 17
1 5 2 12 3 15 0 3 9 -2 19 -13 9 -10 13 -13 8 -6z"/>
<path d="M2060 768 c0 -4 7 -8 15 -8 8 0 15 4 15 8 0 5 -7 9 -15 9 -8 0 -15
-4 -15 -9z"/>
<path d="M1818 723 c-23 -6 -25 -63 -3 -63 8 0 15 -6 15 -12 0 -7 12 0 28 16
18 19 23 30 15 33 -7 3 -13 11 -13 19 0 14 -10 16 -42 7z m31 -27 c9 -11 8
-15 -5 -20 -21 -8 -34 1 -27 19 7 19 17 19 32 1z"/>
<path d="M1053 653 c-8 -3 -13 -25 -13 -59 l0 -54 111 0 111 0 -5 56 c-6 61
-16 84 -18 38 -2 -49 -4 -54 -19 -64 -8 -5 -43 -10 -78 -10 -59 0 -63 2 -73
27 -6 16 -8 38 -6 50 2 13 4 23 3 22 0 0 -7 -3 -13 -6z"/>
<path d="M1905 578 c-29 -15 -45 -39 -45 -64 0 -27 38 -39 74 -22 28 12 35 38
12 38 -11 0 -13 7 -6 30 9 33 0 38 -35 18z m13 -56 c2 -7 -3 -12 -12 -12 -9 0
-16 7 -16 16 0 17 22 14 28 -4z"/>
<path d="M1284 495 c-5 -11 -10 -13 -19 -5 -29 24 -68 -22 -41 -48 13 -14 13
-17 -1 -27 -11 -8 -13 -19 -8 -34 6 -19 12 -22 36 -17 21 4 29 2 29 -8 0 -8 6
-16 13 -19 19 -7 47 12 47 32 0 10 9 21 20 24 14 3 20 14 20 31 0 24 -10 31
-34 27 -5 -1 -6 6 -2 15 3 9 1 23 -5 30 -15 19 -48 18 -55 -1z m33 -31 c-3 -4
1 -13 9 -21 17 -17 14 -35 -6 -41 -8 -3 -10 0 -5 8 5 8 4 11 -3 6 -6 -4 -8
-14 -5 -23 4 -11 2 -14 -8 -11 -8 3 -13 11 -11 18 3 11 0 11 -12 0 -17 -13
-18 -12 -18 25 0 38 1 39 19 24 9 -8 14 -9 10 -2 -4 6 -1 14 5 16 19 8 32 8
25 1z"/>
<path d="M1450 384 c-7 -30 -8 -59 -5 -62 4 -4 10 -1 13 7 2 7 13 22 23 32 18
18 18 22 4 49 -9 17 -17 30 -20 30 -2 0 -9 -25 -15 -56z"/>
<path d="M1506 360 c-35 -71 -56 -97 -56 -71 0 4 -12 22 -27 39 -26 28 -30 30
-47 17 -11 -8 -17 -18 -13 -21 4 -4 13 -2 20 5 12 9 18 2 33 -41 14 -37 28
-57 51 -71 32 -18 32 -18 75 9 54 35 88 65 88 77 0 6 -12 0 -27 -14 -21 -19
-25 -20 -20 -6 5 14 -28 157 -36 157 -1 0 -20 -36 -41 -80z m44 -11 c9 -15 8
-24 -2 -37 -9 -11 -10 -14 0 -8 8 5 12 -1 12 -19 0 -20 -8 -29 -35 -41 -26
-10 -41 -12 -55 -4 -18 10 -17 13 21 70 22 33 42 60 44 60 2 0 9 -9 15 -21z"/>
</g>
</svg>
